%TF.GenerationSoftware,KiCad,Pcbnew,(6.0.7-1)-1*%
%TF.CreationDate,2023-01-24T10:13:40-08:00*%
%TF.ProjectId,QCard,51436172-642e-46b6-9963-61645f706362,1903842*%
%TF.SameCoordinates,Original*%
%TF.FileFunction,Legend,Bot*%
%TF.FilePolarity,Positive*%
%FSLAX46Y46*%
G04 Gerber Fmt 4.6, Leading zero omitted, Abs format (unit mm)*
G04 Created by KiCad (PCBNEW (6.0.7-1)-1) date 2023-01-24 10:13:40*
%MOMM*%
%LPD*%
G01*
G04 APERTURE LIST*
%ADD10C,0.150000*%
G04 APERTURE END LIST*
D10*
X90863095Y-67178273D02*
X90982142Y-67118750D01*
X91101190Y-66999702D01*
X91279761Y-66821130D01*
X91398809Y-66761607D01*
X91517857Y-66761607D01*
X91458333Y-67059226D02*
X91577380Y-66999702D01*
X91696428Y-66880654D01*
X91755952Y-66642559D01*
X91755952Y-66225892D01*
X91696428Y-65987797D01*
X91577380Y-65868750D01*
X91458333Y-65809226D01*
X91220238Y-65809226D01*
X91101190Y-65868750D01*
X90982142Y-65987797D01*
X90922619Y-66225892D01*
X90922619Y-66642559D01*
X90982142Y-66880654D01*
X91101190Y-66999702D01*
X91220238Y-67059226D01*
X91458333Y-67059226D01*
X90386904Y-66583035D02*
X89434523Y-66583035D01*
X88125000Y-66940178D02*
X88184523Y-66999702D01*
X88363095Y-67059226D01*
X88482142Y-67059226D01*
X88660714Y-66999702D01*
X88779761Y-66880654D01*
X88839285Y-66761607D01*
X88898809Y-66523511D01*
X88898809Y-66344940D01*
X88839285Y-66106845D01*
X88779761Y-65987797D01*
X88660714Y-65868750D01*
X88482142Y-65809226D01*
X88363095Y-65809226D01*
X88184523Y-65868750D01*
X88125000Y-65928273D01*
X87589285Y-67059226D02*
X87589285Y-65809226D01*
X87053571Y-67059226D02*
X87053571Y-66404464D01*
X87113095Y-66285416D01*
X87232142Y-66225892D01*
X87410714Y-66225892D01*
X87529761Y-66285416D01*
X87589285Y-66344940D01*
X86279761Y-67059226D02*
X86398809Y-66999702D01*
X86458333Y-66940178D01*
X86517857Y-66821130D01*
X86517857Y-66463988D01*
X86458333Y-66344940D01*
X86398809Y-66285416D01*
X86279761Y-66225892D01*
X86101190Y-66225892D01*
X85982142Y-66285416D01*
X85922619Y-66344940D01*
X85863095Y-66463988D01*
X85863095Y-66821130D01*
X85922619Y-66940178D01*
X85982142Y-66999702D01*
X86101190Y-67059226D01*
X86279761Y-67059226D01*
X85327380Y-67059226D02*
X85327380Y-66225892D01*
X85327380Y-66463988D02*
X85267857Y-66344940D01*
X85208333Y-66285416D01*
X85089285Y-66225892D01*
X84970238Y-66225892D01*
X84017857Y-67059226D02*
X84017857Y-65809226D01*
X84017857Y-66999702D02*
X84136904Y-67059226D01*
X84375000Y-67059226D01*
X84494047Y-66999702D01*
X84553571Y-66940178D01*
X84613095Y-66821130D01*
X84613095Y-66463988D01*
X84553571Y-66344940D01*
X84494047Y-66285416D01*
X84375000Y-66225892D01*
X84136904Y-66225892D01*
X84017857Y-66285416D01*
X82529761Y-66999702D02*
X82410714Y-67059226D01*
X82172619Y-67059226D01*
X82053571Y-66999702D01*
X81994047Y-66880654D01*
X81994047Y-66821130D01*
X82053571Y-66702083D01*
X82172619Y-66642559D01*
X82351190Y-66642559D01*
X82470238Y-66583035D01*
X82529761Y-66463988D01*
X82529761Y-66404464D01*
X82470238Y-66285416D01*
X82351190Y-66225892D01*
X82172619Y-66225892D01*
X82053571Y-66285416D01*
X81279761Y-67059226D02*
X81398809Y-66999702D01*
X81458333Y-66940178D01*
X81517857Y-66821130D01*
X81517857Y-66463988D01*
X81458333Y-66344940D01*
X81398809Y-66285416D01*
X81279761Y-66225892D01*
X81101190Y-66225892D01*
X80982142Y-66285416D01*
X80922619Y-66344940D01*
X80863095Y-66463988D01*
X80863095Y-66821130D01*
X80922619Y-66940178D01*
X80982142Y-66999702D01*
X81101190Y-67059226D01*
X81279761Y-67059226D01*
X80327380Y-66225892D02*
X80327380Y-67059226D01*
X80327380Y-66344940D02*
X80267857Y-66285416D01*
X80148809Y-66225892D01*
X79970238Y-66225892D01*
X79851190Y-66285416D01*
X79791666Y-66404464D01*
X79791666Y-67059226D01*
X78660714Y-66225892D02*
X78660714Y-67237797D01*
X78720238Y-67356845D01*
X78779761Y-67416369D01*
X78898809Y-67475892D01*
X79077380Y-67475892D01*
X79196428Y-67416369D01*
X78660714Y-66999702D02*
X78779761Y-67059226D01*
X79017857Y-67059226D01*
X79136904Y-66999702D01*
X79196428Y-66940178D01*
X79255952Y-66821130D01*
X79255952Y-66463988D01*
X79196428Y-66344940D01*
X79136904Y-66285416D01*
X79017857Y-66225892D01*
X78779761Y-66225892D01*
X78660714Y-66285416D01*
X76577380Y-66999702D02*
X76696428Y-67059226D01*
X76934523Y-67059226D01*
X77053571Y-66999702D01*
X77113095Y-66940178D01*
X77172619Y-66821130D01*
X77172619Y-66463988D01*
X77113095Y-66344940D01*
X77053571Y-66285416D01*
X76934523Y-66225892D01*
X76696428Y-66225892D01*
X76577380Y-66285416D01*
X75505952Y-67059226D02*
X75505952Y-66404464D01*
X75565476Y-66285416D01*
X75684523Y-66225892D01*
X75922619Y-66225892D01*
X76041666Y-66285416D01*
X75505952Y-66999702D02*
X75625000Y-67059226D01*
X75922619Y-67059226D01*
X76041666Y-66999702D01*
X76101190Y-66880654D01*
X76101190Y-66761607D01*
X76041666Y-66642559D01*
X75922619Y-66583035D01*
X75625000Y-66583035D01*
X75505952Y-66523511D01*
X74910714Y-67059226D02*
X74910714Y-66225892D01*
X74910714Y-66463988D02*
X74851190Y-66344940D01*
X74791666Y-66285416D01*
X74672619Y-66225892D01*
X74553571Y-66225892D01*
X74315476Y-66225892D02*
X73839285Y-66225892D01*
X74136904Y-65809226D02*
X74136904Y-66880654D01*
X74077380Y-66999702D01*
X73958333Y-67059226D01*
X73839285Y-67059226D01*
X73422619Y-67059226D02*
X73422619Y-66225892D01*
X73422619Y-66463988D02*
X73363095Y-66344940D01*
X73303571Y-66285416D01*
X73184523Y-66225892D01*
X73065476Y-66225892D01*
X72648809Y-67059226D02*
X72648809Y-66225892D01*
X72648809Y-65809226D02*
X72708333Y-65868750D01*
X72648809Y-65928273D01*
X72589285Y-65868750D01*
X72648809Y-65809226D01*
X72648809Y-65928273D01*
X71517857Y-67059226D02*
X71517857Y-65809226D01*
X71517857Y-66999702D02*
X71636904Y-67059226D01*
X71875000Y-67059226D01*
X71994047Y-66999702D01*
X72053571Y-66940178D01*
X72113095Y-66821130D01*
X72113095Y-66463988D01*
X72053571Y-66344940D01*
X71994047Y-66285416D01*
X71875000Y-66225892D01*
X71636904Y-66225892D01*
X71517857Y-66285416D01*
X70386904Y-66225892D02*
X70386904Y-67237797D01*
X70446428Y-67356845D01*
X70505952Y-67416369D01*
X70625000Y-67475892D01*
X70803571Y-67475892D01*
X70922619Y-67416369D01*
X70386904Y-66999702D02*
X70505952Y-67059226D01*
X70744047Y-67059226D01*
X70863095Y-66999702D01*
X70922619Y-66940178D01*
X70982142Y-66821130D01*
X70982142Y-66463988D01*
X70922619Y-66344940D01*
X70863095Y-66285416D01*
X70744047Y-66225892D01*
X70505952Y-66225892D01*
X70386904Y-66285416D01*
X69315476Y-66999702D02*
X69434523Y-67059226D01*
X69672619Y-67059226D01*
X69791666Y-66999702D01*
X69851190Y-66880654D01*
X69851190Y-66404464D01*
X69791666Y-66285416D01*
X69672619Y-66225892D01*
X69434523Y-66225892D01*
X69315476Y-66285416D01*
X69255952Y-66404464D01*
X69255952Y-66523511D01*
X69851190Y-66642559D01*
X67232142Y-66225892D02*
X67232142Y-67059226D01*
X67529761Y-65749702D02*
X67827380Y-66642559D01*
X67053571Y-66642559D01*
X66577380Y-67059226D02*
X66577380Y-65809226D01*
X66160714Y-66702083D01*
X65744047Y-65809226D01*
X65744047Y-67059226D01*
X65148809Y-67059226D02*
X65148809Y-65809226D01*
X65148809Y-66285416D02*
X65029761Y-66225892D01*
X64791666Y-66225892D01*
X64672619Y-66285416D01*
X64613095Y-66344940D01*
X64553571Y-66463988D01*
X64553571Y-66821130D01*
X64613095Y-66940178D01*
X64672619Y-66999702D01*
X64791666Y-67059226D01*
X65029761Y-67059226D01*
X65148809Y-66999702D01*
X64017857Y-67059226D02*
X64017857Y-66225892D01*
X64017857Y-65809226D02*
X64077380Y-65868750D01*
X64017857Y-65928273D01*
X63958333Y-65868750D01*
X64017857Y-65809226D01*
X64017857Y-65928273D01*
X63601190Y-66225892D02*
X63125000Y-66225892D01*
X63422619Y-65809226D02*
X63422619Y-66880654D01*
X63363095Y-66999702D01*
X63244047Y-67059226D01*
X63125000Y-67059226D01*
X89791666Y-68476488D02*
X89851190Y-68416964D01*
X89970238Y-68357440D01*
X90089285Y-68357440D01*
X90208333Y-68416964D01*
X90267857Y-68476488D01*
X90327380Y-68595535D01*
X90327380Y-68714583D01*
X90267857Y-68833630D01*
X90208333Y-68893154D01*
X90089285Y-68952678D01*
X89970238Y-68952678D01*
X89851190Y-68893154D01*
X89791666Y-68833630D01*
X89791666Y-68357440D02*
X89791666Y-68833630D01*
X89732142Y-68893154D01*
X89672619Y-68893154D01*
X89553571Y-68833630D01*
X89494047Y-68714583D01*
X89494047Y-68416964D01*
X89613095Y-68238392D01*
X89791666Y-68119345D01*
X90029761Y-68059821D01*
X90267857Y-68119345D01*
X90446428Y-68238392D01*
X90565476Y-68416964D01*
X90625000Y-68655059D01*
X90565476Y-68893154D01*
X90446428Y-69071726D01*
X90267857Y-69190773D01*
X90029761Y-69250297D01*
X89791666Y-69190773D01*
X89613095Y-69071726D01*
X88958333Y-68238392D02*
X88958333Y-69488392D01*
X88958333Y-68297916D02*
X88839285Y-68238392D01*
X88601190Y-68238392D01*
X88482142Y-68297916D01*
X88422619Y-68357440D01*
X88363095Y-68476488D01*
X88363095Y-68833630D01*
X88422619Y-68952678D01*
X88482142Y-69012202D01*
X88601190Y-69071726D01*
X88839285Y-69071726D01*
X88958333Y-69012202D01*
X87291666Y-69071726D02*
X87291666Y-68416964D01*
X87351190Y-68297916D01*
X87470238Y-68238392D01*
X87708333Y-68238392D01*
X87827380Y-68297916D01*
X87291666Y-69012202D02*
X87410714Y-69071726D01*
X87708333Y-69071726D01*
X87827380Y-69012202D01*
X87886904Y-68893154D01*
X87886904Y-68774107D01*
X87827380Y-68655059D01*
X87708333Y-68595535D01*
X87410714Y-68595535D01*
X87291666Y-68536011D01*
X86696428Y-69071726D02*
X86696428Y-68238392D01*
X86696428Y-68476488D02*
X86636904Y-68357440D01*
X86577380Y-68297916D01*
X86458333Y-68238392D01*
X86339285Y-68238392D01*
X86101190Y-68238392D02*
X85625000Y-68238392D01*
X85922619Y-67821726D02*
X85922619Y-68893154D01*
X85863095Y-69012202D01*
X85744047Y-69071726D01*
X85625000Y-69071726D01*
X85029761Y-69071726D02*
X85148809Y-69012202D01*
X85208333Y-68893154D01*
X85208333Y-67821726D01*
X84672619Y-68238392D02*
X84375000Y-69071726D01*
X84077380Y-68238392D02*
X84375000Y-69071726D01*
X84494047Y-69369345D01*
X84553571Y-69428869D01*
X84672619Y-69488392D01*
X83601190Y-69071726D02*
X83601190Y-67821726D01*
X83065476Y-69071726D02*
X83065476Y-68416964D01*
X83125000Y-68297916D01*
X83244047Y-68238392D01*
X83422619Y-68238392D01*
X83541666Y-68297916D01*
X83601190Y-68357440D01*
X81934523Y-68238392D02*
X81934523Y-69071726D01*
X82470238Y-68238392D02*
X82470238Y-68893154D01*
X82410714Y-69012202D01*
X82291666Y-69071726D01*
X82113095Y-69071726D01*
X81994047Y-69012202D01*
X81934523Y-68952678D01*
X81339285Y-69071726D02*
X81339285Y-68238392D01*
X81339285Y-68357440D02*
X81279761Y-68297916D01*
X81160714Y-68238392D01*
X80982142Y-68238392D01*
X80863095Y-68297916D01*
X80803571Y-68416964D01*
X80803571Y-69071726D01*
X80803571Y-68416964D02*
X80744047Y-68297916D01*
X80625000Y-68238392D01*
X80446428Y-68238392D01*
X80327380Y-68297916D01*
X80267857Y-68416964D01*
X80267857Y-69071726D01*
X79136904Y-69071726D02*
X79136904Y-68416964D01*
X79196428Y-68297916D01*
X79315476Y-68238392D01*
X79553571Y-68238392D01*
X79672619Y-68297916D01*
X79136904Y-69012202D02*
X79255952Y-69071726D01*
X79553571Y-69071726D01*
X79672619Y-69012202D01*
X79732142Y-68893154D01*
X79732142Y-68774107D01*
X79672619Y-68655059D01*
X79553571Y-68595535D01*
X79255952Y-68595535D01*
X79136904Y-68536011D01*
X78541666Y-68238392D02*
X78541666Y-69071726D01*
X78541666Y-68357440D02*
X78482142Y-68297916D01*
X78363095Y-68238392D01*
X78184523Y-68238392D01*
X78065476Y-68297916D01*
X78005952Y-68416964D01*
X78005952Y-69071726D01*
X76517857Y-67940773D02*
X76458333Y-67881250D01*
X76339285Y-67821726D01*
X76041666Y-67821726D01*
X75922619Y-67881250D01*
X75863095Y-67940773D01*
X75803571Y-68059821D01*
X75803571Y-68178869D01*
X75863095Y-68357440D01*
X76577380Y-69071726D01*
X75803571Y-69071726D01*
X75029761Y-67821726D02*
X74910714Y-67821726D01*
X74791666Y-67881250D01*
X74732142Y-67940773D01*
X74672619Y-68059821D01*
X74613095Y-68297916D01*
X74613095Y-68595535D01*
X74672619Y-68833630D01*
X74732142Y-68952678D01*
X74791666Y-69012202D01*
X74910714Y-69071726D01*
X75029761Y-69071726D01*
X75148809Y-69012202D01*
X75208333Y-68952678D01*
X75267857Y-68833630D01*
X75327380Y-68595535D01*
X75327380Y-68297916D01*
X75267857Y-68059821D01*
X75208333Y-67940773D01*
X75148809Y-67881250D01*
X75029761Y-67821726D01*
X74136904Y-67940773D02*
X74077380Y-67881250D01*
X73958333Y-67821726D01*
X73660714Y-67821726D01*
X73541666Y-67881250D01*
X73482142Y-67940773D01*
X73422619Y-68059821D01*
X73422619Y-68178869D01*
X73482142Y-68357440D01*
X74196428Y-69071726D01*
X73422619Y-69071726D01*
X73005952Y-67821726D02*
X72232142Y-67821726D01*
X72648809Y-68297916D01*
X72470238Y-68297916D01*
X72351190Y-68357440D01*
X72291666Y-68416964D01*
X72232142Y-68536011D01*
X72232142Y-68833630D01*
X72291666Y-68952678D01*
X72351190Y-69012202D01*
X72470238Y-69071726D01*
X72827380Y-69071726D01*
X72946428Y-69012202D01*
X73005952Y-68952678D01*
X71696428Y-68595535D02*
X70744047Y-68595535D01*
X69910714Y-67821726D02*
X69791666Y-67821726D01*
X69672619Y-67881250D01*
X69613095Y-67940773D01*
X69553571Y-68059821D01*
X69494047Y-68297916D01*
X69494047Y-68595535D01*
X69553571Y-68833630D01*
X69613095Y-68952678D01*
X69672619Y-69012202D01*
X69791666Y-69071726D01*
X69910714Y-69071726D01*
X70029761Y-69012202D01*
X70089285Y-68952678D01*
X70148809Y-68833630D01*
X70208333Y-68595535D01*
X70208333Y-68297916D01*
X70148809Y-68059821D01*
X70089285Y-67940773D01*
X70029761Y-67881250D01*
X69910714Y-67821726D01*
X68303571Y-69071726D02*
X69017857Y-69071726D01*
X68660714Y-69071726D02*
X68660714Y-67821726D01*
X68779761Y-68000297D01*
X68898809Y-68119345D01*
X69017857Y-68178869D01*
X67767857Y-68595535D02*
X66815476Y-68595535D01*
X65565476Y-69071726D02*
X66279761Y-69071726D01*
X65922619Y-69071726D02*
X65922619Y-67821726D01*
X66041666Y-68000297D01*
X66160714Y-68119345D01*
X66279761Y-68178869D01*
X64851190Y-68357440D02*
X64970238Y-68297916D01*
X65029761Y-68238392D01*
X65089285Y-68119345D01*
X65089285Y-68059821D01*
X65029761Y-67940773D01*
X64970238Y-67881250D01*
X64851190Y-67821726D01*
X64613095Y-67821726D01*
X64494047Y-67881250D01*
X64434523Y-67940773D01*
X64375000Y-68059821D01*
X64375000Y-68119345D01*
X64434523Y-68238392D01*
X64494047Y-68297916D01*
X64613095Y-68357440D01*
X64851190Y-68357440D01*
X64970238Y-68416964D01*
X65029761Y-68476488D01*
X65089285Y-68595535D01*
X65089285Y-68833630D01*
X65029761Y-68952678D01*
X64970238Y-69012202D01*
X64851190Y-69071726D01*
X64613095Y-69071726D01*
X64494047Y-69012202D01*
X64434523Y-68952678D01*
X64375000Y-68833630D01*
X64375000Y-68595535D01*
X64434523Y-68476488D01*
X64494047Y-68416964D01*
X64613095Y-68357440D01*
M02*
