%TF.GenerationSoftware,KiCad,Pcbnew,(6.0.7-1)-1*%
%TF.CreationDate,2023-01-18T18:12:49-08:00*%
%TF.ProjectId,QCard,51436172-642e-46b6-9963-61645f706362,1903842*%
%TF.SameCoordinates,Original*%
%TF.FileFunction,Legend,Top*%
%TF.FilePolarity,Positive*%
%FSLAX46Y46*%
G04 Gerber Fmt 4.6, Leading zero omitted, Abs format (unit mm)*
G04 Created by KiCad (PCBNEW (6.0.7-1)-1) date 2023-01-18 18:12:49*
%MOMM*%
%LPD*%
G01*
G04 APERTURE LIST*
%ADD10C,0.100000*%
%ADD11C,0.150000*%
%ADD12C,0.120000*%
G04 APERTURE END LIST*
D10*
X57564285Y-70426190D02*
X57397619Y-70188095D01*
X57278571Y-70426190D02*
X57278571Y-69926190D01*
X57469047Y-69926190D01*
X57516666Y-69950000D01*
X57540476Y-69973809D01*
X57564285Y-70021428D01*
X57564285Y-70092857D01*
X57540476Y-70140476D01*
X57516666Y-70164285D01*
X57469047Y-70188095D01*
X57278571Y-70188095D01*
X57778571Y-70164285D02*
X57945238Y-70164285D01*
X58016666Y-70426190D02*
X57778571Y-70426190D01*
X57778571Y-69926190D01*
X58016666Y-69926190D01*
X58207142Y-70283333D02*
X58445238Y-70283333D01*
X58159523Y-70426190D02*
X58326190Y-69926190D01*
X58492857Y-70426190D01*
X58659523Y-70426190D02*
X58659523Y-69926190D01*
X58778571Y-69926190D01*
X58849999Y-69950000D01*
X58897619Y-69997619D01*
X58921428Y-70045238D01*
X58945238Y-70140476D01*
X58945238Y-70211904D01*
X58921428Y-70307142D01*
X58897619Y-70354761D01*
X58849999Y-70402380D01*
X58778571Y-70426190D01*
X58659523Y-70426190D01*
X56457142Y-64926190D02*
X56457142Y-64426190D01*
X56647619Y-64426190D01*
X56695238Y-64450000D01*
X56719047Y-64473809D01*
X56742857Y-64521428D01*
X56742857Y-64592857D01*
X56719047Y-64640476D01*
X56695238Y-64664285D01*
X56647619Y-64688095D01*
X56457142Y-64688095D01*
X57242857Y-64926190D02*
X57076190Y-64688095D01*
X56957142Y-64926190D02*
X56957142Y-64426190D01*
X57147619Y-64426190D01*
X57195238Y-64450000D01*
X57219047Y-64473809D01*
X57242857Y-64521428D01*
X57242857Y-64592857D01*
X57219047Y-64640476D01*
X57195238Y-64664285D01*
X57147619Y-64688095D01*
X56957142Y-64688095D01*
X57552380Y-64426190D02*
X57647619Y-64426190D01*
X57695238Y-64450000D01*
X57742857Y-64497619D01*
X57766666Y-64592857D01*
X57766666Y-64759523D01*
X57742857Y-64854761D01*
X57695238Y-64902380D01*
X57647619Y-64926190D01*
X57552380Y-64926190D01*
X57504761Y-64902380D01*
X57457142Y-64854761D01*
X57433333Y-64759523D01*
X57433333Y-64592857D01*
X57457142Y-64497619D01*
X57504761Y-64450000D01*
X57552380Y-64426190D01*
X58242857Y-64450000D02*
X58195238Y-64426190D01*
X58123809Y-64426190D01*
X58052380Y-64450000D01*
X58004761Y-64497619D01*
X57980952Y-64545238D01*
X57957142Y-64640476D01*
X57957142Y-64711904D01*
X57980952Y-64807142D01*
X58004761Y-64854761D01*
X58052380Y-64902380D01*
X58123809Y-64926190D01*
X58171428Y-64926190D01*
X58242857Y-64902380D01*
X58266666Y-64878571D01*
X58266666Y-64711904D01*
X58171428Y-64711904D01*
X58766666Y-64926190D02*
X58600000Y-64688095D01*
X58480952Y-64926190D02*
X58480952Y-64426190D01*
X58671428Y-64426190D01*
X58719047Y-64450000D01*
X58742857Y-64473809D01*
X58766666Y-64521428D01*
X58766666Y-64592857D01*
X58742857Y-64640476D01*
X58719047Y-64664285D01*
X58671428Y-64688095D01*
X58480952Y-64688095D01*
X58957142Y-64783333D02*
X59195238Y-64783333D01*
X58909523Y-64926190D02*
X59076190Y-64426190D01*
X59242857Y-64926190D01*
X59409523Y-64926190D02*
X59409523Y-64426190D01*
X59576190Y-64783333D01*
X59742857Y-64426190D01*
X59742857Y-64926190D01*
D11*
X64136904Y-54578273D02*
X64017857Y-54518750D01*
X63898809Y-54399702D01*
X63720238Y-54221130D01*
X63601190Y-54161607D01*
X63482142Y-54161607D01*
X63541666Y-54459226D02*
X63422619Y-54399702D01*
X63303571Y-54280654D01*
X63244047Y-54042559D01*
X63244047Y-53625892D01*
X63303571Y-53387797D01*
X63422619Y-53268750D01*
X63541666Y-53209226D01*
X63779761Y-53209226D01*
X63898809Y-53268750D01*
X64017857Y-53387797D01*
X64077380Y-53625892D01*
X64077380Y-54042559D01*
X64017857Y-54280654D01*
X63898809Y-54399702D01*
X63779761Y-54459226D01*
X63541666Y-54459226D01*
X64613095Y-53983035D02*
X65565476Y-53983035D01*
X66875000Y-54340178D02*
X66815476Y-54399702D01*
X66636904Y-54459226D01*
X66517857Y-54459226D01*
X66339285Y-54399702D01*
X66220238Y-54280654D01*
X66160714Y-54161607D01*
X66101190Y-53923511D01*
X66101190Y-53744940D01*
X66160714Y-53506845D01*
X66220238Y-53387797D01*
X66339285Y-53268750D01*
X66517857Y-53209226D01*
X66636904Y-53209226D01*
X66815476Y-53268750D01*
X66875000Y-53328273D01*
X67410714Y-54459226D02*
X67410714Y-53209226D01*
X67946428Y-54459226D02*
X67946428Y-53804464D01*
X67886904Y-53685416D01*
X67767857Y-53625892D01*
X67589285Y-53625892D01*
X67470238Y-53685416D01*
X67410714Y-53744940D01*
X68720238Y-54459226D02*
X68601190Y-54399702D01*
X68541666Y-54340178D01*
X68482142Y-54221130D01*
X68482142Y-53863988D01*
X68541666Y-53744940D01*
X68601190Y-53685416D01*
X68720238Y-53625892D01*
X68898809Y-53625892D01*
X69017857Y-53685416D01*
X69077380Y-53744940D01*
X69136904Y-53863988D01*
X69136904Y-54221130D01*
X69077380Y-54340178D01*
X69017857Y-54399702D01*
X68898809Y-54459226D01*
X68720238Y-54459226D01*
X69672619Y-54459226D02*
X69672619Y-53625892D01*
X69672619Y-53863988D02*
X69732142Y-53744940D01*
X69791666Y-53685416D01*
X69910714Y-53625892D01*
X70029761Y-53625892D01*
X70982142Y-54459226D02*
X70982142Y-53209226D01*
X70982142Y-54399702D02*
X70863095Y-54459226D01*
X70625000Y-54459226D01*
X70505952Y-54399702D01*
X70446428Y-54340178D01*
X70386904Y-54221130D01*
X70386904Y-53863988D01*
X70446428Y-53744940D01*
X70505952Y-53685416D01*
X70625000Y-53625892D01*
X70863095Y-53625892D01*
X70982142Y-53685416D01*
X72470238Y-54399702D02*
X72589285Y-54459226D01*
X72827380Y-54459226D01*
X72946428Y-54399702D01*
X73005952Y-54280654D01*
X73005952Y-54221130D01*
X72946428Y-54102083D01*
X72827380Y-54042559D01*
X72648809Y-54042559D01*
X72529761Y-53983035D01*
X72470238Y-53863988D01*
X72470238Y-53804464D01*
X72529761Y-53685416D01*
X72648809Y-53625892D01*
X72827380Y-53625892D01*
X72946428Y-53685416D01*
X73720238Y-54459226D02*
X73601190Y-54399702D01*
X73541666Y-54340178D01*
X73482142Y-54221130D01*
X73482142Y-53863988D01*
X73541666Y-53744940D01*
X73601190Y-53685416D01*
X73720238Y-53625892D01*
X73898809Y-53625892D01*
X74017857Y-53685416D01*
X74077380Y-53744940D01*
X74136904Y-53863988D01*
X74136904Y-54221130D01*
X74077380Y-54340178D01*
X74017857Y-54399702D01*
X73898809Y-54459226D01*
X73720238Y-54459226D01*
X74672619Y-53625892D02*
X74672619Y-54459226D01*
X74672619Y-53744940D02*
X74732142Y-53685416D01*
X74851190Y-53625892D01*
X75029761Y-53625892D01*
X75148809Y-53685416D01*
X75208333Y-53804464D01*
X75208333Y-54459226D01*
X76339285Y-53625892D02*
X76339285Y-54637797D01*
X76279761Y-54756845D01*
X76220238Y-54816369D01*
X76101190Y-54875892D01*
X75922619Y-54875892D01*
X75803571Y-54816369D01*
X76339285Y-54399702D02*
X76220238Y-54459226D01*
X75982142Y-54459226D01*
X75863095Y-54399702D01*
X75803571Y-54340178D01*
X75744047Y-54221130D01*
X75744047Y-53863988D01*
X75803571Y-53744940D01*
X75863095Y-53685416D01*
X75982142Y-53625892D01*
X76220238Y-53625892D01*
X76339285Y-53685416D01*
X78422619Y-54399702D02*
X78303571Y-54459226D01*
X78065476Y-54459226D01*
X77946428Y-54399702D01*
X77886904Y-54340178D01*
X77827380Y-54221130D01*
X77827380Y-53863988D01*
X77886904Y-53744940D01*
X77946428Y-53685416D01*
X78065476Y-53625892D01*
X78303571Y-53625892D01*
X78422619Y-53685416D01*
X79494047Y-54459226D02*
X79494047Y-53804464D01*
X79434523Y-53685416D01*
X79315476Y-53625892D01*
X79077380Y-53625892D01*
X78958333Y-53685416D01*
X79494047Y-54399702D02*
X79375000Y-54459226D01*
X79077380Y-54459226D01*
X78958333Y-54399702D01*
X78898809Y-54280654D01*
X78898809Y-54161607D01*
X78958333Y-54042559D01*
X79077380Y-53983035D01*
X79375000Y-53983035D01*
X79494047Y-53923511D01*
X80089285Y-54459226D02*
X80089285Y-53625892D01*
X80089285Y-53863988D02*
X80148809Y-53744940D01*
X80208333Y-53685416D01*
X80327380Y-53625892D01*
X80446428Y-53625892D01*
X80684523Y-53625892D02*
X81160714Y-53625892D01*
X80863095Y-53209226D02*
X80863095Y-54280654D01*
X80922619Y-54399702D01*
X81041666Y-54459226D01*
X81160714Y-54459226D01*
X81577380Y-54459226D02*
X81577380Y-53625892D01*
X81577380Y-53863988D02*
X81636904Y-53744940D01*
X81696428Y-53685416D01*
X81815476Y-53625892D01*
X81934523Y-53625892D01*
X82351190Y-54459226D02*
X82351190Y-53625892D01*
X82351190Y-53209226D02*
X82291666Y-53268750D01*
X82351190Y-53328273D01*
X82410714Y-53268750D01*
X82351190Y-53209226D01*
X82351190Y-53328273D01*
X83482142Y-54459226D02*
X83482142Y-53209226D01*
X83482142Y-54399702D02*
X83363095Y-54459226D01*
X83125000Y-54459226D01*
X83005952Y-54399702D01*
X82946428Y-54340178D01*
X82886904Y-54221130D01*
X82886904Y-53863988D01*
X82946428Y-53744940D01*
X83005952Y-53685416D01*
X83125000Y-53625892D01*
X83363095Y-53625892D01*
X83482142Y-53685416D01*
X84613095Y-53625892D02*
X84613095Y-54637797D01*
X84553571Y-54756845D01*
X84494047Y-54816369D01*
X84375000Y-54875892D01*
X84196428Y-54875892D01*
X84077380Y-54816369D01*
X84613095Y-54399702D02*
X84494047Y-54459226D01*
X84255952Y-54459226D01*
X84136904Y-54399702D01*
X84077380Y-54340178D01*
X84017857Y-54221130D01*
X84017857Y-53863988D01*
X84077380Y-53744940D01*
X84136904Y-53685416D01*
X84255952Y-53625892D01*
X84494047Y-53625892D01*
X84613095Y-53685416D01*
X85684523Y-54399702D02*
X85565476Y-54459226D01*
X85327380Y-54459226D01*
X85208333Y-54399702D01*
X85148809Y-54280654D01*
X85148809Y-53804464D01*
X85208333Y-53685416D01*
X85327380Y-53625892D01*
X85565476Y-53625892D01*
X85684523Y-53685416D01*
X85744047Y-53804464D01*
X85744047Y-53923511D01*
X85148809Y-54042559D01*
X87767857Y-53625892D02*
X87767857Y-54459226D01*
X87470238Y-53149702D02*
X87172619Y-54042559D01*
X87946428Y-54042559D01*
X88422619Y-54459226D02*
X88422619Y-53209226D01*
X88839285Y-54102083D01*
X89255952Y-53209226D01*
X89255952Y-54459226D01*
X89851190Y-54459226D02*
X89851190Y-53209226D01*
X89851190Y-53685416D02*
X89970238Y-53625892D01*
X90208333Y-53625892D01*
X90327380Y-53685416D01*
X90386904Y-53744940D01*
X90446428Y-53863988D01*
X90446428Y-54221130D01*
X90386904Y-54340178D01*
X90327380Y-54399702D01*
X90208333Y-54459226D01*
X89970238Y-54459226D01*
X89851190Y-54399702D01*
X90982142Y-54459226D02*
X90982142Y-53625892D01*
X90982142Y-53209226D02*
X90922619Y-53268750D01*
X90982142Y-53328273D01*
X91041666Y-53268750D01*
X90982142Y-53209226D01*
X90982142Y-53328273D01*
X91398809Y-53625892D02*
X91875000Y-53625892D01*
X91577380Y-53209226D02*
X91577380Y-54280654D01*
X91636904Y-54399702D01*
X91755952Y-54459226D01*
X91875000Y-54459226D01*
X65208333Y-55876488D02*
X65148809Y-55816964D01*
X65029761Y-55757440D01*
X64910714Y-55757440D01*
X64791666Y-55816964D01*
X64732142Y-55876488D01*
X64672619Y-55995535D01*
X64672619Y-56114583D01*
X64732142Y-56233630D01*
X64791666Y-56293154D01*
X64910714Y-56352678D01*
X65029761Y-56352678D01*
X65148809Y-56293154D01*
X65208333Y-56233630D01*
X65208333Y-55757440D02*
X65208333Y-56233630D01*
X65267857Y-56293154D01*
X65327380Y-56293154D01*
X65446428Y-56233630D01*
X65505952Y-56114583D01*
X65505952Y-55816964D01*
X65386904Y-55638392D01*
X65208333Y-55519345D01*
X64970238Y-55459821D01*
X64732142Y-55519345D01*
X64553571Y-55638392D01*
X64434523Y-55816964D01*
X64375000Y-56055059D01*
X64434523Y-56293154D01*
X64553571Y-56471726D01*
X64732142Y-56590773D01*
X64970238Y-56650297D01*
X65208333Y-56590773D01*
X65386904Y-56471726D01*
X66041666Y-55638392D02*
X66041666Y-56888392D01*
X66041666Y-55697916D02*
X66160714Y-55638392D01*
X66398809Y-55638392D01*
X66517857Y-55697916D01*
X66577380Y-55757440D01*
X66636904Y-55876488D01*
X66636904Y-56233630D01*
X66577380Y-56352678D01*
X66517857Y-56412202D01*
X66398809Y-56471726D01*
X66160714Y-56471726D01*
X66041666Y-56412202D01*
X67708333Y-56471726D02*
X67708333Y-55816964D01*
X67648809Y-55697916D01*
X67529761Y-55638392D01*
X67291666Y-55638392D01*
X67172619Y-55697916D01*
X67708333Y-56412202D02*
X67589285Y-56471726D01*
X67291666Y-56471726D01*
X67172619Y-56412202D01*
X67113095Y-56293154D01*
X67113095Y-56174107D01*
X67172619Y-56055059D01*
X67291666Y-55995535D01*
X67589285Y-55995535D01*
X67708333Y-55936011D01*
X68303571Y-56471726D02*
X68303571Y-55638392D01*
X68303571Y-55876488D02*
X68363095Y-55757440D01*
X68422619Y-55697916D01*
X68541666Y-55638392D01*
X68660714Y-55638392D01*
X68898809Y-55638392D02*
X69375000Y-55638392D01*
X69077380Y-55221726D02*
X69077380Y-56293154D01*
X69136904Y-56412202D01*
X69255952Y-56471726D01*
X69375000Y-56471726D01*
X69970238Y-56471726D02*
X69851190Y-56412202D01*
X69791666Y-56293154D01*
X69791666Y-55221726D01*
X70327380Y-55638392D02*
X70625000Y-56471726D01*
X70922619Y-55638392D02*
X70625000Y-56471726D01*
X70505952Y-56769345D01*
X70446428Y-56828869D01*
X70327380Y-56888392D01*
X71398809Y-56471726D02*
X71398809Y-55221726D01*
X71934523Y-56471726D02*
X71934523Y-55816964D01*
X71875000Y-55697916D01*
X71755952Y-55638392D01*
X71577380Y-55638392D01*
X71458333Y-55697916D01*
X71398809Y-55757440D01*
X73065476Y-55638392D02*
X73065476Y-56471726D01*
X72529761Y-55638392D02*
X72529761Y-56293154D01*
X72589285Y-56412202D01*
X72708333Y-56471726D01*
X72886904Y-56471726D01*
X73005952Y-56412202D01*
X73065476Y-56352678D01*
X73660714Y-56471726D02*
X73660714Y-55638392D01*
X73660714Y-55757440D02*
X73720238Y-55697916D01*
X73839285Y-55638392D01*
X74017857Y-55638392D01*
X74136904Y-55697916D01*
X74196428Y-55816964D01*
X74196428Y-56471726D01*
X74196428Y-55816964D02*
X74255952Y-55697916D01*
X74375000Y-55638392D01*
X74553571Y-55638392D01*
X74672619Y-55697916D01*
X74732142Y-55816964D01*
X74732142Y-56471726D01*
X75863095Y-56471726D02*
X75863095Y-55816964D01*
X75803571Y-55697916D01*
X75684523Y-55638392D01*
X75446428Y-55638392D01*
X75327380Y-55697916D01*
X75863095Y-56412202D02*
X75744047Y-56471726D01*
X75446428Y-56471726D01*
X75327380Y-56412202D01*
X75267857Y-56293154D01*
X75267857Y-56174107D01*
X75327380Y-56055059D01*
X75446428Y-55995535D01*
X75744047Y-55995535D01*
X75863095Y-55936011D01*
X76458333Y-55638392D02*
X76458333Y-56471726D01*
X76458333Y-55757440D02*
X76517857Y-55697916D01*
X76636904Y-55638392D01*
X76815476Y-55638392D01*
X76934523Y-55697916D01*
X76994047Y-55816964D01*
X76994047Y-56471726D01*
X78482142Y-55340773D02*
X78541666Y-55281250D01*
X78660714Y-55221726D01*
X78958333Y-55221726D01*
X79077380Y-55281250D01*
X79136904Y-55340773D01*
X79196428Y-55459821D01*
X79196428Y-55578869D01*
X79136904Y-55757440D01*
X78422619Y-56471726D01*
X79196428Y-56471726D01*
X79970238Y-55221726D02*
X80089285Y-55221726D01*
X80208333Y-55281250D01*
X80267857Y-55340773D01*
X80327380Y-55459821D01*
X80386904Y-55697916D01*
X80386904Y-55995535D01*
X80327380Y-56233630D01*
X80267857Y-56352678D01*
X80208333Y-56412202D01*
X80089285Y-56471726D01*
X79970238Y-56471726D01*
X79851190Y-56412202D01*
X79791666Y-56352678D01*
X79732142Y-56233630D01*
X79672619Y-55995535D01*
X79672619Y-55697916D01*
X79732142Y-55459821D01*
X79791666Y-55340773D01*
X79851190Y-55281250D01*
X79970238Y-55221726D01*
X80863095Y-55340773D02*
X80922619Y-55281250D01*
X81041666Y-55221726D01*
X81339285Y-55221726D01*
X81458333Y-55281250D01*
X81517857Y-55340773D01*
X81577380Y-55459821D01*
X81577380Y-55578869D01*
X81517857Y-55757440D01*
X80803571Y-56471726D01*
X81577380Y-56471726D01*
X81994047Y-55221726D02*
X82767857Y-55221726D01*
X82351190Y-55697916D01*
X82529761Y-55697916D01*
X82648809Y-55757440D01*
X82708333Y-55816964D01*
X82767857Y-55936011D01*
X82767857Y-56233630D01*
X82708333Y-56352678D01*
X82648809Y-56412202D01*
X82529761Y-56471726D01*
X82172619Y-56471726D01*
X82053571Y-56412202D01*
X81994047Y-56352678D01*
X83303571Y-55995535D02*
X84255952Y-55995535D01*
X85089285Y-55221726D02*
X85208333Y-55221726D01*
X85327380Y-55281250D01*
X85386904Y-55340773D01*
X85446428Y-55459821D01*
X85505952Y-55697916D01*
X85505952Y-55995535D01*
X85446428Y-56233630D01*
X85386904Y-56352678D01*
X85327380Y-56412202D01*
X85208333Y-56471726D01*
X85089285Y-56471726D01*
X84970238Y-56412202D01*
X84910714Y-56352678D01*
X84851190Y-56233630D01*
X84791666Y-55995535D01*
X84791666Y-55697916D01*
X84851190Y-55459821D01*
X84910714Y-55340773D01*
X84970238Y-55281250D01*
X85089285Y-55221726D01*
X86696428Y-56471726D02*
X85982142Y-56471726D01*
X86339285Y-56471726D02*
X86339285Y-55221726D01*
X86220238Y-55400297D01*
X86101190Y-55519345D01*
X85982142Y-55578869D01*
X87232142Y-55995535D02*
X88184523Y-55995535D01*
X89434523Y-56471726D02*
X88720238Y-56471726D01*
X89077380Y-56471726D02*
X89077380Y-55221726D01*
X88958333Y-55400297D01*
X88839285Y-55519345D01*
X88720238Y-55578869D01*
X90148809Y-55757440D02*
X90029761Y-55697916D01*
X89970238Y-55638392D01*
X89910714Y-55519345D01*
X89910714Y-55459821D01*
X89970238Y-55340773D01*
X90029761Y-55281250D01*
X90148809Y-55221726D01*
X90386904Y-55221726D01*
X90505952Y-55281250D01*
X90565476Y-55340773D01*
X90625000Y-55459821D01*
X90625000Y-55519345D01*
X90565476Y-55638392D01*
X90505952Y-55697916D01*
X90386904Y-55757440D01*
X90148809Y-55757440D01*
X90029761Y-55816964D01*
X89970238Y-55876488D01*
X89910714Y-55995535D01*
X89910714Y-56233630D01*
X89970238Y-56352678D01*
X90029761Y-56412202D01*
X90148809Y-56471726D01*
X90386904Y-56471726D01*
X90505952Y-56412202D01*
X90565476Y-56352678D01*
X90625000Y-56233630D01*
X90625000Y-55995535D01*
X90565476Y-55876488D01*
X90505952Y-55816964D01*
X90386904Y-55757440D01*
%TO.C,JP1*%
X55752380Y-68233333D02*
X56466666Y-68233333D01*
X56609523Y-68280952D01*
X56704761Y-68376190D01*
X56752380Y-68519047D01*
X56752380Y-68614285D01*
X56752380Y-67757142D02*
X55752380Y-67757142D01*
X55752380Y-67376190D01*
X55800000Y-67280952D01*
X55847619Y-67233333D01*
X55942857Y-67185714D01*
X56085714Y-67185714D01*
X56180952Y-67233333D01*
X56228571Y-67280952D01*
X56276190Y-67376190D01*
X56276190Y-67757142D01*
X56752380Y-66233333D02*
X56752380Y-66804761D01*
X56752380Y-66519047D02*
X55752380Y-66519047D01*
X55895238Y-66614285D01*
X55990476Y-66709523D01*
X56038095Y-66804761D01*
%TO.C,REF\u002A\u002A*%
X53166666Y-48052380D02*
X52833333Y-47576190D01*
X52595238Y-48052380D02*
X52595238Y-47052380D01*
X52976190Y-47052380D01*
X53071428Y-47100000D01*
X53119047Y-47147619D01*
X53166666Y-47242857D01*
X53166666Y-47385714D01*
X53119047Y-47480952D01*
X53071428Y-47528571D01*
X52976190Y-47576190D01*
X52595238Y-47576190D01*
X53595238Y-47528571D02*
X53928571Y-47528571D01*
X54071428Y-48052380D02*
X53595238Y-48052380D01*
X53595238Y-47052380D01*
X54071428Y-47052380D01*
X54833333Y-47528571D02*
X54500000Y-47528571D01*
X54500000Y-48052380D02*
X54500000Y-47052380D01*
X54976190Y-47052380D01*
X55500000Y-47052380D02*
X55500000Y-47290476D01*
X55261904Y-47195238D02*
X55500000Y-47290476D01*
X55738095Y-47195238D01*
X55357142Y-47480952D02*
X55500000Y-47290476D01*
X55642857Y-47480952D01*
X56261904Y-47052380D02*
X56261904Y-47290476D01*
X56023809Y-47195238D02*
X56261904Y-47290476D01*
X56500000Y-47195238D01*
X56119047Y-47480952D02*
X56261904Y-47290476D01*
X56404761Y-47480952D01*
%TO.C,U1*%
X78288320Y-62952380D02*
X78288320Y-63761904D01*
X78335939Y-63857142D01*
X78383558Y-63904761D01*
X78478796Y-63952380D01*
X78669272Y-63952380D01*
X78764510Y-63904761D01*
X78812129Y-63857142D01*
X78859748Y-63761904D01*
X78859748Y-62952380D01*
X79859748Y-63952380D02*
X79288320Y-63952380D01*
X79574034Y-63952380D02*
X79574034Y-62952380D01*
X79478796Y-63095238D01*
X79383558Y-63190476D01*
X79288320Y-63238095D01*
X74621653Y-75154761D02*
X74764510Y-75202380D01*
X75002605Y-75202380D01*
X75097844Y-75154761D01*
X75145463Y-75107142D01*
X75193082Y-75011904D01*
X75193082Y-74916666D01*
X75145463Y-74821428D01*
X75097844Y-74773809D01*
X75002605Y-74726190D01*
X74812129Y-74678571D01*
X74716891Y-74630952D01*
X74669272Y-74583333D01*
X74621653Y-74488095D01*
X74621653Y-74392857D01*
X74669272Y-74297619D01*
X74716891Y-74250000D01*
X74812129Y-74202380D01*
X75050225Y-74202380D01*
X75193082Y-74250000D01*
X75574034Y-75154761D02*
X75716891Y-75202380D01*
X75954986Y-75202380D01*
X76050225Y-75154761D01*
X76097844Y-75107142D01*
X76145463Y-75011904D01*
X76145463Y-74916666D01*
X76097844Y-74821428D01*
X76050225Y-74773809D01*
X75954986Y-74726190D01*
X75764510Y-74678571D01*
X75669272Y-74630952D01*
X75621653Y-74583333D01*
X75574034Y-74488095D01*
X75574034Y-74392857D01*
X75621653Y-74297619D01*
X75669272Y-74250000D01*
X75764510Y-74202380D01*
X76002605Y-74202380D01*
X76145463Y-74250000D01*
X76431177Y-74202380D02*
X77002605Y-74202380D01*
X76716891Y-75202380D02*
X76716891Y-74202380D01*
X77240701Y-74202380D02*
X77859748Y-74202380D01*
X77526415Y-74583333D01*
X77669272Y-74583333D01*
X77764510Y-74630952D01*
X77812129Y-74678571D01*
X77859748Y-74773809D01*
X77859748Y-75011904D01*
X77812129Y-75107142D01*
X77764510Y-75154761D01*
X77669272Y-75202380D01*
X77383558Y-75202380D01*
X77288320Y-75154761D01*
X77240701Y-75107142D01*
X78335939Y-75202380D02*
X78526415Y-75202380D01*
X78621653Y-75154761D01*
X78669272Y-75107142D01*
X78764510Y-74964285D01*
X78812129Y-74773809D01*
X78812129Y-74392857D01*
X78764510Y-74297619D01*
X78716891Y-74250000D01*
X78621653Y-74202380D01*
X78431177Y-74202380D01*
X78335939Y-74250000D01*
X78288320Y-74297619D01*
X78240701Y-74392857D01*
X78240701Y-74630952D01*
X78288320Y-74726190D01*
X78335939Y-74773809D01*
X78431177Y-74821428D01*
X78621653Y-74821428D01*
X78716891Y-74773809D01*
X78764510Y-74726190D01*
X78812129Y-74630952D01*
X79193082Y-75154761D02*
X79335939Y-75202380D01*
X79574034Y-75202380D01*
X79669272Y-75154761D01*
X79716891Y-75107142D01*
X79764510Y-75011904D01*
X79764510Y-74916666D01*
X79716891Y-74821428D01*
X79669272Y-74773809D01*
X79574034Y-74726190D01*
X79383558Y-74678571D01*
X79288320Y-74630952D01*
X79240701Y-74583333D01*
X79193082Y-74488095D01*
X79193082Y-74392857D01*
X79240701Y-74297619D01*
X79288320Y-74250000D01*
X79383558Y-74202380D01*
X79621653Y-74202380D01*
X79764510Y-74250000D01*
X80526415Y-74678571D02*
X80193082Y-74678571D01*
X80193082Y-75202380D02*
X80193082Y-74202380D01*
X80669272Y-74202380D01*
X81240701Y-74202380D02*
X81335939Y-74202380D01*
X81431177Y-74250000D01*
X81478796Y-74297619D01*
X81526415Y-74392857D01*
X81574034Y-74583333D01*
X81574034Y-74821428D01*
X81526415Y-75011904D01*
X81478796Y-75107142D01*
X81431177Y-75154761D01*
X81335939Y-75202380D01*
X81240701Y-75202380D01*
X81145463Y-75154761D01*
X81097844Y-75107142D01*
X81050225Y-75011904D01*
X81002605Y-74821428D01*
X81002605Y-74583333D01*
X81050225Y-74392857D01*
X81097844Y-74297619D01*
X81145463Y-74250000D01*
X81240701Y-74202380D01*
X82431177Y-74535714D02*
X82431177Y-75202380D01*
X82193082Y-74154761D02*
X81954986Y-74869047D01*
X82574034Y-74869047D01*
X83145463Y-74202380D02*
X83240701Y-74202380D01*
X83335939Y-74250000D01*
X83383558Y-74297619D01*
X83431177Y-74392857D01*
X83478796Y-74583333D01*
X83478796Y-74821428D01*
X83431177Y-75011904D01*
X83383558Y-75107142D01*
X83335939Y-75154761D01*
X83240701Y-75202380D01*
X83145463Y-75202380D01*
X83050225Y-75154761D01*
X83002605Y-75107142D01*
X82954986Y-75011904D01*
X82907367Y-74821428D01*
X82907367Y-74583333D01*
X82954986Y-74392857D01*
X83002605Y-74297619D01*
X83050225Y-74250000D01*
X83145463Y-74202380D01*
X73700000Y-65352380D02*
X73700000Y-65590476D01*
X73461904Y-65495238D02*
X73700000Y-65590476D01*
X73938095Y-65495238D01*
X73557142Y-65780952D02*
X73700000Y-65590476D01*
X73842857Y-65780952D01*
%TO.C,REF\u002A\u002A*%
X99166666Y-48052380D02*
X98833333Y-47576190D01*
X98595238Y-48052380D02*
X98595238Y-47052380D01*
X98976190Y-47052380D01*
X99071428Y-47100000D01*
X99119047Y-47147619D01*
X99166666Y-47242857D01*
X99166666Y-47385714D01*
X99119047Y-47480952D01*
X99071428Y-47528571D01*
X98976190Y-47576190D01*
X98595238Y-47576190D01*
X99595238Y-47528571D02*
X99928571Y-47528571D01*
X100071428Y-48052380D02*
X99595238Y-48052380D01*
X99595238Y-47052380D01*
X100071428Y-47052380D01*
X100833333Y-47528571D02*
X100500000Y-47528571D01*
X100500000Y-48052380D02*
X100500000Y-47052380D01*
X100976190Y-47052380D01*
X101500000Y-47052380D02*
X101500000Y-47290476D01*
X101261904Y-47195238D02*
X101500000Y-47290476D01*
X101738095Y-47195238D01*
X101357142Y-47480952D02*
X101500000Y-47290476D01*
X101642857Y-47480952D01*
X102261904Y-47052380D02*
X102261904Y-47290476D01*
X102023809Y-47195238D02*
X102261904Y-47290476D01*
X102500000Y-47195238D01*
X102119047Y-47480952D02*
X102261904Y-47290476D01*
X102404761Y-47480952D01*
%TO.C,C1*%
X60337142Y-77404166D02*
X60384761Y-77451785D01*
X60432380Y-77594642D01*
X60432380Y-77689880D01*
X60384761Y-77832738D01*
X60289523Y-77927976D01*
X60194285Y-77975595D01*
X60003809Y-78023214D01*
X59860952Y-78023214D01*
X59670476Y-77975595D01*
X59575238Y-77927976D01*
X59480000Y-77832738D01*
X59432380Y-77689880D01*
X59432380Y-77594642D01*
X59480000Y-77451785D01*
X59527619Y-77404166D01*
X60432380Y-76451785D02*
X60432380Y-77023214D01*
X60432380Y-76737500D02*
X59432380Y-76737500D01*
X59575238Y-76832738D01*
X59670476Y-76927976D01*
X59718095Y-77023214D01*
X56072380Y-78880357D02*
X56072380Y-78785119D01*
X56120000Y-78689880D01*
X56167619Y-78642261D01*
X56262857Y-78594642D01*
X56453333Y-78547023D01*
X56691428Y-78547023D01*
X56881904Y-78594642D01*
X56977142Y-78642261D01*
X57024761Y-78689880D01*
X57072380Y-78785119D01*
X57072380Y-78880357D01*
X57024761Y-78975595D01*
X56977142Y-79023214D01*
X56881904Y-79070833D01*
X56691428Y-79118452D01*
X56453333Y-79118452D01*
X56262857Y-79070833D01*
X56167619Y-79023214D01*
X56120000Y-78975595D01*
X56072380Y-78880357D01*
X56977142Y-78118452D02*
X57024761Y-78070833D01*
X57072380Y-78118452D01*
X57024761Y-78166071D01*
X56977142Y-78118452D01*
X57072380Y-78118452D01*
X57072380Y-77118452D02*
X57072380Y-77689880D01*
X57072380Y-77404166D02*
X56072380Y-77404166D01*
X56215238Y-77499404D01*
X56310476Y-77594642D01*
X56358095Y-77689880D01*
X56405714Y-76261309D02*
X57072380Y-76261309D01*
X56405714Y-76689880D02*
X56929523Y-76689880D01*
X57024761Y-76642261D01*
X57072380Y-76547023D01*
X57072380Y-76404166D01*
X57024761Y-76308928D01*
X56977142Y-76261309D01*
X56548571Y-75451785D02*
X56548571Y-75785119D01*
X57072380Y-75785119D02*
X56072380Y-75785119D01*
X56072380Y-75308928D01*
D12*
%TO.C,JP1*%
X57100000Y-69450000D02*
X57100000Y-65350000D01*
X57100000Y-65350000D02*
X59100000Y-65350000D01*
X59600000Y-69000000D02*
X59600000Y-68400000D01*
X59100000Y-65350000D02*
X59100000Y-69450000D01*
X59100000Y-69450000D02*
X57100000Y-69450000D01*
X59300000Y-68700000D02*
X59600000Y-69000000D01*
X59300000Y-68700000D02*
X59600000Y-68400000D01*
%TO.C,U1*%
X72967434Y-73130800D02*
X85133016Y-73130800D01*
X85133016Y-64774200D02*
X72967434Y-64774200D01*
G36*
X87007524Y-71393001D02*
G01*
X86753524Y-71393001D01*
X86753524Y-71012001D01*
X87007524Y-71012001D01*
X87007524Y-71393001D01*
G37*
D10*
X87007524Y-71393001D02*
X86753524Y-71393001D01*
X86753524Y-71012001D01*
X87007524Y-71012001D01*
X87007524Y-71393001D01*
G36*
X71346926Y-69893001D02*
G01*
X71092926Y-69893001D01*
X71092926Y-69512001D01*
X71346926Y-69512001D01*
X71346926Y-69893001D01*
G37*
X71346926Y-69893001D02*
X71092926Y-69893001D01*
X71092926Y-69512001D01*
X71346926Y-69512001D01*
X71346926Y-69893001D01*
G36*
X87007524Y-66393000D02*
G01*
X86753524Y-66393000D01*
X86753524Y-66012000D01*
X87007524Y-66012000D01*
X87007524Y-66393000D01*
G37*
X87007524Y-66393000D02*
X86753524Y-66393000D01*
X86753524Y-66012000D01*
X87007524Y-66012000D01*
X87007524Y-66393000D01*
D12*
%TO.C,C1*%
X57565000Y-76976248D02*
X57565000Y-77498752D01*
X59035000Y-76976248D02*
X59035000Y-77498752D01*
%TD*%
M02*
