%TF.GenerationSoftware,KiCad,Pcbnew,(6.0.7-1)-1*%
%TF.CreationDate,2023-01-18T18:07:13-08:00*%
%TF.ProjectId,QCard,51436172-642e-46b6-9963-61645f706362,1903842*%
%TF.SameCoordinates,Original*%
%TF.FileFunction,Copper,L1,Top*%
%TF.FilePolarity,Positive*%
%FSLAX46Y46*%
G04 Gerber Fmt 4.6, Leading zero omitted, Abs format (unit mm)*
G04 Created by KiCad (PCBNEW (6.0.7-1)-1) date 2023-01-18 18:07:13*
%MOMM*%
%LPD*%
G01*
G04 APERTURE LIST*
G04 Aperture macros list*
%AMRoundRect*
0 Rectangle with rounded corners*
0 $1 Rounding radius*
0 $2 $3 $4 $5 $6 $7 $8 $9 X,Y pos of 4 corners*
0 Add a 4 corners polygon primitive as box body*
4,1,4,$2,$3,$4,$5,$6,$7,$8,$9,$2,$3,0*
0 Add four circle primitives for the rounded corners*
1,1,$1+$1,$2,$3*
1,1,$1+$1,$4,$5*
1,1,$1+$1,$6,$7*
1,1,$1+$1,$8,$9*
0 Add four rect primitives between the rounded corners*
20,1,$1+$1,$2,$3,$4,$5,0*
20,1,$1+$1,$4,$5,$6,$7,0*
20,1,$1+$1,$6,$7,$8,$9,0*
20,1,$1+$1,$8,$9,$2,$3,0*%
G04 Aperture macros list end*
%TA.AperFunction,SMDPad,CuDef*%
%ADD10R,1.500000X1.000000*%
%TD*%
%TA.AperFunction,SMDPad,CuDef*%
%ADD11R,1.200899X0.279400*%
%TD*%
%TA.AperFunction,ConnectorPad*%
%ADD12RoundRect,0.375000X-0.375000X-4.625000X0.375000X-4.625000X0.375000X4.625000X-0.375000X4.625000X0*%
%TD*%
%TA.AperFunction,SMDPad,CuDef*%
%ADD13RoundRect,0.250000X-0.475000X0.337500X-0.475000X-0.337500X0.475000X-0.337500X0.475000X0.337500X0*%
%TD*%
%TA.AperFunction,ViaPad*%
%ADD14C,0.900000*%
%TD*%
%TA.AperFunction,ViaPad*%
%ADD15C,0.800000*%
%TD*%
%TA.AperFunction,Conductor*%
%ADD16C,0.250000*%
%TD*%
%TA.AperFunction,Conductor*%
%ADD17C,0.300000*%
%TD*%
G04 APERTURE END LIST*
D10*
%TO.P,JP1,3,B*%
%TO.N,Net-(J1-Pad18)*%
X58100000Y-66100000D03*
%TO.P,JP1,2,C*%
%TO.N,/PGM*%
X58100000Y-67400000D03*
%TO.P,JP1,1,A*%
%TO.N,/VCC*%
X58100000Y-68700000D03*
%TD*%
D11*
%TO.P,U1,1,A11*%
%TO.N,/A11*%
X72201377Y-65202500D03*
%TO.P,U1,2,A9*%
%TO.N,/A9*%
X72201377Y-65702499D03*
%TO.P,U1,3,A8*%
%TO.N,/A8*%
X72201377Y-66202500D03*
%TO.P,U1,4,A13*%
%TO.N,/A13*%
X72201377Y-66702499D03*
%TO.P,U1,5,A14*%
%TO.N,/A14*%
X72201377Y-67202501D03*
%TO.P,U1,6,A17*%
%TO.N,/A17*%
X72201377Y-67702500D03*
%TO.P,U1,7,\u002AWE*%
%TO.N,/PGM*%
X72201377Y-68202499D03*
%TO.P,U1,8,VDD*%
%TO.N,/VCC*%
X72201377Y-68702500D03*
%TO.P,U1,9,A18*%
%TO.N,/A18*%
X72201377Y-69202500D03*
%TO.P,U1,10,A16*%
%TO.N,/A16*%
X72201377Y-69702501D03*
%TO.P,U1,11,A15*%
%TO.N,/A15*%
X72201377Y-70202500D03*
%TO.P,U1,12,A12*%
%TO.N,/A12*%
X72201377Y-70702499D03*
%TO.P,U1,13,A7*%
%TO.N,/A7*%
X72201377Y-71202501D03*
%TO.P,U1,14,A6*%
%TO.N,/A6*%
X72201377Y-71702500D03*
%TO.P,U1,15,A5*%
%TO.N,/A5*%
X72201377Y-72202501D03*
%TO.P,U1,16,A4*%
%TO.N,/A4*%
X72201377Y-72702500D03*
%TO.P,U1,17,A3*%
%TO.N,/A3*%
X85899073Y-72702500D03*
%TO.P,U1,18,A2*%
%TO.N,/A2*%
X85899073Y-72202501D03*
%TO.P,U1,19,A1*%
%TO.N,/A1*%
X85899073Y-71702500D03*
%TO.P,U1,20,A0*%
%TO.N,/A0*%
X85899073Y-71202501D03*
%TO.P,U1,21,DQ0*%
%TO.N,/D0*%
X85899073Y-70702499D03*
%TO.P,U1,22,DQ1*%
%TO.N,/D1*%
X85899073Y-70202500D03*
%TO.P,U1,23,DQ2*%
%TO.N,/D2*%
X85899073Y-69702501D03*
%TO.P,U1,24,VSS*%
%TO.N,/GND*%
X85899073Y-69202500D03*
%TO.P,U1,25,DQ3*%
%TO.N,/D3*%
X85899073Y-68702500D03*
%TO.P,U1,26,DQ4*%
%TO.N,/D4*%
X85899073Y-68202499D03*
%TO.P,U1,27,DQ5*%
%TO.N,/D5*%
X85899073Y-67702500D03*
%TO.P,U1,28,DQ6*%
%TO.N,/D6*%
X85899073Y-67202501D03*
%TO.P,U1,29,DQ7*%
%TO.N,/D7*%
X85899073Y-66702499D03*
%TO.P,U1,30,\u002ACE*%
%TO.N,/CE*%
X85899073Y-66202500D03*
%TO.P,U1,31,A10*%
%TO.N,/A10*%
X85899073Y-65702499D03*
%TO.P,U1,32,\u002AOE*%
%TO.N,/OE*%
X85899073Y-65202500D03*
%TD*%
D12*
%TO.P,J1,1,Pin_1*%
%TO.N,/GND*%
X55910000Y-89000000D03*
%TO.P,J1,2,Pin_2*%
X58450000Y-89000000D03*
%TO.P,J1,3,Pin_3*%
%TO.N,/A16*%
X60990000Y-89000000D03*
%TO.P,J1,4,Pin_4*%
%TO.N,/A15*%
X63530000Y-89000000D03*
%TO.P,J1,5,Pin_5*%
%TO.N,/A12*%
X66070000Y-89000000D03*
%TO.P,J1,6,Pin_6*%
%TO.N,/A7*%
X68610000Y-89000000D03*
%TO.P,J1,7,Pin_7*%
%TO.N,/A6*%
X71150000Y-89000000D03*
%TO.P,J1,8,Pin_8*%
%TO.N,/A5*%
X73690000Y-89000000D03*
%TO.P,J1,9,Pin_9*%
%TO.N,/A4*%
X76230000Y-89000000D03*
%TO.P,J1,10,Pin_10*%
%TO.N,/A3*%
X78770000Y-89000000D03*
%TO.P,J1,11,Pin_11*%
%TO.N,/A2*%
X81310000Y-89000000D03*
%TO.P,J1,12,Pin_12*%
%TO.N,/A1*%
X83850000Y-89000000D03*
%TO.P,J1,13,Pin_13*%
%TO.N,/A0*%
X86390000Y-89000000D03*
%TO.P,J1,14,Pin_14*%
%TO.N,/D0*%
X88930000Y-89000000D03*
%TO.P,J1,15,Pin_15*%
%TO.N,/D1*%
X91470000Y-89000000D03*
%TO.P,J1,16,Pin_16*%
%TO.N,/D2*%
X94010000Y-89000000D03*
%TO.P,J1,17,Pin_17*%
%TO.N,/GND*%
X96550000Y-89000000D03*
%TO.P,J1,18,Pin_18*%
%TO.N,Net-(J1-Pad18)*%
X99090000Y-89000000D03*
%TD*%
D13*
%TO.P,C1,1*%
%TO.N,/VCC*%
X58300000Y-76200000D03*
%TO.P,C1,2*%
%TO.N,/GND*%
X58300000Y-78275000D03*
%TD*%
D14*
%TO.N,/VCC*%
X58250000Y-73500000D03*
%TO.N,/GND*%
X90000000Y-69750000D03*
D15*
X56300000Y-73500000D03*
%TO.N,/A18*%
X65300000Y-70100000D03*
%TO.N,/A17*%
X68750000Y-67000000D03*
%TO.N,/A14*%
X74000000Y-69000000D03*
%TO.N,/A13*%
X75000000Y-68250000D03*
%TO.N,/A8*%
X75000000Y-67250000D03*
%TO.N,/A9*%
X75000000Y-66250497D03*
%TO.N,/A11*%
X75000000Y-65250000D03*
%TO.N,/OE*%
X82000000Y-65250000D03*
%TO.N,/A10*%
X82012548Y-66262051D03*
%TO.N,/CE*%
X82006490Y-67268109D03*
%TO.N,/D7*%
X82457275Y-68160184D03*
%TO.N,/D6*%
X82901613Y-69055488D03*
%TO.N,/D5*%
X83750000Y-70000000D03*
%TO.N,/D4*%
X90250000Y-67978000D03*
%TO.N,/D3*%
X92250000Y-69250000D03*
%TD*%
D16*
%TO.N,/PGM*%
X58100000Y-67400000D02*
X65800000Y-67400000D01*
X65800000Y-67400000D02*
X66602499Y-68202499D01*
X66602499Y-68202499D02*
X72201377Y-68202499D01*
%TO.N,Net-(J1-Pad18)*%
X99090000Y-89000000D02*
X99100000Y-88990000D01*
X99100000Y-88990000D02*
X99100000Y-72350000D01*
X99100000Y-72350000D02*
X91050000Y-64300000D01*
X91050000Y-64300000D02*
X60900000Y-64300000D01*
X60900000Y-64300000D02*
X59100000Y-66100000D01*
X59100000Y-66100000D02*
X58100000Y-66100000D01*
D17*
%TO.N,/VCC*%
X58100000Y-68700000D02*
X58102500Y-68702500D01*
X58102500Y-68702500D02*
X72201377Y-68702500D01*
X58250000Y-73500000D02*
X58200000Y-73450000D01*
X58200000Y-73450000D02*
X58200000Y-68800000D01*
X58200000Y-68800000D02*
X58100000Y-68700000D01*
D16*
%TO.N,/A18*%
X65300000Y-70100000D02*
X66197500Y-69202500D01*
X66197500Y-69202500D02*
X72201377Y-69202500D01*
D17*
%TO.N,/VCC*%
X58250000Y-73500000D02*
X58250000Y-76150000D01*
X58250000Y-76150000D02*
X58300000Y-76200000D01*
%TO.N,/GND*%
X85899073Y-69202500D02*
X89452500Y-69202500D01*
X89452500Y-69202500D02*
X90000000Y-69750000D01*
D16*
%TO.N,/A16*%
X60990000Y-89000000D02*
X60990000Y-78010000D01*
X69297499Y-69702501D02*
X72201377Y-69702501D01*
X60990000Y-78010000D02*
X69297499Y-69702501D01*
%TO.N,/A15*%
X69512201Y-70237799D02*
X71750000Y-70237799D01*
X63530000Y-89000000D02*
X63530000Y-76220000D01*
X63530000Y-76220000D02*
X69512201Y-70237799D01*
%TO.N,/A12*%
X66070000Y-74361802D02*
X69729303Y-70702499D01*
X66070000Y-89000000D02*
X66070000Y-74361802D01*
X69729303Y-70702499D02*
X72201377Y-70702499D01*
%TO.N,/A7*%
X68610000Y-72458198D02*
X69865697Y-71202501D01*
X68610000Y-89000000D02*
X68610000Y-72458198D01*
X69865697Y-71202501D02*
X72201377Y-71202501D01*
%TO.N,/A6*%
X71150000Y-89000000D02*
X71150000Y-76400000D01*
X69250000Y-74500000D02*
X69250000Y-72500000D01*
X71150000Y-76400000D02*
X69250000Y-74500000D01*
X70047500Y-71702500D02*
X72201377Y-71702500D01*
X69250000Y-72500000D02*
X70047500Y-71702500D01*
%TO.N,/A5*%
X73690000Y-78190000D02*
X69750000Y-74250000D01*
X69750000Y-74250000D02*
X69750000Y-72750000D01*
X73690000Y-89000000D02*
X73690000Y-78190000D01*
X70297499Y-72202501D02*
X72201377Y-72202501D01*
X69750000Y-72750000D02*
X70297499Y-72202501D01*
%TO.N,/A4*%
X70200000Y-72993198D02*
X70490698Y-72702500D01*
X76230000Y-79980000D02*
X70200000Y-73950000D01*
X76230000Y-89000000D02*
X76230000Y-79980000D01*
X70200000Y-73950000D02*
X70200000Y-72993198D01*
X70490698Y-72702500D02*
X72201377Y-72702500D01*
%TO.N,/A3*%
X78770000Y-80855000D02*
X82125000Y-77500000D01*
X85750000Y-77500000D02*
X87100000Y-76150000D01*
X86816104Y-72702500D02*
X85899073Y-72702500D01*
X82125000Y-77500000D02*
X85750000Y-77500000D01*
X78770000Y-89000000D02*
X78770000Y-80855000D01*
X87100000Y-76150000D02*
X87100000Y-72986396D01*
X87100000Y-72986396D02*
X86816104Y-72702500D01*
%TO.N,/A2*%
X81310000Y-80690000D02*
X83500000Y-78500000D01*
X83500000Y-78500000D02*
X85886396Y-78500000D01*
X81310000Y-89000000D02*
X81310000Y-80690000D01*
X86952501Y-72202501D02*
X85899073Y-72202501D01*
X87550000Y-72800000D02*
X86952501Y-72202501D01*
X85886396Y-78500000D02*
X87550000Y-76836396D01*
X87550000Y-76836396D02*
X87550000Y-72800000D01*
%TO.N,/A1*%
X88000000Y-77511396D02*
X88000000Y-72500000D01*
X83850000Y-89000000D02*
X83850000Y-81661396D01*
X88000000Y-72500000D02*
X87202500Y-71702500D01*
X87202500Y-71702500D02*
X85899073Y-71702500D01*
X83850000Y-81661396D02*
X88000000Y-77511396D01*
%TO.N,/A0*%
X88500000Y-78625000D02*
X88500000Y-72250000D01*
X86390000Y-80735000D02*
X88500000Y-78625000D01*
X87452501Y-71202501D02*
X85899073Y-71202501D01*
X86390000Y-89000000D02*
X86390000Y-80735000D01*
X88500000Y-72250000D02*
X87452501Y-71202501D01*
%TO.N,/D0*%
X89000000Y-88930000D02*
X89000000Y-72000000D01*
X88930000Y-89000000D02*
X89000000Y-88930000D01*
X87702499Y-70702499D02*
X85899073Y-70702499D01*
X89000000Y-72000000D02*
X87702499Y-70702499D01*
%TO.N,/D1*%
X91470000Y-73720000D02*
X87952500Y-70202500D01*
X87952500Y-70202500D02*
X85899073Y-70202500D01*
X91470000Y-89000000D02*
X91470000Y-73720000D01*
%TO.N,/D2*%
X88202501Y-69702501D02*
X85899073Y-69702501D01*
X94010000Y-89000000D02*
X94010000Y-75510000D01*
X94010000Y-75510000D02*
X88202501Y-69702501D01*
%TO.N,/A17*%
X68750000Y-67000000D02*
X69452500Y-67702500D01*
X69452500Y-67702500D02*
X72201377Y-67702500D01*
%TO.N,/A14*%
X74000000Y-69000000D02*
X74000000Y-68110974D01*
X74000000Y-68110974D02*
X73091527Y-67202501D01*
X73091527Y-67202501D02*
X72201377Y-67202501D01*
%TO.N,/A13*%
X74952238Y-68250000D02*
X73404737Y-66702499D01*
X73404737Y-66702499D02*
X72201377Y-66702499D01*
X75000000Y-68250000D02*
X74952238Y-68250000D01*
%TO.N,/A8*%
X75000000Y-67250000D02*
X74588634Y-67250000D01*
X73541134Y-66202500D02*
X72201377Y-66202500D01*
X74588634Y-67250000D02*
X73541134Y-66202500D01*
%TO.N,/A9*%
X74975192Y-66250497D02*
X74427194Y-65702499D01*
X75000000Y-66250497D02*
X74975192Y-66250497D01*
X74427194Y-65702499D02*
X72201377Y-65702499D01*
%TO.N,/A11*%
X75000000Y-65250000D02*
X74952500Y-65202500D01*
X74952500Y-65202500D02*
X72201377Y-65202500D01*
%TO.N,/OE*%
X82047500Y-65202500D02*
X85899073Y-65202500D01*
X82000000Y-65250000D02*
X82047500Y-65202500D01*
%TO.N,/A10*%
X82012548Y-66262051D02*
X82572100Y-65702499D01*
X82572100Y-65702499D02*
X85899073Y-65702499D01*
%TO.N,/CE*%
X83297500Y-66202500D02*
X85899073Y-66202500D01*
X82231891Y-67268109D02*
X83297500Y-66202500D01*
X82006490Y-67268109D02*
X82231891Y-67268109D01*
%TO.N,/D7*%
X83914960Y-66702499D02*
X85899073Y-66702499D01*
X82457275Y-68160184D02*
X83914960Y-66702499D01*
%TO.N,/D6*%
X82901613Y-68879637D02*
X84578749Y-67202501D01*
X84578749Y-67202501D02*
X85899073Y-67202501D01*
X82901613Y-69055488D02*
X82901613Y-68879637D01*
%TO.N,/D5*%
X83750000Y-70000000D02*
X83750000Y-69000000D01*
X83750000Y-69000000D02*
X85047500Y-67702500D01*
X85047500Y-67702500D02*
X85899073Y-67702500D01*
%TO.N,/D4*%
X89176998Y-67978000D02*
X88952499Y-68202499D01*
X90250000Y-67978000D02*
X89176998Y-67978000D01*
X88952499Y-68202499D02*
X85899073Y-68202499D01*
%TO.N,/D3*%
X92250000Y-69250000D02*
X91702500Y-68702500D01*
X91702500Y-68702500D02*
X85899073Y-68702500D01*
%TD*%
%TA.AperFunction,Conductor*%
%TO.N,/GND*%
G36*
X90803527Y-64953502D02*
G01*
X90824501Y-64970405D01*
X98429595Y-72575499D01*
X98463621Y-72637811D01*
X98466500Y-72664594D01*
X98466500Y-83432962D01*
X98446498Y-83501083D01*
X98396160Y-83544701D01*
X98396638Y-83545638D01*
X98392800Y-83547594D01*
X98392799Y-83547594D01*
X98387702Y-83550191D01*
X98231161Y-83629953D01*
X98226032Y-83634106D01*
X98226028Y-83634109D01*
X98094000Y-83741024D01*
X98086830Y-83746830D01*
X98082675Y-83751961D01*
X97974109Y-83886028D01*
X97974106Y-83886032D01*
X97969953Y-83891161D01*
X97966956Y-83897043D01*
X97931986Y-83965675D01*
X97883237Y-84017290D01*
X97814323Y-84034356D01*
X97747121Y-84011455D01*
X97707452Y-83965675D01*
X97672622Y-83897317D01*
X97665470Y-83886304D01*
X97556966Y-83752311D01*
X97547689Y-83743034D01*
X97413696Y-83634530D01*
X97402682Y-83627378D01*
X97249059Y-83549102D01*
X97236813Y-83544401D01*
X97069467Y-83499561D01*
X97058140Y-83497614D01*
X96989261Y-83492193D01*
X96984334Y-83492000D01*
X96822115Y-83492000D01*
X96806876Y-83496475D01*
X96805671Y-83497865D01*
X96804000Y-83505548D01*
X96804000Y-84250000D01*
X96296000Y-84250000D01*
X96296000Y-83510115D01*
X96291525Y-83494876D01*
X96290135Y-83493671D01*
X96282452Y-83492000D01*
X96115666Y-83492000D01*
X96110739Y-83492193D01*
X96041860Y-83497614D01*
X96030533Y-83499561D01*
X95863187Y-83544401D01*
X95850941Y-83549102D01*
X95697318Y-83627378D01*
X95686304Y-83634530D01*
X95552311Y-83743034D01*
X95543034Y-83752311D01*
X95434530Y-83886304D01*
X95427378Y-83897317D01*
X95392548Y-83965675D01*
X95343800Y-84017290D01*
X95274885Y-84034356D01*
X95207683Y-84011455D01*
X95168014Y-83965675D01*
X95133044Y-83897043D01*
X95130047Y-83891161D01*
X95125894Y-83886032D01*
X95125891Y-83886028D01*
X95017325Y-83751961D01*
X95013170Y-83746830D01*
X95006000Y-83741024D01*
X94873972Y-83634109D01*
X94873968Y-83634106D01*
X94868839Y-83629953D01*
X94862961Y-83626958D01*
X94862958Y-83626956D01*
X94722297Y-83555286D01*
X94712296Y-83550190D01*
X94660682Y-83501443D01*
X94643500Y-83437924D01*
X94643500Y-75588767D01*
X94644027Y-75577584D01*
X94645702Y-75570091D01*
X94643562Y-75502000D01*
X94643500Y-75498043D01*
X94643500Y-75470144D01*
X94642996Y-75466153D01*
X94642063Y-75454311D01*
X94640923Y-75418036D01*
X94640674Y-75410111D01*
X94638462Y-75402497D01*
X94638461Y-75402492D01*
X94635023Y-75390659D01*
X94631012Y-75371295D01*
X94629467Y-75359064D01*
X94628474Y-75351203D01*
X94625557Y-75343836D01*
X94625556Y-75343831D01*
X94612198Y-75310092D01*
X94608354Y-75298865D01*
X94599736Y-75269204D01*
X94596018Y-75256407D01*
X94585707Y-75238972D01*
X94577012Y-75221224D01*
X94569552Y-75202383D01*
X94549517Y-75174806D01*
X94543564Y-75166613D01*
X94537048Y-75156693D01*
X94518580Y-75125465D01*
X94518578Y-75125462D01*
X94514542Y-75118638D01*
X94500221Y-75104317D01*
X94487380Y-75089283D01*
X94480131Y-75079306D01*
X94475472Y-75072893D01*
X94441395Y-75044702D01*
X94432616Y-75036712D01*
X88947000Y-69551095D01*
X88912974Y-69488783D01*
X88918039Y-69417968D01*
X88960586Y-69361132D01*
X89027106Y-69336321D01*
X89036095Y-69336000D01*
X91233040Y-69336000D01*
X91301161Y-69356002D01*
X91347654Y-69409658D01*
X91355902Y-69434637D01*
X91356458Y-69439928D01*
X91415473Y-69621556D01*
X91510960Y-69786944D01*
X91515378Y-69791851D01*
X91515379Y-69791852D01*
X91607112Y-69893732D01*
X91638747Y-69928866D01*
X91687088Y-69963988D01*
X91761545Y-70018084D01*
X91793248Y-70041118D01*
X91799276Y-70043802D01*
X91799278Y-70043803D01*
X91940245Y-70106565D01*
X91967712Y-70118794D01*
X92061112Y-70138647D01*
X92148056Y-70157128D01*
X92148061Y-70157128D01*
X92154513Y-70158500D01*
X92345487Y-70158500D01*
X92351939Y-70157128D01*
X92351944Y-70157128D01*
X92438888Y-70138647D01*
X92532288Y-70118794D01*
X92559755Y-70106565D01*
X92700722Y-70043803D01*
X92700724Y-70043802D01*
X92706752Y-70041118D01*
X92738456Y-70018084D01*
X92812912Y-69963988D01*
X92861253Y-69928866D01*
X92892888Y-69893732D01*
X92984621Y-69791852D01*
X92984622Y-69791851D01*
X92989040Y-69786944D01*
X93084527Y-69621556D01*
X93143542Y-69439928D01*
X93145518Y-69421134D01*
X93162814Y-69256565D01*
X93163504Y-69250000D01*
X93147019Y-69093154D01*
X93144232Y-69066635D01*
X93144232Y-69066633D01*
X93143542Y-69060072D01*
X93084527Y-68878444D01*
X93058948Y-68834139D01*
X92992341Y-68718774D01*
X92989040Y-68713056D01*
X92974699Y-68697128D01*
X92865675Y-68576045D01*
X92865674Y-68576044D01*
X92861253Y-68571134D01*
X92706752Y-68458882D01*
X92700724Y-68456198D01*
X92700722Y-68456197D01*
X92538319Y-68383891D01*
X92538318Y-68383891D01*
X92532288Y-68381206D01*
X92415539Y-68356390D01*
X92351944Y-68342872D01*
X92351939Y-68342872D01*
X92345487Y-68341500D01*
X92290571Y-68341500D01*
X92222450Y-68321498D01*
X92196288Y-68298300D01*
X92194500Y-68295482D01*
X92144848Y-68248856D01*
X92142007Y-68246102D01*
X92122270Y-68226365D01*
X92119073Y-68223885D01*
X92110051Y-68216180D01*
X92083600Y-68191341D01*
X92077821Y-68185914D01*
X92070875Y-68182095D01*
X92070872Y-68182093D01*
X92060066Y-68176152D01*
X92043547Y-68165301D01*
X92036950Y-68160184D01*
X92027541Y-68152886D01*
X92020272Y-68149741D01*
X92020268Y-68149738D01*
X91986963Y-68135326D01*
X91976313Y-68130109D01*
X91937560Y-68108805D01*
X91917937Y-68103767D01*
X91899234Y-68097363D01*
X91887920Y-68092467D01*
X91887919Y-68092467D01*
X91880645Y-68089319D01*
X91872822Y-68088080D01*
X91872812Y-68088077D01*
X91836976Y-68082401D01*
X91825356Y-68079995D01*
X91790211Y-68070972D01*
X91790210Y-68070972D01*
X91782530Y-68069000D01*
X91762276Y-68069000D01*
X91742565Y-68067449D01*
X91730386Y-68065520D01*
X91722557Y-68064280D01*
X91714665Y-68065026D01*
X91678539Y-68068441D01*
X91666681Y-68069000D01*
X91286520Y-68069000D01*
X91218399Y-68048998D01*
X91171906Y-67995342D01*
X91161210Y-67956171D01*
X91144232Y-67794635D01*
X91144232Y-67794633D01*
X91143542Y-67788072D01*
X91084527Y-67606444D01*
X90989040Y-67441056D01*
X90972881Y-67423109D01*
X90865675Y-67304045D01*
X90865674Y-67304044D01*
X90861253Y-67299134D01*
X90762157Y-67227136D01*
X90712094Y-67190763D01*
X90712093Y-67190762D01*
X90706752Y-67186882D01*
X90700724Y-67184198D01*
X90700722Y-67184197D01*
X90538319Y-67111891D01*
X90538318Y-67111891D01*
X90532288Y-67109206D01*
X90438888Y-67089353D01*
X90351944Y-67070872D01*
X90351939Y-67070872D01*
X90345487Y-67069500D01*
X90154513Y-67069500D01*
X90148061Y-67070872D01*
X90148056Y-67070872D01*
X90061112Y-67089353D01*
X89967712Y-67109206D01*
X89961682Y-67111891D01*
X89961681Y-67111891D01*
X89799278Y-67184197D01*
X89799276Y-67184198D01*
X89793248Y-67186882D01*
X89787907Y-67190762D01*
X89787906Y-67190763D01*
X89715410Y-67243435D01*
X89638747Y-67299134D01*
X89634332Y-67304037D01*
X89629420Y-67308460D01*
X89628295Y-67307211D01*
X89574986Y-67340051D01*
X89541800Y-67344500D01*
X89255766Y-67344500D01*
X89244583Y-67343973D01*
X89237090Y-67342298D01*
X89229164Y-67342547D01*
X89229163Y-67342547D01*
X89169000Y-67344438D01*
X89165042Y-67344500D01*
X89137142Y-67344500D01*
X89133152Y-67345004D01*
X89121318Y-67345936D01*
X89077109Y-67347326D01*
X89069493Y-67349539D01*
X89069491Y-67349539D01*
X89057650Y-67352979D01*
X89038291Y-67356988D01*
X89036981Y-67357154D01*
X89018201Y-67359526D01*
X89010835Y-67362442D01*
X89010829Y-67362444D01*
X88977096Y-67375800D01*
X88965866Y-67379645D01*
X88931015Y-67389770D01*
X88923405Y-67391981D01*
X88916582Y-67396016D01*
X88905964Y-67402295D01*
X88888211Y-67410992D01*
X88880566Y-67414019D01*
X88869381Y-67418448D01*
X88862966Y-67423109D01*
X88833610Y-67444437D01*
X88823693Y-67450951D01*
X88785636Y-67473458D01*
X88771312Y-67487782D01*
X88756285Y-67500617D01*
X88739891Y-67512528D01*
X88734837Y-67518637D01*
X88730965Y-67523317D01*
X88672130Y-67563053D01*
X88633882Y-67568999D01*
X87129042Y-67568999D01*
X87060921Y-67548997D01*
X87014428Y-67495341D01*
X87003779Y-67429391D01*
X87004462Y-67423109D01*
X87008022Y-67390335D01*
X87008022Y-67014667D01*
X87005667Y-66992982D01*
X87002747Y-66966107D01*
X87002747Y-66938893D01*
X87007653Y-66893732D01*
X87007653Y-66893728D01*
X87008022Y-66890333D01*
X87008022Y-66514665D01*
X87002747Y-66466105D01*
X87002747Y-66438891D01*
X87003294Y-66433862D01*
X87008022Y-66390334D01*
X87008022Y-66014666D01*
X87002747Y-65966105D01*
X87002747Y-65938892D01*
X87007653Y-65893732D01*
X87007653Y-65893728D01*
X87008022Y-65890333D01*
X87008022Y-65514665D01*
X87002747Y-65466106D01*
X87002747Y-65438893D01*
X87007653Y-65393733D01*
X87007653Y-65393729D01*
X87008022Y-65390334D01*
X87008022Y-65059500D01*
X87028024Y-64991379D01*
X87081680Y-64944886D01*
X87134022Y-64933500D01*
X90735406Y-64933500D01*
X90803527Y-64953502D01*
G37*
%TD.AperFunction*%
%TA.AperFunction,Conductor*%
G36*
X104433621Y-50528502D02*
G01*
X104480114Y-50582158D01*
X104491500Y-50634500D01*
X104491500Y-83615500D01*
X104471498Y-83683621D01*
X104417842Y-83730114D01*
X104365500Y-83741500D01*
X101508623Y-83741500D01*
X101507853Y-83741498D01*
X101507037Y-83741493D01*
X101430279Y-83741024D01*
X101409965Y-83746830D01*
X101401847Y-83749150D01*
X101385085Y-83752728D01*
X101355813Y-83756920D01*
X101347645Y-83760634D01*
X101347644Y-83760634D01*
X101332438Y-83767548D01*
X101314914Y-83773996D01*
X101290229Y-83781051D01*
X101282635Y-83785843D01*
X101282632Y-83785844D01*
X101265220Y-83796830D01*
X101250137Y-83804969D01*
X101223218Y-83817208D01*
X101216416Y-83823069D01*
X101203765Y-83833970D01*
X101188761Y-83845073D01*
X101167042Y-83858776D01*
X101161103Y-83865501D01*
X101161099Y-83865504D01*
X101147468Y-83880938D01*
X101135276Y-83892982D01*
X101119673Y-83906427D01*
X101119671Y-83906430D01*
X101112873Y-83912287D01*
X101107993Y-83919816D01*
X101107992Y-83919817D01*
X101098906Y-83933835D01*
X101087615Y-83948709D01*
X101076569Y-83961217D01*
X101070622Y-83967951D01*
X101064312Y-83981391D01*
X101058058Y-83994711D01*
X101049737Y-84009691D01*
X101038529Y-84026983D01*
X101038527Y-84026988D01*
X101033648Y-84034515D01*
X101031078Y-84043108D01*
X101031076Y-84043113D01*
X101026289Y-84059120D01*
X101019628Y-84076564D01*
X101012533Y-84091676D01*
X101008719Y-84099800D01*
X101007338Y-84108667D01*
X101007338Y-84108668D01*
X101004170Y-84129015D01*
X101000386Y-84145736D01*
X100996088Y-84160106D01*
X100957405Y-84219638D01*
X100892676Y-84248806D01*
X100875372Y-84250000D01*
X100442857Y-84250000D01*
X100374736Y-84229998D01*
X100328243Y-84176342D01*
X100321150Y-84156612D01*
X100294362Y-84056638D01*
X100210047Y-83891161D01*
X100205894Y-83886032D01*
X100205891Y-83886028D01*
X100097325Y-83751961D01*
X100093170Y-83746830D01*
X100086000Y-83741024D01*
X99953972Y-83634109D01*
X99953968Y-83634106D01*
X99948839Y-83629953D01*
X99802297Y-83555286D01*
X99750682Y-83506538D01*
X99733500Y-83443019D01*
X99733500Y-72428767D01*
X99734027Y-72417584D01*
X99735702Y-72410091D01*
X99733562Y-72342014D01*
X99733500Y-72338055D01*
X99733500Y-72310144D01*
X99732995Y-72306144D01*
X99732062Y-72294301D01*
X99730922Y-72258029D01*
X99730673Y-72250110D01*
X99725022Y-72230658D01*
X99721014Y-72211306D01*
X99719467Y-72199063D01*
X99718474Y-72191203D01*
X99715556Y-72183832D01*
X99702200Y-72150097D01*
X99698355Y-72138870D01*
X99697721Y-72136687D01*
X99686018Y-72096407D01*
X99681984Y-72089585D01*
X99681981Y-72089579D01*
X99675706Y-72078968D01*
X99667010Y-72061218D01*
X99662472Y-72049756D01*
X99662469Y-72049751D01*
X99659552Y-72042383D01*
X99641899Y-72018085D01*
X99633573Y-72006625D01*
X99627057Y-71996707D01*
X99608575Y-71965457D01*
X99604542Y-71958637D01*
X99590218Y-71944313D01*
X99577376Y-71929278D01*
X99565472Y-71912893D01*
X99531406Y-71884711D01*
X99522627Y-71876722D01*
X91553652Y-63907747D01*
X91546112Y-63899461D01*
X91542000Y-63892982D01*
X91492348Y-63846356D01*
X91489507Y-63843602D01*
X91469770Y-63823865D01*
X91466573Y-63821385D01*
X91457551Y-63813680D01*
X91444116Y-63801064D01*
X91425321Y-63783414D01*
X91418375Y-63779595D01*
X91418372Y-63779593D01*
X91407566Y-63773652D01*
X91391047Y-63762801D01*
X91390583Y-63762441D01*
X91375041Y-63750386D01*
X91367772Y-63747241D01*
X91367768Y-63747238D01*
X91334463Y-63732826D01*
X91323813Y-63727609D01*
X91285060Y-63706305D01*
X91265437Y-63701267D01*
X91246734Y-63694863D01*
X91235420Y-63689967D01*
X91235419Y-63689967D01*
X91228145Y-63686819D01*
X91220322Y-63685580D01*
X91220312Y-63685577D01*
X91184476Y-63679901D01*
X91172856Y-63677495D01*
X91137711Y-63668472D01*
X91137710Y-63668472D01*
X91130030Y-63666500D01*
X91109776Y-63666500D01*
X91090065Y-63664949D01*
X91087534Y-63664548D01*
X91070057Y-63661780D01*
X91062165Y-63662526D01*
X91026039Y-63665941D01*
X91014181Y-63666500D01*
X60978763Y-63666500D01*
X60967579Y-63665973D01*
X60960091Y-63664299D01*
X60952168Y-63664548D01*
X60892033Y-63666438D01*
X60888075Y-63666500D01*
X60860144Y-63666500D01*
X60856229Y-63666995D01*
X60856225Y-63666995D01*
X60856167Y-63667003D01*
X60856138Y-63667006D01*
X60844296Y-63667939D01*
X60800110Y-63669327D01*
X60782744Y-63674372D01*
X60780658Y-63674978D01*
X60761306Y-63678986D01*
X60749068Y-63680532D01*
X60749066Y-63680533D01*
X60741203Y-63681526D01*
X60700086Y-63697806D01*
X60688885Y-63701641D01*
X60646406Y-63713982D01*
X60639587Y-63718015D01*
X60639582Y-63718017D01*
X60628971Y-63724293D01*
X60611221Y-63732990D01*
X60592383Y-63740448D01*
X60585967Y-63745109D01*
X60585966Y-63745110D01*
X60556625Y-63766428D01*
X60546701Y-63772947D01*
X60515460Y-63791422D01*
X60515455Y-63791426D01*
X60508637Y-63795458D01*
X60494313Y-63809782D01*
X60479281Y-63822621D01*
X60462893Y-63834528D01*
X60434712Y-63868593D01*
X60426722Y-63877373D01*
X59196258Y-65107837D01*
X59133946Y-65141863D01*
X59062934Y-65136724D01*
X58967718Y-65101029D01*
X58967712Y-65101027D01*
X58960316Y-65098255D01*
X58898134Y-65091500D01*
X57301866Y-65091500D01*
X57239684Y-65098255D01*
X57103295Y-65149385D01*
X56986739Y-65236739D01*
X56899385Y-65353295D01*
X56848255Y-65489684D01*
X56841500Y-65551866D01*
X56841500Y-66648134D01*
X56848255Y-66710316D01*
X56851029Y-66717715D01*
X56851775Y-66720854D01*
X56851775Y-66779146D01*
X56851029Y-66782285D01*
X56848255Y-66789684D01*
X56841500Y-66851866D01*
X56841500Y-67948134D01*
X56848255Y-68010316D01*
X56851029Y-68017715D01*
X56851775Y-68020854D01*
X56851775Y-68079146D01*
X56851029Y-68082285D01*
X56848255Y-68089684D01*
X56841500Y-68151866D01*
X56841500Y-69248134D01*
X56848255Y-69310316D01*
X56899385Y-69446705D01*
X56986739Y-69563261D01*
X57103295Y-69650615D01*
X57239684Y-69701745D01*
X57301866Y-69708500D01*
X57415500Y-69708500D01*
X57483621Y-69728502D01*
X57530114Y-69782158D01*
X57541500Y-69834500D01*
X57541500Y-72807272D01*
X57521498Y-72875393D01*
X57512021Y-72888263D01*
X57459265Y-72951135D01*
X57459261Y-72951141D01*
X57455302Y-72955859D01*
X57452338Y-72961251D01*
X57452335Y-72961255D01*
X57422529Y-73015473D01*
X57364746Y-73120580D01*
X57307909Y-73299752D01*
X57286956Y-73486552D01*
X57287472Y-73492696D01*
X57294794Y-73579887D01*
X57302685Y-73673865D01*
X57354497Y-73854555D01*
X57357312Y-73860032D01*
X57357313Y-73860035D01*
X57437603Y-74016263D01*
X57440418Y-74021740D01*
X57444241Y-74026564D01*
X57444244Y-74026568D01*
X57470625Y-74059852D01*
X57557109Y-74168966D01*
X57557177Y-74169052D01*
X57557161Y-74169065D01*
X57589069Y-74230005D01*
X57591500Y-74254636D01*
X57591500Y-75049984D01*
X57571498Y-75118105D01*
X57517842Y-75164598D01*
X57510126Y-75167637D01*
X57508003Y-75168632D01*
X57501054Y-75170950D01*
X57350652Y-75264022D01*
X57225695Y-75389197D01*
X57221855Y-75395427D01*
X57221854Y-75395428D01*
X57173354Y-75474110D01*
X57132885Y-75539762D01*
X57077203Y-75707639D01*
X57066500Y-75812100D01*
X57066500Y-76587900D01*
X57077474Y-76693666D01*
X57133450Y-76861446D01*
X57226522Y-77011848D01*
X57351697Y-77136805D01*
X57356235Y-77139602D01*
X57396824Y-77196853D01*
X57400054Y-77267776D01*
X57364428Y-77329187D01*
X57355932Y-77336562D01*
X57345793Y-77344598D01*
X57231261Y-77459329D01*
X57222249Y-77470740D01*
X57137184Y-77608743D01*
X57131037Y-77621924D01*
X57079862Y-77776210D01*
X57076995Y-77789586D01*
X57067328Y-77883938D01*
X57067000Y-77890355D01*
X57067000Y-78002885D01*
X57071475Y-78018124D01*
X57072865Y-78019329D01*
X57080548Y-78021000D01*
X59514884Y-78021000D01*
X59530123Y-78016525D01*
X59531328Y-78015135D01*
X59532999Y-78007452D01*
X59532999Y-77890405D01*
X59532662Y-77883886D01*
X59522743Y-77788294D01*
X59519851Y-77774900D01*
X59468412Y-77620716D01*
X59462239Y-77607538D01*
X59376937Y-77469693D01*
X59367901Y-77458292D01*
X59253172Y-77343762D01*
X59244238Y-77336706D01*
X59203177Y-77278788D01*
X59199947Y-77207865D01*
X59235574Y-77146454D01*
X59243407Y-77139654D01*
X59249348Y-77135978D01*
X59374305Y-77010803D01*
X59378146Y-77004572D01*
X59463275Y-76866468D01*
X59463276Y-76866466D01*
X59467115Y-76860238D01*
X59493564Y-76780495D01*
X59520632Y-76698889D01*
X59520632Y-76698887D01*
X59522797Y-76692361D01*
X59533500Y-76587900D01*
X59533500Y-75812100D01*
X59532018Y-75797812D01*
X59523238Y-75713192D01*
X59523237Y-75713188D01*
X59522526Y-75706334D01*
X59466550Y-75538554D01*
X59373478Y-75388152D01*
X59248303Y-75263195D01*
X59161606Y-75209754D01*
X59103968Y-75174225D01*
X59103966Y-75174224D01*
X59097738Y-75170385D01*
X58994833Y-75136253D01*
X58936473Y-75095822D01*
X58909236Y-75030258D01*
X58908500Y-75016660D01*
X58908500Y-74250938D01*
X58928502Y-74182817D01*
X58939119Y-74168607D01*
X59032994Y-74059852D01*
X59032995Y-74059850D01*
X59037023Y-74055184D01*
X59129870Y-73891744D01*
X59189203Y-73713382D01*
X59212762Y-73526892D01*
X59213138Y-73500000D01*
X59194795Y-73312926D01*
X59140465Y-73132977D01*
X59052218Y-72967008D01*
X58933415Y-72821340D01*
X58904185Y-72797159D01*
X58864447Y-72738325D01*
X58858500Y-72700074D01*
X58858500Y-69824493D01*
X58878502Y-69756372D01*
X58932158Y-69709879D01*
X58953763Y-69702457D01*
X58960316Y-69701745D01*
X58967711Y-69698973D01*
X58967714Y-69698972D01*
X59088297Y-69653767D01*
X59096705Y-69650615D01*
X59213261Y-69563261D01*
X59256976Y-69504932D01*
X59295233Y-69453887D01*
X59295235Y-69453884D01*
X59300615Y-69446705D01*
X59303765Y-69438302D01*
X59308077Y-69430426D01*
X59310405Y-69431700D01*
X59344736Y-69386002D01*
X59411299Y-69361306D01*
X59420072Y-69361000D01*
X64461327Y-69361000D01*
X64529448Y-69381002D01*
X64575941Y-69434658D01*
X64586045Y-69504932D01*
X64563678Y-69560038D01*
X64560960Y-69563056D01*
X64544000Y-69592432D01*
X64476192Y-69709879D01*
X64465473Y-69728444D01*
X64406458Y-69910072D01*
X64405768Y-69916633D01*
X64405768Y-69916635D01*
X64398639Y-69984464D01*
X64386496Y-70100000D01*
X64387186Y-70106565D01*
X64396608Y-70196206D01*
X64406458Y-70289928D01*
X64465473Y-70471556D01*
X64560960Y-70636944D01*
X64688747Y-70778866D01*
X64843248Y-70891118D01*
X64849276Y-70893802D01*
X64849278Y-70893803D01*
X65011677Y-70966107D01*
X65017712Y-70968794D01*
X65111113Y-70988647D01*
X65198056Y-71007128D01*
X65198061Y-71007128D01*
X65204513Y-71008500D01*
X65395487Y-71008500D01*
X65401939Y-71007128D01*
X65401944Y-71007128D01*
X65488887Y-70988647D01*
X65582288Y-70968794D01*
X65588323Y-70966107D01*
X65750722Y-70893803D01*
X65750724Y-70893802D01*
X65756752Y-70891118D01*
X65911253Y-70778866D01*
X66039040Y-70636944D01*
X66134527Y-70471556D01*
X66193542Y-70289928D01*
X66210907Y-70124706D01*
X66237920Y-70059050D01*
X66247122Y-70048782D01*
X66422999Y-69872905D01*
X66485311Y-69838879D01*
X66512094Y-69836000D01*
X67963906Y-69836000D01*
X68032027Y-69856002D01*
X68078520Y-69909658D01*
X68088624Y-69979932D01*
X68059130Y-70044512D01*
X68053001Y-70051095D01*
X64255464Y-73848631D01*
X60597747Y-77506348D01*
X60589461Y-77513888D01*
X60582982Y-77518000D01*
X60577557Y-77523777D01*
X60536357Y-77567651D01*
X60533602Y-77570493D01*
X60513865Y-77590230D01*
X60511385Y-77593427D01*
X60503682Y-77602447D01*
X60473414Y-77634679D01*
X60469595Y-77641625D01*
X60469593Y-77641628D01*
X60463652Y-77652434D01*
X60452801Y-77668953D01*
X60440386Y-77684959D01*
X60437241Y-77692228D01*
X60437238Y-77692232D01*
X60422826Y-77725537D01*
X60417609Y-77736187D01*
X60396305Y-77774940D01*
X60394334Y-77782615D01*
X60394334Y-77782616D01*
X60391267Y-77794562D01*
X60384863Y-77813266D01*
X60376819Y-77831855D01*
X60375580Y-77839678D01*
X60375577Y-77839688D01*
X60369901Y-77875524D01*
X60367495Y-77887144D01*
X60356500Y-77929970D01*
X60356500Y-77950224D01*
X60354949Y-77969934D01*
X60351780Y-77989943D01*
X60352526Y-77997835D01*
X60355941Y-78033961D01*
X60356500Y-78045819D01*
X60356500Y-83437924D01*
X60336498Y-83506045D01*
X60287704Y-83550190D01*
X60277703Y-83555286D01*
X60137042Y-83626956D01*
X60137039Y-83626958D01*
X60131161Y-83629953D01*
X60126032Y-83634106D01*
X60126028Y-83634109D01*
X59994000Y-83741024D01*
X59986830Y-83746830D01*
X59982675Y-83751961D01*
X59874109Y-83886028D01*
X59874106Y-83886032D01*
X59869953Y-83891161D01*
X59866956Y-83897043D01*
X59831986Y-83965675D01*
X59783237Y-84017290D01*
X59714323Y-84034356D01*
X59647121Y-84011455D01*
X59607452Y-83965675D01*
X59572622Y-83897317D01*
X59565470Y-83886304D01*
X59456966Y-83752311D01*
X59447689Y-83743034D01*
X59313696Y-83634530D01*
X59302682Y-83627378D01*
X59149059Y-83549102D01*
X59136813Y-83544401D01*
X58969467Y-83499561D01*
X58958140Y-83497614D01*
X58889261Y-83492193D01*
X58884334Y-83492000D01*
X58722115Y-83492000D01*
X58706876Y-83496475D01*
X58705671Y-83497865D01*
X58704000Y-83505548D01*
X58704000Y-84250000D01*
X58196000Y-84250000D01*
X58196000Y-83510115D01*
X58191525Y-83494876D01*
X58190135Y-83493671D01*
X58182452Y-83492000D01*
X58015666Y-83492000D01*
X58010739Y-83492193D01*
X57941860Y-83497614D01*
X57930533Y-83499561D01*
X57763187Y-83544401D01*
X57750941Y-83549102D01*
X57597318Y-83627378D01*
X57586304Y-83634530D01*
X57452311Y-83743034D01*
X57443034Y-83752311D01*
X57334530Y-83886304D01*
X57327378Y-83897318D01*
X57292267Y-83966226D01*
X57243519Y-84017841D01*
X57174604Y-84034907D01*
X57107402Y-84012006D01*
X57067733Y-83966226D01*
X57032622Y-83897318D01*
X57025470Y-83886304D01*
X56916966Y-83752311D01*
X56907689Y-83743034D01*
X56773696Y-83634530D01*
X56762682Y-83627378D01*
X56609059Y-83549102D01*
X56596813Y-83544401D01*
X56429467Y-83499561D01*
X56418140Y-83497614D01*
X56349261Y-83492193D01*
X56344334Y-83492000D01*
X56182115Y-83492000D01*
X56166876Y-83496475D01*
X56165671Y-83497865D01*
X56164000Y-83505548D01*
X56164000Y-84250000D01*
X55656000Y-84250000D01*
X55656000Y-83510115D01*
X55651525Y-83494876D01*
X55650135Y-83493671D01*
X55642452Y-83492000D01*
X55475666Y-83492000D01*
X55470739Y-83492193D01*
X55401860Y-83497614D01*
X55390533Y-83499561D01*
X55223187Y-83544401D01*
X55210941Y-83549102D01*
X55057318Y-83627378D01*
X55046304Y-83634530D01*
X54912311Y-83743034D01*
X54903034Y-83752311D01*
X54794530Y-83886304D01*
X54787378Y-83897318D01*
X54709102Y-84050941D01*
X54704401Y-84063187D01*
X54679368Y-84156612D01*
X54642416Y-84217234D01*
X54578555Y-84248256D01*
X54557661Y-84250000D01*
X54123936Y-84250000D01*
X54055815Y-84229998D01*
X54009322Y-84176342D01*
X54002786Y-84158622D01*
X54000849Y-84151844D01*
X53997272Y-84135085D01*
X53994352Y-84114698D01*
X53993080Y-84105813D01*
X53982451Y-84082436D01*
X53976004Y-84064913D01*
X53973639Y-84056638D01*
X53968949Y-84040229D01*
X53964156Y-84032632D01*
X53953170Y-84015220D01*
X53945030Y-84000135D01*
X53942564Y-83994711D01*
X53932792Y-83973218D01*
X53926293Y-83965675D01*
X53916030Y-83953765D01*
X53904927Y-83938761D01*
X53891224Y-83917042D01*
X53884499Y-83911103D01*
X53884496Y-83911099D01*
X53869062Y-83897468D01*
X53857018Y-83885276D01*
X53843573Y-83869673D01*
X53843570Y-83869671D01*
X53837713Y-83862873D01*
X53824009Y-83853990D01*
X53816165Y-83848906D01*
X53801291Y-83837615D01*
X53788783Y-83826569D01*
X53788782Y-83826568D01*
X53782049Y-83820622D01*
X53755287Y-83808057D01*
X53740309Y-83799737D01*
X53723017Y-83788529D01*
X53723012Y-83788527D01*
X53715485Y-83783648D01*
X53706892Y-83781078D01*
X53706887Y-83781076D01*
X53690880Y-83776289D01*
X53673436Y-83769628D01*
X53658324Y-83762533D01*
X53658322Y-83762532D01*
X53650200Y-83758719D01*
X53641333Y-83757338D01*
X53641332Y-83757338D01*
X53630478Y-83755648D01*
X53620983Y-83754170D01*
X53604268Y-83750387D01*
X53584534Y-83744485D01*
X53584528Y-83744484D01*
X53575934Y-83741914D01*
X53566963Y-83741859D01*
X53566962Y-83741859D01*
X53556903Y-83741798D01*
X53541494Y-83741704D01*
X53540711Y-83741671D01*
X53539614Y-83741500D01*
X53508623Y-83741500D01*
X53507853Y-83741498D01*
X53434215Y-83741048D01*
X53434214Y-83741048D01*
X53430279Y-83741024D01*
X53428935Y-83741408D01*
X53427590Y-83741500D01*
X50634500Y-83741500D01*
X50566379Y-83721498D01*
X50519886Y-83667842D01*
X50508500Y-83615500D01*
X50508500Y-78659595D01*
X57067001Y-78659595D01*
X57067338Y-78666114D01*
X57077257Y-78761706D01*
X57080149Y-78775100D01*
X57131588Y-78929284D01*
X57137761Y-78942462D01*
X57223063Y-79080307D01*
X57232099Y-79091708D01*
X57346829Y-79206239D01*
X57358240Y-79215251D01*
X57496243Y-79300316D01*
X57509424Y-79306463D01*
X57663710Y-79357638D01*
X57677086Y-79360505D01*
X57771438Y-79370172D01*
X57777854Y-79370500D01*
X58027885Y-79370500D01*
X58043124Y-79366025D01*
X58044329Y-79364635D01*
X58046000Y-79356952D01*
X58046000Y-79352384D01*
X58554000Y-79352384D01*
X58558475Y-79367623D01*
X58559865Y-79368828D01*
X58567548Y-79370499D01*
X58822095Y-79370499D01*
X58828614Y-79370162D01*
X58924206Y-79360243D01*
X58937600Y-79357351D01*
X59091784Y-79305912D01*
X59104962Y-79299739D01*
X59242807Y-79214437D01*
X59254208Y-79205401D01*
X59368739Y-79090671D01*
X59377751Y-79079260D01*
X59462816Y-78941257D01*
X59468963Y-78928076D01*
X59520138Y-78773790D01*
X59523005Y-78760414D01*
X59532672Y-78666062D01*
X59533000Y-78659646D01*
X59533000Y-78547115D01*
X59528525Y-78531876D01*
X59527135Y-78530671D01*
X59519452Y-78529000D01*
X58572115Y-78529000D01*
X58556876Y-78533475D01*
X58555671Y-78534865D01*
X58554000Y-78542548D01*
X58554000Y-79352384D01*
X58046000Y-79352384D01*
X58046000Y-78547115D01*
X58041525Y-78531876D01*
X58040135Y-78530671D01*
X58032452Y-78529000D01*
X57085116Y-78529000D01*
X57069877Y-78533475D01*
X57068672Y-78534865D01*
X57067001Y-78542548D01*
X57067001Y-78659595D01*
X50508500Y-78659595D01*
X50508500Y-55000000D01*
X50786411Y-55000000D01*
X50806754Y-55388176D01*
X50867562Y-55772099D01*
X50968167Y-56147562D01*
X51107468Y-56510453D01*
X51283938Y-56856794D01*
X51495643Y-57182793D01*
X51740266Y-57484876D01*
X52015124Y-57759734D01*
X52317207Y-58004357D01*
X52643206Y-58216062D01*
X52646140Y-58217557D01*
X52646147Y-58217561D01*
X52986607Y-58391034D01*
X52989547Y-58392532D01*
X53352438Y-58531833D01*
X53727901Y-58632438D01*
X53931793Y-58664732D01*
X54108576Y-58692732D01*
X54108584Y-58692733D01*
X54111824Y-58693246D01*
X54402894Y-58708500D01*
X54597106Y-58708500D01*
X54888176Y-58693246D01*
X54891416Y-58692733D01*
X54891424Y-58692732D01*
X55068207Y-58664732D01*
X55272099Y-58632438D01*
X55647562Y-58531833D01*
X56010453Y-58392532D01*
X56013393Y-58391034D01*
X56353853Y-58217561D01*
X56353860Y-58217557D01*
X56356794Y-58216062D01*
X56682793Y-58004357D01*
X56984876Y-57759734D01*
X57259734Y-57484876D01*
X57504357Y-57182793D01*
X57714265Y-56859563D01*
X57714266Y-56859561D01*
X57716062Y-56856795D01*
X57717562Y-56853853D01*
X57891034Y-56513393D01*
X57892532Y-56510453D01*
X58031833Y-56147562D01*
X58132438Y-55772099D01*
X58193246Y-55388176D01*
X58213589Y-55000000D01*
X96786411Y-55000000D01*
X96806754Y-55388176D01*
X96867562Y-55772099D01*
X96968167Y-56147562D01*
X97107468Y-56510453D01*
X97283938Y-56856794D01*
X97495643Y-57182793D01*
X97740266Y-57484876D01*
X98015124Y-57759734D01*
X98317207Y-58004357D01*
X98643206Y-58216062D01*
X98646140Y-58217557D01*
X98646147Y-58217561D01*
X98986607Y-58391034D01*
X98989547Y-58392532D01*
X99352438Y-58531833D01*
X99727901Y-58632438D01*
X99931793Y-58664732D01*
X100108576Y-58692732D01*
X100108584Y-58692733D01*
X100111824Y-58693246D01*
X100402894Y-58708500D01*
X100597106Y-58708500D01*
X100888176Y-58693246D01*
X100891416Y-58692733D01*
X100891424Y-58692732D01*
X101068207Y-58664732D01*
X101272099Y-58632438D01*
X101647562Y-58531833D01*
X102010453Y-58392532D01*
X102013393Y-58391034D01*
X102353853Y-58217561D01*
X102353860Y-58217557D01*
X102356794Y-58216062D01*
X102682793Y-58004357D01*
X102984876Y-57759734D01*
X103259734Y-57484876D01*
X103504357Y-57182793D01*
X103714265Y-56859563D01*
X103714266Y-56859561D01*
X103716062Y-56856795D01*
X103717562Y-56853853D01*
X103891034Y-56513393D01*
X103892532Y-56510453D01*
X104031833Y-56147562D01*
X104132438Y-55772099D01*
X104193246Y-55388176D01*
X104213589Y-55000000D01*
X104193246Y-54611824D01*
X104132438Y-54227901D01*
X104031833Y-53852438D01*
X103892532Y-53489547D01*
X103716062Y-53143206D01*
X103504357Y-52817207D01*
X103259734Y-52515124D01*
X102984876Y-52240266D01*
X102682793Y-51995643D01*
X102356794Y-51783938D01*
X102353860Y-51782443D01*
X102353853Y-51782439D01*
X102013393Y-51608966D01*
X102010453Y-51607468D01*
X101647562Y-51468167D01*
X101272099Y-51367562D01*
X101068207Y-51335268D01*
X100891424Y-51307268D01*
X100891416Y-51307267D01*
X100888176Y-51306754D01*
X100597106Y-51291500D01*
X100402894Y-51291500D01*
X100111824Y-51306754D01*
X100108584Y-51307267D01*
X100108576Y-51307268D01*
X99931793Y-51335268D01*
X99727901Y-51367562D01*
X99352438Y-51468167D01*
X98989547Y-51607468D01*
X98986607Y-51608966D01*
X98646147Y-51782439D01*
X98646140Y-51782443D01*
X98643206Y-51783938D01*
X98317207Y-51995643D01*
X98015124Y-52240266D01*
X97740266Y-52515124D01*
X97495643Y-52817207D01*
X97493848Y-52819970D01*
X97493848Y-52819971D01*
X97285736Y-53140436D01*
X97285734Y-53140439D01*
X97283938Y-53143205D01*
X97282443Y-53146139D01*
X97282439Y-53146146D01*
X97108966Y-53486607D01*
X97107468Y-53489547D01*
X96968167Y-53852438D01*
X96867562Y-54227901D01*
X96806754Y-54611824D01*
X96786411Y-55000000D01*
X58213589Y-55000000D01*
X58193246Y-54611824D01*
X58132438Y-54227901D01*
X58031833Y-53852438D01*
X57892532Y-53489547D01*
X57716062Y-53143206D01*
X57504357Y-52817207D01*
X57259734Y-52515124D01*
X56984876Y-52240266D01*
X56682793Y-51995643D01*
X56356794Y-51783938D01*
X56353860Y-51782443D01*
X56353853Y-51782439D01*
X56013393Y-51608966D01*
X56010453Y-51607468D01*
X55647562Y-51468167D01*
X55272099Y-51367562D01*
X55068207Y-51335268D01*
X54891424Y-51307268D01*
X54891416Y-51307267D01*
X54888176Y-51306754D01*
X54597106Y-51291500D01*
X54402894Y-51291500D01*
X54111824Y-51306754D01*
X54108584Y-51307267D01*
X54108576Y-51307268D01*
X53931793Y-51335268D01*
X53727901Y-51367562D01*
X53352438Y-51468167D01*
X52989547Y-51607468D01*
X52986607Y-51608966D01*
X52646147Y-51782439D01*
X52646140Y-51782443D01*
X52643206Y-51783938D01*
X52317207Y-51995643D01*
X52015124Y-52240266D01*
X51740266Y-52515124D01*
X51495643Y-52817207D01*
X51493848Y-52819970D01*
X51493848Y-52819971D01*
X51285736Y-53140436D01*
X51285734Y-53140439D01*
X51283938Y-53143205D01*
X51282443Y-53146139D01*
X51282439Y-53146146D01*
X51108966Y-53486607D01*
X51107468Y-53489547D01*
X50968167Y-53852438D01*
X50867562Y-54227901D01*
X50806754Y-54611824D01*
X50786411Y-55000000D01*
X50508500Y-55000000D01*
X50508500Y-50634500D01*
X50528502Y-50566379D01*
X50582158Y-50519886D01*
X50634500Y-50508500D01*
X104365500Y-50508500D01*
X104433621Y-50528502D01*
G37*
%TD.AperFunction*%
%TD*%
M02*
