%TF.GenerationSoftware,KiCad,Pcbnew,(6.0.7-1)-1*%
%TF.CreationDate,2023-01-24T10:24:56-08:00*%
%TF.ProjectId,QCard,51436172-642e-46b6-9963-61645f706362,1903842*%
%TF.SameCoordinates,Original*%
%TF.FileFunction,Legend,Bot*%
%TF.FilePolarity,Positive*%
%FSLAX46Y46*%
G04 Gerber Fmt 4.6, Leading zero omitted, Abs format (unit mm)*
G04 Created by KiCad (PCBNEW (6.0.7-1)-1) date 2023-01-24 10:24:56*
%MOMM*%
%LPD*%
G01*
G04 APERTURE LIST*
%ADD10C,0.100000*%
G04 APERTURE END LIST*
D10*
X99404761Y-82726190D02*
X99095238Y-82726190D01*
X99261904Y-82916666D01*
X99190476Y-82916666D01*
X99142857Y-82940476D01*
X99119047Y-82964285D01*
X99095238Y-83011904D01*
X99095238Y-83130952D01*
X99119047Y-83178571D01*
X99142857Y-83202380D01*
X99190476Y-83226190D01*
X99333333Y-83226190D01*
X99380952Y-83202380D01*
X99404761Y-83178571D01*
X98666666Y-82726190D02*
X98761904Y-82726190D01*
X98809523Y-82750000D01*
X98833333Y-82773809D01*
X98880952Y-82845238D01*
X98904761Y-82940476D01*
X98904761Y-83130952D01*
X98880952Y-83178571D01*
X98857142Y-83202380D01*
X98809523Y-83226190D01*
X98714285Y-83226190D01*
X98666666Y-83202380D01*
X98642857Y-83178571D01*
X98619047Y-83130952D01*
X98619047Y-83011904D01*
X98642857Y-82964285D01*
X98666666Y-82940476D01*
X98714285Y-82916666D01*
X98809523Y-82916666D01*
X98857142Y-82940476D01*
X98880952Y-82964285D01*
X98904761Y-83011904D01*
X56095238Y-83226190D02*
X56380952Y-83226190D01*
X56238095Y-83226190D02*
X56238095Y-82726190D01*
X56285714Y-82797619D01*
X56333333Y-82845238D01*
X56380952Y-82869047D01*
X55857142Y-83226190D02*
X55761904Y-83226190D01*
X55714285Y-83202380D01*
X55690476Y-83178571D01*
X55642857Y-83107142D01*
X55619047Y-83011904D01*
X55619047Y-82821428D01*
X55642857Y-82773809D01*
X55666666Y-82750000D01*
X55714285Y-82726190D01*
X55809523Y-82726190D01*
X55857142Y-82750000D01*
X55880952Y-82773809D01*
X55904761Y-82821428D01*
X55904761Y-82940476D01*
X55880952Y-82988095D01*
X55857142Y-83011904D01*
X55809523Y-83035714D01*
X55714285Y-83035714D01*
X55666666Y-83011904D01*
X55642857Y-82988095D01*
X55619047Y-82940476D01*
M02*
