%TF.GenerationSoftware,KiCad,Pcbnew,(6.0.7-1)-1*%
%TF.CreationDate,2023-01-18T18:07:13-08:00*%
%TF.ProjectId,QCard,51436172-642e-46b6-9963-61645f706362,1903842*%
%TF.SameCoordinates,Original*%
%TF.FileFunction,Legend,Top*%
%TF.FilePolarity,Positive*%
%FSLAX46Y46*%
G04 Gerber Fmt 4.6, Leading zero omitted, Abs format (unit mm)*
G04 Created by KiCad (PCBNEW (6.0.7-1)-1) date 2023-01-18 18:07:13*
%MOMM*%
%LPD*%
G01*
G04 APERTURE LIST*
%ADD10C,0.100000*%
%ADD11C,0.150000*%
%ADD12C,0.120000*%
G04 APERTURE END LIST*
D10*
X56457142Y-64926190D02*
X56457142Y-64426190D01*
X56647619Y-64426190D01*
X56695238Y-64450000D01*
X56719047Y-64473809D01*
X56742857Y-64521428D01*
X56742857Y-64592857D01*
X56719047Y-64640476D01*
X56695238Y-64664285D01*
X56647619Y-64688095D01*
X56457142Y-64688095D01*
X57242857Y-64926190D02*
X57076190Y-64688095D01*
X56957142Y-64926190D02*
X56957142Y-64426190D01*
X57147619Y-64426190D01*
X57195238Y-64450000D01*
X57219047Y-64473809D01*
X57242857Y-64521428D01*
X57242857Y-64592857D01*
X57219047Y-64640476D01*
X57195238Y-64664285D01*
X57147619Y-64688095D01*
X56957142Y-64688095D01*
X57552380Y-64426190D02*
X57647619Y-64426190D01*
X57695238Y-64450000D01*
X57742857Y-64497619D01*
X57766666Y-64592857D01*
X57766666Y-64759523D01*
X57742857Y-64854761D01*
X57695238Y-64902380D01*
X57647619Y-64926190D01*
X57552380Y-64926190D01*
X57504761Y-64902380D01*
X57457142Y-64854761D01*
X57433333Y-64759523D01*
X57433333Y-64592857D01*
X57457142Y-64497619D01*
X57504761Y-64450000D01*
X57552380Y-64426190D01*
X58242857Y-64450000D02*
X58195238Y-64426190D01*
X58123809Y-64426190D01*
X58052380Y-64450000D01*
X58004761Y-64497619D01*
X57980952Y-64545238D01*
X57957142Y-64640476D01*
X57957142Y-64711904D01*
X57980952Y-64807142D01*
X58004761Y-64854761D01*
X58052380Y-64902380D01*
X58123809Y-64926190D01*
X58171428Y-64926190D01*
X58242857Y-64902380D01*
X58266666Y-64878571D01*
X58266666Y-64711904D01*
X58171428Y-64711904D01*
X58766666Y-64926190D02*
X58600000Y-64688095D01*
X58480952Y-64926190D02*
X58480952Y-64426190D01*
X58671428Y-64426190D01*
X58719047Y-64450000D01*
X58742857Y-64473809D01*
X58766666Y-64521428D01*
X58766666Y-64592857D01*
X58742857Y-64640476D01*
X58719047Y-64664285D01*
X58671428Y-64688095D01*
X58480952Y-64688095D01*
X58957142Y-64783333D02*
X59195238Y-64783333D01*
X58909523Y-64926190D02*
X59076190Y-64426190D01*
X59242857Y-64926190D01*
X59409523Y-64926190D02*
X59409523Y-64426190D01*
X59576190Y-64783333D01*
X59742857Y-64426190D01*
X59742857Y-64926190D01*
X57564285Y-70426190D02*
X57397619Y-70188095D01*
X57278571Y-70426190D02*
X57278571Y-69926190D01*
X57469047Y-69926190D01*
X57516666Y-69950000D01*
X57540476Y-69973809D01*
X57564285Y-70021428D01*
X57564285Y-70092857D01*
X57540476Y-70140476D01*
X57516666Y-70164285D01*
X57469047Y-70188095D01*
X57278571Y-70188095D01*
X57778571Y-70164285D02*
X57945238Y-70164285D01*
X58016666Y-70426190D02*
X57778571Y-70426190D01*
X57778571Y-69926190D01*
X58016666Y-69926190D01*
X58207142Y-70283333D02*
X58445238Y-70283333D01*
X58159523Y-70426190D02*
X58326190Y-69926190D01*
X58492857Y-70426190D01*
X58659523Y-70426190D02*
X58659523Y-69926190D01*
X58778571Y-69926190D01*
X58849999Y-69950000D01*
X58897619Y-69997619D01*
X58921428Y-70045238D01*
X58945238Y-70140476D01*
X58945238Y-70211904D01*
X58921428Y-70307142D01*
X58897619Y-70354761D01*
X58849999Y-70402380D01*
X58778571Y-70426190D01*
X58659523Y-70426190D01*
D11*
X68309523Y-54742619D02*
X68214285Y-54695000D01*
X68119047Y-54599761D01*
X67976190Y-54456904D01*
X67880952Y-54409285D01*
X67785714Y-54409285D01*
X67833333Y-54647380D02*
X67738095Y-54599761D01*
X67642857Y-54504523D01*
X67595238Y-54314047D01*
X67595238Y-53980714D01*
X67642857Y-53790238D01*
X67738095Y-53695000D01*
X67833333Y-53647380D01*
X68023809Y-53647380D01*
X68119047Y-53695000D01*
X68214285Y-53790238D01*
X68261904Y-53980714D01*
X68261904Y-54314047D01*
X68214285Y-54504523D01*
X68119047Y-54599761D01*
X68023809Y-54647380D01*
X67833333Y-54647380D01*
X68690476Y-54266428D02*
X69452380Y-54266428D01*
X70500000Y-54552142D02*
X70452380Y-54599761D01*
X70309523Y-54647380D01*
X70214285Y-54647380D01*
X70071428Y-54599761D01*
X69976190Y-54504523D01*
X69928571Y-54409285D01*
X69880952Y-54218809D01*
X69880952Y-54075952D01*
X69928571Y-53885476D01*
X69976190Y-53790238D01*
X70071428Y-53695000D01*
X70214285Y-53647380D01*
X70309523Y-53647380D01*
X70452380Y-53695000D01*
X70500000Y-53742619D01*
X70928571Y-54647380D02*
X70928571Y-53647380D01*
X71357142Y-54647380D02*
X71357142Y-54123571D01*
X71309523Y-54028333D01*
X71214285Y-53980714D01*
X71071428Y-53980714D01*
X70976190Y-54028333D01*
X70928571Y-54075952D01*
X71976190Y-54647380D02*
X71880952Y-54599761D01*
X71833333Y-54552142D01*
X71785714Y-54456904D01*
X71785714Y-54171190D01*
X71833333Y-54075952D01*
X71880952Y-54028333D01*
X71976190Y-53980714D01*
X72119047Y-53980714D01*
X72214285Y-54028333D01*
X72261904Y-54075952D01*
X72309523Y-54171190D01*
X72309523Y-54456904D01*
X72261904Y-54552142D01*
X72214285Y-54599761D01*
X72119047Y-54647380D01*
X71976190Y-54647380D01*
X72738095Y-54647380D02*
X72738095Y-53980714D01*
X72738095Y-54171190D02*
X72785714Y-54075952D01*
X72833333Y-54028333D01*
X72928571Y-53980714D01*
X73023809Y-53980714D01*
X73785714Y-54647380D02*
X73785714Y-53647380D01*
X73785714Y-54599761D02*
X73690476Y-54647380D01*
X73500000Y-54647380D01*
X73404761Y-54599761D01*
X73357142Y-54552142D01*
X73309523Y-54456904D01*
X73309523Y-54171190D01*
X73357142Y-54075952D01*
X73404761Y-54028333D01*
X73500000Y-53980714D01*
X73690476Y-53980714D01*
X73785714Y-54028333D01*
X74976190Y-54599761D02*
X75071428Y-54647380D01*
X75261904Y-54647380D01*
X75357142Y-54599761D01*
X75404761Y-54504523D01*
X75404761Y-54456904D01*
X75357142Y-54361666D01*
X75261904Y-54314047D01*
X75119047Y-54314047D01*
X75023809Y-54266428D01*
X74976190Y-54171190D01*
X74976190Y-54123571D01*
X75023809Y-54028333D01*
X75119047Y-53980714D01*
X75261904Y-53980714D01*
X75357142Y-54028333D01*
X75976190Y-54647380D02*
X75880952Y-54599761D01*
X75833333Y-54552142D01*
X75785714Y-54456904D01*
X75785714Y-54171190D01*
X75833333Y-54075952D01*
X75880952Y-54028333D01*
X75976190Y-53980714D01*
X76119047Y-53980714D01*
X76214285Y-54028333D01*
X76261904Y-54075952D01*
X76309523Y-54171190D01*
X76309523Y-54456904D01*
X76261904Y-54552142D01*
X76214285Y-54599761D01*
X76119047Y-54647380D01*
X75976190Y-54647380D01*
X76738095Y-53980714D02*
X76738095Y-54647380D01*
X76738095Y-54075952D02*
X76785714Y-54028333D01*
X76880952Y-53980714D01*
X77023809Y-53980714D01*
X77119047Y-54028333D01*
X77166666Y-54123571D01*
X77166666Y-54647380D01*
X78071428Y-53980714D02*
X78071428Y-54790238D01*
X78023809Y-54885476D01*
X77976190Y-54933095D01*
X77880952Y-54980714D01*
X77738095Y-54980714D01*
X77642857Y-54933095D01*
X78071428Y-54599761D02*
X77976190Y-54647380D01*
X77785714Y-54647380D01*
X77690476Y-54599761D01*
X77642857Y-54552142D01*
X77595238Y-54456904D01*
X77595238Y-54171190D01*
X77642857Y-54075952D01*
X77690476Y-54028333D01*
X77785714Y-53980714D01*
X77976190Y-53980714D01*
X78071428Y-54028333D01*
X79738095Y-54599761D02*
X79642857Y-54647380D01*
X79452380Y-54647380D01*
X79357142Y-54599761D01*
X79309523Y-54552142D01*
X79261904Y-54456904D01*
X79261904Y-54171190D01*
X79309523Y-54075952D01*
X79357142Y-54028333D01*
X79452380Y-53980714D01*
X79642857Y-53980714D01*
X79738095Y-54028333D01*
X80595238Y-54647380D02*
X80595238Y-54123571D01*
X80547619Y-54028333D01*
X80452380Y-53980714D01*
X80261904Y-53980714D01*
X80166666Y-54028333D01*
X80595238Y-54599761D02*
X80500000Y-54647380D01*
X80261904Y-54647380D01*
X80166666Y-54599761D01*
X80119047Y-54504523D01*
X80119047Y-54409285D01*
X80166666Y-54314047D01*
X80261904Y-54266428D01*
X80500000Y-54266428D01*
X80595238Y-54218809D01*
X81071428Y-54647380D02*
X81071428Y-53980714D01*
X81071428Y-54171190D02*
X81119047Y-54075952D01*
X81166666Y-54028333D01*
X81261904Y-53980714D01*
X81357142Y-53980714D01*
X81547619Y-53980714D02*
X81928571Y-53980714D01*
X81690476Y-53647380D02*
X81690476Y-54504523D01*
X81738095Y-54599761D01*
X81833333Y-54647380D01*
X81928571Y-54647380D01*
X82261904Y-54647380D02*
X82261904Y-53980714D01*
X82261904Y-54171190D02*
X82309523Y-54075952D01*
X82357142Y-54028333D01*
X82452380Y-53980714D01*
X82547619Y-53980714D01*
X82880952Y-54647380D02*
X82880952Y-53980714D01*
X82880952Y-53647380D02*
X82833333Y-53695000D01*
X82880952Y-53742619D01*
X82928571Y-53695000D01*
X82880952Y-53647380D01*
X82880952Y-53742619D01*
X83785714Y-54647380D02*
X83785714Y-53647380D01*
X83785714Y-54599761D02*
X83690476Y-54647380D01*
X83500000Y-54647380D01*
X83404761Y-54599761D01*
X83357142Y-54552142D01*
X83309523Y-54456904D01*
X83309523Y-54171190D01*
X83357142Y-54075952D01*
X83404761Y-54028333D01*
X83500000Y-53980714D01*
X83690476Y-53980714D01*
X83785714Y-54028333D01*
X84690476Y-53980714D02*
X84690476Y-54790238D01*
X84642857Y-54885476D01*
X84595238Y-54933095D01*
X84500000Y-54980714D01*
X84357142Y-54980714D01*
X84261904Y-54933095D01*
X84690476Y-54599761D02*
X84595238Y-54647380D01*
X84404761Y-54647380D01*
X84309523Y-54599761D01*
X84261904Y-54552142D01*
X84214285Y-54456904D01*
X84214285Y-54171190D01*
X84261904Y-54075952D01*
X84309523Y-54028333D01*
X84404761Y-53980714D01*
X84595238Y-53980714D01*
X84690476Y-54028333D01*
X85547619Y-54599761D02*
X85452380Y-54647380D01*
X85261904Y-54647380D01*
X85166666Y-54599761D01*
X85119047Y-54504523D01*
X85119047Y-54123571D01*
X85166666Y-54028333D01*
X85261904Y-53980714D01*
X85452380Y-53980714D01*
X85547619Y-54028333D01*
X85595238Y-54123571D01*
X85595238Y-54218809D01*
X85119047Y-54314047D01*
X87214285Y-53980714D02*
X87214285Y-54647380D01*
X86976190Y-53599761D02*
X86738095Y-54314047D01*
X87357142Y-54314047D01*
X87738095Y-54647380D02*
X87738095Y-53647380D01*
X88071428Y-54361666D01*
X88404761Y-53647380D01*
X88404761Y-54647380D01*
X88880952Y-54647380D02*
X88880952Y-53647380D01*
X88880952Y-54028333D02*
X88976190Y-53980714D01*
X89166666Y-53980714D01*
X89261904Y-54028333D01*
X89309523Y-54075952D01*
X89357142Y-54171190D01*
X89357142Y-54456904D01*
X89309523Y-54552142D01*
X89261904Y-54599761D01*
X89166666Y-54647380D01*
X88976190Y-54647380D01*
X88880952Y-54599761D01*
X89785714Y-54647380D02*
X89785714Y-53980714D01*
X89785714Y-53647380D02*
X89738095Y-53695000D01*
X89785714Y-53742619D01*
X89833333Y-53695000D01*
X89785714Y-53647380D01*
X89785714Y-53742619D01*
X90119047Y-53980714D02*
X90500000Y-53980714D01*
X90261904Y-53647380D02*
X90261904Y-54504523D01*
X90309523Y-54599761D01*
X90404761Y-54647380D01*
X90500000Y-54647380D01*
X69166666Y-55781190D02*
X69119047Y-55733571D01*
X69023809Y-55685952D01*
X68928571Y-55685952D01*
X68833333Y-55733571D01*
X68785714Y-55781190D01*
X68738095Y-55876428D01*
X68738095Y-55971666D01*
X68785714Y-56066904D01*
X68833333Y-56114523D01*
X68928571Y-56162142D01*
X69023809Y-56162142D01*
X69119047Y-56114523D01*
X69166666Y-56066904D01*
X69166666Y-55685952D02*
X69166666Y-56066904D01*
X69214285Y-56114523D01*
X69261904Y-56114523D01*
X69357142Y-56066904D01*
X69404761Y-55971666D01*
X69404761Y-55733571D01*
X69309523Y-55590714D01*
X69166666Y-55495476D01*
X68976190Y-55447857D01*
X68785714Y-55495476D01*
X68642857Y-55590714D01*
X68547619Y-55733571D01*
X68500000Y-55924047D01*
X68547619Y-56114523D01*
X68642857Y-56257380D01*
X68785714Y-56352619D01*
X68976190Y-56400238D01*
X69166666Y-56352619D01*
X69309523Y-56257380D01*
X69833333Y-55590714D02*
X69833333Y-56590714D01*
X69833333Y-55638333D02*
X69928571Y-55590714D01*
X70119047Y-55590714D01*
X70214285Y-55638333D01*
X70261904Y-55685952D01*
X70309523Y-55781190D01*
X70309523Y-56066904D01*
X70261904Y-56162142D01*
X70214285Y-56209761D01*
X70119047Y-56257380D01*
X69928571Y-56257380D01*
X69833333Y-56209761D01*
X71166666Y-56257380D02*
X71166666Y-55733571D01*
X71119047Y-55638333D01*
X71023809Y-55590714D01*
X70833333Y-55590714D01*
X70738095Y-55638333D01*
X71166666Y-56209761D02*
X71071428Y-56257380D01*
X70833333Y-56257380D01*
X70738095Y-56209761D01*
X70690476Y-56114523D01*
X70690476Y-56019285D01*
X70738095Y-55924047D01*
X70833333Y-55876428D01*
X71071428Y-55876428D01*
X71166666Y-55828809D01*
X71642857Y-56257380D02*
X71642857Y-55590714D01*
X71642857Y-55781190D02*
X71690476Y-55685952D01*
X71738095Y-55638333D01*
X71833333Y-55590714D01*
X71928571Y-55590714D01*
X72119047Y-55590714D02*
X72500000Y-55590714D01*
X72261904Y-55257380D02*
X72261904Y-56114523D01*
X72309523Y-56209761D01*
X72404761Y-56257380D01*
X72500000Y-56257380D01*
X72976190Y-56257380D02*
X72880952Y-56209761D01*
X72833333Y-56114523D01*
X72833333Y-55257380D01*
X73261904Y-55590714D02*
X73500000Y-56257380D01*
X73738095Y-55590714D02*
X73500000Y-56257380D01*
X73404761Y-56495476D01*
X73357142Y-56543095D01*
X73261904Y-56590714D01*
X74119047Y-56257380D02*
X74119047Y-55257380D01*
X74547619Y-56257380D02*
X74547619Y-55733571D01*
X74500000Y-55638333D01*
X74404761Y-55590714D01*
X74261904Y-55590714D01*
X74166666Y-55638333D01*
X74119047Y-55685952D01*
X75452380Y-55590714D02*
X75452380Y-56257380D01*
X75023809Y-55590714D02*
X75023809Y-56114523D01*
X75071428Y-56209761D01*
X75166666Y-56257380D01*
X75309523Y-56257380D01*
X75404761Y-56209761D01*
X75452380Y-56162142D01*
X75928571Y-56257380D02*
X75928571Y-55590714D01*
X75928571Y-55685952D02*
X75976190Y-55638333D01*
X76071428Y-55590714D01*
X76214285Y-55590714D01*
X76309523Y-55638333D01*
X76357142Y-55733571D01*
X76357142Y-56257380D01*
X76357142Y-55733571D02*
X76404761Y-55638333D01*
X76500000Y-55590714D01*
X76642857Y-55590714D01*
X76738095Y-55638333D01*
X76785714Y-55733571D01*
X76785714Y-56257380D01*
X77690476Y-56257380D02*
X77690476Y-55733571D01*
X77642857Y-55638333D01*
X77547619Y-55590714D01*
X77357142Y-55590714D01*
X77261904Y-55638333D01*
X77690476Y-56209761D02*
X77595238Y-56257380D01*
X77357142Y-56257380D01*
X77261904Y-56209761D01*
X77214285Y-56114523D01*
X77214285Y-56019285D01*
X77261904Y-55924047D01*
X77357142Y-55876428D01*
X77595238Y-55876428D01*
X77690476Y-55828809D01*
X78166666Y-55590714D02*
X78166666Y-56257380D01*
X78166666Y-55685952D02*
X78214285Y-55638333D01*
X78309523Y-55590714D01*
X78452380Y-55590714D01*
X78547619Y-55638333D01*
X78595238Y-55733571D01*
X78595238Y-56257380D01*
X79785714Y-55352619D02*
X79833333Y-55305000D01*
X79928571Y-55257380D01*
X80166666Y-55257380D01*
X80261904Y-55305000D01*
X80309523Y-55352619D01*
X80357142Y-55447857D01*
X80357142Y-55543095D01*
X80309523Y-55685952D01*
X79738095Y-56257380D01*
X80357142Y-56257380D01*
X80976190Y-55257380D02*
X81071428Y-55257380D01*
X81166666Y-55305000D01*
X81214285Y-55352619D01*
X81261904Y-55447857D01*
X81309523Y-55638333D01*
X81309523Y-55876428D01*
X81261904Y-56066904D01*
X81214285Y-56162142D01*
X81166666Y-56209761D01*
X81071428Y-56257380D01*
X80976190Y-56257380D01*
X80880952Y-56209761D01*
X80833333Y-56162142D01*
X80785714Y-56066904D01*
X80738095Y-55876428D01*
X80738095Y-55638333D01*
X80785714Y-55447857D01*
X80833333Y-55352619D01*
X80880952Y-55305000D01*
X80976190Y-55257380D01*
X81690476Y-55352619D02*
X81738095Y-55305000D01*
X81833333Y-55257380D01*
X82071428Y-55257380D01*
X82166666Y-55305000D01*
X82214285Y-55352619D01*
X82261904Y-55447857D01*
X82261904Y-55543095D01*
X82214285Y-55685952D01*
X81642857Y-56257380D01*
X82261904Y-56257380D01*
X82595238Y-55257380D02*
X83214285Y-55257380D01*
X82880952Y-55638333D01*
X83023809Y-55638333D01*
X83119047Y-55685952D01*
X83166666Y-55733571D01*
X83214285Y-55828809D01*
X83214285Y-56066904D01*
X83166666Y-56162142D01*
X83119047Y-56209761D01*
X83023809Y-56257380D01*
X82738095Y-56257380D01*
X82642857Y-56209761D01*
X82595238Y-56162142D01*
X83642857Y-55876428D02*
X84404761Y-55876428D01*
X85071428Y-55257380D02*
X85166666Y-55257380D01*
X85261904Y-55305000D01*
X85309523Y-55352619D01*
X85357142Y-55447857D01*
X85404761Y-55638333D01*
X85404761Y-55876428D01*
X85357142Y-56066904D01*
X85309523Y-56162142D01*
X85261904Y-56209761D01*
X85166666Y-56257380D01*
X85071428Y-56257380D01*
X84976190Y-56209761D01*
X84928571Y-56162142D01*
X84880952Y-56066904D01*
X84833333Y-55876428D01*
X84833333Y-55638333D01*
X84880952Y-55447857D01*
X84928571Y-55352619D01*
X84976190Y-55305000D01*
X85071428Y-55257380D01*
X86357142Y-56257380D02*
X85785714Y-56257380D01*
X86071428Y-56257380D02*
X86071428Y-55257380D01*
X85976190Y-55400238D01*
X85880952Y-55495476D01*
X85785714Y-55543095D01*
X86785714Y-55876428D02*
X87547619Y-55876428D01*
X88547619Y-56257380D02*
X87976190Y-56257380D01*
X88261904Y-56257380D02*
X88261904Y-55257380D01*
X88166666Y-55400238D01*
X88071428Y-55495476D01*
X87976190Y-55543095D01*
X89404761Y-55257380D02*
X89214285Y-55257380D01*
X89119047Y-55305000D01*
X89071428Y-55352619D01*
X88976190Y-55495476D01*
X88928571Y-55685952D01*
X88928571Y-56066904D01*
X88976190Y-56162142D01*
X89023809Y-56209761D01*
X89119047Y-56257380D01*
X89309523Y-56257380D01*
X89404761Y-56209761D01*
X89452380Y-56162142D01*
X89500000Y-56066904D01*
X89500000Y-55828809D01*
X89452380Y-55733571D01*
X89404761Y-55685952D01*
X89309523Y-55638333D01*
X89119047Y-55638333D01*
X89023809Y-55685952D01*
X88976190Y-55733571D01*
X88928571Y-55828809D01*
%TO.C,JP1*%
X55752380Y-68233333D02*
X56466666Y-68233333D01*
X56609523Y-68280952D01*
X56704761Y-68376190D01*
X56752380Y-68519047D01*
X56752380Y-68614285D01*
X56752380Y-67757142D02*
X55752380Y-67757142D01*
X55752380Y-67376190D01*
X55800000Y-67280952D01*
X55847619Y-67233333D01*
X55942857Y-67185714D01*
X56085714Y-67185714D01*
X56180952Y-67233333D01*
X56228571Y-67280952D01*
X56276190Y-67376190D01*
X56276190Y-67757142D01*
X56752380Y-66233333D02*
X56752380Y-66804761D01*
X56752380Y-66519047D02*
X55752380Y-66519047D01*
X55895238Y-66614285D01*
X55990476Y-66709523D01*
X56038095Y-66804761D01*
%TO.C,REF\u002A\u002A*%
X53166666Y-48052380D02*
X52833333Y-47576190D01*
X52595238Y-48052380D02*
X52595238Y-47052380D01*
X52976190Y-47052380D01*
X53071428Y-47100000D01*
X53119047Y-47147619D01*
X53166666Y-47242857D01*
X53166666Y-47385714D01*
X53119047Y-47480952D01*
X53071428Y-47528571D01*
X52976190Y-47576190D01*
X52595238Y-47576190D01*
X53595238Y-47528571D02*
X53928571Y-47528571D01*
X54071428Y-48052380D02*
X53595238Y-48052380D01*
X53595238Y-47052380D01*
X54071428Y-47052380D01*
X54833333Y-47528571D02*
X54500000Y-47528571D01*
X54500000Y-48052380D02*
X54500000Y-47052380D01*
X54976190Y-47052380D01*
X55500000Y-47052380D02*
X55500000Y-47290476D01*
X55261904Y-47195238D02*
X55500000Y-47290476D01*
X55738095Y-47195238D01*
X55357142Y-47480952D02*
X55500000Y-47290476D01*
X55642857Y-47480952D01*
X56261904Y-47052380D02*
X56261904Y-47290476D01*
X56023809Y-47195238D02*
X56261904Y-47290476D01*
X56500000Y-47195238D01*
X56119047Y-47480952D02*
X56261904Y-47290476D01*
X56404761Y-47480952D01*
%TO.C,U1*%
X78288320Y-62952380D02*
X78288320Y-63761904D01*
X78335939Y-63857142D01*
X78383558Y-63904761D01*
X78478796Y-63952380D01*
X78669272Y-63952380D01*
X78764510Y-63904761D01*
X78812129Y-63857142D01*
X78859748Y-63761904D01*
X78859748Y-62952380D01*
X79859748Y-63952380D02*
X79288320Y-63952380D01*
X79574034Y-63952380D02*
X79574034Y-62952380D01*
X79478796Y-63095238D01*
X79383558Y-63190476D01*
X79288320Y-63238095D01*
X74621653Y-75154761D02*
X74764510Y-75202380D01*
X75002605Y-75202380D01*
X75097844Y-75154761D01*
X75145463Y-75107142D01*
X75193082Y-75011904D01*
X75193082Y-74916666D01*
X75145463Y-74821428D01*
X75097844Y-74773809D01*
X75002605Y-74726190D01*
X74812129Y-74678571D01*
X74716891Y-74630952D01*
X74669272Y-74583333D01*
X74621653Y-74488095D01*
X74621653Y-74392857D01*
X74669272Y-74297619D01*
X74716891Y-74250000D01*
X74812129Y-74202380D01*
X75050225Y-74202380D01*
X75193082Y-74250000D01*
X75574034Y-75154761D02*
X75716891Y-75202380D01*
X75954986Y-75202380D01*
X76050225Y-75154761D01*
X76097844Y-75107142D01*
X76145463Y-75011904D01*
X76145463Y-74916666D01*
X76097844Y-74821428D01*
X76050225Y-74773809D01*
X75954986Y-74726190D01*
X75764510Y-74678571D01*
X75669272Y-74630952D01*
X75621653Y-74583333D01*
X75574034Y-74488095D01*
X75574034Y-74392857D01*
X75621653Y-74297619D01*
X75669272Y-74250000D01*
X75764510Y-74202380D01*
X76002605Y-74202380D01*
X76145463Y-74250000D01*
X76431177Y-74202380D02*
X77002605Y-74202380D01*
X76716891Y-75202380D02*
X76716891Y-74202380D01*
X77240701Y-74202380D02*
X77859748Y-74202380D01*
X77526415Y-74583333D01*
X77669272Y-74583333D01*
X77764510Y-74630952D01*
X77812129Y-74678571D01*
X77859748Y-74773809D01*
X77859748Y-75011904D01*
X77812129Y-75107142D01*
X77764510Y-75154761D01*
X77669272Y-75202380D01*
X77383558Y-75202380D01*
X77288320Y-75154761D01*
X77240701Y-75107142D01*
X78335939Y-75202380D02*
X78526415Y-75202380D01*
X78621653Y-75154761D01*
X78669272Y-75107142D01*
X78764510Y-74964285D01*
X78812129Y-74773809D01*
X78812129Y-74392857D01*
X78764510Y-74297619D01*
X78716891Y-74250000D01*
X78621653Y-74202380D01*
X78431177Y-74202380D01*
X78335939Y-74250000D01*
X78288320Y-74297619D01*
X78240701Y-74392857D01*
X78240701Y-74630952D01*
X78288320Y-74726190D01*
X78335939Y-74773809D01*
X78431177Y-74821428D01*
X78621653Y-74821428D01*
X78716891Y-74773809D01*
X78764510Y-74726190D01*
X78812129Y-74630952D01*
X79193082Y-75154761D02*
X79335939Y-75202380D01*
X79574034Y-75202380D01*
X79669272Y-75154761D01*
X79716891Y-75107142D01*
X79764510Y-75011904D01*
X79764510Y-74916666D01*
X79716891Y-74821428D01*
X79669272Y-74773809D01*
X79574034Y-74726190D01*
X79383558Y-74678571D01*
X79288320Y-74630952D01*
X79240701Y-74583333D01*
X79193082Y-74488095D01*
X79193082Y-74392857D01*
X79240701Y-74297619D01*
X79288320Y-74250000D01*
X79383558Y-74202380D01*
X79621653Y-74202380D01*
X79764510Y-74250000D01*
X80526415Y-74678571D02*
X80193082Y-74678571D01*
X80193082Y-75202380D02*
X80193082Y-74202380D01*
X80669272Y-74202380D01*
X81240701Y-74202380D02*
X81335939Y-74202380D01*
X81431177Y-74250000D01*
X81478796Y-74297619D01*
X81526415Y-74392857D01*
X81574034Y-74583333D01*
X81574034Y-74821428D01*
X81526415Y-75011904D01*
X81478796Y-75107142D01*
X81431177Y-75154761D01*
X81335939Y-75202380D01*
X81240701Y-75202380D01*
X81145463Y-75154761D01*
X81097844Y-75107142D01*
X81050225Y-75011904D01*
X81002605Y-74821428D01*
X81002605Y-74583333D01*
X81050225Y-74392857D01*
X81097844Y-74297619D01*
X81145463Y-74250000D01*
X81240701Y-74202380D01*
X82431177Y-74535714D02*
X82431177Y-75202380D01*
X82193082Y-74154761D02*
X81954986Y-74869047D01*
X82574034Y-74869047D01*
X83145463Y-74202380D02*
X83240701Y-74202380D01*
X83335939Y-74250000D01*
X83383558Y-74297619D01*
X83431177Y-74392857D01*
X83478796Y-74583333D01*
X83478796Y-74821428D01*
X83431177Y-75011904D01*
X83383558Y-75107142D01*
X83335939Y-75154761D01*
X83240701Y-75202380D01*
X83145463Y-75202380D01*
X83050225Y-75154761D01*
X83002605Y-75107142D01*
X82954986Y-75011904D01*
X82907367Y-74821428D01*
X82907367Y-74583333D01*
X82954986Y-74392857D01*
X83002605Y-74297619D01*
X83050225Y-74250000D01*
X83145463Y-74202380D01*
X73700000Y-65352380D02*
X73700000Y-65590476D01*
X73461904Y-65495238D02*
X73700000Y-65590476D01*
X73938095Y-65495238D01*
X73557142Y-65780952D02*
X73700000Y-65590476D01*
X73842857Y-65780952D01*
%TO.C,REF\u002A\u002A*%
X99166666Y-48052380D02*
X98833333Y-47576190D01*
X98595238Y-48052380D02*
X98595238Y-47052380D01*
X98976190Y-47052380D01*
X99071428Y-47100000D01*
X99119047Y-47147619D01*
X99166666Y-47242857D01*
X99166666Y-47385714D01*
X99119047Y-47480952D01*
X99071428Y-47528571D01*
X98976190Y-47576190D01*
X98595238Y-47576190D01*
X99595238Y-47528571D02*
X99928571Y-47528571D01*
X100071428Y-48052380D02*
X99595238Y-48052380D01*
X99595238Y-47052380D01*
X100071428Y-47052380D01*
X100833333Y-47528571D02*
X100500000Y-47528571D01*
X100500000Y-48052380D02*
X100500000Y-47052380D01*
X100976190Y-47052380D01*
X101500000Y-47052380D02*
X101500000Y-47290476D01*
X101261904Y-47195238D02*
X101500000Y-47290476D01*
X101738095Y-47195238D01*
X101357142Y-47480952D02*
X101500000Y-47290476D01*
X101642857Y-47480952D01*
X102261904Y-47052380D02*
X102261904Y-47290476D01*
X102023809Y-47195238D02*
X102261904Y-47290476D01*
X102500000Y-47195238D01*
X102119047Y-47480952D02*
X102261904Y-47290476D01*
X102404761Y-47480952D01*
%TO.C,C1*%
X60337142Y-77404166D02*
X60384761Y-77451785D01*
X60432380Y-77594642D01*
X60432380Y-77689880D01*
X60384761Y-77832738D01*
X60289523Y-77927976D01*
X60194285Y-77975595D01*
X60003809Y-78023214D01*
X59860952Y-78023214D01*
X59670476Y-77975595D01*
X59575238Y-77927976D01*
X59480000Y-77832738D01*
X59432380Y-77689880D01*
X59432380Y-77594642D01*
X59480000Y-77451785D01*
X59527619Y-77404166D01*
X60432380Y-76451785D02*
X60432380Y-77023214D01*
X60432380Y-76737500D02*
X59432380Y-76737500D01*
X59575238Y-76832738D01*
X59670476Y-76927976D01*
X59718095Y-77023214D01*
X56072380Y-78880357D02*
X56072380Y-78785119D01*
X56120000Y-78689880D01*
X56167619Y-78642261D01*
X56262857Y-78594642D01*
X56453333Y-78547023D01*
X56691428Y-78547023D01*
X56881904Y-78594642D01*
X56977142Y-78642261D01*
X57024761Y-78689880D01*
X57072380Y-78785119D01*
X57072380Y-78880357D01*
X57024761Y-78975595D01*
X56977142Y-79023214D01*
X56881904Y-79070833D01*
X56691428Y-79118452D01*
X56453333Y-79118452D01*
X56262857Y-79070833D01*
X56167619Y-79023214D01*
X56120000Y-78975595D01*
X56072380Y-78880357D01*
X56977142Y-78118452D02*
X57024761Y-78070833D01*
X57072380Y-78118452D01*
X57024761Y-78166071D01*
X56977142Y-78118452D01*
X57072380Y-78118452D01*
X57072380Y-77118452D02*
X57072380Y-77689880D01*
X57072380Y-77404166D02*
X56072380Y-77404166D01*
X56215238Y-77499404D01*
X56310476Y-77594642D01*
X56358095Y-77689880D01*
X56405714Y-76261309D02*
X57072380Y-76261309D01*
X56405714Y-76689880D02*
X56929523Y-76689880D01*
X57024761Y-76642261D01*
X57072380Y-76547023D01*
X57072380Y-76404166D01*
X57024761Y-76308928D01*
X56977142Y-76261309D01*
X56548571Y-75451785D02*
X56548571Y-75785119D01*
X57072380Y-75785119D02*
X56072380Y-75785119D01*
X56072380Y-75308928D01*
D12*
%TO.C,JP1*%
X59100000Y-69450000D02*
X57100000Y-69450000D01*
X59300000Y-68700000D02*
X59600000Y-69000000D01*
X57100000Y-69450000D02*
X57100000Y-65350000D01*
X59100000Y-65350000D02*
X59100000Y-69450000D01*
X59300000Y-68700000D02*
X59600000Y-68400000D01*
X59600000Y-69000000D02*
X59600000Y-68400000D01*
X57100000Y-65350000D02*
X59100000Y-65350000D01*
%TO.C,U1*%
X72967434Y-73130800D02*
X85133016Y-73130800D01*
X85133016Y-64774200D02*
X72967434Y-64774200D01*
G36*
X87007524Y-71393001D02*
G01*
X86753524Y-71393001D01*
X86753524Y-71012001D01*
X87007524Y-71012001D01*
X87007524Y-71393001D01*
G37*
D10*
X87007524Y-71393001D02*
X86753524Y-71393001D01*
X86753524Y-71012001D01*
X87007524Y-71012001D01*
X87007524Y-71393001D01*
G36*
X71346926Y-69893001D02*
G01*
X71092926Y-69893001D01*
X71092926Y-69512001D01*
X71346926Y-69512001D01*
X71346926Y-69893001D01*
G37*
X71346926Y-69893001D02*
X71092926Y-69893001D01*
X71092926Y-69512001D01*
X71346926Y-69512001D01*
X71346926Y-69893001D01*
G36*
X87007524Y-66393000D02*
G01*
X86753524Y-66393000D01*
X86753524Y-66012000D01*
X87007524Y-66012000D01*
X87007524Y-66393000D01*
G37*
X87007524Y-66393000D02*
X86753524Y-66393000D01*
X86753524Y-66012000D01*
X87007524Y-66012000D01*
X87007524Y-66393000D01*
D12*
%TO.C,C1*%
X57565000Y-76976248D02*
X57565000Y-77498752D01*
X59035000Y-76976248D02*
X59035000Y-77498752D01*
%TD*%
M02*
