%TF.GenerationSoftware,KiCad,Pcbnew,(6.0.7-1)-1*%
%TF.CreationDate,2023-01-24T10:24:56-08:00*%
%TF.ProjectId,QCard,51436172-642e-46b6-9963-61645f706362,1903842*%
%TF.SameCoordinates,Original*%
%TF.FileFunction,Legend,Top*%
%TF.FilePolarity,Positive*%
%FSLAX46Y46*%
G04 Gerber Fmt 4.6, Leading zero omitted, Abs format (unit mm)*
G04 Created by KiCad (PCBNEW (6.0.7-1)-1) date 2023-01-24 10:24:56*
%MOMM*%
%LPD*%
G01*
G04 APERTURE LIST*
%ADD10C,0.100000*%
%ADD11C,0.150000*%
%ADD12C,0.120000*%
G04 APERTURE END LIST*
D10*
X64136428Y-67226190D02*
X64255476Y-67726190D01*
X64350714Y-67369047D01*
X64445952Y-67726190D01*
X64565000Y-67226190D01*
X64755476Y-67464285D02*
X64922142Y-67464285D01*
X64993571Y-67726190D02*
X64755476Y-67726190D01*
X64755476Y-67226190D01*
X64993571Y-67226190D01*
X65184047Y-67392857D02*
X65541190Y-67392857D01*
X65326904Y-67178571D02*
X65184047Y-67821428D01*
X65493571Y-67607142D02*
X65136428Y-67607142D01*
X65350714Y-67821428D02*
X65493571Y-67178571D01*
X98904761Y-83226190D02*
X98619047Y-83226190D01*
X98761904Y-83226190D02*
X98761904Y-82726190D01*
X98714285Y-82797619D01*
X98666666Y-82845238D01*
X98619047Y-82869047D01*
X99190476Y-82940476D02*
X99142857Y-82916666D01*
X99119047Y-82892857D01*
X99095238Y-82845238D01*
X99095238Y-82821428D01*
X99119047Y-82773809D01*
X99142857Y-82750000D01*
X99190476Y-82726190D01*
X99285714Y-82726190D01*
X99333333Y-82750000D01*
X99357142Y-82773809D01*
X99380952Y-82821428D01*
X99380952Y-82845238D01*
X99357142Y-82892857D01*
X99333333Y-82916666D01*
X99285714Y-82940476D01*
X99190476Y-82940476D01*
X99142857Y-82964285D01*
X99119047Y-82988095D01*
X99095238Y-83035714D01*
X99095238Y-83130952D01*
X99119047Y-83178571D01*
X99142857Y-83202380D01*
X99190476Y-83226190D01*
X99285714Y-83226190D01*
X99333333Y-83202380D01*
X99357142Y-83178571D01*
X99380952Y-83130952D01*
X99380952Y-83035714D01*
X99357142Y-82988095D01*
X99333333Y-82964285D01*
X99285714Y-82940476D01*
X56142857Y-83226190D02*
X55857142Y-83226190D01*
X56000000Y-83226190D02*
X56000000Y-82726190D01*
X55952380Y-82797619D01*
X55904761Y-82845238D01*
X55857142Y-82869047D01*
X60726190Y-70426190D02*
X60559523Y-70188095D01*
X60440476Y-70426190D02*
X60440476Y-69926190D01*
X60630952Y-69926190D01*
X60678571Y-69950000D01*
X60702380Y-69973809D01*
X60726190Y-70021428D01*
X60726190Y-70092857D01*
X60702380Y-70140476D01*
X60678571Y-70164285D01*
X60630952Y-70188095D01*
X60440476Y-70188095D01*
X60940476Y-70164285D02*
X61107142Y-70164285D01*
X61178571Y-70426190D02*
X60940476Y-70426190D01*
X60940476Y-69926190D01*
X61178571Y-69926190D01*
X61369047Y-70283333D02*
X61607142Y-70283333D01*
X61321428Y-70426190D02*
X61488095Y-69926190D01*
X61654761Y-70426190D01*
X61821428Y-70426190D02*
X61821428Y-69926190D01*
X61940476Y-69926190D01*
X62011904Y-69950000D01*
X62059523Y-69997619D01*
X62083333Y-70045238D01*
X62107142Y-70140476D01*
X62107142Y-70211904D01*
X62083333Y-70307142D01*
X62059523Y-70354761D01*
X62011904Y-70402380D01*
X61940476Y-70426190D01*
X61821428Y-70426190D01*
X63059523Y-69902380D02*
X62630952Y-70545238D01*
X63535714Y-69926190D02*
X63702380Y-70426190D01*
X63869047Y-69926190D01*
X64035714Y-70426190D02*
X64035714Y-69926190D01*
X64273809Y-70426190D02*
X64273809Y-69926190D01*
X64273809Y-70164285D02*
X64559523Y-70164285D01*
X64559523Y-70426190D02*
X64559523Y-69926190D01*
X58916666Y-64976190D02*
X58916666Y-64476190D01*
X59107142Y-64476190D01*
X59154761Y-64500000D01*
X59178571Y-64523809D01*
X59202380Y-64571428D01*
X59202380Y-64642857D01*
X59178571Y-64690476D01*
X59154761Y-64714285D01*
X59107142Y-64738095D01*
X58916666Y-64738095D01*
X59702380Y-64976190D02*
X59535714Y-64738095D01*
X59416666Y-64976190D02*
X59416666Y-64476190D01*
X59607142Y-64476190D01*
X59654761Y-64500000D01*
X59678571Y-64523809D01*
X59702380Y-64571428D01*
X59702380Y-64642857D01*
X59678571Y-64690476D01*
X59654761Y-64714285D01*
X59607142Y-64738095D01*
X59416666Y-64738095D01*
X60011904Y-64476190D02*
X60107142Y-64476190D01*
X60154761Y-64500000D01*
X60202380Y-64547619D01*
X60226190Y-64642857D01*
X60226190Y-64809523D01*
X60202380Y-64904761D01*
X60154761Y-64952380D01*
X60107142Y-64976190D01*
X60011904Y-64976190D01*
X59964285Y-64952380D01*
X59916666Y-64904761D01*
X59892857Y-64809523D01*
X59892857Y-64642857D01*
X59916666Y-64547619D01*
X59964285Y-64500000D01*
X60011904Y-64476190D01*
X60702380Y-64500000D02*
X60654761Y-64476190D01*
X60583333Y-64476190D01*
X60511904Y-64500000D01*
X60464285Y-64547619D01*
X60440476Y-64595238D01*
X60416666Y-64690476D01*
X60416666Y-64761904D01*
X60440476Y-64857142D01*
X60464285Y-64904761D01*
X60511904Y-64952380D01*
X60583333Y-64976190D01*
X60630952Y-64976190D01*
X60702380Y-64952380D01*
X60726190Y-64928571D01*
X60726190Y-64761904D01*
X60630952Y-64761904D01*
X61226190Y-64976190D02*
X61059523Y-64738095D01*
X60940476Y-64976190D02*
X60940476Y-64476190D01*
X61130952Y-64476190D01*
X61178571Y-64500000D01*
X61202380Y-64523809D01*
X61226190Y-64571428D01*
X61226190Y-64642857D01*
X61202380Y-64690476D01*
X61178571Y-64714285D01*
X61130952Y-64738095D01*
X60940476Y-64738095D01*
X61416666Y-64833333D02*
X61654761Y-64833333D01*
X61369047Y-64976190D02*
X61535714Y-64476190D01*
X61702380Y-64976190D01*
X61869047Y-64976190D02*
X61869047Y-64476190D01*
X62035714Y-64833333D01*
X62202380Y-64476190D01*
X62202380Y-64976190D01*
X63178571Y-64452380D02*
X62750000Y-65095238D01*
X63726190Y-64976190D02*
X63726190Y-64476190D01*
X63916666Y-64476190D01*
X63964285Y-64500000D01*
X63988095Y-64523809D01*
X64011904Y-64571428D01*
X64011904Y-64642857D01*
X63988095Y-64690476D01*
X63964285Y-64714285D01*
X63916666Y-64738095D01*
X63726190Y-64738095D01*
X64226190Y-64976190D02*
X64226190Y-64476190D01*
X64464285Y-64976190D02*
X64464285Y-64476190D01*
X64750000Y-64976190D01*
X64750000Y-64476190D01*
X65630952Y-64976190D02*
X65345238Y-64976190D01*
X65488095Y-64976190D02*
X65488095Y-64476190D01*
X65440476Y-64547619D01*
X65392857Y-64595238D01*
X65345238Y-64619047D01*
X65916666Y-64690476D02*
X65869047Y-64666666D01*
X65845238Y-64642857D01*
X65821428Y-64595238D01*
X65821428Y-64571428D01*
X65845238Y-64523809D01*
X65869047Y-64500000D01*
X65916666Y-64476190D01*
X66011904Y-64476190D01*
X66059523Y-64500000D01*
X66083333Y-64523809D01*
X66107142Y-64571428D01*
X66107142Y-64595238D01*
X66083333Y-64642857D01*
X66059523Y-64666666D01*
X66011904Y-64690476D01*
X65916666Y-64690476D01*
X65869047Y-64714285D01*
X65845238Y-64738095D01*
X65821428Y-64785714D01*
X65821428Y-64880952D01*
X65845238Y-64928571D01*
X65869047Y-64952380D01*
X65916666Y-64976190D01*
X66011904Y-64976190D01*
X66059523Y-64952380D01*
X66083333Y-64928571D01*
X66107142Y-64880952D01*
X66107142Y-64785714D01*
X66083333Y-64738095D01*
X66059523Y-64714285D01*
X66011904Y-64690476D01*
D11*
X64136904Y-79178273D02*
X64017857Y-79118750D01*
X63898809Y-78999702D01*
X63720238Y-78821130D01*
X63601190Y-78761607D01*
X63482142Y-78761607D01*
X63541666Y-79059226D02*
X63422619Y-78999702D01*
X63303571Y-78880654D01*
X63244047Y-78642559D01*
X63244047Y-78225892D01*
X63303571Y-77987797D01*
X63422619Y-77868750D01*
X63541666Y-77809226D01*
X63779761Y-77809226D01*
X63898809Y-77868750D01*
X64017857Y-77987797D01*
X64077380Y-78225892D01*
X64077380Y-78642559D01*
X64017857Y-78880654D01*
X63898809Y-78999702D01*
X63779761Y-79059226D01*
X63541666Y-79059226D01*
X64613095Y-78583035D02*
X65565476Y-78583035D01*
X66875000Y-78940178D02*
X66815476Y-78999702D01*
X66636904Y-79059226D01*
X66517857Y-79059226D01*
X66339285Y-78999702D01*
X66220238Y-78880654D01*
X66160714Y-78761607D01*
X66101190Y-78523511D01*
X66101190Y-78344940D01*
X66160714Y-78106845D01*
X66220238Y-77987797D01*
X66339285Y-77868750D01*
X66517857Y-77809226D01*
X66636904Y-77809226D01*
X66815476Y-77868750D01*
X66875000Y-77928273D01*
X67410714Y-79059226D02*
X67410714Y-77809226D01*
X67946428Y-79059226D02*
X67946428Y-78404464D01*
X67886904Y-78285416D01*
X67767857Y-78225892D01*
X67589285Y-78225892D01*
X67470238Y-78285416D01*
X67410714Y-78344940D01*
X68720238Y-79059226D02*
X68601190Y-78999702D01*
X68541666Y-78940178D01*
X68482142Y-78821130D01*
X68482142Y-78463988D01*
X68541666Y-78344940D01*
X68601190Y-78285416D01*
X68720238Y-78225892D01*
X68898809Y-78225892D01*
X69017857Y-78285416D01*
X69077380Y-78344940D01*
X69136904Y-78463988D01*
X69136904Y-78821130D01*
X69077380Y-78940178D01*
X69017857Y-78999702D01*
X68898809Y-79059226D01*
X68720238Y-79059226D01*
X69672619Y-79059226D02*
X69672619Y-78225892D01*
X69672619Y-78463988D02*
X69732142Y-78344940D01*
X69791666Y-78285416D01*
X69910714Y-78225892D01*
X70029761Y-78225892D01*
X70982142Y-79059226D02*
X70982142Y-77809226D01*
X70982142Y-78999702D02*
X70863095Y-79059226D01*
X70625000Y-79059226D01*
X70505952Y-78999702D01*
X70446428Y-78940178D01*
X70386904Y-78821130D01*
X70386904Y-78463988D01*
X70446428Y-78344940D01*
X70505952Y-78285416D01*
X70625000Y-78225892D01*
X70863095Y-78225892D01*
X70982142Y-78285416D01*
X72470238Y-78999702D02*
X72589285Y-79059226D01*
X72827380Y-79059226D01*
X72946428Y-78999702D01*
X73005952Y-78880654D01*
X73005952Y-78821130D01*
X72946428Y-78702083D01*
X72827380Y-78642559D01*
X72648809Y-78642559D01*
X72529761Y-78583035D01*
X72470238Y-78463988D01*
X72470238Y-78404464D01*
X72529761Y-78285416D01*
X72648809Y-78225892D01*
X72827380Y-78225892D01*
X72946428Y-78285416D01*
X73720238Y-79059226D02*
X73601190Y-78999702D01*
X73541666Y-78940178D01*
X73482142Y-78821130D01*
X73482142Y-78463988D01*
X73541666Y-78344940D01*
X73601190Y-78285416D01*
X73720238Y-78225892D01*
X73898809Y-78225892D01*
X74017857Y-78285416D01*
X74077380Y-78344940D01*
X74136904Y-78463988D01*
X74136904Y-78821130D01*
X74077380Y-78940178D01*
X74017857Y-78999702D01*
X73898809Y-79059226D01*
X73720238Y-79059226D01*
X74672619Y-78225892D02*
X74672619Y-79059226D01*
X74672619Y-78344940D02*
X74732142Y-78285416D01*
X74851190Y-78225892D01*
X75029761Y-78225892D01*
X75148809Y-78285416D01*
X75208333Y-78404464D01*
X75208333Y-79059226D01*
X76339285Y-78225892D02*
X76339285Y-79237797D01*
X76279761Y-79356845D01*
X76220238Y-79416369D01*
X76101190Y-79475892D01*
X75922619Y-79475892D01*
X75803571Y-79416369D01*
X76339285Y-78999702D02*
X76220238Y-79059226D01*
X75982142Y-79059226D01*
X75863095Y-78999702D01*
X75803571Y-78940178D01*
X75744047Y-78821130D01*
X75744047Y-78463988D01*
X75803571Y-78344940D01*
X75863095Y-78285416D01*
X75982142Y-78225892D01*
X76220238Y-78225892D01*
X76339285Y-78285416D01*
X78422619Y-78999702D02*
X78303571Y-79059226D01*
X78065476Y-79059226D01*
X77946428Y-78999702D01*
X77886904Y-78940178D01*
X77827380Y-78821130D01*
X77827380Y-78463988D01*
X77886904Y-78344940D01*
X77946428Y-78285416D01*
X78065476Y-78225892D01*
X78303571Y-78225892D01*
X78422619Y-78285416D01*
X79494047Y-79059226D02*
X79494047Y-78404464D01*
X79434523Y-78285416D01*
X79315476Y-78225892D01*
X79077380Y-78225892D01*
X78958333Y-78285416D01*
X79494047Y-78999702D02*
X79375000Y-79059226D01*
X79077380Y-79059226D01*
X78958333Y-78999702D01*
X78898809Y-78880654D01*
X78898809Y-78761607D01*
X78958333Y-78642559D01*
X79077380Y-78583035D01*
X79375000Y-78583035D01*
X79494047Y-78523511D01*
X80089285Y-79059226D02*
X80089285Y-78225892D01*
X80089285Y-78463988D02*
X80148809Y-78344940D01*
X80208333Y-78285416D01*
X80327380Y-78225892D01*
X80446428Y-78225892D01*
X80684523Y-78225892D02*
X81160714Y-78225892D01*
X80863095Y-77809226D02*
X80863095Y-78880654D01*
X80922619Y-78999702D01*
X81041666Y-79059226D01*
X81160714Y-79059226D01*
X81577380Y-79059226D02*
X81577380Y-78225892D01*
X81577380Y-78463988D02*
X81636904Y-78344940D01*
X81696428Y-78285416D01*
X81815476Y-78225892D01*
X81934523Y-78225892D01*
X82351190Y-79059226D02*
X82351190Y-78225892D01*
X82351190Y-77809226D02*
X82291666Y-77868750D01*
X82351190Y-77928273D01*
X82410714Y-77868750D01*
X82351190Y-77809226D01*
X82351190Y-77928273D01*
X83482142Y-79059226D02*
X83482142Y-77809226D01*
X83482142Y-78999702D02*
X83363095Y-79059226D01*
X83125000Y-79059226D01*
X83005952Y-78999702D01*
X82946428Y-78940178D01*
X82886904Y-78821130D01*
X82886904Y-78463988D01*
X82946428Y-78344940D01*
X83005952Y-78285416D01*
X83125000Y-78225892D01*
X83363095Y-78225892D01*
X83482142Y-78285416D01*
X84613095Y-78225892D02*
X84613095Y-79237797D01*
X84553571Y-79356845D01*
X84494047Y-79416369D01*
X84375000Y-79475892D01*
X84196428Y-79475892D01*
X84077380Y-79416369D01*
X84613095Y-78999702D02*
X84494047Y-79059226D01*
X84255952Y-79059226D01*
X84136904Y-78999702D01*
X84077380Y-78940178D01*
X84017857Y-78821130D01*
X84017857Y-78463988D01*
X84077380Y-78344940D01*
X84136904Y-78285416D01*
X84255952Y-78225892D01*
X84494047Y-78225892D01*
X84613095Y-78285416D01*
X85684523Y-78999702D02*
X85565476Y-79059226D01*
X85327380Y-79059226D01*
X85208333Y-78999702D01*
X85148809Y-78880654D01*
X85148809Y-78404464D01*
X85208333Y-78285416D01*
X85327380Y-78225892D01*
X85565476Y-78225892D01*
X85684523Y-78285416D01*
X85744047Y-78404464D01*
X85744047Y-78523511D01*
X85148809Y-78642559D01*
X87767857Y-78225892D02*
X87767857Y-79059226D01*
X87470238Y-77749702D02*
X87172619Y-78642559D01*
X87946428Y-78642559D01*
X88422619Y-79059226D02*
X88422619Y-77809226D01*
X88839285Y-78702083D01*
X89255952Y-77809226D01*
X89255952Y-79059226D01*
X89851190Y-79059226D02*
X89851190Y-77809226D01*
X89851190Y-78285416D02*
X89970238Y-78225892D01*
X90208333Y-78225892D01*
X90327380Y-78285416D01*
X90386904Y-78344940D01*
X90446428Y-78463988D01*
X90446428Y-78821130D01*
X90386904Y-78940178D01*
X90327380Y-78999702D01*
X90208333Y-79059226D01*
X89970238Y-79059226D01*
X89851190Y-78999702D01*
X90982142Y-79059226D02*
X90982142Y-78225892D01*
X90982142Y-77809226D02*
X90922619Y-77868750D01*
X90982142Y-77928273D01*
X91041666Y-77868750D01*
X90982142Y-77809226D01*
X90982142Y-77928273D01*
X91398809Y-78225892D02*
X91875000Y-78225892D01*
X91577380Y-77809226D02*
X91577380Y-78880654D01*
X91636904Y-78999702D01*
X91755952Y-79059226D01*
X91875000Y-79059226D01*
X65208333Y-80476488D02*
X65148809Y-80416964D01*
X65029761Y-80357440D01*
X64910714Y-80357440D01*
X64791666Y-80416964D01*
X64732142Y-80476488D01*
X64672619Y-80595535D01*
X64672619Y-80714583D01*
X64732142Y-80833630D01*
X64791666Y-80893154D01*
X64910714Y-80952678D01*
X65029761Y-80952678D01*
X65148809Y-80893154D01*
X65208333Y-80833630D01*
X65208333Y-80357440D02*
X65208333Y-80833630D01*
X65267857Y-80893154D01*
X65327380Y-80893154D01*
X65446428Y-80833630D01*
X65505952Y-80714583D01*
X65505952Y-80416964D01*
X65386904Y-80238392D01*
X65208333Y-80119345D01*
X64970238Y-80059821D01*
X64732142Y-80119345D01*
X64553571Y-80238392D01*
X64434523Y-80416964D01*
X64375000Y-80655059D01*
X64434523Y-80893154D01*
X64553571Y-81071726D01*
X64732142Y-81190773D01*
X64970238Y-81250297D01*
X65208333Y-81190773D01*
X65386904Y-81071726D01*
X66041666Y-80238392D02*
X66041666Y-81488392D01*
X66041666Y-80297916D02*
X66160714Y-80238392D01*
X66398809Y-80238392D01*
X66517857Y-80297916D01*
X66577380Y-80357440D01*
X66636904Y-80476488D01*
X66636904Y-80833630D01*
X66577380Y-80952678D01*
X66517857Y-81012202D01*
X66398809Y-81071726D01*
X66160714Y-81071726D01*
X66041666Y-81012202D01*
X67708333Y-81071726D02*
X67708333Y-80416964D01*
X67648809Y-80297916D01*
X67529761Y-80238392D01*
X67291666Y-80238392D01*
X67172619Y-80297916D01*
X67708333Y-81012202D02*
X67589285Y-81071726D01*
X67291666Y-81071726D01*
X67172619Y-81012202D01*
X67113095Y-80893154D01*
X67113095Y-80774107D01*
X67172619Y-80655059D01*
X67291666Y-80595535D01*
X67589285Y-80595535D01*
X67708333Y-80536011D01*
X68303571Y-81071726D02*
X68303571Y-80238392D01*
X68303571Y-80476488D02*
X68363095Y-80357440D01*
X68422619Y-80297916D01*
X68541666Y-80238392D01*
X68660714Y-80238392D01*
X68898809Y-80238392D02*
X69375000Y-80238392D01*
X69077380Y-79821726D02*
X69077380Y-80893154D01*
X69136904Y-81012202D01*
X69255952Y-81071726D01*
X69375000Y-81071726D01*
X69970238Y-81071726D02*
X69851190Y-81012202D01*
X69791666Y-80893154D01*
X69791666Y-79821726D01*
X70327380Y-80238392D02*
X70625000Y-81071726D01*
X70922619Y-80238392D02*
X70625000Y-81071726D01*
X70505952Y-81369345D01*
X70446428Y-81428869D01*
X70327380Y-81488392D01*
X71398809Y-81071726D02*
X71398809Y-79821726D01*
X71934523Y-81071726D02*
X71934523Y-80416964D01*
X71875000Y-80297916D01*
X71755952Y-80238392D01*
X71577380Y-80238392D01*
X71458333Y-80297916D01*
X71398809Y-80357440D01*
X73065476Y-80238392D02*
X73065476Y-81071726D01*
X72529761Y-80238392D02*
X72529761Y-80893154D01*
X72589285Y-81012202D01*
X72708333Y-81071726D01*
X72886904Y-81071726D01*
X73005952Y-81012202D01*
X73065476Y-80952678D01*
X73660714Y-81071726D02*
X73660714Y-80238392D01*
X73660714Y-80357440D02*
X73720238Y-80297916D01*
X73839285Y-80238392D01*
X74017857Y-80238392D01*
X74136904Y-80297916D01*
X74196428Y-80416964D01*
X74196428Y-81071726D01*
X74196428Y-80416964D02*
X74255952Y-80297916D01*
X74375000Y-80238392D01*
X74553571Y-80238392D01*
X74672619Y-80297916D01*
X74732142Y-80416964D01*
X74732142Y-81071726D01*
X75863095Y-81071726D02*
X75863095Y-80416964D01*
X75803571Y-80297916D01*
X75684523Y-80238392D01*
X75446428Y-80238392D01*
X75327380Y-80297916D01*
X75863095Y-81012202D02*
X75744047Y-81071726D01*
X75446428Y-81071726D01*
X75327380Y-81012202D01*
X75267857Y-80893154D01*
X75267857Y-80774107D01*
X75327380Y-80655059D01*
X75446428Y-80595535D01*
X75744047Y-80595535D01*
X75863095Y-80536011D01*
X76458333Y-80238392D02*
X76458333Y-81071726D01*
X76458333Y-80357440D02*
X76517857Y-80297916D01*
X76636904Y-80238392D01*
X76815476Y-80238392D01*
X76934523Y-80297916D01*
X76994047Y-80416964D01*
X76994047Y-81071726D01*
X78482142Y-79940773D02*
X78541666Y-79881250D01*
X78660714Y-79821726D01*
X78958333Y-79821726D01*
X79077380Y-79881250D01*
X79136904Y-79940773D01*
X79196428Y-80059821D01*
X79196428Y-80178869D01*
X79136904Y-80357440D01*
X78422619Y-81071726D01*
X79196428Y-81071726D01*
X79970238Y-79821726D02*
X80089285Y-79821726D01*
X80208333Y-79881250D01*
X80267857Y-79940773D01*
X80327380Y-80059821D01*
X80386904Y-80297916D01*
X80386904Y-80595535D01*
X80327380Y-80833630D01*
X80267857Y-80952678D01*
X80208333Y-81012202D01*
X80089285Y-81071726D01*
X79970238Y-81071726D01*
X79851190Y-81012202D01*
X79791666Y-80952678D01*
X79732142Y-80833630D01*
X79672619Y-80595535D01*
X79672619Y-80297916D01*
X79732142Y-80059821D01*
X79791666Y-79940773D01*
X79851190Y-79881250D01*
X79970238Y-79821726D01*
X80863095Y-79940773D02*
X80922619Y-79881250D01*
X81041666Y-79821726D01*
X81339285Y-79821726D01*
X81458333Y-79881250D01*
X81517857Y-79940773D01*
X81577380Y-80059821D01*
X81577380Y-80178869D01*
X81517857Y-80357440D01*
X80803571Y-81071726D01*
X81577380Y-81071726D01*
X81994047Y-79821726D02*
X82767857Y-79821726D01*
X82351190Y-80297916D01*
X82529761Y-80297916D01*
X82648809Y-80357440D01*
X82708333Y-80416964D01*
X82767857Y-80536011D01*
X82767857Y-80833630D01*
X82708333Y-80952678D01*
X82648809Y-81012202D01*
X82529761Y-81071726D01*
X82172619Y-81071726D01*
X82053571Y-81012202D01*
X81994047Y-80952678D01*
X83303571Y-80595535D02*
X84255952Y-80595535D01*
X85089285Y-79821726D02*
X85208333Y-79821726D01*
X85327380Y-79881250D01*
X85386904Y-79940773D01*
X85446428Y-80059821D01*
X85505952Y-80297916D01*
X85505952Y-80595535D01*
X85446428Y-80833630D01*
X85386904Y-80952678D01*
X85327380Y-81012202D01*
X85208333Y-81071726D01*
X85089285Y-81071726D01*
X84970238Y-81012202D01*
X84910714Y-80952678D01*
X84851190Y-80833630D01*
X84791666Y-80595535D01*
X84791666Y-80297916D01*
X84851190Y-80059821D01*
X84910714Y-79940773D01*
X84970238Y-79881250D01*
X85089285Y-79821726D01*
X86696428Y-81071726D02*
X85982142Y-81071726D01*
X86339285Y-81071726D02*
X86339285Y-79821726D01*
X86220238Y-80000297D01*
X86101190Y-80119345D01*
X85982142Y-80178869D01*
X87232142Y-80595535D02*
X88184523Y-80595535D01*
X89434523Y-81071726D02*
X88720238Y-81071726D01*
X89077380Y-81071726D02*
X89077380Y-79821726D01*
X88958333Y-80000297D01*
X88839285Y-80119345D01*
X88720238Y-80178869D01*
X90148809Y-80357440D02*
X90029761Y-80297916D01*
X89970238Y-80238392D01*
X89910714Y-80119345D01*
X89910714Y-80059821D01*
X89970238Y-79940773D01*
X90029761Y-79881250D01*
X90148809Y-79821726D01*
X90386904Y-79821726D01*
X90505952Y-79881250D01*
X90565476Y-79940773D01*
X90625000Y-80059821D01*
X90625000Y-80119345D01*
X90565476Y-80238392D01*
X90505952Y-80297916D01*
X90386904Y-80357440D01*
X90148809Y-80357440D01*
X90029761Y-80416964D01*
X89970238Y-80476488D01*
X89910714Y-80595535D01*
X89910714Y-80833630D01*
X89970238Y-80952678D01*
X90029761Y-81012202D01*
X90148809Y-81071726D01*
X90386904Y-81071726D01*
X90505952Y-81012202D01*
X90565476Y-80952678D01*
X90625000Y-80833630D01*
X90625000Y-80595535D01*
X90565476Y-80476488D01*
X90505952Y-80416964D01*
X90386904Y-80357440D01*
%TO.C,JP1*%
X60152380Y-68333333D02*
X60866666Y-68333333D01*
X61009523Y-68380952D01*
X61104761Y-68476190D01*
X61152380Y-68619047D01*
X61152380Y-68714285D01*
X61152380Y-67857142D02*
X60152380Y-67857142D01*
X60152380Y-67476190D01*
X60200000Y-67380952D01*
X60247619Y-67333333D01*
X60342857Y-67285714D01*
X60485714Y-67285714D01*
X60580952Y-67333333D01*
X60628571Y-67380952D01*
X60676190Y-67476190D01*
X60676190Y-67857142D01*
X61152380Y-66333333D02*
X61152380Y-66904761D01*
X61152380Y-66619047D02*
X60152380Y-66619047D01*
X60295238Y-66714285D01*
X60390476Y-66809523D01*
X60438095Y-66904761D01*
%TO.C,U1*%
X74621653Y-75154761D02*
X74764510Y-75202380D01*
X75002605Y-75202380D01*
X75097844Y-75154761D01*
X75145463Y-75107142D01*
X75193082Y-75011904D01*
X75193082Y-74916666D01*
X75145463Y-74821428D01*
X75097844Y-74773809D01*
X75002605Y-74726190D01*
X74812129Y-74678571D01*
X74716891Y-74630952D01*
X74669272Y-74583333D01*
X74621653Y-74488095D01*
X74621653Y-74392857D01*
X74669272Y-74297619D01*
X74716891Y-74250000D01*
X74812129Y-74202380D01*
X75050225Y-74202380D01*
X75193082Y-74250000D01*
X75574034Y-75154761D02*
X75716891Y-75202380D01*
X75954986Y-75202380D01*
X76050225Y-75154761D01*
X76097844Y-75107142D01*
X76145463Y-75011904D01*
X76145463Y-74916666D01*
X76097844Y-74821428D01*
X76050225Y-74773809D01*
X75954986Y-74726190D01*
X75764510Y-74678571D01*
X75669272Y-74630952D01*
X75621653Y-74583333D01*
X75574034Y-74488095D01*
X75574034Y-74392857D01*
X75621653Y-74297619D01*
X75669272Y-74250000D01*
X75764510Y-74202380D01*
X76002605Y-74202380D01*
X76145463Y-74250000D01*
X76431177Y-74202380D02*
X77002605Y-74202380D01*
X76716891Y-75202380D02*
X76716891Y-74202380D01*
X77240701Y-74202380D02*
X77859748Y-74202380D01*
X77526415Y-74583333D01*
X77669272Y-74583333D01*
X77764510Y-74630952D01*
X77812129Y-74678571D01*
X77859748Y-74773809D01*
X77859748Y-75011904D01*
X77812129Y-75107142D01*
X77764510Y-75154761D01*
X77669272Y-75202380D01*
X77383558Y-75202380D01*
X77288320Y-75154761D01*
X77240701Y-75107142D01*
X78335939Y-75202380D02*
X78526415Y-75202380D01*
X78621653Y-75154761D01*
X78669272Y-75107142D01*
X78764510Y-74964285D01*
X78812129Y-74773809D01*
X78812129Y-74392857D01*
X78764510Y-74297619D01*
X78716891Y-74250000D01*
X78621653Y-74202380D01*
X78431177Y-74202380D01*
X78335939Y-74250000D01*
X78288320Y-74297619D01*
X78240701Y-74392857D01*
X78240701Y-74630952D01*
X78288320Y-74726190D01*
X78335939Y-74773809D01*
X78431177Y-74821428D01*
X78621653Y-74821428D01*
X78716891Y-74773809D01*
X78764510Y-74726190D01*
X78812129Y-74630952D01*
X79193082Y-75154761D02*
X79335939Y-75202380D01*
X79574034Y-75202380D01*
X79669272Y-75154761D01*
X79716891Y-75107142D01*
X79764510Y-75011904D01*
X79764510Y-74916666D01*
X79716891Y-74821428D01*
X79669272Y-74773809D01*
X79574034Y-74726190D01*
X79383558Y-74678571D01*
X79288320Y-74630952D01*
X79240701Y-74583333D01*
X79193082Y-74488095D01*
X79193082Y-74392857D01*
X79240701Y-74297619D01*
X79288320Y-74250000D01*
X79383558Y-74202380D01*
X79621653Y-74202380D01*
X79764510Y-74250000D01*
X80526415Y-74678571D02*
X80193082Y-74678571D01*
X80193082Y-75202380D02*
X80193082Y-74202380D01*
X80669272Y-74202380D01*
X81240701Y-74202380D02*
X81335939Y-74202380D01*
X81431177Y-74250000D01*
X81478796Y-74297619D01*
X81526415Y-74392857D01*
X81574034Y-74583333D01*
X81574034Y-74821428D01*
X81526415Y-75011904D01*
X81478796Y-75107142D01*
X81431177Y-75154761D01*
X81335939Y-75202380D01*
X81240701Y-75202380D01*
X81145463Y-75154761D01*
X81097844Y-75107142D01*
X81050225Y-75011904D01*
X81002605Y-74821428D01*
X81002605Y-74583333D01*
X81050225Y-74392857D01*
X81097844Y-74297619D01*
X81145463Y-74250000D01*
X81240701Y-74202380D01*
X82431177Y-74535714D02*
X82431177Y-75202380D01*
X82193082Y-74154761D02*
X81954986Y-74869047D01*
X82574034Y-74869047D01*
X83145463Y-74202380D02*
X83240701Y-74202380D01*
X83335939Y-74250000D01*
X83383558Y-74297619D01*
X83431177Y-74392857D01*
X83478796Y-74583333D01*
X83478796Y-74821428D01*
X83431177Y-75011904D01*
X83383558Y-75107142D01*
X83335939Y-75154761D01*
X83240701Y-75202380D01*
X83145463Y-75202380D01*
X83050225Y-75154761D01*
X83002605Y-75107142D01*
X82954986Y-75011904D01*
X82907367Y-74821428D01*
X82907367Y-74583333D01*
X82954986Y-74392857D01*
X83002605Y-74297619D01*
X83050225Y-74250000D01*
X83145463Y-74202380D01*
X73700000Y-65352380D02*
X73700000Y-65590476D01*
X73461904Y-65495238D02*
X73700000Y-65590476D01*
X73938095Y-65495238D01*
X73557142Y-65780952D02*
X73700000Y-65590476D01*
X73842857Y-65780952D01*
%TO.C,C1*%
X60337142Y-77404166D02*
X60384761Y-77451785D01*
X60432380Y-77594642D01*
X60432380Y-77689880D01*
X60384761Y-77832738D01*
X60289523Y-77927976D01*
X60194285Y-77975595D01*
X60003809Y-78023214D01*
X59860952Y-78023214D01*
X59670476Y-77975595D01*
X59575238Y-77927976D01*
X59480000Y-77832738D01*
X59432380Y-77689880D01*
X59432380Y-77594642D01*
X59480000Y-77451785D01*
X59527619Y-77404166D01*
X60432380Y-76451785D02*
X60432380Y-77023214D01*
X60432380Y-76737500D02*
X59432380Y-76737500D01*
X59575238Y-76832738D01*
X59670476Y-76927976D01*
X59718095Y-77023214D01*
X56072380Y-78880357D02*
X56072380Y-78785119D01*
X56120000Y-78689880D01*
X56167619Y-78642261D01*
X56262857Y-78594642D01*
X56453333Y-78547023D01*
X56691428Y-78547023D01*
X56881904Y-78594642D01*
X56977142Y-78642261D01*
X57024761Y-78689880D01*
X57072380Y-78785119D01*
X57072380Y-78880357D01*
X57024761Y-78975595D01*
X56977142Y-79023214D01*
X56881904Y-79070833D01*
X56691428Y-79118452D01*
X56453333Y-79118452D01*
X56262857Y-79070833D01*
X56167619Y-79023214D01*
X56120000Y-78975595D01*
X56072380Y-78880357D01*
X56977142Y-78118452D02*
X57024761Y-78070833D01*
X57072380Y-78118452D01*
X57024761Y-78166071D01*
X56977142Y-78118452D01*
X57072380Y-78118452D01*
X57072380Y-77118452D02*
X57072380Y-77689880D01*
X57072380Y-77404166D02*
X56072380Y-77404166D01*
X56215238Y-77499404D01*
X56310476Y-77594642D01*
X56358095Y-77689880D01*
X56405714Y-76261309D02*
X57072380Y-76261309D01*
X56405714Y-76689880D02*
X56929523Y-76689880D01*
X57024761Y-76642261D01*
X57072380Y-76547023D01*
X57072380Y-76404166D01*
X57024761Y-76308928D01*
X56977142Y-76261309D01*
X56548571Y-75451785D02*
X56548571Y-75785119D01*
X57072380Y-75785119D02*
X56072380Y-75785119D01*
X56072380Y-75308928D01*
D12*
%TO.C,JP1*%
X61500000Y-69550000D02*
X61500000Y-65450000D01*
X61500000Y-65450000D02*
X63500000Y-65450000D01*
X64000000Y-69100000D02*
X64000000Y-68500000D01*
X63500000Y-65450000D02*
X63500000Y-69550000D01*
X63500000Y-69550000D02*
X61500000Y-69550000D01*
X63700000Y-68800000D02*
X64000000Y-69100000D01*
X63700000Y-68800000D02*
X64000000Y-68500000D01*
%TO.C,U1*%
X72967434Y-73130800D02*
X85133016Y-73130800D01*
X85133016Y-64774200D02*
X72967434Y-64774200D01*
G36*
X87007524Y-71393001D02*
G01*
X86753524Y-71393001D01*
X86753524Y-71012001D01*
X87007524Y-71012001D01*
X87007524Y-71393001D01*
G37*
D10*
X87007524Y-71393001D02*
X86753524Y-71393001D01*
X86753524Y-71012001D01*
X87007524Y-71012001D01*
X87007524Y-71393001D01*
G36*
X71346926Y-69893001D02*
G01*
X71092926Y-69893001D01*
X71092926Y-69512001D01*
X71346926Y-69512001D01*
X71346926Y-69893001D01*
G37*
X71346926Y-69893001D02*
X71092926Y-69893001D01*
X71092926Y-69512001D01*
X71346926Y-69512001D01*
X71346926Y-69893001D01*
G36*
X87007524Y-66393000D02*
G01*
X86753524Y-66393000D01*
X86753524Y-66012000D01*
X87007524Y-66012000D01*
X87007524Y-66393000D01*
G37*
X87007524Y-66393000D02*
X86753524Y-66393000D01*
X86753524Y-66012000D01*
X87007524Y-66012000D01*
X87007524Y-66393000D01*
D12*
%TO.C,C1*%
X57565000Y-76976248D02*
X57565000Y-77498752D01*
X59035000Y-76976248D02*
X59035000Y-77498752D01*
%TD*%
M02*
