%TF.GenerationSoftware,KiCad,Pcbnew,(6.0.7-1)-1*%
%TF.CreationDate,2023-01-16T09:35:13-08:00*%
%TF.ProjectId,QCard,51436172-642e-46b6-9963-61645f706362,rev?*%
%TF.SameCoordinates,Original*%
%TF.FileFunction,Legend,Top*%
%TF.FilePolarity,Positive*%
%FSLAX46Y46*%
G04 Gerber Fmt 4.6, Leading zero omitted, Abs format (unit mm)*
G04 Created by KiCad (PCBNEW (6.0.7-1)-1) date 2023-01-16 09:35:13*
%MOMM*%
%LPD*%
G01*
G04 APERTURE LIST*
%ADD10C,0.125000*%
%ADD11C,0.150000*%
%ADD12C,0.120000*%
%ADD13C,0.100000*%
G04 APERTURE END LIST*
D10*
X96723690Y-75504464D02*
X96723690Y-75409226D01*
X96747500Y-75361607D01*
X96795119Y-75313988D01*
X96890357Y-75290178D01*
X97057023Y-75290178D01*
X97152261Y-75313988D01*
X97199880Y-75361607D01*
X97223690Y-75409226D01*
X97223690Y-75504464D01*
X97199880Y-75552083D01*
X97152261Y-75599702D01*
X97057023Y-75623511D01*
X96890357Y-75623511D01*
X96795119Y-75599702D01*
X96747500Y-75552083D01*
X96723690Y-75504464D01*
X97223690Y-75075892D02*
X96723690Y-75075892D01*
X96723690Y-74885416D01*
X96747500Y-74837797D01*
X96771309Y-74813988D01*
X96818928Y-74790178D01*
X96890357Y-74790178D01*
X96937976Y-74813988D01*
X96961785Y-74837797D01*
X96985595Y-74885416D01*
X96985595Y-75075892D01*
X96961785Y-74575892D02*
X96961785Y-74409226D01*
X97223690Y-74337797D02*
X97223690Y-74575892D01*
X96723690Y-74575892D01*
X96723690Y-74337797D01*
X97223690Y-74123511D02*
X96723690Y-74123511D01*
X97223690Y-73837797D01*
X96723690Y-73837797D01*
X97176071Y-73599702D02*
X97199880Y-73575892D01*
X97223690Y-73599702D01*
X97199880Y-73623511D01*
X97176071Y-73599702D01*
X97223690Y-73599702D01*
X96914166Y-73599702D02*
X96937976Y-73575892D01*
X96961785Y-73599702D01*
X96937976Y-73623511D01*
X96914166Y-73599702D01*
X96961785Y-73599702D01*
X97223690Y-72980654D02*
X96723690Y-72980654D01*
X96723690Y-72790178D01*
X96747500Y-72742559D01*
X96771309Y-72718750D01*
X96818928Y-72694940D01*
X96890357Y-72694940D01*
X96937976Y-72718750D01*
X96961785Y-72742559D01*
X96985595Y-72790178D01*
X96985595Y-72980654D01*
X97223690Y-72194940D02*
X96985595Y-72361607D01*
X97223690Y-72480654D02*
X96723690Y-72480654D01*
X96723690Y-72290178D01*
X96747500Y-72242559D01*
X96771309Y-72218750D01*
X96818928Y-72194940D01*
X96890357Y-72194940D01*
X96937976Y-72218750D01*
X96961785Y-72242559D01*
X96985595Y-72290178D01*
X96985595Y-72480654D01*
X96723690Y-71885416D02*
X96723690Y-71790178D01*
X96747500Y-71742559D01*
X96795119Y-71694940D01*
X96890357Y-71671130D01*
X97057023Y-71671130D01*
X97152261Y-71694940D01*
X97199880Y-71742559D01*
X97223690Y-71790178D01*
X97223690Y-71885416D01*
X97199880Y-71933035D01*
X97152261Y-71980654D01*
X97057023Y-72004464D01*
X96890357Y-72004464D01*
X96795119Y-71980654D01*
X96747500Y-71933035D01*
X96723690Y-71885416D01*
X96747500Y-71194940D02*
X96723690Y-71242559D01*
X96723690Y-71313988D01*
X96747500Y-71385416D01*
X96795119Y-71433035D01*
X96842738Y-71456845D01*
X96937976Y-71480654D01*
X97009404Y-71480654D01*
X97104642Y-71456845D01*
X97152261Y-71433035D01*
X97199880Y-71385416D01*
X97223690Y-71313988D01*
X97223690Y-71266369D01*
X97199880Y-71194940D01*
X97176071Y-71171130D01*
X97009404Y-71171130D01*
X97009404Y-71266369D01*
X97223690Y-70671130D02*
X96985595Y-70837797D01*
X97223690Y-70956845D02*
X96723690Y-70956845D01*
X96723690Y-70766369D01*
X96747500Y-70718750D01*
X96771309Y-70694940D01*
X96818928Y-70671130D01*
X96890357Y-70671130D01*
X96937976Y-70694940D01*
X96961785Y-70718750D01*
X96985595Y-70766369D01*
X96985595Y-70956845D01*
X97080833Y-70480654D02*
X97080833Y-70242559D01*
X97223690Y-70528273D02*
X96723690Y-70361607D01*
X97223690Y-70194940D01*
X97223690Y-70028273D02*
X96723690Y-70028273D01*
X97080833Y-69861607D01*
X96723690Y-69694940D01*
X97223690Y-69694940D01*
X97766785Y-75433035D02*
X97790595Y-75361607D01*
X97814404Y-75337797D01*
X97862023Y-75313988D01*
X97933452Y-75313988D01*
X97981071Y-75337797D01*
X98004880Y-75361607D01*
X98028690Y-75409226D01*
X98028690Y-75599702D01*
X97528690Y-75599702D01*
X97528690Y-75433035D01*
X97552500Y-75385416D01*
X97576309Y-75361607D01*
X97623928Y-75337797D01*
X97671547Y-75337797D01*
X97719166Y-75361607D01*
X97742976Y-75385416D01*
X97766785Y-75433035D01*
X97766785Y-75599702D01*
X98028690Y-74813988D02*
X97790595Y-74980654D01*
X98028690Y-75099702D02*
X97528690Y-75099702D01*
X97528690Y-74909226D01*
X97552500Y-74861607D01*
X97576309Y-74837797D01*
X97623928Y-74813988D01*
X97695357Y-74813988D01*
X97742976Y-74837797D01*
X97766785Y-74861607D01*
X97790595Y-74909226D01*
X97790595Y-75099702D01*
X98028690Y-74599702D02*
X97528690Y-74599702D01*
X98028690Y-74361607D02*
X97528690Y-74361607D01*
X97528690Y-74242559D01*
X97552500Y-74171130D01*
X97600119Y-74123511D01*
X97647738Y-74099702D01*
X97742976Y-74075892D01*
X97814404Y-74075892D01*
X97909642Y-74099702D01*
X97957261Y-74123511D01*
X98004880Y-74171130D01*
X98028690Y-74242559D01*
X98028690Y-74361607D01*
X97552500Y-73599702D02*
X97528690Y-73647321D01*
X97528690Y-73718750D01*
X97552500Y-73790178D01*
X97600119Y-73837797D01*
X97647738Y-73861607D01*
X97742976Y-73885416D01*
X97814404Y-73885416D01*
X97909642Y-73861607D01*
X97957261Y-73837797D01*
X98004880Y-73790178D01*
X98028690Y-73718750D01*
X98028690Y-73671130D01*
X98004880Y-73599702D01*
X97981071Y-73575892D01*
X97814404Y-73575892D01*
X97814404Y-73671130D01*
X97766785Y-73361607D02*
X97766785Y-73194940D01*
X98028690Y-73123511D02*
X98028690Y-73361607D01*
X97528690Y-73361607D01*
X97528690Y-73123511D01*
X98028690Y-72909226D02*
X97528690Y-72909226D01*
X97528690Y-72790178D01*
X97552500Y-72718750D01*
X97600119Y-72671130D01*
X97647738Y-72647321D01*
X97742976Y-72623511D01*
X97814404Y-72623511D01*
X97909642Y-72647321D01*
X97957261Y-72671130D01*
X98004880Y-72718750D01*
X98028690Y-72790178D01*
X98028690Y-72909226D01*
X97981071Y-72409226D02*
X98004880Y-72385416D01*
X98028690Y-72409226D01*
X98004880Y-72433035D01*
X97981071Y-72409226D01*
X98028690Y-72409226D01*
X97719166Y-72409226D02*
X97742976Y-72385416D01*
X97766785Y-72409226D01*
X97742976Y-72433035D01*
X97719166Y-72409226D01*
X97766785Y-72409226D01*
X97528690Y-71837797D02*
X98028690Y-71718750D01*
X97671547Y-71623511D01*
X98028690Y-71528273D01*
X97528690Y-71409226D01*
X98028690Y-70933035D02*
X97790595Y-71099702D01*
X98028690Y-71218750D02*
X97528690Y-71218750D01*
X97528690Y-71028273D01*
X97552500Y-70980654D01*
X97576309Y-70956845D01*
X97623928Y-70933035D01*
X97695357Y-70933035D01*
X97742976Y-70956845D01*
X97766785Y-70980654D01*
X97790595Y-71028273D01*
X97790595Y-71218750D01*
X98028690Y-70718750D02*
X97528690Y-70718750D01*
X97528690Y-70552083D02*
X97528690Y-70266369D01*
X98028690Y-70409226D02*
X97528690Y-70409226D01*
X97766785Y-70099702D02*
X97766785Y-69933035D01*
X98028690Y-69861607D02*
X98028690Y-70099702D01*
X97528690Y-70099702D01*
X97528690Y-69861607D01*
X98028690Y-69266369D02*
X97528690Y-69266369D01*
X97528690Y-69075892D01*
X97552500Y-69028273D01*
X97576309Y-69004464D01*
X97623928Y-68980654D01*
X97695357Y-68980654D01*
X97742976Y-69004464D01*
X97766785Y-69028273D01*
X97790595Y-69075892D01*
X97790595Y-69266369D01*
X98028690Y-68480654D02*
X97790595Y-68647321D01*
X98028690Y-68766369D02*
X97528690Y-68766369D01*
X97528690Y-68575892D01*
X97552500Y-68528273D01*
X97576309Y-68504464D01*
X97623928Y-68480654D01*
X97695357Y-68480654D01*
X97742976Y-68504464D01*
X97766785Y-68528273D01*
X97790595Y-68575892D01*
X97790595Y-68766369D01*
X97528690Y-68171130D02*
X97528690Y-68075892D01*
X97552500Y-68028273D01*
X97600119Y-67980654D01*
X97695357Y-67956845D01*
X97862023Y-67956845D01*
X97957261Y-67980654D01*
X98004880Y-68028273D01*
X98028690Y-68075892D01*
X98028690Y-68171130D01*
X98004880Y-68218750D01*
X97957261Y-68266369D01*
X97862023Y-68290178D01*
X97695357Y-68290178D01*
X97600119Y-68266369D01*
X97552500Y-68218750D01*
X97528690Y-68171130D01*
X97528690Y-67813988D02*
X97528690Y-67528273D01*
X98028690Y-67671130D02*
X97528690Y-67671130D01*
X97766785Y-67361607D02*
X97766785Y-67194940D01*
X98028690Y-67123511D02*
X98028690Y-67361607D01*
X97528690Y-67361607D01*
X97528690Y-67123511D01*
X97981071Y-66623511D02*
X98004880Y-66647321D01*
X98028690Y-66718750D01*
X98028690Y-66766369D01*
X98004880Y-66837797D01*
X97957261Y-66885416D01*
X97909642Y-66909226D01*
X97814404Y-66933035D01*
X97742976Y-66933035D01*
X97647738Y-66909226D01*
X97600119Y-66885416D01*
X97552500Y-66837797D01*
X97528690Y-66766369D01*
X97528690Y-66718750D01*
X97552500Y-66647321D01*
X97576309Y-66623511D01*
X97528690Y-66480654D02*
X97528690Y-66194940D01*
X98028690Y-66337797D02*
X97528690Y-66337797D01*
D11*
X68309523Y-59742619D02*
X68214285Y-59695000D01*
X68119047Y-59599761D01*
X67976190Y-59456904D01*
X67880952Y-59409285D01*
X67785714Y-59409285D01*
X67833333Y-59647380D02*
X67738095Y-59599761D01*
X67642857Y-59504523D01*
X67595238Y-59314047D01*
X67595238Y-58980714D01*
X67642857Y-58790238D01*
X67738095Y-58695000D01*
X67833333Y-58647380D01*
X68023809Y-58647380D01*
X68119047Y-58695000D01*
X68214285Y-58790238D01*
X68261904Y-58980714D01*
X68261904Y-59314047D01*
X68214285Y-59504523D01*
X68119047Y-59599761D01*
X68023809Y-59647380D01*
X67833333Y-59647380D01*
X68690476Y-59266428D02*
X69452380Y-59266428D01*
X70500000Y-59552142D02*
X70452380Y-59599761D01*
X70309523Y-59647380D01*
X70214285Y-59647380D01*
X70071428Y-59599761D01*
X69976190Y-59504523D01*
X69928571Y-59409285D01*
X69880952Y-59218809D01*
X69880952Y-59075952D01*
X69928571Y-58885476D01*
X69976190Y-58790238D01*
X70071428Y-58695000D01*
X70214285Y-58647380D01*
X70309523Y-58647380D01*
X70452380Y-58695000D01*
X70500000Y-58742619D01*
X70928571Y-59647380D02*
X70928571Y-58647380D01*
X71357142Y-59647380D02*
X71357142Y-59123571D01*
X71309523Y-59028333D01*
X71214285Y-58980714D01*
X71071428Y-58980714D01*
X70976190Y-59028333D01*
X70928571Y-59075952D01*
X71976190Y-59647380D02*
X71880952Y-59599761D01*
X71833333Y-59552142D01*
X71785714Y-59456904D01*
X71785714Y-59171190D01*
X71833333Y-59075952D01*
X71880952Y-59028333D01*
X71976190Y-58980714D01*
X72119047Y-58980714D01*
X72214285Y-59028333D01*
X72261904Y-59075952D01*
X72309523Y-59171190D01*
X72309523Y-59456904D01*
X72261904Y-59552142D01*
X72214285Y-59599761D01*
X72119047Y-59647380D01*
X71976190Y-59647380D01*
X72738095Y-59647380D02*
X72738095Y-58980714D01*
X72738095Y-59171190D02*
X72785714Y-59075952D01*
X72833333Y-59028333D01*
X72928571Y-58980714D01*
X73023809Y-58980714D01*
X73785714Y-59647380D02*
X73785714Y-58647380D01*
X73785714Y-59599761D02*
X73690476Y-59647380D01*
X73500000Y-59647380D01*
X73404761Y-59599761D01*
X73357142Y-59552142D01*
X73309523Y-59456904D01*
X73309523Y-59171190D01*
X73357142Y-59075952D01*
X73404761Y-59028333D01*
X73500000Y-58980714D01*
X73690476Y-58980714D01*
X73785714Y-59028333D01*
X74976190Y-59599761D02*
X75071428Y-59647380D01*
X75261904Y-59647380D01*
X75357142Y-59599761D01*
X75404761Y-59504523D01*
X75404761Y-59456904D01*
X75357142Y-59361666D01*
X75261904Y-59314047D01*
X75119047Y-59314047D01*
X75023809Y-59266428D01*
X74976190Y-59171190D01*
X74976190Y-59123571D01*
X75023809Y-59028333D01*
X75119047Y-58980714D01*
X75261904Y-58980714D01*
X75357142Y-59028333D01*
X75976190Y-59647380D02*
X75880952Y-59599761D01*
X75833333Y-59552142D01*
X75785714Y-59456904D01*
X75785714Y-59171190D01*
X75833333Y-59075952D01*
X75880952Y-59028333D01*
X75976190Y-58980714D01*
X76119047Y-58980714D01*
X76214285Y-59028333D01*
X76261904Y-59075952D01*
X76309523Y-59171190D01*
X76309523Y-59456904D01*
X76261904Y-59552142D01*
X76214285Y-59599761D01*
X76119047Y-59647380D01*
X75976190Y-59647380D01*
X76738095Y-58980714D02*
X76738095Y-59647380D01*
X76738095Y-59075952D02*
X76785714Y-59028333D01*
X76880952Y-58980714D01*
X77023809Y-58980714D01*
X77119047Y-59028333D01*
X77166666Y-59123571D01*
X77166666Y-59647380D01*
X78071428Y-58980714D02*
X78071428Y-59790238D01*
X78023809Y-59885476D01*
X77976190Y-59933095D01*
X77880952Y-59980714D01*
X77738095Y-59980714D01*
X77642857Y-59933095D01*
X78071428Y-59599761D02*
X77976190Y-59647380D01*
X77785714Y-59647380D01*
X77690476Y-59599761D01*
X77642857Y-59552142D01*
X77595238Y-59456904D01*
X77595238Y-59171190D01*
X77642857Y-59075952D01*
X77690476Y-59028333D01*
X77785714Y-58980714D01*
X77976190Y-58980714D01*
X78071428Y-59028333D01*
X79738095Y-59599761D02*
X79642857Y-59647380D01*
X79452380Y-59647380D01*
X79357142Y-59599761D01*
X79309523Y-59552142D01*
X79261904Y-59456904D01*
X79261904Y-59171190D01*
X79309523Y-59075952D01*
X79357142Y-59028333D01*
X79452380Y-58980714D01*
X79642857Y-58980714D01*
X79738095Y-59028333D01*
X80595238Y-59647380D02*
X80595238Y-59123571D01*
X80547619Y-59028333D01*
X80452380Y-58980714D01*
X80261904Y-58980714D01*
X80166666Y-59028333D01*
X80595238Y-59599761D02*
X80500000Y-59647380D01*
X80261904Y-59647380D01*
X80166666Y-59599761D01*
X80119047Y-59504523D01*
X80119047Y-59409285D01*
X80166666Y-59314047D01*
X80261904Y-59266428D01*
X80500000Y-59266428D01*
X80595238Y-59218809D01*
X81071428Y-59647380D02*
X81071428Y-58980714D01*
X81071428Y-59171190D02*
X81119047Y-59075952D01*
X81166666Y-59028333D01*
X81261904Y-58980714D01*
X81357142Y-58980714D01*
X81547619Y-58980714D02*
X81928571Y-58980714D01*
X81690476Y-58647380D02*
X81690476Y-59504523D01*
X81738095Y-59599761D01*
X81833333Y-59647380D01*
X81928571Y-59647380D01*
X82261904Y-59647380D02*
X82261904Y-58980714D01*
X82261904Y-59171190D02*
X82309523Y-59075952D01*
X82357142Y-59028333D01*
X82452380Y-58980714D01*
X82547619Y-58980714D01*
X82880952Y-59647380D02*
X82880952Y-58980714D01*
X82880952Y-58647380D02*
X82833333Y-58695000D01*
X82880952Y-58742619D01*
X82928571Y-58695000D01*
X82880952Y-58647380D01*
X82880952Y-58742619D01*
X83785714Y-59647380D02*
X83785714Y-58647380D01*
X83785714Y-59599761D02*
X83690476Y-59647380D01*
X83500000Y-59647380D01*
X83404761Y-59599761D01*
X83357142Y-59552142D01*
X83309523Y-59456904D01*
X83309523Y-59171190D01*
X83357142Y-59075952D01*
X83404761Y-59028333D01*
X83500000Y-58980714D01*
X83690476Y-58980714D01*
X83785714Y-59028333D01*
X84690476Y-58980714D02*
X84690476Y-59790238D01*
X84642857Y-59885476D01*
X84595238Y-59933095D01*
X84500000Y-59980714D01*
X84357142Y-59980714D01*
X84261904Y-59933095D01*
X84690476Y-59599761D02*
X84595238Y-59647380D01*
X84404761Y-59647380D01*
X84309523Y-59599761D01*
X84261904Y-59552142D01*
X84214285Y-59456904D01*
X84214285Y-59171190D01*
X84261904Y-59075952D01*
X84309523Y-59028333D01*
X84404761Y-58980714D01*
X84595238Y-58980714D01*
X84690476Y-59028333D01*
X85547619Y-59599761D02*
X85452380Y-59647380D01*
X85261904Y-59647380D01*
X85166666Y-59599761D01*
X85119047Y-59504523D01*
X85119047Y-59123571D01*
X85166666Y-59028333D01*
X85261904Y-58980714D01*
X85452380Y-58980714D01*
X85547619Y-59028333D01*
X85595238Y-59123571D01*
X85595238Y-59218809D01*
X85119047Y-59314047D01*
X87214285Y-58980714D02*
X87214285Y-59647380D01*
X86976190Y-58599761D02*
X86738095Y-59314047D01*
X87357142Y-59314047D01*
X87738095Y-59647380D02*
X87738095Y-58647380D01*
X88071428Y-59361666D01*
X88404761Y-58647380D01*
X88404761Y-59647380D01*
X88880952Y-59647380D02*
X88880952Y-58647380D01*
X88880952Y-59028333D02*
X88976190Y-58980714D01*
X89166666Y-58980714D01*
X89261904Y-59028333D01*
X89309523Y-59075952D01*
X89357142Y-59171190D01*
X89357142Y-59456904D01*
X89309523Y-59552142D01*
X89261904Y-59599761D01*
X89166666Y-59647380D01*
X88976190Y-59647380D01*
X88880952Y-59599761D01*
X89785714Y-59647380D02*
X89785714Y-58980714D01*
X89785714Y-58647380D02*
X89738095Y-58695000D01*
X89785714Y-58742619D01*
X89833333Y-58695000D01*
X89785714Y-58647380D01*
X89785714Y-58742619D01*
X90119047Y-58980714D02*
X90500000Y-58980714D01*
X90261904Y-58647380D02*
X90261904Y-59504523D01*
X90309523Y-59599761D01*
X90404761Y-59647380D01*
X90500000Y-59647380D01*
X69166666Y-60781190D02*
X69119047Y-60733571D01*
X69023809Y-60685952D01*
X68928571Y-60685952D01*
X68833333Y-60733571D01*
X68785714Y-60781190D01*
X68738095Y-60876428D01*
X68738095Y-60971666D01*
X68785714Y-61066904D01*
X68833333Y-61114523D01*
X68928571Y-61162142D01*
X69023809Y-61162142D01*
X69119047Y-61114523D01*
X69166666Y-61066904D01*
X69166666Y-60685952D02*
X69166666Y-61066904D01*
X69214285Y-61114523D01*
X69261904Y-61114523D01*
X69357142Y-61066904D01*
X69404761Y-60971666D01*
X69404761Y-60733571D01*
X69309523Y-60590714D01*
X69166666Y-60495476D01*
X68976190Y-60447857D01*
X68785714Y-60495476D01*
X68642857Y-60590714D01*
X68547619Y-60733571D01*
X68500000Y-60924047D01*
X68547619Y-61114523D01*
X68642857Y-61257380D01*
X68785714Y-61352619D01*
X68976190Y-61400238D01*
X69166666Y-61352619D01*
X69309523Y-61257380D01*
X69833333Y-60590714D02*
X69833333Y-61590714D01*
X69833333Y-60638333D02*
X69928571Y-60590714D01*
X70119047Y-60590714D01*
X70214285Y-60638333D01*
X70261904Y-60685952D01*
X70309523Y-60781190D01*
X70309523Y-61066904D01*
X70261904Y-61162142D01*
X70214285Y-61209761D01*
X70119047Y-61257380D01*
X69928571Y-61257380D01*
X69833333Y-61209761D01*
X71166666Y-61257380D02*
X71166666Y-60733571D01*
X71119047Y-60638333D01*
X71023809Y-60590714D01*
X70833333Y-60590714D01*
X70738095Y-60638333D01*
X71166666Y-61209761D02*
X71071428Y-61257380D01*
X70833333Y-61257380D01*
X70738095Y-61209761D01*
X70690476Y-61114523D01*
X70690476Y-61019285D01*
X70738095Y-60924047D01*
X70833333Y-60876428D01*
X71071428Y-60876428D01*
X71166666Y-60828809D01*
X71642857Y-61257380D02*
X71642857Y-60590714D01*
X71642857Y-60781190D02*
X71690476Y-60685952D01*
X71738095Y-60638333D01*
X71833333Y-60590714D01*
X71928571Y-60590714D01*
X72119047Y-60590714D02*
X72500000Y-60590714D01*
X72261904Y-60257380D02*
X72261904Y-61114523D01*
X72309523Y-61209761D01*
X72404761Y-61257380D01*
X72500000Y-61257380D01*
X72976190Y-61257380D02*
X72880952Y-61209761D01*
X72833333Y-61114523D01*
X72833333Y-60257380D01*
X73261904Y-60590714D02*
X73500000Y-61257380D01*
X73738095Y-60590714D02*
X73500000Y-61257380D01*
X73404761Y-61495476D01*
X73357142Y-61543095D01*
X73261904Y-61590714D01*
X74119047Y-61257380D02*
X74119047Y-60257380D01*
X74547619Y-61257380D02*
X74547619Y-60733571D01*
X74500000Y-60638333D01*
X74404761Y-60590714D01*
X74261904Y-60590714D01*
X74166666Y-60638333D01*
X74119047Y-60685952D01*
X75452380Y-60590714D02*
X75452380Y-61257380D01*
X75023809Y-60590714D02*
X75023809Y-61114523D01*
X75071428Y-61209761D01*
X75166666Y-61257380D01*
X75309523Y-61257380D01*
X75404761Y-61209761D01*
X75452380Y-61162142D01*
X75928571Y-61257380D02*
X75928571Y-60590714D01*
X75928571Y-60685952D02*
X75976190Y-60638333D01*
X76071428Y-60590714D01*
X76214285Y-60590714D01*
X76309523Y-60638333D01*
X76357142Y-60733571D01*
X76357142Y-61257380D01*
X76357142Y-60733571D02*
X76404761Y-60638333D01*
X76500000Y-60590714D01*
X76642857Y-60590714D01*
X76738095Y-60638333D01*
X76785714Y-60733571D01*
X76785714Y-61257380D01*
X77690476Y-61257380D02*
X77690476Y-60733571D01*
X77642857Y-60638333D01*
X77547619Y-60590714D01*
X77357142Y-60590714D01*
X77261904Y-60638333D01*
X77690476Y-61209761D02*
X77595238Y-61257380D01*
X77357142Y-61257380D01*
X77261904Y-61209761D01*
X77214285Y-61114523D01*
X77214285Y-61019285D01*
X77261904Y-60924047D01*
X77357142Y-60876428D01*
X77595238Y-60876428D01*
X77690476Y-60828809D01*
X78166666Y-60590714D02*
X78166666Y-61257380D01*
X78166666Y-60685952D02*
X78214285Y-60638333D01*
X78309523Y-60590714D01*
X78452380Y-60590714D01*
X78547619Y-60638333D01*
X78595238Y-60733571D01*
X78595238Y-61257380D01*
X79785714Y-60352619D02*
X79833333Y-60305000D01*
X79928571Y-60257380D01*
X80166666Y-60257380D01*
X80261904Y-60305000D01*
X80309523Y-60352619D01*
X80357142Y-60447857D01*
X80357142Y-60543095D01*
X80309523Y-60685952D01*
X79738095Y-61257380D01*
X80357142Y-61257380D01*
X80976190Y-60257380D02*
X81071428Y-60257380D01*
X81166666Y-60305000D01*
X81214285Y-60352619D01*
X81261904Y-60447857D01*
X81309523Y-60638333D01*
X81309523Y-60876428D01*
X81261904Y-61066904D01*
X81214285Y-61162142D01*
X81166666Y-61209761D01*
X81071428Y-61257380D01*
X80976190Y-61257380D01*
X80880952Y-61209761D01*
X80833333Y-61162142D01*
X80785714Y-61066904D01*
X80738095Y-60876428D01*
X80738095Y-60638333D01*
X80785714Y-60447857D01*
X80833333Y-60352619D01*
X80880952Y-60305000D01*
X80976190Y-60257380D01*
X81690476Y-60352619D02*
X81738095Y-60305000D01*
X81833333Y-60257380D01*
X82071428Y-60257380D01*
X82166666Y-60305000D01*
X82214285Y-60352619D01*
X82261904Y-60447857D01*
X82261904Y-60543095D01*
X82214285Y-60685952D01*
X81642857Y-61257380D01*
X82261904Y-61257380D01*
X82595238Y-60257380D02*
X83214285Y-60257380D01*
X82880952Y-60638333D01*
X83023809Y-60638333D01*
X83119047Y-60685952D01*
X83166666Y-60733571D01*
X83214285Y-60828809D01*
X83214285Y-61066904D01*
X83166666Y-61162142D01*
X83119047Y-61209761D01*
X83023809Y-61257380D01*
X82738095Y-61257380D01*
X82642857Y-61209761D01*
X82595238Y-61162142D01*
X83642857Y-60876428D02*
X84404761Y-60876428D01*
X85071428Y-60257380D02*
X85166666Y-60257380D01*
X85261904Y-60305000D01*
X85309523Y-60352619D01*
X85357142Y-60447857D01*
X85404761Y-60638333D01*
X85404761Y-60876428D01*
X85357142Y-61066904D01*
X85309523Y-61162142D01*
X85261904Y-61209761D01*
X85166666Y-61257380D01*
X85071428Y-61257380D01*
X84976190Y-61209761D01*
X84928571Y-61162142D01*
X84880952Y-61066904D01*
X84833333Y-60876428D01*
X84833333Y-60638333D01*
X84880952Y-60447857D01*
X84928571Y-60352619D01*
X84976190Y-60305000D01*
X85071428Y-60257380D01*
X86357142Y-61257380D02*
X85785714Y-61257380D01*
X86071428Y-61257380D02*
X86071428Y-60257380D01*
X85976190Y-60400238D01*
X85880952Y-60495476D01*
X85785714Y-60543095D01*
X86785714Y-60876428D02*
X87547619Y-60876428D01*
X88547619Y-61257380D02*
X87976190Y-61257380D01*
X88261904Y-61257380D02*
X88261904Y-60257380D01*
X88166666Y-60400238D01*
X88071428Y-60495476D01*
X87976190Y-60543095D01*
X89404761Y-60257380D02*
X89214285Y-60257380D01*
X89119047Y-60305000D01*
X89071428Y-60352619D01*
X88976190Y-60495476D01*
X88928571Y-60685952D01*
X88928571Y-61066904D01*
X88976190Y-61162142D01*
X89023809Y-61209761D01*
X89119047Y-61257380D01*
X89309523Y-61257380D01*
X89404761Y-61209761D01*
X89452380Y-61162142D01*
X89500000Y-61066904D01*
X89500000Y-60828809D01*
X89452380Y-60733571D01*
X89404761Y-60685952D01*
X89309523Y-60638333D01*
X89119047Y-60638333D01*
X89023809Y-60685952D01*
X88976190Y-60733571D01*
X88928571Y-60828809D01*
%TO.C,REF\u002A\u002A*%
X53166666Y-48052380D02*
X52833333Y-47576190D01*
X52595238Y-48052380D02*
X52595238Y-47052380D01*
X52976190Y-47052380D01*
X53071428Y-47100000D01*
X53119047Y-47147619D01*
X53166666Y-47242857D01*
X53166666Y-47385714D01*
X53119047Y-47480952D01*
X53071428Y-47528571D01*
X52976190Y-47576190D01*
X52595238Y-47576190D01*
X53595238Y-47528571D02*
X53928571Y-47528571D01*
X54071428Y-48052380D02*
X53595238Y-48052380D01*
X53595238Y-47052380D01*
X54071428Y-47052380D01*
X54833333Y-47528571D02*
X54500000Y-47528571D01*
X54500000Y-48052380D02*
X54500000Y-47052380D01*
X54976190Y-47052380D01*
X55500000Y-47052380D02*
X55500000Y-47290476D01*
X55261904Y-47195238D02*
X55500000Y-47290476D01*
X55738095Y-47195238D01*
X55357142Y-47480952D02*
X55500000Y-47290476D01*
X55642857Y-47480952D01*
X56261904Y-47052380D02*
X56261904Y-47290476D01*
X56023809Y-47195238D02*
X56261904Y-47290476D01*
X56500000Y-47195238D01*
X56119047Y-47480952D02*
X56261904Y-47290476D01*
X56404761Y-47480952D01*
X99166666Y-48052380D02*
X98833333Y-47576190D01*
X98595238Y-48052380D02*
X98595238Y-47052380D01*
X98976190Y-47052380D01*
X99071428Y-47100000D01*
X99119047Y-47147619D01*
X99166666Y-47242857D01*
X99166666Y-47385714D01*
X99119047Y-47480952D01*
X99071428Y-47528571D01*
X98976190Y-47576190D01*
X98595238Y-47576190D01*
X99595238Y-47528571D02*
X99928571Y-47528571D01*
X100071428Y-48052380D02*
X99595238Y-48052380D01*
X99595238Y-47052380D01*
X100071428Y-47052380D01*
X100833333Y-47528571D02*
X100500000Y-47528571D01*
X100500000Y-48052380D02*
X100500000Y-47052380D01*
X100976190Y-47052380D01*
X101500000Y-47052380D02*
X101500000Y-47290476D01*
X101261904Y-47195238D02*
X101500000Y-47290476D01*
X101738095Y-47195238D01*
X101357142Y-47480952D02*
X101500000Y-47290476D01*
X101642857Y-47480952D01*
X102261904Y-47052380D02*
X102261904Y-47290476D01*
X102023809Y-47195238D02*
X102261904Y-47290476D01*
X102500000Y-47195238D01*
X102119047Y-47480952D02*
X102261904Y-47290476D01*
X102404761Y-47480952D01*
%TO.C,JP1*%
X96516666Y-78752380D02*
X96516666Y-79466666D01*
X96469047Y-79609523D01*
X96373809Y-79704761D01*
X96230952Y-79752380D01*
X96135714Y-79752380D01*
X96992857Y-79752380D02*
X96992857Y-78752380D01*
X97373809Y-78752380D01*
X97469047Y-78800000D01*
X97516666Y-78847619D01*
X97564285Y-78942857D01*
X97564285Y-79085714D01*
X97516666Y-79180952D01*
X97469047Y-79228571D01*
X97373809Y-79276190D01*
X96992857Y-79276190D01*
X98516666Y-79752380D02*
X97945238Y-79752380D01*
X98230952Y-79752380D02*
X98230952Y-78752380D01*
X98135714Y-78895238D01*
X98040476Y-78990476D01*
X97945238Y-79038095D01*
%TO.C,U1*%
X78288320Y-62952380D02*
X78288320Y-63761904D01*
X78335939Y-63857142D01*
X78383558Y-63904761D01*
X78478796Y-63952380D01*
X78669272Y-63952380D01*
X78764510Y-63904761D01*
X78812129Y-63857142D01*
X78859748Y-63761904D01*
X78859748Y-62952380D01*
X79859748Y-63952380D02*
X79288320Y-63952380D01*
X79574034Y-63952380D02*
X79574034Y-62952380D01*
X79478796Y-63095238D01*
X79383558Y-63190476D01*
X79288320Y-63238095D01*
X74621653Y-75154761D02*
X74764510Y-75202380D01*
X75002605Y-75202380D01*
X75097844Y-75154761D01*
X75145463Y-75107142D01*
X75193082Y-75011904D01*
X75193082Y-74916666D01*
X75145463Y-74821428D01*
X75097844Y-74773809D01*
X75002605Y-74726190D01*
X74812129Y-74678571D01*
X74716891Y-74630952D01*
X74669272Y-74583333D01*
X74621653Y-74488095D01*
X74621653Y-74392857D01*
X74669272Y-74297619D01*
X74716891Y-74250000D01*
X74812129Y-74202380D01*
X75050225Y-74202380D01*
X75193082Y-74250000D01*
X75574034Y-75154761D02*
X75716891Y-75202380D01*
X75954986Y-75202380D01*
X76050225Y-75154761D01*
X76097844Y-75107142D01*
X76145463Y-75011904D01*
X76145463Y-74916666D01*
X76097844Y-74821428D01*
X76050225Y-74773809D01*
X75954986Y-74726190D01*
X75764510Y-74678571D01*
X75669272Y-74630952D01*
X75621653Y-74583333D01*
X75574034Y-74488095D01*
X75574034Y-74392857D01*
X75621653Y-74297619D01*
X75669272Y-74250000D01*
X75764510Y-74202380D01*
X76002605Y-74202380D01*
X76145463Y-74250000D01*
X76431177Y-74202380D02*
X77002605Y-74202380D01*
X76716891Y-75202380D02*
X76716891Y-74202380D01*
X77240701Y-74202380D02*
X77859748Y-74202380D01*
X77526415Y-74583333D01*
X77669272Y-74583333D01*
X77764510Y-74630952D01*
X77812129Y-74678571D01*
X77859748Y-74773809D01*
X77859748Y-75011904D01*
X77812129Y-75107142D01*
X77764510Y-75154761D01*
X77669272Y-75202380D01*
X77383558Y-75202380D01*
X77288320Y-75154761D01*
X77240701Y-75107142D01*
X78335939Y-75202380D02*
X78526415Y-75202380D01*
X78621653Y-75154761D01*
X78669272Y-75107142D01*
X78764510Y-74964285D01*
X78812129Y-74773809D01*
X78812129Y-74392857D01*
X78764510Y-74297619D01*
X78716891Y-74250000D01*
X78621653Y-74202380D01*
X78431177Y-74202380D01*
X78335939Y-74250000D01*
X78288320Y-74297619D01*
X78240701Y-74392857D01*
X78240701Y-74630952D01*
X78288320Y-74726190D01*
X78335939Y-74773809D01*
X78431177Y-74821428D01*
X78621653Y-74821428D01*
X78716891Y-74773809D01*
X78764510Y-74726190D01*
X78812129Y-74630952D01*
X79193082Y-75154761D02*
X79335939Y-75202380D01*
X79574034Y-75202380D01*
X79669272Y-75154761D01*
X79716891Y-75107142D01*
X79764510Y-75011904D01*
X79764510Y-74916666D01*
X79716891Y-74821428D01*
X79669272Y-74773809D01*
X79574034Y-74726190D01*
X79383558Y-74678571D01*
X79288320Y-74630952D01*
X79240701Y-74583333D01*
X79193082Y-74488095D01*
X79193082Y-74392857D01*
X79240701Y-74297619D01*
X79288320Y-74250000D01*
X79383558Y-74202380D01*
X79621653Y-74202380D01*
X79764510Y-74250000D01*
X80526415Y-74678571D02*
X80193082Y-74678571D01*
X80193082Y-75202380D02*
X80193082Y-74202380D01*
X80669272Y-74202380D01*
X81240701Y-74202380D02*
X81335939Y-74202380D01*
X81431177Y-74250000D01*
X81478796Y-74297619D01*
X81526415Y-74392857D01*
X81574034Y-74583333D01*
X81574034Y-74821428D01*
X81526415Y-75011904D01*
X81478796Y-75107142D01*
X81431177Y-75154761D01*
X81335939Y-75202380D01*
X81240701Y-75202380D01*
X81145463Y-75154761D01*
X81097844Y-75107142D01*
X81050225Y-75011904D01*
X81002605Y-74821428D01*
X81002605Y-74583333D01*
X81050225Y-74392857D01*
X81097844Y-74297619D01*
X81145463Y-74250000D01*
X81240701Y-74202380D01*
X82431177Y-74535714D02*
X82431177Y-75202380D01*
X82193082Y-74154761D02*
X81954986Y-74869047D01*
X82574034Y-74869047D01*
X83145463Y-74202380D02*
X83240701Y-74202380D01*
X83335939Y-74250000D01*
X83383558Y-74297619D01*
X83431177Y-74392857D01*
X83478796Y-74583333D01*
X83478796Y-74821428D01*
X83431177Y-75011904D01*
X83383558Y-75107142D01*
X83335939Y-75154761D01*
X83240701Y-75202380D01*
X83145463Y-75202380D01*
X83050225Y-75154761D01*
X83002605Y-75107142D01*
X82954986Y-75011904D01*
X82907367Y-74821428D01*
X82907367Y-74583333D01*
X82954986Y-74392857D01*
X83002605Y-74297619D01*
X83050225Y-74250000D01*
X83145463Y-74202380D01*
X71947376Y-63232480D02*
X71947376Y-63470576D01*
X71709280Y-63375338D02*
X71947376Y-63470576D01*
X72185471Y-63375338D01*
X71804518Y-63661052D02*
X71947376Y-63470576D01*
X72090233Y-63661052D01*
%TO.C,C1*%
X56927142Y-68916666D02*
X56974761Y-68964285D01*
X57022380Y-69107142D01*
X57022380Y-69202380D01*
X56974761Y-69345238D01*
X56879523Y-69440476D01*
X56784285Y-69488095D01*
X56593809Y-69535714D01*
X56450952Y-69535714D01*
X56260476Y-69488095D01*
X56165238Y-69440476D01*
X56070000Y-69345238D01*
X56022380Y-69202380D01*
X56022380Y-69107142D01*
X56070000Y-68964285D01*
X56117619Y-68916666D01*
X57022380Y-67964285D02*
X57022380Y-68535714D01*
X57022380Y-68250000D02*
X56022380Y-68250000D01*
X56165238Y-68345238D01*
X56260476Y-68440476D01*
X56308095Y-68535714D01*
X59382380Y-70392857D02*
X59382380Y-70297619D01*
X59430000Y-70202380D01*
X59477619Y-70154761D01*
X59572857Y-70107142D01*
X59763333Y-70059523D01*
X60001428Y-70059523D01*
X60191904Y-70107142D01*
X60287142Y-70154761D01*
X60334761Y-70202380D01*
X60382380Y-70297619D01*
X60382380Y-70392857D01*
X60334761Y-70488095D01*
X60287142Y-70535714D01*
X60191904Y-70583333D01*
X60001428Y-70630952D01*
X59763333Y-70630952D01*
X59572857Y-70583333D01*
X59477619Y-70535714D01*
X59430000Y-70488095D01*
X59382380Y-70392857D01*
X60287142Y-69630952D02*
X60334761Y-69583333D01*
X60382380Y-69630952D01*
X60334761Y-69678571D01*
X60287142Y-69630952D01*
X60382380Y-69630952D01*
X60382380Y-68630952D02*
X60382380Y-69202380D01*
X60382380Y-68916666D02*
X59382380Y-68916666D01*
X59525238Y-69011904D01*
X59620476Y-69107142D01*
X59668095Y-69202380D01*
X59715714Y-67773809D02*
X60382380Y-67773809D01*
X59715714Y-68202380D02*
X60239523Y-68202380D01*
X60334761Y-68154761D01*
X60382380Y-68059523D01*
X60382380Y-67916666D01*
X60334761Y-67821428D01*
X60287142Y-67773809D01*
X59858571Y-66964285D02*
X59858571Y-67297619D01*
X60382380Y-67297619D02*
X59382380Y-67297619D01*
X59382380Y-66821428D01*
D12*
%TO.C,JP1*%
X95950000Y-77800000D02*
G75*
G03*
X96650000Y-78500000I700000J0D01*
G01*
X96650000Y-76500000D02*
G75*
G03*
X95950000Y-77200000I0J-700000D01*
G01*
X98750000Y-77200000D02*
G75*
G03*
X98050000Y-76500000I-699999J1D01*
G01*
X98050000Y-78500000D02*
G75*
G03*
X98750000Y-77800000I1J699999D01*
G01*
X98750000Y-77200000D02*
X98750000Y-77800000D01*
X96650000Y-76500000D02*
X98050000Y-76500000D01*
X98050000Y-78500000D02*
X96650000Y-78500000D01*
X95950000Y-77800000D02*
X95950000Y-77200000D01*
%TO.C,U1*%
G36*
X87007524Y-66393000D02*
G01*
X86753524Y-66393000D01*
X86753524Y-66012000D01*
X87007524Y-66012000D01*
X87007524Y-66393000D01*
G37*
D13*
X87007524Y-66393000D02*
X86753524Y-66393000D01*
X86753524Y-66012000D01*
X87007524Y-66012000D01*
X87007524Y-66393000D01*
G36*
X71346926Y-69893001D02*
G01*
X71092926Y-69893001D01*
X71092926Y-69512001D01*
X71346926Y-69512001D01*
X71346926Y-69893001D01*
G37*
X71346926Y-69893001D02*
X71092926Y-69893001D01*
X71092926Y-69512001D01*
X71346926Y-69512001D01*
X71346926Y-69893001D01*
G36*
X87007524Y-71393001D02*
G01*
X86753524Y-71393001D01*
X86753524Y-71012001D01*
X87007524Y-71012001D01*
X87007524Y-71393001D01*
G37*
X87007524Y-71393001D02*
X86753524Y-71393001D01*
X86753524Y-71012001D01*
X87007524Y-71012001D01*
X87007524Y-71393001D01*
D12*
X85133016Y-64774200D02*
X72967434Y-64774200D01*
X72967434Y-73130800D02*
X85133016Y-73130800D01*
%TO.C,C1*%
X58985000Y-69011252D02*
X58985000Y-68488748D01*
X57515000Y-69011252D02*
X57515000Y-68488748D01*
%TD*%
M02*
