G04 #@! TF.GenerationSoftware,KiCad,Pcbnew,(6.0.7-1)-1*
G04 #@! TF.CreationDate,2023-02-13T21:52:59-08:00*
G04 #@! TF.ProjectId,qcard-multicart,71636172-642d-46d7-956c-746963617274,1*
G04 #@! TF.SameCoordinates,Original*
G04 #@! TF.FileFunction,Copper,L2,Bot*
G04 #@! TF.FilePolarity,Positive*
%FSLAX46Y46*%
G04 Gerber Fmt 4.6, Leading zero omitted, Abs format (unit mm)*
G04 Created by KiCad (PCBNEW (6.0.7-1)-1) date 2023-02-13 21:52:59*
%MOMM*%
%LPD*%
G01*
G04 APERTURE LIST*
G04 Aperture macros list*
%AMRoundRect*
0 Rectangle with rounded corners*
0 $1 Rounding radius*
0 $2 $3 $4 $5 $6 $7 $8 $9 X,Y pos of 4 corners*
0 Add a 4 corners polygon primitive as box body*
4,1,4,$2,$3,$4,$5,$6,$7,$8,$9,$2,$3,0*
0 Add four circle primitives for the rounded corners*
1,1,$1+$1,$2,$3*
1,1,$1+$1,$4,$5*
1,1,$1+$1,$6,$7*
1,1,$1+$1,$8,$9*
0 Add four rect primitives between the rounded corners*
20,1,$1+$1,$2,$3,$4,$5,0*
20,1,$1+$1,$4,$5,$6,$7,0*
20,1,$1+$1,$6,$7,$8,$9,0*
20,1,$1+$1,$8,$9,$2,$3,0*%
G04 Aperture macros list end*
G04 #@! TA.AperFunction,ComponentPad*
%ADD10R,1.600000X1.600000*%
G04 #@! TD*
G04 #@! TA.AperFunction,ComponentPad*
%ADD11O,1.600000X1.600000*%
G04 #@! TD*
G04 #@! TA.AperFunction,ConnectorPad*
%ADD12RoundRect,0.375000X-0.375000X-4.625000X0.375000X-4.625000X0.375000X4.625000X-0.375000X4.625000X0*%
G04 #@! TD*
G04 #@! TA.AperFunction,SMDPad,CuDef*
%ADD13RoundRect,0.250000X-0.450000X0.350000X-0.450000X-0.350000X0.450000X-0.350000X0.450000X0.350000X0*%
G04 #@! TD*
G04 #@! TA.AperFunction,SMDPad,CuDef*
%ADD14RoundRect,0.250000X-0.337500X-0.475000X0.337500X-0.475000X0.337500X0.475000X-0.337500X0.475000X0*%
G04 #@! TD*
G04 #@! TA.AperFunction,SMDPad,CuDef*
%ADD15RoundRect,0.150000X0.150000X-0.512500X0.150000X0.512500X-0.150000X0.512500X-0.150000X-0.512500X0*%
G04 #@! TD*
G04 #@! TA.AperFunction,ViaPad*
%ADD16C,0.685800*%
G04 #@! TD*
G04 #@! TA.AperFunction,ViaPad*
%ADD17C,0.889000*%
G04 #@! TD*
G04 #@! TA.AperFunction,Conductor*
%ADD18C,0.152400*%
G04 #@! TD*
G04 #@! TA.AperFunction,Conductor*
%ADD19C,0.508000*%
G04 #@! TD*
G04 #@! TA.AperFunction,Conductor*
%ADD20C,0.762000*%
G04 #@! TD*
G04 APERTURE END LIST*
D10*
X100800000Y-36500000D03*
D11*
X98260000Y-36500000D03*
X95720000Y-36500000D03*
X93180000Y-36500000D03*
X93180000Y-44120000D03*
X95720000Y-44120000D03*
X98260000Y-44120000D03*
X100800000Y-44120000D03*
D12*
X75380000Y-75500000D03*
X77920000Y-75500000D03*
X80460000Y-75500000D03*
X83000000Y-75500000D03*
X85540000Y-75500000D03*
X88080000Y-75500000D03*
X90620000Y-75500000D03*
X93160000Y-75500000D03*
X95700000Y-75500000D03*
X98240000Y-75500000D03*
X100780000Y-75500000D03*
X103320000Y-75500000D03*
X105860000Y-75500000D03*
X108400000Y-75500000D03*
X110940000Y-75500000D03*
X113480000Y-75500000D03*
X116020000Y-75500000D03*
X118560000Y-75500000D03*
D13*
X98300000Y-48000000D03*
X98300000Y-50000000D03*
X95700000Y-48000000D03*
X95700000Y-50000000D03*
D14*
X78562500Y-64800000D03*
X80637500Y-64800000D03*
D13*
X93200000Y-48000000D03*
X93200000Y-50000000D03*
D14*
X78562500Y-62400000D03*
X80637500Y-62400000D03*
D15*
X76350000Y-64837500D03*
X75400000Y-64837500D03*
X74450000Y-64837500D03*
X74450000Y-62562500D03*
X76350000Y-62562500D03*
D13*
X100800000Y-48000000D03*
X100800000Y-50000000D03*
D16*
X83900000Y-67900000D03*
X88800000Y-53800000D03*
X90000000Y-54200000D03*
X91425601Y-54174399D03*
X89500000Y-55922600D03*
D17*
X109000000Y-55750000D03*
D16*
X85400000Y-56400000D03*
X96100000Y-51300000D03*
X85272600Y-59400000D03*
X87100000Y-68400000D03*
X89500000Y-67600000D03*
X89500000Y-62100000D03*
X91800000Y-62900000D03*
X92527400Y-67900000D03*
X95700000Y-62900000D03*
X95700000Y-68700000D03*
X97300000Y-62900000D03*
X97300000Y-67800000D03*
X106700000Y-64627400D03*
X103700000Y-66400000D03*
D17*
X117300000Y-68900000D03*
D16*
X97000000Y-40500000D03*
X120000000Y-40500000D03*
X106500000Y-49000000D03*
D17*
X74400000Y-66900000D03*
X78100000Y-66900000D03*
D16*
X74000000Y-40500000D03*
X120000000Y-67000000D03*
X88000000Y-49000000D03*
X105000000Y-61000000D03*
X109800000Y-68300000D03*
X109800000Y-64600000D03*
X113400000Y-60400000D03*
X111100000Y-68100000D03*
X108400000Y-66200000D03*
X105675601Y-66424399D03*
X102500000Y-62900000D03*
X89100000Y-60422600D03*
X97100000Y-48100000D03*
X99600000Y-48100000D03*
X98600000Y-52300000D03*
D18*
X83000000Y-68800000D02*
X83000000Y-75500000D01*
X83900000Y-67900000D02*
X83000000Y-68800000D01*
X88800000Y-53800000D02*
X88800000Y-56174508D01*
X89200000Y-56574508D02*
X89200000Y-59400000D01*
X85540000Y-65060000D02*
X85540000Y-75500000D01*
X89773100Y-59973100D02*
X89773100Y-60826900D01*
X89773100Y-60826900D02*
X85540000Y-65060000D01*
X88800000Y-56174508D02*
X89200000Y-56574508D01*
X89200000Y-59400000D02*
X89773100Y-59973100D01*
X93200000Y-56900000D02*
X93200000Y-75460000D01*
X90500000Y-54200000D02*
X93200000Y-56900000D01*
X90000000Y-54200000D02*
X90500000Y-54200000D01*
X93200000Y-75460000D02*
X93160000Y-75500000D01*
X91425601Y-54174399D02*
X94826307Y-54174399D01*
X98000000Y-57348092D02*
X98000000Y-75260000D01*
X98000000Y-75260000D02*
X98240000Y-75500000D01*
X94826307Y-54174399D02*
X98000000Y-57348092D01*
X89500000Y-55922600D02*
X90700000Y-57122600D01*
X90700000Y-75420000D02*
X90620000Y-75500000D01*
X90700000Y-57122600D02*
X90700000Y-75420000D01*
D19*
X75380000Y-69020000D02*
X76350000Y-68050000D01*
D18*
X74450000Y-64837500D02*
X74450000Y-64445895D01*
X75944800Y-63844800D02*
X76350000Y-64250000D01*
X75051095Y-63844800D02*
X75944800Y-63844800D01*
D19*
X75380000Y-75500000D02*
X75380000Y-69020000D01*
X76387500Y-64800000D02*
X76350000Y-64837500D01*
D18*
X76350000Y-64250000D02*
X76350000Y-64837500D01*
D19*
X76350000Y-68050000D02*
X76350000Y-64837500D01*
X78562500Y-64800000D02*
X76387500Y-64800000D01*
D18*
X74450000Y-64445895D02*
X75051095Y-63844800D01*
D19*
X92000000Y-53200000D02*
X91100000Y-52300000D01*
X76350000Y-62562500D02*
X76350000Y-61750000D01*
X81700000Y-56400000D02*
X85400000Y-56400000D01*
X76350000Y-61750000D02*
X81700000Y-56400000D01*
X91400000Y-36500000D02*
X93180000Y-36500000D01*
X109000000Y-55750000D02*
X98250000Y-55750000D01*
X85800000Y-42100000D02*
X91400000Y-36500000D01*
X76512500Y-62400000D02*
X76350000Y-62562500D01*
X85800000Y-52300000D02*
X85800000Y-42100000D01*
X91100000Y-52300000D02*
X85800000Y-52300000D01*
X81700000Y-56400000D02*
X85800000Y-52300000D01*
X95700000Y-53200000D02*
X92000000Y-53200000D01*
X78562500Y-62400000D02*
X76512500Y-62400000D01*
X93180000Y-36500000D02*
X100800000Y-36500000D01*
X98250000Y-55750000D02*
X95700000Y-53200000D01*
D18*
X97000000Y-50400000D02*
X97000000Y-49300000D01*
X96100000Y-51300000D02*
X97000000Y-50400000D01*
X97000000Y-49300000D02*
X95700000Y-48000000D01*
X95720000Y-47980000D02*
X95700000Y-48000000D01*
X95720000Y-44120000D02*
X95720000Y-47980000D01*
X77920000Y-70580000D02*
X77920000Y-75500000D01*
X83000000Y-65500000D02*
X77920000Y-70580000D01*
X85272600Y-59400000D02*
X83000000Y-61672600D01*
X83000000Y-61672600D02*
X83000000Y-65500000D01*
X88080000Y-69380000D02*
X88080000Y-75500000D01*
X87100000Y-68400000D02*
X88080000Y-69380000D01*
X89500000Y-67600000D02*
X89500000Y-62100000D01*
X92527400Y-63627400D02*
X92527400Y-67900000D01*
X91800000Y-62900000D02*
X92527400Y-63627400D01*
X95700000Y-62900000D02*
X95700000Y-68700000D01*
X97327400Y-62927400D02*
X97327400Y-67772600D01*
X97327400Y-67772600D02*
X97300000Y-67800000D01*
X97300000Y-62900000D02*
X97327400Y-62927400D01*
X106700000Y-64627400D02*
X105472600Y-64627400D01*
X105472600Y-64627400D02*
X103700000Y-66400000D01*
D20*
X118560000Y-70160000D02*
X118560000Y-75500000D01*
X116020000Y-70180000D02*
X116020000Y-75500000D01*
X117300000Y-68900000D02*
X118560000Y-70160000D01*
X117300000Y-68900000D02*
X116020000Y-70180000D01*
D18*
X109800000Y-64600000D02*
X109800000Y-68300000D01*
X113400000Y-60400000D02*
X113480000Y-60480000D01*
X113480000Y-60480000D02*
X113480000Y-75500000D01*
X111100000Y-75340000D02*
X110940000Y-75500000D01*
X111100000Y-68100000D02*
X111100000Y-75340000D01*
X108400000Y-75500000D02*
X108400000Y-66200000D01*
X105800000Y-66548798D02*
X105800000Y-75440000D01*
X105800000Y-75440000D02*
X105860000Y-75500000D01*
X105675601Y-66424399D02*
X105800000Y-66548798D01*
X103300000Y-75480000D02*
X103320000Y-75500000D01*
X102475601Y-62924399D02*
X102475601Y-66975601D01*
X102500000Y-62900000D02*
X102475601Y-62924399D01*
X103300000Y-67800000D02*
X103300000Y-75480000D01*
X102475601Y-66975601D02*
X103300000Y-67800000D01*
X88077400Y-60422600D02*
X83700000Y-64800000D01*
X89100000Y-60422600D02*
X88077400Y-60422600D01*
X83700000Y-66400000D02*
X80460000Y-69640000D01*
X83700000Y-64800000D02*
X83700000Y-66400000D01*
X80460000Y-69640000D02*
X80460000Y-75500000D01*
X98260000Y-47960000D02*
X98300000Y-48000000D01*
X98260000Y-44120000D02*
X98260000Y-47960000D01*
X98200000Y-48100000D02*
X98300000Y-48000000D01*
X97100000Y-48100000D02*
X98200000Y-48100000D01*
X100800000Y-44120000D02*
X100800000Y-48000000D01*
X100700000Y-48100000D02*
X100800000Y-48000000D01*
X99600000Y-48100000D02*
X100700000Y-48100000D01*
X93180000Y-47980000D02*
X93200000Y-48000000D01*
X96148092Y-52300000D02*
X94500000Y-50651908D01*
X98600000Y-52300000D02*
X96148092Y-52300000D01*
X93180000Y-44120000D02*
X93180000Y-47980000D01*
X94500000Y-49300000D02*
X93200000Y-48000000D01*
X94500000Y-50651908D02*
X94500000Y-49300000D01*
G04 #@! TA.AperFunction,Conductor*
G36*
X88481539Y-53082185D02*
G01*
X88527294Y-53134989D01*
X88537238Y-53204147D01*
X88508213Y-53267703D01*
X88489986Y-53284876D01*
X88373929Y-53373929D01*
X88278172Y-53498723D01*
X88275064Y-53506227D01*
X88275062Y-53506230D01*
X88227487Y-53621088D01*
X88217977Y-53644047D01*
X88197445Y-53800000D01*
X88217977Y-53955953D01*
X88221088Y-53963463D01*
X88221088Y-53963464D01*
X88275062Y-54093770D01*
X88275064Y-54093773D01*
X88278172Y-54101277D01*
X88373929Y-54226071D01*
X88380372Y-54231015D01*
X88380377Y-54231020D01*
X88420787Y-54262028D01*
X88461990Y-54318456D01*
X88469300Y-54360403D01*
X88469300Y-56154653D01*
X88468828Y-56165460D01*
X88465476Y-56203775D01*
X88468284Y-56214255D01*
X88475429Y-56240923D01*
X88477770Y-56251482D01*
X88484449Y-56289359D01*
X88489872Y-56298752D01*
X88491202Y-56302407D01*
X88492852Y-56305945D01*
X88495660Y-56316424D01*
X88517731Y-56347945D01*
X88523523Y-56357037D01*
X88542761Y-56390357D01*
X88551071Y-56397330D01*
X88551072Y-56397331D01*
X88572227Y-56415082D01*
X88580202Y-56422390D01*
X88832981Y-56675169D01*
X88866466Y-56736492D01*
X88869300Y-56762850D01*
X88869300Y-59380145D01*
X88868828Y-59390952D01*
X88865476Y-59429267D01*
X88868284Y-59439747D01*
X88875429Y-59466415D01*
X88877770Y-59476974D01*
X88884449Y-59514851D01*
X88889872Y-59524244D01*
X88891202Y-59527899D01*
X88892852Y-59531437D01*
X88895660Y-59541916D01*
X88917731Y-59573437D01*
X88923523Y-59582529D01*
X88942761Y-59615849D01*
X88951071Y-59622822D01*
X88951072Y-59622823D01*
X88965956Y-59635312D01*
X89004658Y-59693483D01*
X89005766Y-59763344D01*
X88968929Y-59822714D01*
X88933702Y-59844862D01*
X88806233Y-59897661D01*
X88806231Y-59897662D01*
X88798723Y-59900772D01*
X88673929Y-59996529D01*
X88668983Y-60002975D01*
X88637975Y-60043386D01*
X88581548Y-60084589D01*
X88539599Y-60091900D01*
X88097244Y-60091900D01*
X88086437Y-60091428D01*
X88058940Y-60089022D01*
X88058937Y-60089022D01*
X88048133Y-60088077D01*
X88010993Y-60098028D01*
X88000433Y-60100369D01*
X87962549Y-60107049D01*
X87953152Y-60112474D01*
X87949493Y-60113806D01*
X87945964Y-60115451D01*
X87935483Y-60118260D01*
X87926595Y-60124484D01*
X87926592Y-60124485D01*
X87903979Y-60140319D01*
X87894856Y-60146132D01*
X87870943Y-60159938D01*
X87870941Y-60159939D01*
X87861551Y-60165361D01*
X87854579Y-60173670D01*
X87836826Y-60194827D01*
X87829518Y-60202802D01*
X83542381Y-64489939D01*
X83481058Y-64523424D01*
X83411366Y-64518440D01*
X83355433Y-64476568D01*
X83331016Y-64411104D01*
X83330700Y-64402258D01*
X83330700Y-61860942D01*
X83350385Y-61793903D01*
X83367019Y-61773261D01*
X85110177Y-60030104D01*
X85171500Y-59996619D01*
X85214043Y-59994846D01*
X85264540Y-60001494D01*
X85264541Y-60001494D01*
X85272600Y-60002555D01*
X85428553Y-59982023D01*
X85436064Y-59978912D01*
X85436067Y-59978911D01*
X85566365Y-59924940D01*
X85573878Y-59921828D01*
X85698671Y-59826071D01*
X85794428Y-59701277D01*
X85797536Y-59693773D01*
X85797538Y-59693770D01*
X85851512Y-59563464D01*
X85851512Y-59563463D01*
X85854623Y-59555953D01*
X85875155Y-59400000D01*
X85854623Y-59244047D01*
X85841207Y-59211658D01*
X85797538Y-59106230D01*
X85797536Y-59106227D01*
X85794428Y-59098723D01*
X85698671Y-58973929D01*
X85573878Y-58878172D01*
X85566365Y-58875060D01*
X85436067Y-58821089D01*
X85436064Y-58821088D01*
X85428553Y-58817977D01*
X85272600Y-58797445D01*
X85116647Y-58817977D01*
X85109137Y-58821088D01*
X85109136Y-58821088D01*
X84978830Y-58875062D01*
X84978827Y-58875064D01*
X84971323Y-58878172D01*
X84846529Y-58973929D01*
X84750772Y-59098723D01*
X84747664Y-59106227D01*
X84747662Y-59106230D01*
X84703993Y-59211658D01*
X84690577Y-59244047D01*
X84670045Y-59400000D01*
X84671106Y-59408059D01*
X84671106Y-59408060D01*
X84677754Y-59458557D01*
X84666988Y-59527592D01*
X84642496Y-59562423D01*
X82780202Y-61424718D01*
X82772228Y-61432025D01*
X82742761Y-61456751D01*
X82723523Y-61490071D01*
X82717731Y-61499163D01*
X82695660Y-61530684D01*
X82692852Y-61541163D01*
X82691202Y-61544701D01*
X82689872Y-61548356D01*
X82684449Y-61557749D01*
X82682565Y-61568432D01*
X82682565Y-61568433D01*
X82677770Y-61595626D01*
X82675429Y-61606185D01*
X82665476Y-61643333D01*
X82666421Y-61654137D01*
X82666421Y-61654140D01*
X82668828Y-61681648D01*
X82669300Y-61692455D01*
X82669300Y-65311658D01*
X82649615Y-65378697D01*
X82632981Y-65399339D01*
X77823138Y-70209182D01*
X77761815Y-70242667D01*
X77735457Y-70245501D01*
X77481434Y-70245501D01*
X77479020Y-70245691D01*
X77479018Y-70245691D01*
X77452058Y-70247812D01*
X77452057Y-70247812D01*
X77445742Y-70248309D01*
X77419896Y-70255818D01*
X77300512Y-70290502D01*
X77293008Y-70292682D01*
X77156109Y-70373644D01*
X77043644Y-70486109D01*
X76962682Y-70623008D01*
X76960505Y-70630500D01*
X76960505Y-70630501D01*
X76957134Y-70642104D01*
X76918309Y-70775742D01*
X76915500Y-70811433D01*
X76915500Y-70876000D01*
X76895815Y-70943039D01*
X76843011Y-70988794D01*
X76791500Y-71000000D01*
X76762499Y-71000000D01*
X76695460Y-70980315D01*
X76649705Y-70927511D01*
X76638499Y-70876000D01*
X76638499Y-70813158D01*
X76634472Y-70761980D01*
X76632876Y-70741692D01*
X76632875Y-70741688D01*
X76632430Y-70736029D01*
X76602146Y-70623008D01*
X76586044Y-70562914D01*
X76586043Y-70562911D01*
X76584362Y-70556638D01*
X76541102Y-70471736D01*
X76502998Y-70396952D01*
X76502996Y-70396950D01*
X76500047Y-70391161D01*
X76493234Y-70382747D01*
X76387257Y-70251877D01*
X76383170Y-70246830D01*
X76238839Y-70129953D01*
X76233046Y-70127001D01*
X76233044Y-70127000D01*
X76210204Y-70115362D01*
X76159409Y-70067388D01*
X76142500Y-70004878D01*
X76142500Y-69387200D01*
X76162185Y-69320161D01*
X76178819Y-69299519D01*
X76841636Y-68636702D01*
X76855821Y-68624512D01*
X76867757Y-68615728D01*
X76867760Y-68615725D01*
X76873564Y-68611454D01*
X76908040Y-68570873D01*
X76914850Y-68563488D01*
X76920653Y-68557685D01*
X76938425Y-68535221D01*
X76941102Y-68531956D01*
X76988684Y-68475949D01*
X76991962Y-68469530D01*
X76995420Y-68464345D01*
X76998690Y-68459050D01*
X77003160Y-68453400D01*
X77034263Y-68386851D01*
X77036145Y-68383002D01*
X77066268Y-68324012D01*
X77066271Y-68324003D01*
X77069543Y-68317596D01*
X77071254Y-68310604D01*
X77073426Y-68304763D01*
X77075395Y-68298845D01*
X77078444Y-68292321D01*
X77082270Y-68273929D01*
X77093403Y-68220401D01*
X77094359Y-68216179D01*
X77097952Y-68201494D01*
X77111804Y-68144888D01*
X77112500Y-68133670D01*
X77112542Y-68133673D01*
X77112762Y-68130047D01*
X77113186Y-68125290D01*
X77114652Y-68118244D01*
X77112545Y-68040386D01*
X77112500Y-68037032D01*
X77112500Y-65686500D01*
X77132185Y-65619461D01*
X77184989Y-65573706D01*
X77236500Y-65562500D01*
X77441808Y-65562500D01*
X77508847Y-65582185D01*
X77547252Y-65621250D01*
X77622083Y-65742174D01*
X77626522Y-65749348D01*
X77631617Y-65754434D01*
X77631620Y-65754438D01*
X77746603Y-65869220D01*
X77751697Y-65874305D01*
X77902262Y-65967115D01*
X77909100Y-65969383D01*
X78063716Y-66020667D01*
X78063719Y-66020668D01*
X78070139Y-66022797D01*
X78076871Y-66023487D01*
X78076872Y-66023487D01*
X78171454Y-66033178D01*
X78171461Y-66033178D01*
X78174600Y-66033500D01*
X78950400Y-66033500D01*
X79056166Y-66022526D01*
X79223946Y-65966550D01*
X79319337Y-65907520D01*
X79368223Y-65877269D01*
X79368227Y-65877266D01*
X79374348Y-65873478D01*
X79379434Y-65868383D01*
X79379438Y-65868380D01*
X79494220Y-65753397D01*
X79494220Y-65753396D01*
X79499305Y-65748303D01*
X79592115Y-65597738D01*
X79619983Y-65513719D01*
X79659771Y-65456286D01*
X79724294Y-65429481D01*
X79793066Y-65441815D01*
X79844253Y-65489373D01*
X79853785Y-65509225D01*
X79853818Y-65509314D01*
X79862212Y-65524646D01*
X79937516Y-65625124D01*
X79949876Y-65637484D01*
X80050354Y-65712788D01*
X80065689Y-65721183D01*
X80184247Y-65765629D01*
X80199256Y-65769197D01*
X80249331Y-65774637D01*
X80256028Y-65775000D01*
X80494670Y-65775000D01*
X80509669Y-65770596D01*
X80510856Y-65769226D01*
X80512500Y-65761668D01*
X80512500Y-65757170D01*
X80762500Y-65757170D01*
X80766904Y-65772169D01*
X80768274Y-65773356D01*
X80775832Y-65775000D01*
X81018972Y-65775000D01*
X81025669Y-65774637D01*
X81075744Y-65769197D01*
X81090753Y-65765629D01*
X81209311Y-65721183D01*
X81224646Y-65712788D01*
X81325124Y-65637484D01*
X81337484Y-65625124D01*
X81412788Y-65524646D01*
X81421183Y-65509311D01*
X81465629Y-65390753D01*
X81469197Y-65375744D01*
X81474637Y-65325669D01*
X81475000Y-65318972D01*
X81475000Y-64942830D01*
X81470596Y-64927831D01*
X81469226Y-64926644D01*
X81461668Y-64925000D01*
X80780330Y-64925000D01*
X80765331Y-64929404D01*
X80764144Y-64930774D01*
X80762500Y-64938332D01*
X80762500Y-65757170D01*
X80512500Y-65757170D01*
X80512500Y-64657170D01*
X80762500Y-64657170D01*
X80766904Y-64672169D01*
X80768274Y-64673356D01*
X80775832Y-64675000D01*
X81457170Y-64675000D01*
X81472169Y-64670596D01*
X81473356Y-64669226D01*
X81475000Y-64661668D01*
X81475000Y-64281028D01*
X81474637Y-64274331D01*
X81469197Y-64224256D01*
X81465629Y-64209247D01*
X81421183Y-64090689D01*
X81412788Y-64075354D01*
X81337484Y-63974876D01*
X81325124Y-63962516D01*
X81224646Y-63887212D01*
X81209311Y-63878817D01*
X81090753Y-63834371D01*
X81075744Y-63830803D01*
X81025669Y-63825363D01*
X81018972Y-63825000D01*
X80780330Y-63825000D01*
X80765331Y-63829404D01*
X80764144Y-63830774D01*
X80762500Y-63838332D01*
X80762500Y-64657170D01*
X80512500Y-64657170D01*
X80512500Y-63842830D01*
X80508096Y-63827831D01*
X80506726Y-63826644D01*
X80499168Y-63825000D01*
X80256028Y-63825000D01*
X80249331Y-63825363D01*
X80199256Y-63830803D01*
X80184247Y-63834371D01*
X80065689Y-63878817D01*
X80050354Y-63887212D01*
X79949876Y-63962516D01*
X79937516Y-63974876D01*
X79862212Y-64075354D01*
X79853819Y-64090685D01*
X79853787Y-64090770D01*
X79853733Y-64090842D01*
X79849575Y-64098437D01*
X79848478Y-64097837D01*
X79811822Y-64146633D01*
X79746316Y-64170940D01*
X79678068Y-64155973D01*
X79628746Y-64106485D01*
X79620052Y-64086485D01*
X79616339Y-64075354D01*
X79591550Y-64001054D01*
X79549763Y-63933526D01*
X79502269Y-63856777D01*
X79502266Y-63856773D01*
X79498478Y-63850652D01*
X79493383Y-63845566D01*
X79493380Y-63845562D01*
X79378397Y-63730780D01*
X79378396Y-63730780D01*
X79373303Y-63725695D01*
X79357340Y-63715855D01*
X79340553Y-63705507D01*
X79293813Y-63653573D01*
X79282571Y-63584614D01*
X79310396Y-63520523D01*
X79340367Y-63494507D01*
X79368220Y-63477271D01*
X79368225Y-63477267D01*
X79374348Y-63473478D01*
X79379434Y-63468383D01*
X79379438Y-63468380D01*
X79494220Y-63353397D01*
X79494220Y-63353396D01*
X79499305Y-63348303D01*
X79592115Y-63197738D01*
X79619983Y-63113719D01*
X79659771Y-63056286D01*
X79724294Y-63029481D01*
X79793066Y-63041815D01*
X79844253Y-63089373D01*
X79853785Y-63109225D01*
X79853818Y-63109314D01*
X79862212Y-63124646D01*
X79937516Y-63225124D01*
X79949876Y-63237484D01*
X80050354Y-63312788D01*
X80065689Y-63321183D01*
X80184247Y-63365629D01*
X80199256Y-63369197D01*
X80249331Y-63374637D01*
X80256028Y-63375000D01*
X80494670Y-63375000D01*
X80509669Y-63370596D01*
X80510856Y-63369226D01*
X80512500Y-63361668D01*
X80512500Y-63357170D01*
X80762500Y-63357170D01*
X80766904Y-63372169D01*
X80768274Y-63373356D01*
X80775832Y-63375000D01*
X81018972Y-63375000D01*
X81025669Y-63374637D01*
X81075744Y-63369197D01*
X81090753Y-63365629D01*
X81209311Y-63321183D01*
X81224646Y-63312788D01*
X81325124Y-63237484D01*
X81337484Y-63225124D01*
X81412788Y-63124646D01*
X81421183Y-63109311D01*
X81465629Y-62990753D01*
X81469197Y-62975744D01*
X81474637Y-62925669D01*
X81475000Y-62918972D01*
X81475000Y-62542830D01*
X81470596Y-62527831D01*
X81469226Y-62526644D01*
X81461668Y-62525000D01*
X80780330Y-62525000D01*
X80765331Y-62529404D01*
X80764144Y-62530774D01*
X80762500Y-62538332D01*
X80762500Y-63357170D01*
X80512500Y-63357170D01*
X80512500Y-62257170D01*
X80762500Y-62257170D01*
X80766904Y-62272169D01*
X80768274Y-62273356D01*
X80775832Y-62275000D01*
X81457170Y-62275000D01*
X81472169Y-62270596D01*
X81473356Y-62269226D01*
X81475000Y-62261668D01*
X81475000Y-61881028D01*
X81474637Y-61874331D01*
X81469197Y-61824256D01*
X81465629Y-61809247D01*
X81421183Y-61690689D01*
X81412788Y-61675354D01*
X81337484Y-61574876D01*
X81325124Y-61562516D01*
X81224646Y-61487212D01*
X81209311Y-61478817D01*
X81090753Y-61434371D01*
X81075744Y-61430803D01*
X81025669Y-61425363D01*
X81018972Y-61425000D01*
X80780330Y-61425000D01*
X80765331Y-61429404D01*
X80764144Y-61430774D01*
X80762500Y-61438332D01*
X80762500Y-62257170D01*
X80512500Y-62257170D01*
X80512500Y-61442830D01*
X80508096Y-61427831D01*
X80506726Y-61426644D01*
X80499168Y-61425000D01*
X80256028Y-61425000D01*
X80249331Y-61425363D01*
X80199256Y-61430803D01*
X80184247Y-61434371D01*
X80065689Y-61478817D01*
X80050354Y-61487212D01*
X79949876Y-61562516D01*
X79937516Y-61574876D01*
X79862212Y-61675354D01*
X79853819Y-61690685D01*
X79853787Y-61690770D01*
X79853733Y-61690842D01*
X79849575Y-61698437D01*
X79848478Y-61697837D01*
X79811822Y-61746633D01*
X79746316Y-61770940D01*
X79678068Y-61755973D01*
X79628746Y-61706485D01*
X79620052Y-61686485D01*
X79616339Y-61675354D01*
X79591550Y-61601054D01*
X79528508Y-61499179D01*
X79502269Y-61456777D01*
X79502266Y-61456773D01*
X79498478Y-61450652D01*
X79493383Y-61445566D01*
X79493380Y-61445562D01*
X79378397Y-61330780D01*
X79378396Y-61330780D01*
X79373303Y-61325695D01*
X79222738Y-61232885D01*
X79158276Y-61211504D01*
X79061284Y-61179333D01*
X79061281Y-61179332D01*
X79054861Y-61177203D01*
X79048129Y-61176513D01*
X79048128Y-61176513D01*
X78953546Y-61166822D01*
X78953539Y-61166822D01*
X78950400Y-61166500D01*
X78311200Y-61166500D01*
X78244161Y-61146815D01*
X78198406Y-61094011D01*
X78188462Y-61024853D01*
X78217487Y-60961297D01*
X78223519Y-60954819D01*
X81979519Y-57198819D01*
X82040842Y-57165334D01*
X82067200Y-57162500D01*
X84992999Y-57162500D01*
X85043433Y-57173220D01*
X85135454Y-57214190D01*
X85141816Y-57215542D01*
X85141815Y-57215542D01*
X85304151Y-57250048D01*
X85304156Y-57250048D01*
X85310514Y-57251400D01*
X85489486Y-57251400D01*
X85495844Y-57250048D01*
X85495849Y-57250048D01*
X85658185Y-57215542D01*
X85658184Y-57215542D01*
X85664546Y-57214190D01*
X85702505Y-57197290D01*
X85822109Y-57144039D01*
X85822110Y-57144038D01*
X85828045Y-57141396D01*
X85945324Y-57056188D01*
X85967577Y-57040020D01*
X85967578Y-57040019D01*
X85972836Y-57036199D01*
X86077592Y-56919855D01*
X86088244Y-56908025D01*
X86088245Y-56908024D01*
X86092591Y-56903197D01*
X86160746Y-56785149D01*
X86178829Y-56753829D01*
X86178830Y-56753828D01*
X86182077Y-56748203D01*
X86220680Y-56629394D01*
X86235374Y-56584172D01*
X86235375Y-56584169D01*
X86237382Y-56577991D01*
X86256090Y-56400000D01*
X86237382Y-56222009D01*
X86231458Y-56203775D01*
X86184084Y-56057975D01*
X86182077Y-56051797D01*
X86092591Y-55896803D01*
X85984485Y-55776738D01*
X85977185Y-55768631D01*
X85972836Y-55763801D01*
X85828045Y-55658604D01*
X85822109Y-55655961D01*
X85670485Y-55588454D01*
X85670483Y-55588453D01*
X85664546Y-55585810D01*
X85638781Y-55580334D01*
X85495849Y-55549952D01*
X85495844Y-55549952D01*
X85489486Y-55548600D01*
X85310514Y-55548600D01*
X85304156Y-55549952D01*
X85304151Y-55549952D01*
X85161219Y-55580334D01*
X85135454Y-55585810D01*
X85043434Y-55626780D01*
X84992999Y-55637500D01*
X83840200Y-55637500D01*
X83773161Y-55617815D01*
X83727406Y-55565011D01*
X83717462Y-55495853D01*
X83746487Y-55432297D01*
X83752519Y-55425819D01*
X86079519Y-53098819D01*
X86140842Y-53065334D01*
X86167200Y-53062500D01*
X88414500Y-53062500D01*
X88481539Y-53082185D01*
G37*
G04 #@! TD.AperFunction*
G04 #@! TA.AperFunction,Conductor*
G36*
X124192539Y-35270185D02*
G01*
X124238294Y-35322989D01*
X124249500Y-35374500D01*
X124249500Y-70375500D01*
X124229815Y-70442539D01*
X124177011Y-70488294D01*
X124125500Y-70499500D01*
X121036885Y-70499500D01*
X121012694Y-70497117D01*
X121011980Y-70496975D01*
X121000000Y-70494592D01*
X120975326Y-70499500D01*
X120902260Y-70514034D01*
X120892106Y-70520819D01*
X120892105Y-70520819D01*
X120829552Y-70562615D01*
X120819399Y-70569399D01*
X120764034Y-70652260D01*
X120744592Y-70750000D01*
X120746975Y-70761980D01*
X120747117Y-70762694D01*
X120749500Y-70786885D01*
X120749500Y-70876000D01*
X120729815Y-70943039D01*
X120677011Y-70988794D01*
X120625500Y-71000000D01*
X119684000Y-71000000D01*
X119616961Y-70980315D01*
X119571206Y-70927511D01*
X119560000Y-70876000D01*
X119560000Y-70814333D01*
X119559808Y-70809453D01*
X119557708Y-70782768D01*
X119555442Y-70770363D01*
X119515332Y-70632303D01*
X119509184Y-70618095D01*
X119436744Y-70495606D01*
X119427253Y-70483370D01*
X119326630Y-70382747D01*
X119314394Y-70373256D01*
X119191905Y-70300816D01*
X119177697Y-70294668D01*
X119039637Y-70254558D01*
X119027232Y-70252292D01*
X119000547Y-70250192D01*
X118995667Y-70250000D01*
X118702830Y-70250000D01*
X118687831Y-70254404D01*
X118686644Y-70255774D01*
X118685000Y-70263332D01*
X118685000Y-71000000D01*
X118435000Y-71000000D01*
X118435000Y-70267830D01*
X118430596Y-70252831D01*
X118429226Y-70251644D01*
X118421668Y-70250000D01*
X118124333Y-70250000D01*
X118119453Y-70250192D01*
X118092768Y-70252292D01*
X118080363Y-70254558D01*
X117942303Y-70294668D01*
X117928095Y-70300816D01*
X117805606Y-70373256D01*
X117793370Y-70382747D01*
X117692747Y-70483370D01*
X117683256Y-70495606D01*
X117610816Y-70618095D01*
X117604668Y-70632303D01*
X117564558Y-70770363D01*
X117562292Y-70782768D01*
X117560192Y-70809453D01*
X117560000Y-70814333D01*
X117560000Y-70876000D01*
X117540315Y-70943039D01*
X117487511Y-70988794D01*
X117436000Y-71000000D01*
X117144000Y-71000000D01*
X117076961Y-70980315D01*
X117031206Y-70927511D01*
X117020000Y-70876000D01*
X117020000Y-70814333D01*
X117019808Y-70809453D01*
X117017708Y-70782768D01*
X117015442Y-70770363D01*
X116975332Y-70632303D01*
X116969184Y-70618095D01*
X116896744Y-70495606D01*
X116887253Y-70483370D01*
X116786630Y-70382747D01*
X116774394Y-70373256D01*
X116651905Y-70300816D01*
X116637697Y-70294668D01*
X116499637Y-70254558D01*
X116487232Y-70252292D01*
X116460547Y-70250192D01*
X116455667Y-70250000D01*
X116162830Y-70250000D01*
X116147831Y-70254404D01*
X116146644Y-70255774D01*
X116145000Y-70263332D01*
X116145000Y-71000000D01*
X115895000Y-71000000D01*
X115895000Y-70267830D01*
X115890596Y-70252831D01*
X115889226Y-70251644D01*
X115881668Y-70250000D01*
X115584333Y-70250000D01*
X115579453Y-70250192D01*
X115552768Y-70252292D01*
X115540363Y-70254558D01*
X115402303Y-70294668D01*
X115388095Y-70300816D01*
X115265606Y-70373256D01*
X115253370Y-70382747D01*
X115152747Y-70483370D01*
X115143256Y-70495606D01*
X115070816Y-70618095D01*
X115064668Y-70632303D01*
X115024558Y-70770363D01*
X115022292Y-70782768D01*
X115020192Y-70809453D01*
X115020000Y-70814333D01*
X115020000Y-70876000D01*
X115000315Y-70943039D01*
X114947511Y-70988794D01*
X114896000Y-71000000D01*
X114608499Y-71000000D01*
X114541460Y-70980315D01*
X114495705Y-70927511D01*
X114484499Y-70876000D01*
X114484499Y-70811434D01*
X114481691Y-70775742D01*
X114442866Y-70642104D01*
X114439495Y-70630501D01*
X114439495Y-70630500D01*
X114437318Y-70623008D01*
X114356356Y-70486109D01*
X114243891Y-70373644D01*
X114106992Y-70292682D01*
X114099489Y-70290502D01*
X114021450Y-70267830D01*
X113954258Y-70248309D01*
X113924971Y-70246004D01*
X113859682Y-70221120D01*
X113818212Y-70164889D01*
X113810700Y-70122386D01*
X113810700Y-60888195D01*
X113830385Y-60821156D01*
X113836324Y-60812709D01*
X113916881Y-60707724D01*
X113921828Y-60701277D01*
X113924936Y-60693773D01*
X113924938Y-60693770D01*
X113978912Y-60563464D01*
X113978912Y-60563463D01*
X113982023Y-60555953D01*
X114002555Y-60400000D01*
X113982023Y-60244047D01*
X113963353Y-60198973D01*
X113924938Y-60106230D01*
X113924936Y-60106227D01*
X113921828Y-60098723D01*
X113843482Y-59996619D01*
X113831018Y-59980376D01*
X113826071Y-59973929D01*
X113701278Y-59878172D01*
X113678973Y-59868933D01*
X113563467Y-59821089D01*
X113563464Y-59821088D01*
X113555953Y-59817977D01*
X113400000Y-59797445D01*
X113244047Y-59817977D01*
X113236537Y-59821088D01*
X113236536Y-59821088D01*
X113106230Y-59875062D01*
X113106227Y-59875064D01*
X113098723Y-59878172D01*
X112973929Y-59973929D01*
X112968982Y-59980376D01*
X112956518Y-59996619D01*
X112878172Y-60098723D01*
X112875064Y-60106227D01*
X112875062Y-60106230D01*
X112836647Y-60198973D01*
X112817977Y-60244047D01*
X112797445Y-60400000D01*
X112817977Y-60555953D01*
X112821088Y-60563463D01*
X112821088Y-60563464D01*
X112875062Y-60693770D01*
X112875064Y-60693773D01*
X112878172Y-60701277D01*
X112973929Y-60826071D01*
X112980376Y-60831018D01*
X113098722Y-60921828D01*
X113096955Y-60924131D01*
X113135523Y-60964590D01*
X113149300Y-61021396D01*
X113149300Y-70122387D01*
X113129615Y-70189426D01*
X113076811Y-70235181D01*
X113035026Y-70246005D01*
X113012057Y-70247812D01*
X113012055Y-70247812D01*
X113005742Y-70248309D01*
X112979896Y-70255818D01*
X112860512Y-70290502D01*
X112853008Y-70292682D01*
X112716109Y-70373644D01*
X112603644Y-70486109D01*
X112522682Y-70623008D01*
X112520505Y-70630500D01*
X112520505Y-70630501D01*
X112517134Y-70642104D01*
X112478309Y-70775742D01*
X112475500Y-70811433D01*
X112475500Y-70876000D01*
X112455815Y-70943039D01*
X112403011Y-70988794D01*
X112351500Y-71000000D01*
X112068499Y-71000000D01*
X112001460Y-70980315D01*
X111955705Y-70927511D01*
X111944499Y-70876000D01*
X111944499Y-70811434D01*
X111941691Y-70775742D01*
X111902866Y-70642104D01*
X111899495Y-70630501D01*
X111899495Y-70630500D01*
X111897318Y-70623008D01*
X111816356Y-70486109D01*
X111703891Y-70373644D01*
X111566992Y-70292682D01*
X111559500Y-70290505D01*
X111559492Y-70290502D01*
X111520105Y-70279059D01*
X111461219Y-70241453D01*
X111432013Y-70177980D01*
X111430700Y-70159983D01*
X111430700Y-68660403D01*
X111450385Y-68593364D01*
X111479213Y-68562028D01*
X111519623Y-68531020D01*
X111519628Y-68531015D01*
X111526071Y-68526071D01*
X111621828Y-68401277D01*
X111624936Y-68393773D01*
X111624938Y-68393770D01*
X111678912Y-68263464D01*
X111678912Y-68263463D01*
X111682023Y-68255953D01*
X111702555Y-68100000D01*
X111682023Y-67944047D01*
X111678912Y-67936536D01*
X111624938Y-67806230D01*
X111624936Y-67806227D01*
X111621828Y-67798723D01*
X111526071Y-67673929D01*
X111487128Y-67644047D01*
X111407728Y-67583121D01*
X111407725Y-67583119D01*
X111401278Y-67578172D01*
X111347622Y-67555947D01*
X111263467Y-67521089D01*
X111263464Y-67521088D01*
X111255953Y-67517977D01*
X111100000Y-67497445D01*
X110944047Y-67517977D01*
X110936537Y-67521088D01*
X110936536Y-67521088D01*
X110806230Y-67575062D01*
X110806227Y-67575064D01*
X110798723Y-67578172D01*
X110673929Y-67673929D01*
X110578172Y-67798723D01*
X110575064Y-67806227D01*
X110575062Y-67806230D01*
X110517977Y-67944047D01*
X110515627Y-67943074D01*
X110485883Y-67991876D01*
X110423037Y-68022407D01*
X110353661Y-68014115D01*
X110304094Y-67975611D01*
X110231017Y-67880375D01*
X110226071Y-67873929D01*
X110219628Y-67868985D01*
X110219623Y-67868980D01*
X110179213Y-67837972D01*
X110138010Y-67781544D01*
X110130700Y-67739597D01*
X110130700Y-65160403D01*
X110150385Y-65093364D01*
X110179213Y-65062028D01*
X110219623Y-65031020D01*
X110219628Y-65031015D01*
X110226071Y-65026071D01*
X110321828Y-64901277D01*
X110324936Y-64893773D01*
X110324938Y-64893770D01*
X110378912Y-64763464D01*
X110378912Y-64763463D01*
X110382023Y-64755953D01*
X110402555Y-64600000D01*
X110382023Y-64444047D01*
X110378912Y-64436536D01*
X110324938Y-64306230D01*
X110324936Y-64306227D01*
X110321828Y-64298723D01*
X110253171Y-64209247D01*
X110231018Y-64180376D01*
X110226071Y-64173929D01*
X110143436Y-64110521D01*
X110107728Y-64083121D01*
X110107725Y-64083119D01*
X110101278Y-64078172D01*
X110093765Y-64075060D01*
X109963467Y-64021089D01*
X109963464Y-64021088D01*
X109955953Y-64017977D01*
X109800000Y-63997445D01*
X109644047Y-64017977D01*
X109636537Y-64021088D01*
X109636536Y-64021088D01*
X109506230Y-64075062D01*
X109506227Y-64075064D01*
X109498723Y-64078172D01*
X109373929Y-64173929D01*
X109368982Y-64180376D01*
X109346829Y-64209247D01*
X109278172Y-64298723D01*
X109275064Y-64306227D01*
X109275062Y-64306230D01*
X109221088Y-64436536D01*
X109217977Y-64444047D01*
X109197445Y-64600000D01*
X109217977Y-64755953D01*
X109221088Y-64763463D01*
X109221088Y-64763464D01*
X109275062Y-64893770D01*
X109275064Y-64893773D01*
X109278172Y-64901277D01*
X109373929Y-65026071D01*
X109380372Y-65031015D01*
X109380377Y-65031020D01*
X109420787Y-65062028D01*
X109461990Y-65118456D01*
X109469300Y-65160403D01*
X109469300Y-67739599D01*
X109449615Y-67806638D01*
X109420787Y-67837974D01*
X109373929Y-67873929D01*
X109278172Y-67998723D01*
X109275064Y-68006227D01*
X109275062Y-68006230D01*
X109231645Y-68111049D01*
X109217977Y-68144047D01*
X109197445Y-68300000D01*
X109217977Y-68455953D01*
X109221088Y-68463463D01*
X109221088Y-68463464D01*
X109275062Y-68593770D01*
X109275064Y-68593773D01*
X109278172Y-68601277D01*
X109283119Y-68607724D01*
X109342477Y-68685081D01*
X109373929Y-68726071D01*
X109380376Y-68731018D01*
X109489098Y-68814443D01*
X109498722Y-68821828D01*
X109506235Y-68824940D01*
X109636533Y-68878911D01*
X109636536Y-68878912D01*
X109644047Y-68882023D01*
X109800000Y-68902555D01*
X109955953Y-68882023D01*
X109963464Y-68878912D01*
X109963467Y-68878911D01*
X110093765Y-68824940D01*
X110101278Y-68821828D01*
X110110903Y-68814443D01*
X110219624Y-68731018D01*
X110226071Y-68726071D01*
X110257524Y-68685081D01*
X110316881Y-68607724D01*
X110321828Y-68601277D01*
X110324936Y-68593773D01*
X110324938Y-68593770D01*
X110382023Y-68455953D01*
X110384373Y-68456926D01*
X110414117Y-68408124D01*
X110476963Y-68377593D01*
X110546339Y-68385885D01*
X110595906Y-68424389D01*
X110626565Y-68464345D01*
X110673929Y-68526071D01*
X110680372Y-68531015D01*
X110680377Y-68531020D01*
X110720787Y-68562028D01*
X110761990Y-68618456D01*
X110769300Y-68660403D01*
X110769300Y-70121501D01*
X110749615Y-70188540D01*
X110696811Y-70234295D01*
X110645300Y-70245501D01*
X110501434Y-70245501D01*
X110499020Y-70245691D01*
X110499018Y-70245691D01*
X110472058Y-70247812D01*
X110472057Y-70247812D01*
X110465742Y-70248309D01*
X110439896Y-70255818D01*
X110320512Y-70290502D01*
X110313008Y-70292682D01*
X110176109Y-70373644D01*
X110063644Y-70486109D01*
X109982682Y-70623008D01*
X109980505Y-70630500D01*
X109980505Y-70630501D01*
X109977134Y-70642104D01*
X109938309Y-70775742D01*
X109935500Y-70811433D01*
X109935500Y-70876000D01*
X109915815Y-70943039D01*
X109863011Y-70988794D01*
X109811500Y-71000000D01*
X109528499Y-71000000D01*
X109461460Y-70980315D01*
X109415705Y-70927511D01*
X109404499Y-70876000D01*
X109404499Y-70811434D01*
X109401691Y-70775742D01*
X109362866Y-70642104D01*
X109359495Y-70630501D01*
X109359495Y-70630500D01*
X109357318Y-70623008D01*
X109276356Y-70486109D01*
X109163891Y-70373644D01*
X109026992Y-70292682D01*
X109019489Y-70290502D01*
X108941450Y-70267830D01*
X108874258Y-70248309D01*
X108844971Y-70246004D01*
X108779682Y-70221120D01*
X108738212Y-70164889D01*
X108730700Y-70122386D01*
X108730700Y-66760403D01*
X108750385Y-66693364D01*
X108779213Y-66662028D01*
X108819623Y-66631020D01*
X108819628Y-66631015D01*
X108826071Y-66626071D01*
X108921828Y-66501277D01*
X108924936Y-66493773D01*
X108924938Y-66493770D01*
X108978912Y-66363464D01*
X108978912Y-66363463D01*
X108982023Y-66355953D01*
X109002555Y-66200000D01*
X108982023Y-66044047D01*
X108967299Y-66008500D01*
X108924938Y-65906230D01*
X108924936Y-65906227D01*
X108921828Y-65898723D01*
X108832836Y-65782745D01*
X108831018Y-65780376D01*
X108826071Y-65773929D01*
X108799313Y-65753397D01*
X108707728Y-65683121D01*
X108707725Y-65683119D01*
X108701278Y-65678172D01*
X108693765Y-65675060D01*
X108563467Y-65621089D01*
X108563464Y-65621088D01*
X108555953Y-65617977D01*
X108400000Y-65597445D01*
X108244047Y-65617977D01*
X108236537Y-65621088D01*
X108236536Y-65621088D01*
X108106230Y-65675062D01*
X108106227Y-65675064D01*
X108098723Y-65678172D01*
X108092276Y-65683119D01*
X108006079Y-65749260D01*
X107973929Y-65773929D01*
X107968982Y-65780376D01*
X107967164Y-65782745D01*
X107878172Y-65898723D01*
X107875064Y-65906227D01*
X107875062Y-65906230D01*
X107832701Y-66008500D01*
X107817977Y-66044047D01*
X107797445Y-66200000D01*
X107817977Y-66355953D01*
X107821088Y-66363463D01*
X107821088Y-66363464D01*
X107875062Y-66493770D01*
X107875064Y-66493773D01*
X107878172Y-66501277D01*
X107973929Y-66626071D01*
X107980372Y-66631015D01*
X107980377Y-66631020D01*
X108020787Y-66662028D01*
X108061990Y-66718456D01*
X108069300Y-66760403D01*
X108069300Y-70122387D01*
X108049615Y-70189426D01*
X107996811Y-70235181D01*
X107955026Y-70246005D01*
X107932057Y-70247812D01*
X107932055Y-70247812D01*
X107925742Y-70248309D01*
X107899896Y-70255818D01*
X107780512Y-70290502D01*
X107773008Y-70292682D01*
X107636109Y-70373644D01*
X107523644Y-70486109D01*
X107442682Y-70623008D01*
X107440505Y-70630500D01*
X107440505Y-70630501D01*
X107437134Y-70642104D01*
X107398309Y-70775742D01*
X107395500Y-70811433D01*
X107395500Y-70876000D01*
X107375815Y-70943039D01*
X107323011Y-70988794D01*
X107271500Y-71000000D01*
X106988499Y-71000000D01*
X106921460Y-70980315D01*
X106875705Y-70927511D01*
X106864499Y-70876000D01*
X106864499Y-70811434D01*
X106861691Y-70775742D01*
X106822866Y-70642104D01*
X106819495Y-70630501D01*
X106819495Y-70630500D01*
X106817318Y-70623008D01*
X106736356Y-70486109D01*
X106623891Y-70373644D01*
X106486992Y-70292682D01*
X106479489Y-70290502D01*
X106401450Y-70267830D01*
X106334258Y-70248309D01*
X106298567Y-70245500D01*
X106254700Y-70245500D01*
X106187661Y-70225815D01*
X106141906Y-70173011D01*
X106130700Y-70121500D01*
X106130700Y-66854732D01*
X106150385Y-66787693D01*
X106156324Y-66779246D01*
X106192482Y-66732124D01*
X106192484Y-66732121D01*
X106197429Y-66725676D01*
X106200537Y-66718172D01*
X106200539Y-66718169D01*
X106254513Y-66587863D01*
X106254513Y-66587862D01*
X106257624Y-66580352D01*
X106278156Y-66424399D01*
X106257624Y-66268446D01*
X106244837Y-66237576D01*
X106200539Y-66130629D01*
X106200537Y-66130626D01*
X106197429Y-66123122D01*
X106101672Y-65998328D01*
X106095225Y-65993381D01*
X105983329Y-65907520D01*
X105983326Y-65907518D01*
X105976879Y-65902571D01*
X105965221Y-65897742D01*
X105839068Y-65845488D01*
X105839065Y-65845487D01*
X105831554Y-65842376D01*
X105675601Y-65821844D01*
X105519648Y-65842376D01*
X105512138Y-65845487D01*
X105512137Y-65845487D01*
X105381831Y-65899461D01*
X105381828Y-65899463D01*
X105374324Y-65902571D01*
X105249530Y-65998328D01*
X105153773Y-66123122D01*
X105150665Y-66130626D01*
X105150663Y-66130629D01*
X105106365Y-66237576D01*
X105093578Y-66268446D01*
X105073046Y-66424399D01*
X105093578Y-66580352D01*
X105096689Y-66587862D01*
X105096689Y-66587863D01*
X105150663Y-66718169D01*
X105150665Y-66718172D01*
X105153773Y-66725676D01*
X105249530Y-66850470D01*
X105255977Y-66855417D01*
X105342526Y-66921828D01*
X105374323Y-66946227D01*
X105392751Y-66953860D01*
X105447154Y-66997698D01*
X105469300Y-67068421D01*
X105469300Y-70130932D01*
X105449615Y-70197971D01*
X105396811Y-70243726D01*
X105379907Y-70250004D01*
X105233008Y-70292682D01*
X105096109Y-70373644D01*
X104983644Y-70486109D01*
X104902682Y-70623008D01*
X104900505Y-70630500D01*
X104900505Y-70630501D01*
X104897134Y-70642104D01*
X104858309Y-70775742D01*
X104855500Y-70811433D01*
X104855500Y-70876000D01*
X104835815Y-70943039D01*
X104783011Y-70988794D01*
X104731500Y-71000000D01*
X104448499Y-71000000D01*
X104381460Y-70980315D01*
X104335705Y-70927511D01*
X104324499Y-70876000D01*
X104324499Y-70811434D01*
X104321691Y-70775742D01*
X104282866Y-70642104D01*
X104279495Y-70630501D01*
X104279495Y-70630500D01*
X104277318Y-70623008D01*
X104196356Y-70486109D01*
X104083891Y-70373644D01*
X103946992Y-70292682D01*
X103939489Y-70290502D01*
X103861450Y-70267830D01*
X103794258Y-70248309D01*
X103758567Y-70245500D01*
X103754700Y-70245500D01*
X103754481Y-70245436D01*
X103753702Y-70245405D01*
X103753710Y-70245209D01*
X103687661Y-70225815D01*
X103641906Y-70173011D01*
X103630700Y-70121500D01*
X103630700Y-67819855D01*
X103631172Y-67809048D01*
X103633579Y-67781540D01*
X103633579Y-67781537D01*
X103634524Y-67770733D01*
X103624568Y-67733576D01*
X103622230Y-67723027D01*
X103617435Y-67695835D01*
X103615551Y-67685149D01*
X103610126Y-67675752D01*
X103608793Y-67672090D01*
X103607148Y-67668563D01*
X103604340Y-67658083D01*
X103598116Y-67649195D01*
X103598115Y-67649192D01*
X103582281Y-67626579D01*
X103576468Y-67617456D01*
X103562662Y-67593543D01*
X103562661Y-67593541D01*
X103557239Y-67584151D01*
X103527772Y-67559425D01*
X103519798Y-67552118D01*
X102842620Y-66874940D01*
X102809135Y-66813617D01*
X102806301Y-66787259D01*
X102806301Y-66400000D01*
X103097445Y-66400000D01*
X103117977Y-66555953D01*
X103121088Y-66563463D01*
X103121088Y-66563464D01*
X103175062Y-66693770D01*
X103175064Y-66693773D01*
X103178172Y-66701277D01*
X103273929Y-66826071D01*
X103280376Y-66831018D01*
X103297325Y-66844023D01*
X103398722Y-66921828D01*
X103406235Y-66924940D01*
X103536533Y-66978911D01*
X103536536Y-66978912D01*
X103544047Y-66982023D01*
X103700000Y-67002555D01*
X103855953Y-66982023D01*
X103863464Y-66978912D01*
X103863467Y-66978911D01*
X103993765Y-66924940D01*
X104001278Y-66921828D01*
X104102676Y-66844023D01*
X104119624Y-66831018D01*
X104126071Y-66826071D01*
X104221828Y-66701277D01*
X104224936Y-66693773D01*
X104224938Y-66693770D01*
X104278912Y-66563464D01*
X104278912Y-66563463D01*
X104282023Y-66555953D01*
X104302555Y-66400000D01*
X104294846Y-66341442D01*
X104305612Y-66272406D01*
X104330104Y-66237576D01*
X105573261Y-64994419D01*
X105634584Y-64960934D01*
X105660942Y-64958100D01*
X106139599Y-64958100D01*
X106206638Y-64977785D01*
X106237974Y-65006613D01*
X106273929Y-65053471D01*
X106280376Y-65058418D01*
X106325919Y-65093364D01*
X106398722Y-65149228D01*
X106406235Y-65152340D01*
X106536533Y-65206311D01*
X106536536Y-65206312D01*
X106544047Y-65209423D01*
X106700000Y-65229955D01*
X106855953Y-65209423D01*
X106863464Y-65206312D01*
X106863467Y-65206311D01*
X106993765Y-65152340D01*
X107001278Y-65149228D01*
X107074082Y-65093364D01*
X107119624Y-65058418D01*
X107126071Y-65053471D01*
X107221828Y-64928677D01*
X107224936Y-64921173D01*
X107224938Y-64921170D01*
X107278912Y-64790864D01*
X107278912Y-64790863D01*
X107282023Y-64783353D01*
X107302555Y-64627400D01*
X107282023Y-64471447D01*
X107270674Y-64444047D01*
X107224938Y-64333630D01*
X107224936Y-64333627D01*
X107221828Y-64326123D01*
X107126071Y-64201329D01*
X107001278Y-64105572D01*
X106993765Y-64102460D01*
X106863467Y-64048489D01*
X106863464Y-64048488D01*
X106855953Y-64045377D01*
X106700000Y-64024845D01*
X106544047Y-64045377D01*
X106536537Y-64048488D01*
X106536536Y-64048488D01*
X106406230Y-64102462D01*
X106406227Y-64102464D01*
X106398723Y-64105572D01*
X106273929Y-64201329D01*
X106258706Y-64221169D01*
X106237975Y-64248186D01*
X106181548Y-64289389D01*
X106139599Y-64296700D01*
X105492455Y-64296700D01*
X105481648Y-64296228D01*
X105454140Y-64293821D01*
X105454137Y-64293821D01*
X105443333Y-64292876D01*
X105432853Y-64295684D01*
X105406185Y-64302829D01*
X105395626Y-64305170D01*
X105368433Y-64309965D01*
X105368432Y-64309965D01*
X105357749Y-64311849D01*
X105348356Y-64317272D01*
X105344701Y-64318602D01*
X105341163Y-64320252D01*
X105330684Y-64323060D01*
X105299163Y-64345131D01*
X105290071Y-64350923D01*
X105256751Y-64370161D01*
X105249778Y-64378471D01*
X105249777Y-64378472D01*
X105232026Y-64399627D01*
X105224718Y-64407602D01*
X103862424Y-65769896D01*
X103801101Y-65803381D01*
X103758558Y-65805154D01*
X103708059Y-65798506D01*
X103700000Y-65797445D01*
X103544047Y-65817977D01*
X103536537Y-65821088D01*
X103536536Y-65821088D01*
X103406230Y-65875062D01*
X103406227Y-65875064D01*
X103398723Y-65878172D01*
X103392276Y-65883119D01*
X103283546Y-65966550D01*
X103273929Y-65973929D01*
X103178172Y-66098723D01*
X103175064Y-66106227D01*
X103175062Y-66106230D01*
X103131393Y-66211658D01*
X103117977Y-66244047D01*
X103097445Y-66400000D01*
X102806301Y-66400000D01*
X102806301Y-63479125D01*
X102825986Y-63412086D01*
X102854814Y-63380750D01*
X102919623Y-63331020D01*
X102919628Y-63331015D01*
X102926071Y-63326071D01*
X103021828Y-63201277D01*
X103024936Y-63193773D01*
X103024938Y-63193770D01*
X103078912Y-63063464D01*
X103078912Y-63063463D01*
X103082023Y-63055953D01*
X103102555Y-62900000D01*
X103082023Y-62744047D01*
X103055256Y-62679425D01*
X103024938Y-62606230D01*
X103024936Y-62606227D01*
X103021828Y-62598723D01*
X102965259Y-62525000D01*
X102931018Y-62480376D01*
X102926071Y-62473929D01*
X102801278Y-62378172D01*
X102738759Y-62352276D01*
X102663467Y-62321089D01*
X102663464Y-62321088D01*
X102655953Y-62317977D01*
X102500000Y-62297445D01*
X102344047Y-62317977D01*
X102336537Y-62321088D01*
X102336536Y-62321088D01*
X102206230Y-62375062D01*
X102206227Y-62375064D01*
X102198723Y-62378172D01*
X102073929Y-62473929D01*
X102068982Y-62480376D01*
X102034741Y-62525000D01*
X101978172Y-62598723D01*
X101975064Y-62606227D01*
X101975062Y-62606230D01*
X101944744Y-62679425D01*
X101917977Y-62744047D01*
X101897445Y-62900000D01*
X101917977Y-63055953D01*
X101921088Y-63063463D01*
X101921088Y-63063464D01*
X101975062Y-63193770D01*
X101975064Y-63193773D01*
X101978172Y-63201277D01*
X102073929Y-63326071D01*
X102080372Y-63331015D01*
X102080374Y-63331017D01*
X102096386Y-63343303D01*
X102137590Y-63399731D01*
X102144901Y-63441680D01*
X102144901Y-66955746D01*
X102144429Y-66966553D01*
X102142766Y-66985567D01*
X102141077Y-67004868D01*
X102143885Y-67015348D01*
X102151030Y-67042016D01*
X102153371Y-67052575D01*
X102160050Y-67090452D01*
X102165473Y-67099845D01*
X102166803Y-67103500D01*
X102168453Y-67107038D01*
X102171261Y-67117517D01*
X102193332Y-67149038D01*
X102199124Y-67158130D01*
X102218362Y-67191450D01*
X102226672Y-67198423D01*
X102226673Y-67198424D01*
X102247828Y-67216175D01*
X102255803Y-67223483D01*
X102932981Y-67900661D01*
X102966466Y-67961984D01*
X102969300Y-67988342D01*
X102969300Y-70123961D01*
X102949615Y-70191000D01*
X102896811Y-70236755D01*
X102855021Y-70247579D01*
X102845742Y-70248309D01*
X102819896Y-70255818D01*
X102700512Y-70290502D01*
X102693008Y-70292682D01*
X102556109Y-70373644D01*
X102443644Y-70486109D01*
X102362682Y-70623008D01*
X102360505Y-70630500D01*
X102360505Y-70630501D01*
X102357134Y-70642104D01*
X102318309Y-70775742D01*
X102315500Y-70811433D01*
X102315500Y-70876000D01*
X102295815Y-70943039D01*
X102243011Y-70988794D01*
X102191500Y-71000000D01*
X101908499Y-71000000D01*
X101841460Y-70980315D01*
X101795705Y-70927511D01*
X101784499Y-70876000D01*
X101784499Y-70811434D01*
X101781691Y-70775742D01*
X101742866Y-70642104D01*
X101739495Y-70630501D01*
X101739495Y-70630500D01*
X101737318Y-70623008D01*
X101656356Y-70486109D01*
X101543891Y-70373644D01*
X101406992Y-70292682D01*
X101399489Y-70290502D01*
X101321450Y-70267830D01*
X101254258Y-70248309D01*
X101218567Y-70245500D01*
X101216122Y-70245500D01*
X100778018Y-70245501D01*
X100341434Y-70245501D01*
X100339020Y-70245691D01*
X100339018Y-70245691D01*
X100312058Y-70247812D01*
X100312057Y-70247812D01*
X100305742Y-70248309D01*
X100279896Y-70255818D01*
X100160512Y-70290502D01*
X100153008Y-70292682D01*
X100016109Y-70373644D01*
X99903644Y-70486109D01*
X99822682Y-70623008D01*
X99820505Y-70630500D01*
X99820505Y-70630501D01*
X99817134Y-70642104D01*
X99778309Y-70775742D01*
X99775500Y-70811433D01*
X99775500Y-70876000D01*
X99755815Y-70943039D01*
X99703011Y-70988794D01*
X99651500Y-71000000D01*
X99368499Y-71000000D01*
X99301460Y-70980315D01*
X99255705Y-70927511D01*
X99244499Y-70876000D01*
X99244499Y-70811434D01*
X99241691Y-70775742D01*
X99202866Y-70642104D01*
X99199495Y-70630501D01*
X99199495Y-70630500D01*
X99197318Y-70623008D01*
X99116356Y-70486109D01*
X99003891Y-70373644D01*
X98866992Y-70292682D01*
X98859489Y-70290502D01*
X98781450Y-70267830D01*
X98714258Y-70248309D01*
X98678567Y-70245500D01*
X98454700Y-70245500D01*
X98387661Y-70225815D01*
X98341906Y-70173011D01*
X98330700Y-70121500D01*
X98330700Y-57367947D01*
X98331172Y-57357140D01*
X98333579Y-57329632D01*
X98333579Y-57329629D01*
X98334524Y-57318825D01*
X98331716Y-57308345D01*
X98324571Y-57281677D01*
X98322230Y-57271118D01*
X98317435Y-57243925D01*
X98317435Y-57243924D01*
X98315551Y-57233241D01*
X98310127Y-57223847D01*
X98308799Y-57220197D01*
X98307149Y-57216658D01*
X98304340Y-57206176D01*
X98282275Y-57174664D01*
X98276463Y-57165540D01*
X98264049Y-57144039D01*
X98257239Y-57132243D01*
X98227778Y-57107522D01*
X98219804Y-57100215D01*
X97737113Y-56617524D01*
X97703628Y-56556201D01*
X97708612Y-56486509D01*
X97750484Y-56430576D01*
X97815948Y-56406159D01*
X97877294Y-56417506D01*
X97913143Y-56434261D01*
X97916976Y-56436134D01*
X97982404Y-56469543D01*
X97989405Y-56471256D01*
X97995246Y-56473428D01*
X98001152Y-56475393D01*
X98007680Y-56478444D01*
X98014736Y-56479912D01*
X98014743Y-56479914D01*
X98079572Y-56493399D01*
X98083792Y-56494353D01*
X98149749Y-56510492D01*
X98149752Y-56510492D01*
X98155112Y-56511804D01*
X98160622Y-56512146D01*
X98160623Y-56512146D01*
X98166330Y-56512500D01*
X98166327Y-56512543D01*
X98169955Y-56512762D01*
X98174710Y-56513186D01*
X98181757Y-56514652D01*
X98259614Y-56512545D01*
X98262969Y-56512500D01*
X108381353Y-56512500D01*
X108451175Y-56534382D01*
X108453478Y-56536342D01*
X108616621Y-56627519D01*
X108794367Y-56685272D01*
X108800388Y-56685990D01*
X108859704Y-56693063D01*
X108979945Y-56707401D01*
X108985989Y-56706936D01*
X108985990Y-56706936D01*
X109040683Y-56702728D01*
X109166287Y-56693063D01*
X109243936Y-56671383D01*
X109340456Y-56644435D01*
X109340460Y-56644433D01*
X109346296Y-56642804D01*
X109513114Y-56558538D01*
X109660387Y-56443475D01*
X109739034Y-56352362D01*
X109778543Y-56306591D01*
X109778546Y-56306587D01*
X109782507Y-56301998D01*
X109874821Y-56139495D01*
X109933814Y-55962157D01*
X109939830Y-55914541D01*
X109956803Y-55780181D01*
X109957238Y-55776738D01*
X109957611Y-55750000D01*
X109939373Y-55563999D01*
X109937622Y-55558200D01*
X109937621Y-55558194D01*
X109887108Y-55390889D01*
X109887108Y-55390888D01*
X109885355Y-55385083D01*
X109847101Y-55313138D01*
X109800462Y-55225420D01*
X109800461Y-55225418D01*
X109797615Y-55220066D01*
X109679493Y-55075235D01*
X109535489Y-54956105D01*
X109371089Y-54867214D01*
X109192554Y-54811948D01*
X109006685Y-54792412D01*
X109000652Y-54792961D01*
X109000649Y-54792961D01*
X108853646Y-54806340D01*
X108820562Y-54809351D01*
X108708706Y-54842272D01*
X108647089Y-54860407D01*
X108647087Y-54860408D01*
X108641273Y-54862119D01*
X108635904Y-54864926D01*
X108635901Y-54864927D01*
X108517037Y-54927067D01*
X108475647Y-54948705D01*
X108470917Y-54952508D01*
X108470914Y-54952510D01*
X108461426Y-54960138D01*
X108396845Y-54986804D01*
X108383728Y-54987500D01*
X98617200Y-54987500D01*
X98550161Y-54967815D01*
X98529519Y-54951181D01*
X97759398Y-54181060D01*
X116545167Y-54181060D01*
X116545523Y-54184388D01*
X116545523Y-54184394D01*
X116581901Y-54524784D01*
X116584929Y-54553121D01*
X116585639Y-54556379D01*
X116585641Y-54556389D01*
X116654042Y-54870102D01*
X116664641Y-54918711D01*
X116783369Y-55273554D01*
X116784769Y-55276597D01*
X116784771Y-55276603D01*
X116822178Y-55357930D01*
X116939727Y-55613499D01*
X116965140Y-55655961D01*
X117119897Y-55914541D01*
X117131883Y-55934569D01*
X117357591Y-56233009D01*
X117359889Y-56235447D01*
X117359891Y-56235450D01*
X117436197Y-56316424D01*
X117614210Y-56505326D01*
X117616759Y-56507503D01*
X117873256Y-56726572D01*
X117898738Y-56748336D01*
X117901503Y-56750222D01*
X117901508Y-56750226D01*
X117968366Y-56795833D01*
X118207847Y-56959196D01*
X118537921Y-57135439D01*
X118885098Y-57275003D01*
X119041000Y-57318825D01*
X119242082Y-57375347D01*
X119242088Y-57375348D01*
X119245317Y-57376256D01*
X119477004Y-57415027D01*
X119611053Y-57437460D01*
X119611057Y-57437460D01*
X119614365Y-57438014D01*
X119900288Y-57454500D01*
X120093690Y-57454500D01*
X120095346Y-57454410D01*
X120095358Y-57454410D01*
X120370291Y-57439520D01*
X120370292Y-57439520D01*
X120373632Y-57439339D01*
X120742893Y-57378870D01*
X120746117Y-57377976D01*
X120746121Y-57377975D01*
X121100221Y-57279774D01*
X121100220Y-57279774D01*
X121103463Y-57278875D01*
X121243215Y-57223261D01*
X121448004Y-57141766D01*
X121448013Y-57141762D01*
X121451126Y-57140523D01*
X121599459Y-57061985D01*
X121778840Y-56967008D01*
X121778846Y-56967005D01*
X121781812Y-56965434D01*
X122091655Y-56755654D01*
X122098056Y-56750226D01*
X122374464Y-56515815D01*
X122377030Y-56513639D01*
X122542053Y-56339741D01*
X122632283Y-56244659D01*
X122632287Y-56244654D01*
X122634598Y-56242219D01*
X122693073Y-56165460D01*
X122859314Y-55947237D01*
X122859318Y-55947231D01*
X122861346Y-55944569D01*
X123054623Y-55624172D01*
X123082085Y-55565011D01*
X123210752Y-55287819D01*
X123212165Y-55284775D01*
X123322049Y-54960138D01*
X123331054Y-54933533D01*
X123331054Y-54933532D01*
X123332132Y-54930348D01*
X123413119Y-54565038D01*
X123436203Y-54355953D01*
X123453813Y-54196447D01*
X123453813Y-54196439D01*
X123454180Y-54193119D01*
X123454833Y-53818940D01*
X123453670Y-53808059D01*
X123415427Y-53450207D01*
X123415426Y-53450201D01*
X123415071Y-53446879D01*
X123414361Y-53443621D01*
X123414359Y-53443611D01*
X123336074Y-53084567D01*
X123336073Y-53084562D01*
X123335359Y-53081289D01*
X123216631Y-52726446D01*
X123213494Y-52719624D01*
X123095672Y-52463464D01*
X123060273Y-52386501D01*
X122868117Y-52065431D01*
X122642409Y-51766991D01*
X122618831Y-51741970D01*
X122486248Y-51601277D01*
X122385790Y-51494674D01*
X122101262Y-51251664D01*
X122098497Y-51249778D01*
X122098492Y-51249774D01*
X121934015Y-51137576D01*
X121792153Y-51040804D01*
X121462079Y-50864561D01*
X121114902Y-50724997D01*
X120814558Y-50640574D01*
X120757918Y-50624653D01*
X120757912Y-50624652D01*
X120754683Y-50623744D01*
X120480458Y-50577854D01*
X120388947Y-50562540D01*
X120388943Y-50562540D01*
X120385635Y-50561986D01*
X120099712Y-50545500D01*
X119906310Y-50545500D01*
X119904654Y-50545590D01*
X119904642Y-50545590D01*
X119629709Y-50560480D01*
X119629708Y-50560480D01*
X119626368Y-50560661D01*
X119257107Y-50621130D01*
X119253883Y-50622024D01*
X119253879Y-50622025D01*
X119186994Y-50640574D01*
X118896537Y-50721125D01*
X118883661Y-50726249D01*
X118551996Y-50858234D01*
X118551987Y-50858238D01*
X118548874Y-50859477D01*
X118545905Y-50861049D01*
X118221160Y-51032992D01*
X118221154Y-51032995D01*
X118218188Y-51034566D01*
X117908345Y-51244346D01*
X117622970Y-51486361D01*
X117557226Y-51555641D01*
X117375705Y-51746924D01*
X117365402Y-51757781D01*
X117363365Y-51760455D01*
X117165279Y-52020481D01*
X117138654Y-52055431D01*
X116945377Y-52375828D01*
X116943964Y-52378873D01*
X116943963Y-52378874D01*
X116925887Y-52417815D01*
X116787835Y-52715225D01*
X116667868Y-53069652D01*
X116586881Y-53434962D01*
X116579842Y-53498723D01*
X116546580Y-53800000D01*
X116545820Y-53806881D01*
X116545814Y-53810223D01*
X116545814Y-53810226D01*
X116545583Y-53942761D01*
X116545167Y-54181060D01*
X97759398Y-54181060D01*
X96420719Y-52842381D01*
X96387234Y-52781058D01*
X96392218Y-52711366D01*
X96434090Y-52655433D01*
X96499554Y-52631016D01*
X96508400Y-52630700D01*
X98039599Y-52630700D01*
X98106638Y-52650385D01*
X98137974Y-52679213D01*
X98173929Y-52726071D01*
X98298722Y-52821828D01*
X98306235Y-52824940D01*
X98436533Y-52878911D01*
X98436536Y-52878912D01*
X98444047Y-52882023D01*
X98600000Y-52902555D01*
X98755953Y-52882023D01*
X98763464Y-52878912D01*
X98763467Y-52878911D01*
X98893765Y-52824940D01*
X98901278Y-52821828D01*
X99026071Y-52726071D01*
X99037355Y-52711366D01*
X99116881Y-52607724D01*
X99121828Y-52601277D01*
X99124936Y-52593773D01*
X99124938Y-52593770D01*
X99178912Y-52463464D01*
X99178912Y-52463463D01*
X99182023Y-52455953D01*
X99202555Y-52300000D01*
X99182023Y-52144047D01*
X99150653Y-52068313D01*
X99124938Y-52006230D01*
X99124936Y-52006227D01*
X99121828Y-51998723D01*
X99026071Y-51873929D01*
X98901278Y-51778172D01*
X98880752Y-51769670D01*
X98763467Y-51721089D01*
X98763464Y-51721088D01*
X98755953Y-51717977D01*
X98600000Y-51697445D01*
X98444047Y-51717977D01*
X98436537Y-51721088D01*
X98436536Y-51721088D01*
X98306230Y-51775062D01*
X98306227Y-51775064D01*
X98298723Y-51778172D01*
X98173929Y-51873929D01*
X98168983Y-51880375D01*
X98137975Y-51920786D01*
X98081548Y-51961989D01*
X98039599Y-51969300D01*
X96574381Y-51969300D01*
X96507342Y-51949615D01*
X96461587Y-51896811D01*
X96451643Y-51827653D01*
X96480668Y-51764097D01*
X96498890Y-51746927D01*
X96526071Y-51726071D01*
X96621828Y-51601277D01*
X96624936Y-51593773D01*
X96624938Y-51593770D01*
X96678912Y-51463464D01*
X96678912Y-51463463D01*
X96682023Y-51455953D01*
X96702555Y-51300000D01*
X96696478Y-51253840D01*
X96694846Y-51241442D01*
X96705612Y-51172406D01*
X96730104Y-51137576D01*
X97219798Y-50647882D01*
X97227773Y-50640574D01*
X97257239Y-50615849D01*
X97259449Y-50618482D01*
X97302043Y-50590140D01*
X97371904Y-50589028D01*
X97431276Y-50625862D01*
X97438094Y-50634181D01*
X97487513Y-50700121D01*
X97499876Y-50712484D01*
X97600354Y-50787788D01*
X97615689Y-50796183D01*
X97734247Y-50840629D01*
X97749256Y-50844197D01*
X97799331Y-50849637D01*
X97806028Y-50850000D01*
X98157170Y-50850000D01*
X98172169Y-50845596D01*
X98173356Y-50844226D01*
X98175000Y-50836668D01*
X98175000Y-50832170D01*
X98425000Y-50832170D01*
X98429404Y-50847169D01*
X98430774Y-50848356D01*
X98438332Y-50850000D01*
X98793972Y-50850000D01*
X98800669Y-50849637D01*
X98850744Y-50844197D01*
X98865753Y-50840629D01*
X98984311Y-50796183D01*
X98999646Y-50787788D01*
X99100124Y-50712484D01*
X99112484Y-50700124D01*
X99187788Y-50599646D01*
X99196183Y-50584311D01*
X99240629Y-50465753D01*
X99244197Y-50450744D01*
X99249637Y-50400669D01*
X99250000Y-50393972D01*
X99850000Y-50393972D01*
X99850363Y-50400669D01*
X99855803Y-50450744D01*
X99859371Y-50465753D01*
X99903817Y-50584311D01*
X99912212Y-50599646D01*
X99987516Y-50700124D01*
X99999876Y-50712484D01*
X100100354Y-50787788D01*
X100115689Y-50796183D01*
X100234247Y-50840629D01*
X100249256Y-50844197D01*
X100299331Y-50849637D01*
X100306028Y-50850000D01*
X100657170Y-50850000D01*
X100672169Y-50845596D01*
X100673356Y-50844226D01*
X100675000Y-50836668D01*
X100675000Y-50832170D01*
X100925000Y-50832170D01*
X100929404Y-50847169D01*
X100930774Y-50848356D01*
X100938332Y-50850000D01*
X101293972Y-50850000D01*
X101300669Y-50849637D01*
X101350744Y-50844197D01*
X101365753Y-50840629D01*
X101484311Y-50796183D01*
X101499646Y-50787788D01*
X101600124Y-50712484D01*
X101612484Y-50700124D01*
X101687788Y-50599646D01*
X101696183Y-50584311D01*
X101740629Y-50465753D01*
X101744197Y-50450744D01*
X101749637Y-50400669D01*
X101750000Y-50393972D01*
X101750000Y-50142830D01*
X101745596Y-50127831D01*
X101744226Y-50126644D01*
X101736668Y-50125000D01*
X100942830Y-50125000D01*
X100927831Y-50129404D01*
X100926644Y-50130774D01*
X100925000Y-50138332D01*
X100925000Y-50832170D01*
X100675000Y-50832170D01*
X100675000Y-50142830D01*
X100670596Y-50127831D01*
X100669226Y-50126644D01*
X100661668Y-50125000D01*
X99867830Y-50125000D01*
X99852831Y-50129404D01*
X99851644Y-50130774D01*
X99850000Y-50138332D01*
X99850000Y-50393972D01*
X99250000Y-50393972D01*
X99250000Y-50142830D01*
X99245596Y-50127831D01*
X99244226Y-50126644D01*
X99236668Y-50125000D01*
X98442830Y-50125000D01*
X98427831Y-50129404D01*
X98426644Y-50130774D01*
X98425000Y-50138332D01*
X98425000Y-50832170D01*
X98175000Y-50832170D01*
X98175000Y-49857170D01*
X98425000Y-49857170D01*
X98429404Y-49872169D01*
X98430774Y-49873356D01*
X98438332Y-49875000D01*
X99232170Y-49875000D01*
X99247169Y-49870596D01*
X99248356Y-49869226D01*
X99250000Y-49861668D01*
X99250000Y-49857170D01*
X99850000Y-49857170D01*
X99854404Y-49872169D01*
X99855774Y-49873356D01*
X99863332Y-49875000D01*
X100657170Y-49875000D01*
X100672169Y-49870596D01*
X100673356Y-49869226D01*
X100675000Y-49861668D01*
X100675000Y-49857170D01*
X100925000Y-49857170D01*
X100929404Y-49872169D01*
X100930774Y-49873356D01*
X100938332Y-49875000D01*
X101732170Y-49875000D01*
X101747169Y-49870596D01*
X101748356Y-49869226D01*
X101750000Y-49861668D01*
X101750000Y-49606028D01*
X101749637Y-49599331D01*
X101744197Y-49549256D01*
X101740629Y-49534247D01*
X101696183Y-49415689D01*
X101687788Y-49400354D01*
X101612484Y-49299876D01*
X101600124Y-49287516D01*
X101499646Y-49212212D01*
X101484311Y-49203817D01*
X101365753Y-49159371D01*
X101350744Y-49155803D01*
X101300669Y-49150363D01*
X101293972Y-49150000D01*
X100942830Y-49150000D01*
X100927831Y-49154404D01*
X100926644Y-49155774D01*
X100925000Y-49163332D01*
X100925000Y-49857170D01*
X100675000Y-49857170D01*
X100675000Y-49167830D01*
X100670596Y-49152831D01*
X100669226Y-49151644D01*
X100661668Y-49150000D01*
X100306028Y-49150000D01*
X100299331Y-49150363D01*
X100249256Y-49155803D01*
X100234247Y-49159371D01*
X100115689Y-49203817D01*
X100100354Y-49212212D01*
X99999876Y-49287516D01*
X99987516Y-49299876D01*
X99912212Y-49400354D01*
X99903817Y-49415689D01*
X99859371Y-49534247D01*
X99855803Y-49549256D01*
X99850363Y-49599331D01*
X99850000Y-49606028D01*
X99850000Y-49857170D01*
X99250000Y-49857170D01*
X99250000Y-49606028D01*
X99249637Y-49599331D01*
X99244197Y-49549256D01*
X99240629Y-49534247D01*
X99196183Y-49415689D01*
X99187788Y-49400354D01*
X99112484Y-49299876D01*
X99100124Y-49287516D01*
X98999646Y-49212212D01*
X98984311Y-49203817D01*
X98865753Y-49159371D01*
X98850744Y-49155803D01*
X98800669Y-49150363D01*
X98793972Y-49150000D01*
X98442830Y-49150000D01*
X98427831Y-49154404D01*
X98426644Y-49155774D01*
X98425000Y-49163332D01*
X98425000Y-49857170D01*
X98175000Y-49857170D01*
X98175000Y-49167830D01*
X98170596Y-49152831D01*
X98169226Y-49151644D01*
X98161668Y-49150000D01*
X97806028Y-49150000D01*
X97799331Y-49150363D01*
X97749256Y-49155803D01*
X97734247Y-49159371D01*
X97615689Y-49203817D01*
X97600350Y-49212214D01*
X97514456Y-49276588D01*
X97449006Y-49301041D01*
X97380725Y-49286227D01*
X97331292Y-49236849D01*
X97317975Y-49198896D01*
X97317435Y-49195832D01*
X97317434Y-49195831D01*
X97315551Y-49185149D01*
X97310127Y-49175755D01*
X97308799Y-49172105D01*
X97307149Y-49168566D01*
X97304340Y-49158084D01*
X97282275Y-49126572D01*
X97276463Y-49117448D01*
X97262665Y-49093550D01*
X97257239Y-49084151D01*
X97227778Y-49059430D01*
X97219804Y-49052123D01*
X97074766Y-48907085D01*
X97041281Y-48845762D01*
X97046265Y-48776070D01*
X97088137Y-48720137D01*
X97146261Y-48696465D01*
X97247890Y-48683085D01*
X97247893Y-48683084D01*
X97255953Y-48682023D01*
X97309472Y-48659855D01*
X97329074Y-48651736D01*
X97398544Y-48644267D01*
X97461023Y-48675543D01*
X97475748Y-48691927D01*
X97489596Y-48710404D01*
X97605236Y-48797071D01*
X97740552Y-48847798D01*
X97802244Y-48854500D01*
X98797756Y-48854500D01*
X98859448Y-48847798D01*
X98994764Y-48797071D01*
X99110404Y-48710404D01*
X99115703Y-48703334D01*
X99148289Y-48659855D01*
X99204246Y-48618015D01*
X99273940Y-48613070D01*
X99298426Y-48622542D01*
X99298722Y-48621828D01*
X99436533Y-48678911D01*
X99436536Y-48678912D01*
X99444047Y-48682023D01*
X99600000Y-48702555D01*
X99755953Y-48682023D01*
X99809472Y-48659855D01*
X99829074Y-48651736D01*
X99898544Y-48644267D01*
X99961023Y-48675543D01*
X99975748Y-48691927D01*
X99989596Y-48710404D01*
X100105236Y-48797071D01*
X100240552Y-48847798D01*
X100302244Y-48854500D01*
X101297756Y-48854500D01*
X101359448Y-48847798D01*
X101494764Y-48797071D01*
X101610404Y-48710404D01*
X101616287Y-48702555D01*
X101691770Y-48601837D01*
X101697071Y-48594764D01*
X101747798Y-48459448D01*
X101754500Y-48397756D01*
X101754500Y-47602244D01*
X101747798Y-47540552D01*
X101697071Y-47405236D01*
X101610404Y-47289596D01*
X101494764Y-47202929D01*
X101359448Y-47152202D01*
X101297756Y-47145500D01*
X101254700Y-47145500D01*
X101187661Y-47125815D01*
X101141906Y-47073011D01*
X101130700Y-47021500D01*
X101130700Y-45210686D01*
X101150385Y-45143647D01*
X101198792Y-45100005D01*
X101362344Y-45017390D01*
X101362349Y-45017387D01*
X101367763Y-45014652D01*
X101372542Y-45010918D01*
X101372547Y-45010915D01*
X101525941Y-44891069D01*
X101530722Y-44887334D01*
X101665848Y-44730789D01*
X101767995Y-44550979D01*
X101833270Y-44354753D01*
X101859189Y-44149586D01*
X101859602Y-44120000D01*
X101839422Y-43914189D01*
X101779651Y-43716217D01*
X101682565Y-43533625D01*
X101551863Y-43373368D01*
X101392522Y-43241550D01*
X101210612Y-43143192D01*
X101204816Y-43141398D01*
X101204814Y-43141397D01*
X101018863Y-43083835D01*
X101018859Y-43083834D01*
X101013063Y-43082040D01*
X100807397Y-43060424D01*
X100801364Y-43060973D01*
X100801360Y-43060973D01*
X100607492Y-43078616D01*
X100607490Y-43078616D01*
X100601450Y-43079166D01*
X100595631Y-43080879D01*
X100595629Y-43080879D01*
X100408881Y-43135842D01*
X100408876Y-43135844D01*
X100403066Y-43137554D01*
X100397696Y-43140361D01*
X100397692Y-43140363D01*
X100307039Y-43187756D01*
X100219801Y-43233363D01*
X100058635Y-43362943D01*
X99925708Y-43521360D01*
X99826082Y-43702578D01*
X99824250Y-43708352D01*
X99824250Y-43708353D01*
X99823454Y-43710864D01*
X99763553Y-43899696D01*
X99740501Y-44105206D01*
X99757806Y-44311278D01*
X99814807Y-44510066D01*
X99817577Y-44515455D01*
X99817577Y-44515456D01*
X99838544Y-44556254D01*
X99909334Y-44693995D01*
X100037786Y-44856061D01*
X100042405Y-44859992D01*
X100190657Y-44986165D01*
X100190662Y-44986169D01*
X100195271Y-44990091D01*
X100375789Y-45090980D01*
X100383614Y-45093523D01*
X100384544Y-45094158D01*
X100387114Y-45095281D01*
X100386901Y-45095769D01*
X100441289Y-45132955D01*
X100468491Y-45197312D01*
X100469300Y-45211454D01*
X100469300Y-47021500D01*
X100449615Y-47088539D01*
X100396811Y-47134294D01*
X100345300Y-47145500D01*
X100302244Y-47145500D01*
X100240552Y-47152202D01*
X100105236Y-47202929D01*
X99989596Y-47289596D01*
X99902929Y-47405236D01*
X99899827Y-47413511D01*
X99890235Y-47439098D01*
X99848270Y-47494961D01*
X99782765Y-47519269D01*
X99756121Y-47516705D01*
X99755953Y-47517977D01*
X99608059Y-47498506D01*
X99600000Y-47497445D01*
X99444047Y-47517977D01*
X99436536Y-47521088D01*
X99436533Y-47521089D01*
X99385377Y-47542278D01*
X99315908Y-47549747D01*
X99253429Y-47518471D01*
X99221816Y-47471244D01*
X99200174Y-47413513D01*
X99200173Y-47413511D01*
X99197071Y-47405236D01*
X99110404Y-47289596D01*
X98994764Y-47202929D01*
X98859448Y-47152202D01*
X98797756Y-47145500D01*
X98714700Y-47145500D01*
X98647661Y-47125815D01*
X98601906Y-47073011D01*
X98590700Y-47021500D01*
X98590700Y-45210686D01*
X98610385Y-45143647D01*
X98658792Y-45100005D01*
X98822344Y-45017390D01*
X98822349Y-45017387D01*
X98827763Y-45014652D01*
X98832542Y-45010918D01*
X98832547Y-45010915D01*
X98985941Y-44891069D01*
X98990722Y-44887334D01*
X99125848Y-44730789D01*
X99227995Y-44550979D01*
X99293270Y-44354753D01*
X99319189Y-44149586D01*
X99319602Y-44120000D01*
X99299422Y-43914189D01*
X99239651Y-43716217D01*
X99142565Y-43533625D01*
X99011863Y-43373368D01*
X98852522Y-43241550D01*
X98670612Y-43143192D01*
X98664816Y-43141398D01*
X98664814Y-43141397D01*
X98478863Y-43083835D01*
X98478859Y-43083834D01*
X98473063Y-43082040D01*
X98267397Y-43060424D01*
X98261364Y-43060973D01*
X98261360Y-43060973D01*
X98067492Y-43078616D01*
X98067490Y-43078616D01*
X98061450Y-43079166D01*
X98055631Y-43080879D01*
X98055629Y-43080879D01*
X97868881Y-43135842D01*
X97868876Y-43135844D01*
X97863066Y-43137554D01*
X97857696Y-43140361D01*
X97857692Y-43140363D01*
X97767039Y-43187756D01*
X97679801Y-43233363D01*
X97518635Y-43362943D01*
X97385708Y-43521360D01*
X97286082Y-43702578D01*
X97284250Y-43708352D01*
X97284250Y-43708353D01*
X97283454Y-43710864D01*
X97223553Y-43899696D01*
X97200501Y-44105206D01*
X97217806Y-44311278D01*
X97274807Y-44510066D01*
X97277577Y-44515455D01*
X97277577Y-44515456D01*
X97298544Y-44556254D01*
X97369334Y-44693995D01*
X97497786Y-44856061D01*
X97502405Y-44859992D01*
X97650657Y-44986165D01*
X97650662Y-44986169D01*
X97655271Y-44990091D01*
X97835789Y-45090980D01*
X97843614Y-45093523D01*
X97844544Y-45094158D01*
X97847114Y-45095281D01*
X97846901Y-45095769D01*
X97901289Y-45132955D01*
X97928491Y-45197312D01*
X97929300Y-45211454D01*
X97929300Y-47021500D01*
X97909615Y-47088539D01*
X97856811Y-47134294D01*
X97808914Y-47144714D01*
X97808947Y-47145319D01*
X97805606Y-47145500D01*
X97802244Y-47145500D01*
X97740552Y-47152202D01*
X97605236Y-47202929D01*
X97489596Y-47289596D01*
X97402929Y-47405236D01*
X97399827Y-47413511D01*
X97390235Y-47439098D01*
X97348270Y-47494961D01*
X97282765Y-47519269D01*
X97256121Y-47516705D01*
X97255953Y-47517977D01*
X97108059Y-47498506D01*
X97100000Y-47497445D01*
X96944047Y-47517977D01*
X96936536Y-47521088D01*
X96936533Y-47521089D01*
X96798818Y-47578132D01*
X96729349Y-47585601D01*
X96666870Y-47554326D01*
X96635257Y-47507098D01*
X96600174Y-47413513D01*
X96600173Y-47413511D01*
X96597071Y-47405236D01*
X96510404Y-47289596D01*
X96394764Y-47202929D01*
X96259448Y-47152202D01*
X96197756Y-47145500D01*
X96174700Y-47145500D01*
X96107661Y-47125815D01*
X96061906Y-47073011D01*
X96050700Y-47021500D01*
X96050700Y-45210686D01*
X96070385Y-45143647D01*
X96118792Y-45100005D01*
X96282344Y-45017390D01*
X96282349Y-45017387D01*
X96287763Y-45014652D01*
X96292542Y-45010918D01*
X96292547Y-45010915D01*
X96445941Y-44891069D01*
X96450722Y-44887334D01*
X96585848Y-44730789D01*
X96687995Y-44550979D01*
X96753270Y-44354753D01*
X96779189Y-44149586D01*
X96779602Y-44120000D01*
X96759422Y-43914189D01*
X96699651Y-43716217D01*
X96602565Y-43533625D01*
X96471863Y-43373368D01*
X96312522Y-43241550D01*
X96130612Y-43143192D01*
X96124816Y-43141398D01*
X96124814Y-43141397D01*
X95938863Y-43083835D01*
X95938859Y-43083834D01*
X95933063Y-43082040D01*
X95727397Y-43060424D01*
X95721364Y-43060973D01*
X95721360Y-43060973D01*
X95527492Y-43078616D01*
X95527490Y-43078616D01*
X95521450Y-43079166D01*
X95515631Y-43080879D01*
X95515629Y-43080879D01*
X95328881Y-43135842D01*
X95328876Y-43135844D01*
X95323066Y-43137554D01*
X95317696Y-43140361D01*
X95317692Y-43140363D01*
X95227039Y-43187756D01*
X95139801Y-43233363D01*
X94978635Y-43362943D01*
X94845708Y-43521360D01*
X94746082Y-43702578D01*
X94744250Y-43708352D01*
X94744250Y-43708353D01*
X94743454Y-43710864D01*
X94683553Y-43899696D01*
X94660501Y-44105206D01*
X94677806Y-44311278D01*
X94734807Y-44510066D01*
X94737577Y-44515455D01*
X94737577Y-44515456D01*
X94758544Y-44556254D01*
X94829334Y-44693995D01*
X94957786Y-44856061D01*
X94962405Y-44859992D01*
X95110657Y-44986165D01*
X95110662Y-44986169D01*
X95115271Y-44990091D01*
X95295789Y-45090980D01*
X95303614Y-45093523D01*
X95304544Y-45094158D01*
X95307114Y-45095281D01*
X95306901Y-45095769D01*
X95361289Y-45132955D01*
X95388491Y-45197312D01*
X95389300Y-45211454D01*
X95389300Y-47021500D01*
X95369615Y-47088539D01*
X95316811Y-47134294D01*
X95265300Y-47145500D01*
X95202244Y-47145500D01*
X95140552Y-47152202D01*
X95005236Y-47202929D01*
X94889596Y-47289596D01*
X94802929Y-47405236D01*
X94752202Y-47540552D01*
X94745500Y-47602244D01*
X94745500Y-48397756D01*
X94752202Y-48459448D01*
X94802929Y-48594764D01*
X94808230Y-48601837D01*
X94883714Y-48702555D01*
X94889596Y-48710404D01*
X95005236Y-48797071D01*
X95140552Y-48847798D01*
X95202244Y-48854500D01*
X96035458Y-48854500D01*
X96102497Y-48874185D01*
X96123139Y-48890819D01*
X96170639Y-48938319D01*
X96204124Y-48999642D01*
X96199140Y-49069334D01*
X96157268Y-49125267D01*
X96091804Y-49149684D01*
X96082958Y-49150000D01*
X95842830Y-49150000D01*
X95827831Y-49154404D01*
X95826644Y-49155774D01*
X95825000Y-49163332D01*
X95825000Y-50001000D01*
X95805315Y-50068039D01*
X95752511Y-50113794D01*
X95701000Y-50125000D01*
X95699000Y-50125000D01*
X95631961Y-50105315D01*
X95586206Y-50052511D01*
X95575000Y-50001000D01*
X95575000Y-49167830D01*
X95570596Y-49152831D01*
X95569226Y-49151644D01*
X95561668Y-49150000D01*
X95206028Y-49150000D01*
X95199331Y-49150363D01*
X95149256Y-49155803D01*
X95134247Y-49159371D01*
X95015689Y-49203817D01*
X95000353Y-49212213D01*
X94994475Y-49216618D01*
X94929025Y-49241073D01*
X94860743Y-49226261D01*
X94811309Y-49176884D01*
X94807725Y-49169800D01*
X94807148Y-49168563D01*
X94804340Y-49158084D01*
X94782275Y-49126572D01*
X94776463Y-49117448D01*
X94762665Y-49093550D01*
X94757239Y-49084151D01*
X94727778Y-49059430D01*
X94719804Y-49052123D01*
X94459451Y-48791770D01*
X94187783Y-48520103D01*
X94154298Y-48458780D01*
X94152189Y-48419031D01*
X94154137Y-48401096D01*
X94154137Y-48401093D01*
X94154500Y-48397756D01*
X94154500Y-47602244D01*
X94147798Y-47540552D01*
X94097071Y-47405236D01*
X94010404Y-47289596D01*
X93894764Y-47202929D01*
X93759448Y-47152202D01*
X93697756Y-47145500D01*
X93634700Y-47145500D01*
X93567661Y-47125815D01*
X93521906Y-47073011D01*
X93510700Y-47021500D01*
X93510700Y-45210686D01*
X93530385Y-45143647D01*
X93578792Y-45100005D01*
X93742344Y-45017390D01*
X93742349Y-45017387D01*
X93747763Y-45014652D01*
X93752542Y-45010918D01*
X93752547Y-45010915D01*
X93905941Y-44891069D01*
X93910722Y-44887334D01*
X94045848Y-44730789D01*
X94147995Y-44550979D01*
X94213270Y-44354753D01*
X94239189Y-44149586D01*
X94239602Y-44120000D01*
X94219422Y-43914189D01*
X94159651Y-43716217D01*
X94062565Y-43533625D01*
X93931863Y-43373368D01*
X93772522Y-43241550D01*
X93590612Y-43143192D01*
X93584816Y-43141398D01*
X93584814Y-43141397D01*
X93398863Y-43083835D01*
X93398859Y-43083834D01*
X93393063Y-43082040D01*
X93187397Y-43060424D01*
X93181364Y-43060973D01*
X93181360Y-43060973D01*
X92987492Y-43078616D01*
X92987490Y-43078616D01*
X92981450Y-43079166D01*
X92975631Y-43080879D01*
X92975629Y-43080879D01*
X92788881Y-43135842D01*
X92788876Y-43135844D01*
X92783066Y-43137554D01*
X92777696Y-43140361D01*
X92777692Y-43140363D01*
X92687039Y-43187756D01*
X92599801Y-43233363D01*
X92438635Y-43362943D01*
X92305708Y-43521360D01*
X92206082Y-43702578D01*
X92204250Y-43708352D01*
X92204250Y-43708353D01*
X92203454Y-43710864D01*
X92143553Y-43899696D01*
X92120501Y-44105206D01*
X92137806Y-44311278D01*
X92194807Y-44510066D01*
X92197577Y-44515455D01*
X92197577Y-44515456D01*
X92218544Y-44556254D01*
X92289334Y-44693995D01*
X92417786Y-44856061D01*
X92422405Y-44859992D01*
X92570657Y-44986165D01*
X92570662Y-44986169D01*
X92575271Y-44990091D01*
X92755789Y-45090980D01*
X92763614Y-45093523D01*
X92764544Y-45094158D01*
X92767114Y-45095281D01*
X92766901Y-45095769D01*
X92821289Y-45132955D01*
X92848491Y-45197312D01*
X92849300Y-45211454D01*
X92849300Y-47021500D01*
X92829615Y-47088539D01*
X92776811Y-47134294D01*
X92725300Y-47145500D01*
X92702244Y-47145500D01*
X92640552Y-47152202D01*
X92505236Y-47202929D01*
X92389596Y-47289596D01*
X92302929Y-47405236D01*
X92252202Y-47540552D01*
X92245500Y-47602244D01*
X92245500Y-48397756D01*
X92252202Y-48459448D01*
X92302929Y-48594764D01*
X92308230Y-48601837D01*
X92383714Y-48702555D01*
X92389596Y-48710404D01*
X92505236Y-48797071D01*
X92640552Y-48847798D01*
X92702244Y-48854500D01*
X93535458Y-48854500D01*
X93602497Y-48874185D01*
X93623139Y-48890819D01*
X93670639Y-48938319D01*
X93704124Y-48999642D01*
X93699140Y-49069334D01*
X93657268Y-49125267D01*
X93591804Y-49149684D01*
X93582958Y-49150000D01*
X93342830Y-49150000D01*
X93327831Y-49154404D01*
X93326644Y-49155774D01*
X93325000Y-49163332D01*
X93325000Y-50832170D01*
X93329404Y-50847169D01*
X93330774Y-50848356D01*
X93338332Y-50850000D01*
X93693972Y-50850000D01*
X93700669Y-50849637D01*
X93750744Y-50844197D01*
X93765753Y-50840629D01*
X93884311Y-50796183D01*
X93899650Y-50787786D01*
X93997270Y-50714624D01*
X94062720Y-50690171D01*
X94131002Y-50704985D01*
X94180434Y-50754363D01*
X94183432Y-50760994D01*
X94184449Y-50766759D01*
X94189870Y-50776149D01*
X94191199Y-50779801D01*
X94192852Y-50783346D01*
X94195660Y-50793824D01*
X94217731Y-50825345D01*
X94223523Y-50834437D01*
X94242761Y-50867757D01*
X94251071Y-50874730D01*
X94251072Y-50874731D01*
X94272227Y-50892482D01*
X94280202Y-50899790D01*
X95606231Y-52225819D01*
X95639716Y-52287142D01*
X95634732Y-52356834D01*
X95592860Y-52412767D01*
X95527396Y-52437184D01*
X95518550Y-52437500D01*
X92367199Y-52437500D01*
X92300160Y-52417815D01*
X92279518Y-52401181D01*
X91686702Y-51808364D01*
X91674512Y-51794179D01*
X91665728Y-51782243D01*
X91665725Y-51782240D01*
X91661454Y-51776436D01*
X91620873Y-51741960D01*
X91613488Y-51735150D01*
X91607685Y-51729347D01*
X91585221Y-51711575D01*
X91581956Y-51708898D01*
X91525949Y-51661316D01*
X91519530Y-51658038D01*
X91514345Y-51654580D01*
X91509050Y-51651310D01*
X91503400Y-51646840D01*
X91436851Y-51615737D01*
X91433002Y-51613855D01*
X91374012Y-51583732D01*
X91374003Y-51583729D01*
X91367596Y-51580457D01*
X91360604Y-51578746D01*
X91354763Y-51576574D01*
X91348845Y-51574605D01*
X91342321Y-51571556D01*
X91335273Y-51570090D01*
X91335270Y-51570089D01*
X91270401Y-51556597D01*
X91266179Y-51555641D01*
X91194888Y-51538196D01*
X91189378Y-51537854D01*
X91189377Y-51537854D01*
X91183670Y-51537500D01*
X91183673Y-51537458D01*
X91180047Y-51537238D01*
X91175290Y-51536814D01*
X91168244Y-51535348D01*
X91090386Y-51537455D01*
X91087032Y-51537500D01*
X86686500Y-51537500D01*
X86619461Y-51517815D01*
X86573706Y-51465011D01*
X86562500Y-51413500D01*
X86562500Y-50393972D01*
X92250000Y-50393972D01*
X92250363Y-50400669D01*
X92255803Y-50450744D01*
X92259371Y-50465753D01*
X92303817Y-50584311D01*
X92312212Y-50599646D01*
X92387516Y-50700124D01*
X92399876Y-50712484D01*
X92500354Y-50787788D01*
X92515689Y-50796183D01*
X92634247Y-50840629D01*
X92649256Y-50844197D01*
X92699331Y-50849637D01*
X92706028Y-50850000D01*
X93057170Y-50850000D01*
X93072169Y-50845596D01*
X93073356Y-50844226D01*
X93075000Y-50836668D01*
X93075000Y-50142830D01*
X93070596Y-50127831D01*
X93069226Y-50126644D01*
X93061668Y-50125000D01*
X92267830Y-50125000D01*
X92252831Y-50129404D01*
X92251644Y-50130774D01*
X92250000Y-50138332D01*
X92250000Y-50393972D01*
X86562500Y-50393972D01*
X86562500Y-49857170D01*
X92250000Y-49857170D01*
X92254404Y-49872169D01*
X92255774Y-49873356D01*
X92263332Y-49875000D01*
X93057170Y-49875000D01*
X93072169Y-49870596D01*
X93073356Y-49869226D01*
X93075000Y-49861668D01*
X93075000Y-49167830D01*
X93070596Y-49152831D01*
X93069226Y-49151644D01*
X93061668Y-49150000D01*
X92706028Y-49150000D01*
X92699331Y-49150363D01*
X92649256Y-49155803D01*
X92634247Y-49159371D01*
X92515689Y-49203817D01*
X92500354Y-49212212D01*
X92399876Y-49287516D01*
X92387516Y-49299876D01*
X92312212Y-49400354D01*
X92303817Y-49415689D01*
X92259371Y-49534247D01*
X92255803Y-49549256D01*
X92250363Y-49599331D01*
X92250000Y-49606028D01*
X92250000Y-49857170D01*
X86562500Y-49857170D01*
X86562500Y-42467200D01*
X86582185Y-42400161D01*
X86598819Y-42379519D01*
X91679519Y-37298819D01*
X91740842Y-37265334D01*
X91767200Y-37262500D01*
X92051975Y-37262500D01*
X92119014Y-37282185D01*
X92153550Y-37315377D01*
X92170696Y-37339865D01*
X92170699Y-37339868D01*
X92173802Y-37344300D01*
X92335700Y-37506198D01*
X92381739Y-37538435D01*
X92518813Y-37634416D01*
X92518817Y-37634418D01*
X92523251Y-37637523D01*
X92563296Y-37656196D01*
X92725854Y-37731998D01*
X92725857Y-37731999D01*
X92730757Y-37734284D01*
X92951913Y-37793543D01*
X93180000Y-37813498D01*
X93408087Y-37793543D01*
X93629243Y-37734284D01*
X93634143Y-37731999D01*
X93634146Y-37731998D01*
X93796704Y-37656196D01*
X93836749Y-37637523D01*
X93841183Y-37634418D01*
X93841187Y-37634416D01*
X93978261Y-37538435D01*
X94024300Y-37506198D01*
X94186198Y-37344300D01*
X94189301Y-37339868D01*
X94189304Y-37339865D01*
X94206450Y-37315377D01*
X94261027Y-37271752D01*
X94308025Y-37262500D01*
X94591975Y-37262500D01*
X94659014Y-37282185D01*
X94693550Y-37315377D01*
X94710696Y-37339865D01*
X94710699Y-37339868D01*
X94713802Y-37344300D01*
X94875700Y-37506198D01*
X94921739Y-37538435D01*
X95058813Y-37634416D01*
X95058817Y-37634418D01*
X95063251Y-37637523D01*
X95103296Y-37656196D01*
X95265854Y-37731998D01*
X95265857Y-37731999D01*
X95270757Y-37734284D01*
X95491913Y-37793543D01*
X95720000Y-37813498D01*
X95948087Y-37793543D01*
X96169243Y-37734284D01*
X96174143Y-37731999D01*
X96174146Y-37731998D01*
X96336704Y-37656196D01*
X96376749Y-37637523D01*
X96381183Y-37634418D01*
X96381187Y-37634416D01*
X96518261Y-37538435D01*
X96564300Y-37506198D01*
X96726198Y-37344300D01*
X96729301Y-37339868D01*
X96729304Y-37339865D01*
X96746450Y-37315377D01*
X96801027Y-37271752D01*
X96848025Y-37262500D01*
X97131975Y-37262500D01*
X97199014Y-37282185D01*
X97233550Y-37315377D01*
X97250696Y-37339865D01*
X97250699Y-37339868D01*
X97253802Y-37344300D01*
X97415700Y-37506198D01*
X97461739Y-37538435D01*
X97598813Y-37634416D01*
X97598817Y-37634418D01*
X97603251Y-37637523D01*
X97643296Y-37656196D01*
X97805854Y-37731998D01*
X97805857Y-37731999D01*
X97810757Y-37734284D01*
X98031913Y-37793543D01*
X98260000Y-37813498D01*
X98488087Y-37793543D01*
X98709243Y-37734284D01*
X98714143Y-37731999D01*
X98714146Y-37731998D01*
X98876704Y-37656196D01*
X98916749Y-37637523D01*
X98921183Y-37634418D01*
X98921187Y-37634416D01*
X99058261Y-37538435D01*
X99104300Y-37506198D01*
X99266198Y-37344300D01*
X99271658Y-37336502D01*
X99326233Y-37292877D01*
X99395731Y-37285683D01*
X99458086Y-37317204D01*
X99493501Y-37377434D01*
X99496508Y-37394234D01*
X99497415Y-37402588D01*
X99497416Y-37402592D01*
X99498255Y-37410316D01*
X99500983Y-37417593D01*
X99500984Y-37417597D01*
X99530308Y-37495818D01*
X99549385Y-37546705D01*
X99636739Y-37663261D01*
X99753295Y-37750615D01*
X99804182Y-37769692D01*
X99882403Y-37799016D01*
X99882407Y-37799017D01*
X99889684Y-37801745D01*
X99951866Y-37808500D01*
X101648134Y-37808500D01*
X101710316Y-37801745D01*
X101717593Y-37799017D01*
X101717597Y-37799016D01*
X101795818Y-37769692D01*
X101846705Y-37750615D01*
X101963261Y-37663261D01*
X102050615Y-37546705D01*
X102069692Y-37495818D01*
X102099016Y-37417597D01*
X102099017Y-37417593D01*
X102101745Y-37410316D01*
X102108500Y-37348134D01*
X102108500Y-35651866D01*
X102101745Y-35589684D01*
X102099017Y-35582407D01*
X102099016Y-35582403D01*
X102053715Y-35461565D01*
X102050615Y-35453295D01*
X102045320Y-35446229D01*
X102041074Y-35438474D01*
X102043015Y-35437411D01*
X102022842Y-35383409D01*
X102037660Y-35315128D01*
X102087040Y-35265698D01*
X102146522Y-35250500D01*
X124125500Y-35250500D01*
X124192539Y-35270185D01*
G37*
G04 #@! TD.AperFunction*
G04 #@! TA.AperFunction,Conductor*
G36*
X92356932Y-35270185D02*
G01*
X92402687Y-35322989D01*
X92412631Y-35392147D01*
X92383606Y-35455703D01*
X92361016Y-35476075D01*
X92340139Y-35490693D01*
X92340133Y-35490698D01*
X92335700Y-35493802D01*
X92173802Y-35655700D01*
X92170699Y-35660131D01*
X92170696Y-35660135D01*
X92153550Y-35684623D01*
X92098973Y-35728248D01*
X92051975Y-35737500D01*
X91467226Y-35737500D01*
X91448576Y-35736090D01*
X91447078Y-35735862D01*
X91426792Y-35732776D01*
X91419612Y-35733360D01*
X91419610Y-35733360D01*
X91373731Y-35737092D01*
X91363678Y-35737500D01*
X91355475Y-35737500D01*
X91327062Y-35740812D01*
X91322771Y-35741237D01*
X91249574Y-35747191D01*
X91242716Y-35749413D01*
X91236605Y-35750634D01*
X91230554Y-35752064D01*
X91223393Y-35752899D01*
X91216618Y-35755358D01*
X91216619Y-35755358D01*
X91154376Y-35777951D01*
X91150282Y-35779357D01*
X91087274Y-35799768D01*
X91087272Y-35799769D01*
X91080425Y-35801987D01*
X91074268Y-35805724D01*
X91068630Y-35808305D01*
X91063033Y-35811107D01*
X91056259Y-35813566D01*
X91050238Y-35817514D01*
X91050231Y-35817517D01*
X90994862Y-35853818D01*
X90991204Y-35856126D01*
X90933145Y-35891358D01*
X90933136Y-35891364D01*
X90928419Y-35894227D01*
X90919995Y-35901667D01*
X90919966Y-35901634D01*
X90917231Y-35904060D01*
X90913591Y-35907103D01*
X90907565Y-35911054D01*
X90902612Y-35916282D01*
X90902609Y-35916285D01*
X90854012Y-35967586D01*
X90851672Y-35969990D01*
X85308364Y-41513298D01*
X85294179Y-41525488D01*
X85282243Y-41534272D01*
X85282240Y-41534275D01*
X85276436Y-41538546D01*
X85241960Y-41579127D01*
X85235150Y-41586512D01*
X85229347Y-41592315D01*
X85211575Y-41614779D01*
X85208898Y-41618044D01*
X85161316Y-41674051D01*
X85158038Y-41680470D01*
X85154580Y-41685655D01*
X85151310Y-41690950D01*
X85146840Y-41696600D01*
X85115737Y-41763149D01*
X85113855Y-41766998D01*
X85083732Y-41825988D01*
X85083729Y-41825997D01*
X85080457Y-41832404D01*
X85078746Y-41839396D01*
X85076574Y-41845237D01*
X85074605Y-41851155D01*
X85071556Y-41857679D01*
X85070090Y-41864727D01*
X85070089Y-41864730D01*
X85056597Y-41929599D01*
X85055641Y-41933820D01*
X85038196Y-42005112D01*
X85037500Y-42016330D01*
X85037458Y-42016327D01*
X85037238Y-42019953D01*
X85036814Y-42024710D01*
X85035348Y-42031756D01*
X85035543Y-42038951D01*
X85037455Y-42109614D01*
X85037500Y-42112968D01*
X85037500Y-51932800D01*
X85017815Y-51999839D01*
X85001181Y-52020481D01*
X81223403Y-55798259D01*
X81215261Y-55805707D01*
X81213591Y-55807103D01*
X81207565Y-55811054D01*
X81202612Y-55816282D01*
X81202609Y-55816285D01*
X81154012Y-55867586D01*
X81151672Y-55869990D01*
X75858364Y-61163298D01*
X75844179Y-61175488D01*
X75832243Y-61184272D01*
X75832240Y-61184275D01*
X75826436Y-61188546D01*
X75791960Y-61229127D01*
X75785150Y-61236512D01*
X75779347Y-61242315D01*
X75761575Y-61264779D01*
X75758898Y-61268044D01*
X75711316Y-61324051D01*
X75708038Y-61330470D01*
X75704580Y-61335655D01*
X75701310Y-61340950D01*
X75696840Y-61346600D01*
X75665737Y-61413149D01*
X75663855Y-61416998D01*
X75633732Y-61475988D01*
X75633729Y-61475997D01*
X75630457Y-61482404D01*
X75628746Y-61489396D01*
X75626574Y-61495237D01*
X75624605Y-61501155D01*
X75621556Y-61507679D01*
X75620090Y-61514727D01*
X75620089Y-61514730D01*
X75606597Y-61579599D01*
X75605641Y-61583820D01*
X75588196Y-61655112D01*
X75587500Y-61666330D01*
X75587458Y-61666327D01*
X75587238Y-61669953D01*
X75586814Y-61674710D01*
X75585348Y-61681756D01*
X75586017Y-61706485D01*
X75587455Y-61759614D01*
X75587500Y-61762968D01*
X75587500Y-61780297D01*
X75582577Y-61814891D01*
X75569198Y-61860942D01*
X75544438Y-61946169D01*
X75541500Y-61983498D01*
X75541500Y-63136100D01*
X75521815Y-63203139D01*
X75469011Y-63248894D01*
X75417500Y-63260100D01*
X75125410Y-63260100D01*
X75058371Y-63240415D01*
X75012616Y-63187611D01*
X75002936Y-63116706D01*
X75004500Y-63106834D01*
X75004500Y-62018166D01*
X74989498Y-61923445D01*
X74931326Y-61809277D01*
X74840723Y-61718674D01*
X74765560Y-61680376D01*
X74735252Y-61664933D01*
X74735250Y-61664932D01*
X74726555Y-61660502D01*
X74631834Y-61645500D01*
X74268166Y-61645500D01*
X74173445Y-61660502D01*
X74164750Y-61664932D01*
X74164748Y-61664933D01*
X74134440Y-61680376D01*
X74059277Y-61718674D01*
X73968674Y-61809277D01*
X73910502Y-61923445D01*
X73895500Y-62018166D01*
X73895500Y-63106834D01*
X73910502Y-63201555D01*
X73914932Y-63210250D01*
X73914933Y-63210252D01*
X73928809Y-63237484D01*
X73968674Y-63315723D01*
X74059277Y-63406326D01*
X74067974Y-63410758D01*
X74067975Y-63410758D01*
X74158802Y-63457038D01*
X74209597Y-63505012D01*
X74226392Y-63572834D01*
X74203854Y-63638968D01*
X74149139Y-63682419D01*
X74137100Y-63686599D01*
X74043893Y-63713677D01*
X74043887Y-63713679D01*
X74036399Y-63715855D01*
X74029681Y-63719828D01*
X73899910Y-63796574D01*
X73899907Y-63796576D01*
X73893193Y-63800547D01*
X73775547Y-63918193D01*
X73771576Y-63924907D01*
X73771574Y-63924910D01*
X73704989Y-64037500D01*
X73690855Y-64061399D01*
X73688679Y-64068888D01*
X73688678Y-64068891D01*
X73659031Y-64170940D01*
X73644438Y-64221169D01*
X73641500Y-64258498D01*
X73641500Y-65416502D01*
X73644438Y-65453831D01*
X73646205Y-65459913D01*
X73686470Y-65598506D01*
X73690855Y-65613601D01*
X73694828Y-65620319D01*
X73771574Y-65750090D01*
X73771576Y-65750093D01*
X73775547Y-65756807D01*
X73893193Y-65874453D01*
X73899907Y-65878424D01*
X73899910Y-65878426D01*
X74029681Y-65955172D01*
X74036399Y-65959145D01*
X74043888Y-65961321D01*
X74043891Y-65961322D01*
X74109477Y-65980376D01*
X74196169Y-66005562D01*
X74233498Y-66008500D01*
X74666502Y-66008500D01*
X74703831Y-66005562D01*
X74790523Y-65980376D01*
X74856109Y-65961322D01*
X74856112Y-65961321D01*
X74863601Y-65959145D01*
X74870319Y-65955172D01*
X75000090Y-65878426D01*
X75000093Y-65878424D01*
X75006807Y-65874453D01*
X75098515Y-65782745D01*
X75159838Y-65749260D01*
X75205591Y-65747952D01*
X75213704Y-65749237D01*
X75223399Y-65750000D01*
X75257170Y-65750000D01*
X75272169Y-65745596D01*
X75273356Y-65744226D01*
X75275000Y-65736668D01*
X75275000Y-64836500D01*
X75294685Y-64769461D01*
X75347489Y-64723706D01*
X75399000Y-64712500D01*
X75401000Y-64712500D01*
X75468039Y-64732185D01*
X75513794Y-64784989D01*
X75525000Y-64836500D01*
X75525000Y-65732169D01*
X75529404Y-65747169D01*
X75544702Y-65760424D01*
X75582477Y-65819202D01*
X75587500Y-65854137D01*
X75587500Y-67682801D01*
X75567815Y-67749840D01*
X75551181Y-67770482D01*
X75215432Y-68106230D01*
X74888364Y-68433298D01*
X74874179Y-68445488D01*
X74862243Y-68454272D01*
X74862240Y-68454275D01*
X74856436Y-68458546D01*
X74821960Y-68499127D01*
X74815150Y-68506512D01*
X74809347Y-68512315D01*
X74791575Y-68534779D01*
X74788898Y-68538044D01*
X74741316Y-68594051D01*
X74738038Y-68600470D01*
X74734580Y-68605655D01*
X74731310Y-68610950D01*
X74726840Y-68616600D01*
X74695737Y-68683149D01*
X74693855Y-68686998D01*
X74663732Y-68745988D01*
X74663729Y-68745997D01*
X74660457Y-68752404D01*
X74658746Y-68759396D01*
X74656574Y-68765237D01*
X74654605Y-68771155D01*
X74651556Y-68777679D01*
X74650090Y-68784727D01*
X74650089Y-68784730D01*
X74636597Y-68849599D01*
X74635641Y-68853820D01*
X74618196Y-68925112D01*
X74617500Y-68936330D01*
X74617458Y-68936327D01*
X74617238Y-68939953D01*
X74616814Y-68944710D01*
X74615348Y-68951756D01*
X74616863Y-69007724D01*
X74617455Y-69029614D01*
X74617500Y-69032968D01*
X74617500Y-70004878D01*
X74597815Y-70071917D01*
X74549796Y-70115362D01*
X74526956Y-70127000D01*
X74526954Y-70127001D01*
X74521161Y-70129953D01*
X74376830Y-70246830D01*
X74372743Y-70251877D01*
X74266767Y-70382747D01*
X74259953Y-70391161D01*
X74257004Y-70396950D01*
X74257002Y-70396952D01*
X74218898Y-70471736D01*
X74175638Y-70556638D01*
X74173957Y-70562911D01*
X74173956Y-70562914D01*
X74157854Y-70623008D01*
X74127570Y-70736029D01*
X74121500Y-70813157D01*
X74121500Y-70876000D01*
X74101815Y-70943039D01*
X74049011Y-70988794D01*
X73997500Y-71000000D01*
X73374500Y-71000000D01*
X73307461Y-70980315D01*
X73261706Y-70927511D01*
X73250500Y-70876000D01*
X73250500Y-70786885D01*
X73252883Y-70762694D01*
X73253025Y-70761980D01*
X73255408Y-70750000D01*
X73235966Y-70652260D01*
X73180601Y-70569399D01*
X73161503Y-70556638D01*
X73107896Y-70520820D01*
X73097740Y-70514034D01*
X73024674Y-70499500D01*
X73000000Y-70494592D01*
X72988020Y-70496975D01*
X72987306Y-70497117D01*
X72963115Y-70499500D01*
X69874500Y-70499500D01*
X69807461Y-70479815D01*
X69761706Y-70427011D01*
X69750500Y-70375500D01*
X69750500Y-54181060D01*
X70545167Y-54181060D01*
X70545523Y-54184388D01*
X70545523Y-54184394D01*
X70581901Y-54524784D01*
X70584929Y-54553121D01*
X70585639Y-54556379D01*
X70585641Y-54556389D01*
X70654042Y-54870102D01*
X70664641Y-54918711D01*
X70783369Y-55273554D01*
X70784769Y-55276597D01*
X70784771Y-55276603D01*
X70822178Y-55357930D01*
X70939727Y-55613499D01*
X70965140Y-55655961D01*
X71119897Y-55914541D01*
X71131883Y-55934569D01*
X71357591Y-56233009D01*
X71359889Y-56235447D01*
X71359891Y-56235450D01*
X71436197Y-56316424D01*
X71614210Y-56505326D01*
X71616759Y-56507503D01*
X71873256Y-56726572D01*
X71898738Y-56748336D01*
X71901503Y-56750222D01*
X71901508Y-56750226D01*
X71968366Y-56795833D01*
X72207847Y-56959196D01*
X72537921Y-57135439D01*
X72885098Y-57275003D01*
X73041000Y-57318825D01*
X73242082Y-57375347D01*
X73242088Y-57375348D01*
X73245317Y-57376256D01*
X73477004Y-57415027D01*
X73611053Y-57437460D01*
X73611057Y-57437460D01*
X73614365Y-57438014D01*
X73900288Y-57454500D01*
X74093690Y-57454500D01*
X74095346Y-57454410D01*
X74095358Y-57454410D01*
X74370291Y-57439520D01*
X74370292Y-57439520D01*
X74373632Y-57439339D01*
X74742893Y-57378870D01*
X74746117Y-57377976D01*
X74746121Y-57377975D01*
X75100221Y-57279774D01*
X75100220Y-57279774D01*
X75103463Y-57278875D01*
X75243215Y-57223261D01*
X75448004Y-57141766D01*
X75448013Y-57141762D01*
X75451126Y-57140523D01*
X75599459Y-57061985D01*
X75778840Y-56967008D01*
X75778846Y-56967005D01*
X75781812Y-56965434D01*
X76091655Y-56755654D01*
X76098056Y-56750226D01*
X76374464Y-56515815D01*
X76377030Y-56513639D01*
X76542053Y-56339741D01*
X76632283Y-56244659D01*
X76632287Y-56244654D01*
X76634598Y-56242219D01*
X76693073Y-56165460D01*
X76859314Y-55947237D01*
X76859318Y-55947231D01*
X76861346Y-55944569D01*
X77054623Y-55624172D01*
X77082085Y-55565011D01*
X77210752Y-55287819D01*
X77212165Y-55284775D01*
X77322049Y-54960138D01*
X77331054Y-54933533D01*
X77331054Y-54933532D01*
X77332132Y-54930348D01*
X77413119Y-54565038D01*
X77436203Y-54355953D01*
X77453813Y-54196447D01*
X77453813Y-54196439D01*
X77454180Y-54193119D01*
X77454833Y-53818940D01*
X77453670Y-53808059D01*
X77415427Y-53450207D01*
X77415426Y-53450201D01*
X77415071Y-53446879D01*
X77414361Y-53443621D01*
X77414359Y-53443611D01*
X77336074Y-53084567D01*
X77336073Y-53084562D01*
X77335359Y-53081289D01*
X77216631Y-52726446D01*
X77213494Y-52719624D01*
X77095672Y-52463464D01*
X77060273Y-52386501D01*
X76868117Y-52065431D01*
X76642409Y-51766991D01*
X76618831Y-51741970D01*
X76486248Y-51601277D01*
X76385790Y-51494674D01*
X76101262Y-51251664D01*
X76098497Y-51249778D01*
X76098492Y-51249774D01*
X75934015Y-51137576D01*
X75792153Y-51040804D01*
X75462079Y-50864561D01*
X75114902Y-50724997D01*
X74814558Y-50640574D01*
X74757918Y-50624653D01*
X74757912Y-50624652D01*
X74754683Y-50623744D01*
X74480458Y-50577854D01*
X74388947Y-50562540D01*
X74388943Y-50562540D01*
X74385635Y-50561986D01*
X74099712Y-50545500D01*
X73906310Y-50545500D01*
X73904654Y-50545590D01*
X73904642Y-50545590D01*
X73629709Y-50560480D01*
X73629708Y-50560480D01*
X73626368Y-50560661D01*
X73257107Y-50621130D01*
X73253883Y-50622024D01*
X73253879Y-50622025D01*
X73186994Y-50640574D01*
X72896537Y-50721125D01*
X72883661Y-50726249D01*
X72551996Y-50858234D01*
X72551987Y-50858238D01*
X72548874Y-50859477D01*
X72545905Y-50861049D01*
X72221160Y-51032992D01*
X72221154Y-51032995D01*
X72218188Y-51034566D01*
X71908345Y-51244346D01*
X71622970Y-51486361D01*
X71557226Y-51555641D01*
X71375705Y-51746924D01*
X71365402Y-51757781D01*
X71363365Y-51760455D01*
X71165279Y-52020481D01*
X71138654Y-52055431D01*
X70945377Y-52375828D01*
X70943964Y-52378873D01*
X70943963Y-52378874D01*
X70925887Y-52417815D01*
X70787835Y-52715225D01*
X70667868Y-53069652D01*
X70586881Y-53434962D01*
X70579842Y-53498723D01*
X70546580Y-53800000D01*
X70545820Y-53806881D01*
X70545814Y-53810223D01*
X70545814Y-53810226D01*
X70545583Y-53942761D01*
X70545167Y-54181060D01*
X69750500Y-54181060D01*
X69750500Y-35374500D01*
X69770185Y-35307461D01*
X69822989Y-35261706D01*
X69874500Y-35250500D01*
X92289893Y-35250500D01*
X92356932Y-35270185D01*
G37*
G04 #@! TD.AperFunction*
M02*
