G04 #@! TF.GenerationSoftware,KiCad,Pcbnew,(7.0.0-0)*
G04 #@! TF.CreationDate,2023-03-15T13:18:41-07:00*
G04 #@! TF.ProjectId,qcard-multicart,71636172-642d-46d7-956c-746963617274,3*
G04 #@! TF.SameCoordinates,Original*
G04 #@! TF.FileFunction,Legend,Bot*
G04 #@! TF.FilePolarity,Positive*
%FSLAX46Y46*%
G04 Gerber Fmt 4.6, Leading zero omitted, Abs format (unit mm)*
G04 Created by KiCad (PCBNEW (7.0.0-0)) date 2023-03-15 13:18:41*
%MOMM*%
%LPD*%
G01*
G04 APERTURE LIST*
G04 Aperture macros list*
%AMRoundRect*
0 Rectangle with rounded corners*
0 $1 Rounding radius*
0 $2 $3 $4 $5 $6 $7 $8 $9 X,Y pos of 4 corners*
0 Add a 4 corners polygon primitive as box body*
4,1,4,$2,$3,$4,$5,$6,$7,$8,$9,$2,$3,0*
0 Add four circle primitives for the rounded corners*
1,1,$1+$1,$2,$3*
1,1,$1+$1,$4,$5*
1,1,$1+$1,$6,$7*
1,1,$1+$1,$8,$9*
0 Add four rect primitives between the rounded corners*
20,1,$1+$1,$2,$3,$4,$5,0*
20,1,$1+$1,$4,$5,$6,$7,0*
20,1,$1+$1,$6,$7,$8,$9,0*
20,1,$1+$1,$8,$9,$2,$3,0*%
G04 Aperture macros list end*
%ADD10C,0.150000*%
%ADD11C,0.120000*%
%ADD12C,6.400000*%
%ADD13R,1.600000X1.600000*%
%ADD14O,1.600000X1.600000*%
%ADD15RoundRect,0.375000X-0.375000X-4.625000X0.375000X-4.625000X0.375000X4.625000X-0.375000X4.625000X0*%
%ADD16RoundRect,0.250000X-0.450000X0.350000X-0.450000X-0.350000X0.450000X-0.350000X0.450000X0.350000X0*%
%ADD17RoundRect,0.250000X-0.337500X-0.475000X0.337500X-0.475000X0.337500X0.475000X-0.337500X0.475000X0*%
%ADD18RoundRect,0.150000X0.150000X-0.512500X0.150000X0.512500X-0.150000X0.512500X-0.150000X-0.512500X0*%
G04 APERTURE END LIST*
D10*
X98416666Y-40667380D02*
X98749999Y-40191190D01*
X98988094Y-40667380D02*
X98988094Y-39667380D01*
X98988094Y-39667380D02*
X98607142Y-39667380D01*
X98607142Y-39667380D02*
X98511904Y-39715000D01*
X98511904Y-39715000D02*
X98464285Y-39762619D01*
X98464285Y-39762619D02*
X98416666Y-39857857D01*
X98416666Y-39857857D02*
X98416666Y-40000714D01*
X98416666Y-40000714D02*
X98464285Y-40095952D01*
X98464285Y-40095952D02*
X98511904Y-40143571D01*
X98511904Y-40143571D02*
X98607142Y-40191190D01*
X98607142Y-40191190D02*
X98988094Y-40191190D01*
X98083332Y-39667380D02*
X97464285Y-39667380D01*
X97464285Y-39667380D02*
X97797618Y-40048333D01*
X97797618Y-40048333D02*
X97654761Y-40048333D01*
X97654761Y-40048333D02*
X97559523Y-40095952D01*
X97559523Y-40095952D02*
X97511904Y-40143571D01*
X97511904Y-40143571D02*
X97464285Y-40238809D01*
X97464285Y-40238809D02*
X97464285Y-40476904D01*
X97464285Y-40476904D02*
X97511904Y-40572142D01*
X97511904Y-40572142D02*
X97559523Y-40619761D01*
X97559523Y-40619761D02*
X97654761Y-40667380D01*
X97654761Y-40667380D02*
X97940475Y-40667380D01*
X97940475Y-40667380D02*
X98035713Y-40619761D01*
X98035713Y-40619761D02*
X98083332Y-40572142D01*
X95716666Y-40567380D02*
X96049999Y-40091190D01*
X96288094Y-40567380D02*
X96288094Y-39567380D01*
X96288094Y-39567380D02*
X95907142Y-39567380D01*
X95907142Y-39567380D02*
X95811904Y-39615000D01*
X95811904Y-39615000D02*
X95764285Y-39662619D01*
X95764285Y-39662619D02*
X95716666Y-39757857D01*
X95716666Y-39757857D02*
X95716666Y-39900714D01*
X95716666Y-39900714D02*
X95764285Y-39995952D01*
X95764285Y-39995952D02*
X95811904Y-40043571D01*
X95811904Y-40043571D02*
X95907142Y-40091190D01*
X95907142Y-40091190D02*
X96288094Y-40091190D01*
X95335713Y-39662619D02*
X95288094Y-39615000D01*
X95288094Y-39615000D02*
X95192856Y-39567380D01*
X95192856Y-39567380D02*
X94954761Y-39567380D01*
X94954761Y-39567380D02*
X94859523Y-39615000D01*
X94859523Y-39615000D02*
X94811904Y-39662619D01*
X94811904Y-39662619D02*
X94764285Y-39757857D01*
X94764285Y-39757857D02*
X94764285Y-39853095D01*
X94764285Y-39853095D02*
X94811904Y-39995952D01*
X94811904Y-39995952D02*
X95383332Y-40567380D01*
X95383332Y-40567380D02*
X94764285Y-40567380D01*
X79766666Y-66872142D02*
X79814285Y-66919761D01*
X79814285Y-66919761D02*
X79957142Y-66967380D01*
X79957142Y-66967380D02*
X80052380Y-66967380D01*
X80052380Y-66967380D02*
X80195237Y-66919761D01*
X80195237Y-66919761D02*
X80290475Y-66824523D01*
X80290475Y-66824523D02*
X80338094Y-66729285D01*
X80338094Y-66729285D02*
X80385713Y-66538809D01*
X80385713Y-66538809D02*
X80385713Y-66395952D01*
X80385713Y-66395952D02*
X80338094Y-66205476D01*
X80338094Y-66205476D02*
X80290475Y-66110238D01*
X80290475Y-66110238D02*
X80195237Y-66015000D01*
X80195237Y-66015000D02*
X80052380Y-65967380D01*
X80052380Y-65967380D02*
X79957142Y-65967380D01*
X79957142Y-65967380D02*
X79814285Y-66015000D01*
X79814285Y-66015000D02*
X79766666Y-66062619D01*
X78814285Y-66967380D02*
X79385713Y-66967380D01*
X79099999Y-66967380D02*
X79099999Y-65967380D01*
X79099999Y-65967380D02*
X79195237Y-66110238D01*
X79195237Y-66110238D02*
X79290475Y-66205476D01*
X79290475Y-66205476D02*
X79385713Y-66253095D01*
X93316666Y-40567380D02*
X93649999Y-40091190D01*
X93888094Y-40567380D02*
X93888094Y-39567380D01*
X93888094Y-39567380D02*
X93507142Y-39567380D01*
X93507142Y-39567380D02*
X93411904Y-39615000D01*
X93411904Y-39615000D02*
X93364285Y-39662619D01*
X93364285Y-39662619D02*
X93316666Y-39757857D01*
X93316666Y-39757857D02*
X93316666Y-39900714D01*
X93316666Y-39900714D02*
X93364285Y-39995952D01*
X93364285Y-39995952D02*
X93411904Y-40043571D01*
X93411904Y-40043571D02*
X93507142Y-40091190D01*
X93507142Y-40091190D02*
X93888094Y-40091190D01*
X92364285Y-40567380D02*
X92935713Y-40567380D01*
X92649999Y-40567380D02*
X92649999Y-39567380D01*
X92649999Y-39567380D02*
X92745237Y-39710238D01*
X92745237Y-39710238D02*
X92840475Y-39805476D01*
X92840475Y-39805476D02*
X92935713Y-39853095D01*
X79766666Y-60772142D02*
X79814285Y-60819761D01*
X79814285Y-60819761D02*
X79957142Y-60867380D01*
X79957142Y-60867380D02*
X80052380Y-60867380D01*
X80052380Y-60867380D02*
X80195237Y-60819761D01*
X80195237Y-60819761D02*
X80290475Y-60724523D01*
X80290475Y-60724523D02*
X80338094Y-60629285D01*
X80338094Y-60629285D02*
X80385713Y-60438809D01*
X80385713Y-60438809D02*
X80385713Y-60295952D01*
X80385713Y-60295952D02*
X80338094Y-60105476D01*
X80338094Y-60105476D02*
X80290475Y-60010238D01*
X80290475Y-60010238D02*
X80195237Y-59915000D01*
X80195237Y-59915000D02*
X80052380Y-59867380D01*
X80052380Y-59867380D02*
X79957142Y-59867380D01*
X79957142Y-59867380D02*
X79814285Y-59915000D01*
X79814285Y-59915000D02*
X79766666Y-59962619D01*
X79385713Y-59962619D02*
X79338094Y-59915000D01*
X79338094Y-59915000D02*
X79242856Y-59867380D01*
X79242856Y-59867380D02*
X79004761Y-59867380D01*
X79004761Y-59867380D02*
X78909523Y-59915000D01*
X78909523Y-59915000D02*
X78861904Y-59962619D01*
X78861904Y-59962619D02*
X78814285Y-60057857D01*
X78814285Y-60057857D02*
X78814285Y-60153095D01*
X78814285Y-60153095D02*
X78861904Y-60295952D01*
X78861904Y-60295952D02*
X79433332Y-60867380D01*
X79433332Y-60867380D02*
X78814285Y-60867380D01*
X76161904Y-66467380D02*
X76161904Y-67276904D01*
X76161904Y-67276904D02*
X76114285Y-67372142D01*
X76114285Y-67372142D02*
X76066666Y-67419761D01*
X76066666Y-67419761D02*
X75971428Y-67467380D01*
X75971428Y-67467380D02*
X75780952Y-67467380D01*
X75780952Y-67467380D02*
X75685714Y-67419761D01*
X75685714Y-67419761D02*
X75638095Y-67372142D01*
X75638095Y-67372142D02*
X75590476Y-67276904D01*
X75590476Y-67276904D02*
X75590476Y-66467380D01*
X75161904Y-66562619D02*
X75114285Y-66515000D01*
X75114285Y-66515000D02*
X75019047Y-66467380D01*
X75019047Y-66467380D02*
X74780952Y-66467380D01*
X74780952Y-66467380D02*
X74685714Y-66515000D01*
X74685714Y-66515000D02*
X74638095Y-66562619D01*
X74638095Y-66562619D02*
X74590476Y-66657857D01*
X74590476Y-66657857D02*
X74590476Y-66753095D01*
X74590476Y-66753095D02*
X74638095Y-66895952D01*
X74638095Y-66895952D02*
X75209523Y-67467380D01*
X75209523Y-67467380D02*
X74590476Y-67467380D01*
X100916666Y-40667380D02*
X101249999Y-40191190D01*
X101488094Y-40667380D02*
X101488094Y-39667380D01*
X101488094Y-39667380D02*
X101107142Y-39667380D01*
X101107142Y-39667380D02*
X101011904Y-39715000D01*
X101011904Y-39715000D02*
X100964285Y-39762619D01*
X100964285Y-39762619D02*
X100916666Y-39857857D01*
X100916666Y-39857857D02*
X100916666Y-40000714D01*
X100916666Y-40000714D02*
X100964285Y-40095952D01*
X100964285Y-40095952D02*
X101011904Y-40143571D01*
X101011904Y-40143571D02*
X101107142Y-40191190D01*
X101107142Y-40191190D02*
X101488094Y-40191190D01*
X100059523Y-40000714D02*
X100059523Y-40667380D01*
X100297618Y-39619761D02*
X100535713Y-40334047D01*
X100535713Y-40334047D02*
X99916666Y-40334047D01*
D11*
X98985000Y-42772936D02*
X98985000Y-43227064D01*
X97515000Y-42772936D02*
X97515000Y-43227064D01*
X96385000Y-42772936D02*
X96385000Y-43227064D01*
X94915000Y-42772936D02*
X94915000Y-43227064D01*
X79338748Y-64065000D02*
X79861252Y-64065000D01*
X79338748Y-65535000D02*
X79861252Y-65535000D01*
X93885000Y-42772936D02*
X93885000Y-43227064D01*
X92415000Y-42772936D02*
X92415000Y-43227064D01*
X79338748Y-61665000D02*
X79861252Y-61665000D01*
X79338748Y-63135000D02*
X79861252Y-63135000D01*
X73840000Y-63700000D02*
X73840000Y-64500000D01*
X73840000Y-63700000D02*
X73840000Y-62900000D01*
X76960000Y-63700000D02*
X76960000Y-65500000D01*
X76960000Y-63700000D02*
X76960000Y-62900000D01*
X101485000Y-42772936D02*
X101485000Y-43227064D01*
X100015000Y-42772936D02*
X100015000Y-43227064D01*
%LPC*%
D12*
X74000000Y-54000000D03*
X120000000Y-54000000D03*
D13*
X100799999Y-28449999D03*
D14*
X98259999Y-28449999D03*
X95719999Y-28449999D03*
X93179999Y-28449999D03*
X93179999Y-36069999D03*
X95719999Y-36069999D03*
X98259999Y-36069999D03*
X100799999Y-36069999D03*
D15*
X75380000Y-75500000D03*
X77920000Y-75500000D03*
X80460000Y-75500000D03*
X83000000Y-75500000D03*
X85540000Y-75500000D03*
X88080000Y-75500000D03*
X90620000Y-75500000D03*
X93160000Y-75500000D03*
X95700000Y-75500000D03*
X98240000Y-75500000D03*
X100780000Y-75500000D03*
X103320000Y-75500000D03*
X105860000Y-75500000D03*
X108400000Y-75500000D03*
X110940000Y-75500000D03*
X113480000Y-75500000D03*
X116020000Y-75500000D03*
X118560000Y-75500000D03*
D16*
X98250000Y-42000000D03*
X98250000Y-44000000D03*
X95650000Y-42000000D03*
X95650000Y-44000000D03*
D17*
X78562500Y-64800000D03*
X80637500Y-64800000D03*
D16*
X93150000Y-42000000D03*
X93150000Y-44000000D03*
D17*
X78562500Y-62400000D03*
X80637500Y-62400000D03*
D18*
X76350000Y-64837500D03*
X75400000Y-64837500D03*
X74450000Y-64837500D03*
X74450000Y-62562500D03*
X76350000Y-62562500D03*
D16*
X100750000Y-42000000D03*
X100750000Y-44000000D03*
M02*
