G04 #@! TF.GenerationSoftware,KiCad,Pcbnew,(6.0.7-1)-1*
G04 #@! TF.CreationDate,2023-02-13T21:38:44-08:00*
G04 #@! TF.ProjectId,qcard-multicart,71636172-642d-46d7-956c-746963617274,1*
G04 #@! TF.SameCoordinates,Original*
G04 #@! TF.FileFunction,Soldermask,Top*
G04 #@! TF.FilePolarity,Negative*
%FSLAX46Y46*%
G04 Gerber Fmt 4.6, Leading zero omitted, Abs format (unit mm)*
G04 Created by KiCad (PCBNEW (6.0.7-1)-1) date 2023-02-13 21:38:44*
%MOMM*%
%LPD*%
G01*
G04 APERTURE LIST*
G04 Aperture macros list*
%AMRoundRect*
0 Rectangle with rounded corners*
0 $1 Rounding radius*
0 $2 $3 $4 $5 $6 $7 $8 $9 X,Y pos of 4 corners*
0 Add a 4 corners polygon primitive as box body*
4,1,4,$2,$3,$4,$5,$6,$7,$8,$9,$2,$3,0*
0 Add four circle primitives for the rounded corners*
1,1,$1+$1,$2,$3*
1,1,$1+$1,$4,$5*
1,1,$1+$1,$6,$7*
1,1,$1+$1,$8,$9*
0 Add four rect primitives between the rounded corners*
20,1,$1+$1,$2,$3,$4,$5,0*
20,1,$1+$1,$4,$5,$6,$7,0*
20,1,$1+$1,$6,$7,$8,$9,0*
20,1,$1+$1,$8,$9,$2,$3,0*%
G04 Aperture macros list end*
%ADD10R,1.540000X0.280000*%
%ADD11C,6.400000*%
%ADD12R,1.600000X1.600000*%
%ADD13O,1.600000X1.600000*%
%ADD14RoundRect,0.375000X-0.375000X-4.625000X0.375000X-4.625000X0.375000X4.625000X-0.375000X4.625000X0*%
%ADD15RoundRect,0.250000X0.337500X0.475000X-0.337500X0.475000X-0.337500X-0.475000X0.337500X-0.475000X0*%
G04 APERTURE END LIST*
D10*
X87310000Y-52250000D03*
X87310000Y-52750000D03*
X87310000Y-53250000D03*
X87310000Y-53750000D03*
X87310000Y-54250000D03*
X87310000Y-54750000D03*
X87310000Y-55250000D03*
X87310000Y-55750000D03*
X87310000Y-56250000D03*
X87310000Y-56750000D03*
X87310000Y-57250000D03*
X87310000Y-57750000D03*
X87310000Y-58250000D03*
X87310000Y-58750000D03*
X87310000Y-59250000D03*
X87310000Y-59750000D03*
X87310000Y-60250000D03*
X87310000Y-60750000D03*
X87310000Y-61250000D03*
X87310000Y-61750000D03*
X87310000Y-62250000D03*
X87310000Y-62750000D03*
X87310000Y-63250000D03*
X87310000Y-63750000D03*
X106690000Y-63750000D03*
X106690000Y-63250000D03*
X106690000Y-62750000D03*
X106690000Y-62250000D03*
X106690000Y-61750000D03*
X106690000Y-61250000D03*
X106690000Y-60750000D03*
X106690000Y-60250000D03*
X106690000Y-59750000D03*
X106690000Y-59250000D03*
X106690000Y-58750000D03*
X106690000Y-58250000D03*
X106690000Y-57750000D03*
X106690000Y-57250000D03*
X106690000Y-56750000D03*
X106690000Y-56250000D03*
X106690000Y-55750000D03*
X106690000Y-55250000D03*
X106690000Y-54750000D03*
X106690000Y-54250000D03*
X106690000Y-53750000D03*
X106690000Y-53250000D03*
X106690000Y-52750000D03*
X106690000Y-52250000D03*
D11*
X74000000Y-54000000D03*
X120000000Y-54000000D03*
D12*
X100800000Y-36500000D03*
D13*
X98260000Y-36500000D03*
X95720000Y-36500000D03*
X93180000Y-36500000D03*
X93180000Y-44120000D03*
X95720000Y-44120000D03*
X98260000Y-44120000D03*
X100800000Y-44120000D03*
D14*
X75410000Y-75500000D03*
X77950000Y-75500000D03*
X80490000Y-75500000D03*
X83030000Y-75500000D03*
X85570000Y-75500000D03*
X88110000Y-75500000D03*
X90650000Y-75500000D03*
X93190000Y-75500000D03*
X95730000Y-75500000D03*
X98270000Y-75500000D03*
X100810000Y-75500000D03*
X103350000Y-75500000D03*
X105890000Y-75500000D03*
X108430000Y-75500000D03*
X110970000Y-75500000D03*
X113510000Y-75500000D03*
X116050000Y-75500000D03*
X118590000Y-75500000D03*
D15*
X111075000Y-57500000D03*
X109000000Y-57500000D03*
M02*
