G04 #@! TF.GenerationSoftware,KiCad,Pcbnew,(7.0.0-0)*
G04 #@! TF.CreationDate,2023-03-15T13:18:41-07:00*
G04 #@! TF.ProjectId,qcard-multicart,71636172-642d-46d7-956c-746963617274,3*
G04 #@! TF.SameCoordinates,Original*
G04 #@! TF.FileFunction,Legend,Top*
G04 #@! TF.FilePolarity,Positive*
%FSLAX46Y46*%
G04 Gerber Fmt 4.6, Leading zero omitted, Abs format (unit mm)*
G04 Created by KiCad (PCBNEW (7.0.0-0)) date 2023-03-15 13:18:41*
%MOMM*%
%LPD*%
G01*
G04 APERTURE LIST*
G04 Aperture macros list*
%AMRoundRect*
0 Rectangle with rounded corners*
0 $1 Rounding radius*
0 $2 $3 $4 $5 $6 $7 $8 $9 X,Y pos of 4 corners*
0 Add a 4 corners polygon primitive as box body*
4,1,4,$2,$3,$4,$5,$6,$7,$8,$9,$2,$3,0*
0 Add four circle primitives for the rounded corners*
1,1,$1+$1,$2,$3*
1,1,$1+$1,$4,$5*
1,1,$1+$1,$6,$7*
1,1,$1+$1,$8,$9*
0 Add four rect primitives between the rounded corners*
20,1,$1+$1,$2,$3,$4,$5,0*
20,1,$1+$1,$4,$5,$6,$7,0*
20,1,$1+$1,$6,$7,$8,$9,0*
20,1,$1+$1,$8,$9,$2,$3,0*%
G04 Aperture macros list end*
%ADD10C,0.127000*%
%ADD11C,0.150000*%
%ADD12C,0.200000*%
%ADD13C,0.120000*%
%ADD14R,1.540000X0.280000*%
%ADD15C,6.400000*%
%ADD16R,1.600000X1.600000*%
%ADD17O,1.600000X1.600000*%
%ADD18RoundRect,0.375000X-0.375000X-4.625000X0.375000X-4.625000X0.375000X4.625000X-0.375000X4.625000X0*%
%ADD19RoundRect,0.250000X0.337500X0.475000X-0.337500X0.475000X-0.337500X-0.475000X0.337500X-0.475000X0*%
G04 APERTURE END LIST*
D10*
X91009522Y-49152619D02*
X90914284Y-49105000D01*
X90914284Y-49105000D02*
X90819046Y-49009761D01*
X90819046Y-49009761D02*
X90676189Y-48866904D01*
X90676189Y-48866904D02*
X90580951Y-48819285D01*
X90580951Y-48819285D02*
X90485713Y-48819285D01*
X90533332Y-49057380D02*
X90438094Y-49009761D01*
X90438094Y-49009761D02*
X90342856Y-48914523D01*
X90342856Y-48914523D02*
X90295237Y-48724047D01*
X90295237Y-48724047D02*
X90295237Y-48390714D01*
X90295237Y-48390714D02*
X90342856Y-48200238D01*
X90342856Y-48200238D02*
X90438094Y-48105000D01*
X90438094Y-48105000D02*
X90533332Y-48057380D01*
X90533332Y-48057380D02*
X90723808Y-48057380D01*
X90723808Y-48057380D02*
X90819046Y-48105000D01*
X90819046Y-48105000D02*
X90914284Y-48200238D01*
X90914284Y-48200238D02*
X90961903Y-48390714D01*
X90961903Y-48390714D02*
X90961903Y-48724047D01*
X90961903Y-48724047D02*
X90914284Y-48914523D01*
X90914284Y-48914523D02*
X90819046Y-49009761D01*
X90819046Y-49009761D02*
X90723808Y-49057380D01*
X90723808Y-49057380D02*
X90533332Y-49057380D01*
X91390475Y-48676428D02*
X92152380Y-48676428D01*
X93199998Y-48962142D02*
X93152379Y-49009761D01*
X93152379Y-49009761D02*
X93009522Y-49057380D01*
X93009522Y-49057380D02*
X92914284Y-49057380D01*
X92914284Y-49057380D02*
X92771427Y-49009761D01*
X92771427Y-49009761D02*
X92676189Y-48914523D01*
X92676189Y-48914523D02*
X92628570Y-48819285D01*
X92628570Y-48819285D02*
X92580951Y-48628809D01*
X92580951Y-48628809D02*
X92580951Y-48485952D01*
X92580951Y-48485952D02*
X92628570Y-48295476D01*
X92628570Y-48295476D02*
X92676189Y-48200238D01*
X92676189Y-48200238D02*
X92771427Y-48105000D01*
X92771427Y-48105000D02*
X92914284Y-48057380D01*
X92914284Y-48057380D02*
X93009522Y-48057380D01*
X93009522Y-48057380D02*
X93152379Y-48105000D01*
X93152379Y-48105000D02*
X93199998Y-48152619D01*
X93628570Y-49057380D02*
X93628570Y-48057380D01*
X94057141Y-49057380D02*
X94057141Y-48533571D01*
X94057141Y-48533571D02*
X94009522Y-48438333D01*
X94009522Y-48438333D02*
X93914284Y-48390714D01*
X93914284Y-48390714D02*
X93771427Y-48390714D01*
X93771427Y-48390714D02*
X93676189Y-48438333D01*
X93676189Y-48438333D02*
X93628570Y-48485952D01*
X94676189Y-49057380D02*
X94580951Y-49009761D01*
X94580951Y-49009761D02*
X94533332Y-48962142D01*
X94533332Y-48962142D02*
X94485713Y-48866904D01*
X94485713Y-48866904D02*
X94485713Y-48581190D01*
X94485713Y-48581190D02*
X94533332Y-48485952D01*
X94533332Y-48485952D02*
X94580951Y-48438333D01*
X94580951Y-48438333D02*
X94676189Y-48390714D01*
X94676189Y-48390714D02*
X94819046Y-48390714D01*
X94819046Y-48390714D02*
X94914284Y-48438333D01*
X94914284Y-48438333D02*
X94961903Y-48485952D01*
X94961903Y-48485952D02*
X95009522Y-48581190D01*
X95009522Y-48581190D02*
X95009522Y-48866904D01*
X95009522Y-48866904D02*
X94961903Y-48962142D01*
X94961903Y-48962142D02*
X94914284Y-49009761D01*
X94914284Y-49009761D02*
X94819046Y-49057380D01*
X94819046Y-49057380D02*
X94676189Y-49057380D01*
X95438094Y-49057380D02*
X95438094Y-48390714D01*
X95438094Y-48581190D02*
X95485713Y-48485952D01*
X95485713Y-48485952D02*
X95533332Y-48438333D01*
X95533332Y-48438333D02*
X95628570Y-48390714D01*
X95628570Y-48390714D02*
X95723808Y-48390714D01*
X96485713Y-49057380D02*
X96485713Y-48057380D01*
X96485713Y-49009761D02*
X96390475Y-49057380D01*
X96390475Y-49057380D02*
X96199999Y-49057380D01*
X96199999Y-49057380D02*
X96104761Y-49009761D01*
X96104761Y-49009761D02*
X96057142Y-48962142D01*
X96057142Y-48962142D02*
X96009523Y-48866904D01*
X96009523Y-48866904D02*
X96009523Y-48581190D01*
X96009523Y-48581190D02*
X96057142Y-48485952D01*
X96057142Y-48485952D02*
X96104761Y-48438333D01*
X96104761Y-48438333D02*
X96199999Y-48390714D01*
X96199999Y-48390714D02*
X96390475Y-48390714D01*
X96390475Y-48390714D02*
X96485713Y-48438333D01*
X97561904Y-49057380D02*
X97561904Y-48057380D01*
X97561904Y-48057380D02*
X97895237Y-48771666D01*
X97895237Y-48771666D02*
X98228570Y-48057380D01*
X98228570Y-48057380D02*
X98228570Y-49057380D01*
X99133332Y-48390714D02*
X99133332Y-49057380D01*
X98704761Y-48390714D02*
X98704761Y-48914523D01*
X98704761Y-48914523D02*
X98752380Y-49009761D01*
X98752380Y-49009761D02*
X98847618Y-49057380D01*
X98847618Y-49057380D02*
X98990475Y-49057380D01*
X98990475Y-49057380D02*
X99085713Y-49009761D01*
X99085713Y-49009761D02*
X99133332Y-48962142D01*
X99752380Y-49057380D02*
X99657142Y-49009761D01*
X99657142Y-49009761D02*
X99609523Y-48914523D01*
X99609523Y-48914523D02*
X99609523Y-48057380D01*
X99990476Y-48390714D02*
X100371428Y-48390714D01*
X100133333Y-48057380D02*
X100133333Y-48914523D01*
X100133333Y-48914523D02*
X100180952Y-49009761D01*
X100180952Y-49009761D02*
X100276190Y-49057380D01*
X100276190Y-49057380D02*
X100371428Y-49057380D01*
X100704762Y-49057380D02*
X100704762Y-48390714D01*
X100704762Y-48057380D02*
X100657143Y-48105000D01*
X100657143Y-48105000D02*
X100704762Y-48152619D01*
X100704762Y-48152619D02*
X100752381Y-48105000D01*
X100752381Y-48105000D02*
X100704762Y-48057380D01*
X100704762Y-48057380D02*
X100704762Y-48152619D01*
X101609523Y-49009761D02*
X101514285Y-49057380D01*
X101514285Y-49057380D02*
X101323809Y-49057380D01*
X101323809Y-49057380D02*
X101228571Y-49009761D01*
X101228571Y-49009761D02*
X101180952Y-48962142D01*
X101180952Y-48962142D02*
X101133333Y-48866904D01*
X101133333Y-48866904D02*
X101133333Y-48581190D01*
X101133333Y-48581190D02*
X101180952Y-48485952D01*
X101180952Y-48485952D02*
X101228571Y-48438333D01*
X101228571Y-48438333D02*
X101323809Y-48390714D01*
X101323809Y-48390714D02*
X101514285Y-48390714D01*
X101514285Y-48390714D02*
X101609523Y-48438333D01*
X102466666Y-49057380D02*
X102466666Y-48533571D01*
X102466666Y-48533571D02*
X102419047Y-48438333D01*
X102419047Y-48438333D02*
X102323809Y-48390714D01*
X102323809Y-48390714D02*
X102133333Y-48390714D01*
X102133333Y-48390714D02*
X102038095Y-48438333D01*
X102466666Y-49009761D02*
X102371428Y-49057380D01*
X102371428Y-49057380D02*
X102133333Y-49057380D01*
X102133333Y-49057380D02*
X102038095Y-49009761D01*
X102038095Y-49009761D02*
X101990476Y-48914523D01*
X101990476Y-48914523D02*
X101990476Y-48819285D01*
X101990476Y-48819285D02*
X102038095Y-48724047D01*
X102038095Y-48724047D02*
X102133333Y-48676428D01*
X102133333Y-48676428D02*
X102371428Y-48676428D01*
X102371428Y-48676428D02*
X102466666Y-48628809D01*
X102942857Y-49057380D02*
X102942857Y-48390714D01*
X102942857Y-48581190D02*
X102990476Y-48485952D01*
X102990476Y-48485952D02*
X103038095Y-48438333D01*
X103038095Y-48438333D02*
X103133333Y-48390714D01*
X103133333Y-48390714D02*
X103228571Y-48390714D01*
X103419048Y-48390714D02*
X103800000Y-48390714D01*
X103561905Y-48057380D02*
X103561905Y-48914523D01*
X103561905Y-48914523D02*
X103609524Y-49009761D01*
X103609524Y-49009761D02*
X103704762Y-49057380D01*
X103704762Y-49057380D02*
X103800000Y-49057380D01*
X87247618Y-50201190D02*
X87199999Y-50153571D01*
X87199999Y-50153571D02*
X87104761Y-50105952D01*
X87104761Y-50105952D02*
X87009523Y-50105952D01*
X87009523Y-50105952D02*
X86914285Y-50153571D01*
X86914285Y-50153571D02*
X86866666Y-50201190D01*
X86866666Y-50201190D02*
X86819047Y-50296428D01*
X86819047Y-50296428D02*
X86819047Y-50391666D01*
X86819047Y-50391666D02*
X86866666Y-50486904D01*
X86866666Y-50486904D02*
X86914285Y-50534523D01*
X86914285Y-50534523D02*
X87009523Y-50582142D01*
X87009523Y-50582142D02*
X87104761Y-50582142D01*
X87104761Y-50582142D02*
X87199999Y-50534523D01*
X87199999Y-50534523D02*
X87247618Y-50486904D01*
X87247618Y-50105952D02*
X87247618Y-50486904D01*
X87247618Y-50486904D02*
X87295237Y-50534523D01*
X87295237Y-50534523D02*
X87342856Y-50534523D01*
X87342856Y-50534523D02*
X87438095Y-50486904D01*
X87438095Y-50486904D02*
X87485714Y-50391666D01*
X87485714Y-50391666D02*
X87485714Y-50153571D01*
X87485714Y-50153571D02*
X87390476Y-50010714D01*
X87390476Y-50010714D02*
X87247618Y-49915476D01*
X87247618Y-49915476D02*
X87057142Y-49867857D01*
X87057142Y-49867857D02*
X86866666Y-49915476D01*
X86866666Y-49915476D02*
X86723809Y-50010714D01*
X86723809Y-50010714D02*
X86628571Y-50153571D01*
X86628571Y-50153571D02*
X86580952Y-50344047D01*
X86580952Y-50344047D02*
X86628571Y-50534523D01*
X86628571Y-50534523D02*
X86723809Y-50677380D01*
X86723809Y-50677380D02*
X86866666Y-50772619D01*
X86866666Y-50772619D02*
X87057142Y-50820238D01*
X87057142Y-50820238D02*
X87247618Y-50772619D01*
X87247618Y-50772619D02*
X87390476Y-50677380D01*
X87914285Y-50010714D02*
X87914285Y-51010714D01*
X87914285Y-50058333D02*
X88009523Y-50010714D01*
X88009523Y-50010714D02*
X88199999Y-50010714D01*
X88199999Y-50010714D02*
X88295237Y-50058333D01*
X88295237Y-50058333D02*
X88342856Y-50105952D01*
X88342856Y-50105952D02*
X88390475Y-50201190D01*
X88390475Y-50201190D02*
X88390475Y-50486904D01*
X88390475Y-50486904D02*
X88342856Y-50582142D01*
X88342856Y-50582142D02*
X88295237Y-50629761D01*
X88295237Y-50629761D02*
X88199999Y-50677380D01*
X88199999Y-50677380D02*
X88009523Y-50677380D01*
X88009523Y-50677380D02*
X87914285Y-50629761D01*
X89247618Y-50677380D02*
X89247618Y-50153571D01*
X89247618Y-50153571D02*
X89199999Y-50058333D01*
X89199999Y-50058333D02*
X89104761Y-50010714D01*
X89104761Y-50010714D02*
X88914285Y-50010714D01*
X88914285Y-50010714D02*
X88819047Y-50058333D01*
X89247618Y-50629761D02*
X89152380Y-50677380D01*
X89152380Y-50677380D02*
X88914285Y-50677380D01*
X88914285Y-50677380D02*
X88819047Y-50629761D01*
X88819047Y-50629761D02*
X88771428Y-50534523D01*
X88771428Y-50534523D02*
X88771428Y-50439285D01*
X88771428Y-50439285D02*
X88819047Y-50344047D01*
X88819047Y-50344047D02*
X88914285Y-50296428D01*
X88914285Y-50296428D02*
X89152380Y-50296428D01*
X89152380Y-50296428D02*
X89247618Y-50248809D01*
X89723809Y-50677380D02*
X89723809Y-50010714D01*
X89723809Y-50201190D02*
X89771428Y-50105952D01*
X89771428Y-50105952D02*
X89819047Y-50058333D01*
X89819047Y-50058333D02*
X89914285Y-50010714D01*
X89914285Y-50010714D02*
X90009523Y-50010714D01*
X90200000Y-50010714D02*
X90580952Y-50010714D01*
X90342857Y-49677380D02*
X90342857Y-50534523D01*
X90342857Y-50534523D02*
X90390476Y-50629761D01*
X90390476Y-50629761D02*
X90485714Y-50677380D01*
X90485714Y-50677380D02*
X90580952Y-50677380D01*
X91057143Y-50677380D02*
X90961905Y-50629761D01*
X90961905Y-50629761D02*
X90914286Y-50534523D01*
X90914286Y-50534523D02*
X90914286Y-49677380D01*
X91342858Y-50010714D02*
X91580953Y-50677380D01*
X91819048Y-50010714D02*
X91580953Y-50677380D01*
X91580953Y-50677380D02*
X91485715Y-50915476D01*
X91485715Y-50915476D02*
X91438096Y-50963095D01*
X91438096Y-50963095D02*
X91342858Y-51010714D01*
X92200001Y-50677380D02*
X92200001Y-49677380D01*
X92628572Y-50677380D02*
X92628572Y-50153571D01*
X92628572Y-50153571D02*
X92580953Y-50058333D01*
X92580953Y-50058333D02*
X92485715Y-50010714D01*
X92485715Y-50010714D02*
X92342858Y-50010714D01*
X92342858Y-50010714D02*
X92247620Y-50058333D01*
X92247620Y-50058333D02*
X92200001Y-50105952D01*
X93533334Y-50010714D02*
X93533334Y-50677380D01*
X93104763Y-50010714D02*
X93104763Y-50534523D01*
X93104763Y-50534523D02*
X93152382Y-50629761D01*
X93152382Y-50629761D02*
X93247620Y-50677380D01*
X93247620Y-50677380D02*
X93390477Y-50677380D01*
X93390477Y-50677380D02*
X93485715Y-50629761D01*
X93485715Y-50629761D02*
X93533334Y-50582142D01*
X94009525Y-50677380D02*
X94009525Y-50010714D01*
X94009525Y-50105952D02*
X94057144Y-50058333D01*
X94057144Y-50058333D02*
X94152382Y-50010714D01*
X94152382Y-50010714D02*
X94295239Y-50010714D01*
X94295239Y-50010714D02*
X94390477Y-50058333D01*
X94390477Y-50058333D02*
X94438096Y-50153571D01*
X94438096Y-50153571D02*
X94438096Y-50677380D01*
X94438096Y-50153571D02*
X94485715Y-50058333D01*
X94485715Y-50058333D02*
X94580953Y-50010714D01*
X94580953Y-50010714D02*
X94723810Y-50010714D01*
X94723810Y-50010714D02*
X94819049Y-50058333D01*
X94819049Y-50058333D02*
X94866668Y-50153571D01*
X94866668Y-50153571D02*
X94866668Y-50677380D01*
X95771429Y-50677380D02*
X95771429Y-50153571D01*
X95771429Y-50153571D02*
X95723810Y-50058333D01*
X95723810Y-50058333D02*
X95628572Y-50010714D01*
X95628572Y-50010714D02*
X95438096Y-50010714D01*
X95438096Y-50010714D02*
X95342858Y-50058333D01*
X95771429Y-50629761D02*
X95676191Y-50677380D01*
X95676191Y-50677380D02*
X95438096Y-50677380D01*
X95438096Y-50677380D02*
X95342858Y-50629761D01*
X95342858Y-50629761D02*
X95295239Y-50534523D01*
X95295239Y-50534523D02*
X95295239Y-50439285D01*
X95295239Y-50439285D02*
X95342858Y-50344047D01*
X95342858Y-50344047D02*
X95438096Y-50296428D01*
X95438096Y-50296428D02*
X95676191Y-50296428D01*
X95676191Y-50296428D02*
X95771429Y-50248809D01*
X96247620Y-50010714D02*
X96247620Y-50677380D01*
X96247620Y-50105952D02*
X96295239Y-50058333D01*
X96295239Y-50058333D02*
X96390477Y-50010714D01*
X96390477Y-50010714D02*
X96533334Y-50010714D01*
X96533334Y-50010714D02*
X96628572Y-50058333D01*
X96628572Y-50058333D02*
X96676191Y-50153571D01*
X96676191Y-50153571D02*
X96676191Y-50677380D01*
X97704763Y-49772619D02*
X97752382Y-49725000D01*
X97752382Y-49725000D02*
X97847620Y-49677380D01*
X97847620Y-49677380D02*
X98085715Y-49677380D01*
X98085715Y-49677380D02*
X98180953Y-49725000D01*
X98180953Y-49725000D02*
X98228572Y-49772619D01*
X98228572Y-49772619D02*
X98276191Y-49867857D01*
X98276191Y-49867857D02*
X98276191Y-49963095D01*
X98276191Y-49963095D02*
X98228572Y-50105952D01*
X98228572Y-50105952D02*
X97657144Y-50677380D01*
X97657144Y-50677380D02*
X98276191Y-50677380D01*
X98895239Y-49677380D02*
X98990477Y-49677380D01*
X98990477Y-49677380D02*
X99085715Y-49725000D01*
X99085715Y-49725000D02*
X99133334Y-49772619D01*
X99133334Y-49772619D02*
X99180953Y-49867857D01*
X99180953Y-49867857D02*
X99228572Y-50058333D01*
X99228572Y-50058333D02*
X99228572Y-50296428D01*
X99228572Y-50296428D02*
X99180953Y-50486904D01*
X99180953Y-50486904D02*
X99133334Y-50582142D01*
X99133334Y-50582142D02*
X99085715Y-50629761D01*
X99085715Y-50629761D02*
X98990477Y-50677380D01*
X98990477Y-50677380D02*
X98895239Y-50677380D01*
X98895239Y-50677380D02*
X98800001Y-50629761D01*
X98800001Y-50629761D02*
X98752382Y-50582142D01*
X98752382Y-50582142D02*
X98704763Y-50486904D01*
X98704763Y-50486904D02*
X98657144Y-50296428D01*
X98657144Y-50296428D02*
X98657144Y-50058333D01*
X98657144Y-50058333D02*
X98704763Y-49867857D01*
X98704763Y-49867857D02*
X98752382Y-49772619D01*
X98752382Y-49772619D02*
X98800001Y-49725000D01*
X98800001Y-49725000D02*
X98895239Y-49677380D01*
X99609525Y-49772619D02*
X99657144Y-49725000D01*
X99657144Y-49725000D02*
X99752382Y-49677380D01*
X99752382Y-49677380D02*
X99990477Y-49677380D01*
X99990477Y-49677380D02*
X100085715Y-49725000D01*
X100085715Y-49725000D02*
X100133334Y-49772619D01*
X100133334Y-49772619D02*
X100180953Y-49867857D01*
X100180953Y-49867857D02*
X100180953Y-49963095D01*
X100180953Y-49963095D02*
X100133334Y-50105952D01*
X100133334Y-50105952D02*
X99561906Y-50677380D01*
X99561906Y-50677380D02*
X100180953Y-50677380D01*
X100514287Y-49677380D02*
X101133334Y-49677380D01*
X101133334Y-49677380D02*
X100800001Y-50058333D01*
X100800001Y-50058333D02*
X100942858Y-50058333D01*
X100942858Y-50058333D02*
X101038096Y-50105952D01*
X101038096Y-50105952D02*
X101085715Y-50153571D01*
X101085715Y-50153571D02*
X101133334Y-50248809D01*
X101133334Y-50248809D02*
X101133334Y-50486904D01*
X101133334Y-50486904D02*
X101085715Y-50582142D01*
X101085715Y-50582142D02*
X101038096Y-50629761D01*
X101038096Y-50629761D02*
X100942858Y-50677380D01*
X100942858Y-50677380D02*
X100657144Y-50677380D01*
X100657144Y-50677380D02*
X100561906Y-50629761D01*
X100561906Y-50629761D02*
X100514287Y-50582142D01*
X101561906Y-50296428D02*
X102323811Y-50296428D01*
X102990477Y-49677380D02*
X103085715Y-49677380D01*
X103085715Y-49677380D02*
X103180953Y-49725000D01*
X103180953Y-49725000D02*
X103228572Y-49772619D01*
X103228572Y-49772619D02*
X103276191Y-49867857D01*
X103276191Y-49867857D02*
X103323810Y-50058333D01*
X103323810Y-50058333D02*
X103323810Y-50296428D01*
X103323810Y-50296428D02*
X103276191Y-50486904D01*
X103276191Y-50486904D02*
X103228572Y-50582142D01*
X103228572Y-50582142D02*
X103180953Y-50629761D01*
X103180953Y-50629761D02*
X103085715Y-50677380D01*
X103085715Y-50677380D02*
X102990477Y-50677380D01*
X102990477Y-50677380D02*
X102895239Y-50629761D01*
X102895239Y-50629761D02*
X102847620Y-50582142D01*
X102847620Y-50582142D02*
X102800001Y-50486904D01*
X102800001Y-50486904D02*
X102752382Y-50296428D01*
X102752382Y-50296428D02*
X102752382Y-50058333D01*
X102752382Y-50058333D02*
X102800001Y-49867857D01*
X102800001Y-49867857D02*
X102847620Y-49772619D01*
X102847620Y-49772619D02*
X102895239Y-49725000D01*
X102895239Y-49725000D02*
X102990477Y-49677380D01*
X103657144Y-49677380D02*
X104276191Y-49677380D01*
X104276191Y-49677380D02*
X103942858Y-50058333D01*
X103942858Y-50058333D02*
X104085715Y-50058333D01*
X104085715Y-50058333D02*
X104180953Y-50105952D01*
X104180953Y-50105952D02*
X104228572Y-50153571D01*
X104228572Y-50153571D02*
X104276191Y-50248809D01*
X104276191Y-50248809D02*
X104276191Y-50486904D01*
X104276191Y-50486904D02*
X104228572Y-50582142D01*
X104228572Y-50582142D02*
X104180953Y-50629761D01*
X104180953Y-50629761D02*
X104085715Y-50677380D01*
X104085715Y-50677380D02*
X103800001Y-50677380D01*
X103800001Y-50677380D02*
X103704763Y-50629761D01*
X103704763Y-50629761D02*
X103657144Y-50582142D01*
X104704763Y-50296428D02*
X105466668Y-50296428D01*
X106466667Y-50677380D02*
X105895239Y-50677380D01*
X106180953Y-50677380D02*
X106180953Y-49677380D01*
X106180953Y-49677380D02*
X106085715Y-49820238D01*
X106085715Y-49820238D02*
X105990477Y-49915476D01*
X105990477Y-49915476D02*
X105895239Y-49963095D01*
X107371429Y-49677380D02*
X106895239Y-49677380D01*
X106895239Y-49677380D02*
X106847620Y-50153571D01*
X106847620Y-50153571D02*
X106895239Y-50105952D01*
X106895239Y-50105952D02*
X106990477Y-50058333D01*
X106990477Y-50058333D02*
X107228572Y-50058333D01*
X107228572Y-50058333D02*
X107323810Y-50105952D01*
X107323810Y-50105952D02*
X107371429Y-50153571D01*
X107371429Y-50153571D02*
X107419048Y-50248809D01*
X107419048Y-50248809D02*
X107419048Y-50486904D01*
X107419048Y-50486904D02*
X107371429Y-50582142D01*
X107371429Y-50582142D02*
X107323810Y-50629761D01*
X107323810Y-50629761D02*
X107228572Y-50677380D01*
X107228572Y-50677380D02*
X106990477Y-50677380D01*
X106990477Y-50677380D02*
X106895239Y-50629761D01*
X106895239Y-50629761D02*
X106847620Y-50582142D01*
D11*
X105069761Y-33533332D02*
X105117380Y-33390475D01*
X105117380Y-33390475D02*
X105117380Y-33152380D01*
X105117380Y-33152380D02*
X105069761Y-33057142D01*
X105069761Y-33057142D02*
X105022142Y-33009523D01*
X105022142Y-33009523D02*
X104926904Y-32961904D01*
X104926904Y-32961904D02*
X104831666Y-32961904D01*
X104831666Y-32961904D02*
X104736428Y-33009523D01*
X104736428Y-33009523D02*
X104688809Y-33057142D01*
X104688809Y-33057142D02*
X104641190Y-33152380D01*
X104641190Y-33152380D02*
X104593571Y-33342856D01*
X104593571Y-33342856D02*
X104545952Y-33438094D01*
X104545952Y-33438094D02*
X104498333Y-33485713D01*
X104498333Y-33485713D02*
X104403095Y-33533332D01*
X104403095Y-33533332D02*
X104307857Y-33533332D01*
X104307857Y-33533332D02*
X104212619Y-33485713D01*
X104212619Y-33485713D02*
X104165000Y-33438094D01*
X104165000Y-33438094D02*
X104117380Y-33342856D01*
X104117380Y-33342856D02*
X104117380Y-33104761D01*
X104117380Y-33104761D02*
X104165000Y-32961904D01*
X104117380Y-32628570D02*
X105117380Y-32390475D01*
X105117380Y-32390475D02*
X104403095Y-32199999D01*
X104403095Y-32199999D02*
X105117380Y-32009523D01*
X105117380Y-32009523D02*
X104117380Y-31771428D01*
X105117380Y-30866666D02*
X105117380Y-31438094D01*
X105117380Y-31152380D02*
X104117380Y-31152380D01*
X104117380Y-31152380D02*
X104260238Y-31247618D01*
X104260238Y-31247618D02*
X104355476Y-31342856D01*
X104355476Y-31342856D02*
X104403095Y-31438094D01*
X109870833Y-59452142D02*
X109823214Y-59499761D01*
X109823214Y-59499761D02*
X109680357Y-59547380D01*
X109680357Y-59547380D02*
X109585119Y-59547380D01*
X109585119Y-59547380D02*
X109442262Y-59499761D01*
X109442262Y-59499761D02*
X109347024Y-59404523D01*
X109347024Y-59404523D02*
X109299405Y-59309285D01*
X109299405Y-59309285D02*
X109251786Y-59118809D01*
X109251786Y-59118809D02*
X109251786Y-58975952D01*
X109251786Y-58975952D02*
X109299405Y-58785476D01*
X109299405Y-58785476D02*
X109347024Y-58690238D01*
X109347024Y-58690238D02*
X109442262Y-58595000D01*
X109442262Y-58595000D02*
X109585119Y-58547380D01*
X109585119Y-58547380D02*
X109680357Y-58547380D01*
X109680357Y-58547380D02*
X109823214Y-58595000D01*
X109823214Y-58595000D02*
X109870833Y-58642619D01*
X110204167Y-58547380D02*
X110823214Y-58547380D01*
X110823214Y-58547380D02*
X110489881Y-58928333D01*
X110489881Y-58928333D02*
X110632738Y-58928333D01*
X110632738Y-58928333D02*
X110727976Y-58975952D01*
X110727976Y-58975952D02*
X110775595Y-59023571D01*
X110775595Y-59023571D02*
X110823214Y-59118809D01*
X110823214Y-59118809D02*
X110823214Y-59356904D01*
X110823214Y-59356904D02*
X110775595Y-59452142D01*
X110775595Y-59452142D02*
X110727976Y-59499761D01*
X110727976Y-59499761D02*
X110632738Y-59547380D01*
X110632738Y-59547380D02*
X110347024Y-59547380D01*
X110347024Y-59547380D02*
X110251786Y-59499761D01*
X110251786Y-59499761D02*
X110204167Y-59452142D01*
D12*
X88400000Y-52000000D02*
X105600000Y-52000000D01*
X88400000Y-64000000D02*
X88400000Y-52000000D01*
X105600000Y-52000000D02*
X105600000Y-64000000D01*
X105600000Y-64000000D02*
X88400000Y-64000000D01*
D10*
X86023500Y-52234000D02*
G75*
G03*
X86023500Y-52234000I-63500J0D01*
G01*
D12*
X89841419Y-53000000D02*
G75*
G03*
X89841419Y-53000000I-141419J0D01*
G01*
X89841419Y-53100000D02*
G75*
G03*
X89841419Y-53100000I-141419J0D01*
G01*
X89982841Y-53100000D02*
G75*
G03*
X89982841Y-53100000I-282841J0D01*
G01*
X90060553Y-53100000D02*
G75*
G03*
X90060553Y-53100000I-360553J0D01*
G01*
X89800000Y-53200000D02*
G75*
G03*
X89800000Y-53200000I-100000J0D01*
G01*
D13*
X102130000Y-29610000D02*
X91850000Y-29610000D01*
X91850000Y-29610000D02*
X91850000Y-34910000D01*
X102130000Y-31260000D02*
X102130000Y-29610000D01*
X102130000Y-34910000D02*
X102130000Y-33260000D01*
X91850000Y-34910000D02*
X102130000Y-34910000D01*
X102130000Y-31260000D02*
G75*
G03*
X102130000Y-33260000I0J-1000000D01*
G01*
X110298752Y-58235000D02*
X109776248Y-58235000D01*
X110298752Y-56765000D02*
X109776248Y-56765000D01*
%LPC*%
D14*
X87309999Y-52249999D03*
X87309999Y-52749999D03*
X87309999Y-53249999D03*
X87309999Y-53749999D03*
X87309999Y-54249999D03*
X87309999Y-54749999D03*
X87309999Y-55249999D03*
X87309999Y-55749999D03*
X87309999Y-56249999D03*
X87309999Y-56749999D03*
X87309999Y-57249999D03*
X87309999Y-57749999D03*
X87309999Y-58249999D03*
X87309999Y-58749999D03*
X87309999Y-59249999D03*
X87309999Y-59749999D03*
X87309999Y-60249999D03*
X87309999Y-60749999D03*
X87309999Y-61249999D03*
X87309999Y-61749999D03*
X87309999Y-62249999D03*
X87309999Y-62749999D03*
X87309999Y-63249999D03*
X87309999Y-63749999D03*
X106689999Y-63749999D03*
X106689999Y-63249999D03*
X106689999Y-62749999D03*
X106689999Y-62249999D03*
X106689999Y-61749999D03*
X106689999Y-61249999D03*
X106689999Y-60749999D03*
X106689999Y-60249999D03*
X106689999Y-59749999D03*
X106689999Y-59249999D03*
X106689999Y-58749999D03*
X106689999Y-58249999D03*
X106689999Y-57749999D03*
X106689999Y-57249999D03*
X106689999Y-56749999D03*
X106689999Y-56249999D03*
X106689999Y-55749999D03*
X106689999Y-55249999D03*
X106689999Y-54749999D03*
X106689999Y-54249999D03*
X106689999Y-53749999D03*
X106689999Y-53249999D03*
X106689999Y-52749999D03*
X106689999Y-52249999D03*
D15*
X74000000Y-54000000D03*
X120000000Y-54000000D03*
D16*
X100799999Y-28449999D03*
D17*
X98259999Y-28449999D03*
X95719999Y-28449999D03*
X93179999Y-28449999D03*
X93179999Y-36069999D03*
X95719999Y-36069999D03*
X98259999Y-36069999D03*
X100799999Y-36069999D03*
D18*
X75410000Y-75500000D03*
X77950000Y-75500000D03*
X80490000Y-75500000D03*
X83030000Y-75500000D03*
X85570000Y-75500000D03*
X88110000Y-75500000D03*
X90650000Y-75500000D03*
X93190000Y-75500000D03*
X95730000Y-75500000D03*
X98270000Y-75500000D03*
X100810000Y-75500000D03*
X103350000Y-75500000D03*
X105890000Y-75500000D03*
X108430000Y-75500000D03*
X110970000Y-75500000D03*
X113510000Y-75500000D03*
X116050000Y-75500000D03*
X118590000Y-75500000D03*
D19*
X111075000Y-57500000D03*
X109000000Y-57500000D03*
M02*
