G04 #@! TF.GenerationSoftware,KiCad,Pcbnew,(7.0.0-0)*
G04 #@! TF.CreationDate,2023-03-15T13:18:41-07:00*
G04 #@! TF.ProjectId,qcard-multicart,71636172-642d-46d7-956c-746963617274,3*
G04 #@! TF.SameCoordinates,Original*
G04 #@! TF.FileFunction,Copper,L2,Bot*
G04 #@! TF.FilePolarity,Positive*
%FSLAX46Y46*%
G04 Gerber Fmt 4.6, Leading zero omitted, Abs format (unit mm)*
G04 Created by KiCad (PCBNEW (7.0.0-0)) date 2023-03-15 13:18:41*
%MOMM*%
%LPD*%
G01*
G04 APERTURE LIST*
G04 Aperture macros list*
%AMRoundRect*
0 Rectangle with rounded corners*
0 $1 Rounding radius*
0 $2 $3 $4 $5 $6 $7 $8 $9 X,Y pos of 4 corners*
0 Add a 4 corners polygon primitive as box body*
4,1,4,$2,$3,$4,$5,$6,$7,$8,$9,$2,$3,0*
0 Add four circle primitives for the rounded corners*
1,1,$1+$1,$2,$3*
1,1,$1+$1,$4,$5*
1,1,$1+$1,$6,$7*
1,1,$1+$1,$8,$9*
0 Add four rect primitives between the rounded corners*
20,1,$1+$1,$2,$3,$4,$5,0*
20,1,$1+$1,$4,$5,$6,$7,0*
20,1,$1+$1,$6,$7,$8,$9,0*
20,1,$1+$1,$8,$9,$2,$3,0*%
G04 Aperture macros list end*
G04 #@! TA.AperFunction,ComponentPad*
%ADD10R,1.600000X1.600000*%
G04 #@! TD*
G04 #@! TA.AperFunction,ComponentPad*
%ADD11O,1.600000X1.600000*%
G04 #@! TD*
G04 #@! TA.AperFunction,ConnectorPad*
%ADD12RoundRect,0.375000X-0.375000X-4.625000X0.375000X-4.625000X0.375000X4.625000X-0.375000X4.625000X0*%
G04 #@! TD*
G04 #@! TA.AperFunction,SMDPad,CuDef*
%ADD13RoundRect,0.250000X-0.450000X0.350000X-0.450000X-0.350000X0.450000X-0.350000X0.450000X0.350000X0*%
G04 #@! TD*
G04 #@! TA.AperFunction,SMDPad,CuDef*
%ADD14RoundRect,0.250000X-0.337500X-0.475000X0.337500X-0.475000X0.337500X0.475000X-0.337500X0.475000X0*%
G04 #@! TD*
G04 #@! TA.AperFunction,SMDPad,CuDef*
%ADD15RoundRect,0.150000X0.150000X-0.512500X0.150000X0.512500X-0.150000X0.512500X-0.150000X-0.512500X0*%
G04 #@! TD*
G04 #@! TA.AperFunction,ViaPad*
%ADD16C,0.685800*%
G04 #@! TD*
G04 #@! TA.AperFunction,ViaPad*
%ADD17C,0.889000*%
G04 #@! TD*
G04 #@! TA.AperFunction,Conductor*
%ADD18C,0.254000*%
G04 #@! TD*
G04 #@! TA.AperFunction,Conductor*
%ADD19C,0.508000*%
G04 #@! TD*
G04 #@! TA.AperFunction,Conductor*
%ADD20C,0.152400*%
G04 #@! TD*
G04 #@! TA.AperFunction,Conductor*
%ADD21C,0.762000*%
G04 #@! TD*
G04 APERTURE END LIST*
D10*
X100799999Y-28449999D03*
D11*
X98259999Y-28449999D03*
X95719999Y-28449999D03*
X93179999Y-28449999D03*
X93179999Y-36069999D03*
X95719999Y-36069999D03*
X98259999Y-36069999D03*
X100799999Y-36069999D03*
D12*
X75380000Y-75500000D03*
X77920000Y-75500000D03*
X80460000Y-75500000D03*
X83000000Y-75500000D03*
X85540000Y-75500000D03*
X88080000Y-75500000D03*
X90620000Y-75500000D03*
X93160000Y-75500000D03*
X95700000Y-75500000D03*
X98240000Y-75500000D03*
X100780000Y-75500000D03*
X103320000Y-75500000D03*
X105860000Y-75500000D03*
X108400000Y-75500000D03*
X110940000Y-75500000D03*
X113480000Y-75500000D03*
X116020000Y-75500000D03*
X118560000Y-75500000D03*
D13*
X98250000Y-42000000D03*
X98250000Y-44000000D03*
X95650000Y-42000000D03*
X95650000Y-44000000D03*
D14*
X78562500Y-64800000D03*
X80637500Y-64800000D03*
D13*
X93150000Y-42000000D03*
X93150000Y-44000000D03*
D14*
X78562500Y-62400000D03*
X80637500Y-62400000D03*
D15*
X76350000Y-64837500D03*
X75400000Y-64837500D03*
X74450000Y-64837500D03*
X74450000Y-62562500D03*
X76350000Y-62562500D03*
D13*
X100750000Y-42000000D03*
X100750000Y-44000000D03*
D16*
X91000000Y-39000000D03*
X103250000Y-39000000D03*
X109750000Y-49500000D03*
X83900000Y-67900000D03*
X88800000Y-53800000D03*
X90000000Y-54200000D03*
X91425601Y-54174399D03*
X89500000Y-55922600D03*
X98672600Y-66000000D03*
X105000000Y-62000000D03*
X96654800Y-68000000D03*
D17*
X109000000Y-55750000D03*
D16*
X85400000Y-56500000D03*
X105000000Y-63250000D03*
X85272600Y-59400000D03*
X87100000Y-68400000D03*
X89500000Y-67600000D03*
X89500000Y-62100000D03*
X92500000Y-62927400D03*
X92527400Y-67900000D03*
X95700000Y-62900000D03*
X95700000Y-65900000D03*
X97300000Y-62900000D03*
X97327400Y-68800000D03*
X106700000Y-64627400D03*
X103700000Y-66400000D03*
D17*
X121000000Y-66900000D03*
D16*
X110000000Y-62000000D03*
D17*
X74400000Y-66900000D03*
X78100000Y-66900000D03*
D16*
X99800000Y-56300000D03*
D17*
X117300000Y-66900000D03*
D16*
X82250000Y-49500000D03*
X105000000Y-60800000D03*
X109800000Y-68300000D03*
X109800000Y-64600000D03*
X113400000Y-60400000D03*
X111100000Y-68100000D03*
X108400000Y-66200000D03*
X105675601Y-66424399D03*
X102475601Y-63200000D03*
X89100000Y-60422600D03*
D18*
X100750000Y-42000000D02*
X100800000Y-41950000D01*
X100800000Y-41950000D02*
X100800000Y-36070000D01*
X98250000Y-42000000D02*
X98260000Y-41990000D01*
X98260000Y-41990000D02*
X98260000Y-36070000D01*
X95650000Y-42000000D02*
X95720000Y-41930000D01*
X95720000Y-41930000D02*
X95720000Y-36070000D01*
X93150000Y-42000000D02*
X93180000Y-41970000D01*
X93180000Y-41970000D02*
X93180000Y-36070000D01*
D19*
X100750000Y-44000000D02*
X102000000Y-45250000D01*
X102000000Y-45250000D02*
X102000000Y-48750000D01*
X102000000Y-48750000D02*
X109000000Y-55750000D01*
X76350000Y-62562500D02*
X76350000Y-61650000D01*
X76350000Y-61650000D02*
X91750000Y-46250000D01*
X91750000Y-46250000D02*
X91750000Y-45000000D01*
X91750000Y-45000000D02*
X92750000Y-44000000D01*
X92750000Y-44000000D02*
X100750000Y-44000000D01*
X93150000Y-44000000D02*
X100750000Y-44000000D01*
D20*
X81800000Y-56500000D02*
X85400000Y-56500000D01*
X83000000Y-68800000D02*
X83000000Y-75500000D01*
X83900000Y-67900000D02*
X83000000Y-68800000D01*
X88800000Y-53800000D02*
X88800000Y-56174508D01*
X89200000Y-56574508D02*
X89200000Y-59400000D01*
X85540000Y-65060000D02*
X85540000Y-75500000D01*
X89773100Y-59973100D02*
X89773100Y-60826900D01*
X89773100Y-60826900D02*
X85540000Y-65060000D01*
X88800000Y-56174508D02*
X89200000Y-56574508D01*
X89200000Y-59400000D02*
X89773100Y-59973100D01*
X93200000Y-56900000D02*
X93200000Y-75460000D01*
X90500000Y-54200000D02*
X93200000Y-56900000D01*
X90000000Y-54200000D02*
X90500000Y-54200000D01*
X93200000Y-75460000D02*
X93160000Y-75500000D01*
X91425601Y-54174399D02*
X94826307Y-54174399D01*
X98000000Y-57348092D02*
X98000000Y-75260000D01*
X98000000Y-75260000D02*
X98240000Y-75500000D01*
X94826307Y-54174399D02*
X98000000Y-57348092D01*
X89500000Y-55922600D02*
X90700000Y-57122600D01*
X90700000Y-75420000D02*
X90620000Y-75500000D01*
X90700000Y-57122600D02*
X90700000Y-75420000D01*
D19*
X75380000Y-69020000D02*
X76350000Y-68050000D01*
D20*
X74450000Y-64837500D02*
X74450000Y-64445895D01*
X75944800Y-63844800D02*
X76350000Y-64250000D01*
X75051095Y-63844800D02*
X75944800Y-63844800D01*
D19*
X75380000Y-75500000D02*
X75380000Y-69020000D01*
X76387500Y-64800000D02*
X76350000Y-64837500D01*
D20*
X76350000Y-64250000D02*
X76350000Y-64837500D01*
D19*
X76350000Y-68050000D02*
X76350000Y-64837500D01*
X78562500Y-64800000D02*
X76387500Y-64800000D01*
D20*
X74450000Y-64445895D02*
X75051095Y-63844800D01*
X95700000Y-68954800D02*
X95700000Y-75500000D01*
X96654800Y-68000000D02*
X95700000Y-68954800D01*
X98672600Y-64527400D02*
X101200000Y-62000000D01*
X101200000Y-62000000D02*
X105000000Y-62000000D01*
X98672600Y-66000000D02*
X98672600Y-64527400D01*
D19*
X76512500Y-62400000D02*
X76350000Y-62562500D01*
X78562500Y-62400000D02*
X76512500Y-62400000D01*
D20*
X104276900Y-62526900D02*
X101784947Y-62526900D01*
X100780000Y-63531847D02*
X100780000Y-75500000D01*
X101784947Y-62526900D02*
X100780000Y-63531847D01*
X105000000Y-63250000D02*
X104276900Y-62526900D01*
X77920000Y-70580000D02*
X77920000Y-75500000D01*
X83000000Y-65500000D02*
X77920000Y-70580000D01*
X85272600Y-59400000D02*
X83000000Y-61672600D01*
X83000000Y-61672600D02*
X83000000Y-65500000D01*
X88080000Y-69380000D02*
X88080000Y-75500000D01*
X87100000Y-68400000D02*
X88080000Y-69380000D01*
X89500000Y-67600000D02*
X89500000Y-62100000D01*
X92500000Y-62927400D02*
X92527400Y-62954800D01*
X92527400Y-62954800D02*
X92527400Y-67900000D01*
X95700000Y-62900000D02*
X95700000Y-65900000D01*
X97327400Y-62927400D02*
X97300000Y-62900000D01*
X97327400Y-68800000D02*
X97327400Y-62927400D01*
X106700000Y-64627400D02*
X105472600Y-64627400D01*
X105472600Y-64627400D02*
X103700000Y-66400000D01*
D21*
X118560000Y-70160000D02*
X118560000Y-75500000D01*
X116020000Y-70180000D02*
X116020000Y-75500000D01*
X117300000Y-68900000D02*
X118560000Y-70160000D01*
X117300000Y-68900000D02*
X116020000Y-70180000D01*
D20*
X109800000Y-64600000D02*
X109800000Y-68300000D01*
X113400000Y-60400000D02*
X113480000Y-60480000D01*
X113480000Y-60480000D02*
X113480000Y-75500000D01*
X111100000Y-75340000D02*
X110940000Y-75500000D01*
X111100000Y-68100000D02*
X111100000Y-75340000D01*
X108400000Y-75500000D02*
X108400000Y-66200000D01*
X105800000Y-66548798D02*
X105800000Y-75440000D01*
X105800000Y-75440000D02*
X105860000Y-75500000D01*
X105675601Y-66424399D02*
X105800000Y-66548798D01*
X102475601Y-63200000D02*
X102475601Y-66975601D01*
X102475601Y-66975601D02*
X103300000Y-67800000D01*
X103300000Y-67800000D02*
X103300000Y-75480000D01*
X103300000Y-75480000D02*
X103320000Y-75500000D01*
X88077400Y-60422600D02*
X83700000Y-64800000D01*
X89100000Y-60422600D02*
X88077400Y-60422600D01*
X83700000Y-66400000D02*
X80460000Y-69640000D01*
X83700000Y-64800000D02*
X83700000Y-66400000D01*
X80460000Y-69640000D02*
X80460000Y-75500000D01*
G04 #@! TA.AperFunction,Conductor*
G36*
X105253222Y-27000782D02*
G01*
X105261444Y-27001501D01*
X105295105Y-27004446D01*
X105295707Y-27004501D01*
X105425852Y-27017320D01*
X105437728Y-27019481D01*
X105507239Y-27038106D01*
X105509449Y-27038737D01*
X105561044Y-27054388D01*
X105604960Y-27067711D01*
X105614751Y-27071457D01*
X105685083Y-27104253D01*
X105688679Y-27106050D01*
X105758438Y-27143337D01*
X105771694Y-27150423D01*
X105779255Y-27155068D01*
X105844455Y-27200722D01*
X105848955Y-27204136D01*
X105920351Y-27262728D01*
X105925732Y-27267605D01*
X105982393Y-27324266D01*
X105987270Y-27329647D01*
X106045862Y-27401043D01*
X106049276Y-27405543D01*
X106094930Y-27470743D01*
X106099575Y-27478304D01*
X106143940Y-27561304D01*
X106145745Y-27564915D01*
X106178541Y-27635247D01*
X106182287Y-27645038D01*
X106211249Y-27740510D01*
X106211915Y-27742840D01*
X106230515Y-27812259D01*
X106232680Y-27824158D01*
X106245488Y-27954206D01*
X106245562Y-27955007D01*
X106249218Y-27996777D01*
X106249500Y-28003229D01*
X106249500Y-44499504D01*
X106247258Y-44499504D01*
X106247256Y-44499517D01*
X106249498Y-44499504D01*
X106249500Y-44499837D01*
X106249500Y-44499944D01*
X106249480Y-44500105D01*
X106249502Y-44500105D01*
X106250144Y-44598508D01*
X106250487Y-44650964D01*
X106250767Y-44653163D01*
X106250768Y-44653172D01*
X106288391Y-44948266D01*
X106288392Y-44948274D01*
X106288672Y-44950466D01*
X106289211Y-44952608D01*
X106289213Y-44952618D01*
X106361819Y-45241107D01*
X106361822Y-45241116D01*
X106362362Y-45243262D01*
X106363152Y-45245321D01*
X106363156Y-45245334D01*
X106457504Y-45491280D01*
X106470500Y-45525158D01*
X106611539Y-45792118D01*
X106612801Y-45793941D01*
X106612806Y-45793948D01*
X106697071Y-45915602D01*
X106783458Y-46040319D01*
X106983795Y-46266205D01*
X107209681Y-46466542D01*
X107457882Y-46638461D01*
X107724842Y-46779500D01*
X107923302Y-46855631D01*
X108004665Y-46886843D01*
X108004668Y-46886844D01*
X108006738Y-46887638D01*
X108299534Y-46961328D01*
X108599036Y-46999513D01*
X108749894Y-47000497D01*
X108749893Y-47000519D01*
X108750056Y-47000500D01*
X108750163Y-47000500D01*
X108750496Y-47000502D01*
X108750479Y-47003192D01*
X108750496Y-47003191D01*
X108750496Y-47000500D01*
X124425500Y-47000500D01*
X124462500Y-47010414D01*
X124489586Y-47037500D01*
X124499500Y-47074500D01*
X124499500Y-70675500D01*
X124489586Y-70712500D01*
X124462500Y-70739586D01*
X124425500Y-70749500D01*
X121000099Y-70749500D01*
X121000000Y-70749459D01*
X120999901Y-70749500D01*
X120999617Y-70749617D01*
X120999459Y-70750000D01*
X120999500Y-70750099D01*
X120999500Y-70757095D01*
X120999500Y-70926000D01*
X120989586Y-70963000D01*
X120962500Y-70990086D01*
X120925500Y-71000000D01*
X119534000Y-71000000D01*
X119497000Y-70990086D01*
X119469914Y-70963000D01*
X119460000Y-70926000D01*
X119460000Y-70836113D01*
X119459735Y-70831697D01*
X119450433Y-70754239D01*
X119448128Y-70745119D01*
X119398781Y-70619982D01*
X119393866Y-70611240D01*
X119312777Y-70504309D01*
X119305690Y-70497222D01*
X119198759Y-70416133D01*
X119190017Y-70411218D01*
X119064880Y-70361871D01*
X119055760Y-70359566D01*
X118978302Y-70350264D01*
X118973887Y-70350000D01*
X118644743Y-70350000D01*
X118637059Y-70352059D01*
X118635000Y-70359743D01*
X118635000Y-71000000D01*
X118485000Y-71000000D01*
X118485000Y-70359743D01*
X118482940Y-70352059D01*
X118475257Y-70350000D01*
X118146113Y-70350000D01*
X118141697Y-70350264D01*
X118064239Y-70359566D01*
X118055119Y-70361871D01*
X117929982Y-70411218D01*
X117921240Y-70416133D01*
X117814309Y-70497222D01*
X117807222Y-70504309D01*
X117726133Y-70611240D01*
X117721218Y-70619982D01*
X117671871Y-70745119D01*
X117669566Y-70754239D01*
X117660264Y-70831697D01*
X117660000Y-70836113D01*
X117660000Y-70926000D01*
X117650086Y-70963000D01*
X117623000Y-70990086D01*
X117586000Y-71000000D01*
X116994000Y-71000000D01*
X116957000Y-70990086D01*
X116929914Y-70963000D01*
X116920000Y-70926000D01*
X116920000Y-70836113D01*
X116919735Y-70831697D01*
X116910433Y-70754239D01*
X116908128Y-70745119D01*
X116858781Y-70619982D01*
X116853866Y-70611240D01*
X116772777Y-70504309D01*
X116765690Y-70497222D01*
X116658759Y-70416133D01*
X116650017Y-70411218D01*
X116524880Y-70361871D01*
X116515760Y-70359566D01*
X116438302Y-70350264D01*
X116433887Y-70350000D01*
X116104743Y-70350000D01*
X116097059Y-70352059D01*
X116095000Y-70359743D01*
X116095000Y-71000000D01*
X115945000Y-71000000D01*
X115945000Y-70359743D01*
X115942940Y-70352059D01*
X115935257Y-70350000D01*
X115606113Y-70350000D01*
X115601697Y-70350264D01*
X115524239Y-70359566D01*
X115515119Y-70361871D01*
X115389982Y-70411218D01*
X115381240Y-70416133D01*
X115274309Y-70497222D01*
X115267222Y-70504309D01*
X115186133Y-70611240D01*
X115181218Y-70619982D01*
X115131871Y-70745119D01*
X115129566Y-70754239D01*
X115120264Y-70831697D01*
X115120000Y-70836113D01*
X115120000Y-70926000D01*
X115110086Y-70963000D01*
X115083000Y-70990086D01*
X115046000Y-71000000D01*
X114558499Y-71000000D01*
X114521499Y-70990086D01*
X114494413Y-70963000D01*
X114484499Y-70926000D01*
X114484499Y-70812888D01*
X114484499Y-70812886D01*
X114484499Y-70811434D01*
X114481691Y-70775742D01*
X114475444Y-70754239D01*
X114438617Y-70627479D01*
X114438616Y-70627478D01*
X114437318Y-70623008D01*
X114356356Y-70486109D01*
X114243891Y-70373644D01*
X114239883Y-70371274D01*
X114239881Y-70371272D01*
X114110999Y-70295052D01*
X114111000Y-70295052D01*
X114106992Y-70292682D01*
X114102525Y-70291384D01*
X114102520Y-70291382D01*
X113957888Y-70249363D01*
X113957882Y-70249361D01*
X113954258Y-70248309D01*
X113950490Y-70248012D01*
X113950488Y-70248012D01*
X113920013Y-70245613D01*
X113919992Y-70245612D01*
X113918567Y-70245500D01*
X113917115Y-70245500D01*
X113884700Y-70245500D01*
X113847700Y-70235586D01*
X113820614Y-70208500D01*
X113810700Y-70171500D01*
X113810700Y-60871198D01*
X113816333Y-60842879D01*
X113827057Y-60826828D01*
X113826071Y-60826071D01*
X113865279Y-60774974D01*
X113921828Y-60701278D01*
X113982023Y-60555953D01*
X114002555Y-60400000D01*
X113982023Y-60244047D01*
X113949430Y-60165361D01*
X113923683Y-60103201D01*
X113923682Y-60103200D01*
X113921828Y-60098723D01*
X113826071Y-59973929D01*
X113701278Y-59878172D01*
X113696794Y-59876314D01*
X113696793Y-59876314D01*
X113560434Y-59819833D01*
X113560433Y-59819832D01*
X113555953Y-59817977D01*
X113400000Y-59797445D01*
X113395192Y-59798078D01*
X113248852Y-59817344D01*
X113248849Y-59817344D01*
X113244047Y-59817977D01*
X113239574Y-59819829D01*
X113239569Y-59819831D01*
X113103201Y-59876316D01*
X113103193Y-59876320D01*
X113098723Y-59878172D01*
X113094878Y-59881122D01*
X113094875Y-59881124D01*
X112977779Y-59970974D01*
X112977775Y-59970977D01*
X112973929Y-59973929D01*
X112970977Y-59977775D01*
X112970974Y-59977779D01*
X112881124Y-60094875D01*
X112881122Y-60094878D01*
X112878172Y-60098723D01*
X112876320Y-60103193D01*
X112876316Y-60103201D01*
X112819831Y-60239569D01*
X112819829Y-60239574D01*
X112817977Y-60244047D01*
X112797445Y-60400000D01*
X112817977Y-60555953D01*
X112878172Y-60701278D01*
X112881125Y-60705126D01*
X112881126Y-60705128D01*
X112961016Y-60809242D01*
X112973929Y-60826071D01*
X113098722Y-60921828D01*
X113103619Y-60923856D01*
X113103897Y-60924084D01*
X113107404Y-60926109D01*
X113107069Y-60926687D01*
X113136829Y-60951111D01*
X113149300Y-60992223D01*
X113149300Y-70171501D01*
X113139386Y-70208501D01*
X113112300Y-70235587D01*
X113075300Y-70245501D01*
X113041434Y-70245501D01*
X113039986Y-70245614D01*
X113039983Y-70245615D01*
X113009509Y-70248012D01*
X113009502Y-70248013D01*
X113005742Y-70248309D01*
X113002123Y-70249360D01*
X113002114Y-70249362D01*
X112857479Y-70291382D01*
X112857471Y-70291385D01*
X112853008Y-70292682D01*
X112849002Y-70295051D01*
X112849000Y-70295052D01*
X112720118Y-70371272D01*
X112720112Y-70371276D01*
X112716109Y-70373644D01*
X112712819Y-70376933D01*
X112712815Y-70376937D01*
X112606937Y-70482815D01*
X112606933Y-70482819D01*
X112603644Y-70486109D01*
X112601276Y-70490112D01*
X112601272Y-70490118D01*
X112525052Y-70619000D01*
X112522682Y-70623008D01*
X112521385Y-70627471D01*
X112521382Y-70627479D01*
X112479363Y-70772111D01*
X112479361Y-70772119D01*
X112478309Y-70775742D01*
X112478012Y-70779507D01*
X112478012Y-70779511D01*
X112475613Y-70809986D01*
X112475612Y-70810008D01*
X112475500Y-70811433D01*
X112475500Y-70812885D01*
X112475500Y-70812886D01*
X112475500Y-70926000D01*
X112465586Y-70963000D01*
X112438500Y-70990086D01*
X112401500Y-71000000D01*
X112018499Y-71000000D01*
X111981499Y-70990086D01*
X111954413Y-70963000D01*
X111944499Y-70926000D01*
X111944499Y-70812888D01*
X111944499Y-70812886D01*
X111944499Y-70811434D01*
X111941691Y-70775742D01*
X111935444Y-70754239D01*
X111898617Y-70627479D01*
X111898616Y-70627478D01*
X111897318Y-70623008D01*
X111816356Y-70486109D01*
X111703891Y-70373644D01*
X111699883Y-70371274D01*
X111699881Y-70371272D01*
X111570999Y-70295052D01*
X111571000Y-70295052D01*
X111566992Y-70292682D01*
X111484054Y-70268586D01*
X111445523Y-70241956D01*
X111430700Y-70197525D01*
X111430700Y-68635744D01*
X111438331Y-68603015D01*
X111459652Y-68577036D01*
X111526071Y-68526071D01*
X111621828Y-68401278D01*
X111682023Y-68255953D01*
X111702555Y-68100000D01*
X111682023Y-67944047D01*
X111629541Y-67817344D01*
X111623683Y-67803201D01*
X111623682Y-67803200D01*
X111621828Y-67798723D01*
X111526071Y-67673929D01*
X111435991Y-67604808D01*
X111405128Y-67581126D01*
X111405125Y-67581124D01*
X111401278Y-67578172D01*
X111396794Y-67576314D01*
X111396793Y-67576314D01*
X111260434Y-67519833D01*
X111260433Y-67519832D01*
X111255953Y-67517977D01*
X111100000Y-67497445D01*
X111095192Y-67498078D01*
X110948852Y-67517344D01*
X110948849Y-67517344D01*
X110944047Y-67517977D01*
X110939574Y-67519829D01*
X110939569Y-67519831D01*
X110803201Y-67576316D01*
X110803193Y-67576320D01*
X110798723Y-67578172D01*
X110794878Y-67581122D01*
X110794875Y-67581124D01*
X110677779Y-67670974D01*
X110677775Y-67670977D01*
X110673929Y-67673929D01*
X110670977Y-67677775D01*
X110670974Y-67677779D01*
X110581124Y-67794875D01*
X110581122Y-67794878D01*
X110578172Y-67798723D01*
X110576320Y-67803193D01*
X110576316Y-67803201D01*
X110519831Y-67939569D01*
X110519829Y-67939574D01*
X110517977Y-67944047D01*
X110517345Y-67948847D01*
X110517344Y-67948851D01*
X110501254Y-68071062D01*
X110480212Y-68113728D01*
X110437545Y-68134769D01*
X110390887Y-68125488D01*
X110359520Y-68089720D01*
X110338480Y-68038924D01*
X110321828Y-67998723D01*
X110226071Y-67873929D01*
X110159651Y-67822963D01*
X110138331Y-67796985D01*
X110130700Y-67764256D01*
X110130700Y-65135744D01*
X110138331Y-65103015D01*
X110159652Y-65077036D01*
X110226071Y-65026071D01*
X110321828Y-64901278D01*
X110382023Y-64755953D01*
X110402555Y-64600000D01*
X110382023Y-64444047D01*
X110333446Y-64326772D01*
X110323683Y-64303201D01*
X110323682Y-64303200D01*
X110321828Y-64298723D01*
X110226071Y-64173929D01*
X110140834Y-64108524D01*
X110105128Y-64081126D01*
X110105125Y-64081124D01*
X110101278Y-64078172D01*
X110096794Y-64076314D01*
X110096793Y-64076314D01*
X109960434Y-64019833D01*
X109960433Y-64019832D01*
X109955953Y-64017977D01*
X109800000Y-63997445D01*
X109795192Y-63998078D01*
X109648852Y-64017344D01*
X109648849Y-64017344D01*
X109644047Y-64017977D01*
X109639574Y-64019829D01*
X109639569Y-64019831D01*
X109503201Y-64076316D01*
X109503193Y-64076320D01*
X109498723Y-64078172D01*
X109494878Y-64081122D01*
X109494875Y-64081124D01*
X109377779Y-64170974D01*
X109377775Y-64170977D01*
X109373929Y-64173929D01*
X109370977Y-64177775D01*
X109370974Y-64177779D01*
X109281124Y-64294875D01*
X109281122Y-64294878D01*
X109278172Y-64298723D01*
X109276320Y-64303193D01*
X109276316Y-64303201D01*
X109219831Y-64439569D01*
X109219829Y-64439574D01*
X109217977Y-64444047D01*
X109217344Y-64448849D01*
X109217344Y-64448852D01*
X109213737Y-64476252D01*
X109197445Y-64600000D01*
X109217977Y-64755953D01*
X109219832Y-64760433D01*
X109219833Y-64760434D01*
X109271339Y-64884783D01*
X109278172Y-64901278D01*
X109281125Y-64905126D01*
X109281126Y-64905128D01*
X109329087Y-64967632D01*
X109373929Y-65026071D01*
X109436968Y-65074443D01*
X109440348Y-65077036D01*
X109461669Y-65103015D01*
X109469300Y-65135744D01*
X109469300Y-67764256D01*
X109461669Y-67796985D01*
X109440348Y-67822964D01*
X109377779Y-67870974D01*
X109377775Y-67870977D01*
X109373929Y-67873929D01*
X109370977Y-67877775D01*
X109370974Y-67877779D01*
X109281124Y-67994875D01*
X109281122Y-67994878D01*
X109278172Y-67998723D01*
X109276320Y-68003193D01*
X109276316Y-68003201D01*
X109219831Y-68139569D01*
X109219829Y-68139574D01*
X109217977Y-68144047D01*
X109217344Y-68148849D01*
X109217344Y-68148852D01*
X109208488Y-68216123D01*
X109197445Y-68300000D01*
X109217977Y-68455953D01*
X109219832Y-68460433D01*
X109219833Y-68460434D01*
X109268130Y-68577036D01*
X109278172Y-68601278D01*
X109281125Y-68605126D01*
X109281126Y-68605128D01*
X109370974Y-68722220D01*
X109373929Y-68726071D01*
X109498722Y-68821828D01*
X109644047Y-68882023D01*
X109800000Y-68902555D01*
X109955953Y-68882023D01*
X110101278Y-68821828D01*
X110226071Y-68726071D01*
X110321828Y-68601278D01*
X110382023Y-68455953D01*
X110398745Y-68328936D01*
X110419786Y-68286270D01*
X110462453Y-68265229D01*
X110509112Y-68274510D01*
X110540479Y-68310278D01*
X110570707Y-68383257D01*
X110578172Y-68401278D01*
X110581125Y-68405126D01*
X110581126Y-68405128D01*
X110657279Y-68504372D01*
X110673929Y-68526071D01*
X110728712Y-68568108D01*
X110740348Y-68577036D01*
X110761669Y-68603015D01*
X110769300Y-68635744D01*
X110769300Y-70171501D01*
X110759386Y-70208501D01*
X110732300Y-70235587D01*
X110695300Y-70245501D01*
X110501434Y-70245501D01*
X110499986Y-70245614D01*
X110499983Y-70245615D01*
X110469509Y-70248012D01*
X110469502Y-70248013D01*
X110465742Y-70248309D01*
X110462123Y-70249360D01*
X110462114Y-70249362D01*
X110317479Y-70291382D01*
X110317471Y-70291385D01*
X110313008Y-70292682D01*
X110309002Y-70295051D01*
X110309000Y-70295052D01*
X110180118Y-70371272D01*
X110180112Y-70371276D01*
X110176109Y-70373644D01*
X110172819Y-70376933D01*
X110172815Y-70376937D01*
X110066937Y-70482815D01*
X110066933Y-70482819D01*
X110063644Y-70486109D01*
X110061276Y-70490112D01*
X110061272Y-70490118D01*
X109985052Y-70619000D01*
X109982682Y-70623008D01*
X109981385Y-70627471D01*
X109981382Y-70627479D01*
X109939363Y-70772111D01*
X109939361Y-70772119D01*
X109938309Y-70775742D01*
X109938012Y-70779507D01*
X109938012Y-70779511D01*
X109935613Y-70809986D01*
X109935612Y-70810008D01*
X109935500Y-70811433D01*
X109935500Y-70812885D01*
X109935500Y-70812886D01*
X109935500Y-70926000D01*
X109925586Y-70963000D01*
X109898500Y-70990086D01*
X109861500Y-71000000D01*
X109478499Y-71000000D01*
X109441499Y-70990086D01*
X109414413Y-70963000D01*
X109404499Y-70926000D01*
X109404499Y-70812888D01*
X109404499Y-70812886D01*
X109404499Y-70811434D01*
X109401691Y-70775742D01*
X109395444Y-70754239D01*
X109358617Y-70627479D01*
X109358616Y-70627478D01*
X109357318Y-70623008D01*
X109276356Y-70486109D01*
X109163891Y-70373644D01*
X109159883Y-70371274D01*
X109159881Y-70371272D01*
X109030999Y-70295052D01*
X109031000Y-70295052D01*
X109026992Y-70292682D01*
X109022525Y-70291384D01*
X109022520Y-70291382D01*
X108877888Y-70249363D01*
X108877882Y-70249361D01*
X108874258Y-70248309D01*
X108870490Y-70248012D01*
X108870488Y-70248012D01*
X108840013Y-70245613D01*
X108839992Y-70245612D01*
X108838567Y-70245500D01*
X108837115Y-70245500D01*
X108804700Y-70245500D01*
X108767700Y-70235586D01*
X108740614Y-70208500D01*
X108730700Y-70171500D01*
X108730700Y-66735744D01*
X108738331Y-66703015D01*
X108759652Y-66677036D01*
X108826071Y-66626071D01*
X108921828Y-66501278D01*
X108982023Y-66355953D01*
X109002555Y-66200000D01*
X108982023Y-66044047D01*
X108945873Y-65956774D01*
X108923683Y-65903201D01*
X108923682Y-65903200D01*
X108921828Y-65898723D01*
X108826071Y-65773929D01*
X108790115Y-65746339D01*
X108705128Y-65681126D01*
X108705125Y-65681124D01*
X108701278Y-65678172D01*
X108696794Y-65676314D01*
X108696793Y-65676314D01*
X108560434Y-65619833D01*
X108560433Y-65619832D01*
X108555953Y-65617977D01*
X108400000Y-65597445D01*
X108395192Y-65598078D01*
X108248852Y-65617344D01*
X108248849Y-65617344D01*
X108244047Y-65617977D01*
X108239574Y-65619829D01*
X108239569Y-65619831D01*
X108103201Y-65676316D01*
X108103193Y-65676320D01*
X108098723Y-65678172D01*
X108094878Y-65681122D01*
X108094875Y-65681124D01*
X107977779Y-65770974D01*
X107977775Y-65770977D01*
X107973929Y-65773929D01*
X107970977Y-65777775D01*
X107970974Y-65777779D01*
X107881124Y-65894875D01*
X107881122Y-65894878D01*
X107878172Y-65898723D01*
X107876320Y-65903193D01*
X107876316Y-65903201D01*
X107819831Y-66039569D01*
X107819829Y-66039574D01*
X107817977Y-66044047D01*
X107817344Y-66048849D01*
X107817344Y-66048852D01*
X107810189Y-66103201D01*
X107797445Y-66200000D01*
X107817977Y-66355953D01*
X107819832Y-66360433D01*
X107819833Y-66360434D01*
X107864601Y-66468516D01*
X107878172Y-66501278D01*
X107881125Y-66505126D01*
X107881126Y-66505128D01*
X107961781Y-66610240D01*
X107973929Y-66626071D01*
X107977779Y-66629025D01*
X108040348Y-66677036D01*
X108061669Y-66703015D01*
X108069300Y-66735744D01*
X108069300Y-70171501D01*
X108059386Y-70208501D01*
X108032300Y-70235587D01*
X107995300Y-70245501D01*
X107961434Y-70245501D01*
X107959986Y-70245614D01*
X107959983Y-70245615D01*
X107929509Y-70248012D01*
X107929502Y-70248013D01*
X107925742Y-70248309D01*
X107922123Y-70249360D01*
X107922114Y-70249362D01*
X107777479Y-70291382D01*
X107777471Y-70291385D01*
X107773008Y-70292682D01*
X107769002Y-70295051D01*
X107769000Y-70295052D01*
X107640118Y-70371272D01*
X107640112Y-70371276D01*
X107636109Y-70373644D01*
X107632819Y-70376933D01*
X107632815Y-70376937D01*
X107526937Y-70482815D01*
X107526933Y-70482819D01*
X107523644Y-70486109D01*
X107521276Y-70490112D01*
X107521272Y-70490118D01*
X107445052Y-70619000D01*
X107442682Y-70623008D01*
X107441385Y-70627471D01*
X107441382Y-70627479D01*
X107399363Y-70772111D01*
X107399361Y-70772119D01*
X107398309Y-70775742D01*
X107398012Y-70779507D01*
X107398012Y-70779511D01*
X107395613Y-70809986D01*
X107395612Y-70810008D01*
X107395500Y-70811433D01*
X107395500Y-70812885D01*
X107395500Y-70812886D01*
X107395500Y-70926000D01*
X107385586Y-70963000D01*
X107358500Y-70990086D01*
X107321500Y-71000000D01*
X106938499Y-71000000D01*
X106901499Y-70990086D01*
X106874413Y-70963000D01*
X106864499Y-70926000D01*
X106864499Y-70812888D01*
X106864499Y-70812886D01*
X106864499Y-70811434D01*
X106861691Y-70775742D01*
X106855444Y-70754239D01*
X106818617Y-70627479D01*
X106818616Y-70627478D01*
X106817318Y-70623008D01*
X106736356Y-70486109D01*
X106623891Y-70373644D01*
X106619883Y-70371274D01*
X106619881Y-70371272D01*
X106490999Y-70295052D01*
X106491000Y-70295052D01*
X106486992Y-70292682D01*
X106482525Y-70291384D01*
X106482520Y-70291382D01*
X106337888Y-70249363D01*
X106337882Y-70249361D01*
X106334258Y-70248309D01*
X106330490Y-70248012D01*
X106330488Y-70248012D01*
X106300013Y-70245613D01*
X106299992Y-70245612D01*
X106298567Y-70245500D01*
X106297115Y-70245500D01*
X106204700Y-70245500D01*
X106167700Y-70235586D01*
X106140614Y-70208500D01*
X106130700Y-70171500D01*
X106130700Y-66837759D01*
X106145992Y-66792711D01*
X106189704Y-66735744D01*
X106197429Y-66725677D01*
X106257624Y-66580352D01*
X106278156Y-66424399D01*
X106257624Y-66268446D01*
X106211028Y-66155953D01*
X106199284Y-66127600D01*
X106199283Y-66127599D01*
X106197429Y-66123122D01*
X106101672Y-65998328D01*
X106062760Y-65968470D01*
X105980729Y-65905525D01*
X105980726Y-65905523D01*
X105976879Y-65902571D01*
X105972395Y-65900713D01*
X105972394Y-65900713D01*
X105836035Y-65844232D01*
X105836034Y-65844231D01*
X105831554Y-65842376D01*
X105675601Y-65821844D01*
X105670793Y-65822477D01*
X105524453Y-65841743D01*
X105524450Y-65841743D01*
X105519648Y-65842376D01*
X105515175Y-65844228D01*
X105515170Y-65844230D01*
X105378802Y-65900715D01*
X105378794Y-65900719D01*
X105374324Y-65902571D01*
X105370479Y-65905521D01*
X105370476Y-65905523D01*
X105253380Y-65995373D01*
X105253376Y-65995376D01*
X105249530Y-65998328D01*
X105246578Y-66002174D01*
X105246575Y-66002178D01*
X105156725Y-66119274D01*
X105156723Y-66119277D01*
X105153773Y-66123122D01*
X105151921Y-66127592D01*
X105151917Y-66127600D01*
X105095432Y-66263968D01*
X105095430Y-66263973D01*
X105093578Y-66268446D01*
X105092945Y-66273248D01*
X105092945Y-66273251D01*
X105087186Y-66316997D01*
X105073046Y-66424399D01*
X105093578Y-66580352D01*
X105095433Y-66584832D01*
X105095434Y-66584833D01*
X105143666Y-66701278D01*
X105153773Y-66725677D01*
X105156726Y-66729525D01*
X105156727Y-66729527D01*
X105240438Y-66838621D01*
X105249530Y-66850470D01*
X105374323Y-66946227D01*
X105423618Y-66966645D01*
X105456829Y-66993899D01*
X105469300Y-67035012D01*
X105469300Y-70173328D01*
X105460332Y-70208638D01*
X105435603Y-70235390D01*
X105401106Y-70247100D01*
X105389508Y-70248012D01*
X105389501Y-70248013D01*
X105385742Y-70248309D01*
X105382123Y-70249360D01*
X105382114Y-70249362D01*
X105237479Y-70291382D01*
X105237471Y-70291385D01*
X105233008Y-70292682D01*
X105229002Y-70295051D01*
X105229000Y-70295052D01*
X105100118Y-70371272D01*
X105100112Y-70371276D01*
X105096109Y-70373644D01*
X105092819Y-70376933D01*
X105092815Y-70376937D01*
X104986937Y-70482815D01*
X104986933Y-70482819D01*
X104983644Y-70486109D01*
X104981276Y-70490112D01*
X104981272Y-70490118D01*
X104905052Y-70619000D01*
X104902682Y-70623008D01*
X104901385Y-70627471D01*
X104901382Y-70627479D01*
X104859363Y-70772111D01*
X104859361Y-70772119D01*
X104858309Y-70775742D01*
X104858012Y-70779507D01*
X104858012Y-70779511D01*
X104855613Y-70809986D01*
X104855612Y-70810008D01*
X104855500Y-70811433D01*
X104855500Y-70812885D01*
X104855500Y-70812886D01*
X104855500Y-70926000D01*
X104845586Y-70963000D01*
X104818500Y-70990086D01*
X104781500Y-71000000D01*
X104398499Y-71000000D01*
X104361499Y-70990086D01*
X104334413Y-70963000D01*
X104324499Y-70926000D01*
X104324499Y-70812888D01*
X104324499Y-70812886D01*
X104324499Y-70811434D01*
X104321691Y-70775742D01*
X104315444Y-70754239D01*
X104278617Y-70627479D01*
X104278616Y-70627478D01*
X104277318Y-70623008D01*
X104196356Y-70486109D01*
X104083891Y-70373644D01*
X104079883Y-70371274D01*
X104079881Y-70371272D01*
X103950999Y-70295052D01*
X103951000Y-70295052D01*
X103946992Y-70292682D01*
X103942525Y-70291384D01*
X103942520Y-70291382D01*
X103797888Y-70249363D01*
X103797882Y-70249361D01*
X103794258Y-70248309D01*
X103790490Y-70248012D01*
X103790488Y-70248012D01*
X103760013Y-70245613D01*
X103759992Y-70245612D01*
X103758567Y-70245500D01*
X103757115Y-70245500D01*
X103704700Y-70245500D01*
X103667700Y-70235586D01*
X103640614Y-70208500D01*
X103630700Y-70171500D01*
X103630700Y-67817669D01*
X103630982Y-67811220D01*
X103631101Y-67809856D01*
X103634524Y-67770733D01*
X103624001Y-67731464D01*
X103622610Y-67725189D01*
X103615551Y-67685149D01*
X103612310Y-67679536D01*
X103610823Y-67675451D01*
X103607848Y-67668268D01*
X103606015Y-67664337D01*
X103604340Y-67658083D01*
X103581022Y-67624783D01*
X103577554Y-67619338D01*
X103560476Y-67589758D01*
X103557239Y-67584151D01*
X103545057Y-67573929D01*
X103526099Y-67558021D01*
X103521340Y-67553660D01*
X102827975Y-66860295D01*
X102811934Y-66836288D01*
X102806301Y-66807969D01*
X102806301Y-66400000D01*
X103097445Y-66400000D01*
X103117977Y-66555953D01*
X103119832Y-66560433D01*
X103119833Y-66560434D01*
X103168130Y-66677036D01*
X103178172Y-66701278D01*
X103181125Y-66705126D01*
X103181126Y-66705128D01*
X103196894Y-66725677D01*
X103273929Y-66826071D01*
X103398722Y-66921828D01*
X103544047Y-66982023D01*
X103700000Y-67002555D01*
X103855953Y-66982023D01*
X104001278Y-66921828D01*
X104126071Y-66826071D01*
X104221828Y-66701278D01*
X104282023Y-66555953D01*
X104302555Y-66400000D01*
X104291626Y-66316994D01*
X104294920Y-66283551D01*
X104312665Y-66255013D01*
X105587905Y-64979774D01*
X105611913Y-64963733D01*
X105640232Y-64958100D01*
X106164256Y-64958100D01*
X106196985Y-64965731D01*
X106222963Y-64987051D01*
X106273929Y-65053471D01*
X106398722Y-65149228D01*
X106544047Y-65209423D01*
X106700000Y-65229955D01*
X106855953Y-65209423D01*
X107001278Y-65149228D01*
X107126071Y-65053471D01*
X107221828Y-64928678D01*
X107282023Y-64783353D01*
X107302555Y-64627400D01*
X107282023Y-64471447D01*
X107240069Y-64370161D01*
X107223683Y-64330601D01*
X107223682Y-64330600D01*
X107221828Y-64326123D01*
X107126071Y-64201329D01*
X107122220Y-64198374D01*
X107005128Y-64108526D01*
X107005125Y-64108524D01*
X107001278Y-64105572D01*
X106996794Y-64103714D01*
X106996793Y-64103714D01*
X106860434Y-64047233D01*
X106860433Y-64047232D01*
X106855953Y-64045377D01*
X106700000Y-64024845D01*
X106695192Y-64025478D01*
X106548852Y-64044744D01*
X106548849Y-64044744D01*
X106544047Y-64045377D01*
X106539574Y-64047229D01*
X106539569Y-64047231D01*
X106403201Y-64103716D01*
X106403193Y-64103720D01*
X106398723Y-64105572D01*
X106394878Y-64108522D01*
X106394875Y-64108524D01*
X106277779Y-64198374D01*
X106277775Y-64198377D01*
X106273929Y-64201329D01*
X106270977Y-64205175D01*
X106270974Y-64205179D01*
X106222964Y-64267748D01*
X106196985Y-64289069D01*
X106164256Y-64296700D01*
X105490269Y-64296700D01*
X105483820Y-64296418D01*
X105449785Y-64293440D01*
X105449782Y-64293440D01*
X105443333Y-64292876D01*
X105437083Y-64294550D01*
X105437078Y-64294551D01*
X105404077Y-64303394D01*
X105397776Y-64304791D01*
X105364120Y-64310725D01*
X105364116Y-64310726D01*
X105357749Y-64311849D01*
X105352149Y-64315081D01*
X105348131Y-64316544D01*
X105340814Y-64319575D01*
X105336930Y-64321386D01*
X105330684Y-64323060D01*
X105325387Y-64326768D01*
X105325380Y-64326772D01*
X105297383Y-64346375D01*
X105291944Y-64349840D01*
X105262360Y-64366922D01*
X105262358Y-64366923D01*
X105256751Y-64370161D01*
X105252588Y-64375121D01*
X105252589Y-64375121D01*
X105230627Y-64401293D01*
X105226267Y-64406051D01*
X103844987Y-65787331D01*
X103816448Y-65805078D01*
X103783002Y-65808372D01*
X103704808Y-65798078D01*
X103700000Y-65797445D01*
X103695192Y-65798078D01*
X103548852Y-65817344D01*
X103548849Y-65817344D01*
X103544047Y-65817977D01*
X103539574Y-65819829D01*
X103539569Y-65819831D01*
X103403201Y-65876316D01*
X103403193Y-65876320D01*
X103398723Y-65878172D01*
X103394878Y-65881122D01*
X103394875Y-65881124D01*
X103277779Y-65970974D01*
X103277775Y-65970977D01*
X103273929Y-65973929D01*
X103270977Y-65977775D01*
X103270974Y-65977779D01*
X103181124Y-66094875D01*
X103181122Y-66094878D01*
X103178172Y-66098723D01*
X103176320Y-66103193D01*
X103176316Y-66103201D01*
X103119831Y-66239569D01*
X103119829Y-66239574D01*
X103117977Y-66244047D01*
X103117344Y-66248849D01*
X103117344Y-66248852D01*
X103110442Y-66301278D01*
X103097445Y-66400000D01*
X102806301Y-66400000D01*
X102806301Y-63735744D01*
X102813932Y-63703015D01*
X102835253Y-63677036D01*
X102836511Y-63676071D01*
X102901672Y-63626071D01*
X102997429Y-63501278D01*
X103057624Y-63355953D01*
X103078156Y-63200000D01*
X103057624Y-63044047D01*
X103022776Y-62959918D01*
X103019665Y-62912447D01*
X103046096Y-62872892D01*
X103091144Y-62857600D01*
X104109268Y-62857600D01*
X104137587Y-62863233D01*
X104161594Y-62879274D01*
X104387331Y-63105011D01*
X104405078Y-63133550D01*
X104408372Y-63166995D01*
X104398949Y-63238577D01*
X104397445Y-63250000D01*
X104417977Y-63405953D01*
X104419832Y-63410433D01*
X104419833Y-63410434D01*
X104466936Y-63524153D01*
X104478172Y-63551278D01*
X104481125Y-63555126D01*
X104481126Y-63555128D01*
X104520028Y-63605826D01*
X104573929Y-63676071D01*
X104698722Y-63771828D01*
X104844047Y-63832023D01*
X105000000Y-63852555D01*
X105155953Y-63832023D01*
X105301278Y-63771828D01*
X105426071Y-63676071D01*
X105521828Y-63551278D01*
X105582023Y-63405953D01*
X105602555Y-63250000D01*
X105582023Y-63094047D01*
X105521828Y-62948723D01*
X105426071Y-62823929D01*
X105301278Y-62728172D01*
X105296794Y-62726314D01*
X105296793Y-62726314D01*
X105217250Y-62693367D01*
X105184039Y-62666112D01*
X105171568Y-62625000D01*
X105184039Y-62583888D01*
X105217250Y-62556633D01*
X105301278Y-62521828D01*
X105426071Y-62426071D01*
X105521828Y-62301278D01*
X105582023Y-62155953D01*
X105602555Y-62000000D01*
X105582023Y-61844047D01*
X105531797Y-61722790D01*
X105523683Y-61703201D01*
X105523682Y-61703200D01*
X105521828Y-61698723D01*
X105426071Y-61573929D01*
X105362900Y-61525456D01*
X105305128Y-61481126D01*
X105305125Y-61481124D01*
X105301278Y-61478172D01*
X105296794Y-61476314D01*
X105296793Y-61476314D01*
X105160434Y-61419833D01*
X105160433Y-61419832D01*
X105155953Y-61417977D01*
X105000000Y-61397445D01*
X104995192Y-61398078D01*
X104848852Y-61417344D01*
X104848849Y-61417344D01*
X104844047Y-61417977D01*
X104839574Y-61419829D01*
X104839569Y-61419831D01*
X104703201Y-61476316D01*
X104703193Y-61476320D01*
X104698723Y-61478172D01*
X104694878Y-61481122D01*
X104694875Y-61481124D01*
X104577779Y-61570974D01*
X104577775Y-61570977D01*
X104573929Y-61573929D01*
X104570977Y-61577775D01*
X104570974Y-61577779D01*
X104522964Y-61640348D01*
X104496985Y-61661669D01*
X104464256Y-61669300D01*
X101217661Y-61669300D01*
X101211212Y-61669018D01*
X101177186Y-61666041D01*
X101177183Y-61666041D01*
X101170733Y-61665477D01*
X101164478Y-61667152D01*
X101164475Y-61667153D01*
X101131483Y-61675992D01*
X101125185Y-61677388D01*
X101091529Y-61683323D01*
X101091523Y-61683324D01*
X101085149Y-61684449D01*
X101079543Y-61687685D01*
X101075497Y-61689158D01*
X101068240Y-61692164D01*
X101064335Y-61693984D01*
X101058083Y-61695660D01*
X101052780Y-61699373D01*
X101052776Y-61699375D01*
X101024789Y-61718972D01*
X101019348Y-61722439D01*
X100984151Y-61742761D01*
X100979988Y-61747721D01*
X100979989Y-61747721D01*
X100958027Y-61773893D01*
X100953667Y-61778651D01*
X98457026Y-64275293D01*
X98419137Y-64295545D01*
X98376381Y-64291334D01*
X98343171Y-64264079D01*
X98330700Y-64222967D01*
X98330700Y-57365761D01*
X98330982Y-57359312D01*
X98331101Y-57357948D01*
X98334524Y-57318825D01*
X98324000Y-57279554D01*
X98322607Y-57273265D01*
X98320194Y-57259580D01*
X98315551Y-57233241D01*
X98312311Y-57227629D01*
X98310832Y-57223566D01*
X98307851Y-57216367D01*
X98306016Y-57212432D01*
X98304340Y-57206176D01*
X98281028Y-57172882D01*
X98277561Y-57167439D01*
X98260478Y-57137851D01*
X98260474Y-57137846D01*
X98257239Y-57132243D01*
X98226102Y-57106115D01*
X98221352Y-57101763D01*
X95072640Y-53953052D01*
X95068279Y-53948292D01*
X95046319Y-53922121D01*
X95046318Y-53922120D01*
X95042156Y-53917160D01*
X95036549Y-53913922D01*
X95036547Y-53913921D01*
X95006960Y-53896839D01*
X95001516Y-53893371D01*
X94973527Y-53873773D01*
X94968223Y-53870059D01*
X94961969Y-53868383D01*
X94958062Y-53866561D01*
X94950824Y-53863563D01*
X94946766Y-53862085D01*
X94941158Y-53858848D01*
X94934784Y-53857724D01*
X94934781Y-53857723D01*
X94901130Y-53851790D01*
X94894828Y-53850393D01*
X94861828Y-53841550D01*
X94861823Y-53841549D01*
X94855574Y-53839875D01*
X94849124Y-53840439D01*
X94849121Y-53840439D01*
X94815087Y-53843417D01*
X94808638Y-53843699D01*
X91961345Y-53843699D01*
X91928616Y-53836068D01*
X91902637Y-53814747D01*
X91854626Y-53752178D01*
X91851672Y-53748328D01*
X91757824Y-53676316D01*
X91730729Y-53655525D01*
X91730726Y-53655523D01*
X91726879Y-53652571D01*
X91722395Y-53650713D01*
X91722394Y-53650713D01*
X91586035Y-53594232D01*
X91586034Y-53594231D01*
X91581554Y-53592376D01*
X91425601Y-53571844D01*
X91420793Y-53572477D01*
X91274453Y-53591743D01*
X91274450Y-53591743D01*
X91269648Y-53592376D01*
X91265175Y-53594228D01*
X91265170Y-53594230D01*
X91128802Y-53650715D01*
X91128794Y-53650719D01*
X91124324Y-53652571D01*
X91120479Y-53655521D01*
X91120476Y-53655523D01*
X91003380Y-53745373D01*
X91003376Y-53745376D01*
X90999530Y-53748328D01*
X90996578Y-53752174D01*
X90996575Y-53752178D01*
X90906725Y-53869274D01*
X90906723Y-53869277D01*
X90903773Y-53873122D01*
X90901919Y-53877596D01*
X90901917Y-53877601D01*
X90869132Y-53956752D01*
X90837765Y-53992519D01*
X90791106Y-54001800D01*
X90748439Y-53980759D01*
X90746333Y-53978653D01*
X90741972Y-53973893D01*
X90720012Y-53947722D01*
X90720011Y-53947721D01*
X90715849Y-53942761D01*
X90710242Y-53939523D01*
X90710240Y-53939522D01*
X90680653Y-53922440D01*
X90675209Y-53918972D01*
X90647220Y-53899374D01*
X90641916Y-53895660D01*
X90635662Y-53893984D01*
X90631755Y-53892162D01*
X90624517Y-53889164D01*
X90620459Y-53887686D01*
X90614851Y-53884449D01*
X90608477Y-53883325D01*
X90608474Y-53883324D01*
X90574823Y-53877391D01*
X90568521Y-53875994D01*
X90535516Y-53867150D01*
X90535513Y-53867149D01*
X90529267Y-53865476D01*
X90525299Y-53865823D01*
X90498165Y-53857591D01*
X90475051Y-53837762D01*
X90469393Y-53830388D01*
X90426071Y-53773929D01*
X90301278Y-53678172D01*
X90296794Y-53676314D01*
X90296793Y-53676314D01*
X90160434Y-53619833D01*
X90160433Y-53619832D01*
X90155953Y-53617977D01*
X90000000Y-53597445D01*
X89995192Y-53598078D01*
X89848852Y-53617344D01*
X89848849Y-53617344D01*
X89844047Y-53617977D01*
X89839574Y-53619829D01*
X89839569Y-53619831D01*
X89703201Y-53676316D01*
X89703193Y-53676320D01*
X89698723Y-53678172D01*
X89694878Y-53681122D01*
X89694875Y-53681124D01*
X89577779Y-53770974D01*
X89577775Y-53770977D01*
X89573929Y-53773929D01*
X89570977Y-53777775D01*
X89570977Y-53777776D01*
X89533478Y-53826646D01*
X89498556Y-53851670D01*
X89455617Y-53853075D01*
X89419134Y-53830388D01*
X89401404Y-53791258D01*
X89382023Y-53644047D01*
X89321828Y-53498723D01*
X89226071Y-53373929D01*
X89101278Y-53278172D01*
X89096794Y-53276314D01*
X89096793Y-53276314D01*
X88960434Y-53219833D01*
X88960433Y-53219832D01*
X88955953Y-53217977D01*
X88800000Y-53197445D01*
X88795192Y-53198078D01*
X88648852Y-53217344D01*
X88648849Y-53217344D01*
X88644047Y-53217977D01*
X88639574Y-53219829D01*
X88639569Y-53219831D01*
X88503201Y-53276316D01*
X88503193Y-53276320D01*
X88498723Y-53278172D01*
X88494878Y-53281122D01*
X88494875Y-53281124D01*
X88377779Y-53370974D01*
X88377775Y-53370977D01*
X88373929Y-53373929D01*
X88370977Y-53377775D01*
X88370974Y-53377779D01*
X88281124Y-53494875D01*
X88281122Y-53494878D01*
X88278172Y-53498723D01*
X88276320Y-53503193D01*
X88276316Y-53503201D01*
X88219831Y-53639569D01*
X88219829Y-53639574D01*
X88217977Y-53644047D01*
X88217344Y-53648849D01*
X88217344Y-53648852D01*
X88198596Y-53791256D01*
X88197445Y-53800000D01*
X88217977Y-53955953D01*
X88219832Y-53960433D01*
X88219833Y-53960434D01*
X88227379Y-53978653D01*
X88278172Y-54101278D01*
X88281125Y-54105126D01*
X88281126Y-54105128D01*
X88370974Y-54222220D01*
X88373929Y-54226071D01*
X88377779Y-54229025D01*
X88440348Y-54277036D01*
X88461669Y-54303015D01*
X88469300Y-54335744D01*
X88469300Y-56156839D01*
X88469018Y-56163288D01*
X88466040Y-56197322D01*
X88466040Y-56197325D01*
X88465476Y-56203775D01*
X88467150Y-56210024D01*
X88467151Y-56210029D01*
X88475994Y-56243029D01*
X88477391Y-56249331D01*
X88483324Y-56282982D01*
X88483325Y-56282985D01*
X88484449Y-56289359D01*
X88487686Y-56294967D01*
X88489164Y-56299025D01*
X88492162Y-56306263D01*
X88493984Y-56310170D01*
X88495660Y-56316424D01*
X88499374Y-56321728D01*
X88518972Y-56349717D01*
X88522440Y-56355161D01*
X88539522Y-56384748D01*
X88539523Y-56384750D01*
X88542761Y-56390357D01*
X88547721Y-56394519D01*
X88547722Y-56394520D01*
X88573893Y-56416480D01*
X88578653Y-56420841D01*
X88847626Y-56689814D01*
X88863667Y-56713821D01*
X88869300Y-56742140D01*
X88869300Y-59382331D01*
X88869018Y-59388780D01*
X88866040Y-59422814D01*
X88866040Y-59422817D01*
X88865476Y-59429267D01*
X88867150Y-59435516D01*
X88867151Y-59435521D01*
X88875994Y-59468521D01*
X88877391Y-59474823D01*
X88883324Y-59508474D01*
X88883325Y-59508477D01*
X88884449Y-59514851D01*
X88887686Y-59520459D01*
X88889164Y-59524517D01*
X88892162Y-59531755D01*
X88893984Y-59535662D01*
X88895660Y-59541916D01*
X88899374Y-59547220D01*
X88918972Y-59575209D01*
X88922440Y-59580653D01*
X88939522Y-59610240D01*
X88939523Y-59610242D01*
X88942761Y-59615849D01*
X88947721Y-59620011D01*
X88947722Y-59620012D01*
X88973893Y-59641972D01*
X88978653Y-59646333D01*
X89040166Y-59707846D01*
X89059907Y-59743368D01*
X89057913Y-59783958D01*
X89034786Y-59817374D01*
X88997500Y-59833539D01*
X88948851Y-59839944D01*
X88948847Y-59839945D01*
X88944047Y-59840577D01*
X88939574Y-59842429D01*
X88939569Y-59842431D01*
X88803201Y-59898916D01*
X88803193Y-59898920D01*
X88798723Y-59900772D01*
X88794878Y-59903722D01*
X88794875Y-59903724D01*
X88677779Y-59993574D01*
X88677775Y-59993577D01*
X88673929Y-59996529D01*
X88670977Y-60000375D01*
X88670974Y-60000379D01*
X88622964Y-60062948D01*
X88596985Y-60084269D01*
X88564256Y-60091900D01*
X88095058Y-60091900D01*
X88088609Y-60091618D01*
X88054585Y-60088641D01*
X88054582Y-60088641D01*
X88048133Y-60088077D01*
X88041878Y-60089752D01*
X88041875Y-60089753D01*
X88008883Y-60098592D01*
X88002585Y-60099988D01*
X87968929Y-60105923D01*
X87968923Y-60105924D01*
X87962549Y-60107049D01*
X87956943Y-60110285D01*
X87952897Y-60111758D01*
X87945640Y-60114764D01*
X87941735Y-60116584D01*
X87935483Y-60118260D01*
X87930180Y-60121973D01*
X87930176Y-60121975D01*
X87902189Y-60141572D01*
X87896748Y-60145039D01*
X87861551Y-60165361D01*
X87857388Y-60170321D01*
X87857389Y-60170321D01*
X87835427Y-60196493D01*
X87831067Y-60201251D01*
X83478651Y-64553667D01*
X83473894Y-64558026D01*
X83452267Y-64576173D01*
X83414361Y-64592855D01*
X83373428Y-64586555D01*
X83342289Y-64559249D01*
X83330700Y-64519488D01*
X83330700Y-61840232D01*
X83336333Y-61811913D01*
X83352374Y-61787906D01*
X83772024Y-61368256D01*
X85127613Y-60012665D01*
X85156151Y-59994920D01*
X85189594Y-59991626D01*
X85272600Y-60002555D01*
X85428553Y-59982023D01*
X85573878Y-59921828D01*
X85698671Y-59826071D01*
X85794428Y-59701278D01*
X85854623Y-59555953D01*
X85875155Y-59400000D01*
X85854623Y-59244047D01*
X85794428Y-59098723D01*
X85698671Y-58973929D01*
X85573878Y-58878172D01*
X85569394Y-58876314D01*
X85569393Y-58876314D01*
X85433034Y-58819833D01*
X85433033Y-58819832D01*
X85428553Y-58817977D01*
X85272600Y-58797445D01*
X85267792Y-58798078D01*
X85121452Y-58817344D01*
X85121449Y-58817344D01*
X85116647Y-58817977D01*
X85112174Y-58819829D01*
X85112169Y-58819831D01*
X84975801Y-58876316D01*
X84975793Y-58876320D01*
X84971323Y-58878172D01*
X84967478Y-58881122D01*
X84967475Y-58881124D01*
X84850379Y-58970974D01*
X84850375Y-58970977D01*
X84846529Y-58973929D01*
X84843577Y-58977775D01*
X84843574Y-58977779D01*
X84753724Y-59094875D01*
X84753722Y-59094878D01*
X84750772Y-59098723D01*
X84748920Y-59103193D01*
X84748916Y-59103201D01*
X84692431Y-59239569D01*
X84692429Y-59239574D01*
X84690577Y-59244047D01*
X84689944Y-59248849D01*
X84689944Y-59248852D01*
X84672371Y-59382331D01*
X84670045Y-59400000D01*
X84670678Y-59404808D01*
X84680972Y-59483002D01*
X84677678Y-59516448D01*
X84659931Y-59544987D01*
X82778655Y-61426262D01*
X82773898Y-61430621D01*
X82747719Y-61452589D01*
X82747714Y-61452593D01*
X82742761Y-61456751D01*
X82739526Y-61462353D01*
X82739524Y-61462356D01*
X82722440Y-61491944D01*
X82718975Y-61497383D01*
X82699372Y-61525380D01*
X82699368Y-61525387D01*
X82695660Y-61530684D01*
X82693986Y-61536930D01*
X82692175Y-61540814D01*
X82689144Y-61548131D01*
X82687681Y-61552149D01*
X82684449Y-61557749D01*
X82683326Y-61564116D01*
X82683325Y-61564120D01*
X82677391Y-61597776D01*
X82675994Y-61604077D01*
X82667151Y-61637078D01*
X82667150Y-61637083D01*
X82665476Y-61643333D01*
X82666040Y-61649782D01*
X82666040Y-61649785D01*
X82669018Y-61683820D01*
X82669300Y-61690269D01*
X82669300Y-65332368D01*
X82663667Y-65360687D01*
X82647626Y-65384694D01*
X77808492Y-70223826D01*
X77784485Y-70239867D01*
X77756166Y-70245500D01*
X77482888Y-70245500D01*
X77482862Y-70245500D01*
X77481434Y-70245501D01*
X77479986Y-70245614D01*
X77479983Y-70245615D01*
X77449509Y-70248012D01*
X77449502Y-70248013D01*
X77445742Y-70248309D01*
X77442123Y-70249360D01*
X77442114Y-70249362D01*
X77297479Y-70291382D01*
X77297471Y-70291385D01*
X77293008Y-70292682D01*
X77289002Y-70295051D01*
X77289000Y-70295052D01*
X77160118Y-70371272D01*
X77160112Y-70371276D01*
X77156109Y-70373644D01*
X77152819Y-70376933D01*
X77152815Y-70376937D01*
X77046937Y-70482815D01*
X77046933Y-70482819D01*
X77043644Y-70486109D01*
X77041276Y-70490112D01*
X77041272Y-70490118D01*
X76965052Y-70619000D01*
X76962682Y-70623008D01*
X76961385Y-70627471D01*
X76961382Y-70627479D01*
X76919363Y-70772111D01*
X76919361Y-70772119D01*
X76918309Y-70775742D01*
X76918012Y-70779507D01*
X76918012Y-70779511D01*
X76915613Y-70809986D01*
X76915612Y-70810008D01*
X76915500Y-70811433D01*
X76915500Y-70812885D01*
X76915500Y-70812886D01*
X76915500Y-70926000D01*
X76905586Y-70963000D01*
X76878500Y-70990086D01*
X76841500Y-71000000D01*
X76712499Y-71000000D01*
X76675499Y-70990086D01*
X76648413Y-70963000D01*
X76638499Y-70926000D01*
X76638499Y-70814611D01*
X76638499Y-70814610D01*
X76638499Y-70813158D01*
X76632430Y-70736029D01*
X76584362Y-70556638D01*
X76500047Y-70391161D01*
X76383170Y-70246830D01*
X76374571Y-70239867D01*
X76241851Y-70132392D01*
X76241850Y-70132391D01*
X76238839Y-70129953D01*
X76235384Y-70128192D01*
X76235377Y-70128188D01*
X76182905Y-70101452D01*
X76153405Y-70074183D01*
X76142500Y-70035518D01*
X76142500Y-69366489D01*
X76148133Y-69338170D01*
X76164174Y-69314163D01*
X76498171Y-68980166D01*
X76846085Y-68632251D01*
X76854208Y-68625232D01*
X76876822Y-68608398D01*
X76910631Y-68568104D01*
X76914995Y-68563342D01*
X76920573Y-68557765D01*
X76921903Y-68556081D01*
X76921909Y-68556076D01*
X76940573Y-68532470D01*
X76941909Y-68530827D01*
X76991396Y-68471853D01*
X76993330Y-68467999D01*
X76995699Y-68464399D01*
X76995702Y-68464401D01*
X76998459Y-68460073D01*
X76998457Y-68460072D01*
X77000721Y-68456401D01*
X77003395Y-68453020D01*
X77035929Y-68383248D01*
X77036864Y-68381318D01*
X77071394Y-68312566D01*
X77072388Y-68308370D01*
X77073863Y-68304319D01*
X77073866Y-68304320D01*
X77075550Y-68299475D01*
X77075546Y-68299474D01*
X77076900Y-68295387D01*
X77078725Y-68291474D01*
X77094305Y-68216010D01*
X77094730Y-68214097D01*
X77112500Y-68139123D01*
X77112500Y-68134805D01*
X77113000Y-68130531D01*
X77113003Y-68130531D01*
X77113525Y-68125421D01*
X77113522Y-68125421D01*
X77113897Y-68121131D01*
X77114769Y-68116909D01*
X77112531Y-68039989D01*
X77112500Y-68037837D01*
X77112500Y-65636500D01*
X77122414Y-65599500D01*
X77149500Y-65572414D01*
X77186500Y-65562500D01*
X77469862Y-65562500D01*
X77509653Y-65574109D01*
X77531235Y-65598755D01*
X77532885Y-65597738D01*
X77623129Y-65744047D01*
X77625970Y-65748652D01*
X77751348Y-65874030D01*
X77902262Y-65967115D01*
X78070574Y-66022887D01*
X78174455Y-66033500D01*
X78950544Y-66033499D01*
X79054426Y-66022887D01*
X79222738Y-65967115D01*
X79373652Y-65874030D01*
X79499030Y-65748652D01*
X79592115Y-65597738D01*
X79647887Y-65429426D01*
X79658500Y-65325545D01*
X79658500Y-65303571D01*
X79900001Y-65303571D01*
X79900456Y-65309354D01*
X79913923Y-65394393D01*
X79917480Y-65405340D01*
X79969713Y-65507852D01*
X79976478Y-65517164D01*
X80057835Y-65598521D01*
X80067147Y-65605286D01*
X80169658Y-65657518D01*
X80180607Y-65661076D01*
X80265646Y-65674544D01*
X80271428Y-65675000D01*
X80552757Y-65675000D01*
X80560440Y-65672940D01*
X80562500Y-65665257D01*
X80562500Y-65665256D01*
X80712500Y-65665256D01*
X80714559Y-65672939D01*
X80722243Y-65674999D01*
X81003571Y-65674999D01*
X81009354Y-65674543D01*
X81094393Y-65661076D01*
X81105340Y-65657519D01*
X81207852Y-65605286D01*
X81217164Y-65598521D01*
X81298521Y-65517164D01*
X81305286Y-65507852D01*
X81357518Y-65405341D01*
X81361076Y-65394392D01*
X81374544Y-65309353D01*
X81375000Y-65303572D01*
X81375000Y-64884743D01*
X81372940Y-64877059D01*
X81365257Y-64875000D01*
X80722243Y-64875000D01*
X80714559Y-64877059D01*
X80712500Y-64884743D01*
X80712500Y-65665256D01*
X80562500Y-65665256D01*
X80562500Y-64884743D01*
X80560440Y-64877059D01*
X80552757Y-64875000D01*
X79909744Y-64875000D01*
X79902060Y-64877059D01*
X79900001Y-64884743D01*
X79900001Y-65303571D01*
X79658500Y-65303571D01*
X79658499Y-64715257D01*
X79900000Y-64715257D01*
X79902059Y-64722940D01*
X79909743Y-64725000D01*
X80552757Y-64725000D01*
X80560440Y-64722940D01*
X80562500Y-64715257D01*
X80712500Y-64715257D01*
X80714559Y-64722940D01*
X80722243Y-64725000D01*
X81365256Y-64725000D01*
X81372939Y-64722940D01*
X81374999Y-64715257D01*
X81374999Y-64296429D01*
X81374543Y-64290645D01*
X81361076Y-64205606D01*
X81357519Y-64194659D01*
X81305286Y-64092147D01*
X81298521Y-64082835D01*
X81217164Y-64001478D01*
X81207852Y-63994713D01*
X81105341Y-63942481D01*
X81094392Y-63938923D01*
X81009353Y-63925455D01*
X81003572Y-63925000D01*
X80722243Y-63925000D01*
X80714559Y-63927059D01*
X80712500Y-63934743D01*
X80712500Y-64715257D01*
X80562500Y-64715257D01*
X80562500Y-63934744D01*
X80560440Y-63927060D01*
X80552757Y-63925001D01*
X80271429Y-63925001D01*
X80265645Y-63925456D01*
X80180606Y-63938923D01*
X80169659Y-63942480D01*
X80067147Y-63994713D01*
X80057835Y-64001478D01*
X79976478Y-64082835D01*
X79969713Y-64092147D01*
X79917481Y-64194658D01*
X79913923Y-64205607D01*
X79900455Y-64290646D01*
X79900000Y-64296428D01*
X79900000Y-64715257D01*
X79658499Y-64715257D01*
X79658499Y-64274456D01*
X79647887Y-64170574D01*
X79592115Y-64002262D01*
X79499030Y-63851348D01*
X79373652Y-63725970D01*
X79369985Y-63723708D01*
X79226404Y-63635146D01*
X79226402Y-63635145D01*
X79222738Y-63632885D01*
X79218649Y-63631530D01*
X79218647Y-63631529D01*
X79058259Y-63578383D01*
X79058258Y-63578382D01*
X79054426Y-63577113D01*
X79050414Y-63576703D01*
X79050409Y-63576702D01*
X78952412Y-63566690D01*
X78952397Y-63566689D01*
X78950545Y-63566500D01*
X78948666Y-63566500D01*
X78176335Y-63566500D01*
X78176315Y-63566500D01*
X78174456Y-63566501D01*
X78172605Y-63566690D01*
X78172587Y-63566691D01*
X78074589Y-63576702D01*
X78074581Y-63576703D01*
X78070574Y-63577113D01*
X78066748Y-63578380D01*
X78066742Y-63578382D01*
X77906352Y-63631529D01*
X77906346Y-63631531D01*
X77902262Y-63632885D01*
X77898600Y-63635143D01*
X77898595Y-63635146D01*
X77755014Y-63723708D01*
X77755009Y-63723711D01*
X77751348Y-63725970D01*
X77748305Y-63729012D01*
X77748301Y-63729016D01*
X77629016Y-63848301D01*
X77629012Y-63848305D01*
X77625970Y-63851348D01*
X77623711Y-63855009D01*
X77623708Y-63855014D01*
X77532885Y-64002262D01*
X77531235Y-64001244D01*
X77509653Y-64025891D01*
X77469862Y-64037500D01*
X77137220Y-64037500D01*
X77100556Y-64027779D01*
X77073525Y-64001169D01*
X77026824Y-63922202D01*
X77026823Y-63922201D01*
X77024453Y-63918193D01*
X76906807Y-63800547D01*
X76902799Y-63798177D01*
X76902797Y-63798175D01*
X76780704Y-63725970D01*
X76763601Y-63715855D01*
X76759134Y-63714557D01*
X76759129Y-63714555D01*
X76611501Y-63671666D01*
X76579820Y-63652930D01*
X76526237Y-63599347D01*
X76506608Y-63564296D01*
X76508185Y-63524153D01*
X76530504Y-63490751D01*
X76566987Y-63473932D01*
X76626555Y-63464498D01*
X76740723Y-63406326D01*
X76831326Y-63315723D01*
X76889498Y-63201555D01*
X76904500Y-63106834D01*
X76904500Y-62982500D01*
X76914414Y-62945500D01*
X76941500Y-62918414D01*
X76978500Y-62908500D01*
X77652443Y-62908500D01*
X77687132Y-62917134D01*
X77713726Y-62941022D01*
X77726019Y-62974588D01*
X77726960Y-62983342D01*
X77728577Y-62987678D01*
X77728578Y-62987681D01*
X77775806Y-63114304D01*
X77775808Y-63114309D01*
X77777658Y-63119267D01*
X77864596Y-63235404D01*
X77980733Y-63322342D01*
X77985693Y-63324192D01*
X77985695Y-63324193D01*
X78027741Y-63339875D01*
X78116658Y-63373040D01*
X78176745Y-63379500D01*
X78948254Y-63379499D01*
X79008342Y-63373040D01*
X79144267Y-63322342D01*
X79260404Y-63235404D01*
X79347342Y-63119267D01*
X79398040Y-62983342D01*
X79404500Y-62923255D01*
X79404500Y-62903571D01*
X79900001Y-62903571D01*
X79900456Y-62909354D01*
X79913923Y-62994393D01*
X79917480Y-63005340D01*
X79969713Y-63107852D01*
X79976478Y-63117164D01*
X80057835Y-63198521D01*
X80067147Y-63205286D01*
X80169658Y-63257518D01*
X80180607Y-63261076D01*
X80265646Y-63274544D01*
X80271428Y-63275000D01*
X80552757Y-63275000D01*
X80560440Y-63272940D01*
X80562500Y-63265257D01*
X80562500Y-63265256D01*
X80712500Y-63265256D01*
X80714559Y-63272939D01*
X80722243Y-63274999D01*
X81003571Y-63274999D01*
X81009354Y-63274543D01*
X81094393Y-63261076D01*
X81105340Y-63257519D01*
X81207852Y-63205286D01*
X81217164Y-63198521D01*
X81298521Y-63117164D01*
X81305286Y-63107852D01*
X81357518Y-63005341D01*
X81361076Y-62994392D01*
X81374544Y-62909353D01*
X81375000Y-62903572D01*
X81375000Y-62484743D01*
X81372940Y-62477059D01*
X81365257Y-62475000D01*
X80722243Y-62475000D01*
X80714559Y-62477059D01*
X80712500Y-62484743D01*
X80712500Y-63265256D01*
X80562500Y-63265256D01*
X80562500Y-62484743D01*
X80560440Y-62477059D01*
X80552757Y-62475000D01*
X79909744Y-62475000D01*
X79902060Y-62477059D01*
X79900001Y-62484743D01*
X79900001Y-62903571D01*
X79404500Y-62903571D01*
X79404499Y-62315257D01*
X79900000Y-62315257D01*
X79902059Y-62322940D01*
X79909743Y-62325000D01*
X80552757Y-62325000D01*
X80560440Y-62322940D01*
X80562500Y-62315257D01*
X80712500Y-62315257D01*
X80714559Y-62322940D01*
X80722243Y-62325000D01*
X81365256Y-62325000D01*
X81372939Y-62322940D01*
X81374999Y-62315257D01*
X81374999Y-61896429D01*
X81374543Y-61890645D01*
X81361076Y-61805606D01*
X81357519Y-61794659D01*
X81305286Y-61692147D01*
X81298521Y-61682835D01*
X81217164Y-61601478D01*
X81207852Y-61594713D01*
X81105341Y-61542481D01*
X81094392Y-61538923D01*
X81009353Y-61525455D01*
X81003572Y-61525000D01*
X80722243Y-61525000D01*
X80714559Y-61527059D01*
X80712500Y-61534743D01*
X80712500Y-62315257D01*
X80562500Y-62315257D01*
X80562500Y-61534744D01*
X80560440Y-61527060D01*
X80552757Y-61525001D01*
X80271429Y-61525001D01*
X80265645Y-61525456D01*
X80180606Y-61538923D01*
X80169659Y-61542480D01*
X80067147Y-61594713D01*
X80057835Y-61601478D01*
X79976478Y-61682835D01*
X79969713Y-61692147D01*
X79917481Y-61794658D01*
X79913923Y-61805607D01*
X79900455Y-61890646D01*
X79900000Y-61896428D01*
X79900000Y-62315257D01*
X79404499Y-62315257D01*
X79404499Y-61876746D01*
X79398040Y-61816658D01*
X79361605Y-61718972D01*
X79349193Y-61685695D01*
X79349192Y-61685693D01*
X79347342Y-61680733D01*
X79260404Y-61564596D01*
X79144267Y-61477658D01*
X79139309Y-61475808D01*
X79139304Y-61475806D01*
X79012683Y-61428579D01*
X79012682Y-61428578D01*
X79008342Y-61426960D01*
X79003740Y-61426465D01*
X79003735Y-61426464D01*
X78950227Y-61420712D01*
X78950226Y-61420711D01*
X78948255Y-61420500D01*
X78946271Y-61420500D01*
X78178729Y-61420500D01*
X78178710Y-61420500D01*
X78176746Y-61420501D01*
X78174775Y-61420712D01*
X78174772Y-61420713D01*
X78121263Y-61426464D01*
X78121255Y-61426465D01*
X78116658Y-61426960D01*
X78112323Y-61428576D01*
X78112318Y-61428578D01*
X77985695Y-61475806D01*
X77985687Y-61475809D01*
X77980733Y-61477658D01*
X77976493Y-61480831D01*
X77976491Y-61480833D01*
X77868835Y-61561422D01*
X77868831Y-61561425D01*
X77864596Y-61564596D01*
X77861425Y-61568831D01*
X77861422Y-61568835D01*
X77784963Y-61670974D01*
X77777658Y-61680733D01*
X77775809Y-61685687D01*
X77775806Y-61685695D01*
X77728579Y-61812316D01*
X77728579Y-61812318D01*
X77726960Y-61816658D01*
X77726465Y-61821255D01*
X77726464Y-61821263D01*
X77726019Y-61825411D01*
X77713726Y-61858978D01*
X77687132Y-61882866D01*
X77652443Y-61891500D01*
X77006280Y-61891500D01*
X76965168Y-61879029D01*
X76937913Y-61845819D01*
X76933702Y-61803063D01*
X76953954Y-61765174D01*
X81866754Y-56852374D01*
X81890761Y-56836333D01*
X81919080Y-56830700D01*
X84864256Y-56830700D01*
X84896985Y-56838331D01*
X84922963Y-56859651D01*
X84973929Y-56926071D01*
X85098722Y-57021828D01*
X85244047Y-57082023D01*
X85400000Y-57102555D01*
X85555953Y-57082023D01*
X85701278Y-57021828D01*
X85826071Y-56926071D01*
X85921828Y-56801278D01*
X85982023Y-56655953D01*
X86002555Y-56500000D01*
X85982023Y-56344047D01*
X85951925Y-56271384D01*
X85923683Y-56203201D01*
X85923682Y-56203200D01*
X85921828Y-56198723D01*
X85826071Y-56073929D01*
X85701278Y-55978172D01*
X85696794Y-55976314D01*
X85696793Y-55976314D01*
X85560434Y-55919833D01*
X85560433Y-55919832D01*
X85555953Y-55917977D01*
X85400000Y-55897445D01*
X85395192Y-55898078D01*
X85248852Y-55917344D01*
X85248849Y-55917344D01*
X85244047Y-55917977D01*
X85239574Y-55919829D01*
X85239569Y-55919831D01*
X85103201Y-55976316D01*
X85103193Y-55976320D01*
X85098723Y-55978172D01*
X85094878Y-55981122D01*
X85094875Y-55981124D01*
X84977779Y-56070974D01*
X84977775Y-56070977D01*
X84973929Y-56073929D01*
X84970977Y-56077775D01*
X84970974Y-56077779D01*
X84922964Y-56140348D01*
X84896985Y-56161669D01*
X84864256Y-56169300D01*
X82728480Y-56169300D01*
X82687368Y-56156829D01*
X82660113Y-56123619D01*
X82655902Y-56080863D01*
X82676154Y-56042974D01*
X84973755Y-53745373D01*
X92065285Y-46653841D01*
X92077605Y-46643915D01*
X92086421Y-46638250D01*
X92120681Y-46598709D01*
X92124255Y-46594871D01*
X92135280Y-46583848D01*
X92144629Y-46571357D01*
X92147898Y-46567300D01*
X92182176Y-46527743D01*
X92186534Y-46518199D01*
X92194601Y-46504601D01*
X92200889Y-46496204D01*
X92219182Y-46447155D01*
X92221176Y-46442341D01*
X92242919Y-46394734D01*
X92244409Y-46384363D01*
X92248322Y-46369029D01*
X92251989Y-46359201D01*
X92255722Y-46306994D01*
X92256284Y-46301778D01*
X92258123Y-46288991D01*
X92258123Y-46288988D01*
X92258500Y-46286368D01*
X92258500Y-46270798D01*
X92258689Y-46265519D01*
X92262042Y-46218630D01*
X92262420Y-46213351D01*
X92260191Y-46203103D01*
X92258500Y-46187374D01*
X92258500Y-45241280D01*
X92264133Y-45212962D01*
X92280174Y-45188954D01*
X92508101Y-44961026D01*
X92593281Y-44875844D01*
X92619129Y-44859070D01*
X92649568Y-44854277D01*
X92649772Y-44854287D01*
X92651745Y-44854500D01*
X93648254Y-44854499D01*
X93708342Y-44848040D01*
X93844267Y-44797342D01*
X93960404Y-44710404D01*
X94047342Y-44594267D01*
X94061376Y-44556639D01*
X94088507Y-44521715D01*
X94130711Y-44508500D01*
X94669289Y-44508500D01*
X94711493Y-44521715D01*
X94738623Y-44556639D01*
X94750806Y-44589304D01*
X94750808Y-44589308D01*
X94752658Y-44594267D01*
X94839596Y-44710404D01*
X94955733Y-44797342D01*
X94960693Y-44799192D01*
X94960695Y-44799193D01*
X94977031Y-44805286D01*
X95091658Y-44848040D01*
X95151745Y-44854500D01*
X96148254Y-44854499D01*
X96208342Y-44848040D01*
X96344267Y-44797342D01*
X96460404Y-44710404D01*
X96547342Y-44594267D01*
X96561376Y-44556639D01*
X96588507Y-44521715D01*
X96630711Y-44508500D01*
X97269289Y-44508500D01*
X97311493Y-44521715D01*
X97338623Y-44556639D01*
X97350806Y-44589304D01*
X97350808Y-44589308D01*
X97352658Y-44594267D01*
X97439596Y-44710404D01*
X97555733Y-44797342D01*
X97560693Y-44799192D01*
X97560695Y-44799193D01*
X97577031Y-44805286D01*
X97691658Y-44848040D01*
X97751745Y-44854500D01*
X98748254Y-44854499D01*
X98808342Y-44848040D01*
X98944267Y-44797342D01*
X99060404Y-44710404D01*
X99147342Y-44594267D01*
X99161376Y-44556639D01*
X99188507Y-44521715D01*
X99230711Y-44508500D01*
X99769289Y-44508500D01*
X99811493Y-44521715D01*
X99838623Y-44556639D01*
X99850806Y-44589304D01*
X99850808Y-44589308D01*
X99852658Y-44594267D01*
X99939596Y-44710404D01*
X100055733Y-44797342D01*
X100060693Y-44799192D01*
X100060695Y-44799193D01*
X100077031Y-44805286D01*
X100191658Y-44848040D01*
X100251745Y-44854500D01*
X100854719Y-44854499D01*
X100883038Y-44860132D01*
X100907045Y-44876173D01*
X101469826Y-45438954D01*
X101485867Y-45462961D01*
X101491500Y-45491280D01*
X101491500Y-48687374D01*
X101489809Y-48703103D01*
X101488705Y-48708174D01*
X101488704Y-48708182D01*
X101487580Y-48713351D01*
X101487958Y-48718630D01*
X101491311Y-48765519D01*
X101491500Y-48770798D01*
X101491500Y-48786368D01*
X101491873Y-48788967D01*
X101491874Y-48788972D01*
X101493715Y-48801778D01*
X101494278Y-48807023D01*
X101497633Y-48853922D01*
X101498011Y-48859201D01*
X101499859Y-48864158D01*
X101499860Y-48864159D01*
X101501678Y-48869035D01*
X101505588Y-48884353D01*
X101507081Y-48894734D01*
X101509277Y-48899544D01*
X101509278Y-48899545D01*
X101528807Y-48942309D01*
X101530825Y-48947182D01*
X101549111Y-48996204D01*
X101555397Y-49004602D01*
X101563465Y-49018199D01*
X101565624Y-49022927D01*
X101565625Y-49022930D01*
X101567824Y-49027743D01*
X101602083Y-49067280D01*
X101605388Y-49071382D01*
X101614720Y-49083848D01*
X101616590Y-49085718D01*
X101625733Y-49094861D01*
X101629332Y-49098727D01*
X101660109Y-49134246D01*
X101660111Y-49134247D01*
X101663579Y-49138250D01*
X101672398Y-49143917D01*
X101684715Y-49153843D01*
X108279882Y-55749010D01*
X108301016Y-55792416D01*
X108316327Y-55918510D01*
X108317913Y-55922692D01*
X108317914Y-55922696D01*
X108340073Y-55981124D01*
X108376520Y-56077227D01*
X108472948Y-56216927D01*
X108600006Y-56329491D01*
X108750311Y-56408377D01*
X108915126Y-56449000D01*
X109080395Y-56449000D01*
X109084874Y-56449000D01*
X109249689Y-56408377D01*
X109399994Y-56329491D01*
X109527052Y-56216927D01*
X109623480Y-56077227D01*
X109683673Y-55918510D01*
X109704134Y-55750000D01*
X109683673Y-55581490D01*
X109623480Y-55422773D01*
X109527052Y-55283073D01*
X109522497Y-55279038D01*
X109403342Y-55173475D01*
X109403341Y-55173474D01*
X109399994Y-55170509D01*
X109396035Y-55168431D01*
X109396032Y-55168429D01*
X109253651Y-55093702D01*
X109253648Y-55093700D01*
X109249689Y-55091623D01*
X109245344Y-55090552D01*
X109089222Y-55052071D01*
X109089216Y-55052070D01*
X109084874Y-55051000D01*
X109080395Y-55051000D01*
X109050780Y-55051000D01*
X109022461Y-55045367D01*
X108998454Y-55029326D01*
X108156209Y-54187081D01*
X116549500Y-54187081D01*
X116549715Y-54189065D01*
X116549716Y-54189069D01*
X116584089Y-54505128D01*
X116589954Y-54559049D01*
X116590385Y-54561010D01*
X116590386Y-54561012D01*
X116619498Y-54693272D01*
X116670387Y-54924462D01*
X116671023Y-54926351D01*
X116671026Y-54926360D01*
X116789217Y-55277137D01*
X116789858Y-55279038D01*
X116790694Y-55280845D01*
X116790696Y-55280850D01*
X116846178Y-55400772D01*
X116946964Y-55618617D01*
X116947992Y-55620326D01*
X116947996Y-55620333D01*
X117051535Y-55792416D01*
X117139864Y-55939220D01*
X117141077Y-55940816D01*
X117141080Y-55940820D01*
X117218736Y-56042974D01*
X117366297Y-56237087D01*
X117367675Y-56238542D01*
X117367677Y-56238544D01*
X117619895Y-56504808D01*
X117623608Y-56508727D01*
X117908779Y-56750954D01*
X117910439Y-56752079D01*
X117910441Y-56752081D01*
X117919295Y-56758084D01*
X118218469Y-56960928D01*
X118448070Y-57082655D01*
X118533755Y-57128083D01*
X118549045Y-57136189D01*
X118641138Y-57172882D01*
X118893080Y-57273265D01*
X118896632Y-57274680D01*
X119257155Y-57374779D01*
X119626387Y-57435311D01*
X119906528Y-57450500D01*
X120092451Y-57450500D01*
X120093472Y-57450500D01*
X120373613Y-57435311D01*
X120742845Y-57374779D01*
X121103368Y-57274680D01*
X121450955Y-57136189D01*
X121781531Y-56960928D01*
X122091221Y-56750954D01*
X122376392Y-56508727D01*
X122633703Y-56237087D01*
X122860136Y-55939220D01*
X123053036Y-55618617D01*
X123210142Y-55279038D01*
X123329613Y-54924462D01*
X123410046Y-54559049D01*
X123450500Y-54187081D01*
X123450500Y-53812919D01*
X123410046Y-53440951D01*
X123329613Y-53075538D01*
X123210142Y-52720962D01*
X123053036Y-52381383D01*
X122860136Y-52060780D01*
X122633703Y-51762913D01*
X122376392Y-51491273D01*
X122091221Y-51249046D01*
X122089563Y-51247922D01*
X122089558Y-51247918D01*
X121946852Y-51151162D01*
X121781531Y-51039072D01*
X121779760Y-51038133D01*
X121452729Y-50864751D01*
X121452721Y-50864747D01*
X121450955Y-50863811D01*
X121449091Y-50863068D01*
X121449086Y-50863066D01*
X121105237Y-50726064D01*
X121105226Y-50726060D01*
X121103368Y-50725320D01*
X121101434Y-50724783D01*
X120744777Y-50625757D01*
X120744769Y-50625755D01*
X120742845Y-50625221D01*
X120740878Y-50624898D01*
X120740862Y-50624895D01*
X120375604Y-50565015D01*
X120375596Y-50565014D01*
X120373613Y-50564689D01*
X120371603Y-50564580D01*
X120371594Y-50564579D01*
X120094500Y-50549555D01*
X120094473Y-50549554D01*
X120093472Y-50549500D01*
X119906528Y-50549500D01*
X119905527Y-50549554D01*
X119905499Y-50549555D01*
X119628405Y-50564579D01*
X119628394Y-50564580D01*
X119626387Y-50564689D01*
X119624405Y-50565013D01*
X119624395Y-50565015D01*
X119259137Y-50624895D01*
X119259117Y-50624899D01*
X119257155Y-50625221D01*
X119255234Y-50625754D01*
X119255222Y-50625757D01*
X118898565Y-50724783D01*
X118898559Y-50724784D01*
X118896632Y-50725320D01*
X118894779Y-50726058D01*
X118894762Y-50726064D01*
X118550913Y-50863066D01*
X118550901Y-50863071D01*
X118549045Y-50863811D01*
X118547285Y-50864743D01*
X118547270Y-50864751D01*
X118220239Y-51038133D01*
X118220230Y-51038138D01*
X118218469Y-51039072D01*
X118216812Y-51040194D01*
X118216811Y-51040196D01*
X117910441Y-51247918D01*
X117910427Y-51247928D01*
X117908779Y-51249046D01*
X117907255Y-51250339D01*
X117907249Y-51250345D01*
X117625127Y-51489982D01*
X117625119Y-51489989D01*
X117623608Y-51491273D01*
X117622249Y-51492707D01*
X117622237Y-51492719D01*
X117367677Y-51761455D01*
X117367667Y-51761466D01*
X117366297Y-51762913D01*
X117365086Y-51764505D01*
X117365080Y-51764513D01*
X117141080Y-52059179D01*
X117141071Y-52059191D01*
X117139864Y-52060780D01*
X117138829Y-52062499D01*
X117138825Y-52062506D01*
X116947996Y-52379666D01*
X116947987Y-52379681D01*
X116946964Y-52381383D01*
X116946130Y-52383184D01*
X116946126Y-52383193D01*
X116790696Y-52719149D01*
X116790691Y-52719161D01*
X116789858Y-52720962D01*
X116789222Y-52722848D01*
X116789217Y-52722862D01*
X116671026Y-53073639D01*
X116671022Y-53073653D01*
X116670387Y-53075538D01*
X116669959Y-53077479D01*
X116669957Y-53077489D01*
X116603859Y-53377779D01*
X116589954Y-53440951D01*
X116589737Y-53442945D01*
X116589736Y-53442952D01*
X116551856Y-53791256D01*
X116549500Y-53812919D01*
X116549500Y-54187081D01*
X108156209Y-54187081D01*
X102530174Y-48561046D01*
X102514133Y-48537039D01*
X102508500Y-48508720D01*
X102508500Y-45312626D01*
X102510191Y-45296897D01*
X102511294Y-45291825D01*
X102511293Y-45291825D01*
X102512420Y-45286649D01*
X102508688Y-45234480D01*
X102508500Y-45229202D01*
X102508500Y-45216279D01*
X102508500Y-45213632D01*
X102506283Y-45198220D01*
X102505722Y-45193007D01*
X102501989Y-45140799D01*
X102498321Y-45130966D01*
X102494411Y-45115644D01*
X102492919Y-45105266D01*
X102471183Y-45057671D01*
X102469168Y-45052804D01*
X102452738Y-45008753D01*
X102452737Y-45008752D01*
X102450889Y-45003796D01*
X102444602Y-44995398D01*
X102436528Y-44981788D01*
X102435347Y-44979202D01*
X102432176Y-44972257D01*
X102397921Y-44932725D01*
X102394615Y-44928623D01*
X102385280Y-44916152D01*
X102374265Y-44905137D01*
X102370681Y-44901288D01*
X102336421Y-44861750D01*
X102331969Y-44858889D01*
X102331967Y-44858887D01*
X102327600Y-44856080D01*
X102315282Y-44846154D01*
X101726173Y-44257045D01*
X101710132Y-44233038D01*
X101704499Y-44204719D01*
X101704499Y-43603730D01*
X101704499Y-43603729D01*
X101704499Y-43601746D01*
X101698040Y-43541658D01*
X101647342Y-43405733D01*
X101560404Y-43289596D01*
X101444267Y-43202658D01*
X101439309Y-43200808D01*
X101439304Y-43200806D01*
X101312683Y-43153579D01*
X101312682Y-43153578D01*
X101308342Y-43151960D01*
X101303740Y-43151465D01*
X101303735Y-43151464D01*
X101250227Y-43145712D01*
X101250226Y-43145711D01*
X101248255Y-43145500D01*
X101246271Y-43145500D01*
X100253729Y-43145500D01*
X100253710Y-43145500D01*
X100251746Y-43145501D01*
X100249775Y-43145712D01*
X100249772Y-43145713D01*
X100196263Y-43151464D01*
X100196255Y-43151465D01*
X100191658Y-43151960D01*
X100187323Y-43153576D01*
X100187318Y-43153578D01*
X100060695Y-43200806D01*
X100060687Y-43200809D01*
X100055733Y-43202658D01*
X100051493Y-43205831D01*
X100051491Y-43205833D01*
X99943835Y-43286422D01*
X99943831Y-43286425D01*
X99939596Y-43289596D01*
X99936425Y-43293831D01*
X99936422Y-43293835D01*
X99855833Y-43401491D01*
X99852658Y-43405733D01*
X99850809Y-43410687D01*
X99850806Y-43410695D01*
X99838623Y-43443361D01*
X99811493Y-43478285D01*
X99769289Y-43491500D01*
X99230711Y-43491500D01*
X99188507Y-43478285D01*
X99161377Y-43443361D01*
X99149193Y-43410695D01*
X99149192Y-43410693D01*
X99147342Y-43405733D01*
X99060404Y-43289596D01*
X98944267Y-43202658D01*
X98939309Y-43200808D01*
X98939304Y-43200806D01*
X98812683Y-43153579D01*
X98812682Y-43153578D01*
X98808342Y-43151960D01*
X98803740Y-43151465D01*
X98803735Y-43151464D01*
X98750227Y-43145712D01*
X98750226Y-43145711D01*
X98748255Y-43145500D01*
X98746271Y-43145500D01*
X97753729Y-43145500D01*
X97753710Y-43145500D01*
X97751746Y-43145501D01*
X97749775Y-43145712D01*
X97749772Y-43145713D01*
X97696263Y-43151464D01*
X97696255Y-43151465D01*
X97691658Y-43151960D01*
X97687323Y-43153576D01*
X97687318Y-43153578D01*
X97560695Y-43200806D01*
X97560687Y-43200809D01*
X97555733Y-43202658D01*
X97551493Y-43205831D01*
X97551491Y-43205833D01*
X97443835Y-43286422D01*
X97443831Y-43286425D01*
X97439596Y-43289596D01*
X97436425Y-43293831D01*
X97436422Y-43293835D01*
X97355833Y-43401491D01*
X97352658Y-43405733D01*
X97350809Y-43410687D01*
X97350806Y-43410695D01*
X97338623Y-43443361D01*
X97311493Y-43478285D01*
X97269289Y-43491500D01*
X96630711Y-43491500D01*
X96588507Y-43478285D01*
X96561377Y-43443361D01*
X96549193Y-43410695D01*
X96549192Y-43410693D01*
X96547342Y-43405733D01*
X96460404Y-43289596D01*
X96344267Y-43202658D01*
X96339309Y-43200808D01*
X96339304Y-43200806D01*
X96212683Y-43153579D01*
X96212682Y-43153578D01*
X96208342Y-43151960D01*
X96203740Y-43151465D01*
X96203735Y-43151464D01*
X96150227Y-43145712D01*
X96150226Y-43145711D01*
X96148255Y-43145500D01*
X96146271Y-43145500D01*
X95153729Y-43145500D01*
X95153710Y-43145500D01*
X95151746Y-43145501D01*
X95149775Y-43145712D01*
X95149772Y-43145713D01*
X95096263Y-43151464D01*
X95096255Y-43151465D01*
X95091658Y-43151960D01*
X95087323Y-43153576D01*
X95087318Y-43153578D01*
X94960695Y-43200806D01*
X94960687Y-43200809D01*
X94955733Y-43202658D01*
X94951493Y-43205831D01*
X94951491Y-43205833D01*
X94843835Y-43286422D01*
X94843831Y-43286425D01*
X94839596Y-43289596D01*
X94836425Y-43293831D01*
X94836422Y-43293835D01*
X94755833Y-43401491D01*
X94752658Y-43405733D01*
X94750809Y-43410687D01*
X94750806Y-43410695D01*
X94738623Y-43443361D01*
X94711493Y-43478285D01*
X94669289Y-43491500D01*
X94130711Y-43491500D01*
X94088507Y-43478285D01*
X94061377Y-43443361D01*
X94049193Y-43410695D01*
X94049192Y-43410693D01*
X94047342Y-43405733D01*
X93960404Y-43289596D01*
X93844267Y-43202658D01*
X93839309Y-43200808D01*
X93839304Y-43200806D01*
X93712683Y-43153579D01*
X93712682Y-43153578D01*
X93708342Y-43151960D01*
X93703740Y-43151465D01*
X93703735Y-43151464D01*
X93650227Y-43145712D01*
X93650226Y-43145711D01*
X93648255Y-43145500D01*
X93646271Y-43145500D01*
X92653729Y-43145500D01*
X92653710Y-43145500D01*
X92651746Y-43145501D01*
X92649775Y-43145712D01*
X92649772Y-43145713D01*
X92596263Y-43151464D01*
X92596255Y-43151465D01*
X92591658Y-43151960D01*
X92587323Y-43153576D01*
X92587318Y-43153578D01*
X92460695Y-43200806D01*
X92460687Y-43200809D01*
X92455733Y-43202658D01*
X92451493Y-43205831D01*
X92451491Y-43205833D01*
X92343835Y-43286422D01*
X92343831Y-43286425D01*
X92339596Y-43289596D01*
X92336425Y-43293831D01*
X92336422Y-43293835D01*
X92255833Y-43401491D01*
X92252658Y-43405733D01*
X92250809Y-43410687D01*
X92250806Y-43410695D01*
X92203579Y-43537316D01*
X92203579Y-43537318D01*
X92201960Y-43541658D01*
X92201465Y-43546257D01*
X92201464Y-43546264D01*
X92195712Y-43599772D01*
X92195500Y-43601745D01*
X92195500Y-43603729D01*
X92195500Y-43804720D01*
X92189867Y-43833039D01*
X92173826Y-43857046D01*
X91434714Y-44596156D01*
X91422402Y-44606078D01*
X91418033Y-44608886D01*
X91418027Y-44608890D01*
X91413579Y-44611750D01*
X91410116Y-44615746D01*
X91410113Y-44615749D01*
X91379330Y-44651273D01*
X91375737Y-44655133D01*
X91366587Y-44664284D01*
X91366581Y-44664290D01*
X91364720Y-44666152D01*
X91363142Y-44668258D01*
X91363140Y-44668262D01*
X91355386Y-44678620D01*
X91352074Y-44682729D01*
X91321290Y-44718256D01*
X91321287Y-44718259D01*
X91317824Y-44722257D01*
X91315628Y-44727064D01*
X91315621Y-44727076D01*
X91313463Y-44731802D01*
X91305400Y-44745393D01*
X91302282Y-44749558D01*
X91302278Y-44749564D01*
X91299111Y-44753796D01*
X91297263Y-44758749D01*
X91297262Y-44758752D01*
X91280824Y-44802821D01*
X91278808Y-44807686D01*
X91257081Y-44855266D01*
X91256327Y-44860502D01*
X91256326Y-44860509D01*
X91255586Y-44865653D01*
X91251679Y-44880960D01*
X91249861Y-44885834D01*
X91249858Y-44885844D01*
X91248011Y-44890799D01*
X91247633Y-44896076D01*
X91247633Y-44896079D01*
X91244278Y-44942977D01*
X91243715Y-44948221D01*
X91241874Y-44961026D01*
X91241873Y-44961033D01*
X91241500Y-44963632D01*
X91241500Y-44966269D01*
X91241500Y-44979202D01*
X91241311Y-44984481D01*
X91237957Y-45031364D01*
X91237957Y-45031370D01*
X91237580Y-45036649D01*
X91238704Y-45041818D01*
X91238705Y-45041825D01*
X91239809Y-45046897D01*
X91241500Y-45062626D01*
X91241500Y-46008720D01*
X91235867Y-46037039D01*
X91219826Y-46061046D01*
X76034715Y-61246155D01*
X76022403Y-61256077D01*
X76018034Y-61258885D01*
X76018026Y-61258891D01*
X76013579Y-61261750D01*
X76010116Y-61265746D01*
X76010113Y-61265749D01*
X75979330Y-61301273D01*
X75975737Y-61305133D01*
X75966587Y-61314284D01*
X75966581Y-61314290D01*
X75964720Y-61316152D01*
X75963142Y-61318258D01*
X75963140Y-61318262D01*
X75955386Y-61328620D01*
X75952074Y-61332729D01*
X75921290Y-61368256D01*
X75921287Y-61368259D01*
X75917824Y-61372257D01*
X75915628Y-61377064D01*
X75915621Y-61377076D01*
X75913463Y-61381802D01*
X75905400Y-61395393D01*
X75902282Y-61399558D01*
X75902278Y-61399564D01*
X75899111Y-61403796D01*
X75897263Y-61408749D01*
X75897262Y-61408752D01*
X75880824Y-61452821D01*
X75878808Y-61457686D01*
X75857081Y-61505266D01*
X75856327Y-61510502D01*
X75856326Y-61510509D01*
X75855586Y-61515653D01*
X75851679Y-61530960D01*
X75849861Y-61535834D01*
X75849858Y-61535844D01*
X75848011Y-61540799D01*
X75847633Y-61546076D01*
X75847633Y-61546079D01*
X75844278Y-61592977D01*
X75843715Y-61598221D01*
X75841874Y-61611026D01*
X75841873Y-61611033D01*
X75841500Y-61613632D01*
X75841500Y-61616269D01*
X75841500Y-61629202D01*
X75841311Y-61634481D01*
X75837957Y-61681364D01*
X75837957Y-61681370D01*
X75837580Y-61686649D01*
X75838704Y-61691818D01*
X75838705Y-61691825D01*
X75839809Y-61696897D01*
X75841500Y-61712626D01*
X75841500Y-61844843D01*
X75833434Y-61878439D01*
X75813146Y-61918254D01*
X75813144Y-61918259D01*
X75810502Y-61923445D01*
X75809591Y-61929191D01*
X75809590Y-61929197D01*
X75795954Y-62015293D01*
X75795952Y-62015305D01*
X75795500Y-62018166D01*
X75795500Y-63106834D01*
X75795953Y-63109695D01*
X75795954Y-63109706D01*
X75806221Y-63174524D01*
X75800734Y-63216199D01*
X75773435Y-63248162D01*
X75733132Y-63260100D01*
X75094273Y-63260100D01*
X75084616Y-63259467D01*
X75069818Y-63257519D01*
X75057766Y-63255932D01*
X75021867Y-63240877D01*
X74998576Y-63209685D01*
X74994338Y-63170992D01*
X75004500Y-63106834D01*
X75004500Y-62018166D01*
X74989498Y-61923445D01*
X74949042Y-61844047D01*
X74933969Y-61814464D01*
X74933968Y-61814463D01*
X74931326Y-61809277D01*
X74840723Y-61718674D01*
X74835537Y-61716031D01*
X74835535Y-61716030D01*
X74731745Y-61663146D01*
X74731742Y-61663145D01*
X74726555Y-61660502D01*
X74720807Y-61659591D01*
X74720802Y-61659590D01*
X74634706Y-61645954D01*
X74634695Y-61645953D01*
X74631834Y-61645500D01*
X74268166Y-61645500D01*
X74265305Y-61645952D01*
X74265293Y-61645954D01*
X74179197Y-61659590D01*
X74179191Y-61659591D01*
X74173445Y-61660502D01*
X74168259Y-61663144D01*
X74168254Y-61663146D01*
X74064464Y-61716030D01*
X74064459Y-61716033D01*
X74059277Y-61718674D01*
X74055163Y-61722787D01*
X74055160Y-61722790D01*
X73972790Y-61805160D01*
X73972787Y-61805163D01*
X73968674Y-61809277D01*
X73966033Y-61814459D01*
X73966030Y-61814464D01*
X73913146Y-61918254D01*
X73913144Y-61918259D01*
X73910502Y-61923445D01*
X73909591Y-61929191D01*
X73909590Y-61929197D01*
X73895954Y-62015293D01*
X73895952Y-62015305D01*
X73895500Y-62018166D01*
X73895500Y-63106834D01*
X73895953Y-63109695D01*
X73895954Y-63109706D01*
X73909590Y-63195802D01*
X73909591Y-63195807D01*
X73910502Y-63201555D01*
X73913145Y-63206742D01*
X73913146Y-63206745D01*
X73966030Y-63310535D01*
X73966031Y-63310537D01*
X73968674Y-63315723D01*
X74059277Y-63406326D01*
X74064463Y-63408968D01*
X74064464Y-63408969D01*
X74094038Y-63424038D01*
X74173445Y-63464498D01*
X74268166Y-63479500D01*
X74410852Y-63479500D01*
X74451964Y-63491971D01*
X74479219Y-63525181D01*
X74483430Y-63567937D01*
X74463178Y-63605826D01*
X74424178Y-63644826D01*
X74400171Y-63660867D01*
X74371852Y-63666500D01*
X74233498Y-63666500D01*
X74232073Y-63666612D01*
X74232051Y-63666613D01*
X74199938Y-63669141D01*
X74199934Y-63669141D01*
X74196169Y-63669438D01*
X74192546Y-63670490D01*
X74192538Y-63670492D01*
X74040870Y-63714555D01*
X74040862Y-63714558D01*
X74036399Y-63715855D01*
X74032393Y-63718224D01*
X74032391Y-63718225D01*
X73897202Y-63798175D01*
X73897196Y-63798179D01*
X73893193Y-63800547D01*
X73889903Y-63803836D01*
X73889899Y-63803840D01*
X73778840Y-63914899D01*
X73778836Y-63914903D01*
X73775547Y-63918193D01*
X73773179Y-63922196D01*
X73773175Y-63922202D01*
X73693225Y-64057391D01*
X73690855Y-64061399D01*
X73689558Y-64065862D01*
X73689555Y-64065870D01*
X73645492Y-64217538D01*
X73645490Y-64217546D01*
X73644438Y-64221169D01*
X73644141Y-64224934D01*
X73644141Y-64224938D01*
X73641613Y-64257051D01*
X73641612Y-64257073D01*
X73641500Y-64258498D01*
X73641500Y-65416502D01*
X73641612Y-65417927D01*
X73641613Y-65417948D01*
X73644141Y-65450061D01*
X73644438Y-65453831D01*
X73645490Y-65457455D01*
X73645492Y-65457461D01*
X73689555Y-65609129D01*
X73689557Y-65609134D01*
X73690855Y-65613601D01*
X73711163Y-65647940D01*
X73772525Y-65751698D01*
X73775547Y-65756807D01*
X73893193Y-65874453D01*
X74036399Y-65959145D01*
X74196169Y-66005562D01*
X74233498Y-66008500D01*
X74665050Y-66008500D01*
X74666502Y-66008500D01*
X74703831Y-66005562D01*
X74863601Y-65959145D01*
X75006807Y-65874453D01*
X75124453Y-65756807D01*
X75166133Y-65686329D01*
X75193163Y-65659721D01*
X75229827Y-65650000D01*
X75315257Y-65650000D01*
X75322940Y-65647940D01*
X75325000Y-65640257D01*
X75325000Y-64836500D01*
X75334914Y-64799500D01*
X75362000Y-64772414D01*
X75399000Y-64762500D01*
X75401000Y-64762500D01*
X75438000Y-64772414D01*
X75465086Y-64799500D01*
X75475000Y-64836500D01*
X75475000Y-65640256D01*
X75477059Y-65647939D01*
X75484743Y-65649999D01*
X75513500Y-65649999D01*
X75550500Y-65659913D01*
X75577586Y-65686999D01*
X75587500Y-65723999D01*
X75587500Y-67703510D01*
X75581867Y-67731829D01*
X75565826Y-67755836D01*
X74883920Y-68437740D01*
X74875787Y-68444769D01*
X74856630Y-68459031D01*
X74856625Y-68459035D01*
X74853178Y-68461602D01*
X74850412Y-68464897D01*
X74850409Y-68464901D01*
X74819362Y-68501900D01*
X74815011Y-68506649D01*
X74810942Y-68510719D01*
X74810935Y-68510726D01*
X74809427Y-68512235D01*
X74808109Y-68513901D01*
X74808099Y-68513913D01*
X74789419Y-68537537D01*
X74788062Y-68539202D01*
X74741375Y-68594842D01*
X74741367Y-68594853D01*
X74738604Y-68598147D01*
X74736671Y-68601994D01*
X74734303Y-68605596D01*
X74734301Y-68605595D01*
X74731538Y-68609931D01*
X74731539Y-68609932D01*
X74729272Y-68613605D01*
X74726605Y-68616980D01*
X74724789Y-68620873D01*
X74724783Y-68620884D01*
X74694075Y-68686736D01*
X74693138Y-68688671D01*
X74660541Y-68753579D01*
X74660538Y-68753586D01*
X74658606Y-68757434D01*
X74657612Y-68761625D01*
X74656138Y-68765677D01*
X74656136Y-68765676D01*
X74654450Y-68770527D01*
X74654452Y-68770528D01*
X74653094Y-68774625D01*
X74651275Y-68778527D01*
X74650404Y-68782741D01*
X74650403Y-68782747D01*
X74635714Y-68853887D01*
X74635260Y-68855937D01*
X74617500Y-68930877D01*
X74617500Y-68935182D01*
X74616999Y-68939470D01*
X74616996Y-68939469D01*
X74616474Y-68944578D01*
X74616478Y-68944579D01*
X74616102Y-68948871D01*
X74615231Y-68953091D01*
X74615356Y-68957393D01*
X74615356Y-68957395D01*
X74617469Y-69030011D01*
X74617500Y-69032163D01*
X74617500Y-70035518D01*
X74606595Y-70074183D01*
X74577095Y-70101452D01*
X74524622Y-70128188D01*
X74524610Y-70128195D01*
X74521161Y-70129953D01*
X74518153Y-70132388D01*
X74518148Y-70132392D01*
X74379842Y-70244390D01*
X74379837Y-70244394D01*
X74376830Y-70246830D01*
X74374394Y-70249837D01*
X74374390Y-70249842D01*
X74262394Y-70388146D01*
X74262391Y-70388149D01*
X74259953Y-70391161D01*
X74258193Y-70394613D01*
X74258189Y-70394621D01*
X74177402Y-70553175D01*
X74175638Y-70556638D01*
X74174634Y-70560384D01*
X74174632Y-70560390D01*
X74128450Y-70732744D01*
X74127570Y-70736029D01*
X74127303Y-70739409D01*
X74127303Y-70739415D01*
X74121613Y-70811710D01*
X74121612Y-70811732D01*
X74121500Y-70813157D01*
X74121500Y-70814609D01*
X74121500Y-70814610D01*
X74121500Y-70926000D01*
X74111586Y-70963000D01*
X74084500Y-70990086D01*
X74047500Y-71000000D01*
X73074500Y-71000000D01*
X73037500Y-70990086D01*
X73010414Y-70963000D01*
X73000500Y-70926000D01*
X73000500Y-70757095D01*
X73000500Y-70750099D01*
X73000541Y-70750000D01*
X73000383Y-70749617D01*
X73000099Y-70749500D01*
X73000000Y-70749459D01*
X72999901Y-70749500D01*
X69574500Y-70749500D01*
X69537500Y-70739586D01*
X69510414Y-70712500D01*
X69500500Y-70675500D01*
X69500500Y-54187081D01*
X70549500Y-54187081D01*
X70549715Y-54189065D01*
X70549716Y-54189069D01*
X70584089Y-54505128D01*
X70589954Y-54559049D01*
X70590385Y-54561010D01*
X70590386Y-54561012D01*
X70619498Y-54693272D01*
X70670387Y-54924462D01*
X70671023Y-54926351D01*
X70671026Y-54926360D01*
X70789217Y-55277137D01*
X70789858Y-55279038D01*
X70790694Y-55280845D01*
X70790696Y-55280850D01*
X70846178Y-55400772D01*
X70946964Y-55618617D01*
X70947992Y-55620326D01*
X70947996Y-55620333D01*
X71051535Y-55792416D01*
X71139864Y-55939220D01*
X71141077Y-55940816D01*
X71141080Y-55940820D01*
X71218736Y-56042974D01*
X71366297Y-56237087D01*
X71367675Y-56238542D01*
X71367677Y-56238544D01*
X71619895Y-56504808D01*
X71623608Y-56508727D01*
X71908779Y-56750954D01*
X71910439Y-56752079D01*
X71910441Y-56752081D01*
X71919295Y-56758084D01*
X72218469Y-56960928D01*
X72448070Y-57082655D01*
X72533755Y-57128083D01*
X72549045Y-57136189D01*
X72641138Y-57172882D01*
X72893080Y-57273265D01*
X72896632Y-57274680D01*
X73257155Y-57374779D01*
X73626387Y-57435311D01*
X73906528Y-57450500D01*
X74092451Y-57450500D01*
X74093472Y-57450500D01*
X74373613Y-57435311D01*
X74742845Y-57374779D01*
X75103368Y-57274680D01*
X75450955Y-57136189D01*
X75781531Y-56960928D01*
X76091221Y-56750954D01*
X76376392Y-56508727D01*
X76633703Y-56237087D01*
X76860136Y-55939220D01*
X77053036Y-55618617D01*
X77210142Y-55279038D01*
X77329613Y-54924462D01*
X77410046Y-54559049D01*
X77450500Y-54187081D01*
X77450500Y-53812919D01*
X77410046Y-53440951D01*
X77329613Y-53075538D01*
X77210142Y-52720962D01*
X77053036Y-52381383D01*
X76860136Y-52060780D01*
X76633703Y-51762913D01*
X76376392Y-51491273D01*
X76091221Y-51249046D01*
X76089563Y-51247922D01*
X76089558Y-51247918D01*
X75946852Y-51151162D01*
X75781531Y-51039072D01*
X75779760Y-51038133D01*
X75452729Y-50864751D01*
X75452721Y-50864747D01*
X75450955Y-50863811D01*
X75449091Y-50863068D01*
X75449086Y-50863066D01*
X75105237Y-50726064D01*
X75105226Y-50726060D01*
X75103368Y-50725320D01*
X75101434Y-50724783D01*
X74744777Y-50625757D01*
X74744769Y-50625755D01*
X74742845Y-50625221D01*
X74740878Y-50624898D01*
X74740862Y-50624895D01*
X74375604Y-50565015D01*
X74375596Y-50565014D01*
X74373613Y-50564689D01*
X74371603Y-50564580D01*
X74371594Y-50564579D01*
X74094500Y-50549555D01*
X74094473Y-50549554D01*
X74093472Y-50549500D01*
X73906528Y-50549500D01*
X73905527Y-50549554D01*
X73905499Y-50549555D01*
X73628405Y-50564579D01*
X73628394Y-50564580D01*
X73626387Y-50564689D01*
X73624405Y-50565013D01*
X73624395Y-50565015D01*
X73259137Y-50624895D01*
X73259117Y-50624899D01*
X73257155Y-50625221D01*
X73255234Y-50625754D01*
X73255222Y-50625757D01*
X72898565Y-50724783D01*
X72898559Y-50724784D01*
X72896632Y-50725320D01*
X72894779Y-50726058D01*
X72894762Y-50726064D01*
X72550913Y-50863066D01*
X72550901Y-50863071D01*
X72549045Y-50863811D01*
X72547285Y-50864743D01*
X72547270Y-50864751D01*
X72220239Y-51038133D01*
X72220230Y-51038138D01*
X72218469Y-51039072D01*
X72216812Y-51040194D01*
X72216811Y-51040196D01*
X71910441Y-51247918D01*
X71910427Y-51247928D01*
X71908779Y-51249046D01*
X71907255Y-51250339D01*
X71907249Y-51250345D01*
X71625127Y-51489982D01*
X71625119Y-51489989D01*
X71623608Y-51491273D01*
X71622249Y-51492707D01*
X71622237Y-51492719D01*
X71367677Y-51761455D01*
X71367667Y-51761466D01*
X71366297Y-51762913D01*
X71365086Y-51764505D01*
X71365080Y-51764513D01*
X71141080Y-52059179D01*
X71141071Y-52059191D01*
X71139864Y-52060780D01*
X71138829Y-52062499D01*
X71138825Y-52062506D01*
X70947996Y-52379666D01*
X70947987Y-52379681D01*
X70946964Y-52381383D01*
X70946130Y-52383184D01*
X70946126Y-52383193D01*
X70790696Y-52719149D01*
X70790691Y-52719161D01*
X70789858Y-52720962D01*
X70789222Y-52722848D01*
X70789217Y-52722862D01*
X70671026Y-53073639D01*
X70671022Y-53073653D01*
X70670387Y-53075538D01*
X70669959Y-53077479D01*
X70669957Y-53077489D01*
X70603859Y-53377779D01*
X70589954Y-53440951D01*
X70589737Y-53442945D01*
X70589736Y-53442952D01*
X70551856Y-53791256D01*
X70549500Y-53812919D01*
X70549500Y-54187081D01*
X69500500Y-54187081D01*
X69500500Y-47074500D01*
X69510414Y-47037500D01*
X69537500Y-47010414D01*
X69574500Y-47000500D01*
X85399010Y-47000500D01*
X85401252Y-47000500D01*
X85701551Y-46964037D01*
X85995266Y-46891643D01*
X86278113Y-46784373D01*
X86545967Y-46643792D01*
X86794924Y-46471950D01*
X87021352Y-46271352D01*
X87221950Y-46044924D01*
X87393792Y-45795967D01*
X87534373Y-45528113D01*
X87641643Y-45245266D01*
X87714037Y-44951551D01*
X87750500Y-44651252D01*
X87750500Y-44500000D01*
X87750500Y-44499500D01*
X87750500Y-36070000D01*
X92120398Y-36070000D01*
X92140758Y-36276718D01*
X92141810Y-36280186D01*
X92141811Y-36280191D01*
X92199999Y-36472012D01*
X92201055Y-36475492D01*
X92202767Y-36478695D01*
X92202770Y-36478702D01*
X92279381Y-36622030D01*
X92298973Y-36658683D01*
X92430748Y-36819252D01*
X92591317Y-36951027D01*
X92759384Y-37040861D01*
X92787972Y-37068078D01*
X92798500Y-37106122D01*
X92798500Y-41071501D01*
X92788586Y-41108501D01*
X92761500Y-41135587D01*
X92724500Y-41145501D01*
X92651746Y-41145501D01*
X92649775Y-41145712D01*
X92649772Y-41145713D01*
X92596263Y-41151464D01*
X92596255Y-41151465D01*
X92591658Y-41151960D01*
X92587323Y-41153576D01*
X92587318Y-41153578D01*
X92460695Y-41200806D01*
X92460687Y-41200809D01*
X92455733Y-41202658D01*
X92451493Y-41205831D01*
X92451491Y-41205833D01*
X92343835Y-41286422D01*
X92343831Y-41286425D01*
X92339596Y-41289596D01*
X92336425Y-41293831D01*
X92336422Y-41293835D01*
X92255833Y-41401491D01*
X92252658Y-41405733D01*
X92250809Y-41410687D01*
X92250806Y-41410695D01*
X92203579Y-41537316D01*
X92203579Y-41537318D01*
X92201960Y-41541658D01*
X92201465Y-41546257D01*
X92201464Y-41546264D01*
X92195712Y-41599772D01*
X92195500Y-41601745D01*
X92195500Y-41603727D01*
X92195500Y-41603728D01*
X92195500Y-42396270D01*
X92195500Y-42396288D01*
X92195501Y-42398254D01*
X92195712Y-42400225D01*
X92195713Y-42400227D01*
X92201464Y-42453736D01*
X92201465Y-42453742D01*
X92201960Y-42458342D01*
X92203577Y-42462678D01*
X92203578Y-42462681D01*
X92250806Y-42589304D01*
X92250808Y-42589309D01*
X92252658Y-42594267D01*
X92339596Y-42710404D01*
X92455733Y-42797342D01*
X92460693Y-42799192D01*
X92460695Y-42799193D01*
X92502741Y-42814875D01*
X92591658Y-42848040D01*
X92651745Y-42854500D01*
X93648254Y-42854499D01*
X93708342Y-42848040D01*
X93844267Y-42797342D01*
X93960404Y-42710404D01*
X94047342Y-42594267D01*
X94098040Y-42458342D01*
X94104500Y-42398255D01*
X94104499Y-41601746D01*
X94098040Y-41541658D01*
X94047342Y-41405733D01*
X93960404Y-41289596D01*
X93844267Y-41202658D01*
X93839309Y-41200808D01*
X93839304Y-41200806D01*
X93712683Y-41153579D01*
X93712682Y-41153578D01*
X93708342Y-41151960D01*
X93703740Y-41151465D01*
X93703735Y-41151464D01*
X93650227Y-41145712D01*
X93650226Y-41145711D01*
X93648255Y-41145500D01*
X93646272Y-41145500D01*
X93635500Y-41145500D01*
X93598500Y-41135586D01*
X93571414Y-41108500D01*
X93561500Y-41071500D01*
X93561500Y-37106122D01*
X93572028Y-37068078D01*
X93600615Y-37040861D01*
X93768683Y-36951027D01*
X93929252Y-36819252D01*
X94061027Y-36658683D01*
X94158945Y-36475492D01*
X94219242Y-36276718D01*
X94239602Y-36070000D01*
X94660398Y-36070000D01*
X94680758Y-36276718D01*
X94681810Y-36280186D01*
X94681811Y-36280191D01*
X94739999Y-36472012D01*
X94741055Y-36475492D01*
X94742767Y-36478695D01*
X94742770Y-36478702D01*
X94819381Y-36622030D01*
X94838973Y-36658683D01*
X94970748Y-36819252D01*
X95131317Y-36951027D01*
X95299384Y-37040861D01*
X95327972Y-37068078D01*
X95338500Y-37106122D01*
X95338500Y-41071501D01*
X95328586Y-41108501D01*
X95301500Y-41135587D01*
X95264500Y-41145501D01*
X95151746Y-41145501D01*
X95149775Y-41145712D01*
X95149772Y-41145713D01*
X95096263Y-41151464D01*
X95096255Y-41151465D01*
X95091658Y-41151960D01*
X95087323Y-41153576D01*
X95087318Y-41153578D01*
X94960695Y-41200806D01*
X94960687Y-41200809D01*
X94955733Y-41202658D01*
X94951493Y-41205831D01*
X94951491Y-41205833D01*
X94843835Y-41286422D01*
X94843831Y-41286425D01*
X94839596Y-41289596D01*
X94836425Y-41293831D01*
X94836422Y-41293835D01*
X94755833Y-41401491D01*
X94752658Y-41405733D01*
X94750809Y-41410687D01*
X94750806Y-41410695D01*
X94703579Y-41537316D01*
X94703579Y-41537318D01*
X94701960Y-41541658D01*
X94701465Y-41546257D01*
X94701464Y-41546264D01*
X94695712Y-41599772D01*
X94695500Y-41601745D01*
X94695500Y-41603727D01*
X94695500Y-41603728D01*
X94695500Y-42396270D01*
X94695500Y-42396288D01*
X94695501Y-42398254D01*
X94695712Y-42400225D01*
X94695713Y-42400227D01*
X94701464Y-42453736D01*
X94701465Y-42453742D01*
X94701960Y-42458342D01*
X94703577Y-42462678D01*
X94703578Y-42462681D01*
X94750806Y-42589304D01*
X94750808Y-42589309D01*
X94752658Y-42594267D01*
X94839596Y-42710404D01*
X94955733Y-42797342D01*
X94960693Y-42799192D01*
X94960695Y-42799193D01*
X95002741Y-42814875D01*
X95091658Y-42848040D01*
X95151745Y-42854500D01*
X96148254Y-42854499D01*
X96208342Y-42848040D01*
X96344267Y-42797342D01*
X96460404Y-42710404D01*
X96547342Y-42594267D01*
X96598040Y-42458342D01*
X96604500Y-42398255D01*
X96604499Y-41601746D01*
X96598040Y-41541658D01*
X96547342Y-41405733D01*
X96460404Y-41289596D01*
X96344267Y-41202658D01*
X96339309Y-41200808D01*
X96339304Y-41200806D01*
X96212683Y-41153579D01*
X96212682Y-41153578D01*
X96208342Y-41151960D01*
X96203740Y-41151465D01*
X96203735Y-41151464D01*
X96177917Y-41148689D01*
X96167588Y-41147578D01*
X96134023Y-41135286D01*
X96110134Y-41108692D01*
X96101500Y-41074003D01*
X96101500Y-37106122D01*
X96112028Y-37068078D01*
X96140615Y-37040861D01*
X96308683Y-36951027D01*
X96469252Y-36819252D01*
X96601027Y-36658683D01*
X96698945Y-36475492D01*
X96759242Y-36276718D01*
X96779602Y-36070000D01*
X97200398Y-36070000D01*
X97220758Y-36276718D01*
X97221810Y-36280186D01*
X97221811Y-36280191D01*
X97279999Y-36472012D01*
X97281055Y-36475492D01*
X97282767Y-36478695D01*
X97282770Y-36478702D01*
X97359381Y-36622030D01*
X97378973Y-36658683D01*
X97510748Y-36819252D01*
X97671317Y-36951027D01*
X97839384Y-37040861D01*
X97867972Y-37068078D01*
X97878500Y-37106122D01*
X97878500Y-41071501D01*
X97868586Y-41108501D01*
X97841500Y-41135587D01*
X97804500Y-41145501D01*
X97751746Y-41145501D01*
X97749775Y-41145712D01*
X97749772Y-41145713D01*
X97696263Y-41151464D01*
X97696255Y-41151465D01*
X97691658Y-41151960D01*
X97687323Y-41153576D01*
X97687318Y-41153578D01*
X97560695Y-41200806D01*
X97560687Y-41200809D01*
X97555733Y-41202658D01*
X97551493Y-41205831D01*
X97551491Y-41205833D01*
X97443835Y-41286422D01*
X97443831Y-41286425D01*
X97439596Y-41289596D01*
X97436425Y-41293831D01*
X97436422Y-41293835D01*
X97355833Y-41401491D01*
X97352658Y-41405733D01*
X97350809Y-41410687D01*
X97350806Y-41410695D01*
X97303579Y-41537316D01*
X97303579Y-41537318D01*
X97301960Y-41541658D01*
X97301465Y-41546257D01*
X97301464Y-41546264D01*
X97295712Y-41599772D01*
X97295500Y-41601745D01*
X97295500Y-41603727D01*
X97295500Y-41603728D01*
X97295500Y-42396270D01*
X97295500Y-42396288D01*
X97295501Y-42398254D01*
X97295712Y-42400225D01*
X97295713Y-42400227D01*
X97301464Y-42453736D01*
X97301465Y-42453742D01*
X97301960Y-42458342D01*
X97303577Y-42462678D01*
X97303578Y-42462681D01*
X97350806Y-42589304D01*
X97350808Y-42589309D01*
X97352658Y-42594267D01*
X97439596Y-42710404D01*
X97555733Y-42797342D01*
X97560693Y-42799192D01*
X97560695Y-42799193D01*
X97602741Y-42814875D01*
X97691658Y-42848040D01*
X97751745Y-42854500D01*
X98748254Y-42854499D01*
X98808342Y-42848040D01*
X98944267Y-42797342D01*
X99060404Y-42710404D01*
X99147342Y-42594267D01*
X99198040Y-42458342D01*
X99204500Y-42398255D01*
X99204499Y-41601746D01*
X99198040Y-41541658D01*
X99147342Y-41405733D01*
X99060404Y-41289596D01*
X98944267Y-41202658D01*
X98939309Y-41200808D01*
X98939304Y-41200806D01*
X98812683Y-41153579D01*
X98812682Y-41153578D01*
X98808342Y-41151960D01*
X98803740Y-41151465D01*
X98803735Y-41151464D01*
X98750227Y-41145712D01*
X98750226Y-41145711D01*
X98748255Y-41145500D01*
X98746272Y-41145500D01*
X98715500Y-41145500D01*
X98678500Y-41135586D01*
X98651414Y-41108500D01*
X98641500Y-41071500D01*
X98641500Y-37106122D01*
X98652028Y-37068078D01*
X98680615Y-37040861D01*
X98848683Y-36951027D01*
X99009252Y-36819252D01*
X99141027Y-36658683D01*
X99238945Y-36475492D01*
X99299242Y-36276718D01*
X99319602Y-36070000D01*
X99740398Y-36070000D01*
X99760758Y-36276718D01*
X99761810Y-36280186D01*
X99761811Y-36280191D01*
X99819999Y-36472012D01*
X99821055Y-36475492D01*
X99822767Y-36478695D01*
X99822770Y-36478702D01*
X99899381Y-36622030D01*
X99918973Y-36658683D01*
X100050748Y-36819252D01*
X100211317Y-36951027D01*
X100379384Y-37040861D01*
X100407972Y-37068078D01*
X100418500Y-37106122D01*
X100418500Y-41071501D01*
X100408586Y-41108501D01*
X100381500Y-41135587D01*
X100344500Y-41145501D01*
X100251746Y-41145501D01*
X100249775Y-41145712D01*
X100249772Y-41145713D01*
X100196263Y-41151464D01*
X100196255Y-41151465D01*
X100191658Y-41151960D01*
X100187323Y-41153576D01*
X100187318Y-41153578D01*
X100060695Y-41200806D01*
X100060687Y-41200809D01*
X100055733Y-41202658D01*
X100051493Y-41205831D01*
X100051491Y-41205833D01*
X99943835Y-41286422D01*
X99943831Y-41286425D01*
X99939596Y-41289596D01*
X99936425Y-41293831D01*
X99936422Y-41293835D01*
X99855833Y-41401491D01*
X99852658Y-41405733D01*
X99850809Y-41410687D01*
X99850806Y-41410695D01*
X99803579Y-41537316D01*
X99803579Y-41537318D01*
X99801960Y-41541658D01*
X99801465Y-41546257D01*
X99801464Y-41546264D01*
X99795712Y-41599772D01*
X99795500Y-41601745D01*
X99795500Y-41603727D01*
X99795500Y-41603728D01*
X99795500Y-42396270D01*
X99795500Y-42396288D01*
X99795501Y-42398254D01*
X99795712Y-42400225D01*
X99795713Y-42400227D01*
X99801464Y-42453736D01*
X99801465Y-42453742D01*
X99801960Y-42458342D01*
X99803577Y-42462678D01*
X99803578Y-42462681D01*
X99850806Y-42589304D01*
X99850808Y-42589309D01*
X99852658Y-42594267D01*
X99939596Y-42710404D01*
X100055733Y-42797342D01*
X100060693Y-42799192D01*
X100060695Y-42799193D01*
X100102741Y-42814875D01*
X100191658Y-42848040D01*
X100251745Y-42854500D01*
X101248254Y-42854499D01*
X101308342Y-42848040D01*
X101444267Y-42797342D01*
X101560404Y-42710404D01*
X101647342Y-42594267D01*
X101698040Y-42458342D01*
X101704500Y-42398255D01*
X101704499Y-41601746D01*
X101698040Y-41541658D01*
X101647342Y-41405733D01*
X101560404Y-41289596D01*
X101444267Y-41202658D01*
X101439309Y-41200808D01*
X101439304Y-41200806D01*
X101312683Y-41153579D01*
X101312682Y-41153578D01*
X101308342Y-41151960D01*
X101303740Y-41151465D01*
X101303735Y-41151464D01*
X101248255Y-41145500D01*
X101248332Y-41144776D01*
X101216214Y-41134598D01*
X101190758Y-41107727D01*
X101181500Y-41071888D01*
X101181500Y-37106122D01*
X101192028Y-37068078D01*
X101220615Y-37040861D01*
X101388683Y-36951027D01*
X101549252Y-36819252D01*
X101681027Y-36658683D01*
X101778945Y-36475492D01*
X101839242Y-36276718D01*
X101859602Y-36070000D01*
X101839242Y-35863282D01*
X101778945Y-35664508D01*
X101681027Y-35481317D01*
X101549252Y-35320748D01*
X101388683Y-35188973D01*
X101352030Y-35169381D01*
X101208702Y-35092770D01*
X101208695Y-35092767D01*
X101205492Y-35091055D01*
X101202015Y-35090000D01*
X101202012Y-35089999D01*
X101010191Y-35031811D01*
X101010186Y-35031810D01*
X101006718Y-35030758D01*
X101003106Y-35030402D01*
X101003105Y-35030402D01*
X100803615Y-35010754D01*
X100800000Y-35010398D01*
X100796385Y-35010754D01*
X100596894Y-35030402D01*
X100596891Y-35030402D01*
X100593282Y-35030758D01*
X100589815Y-35031809D01*
X100589808Y-35031811D01*
X100397987Y-35089999D01*
X100397981Y-35090001D01*
X100394508Y-35091055D01*
X100391307Y-35092765D01*
X100391297Y-35092770D01*
X100214523Y-35187259D01*
X100214520Y-35187260D01*
X100211317Y-35188973D01*
X100208509Y-35191276D01*
X100208508Y-35191278D01*
X100053558Y-35318441D01*
X100053552Y-35318446D01*
X100050748Y-35320748D01*
X100048446Y-35323552D01*
X100048441Y-35323558D01*
X99921278Y-35478508D01*
X99918973Y-35481317D01*
X99917260Y-35484520D01*
X99917259Y-35484523D01*
X99822770Y-35661297D01*
X99822765Y-35661307D01*
X99821055Y-35664508D01*
X99820001Y-35667981D01*
X99819999Y-35667987D01*
X99761811Y-35859808D01*
X99761809Y-35859815D01*
X99760758Y-35863282D01*
X99740398Y-36070000D01*
X99319602Y-36070000D01*
X99299242Y-35863282D01*
X99238945Y-35664508D01*
X99141027Y-35481317D01*
X99009252Y-35320748D01*
X98848683Y-35188973D01*
X98812030Y-35169381D01*
X98668702Y-35092770D01*
X98668695Y-35092767D01*
X98665492Y-35091055D01*
X98662015Y-35090000D01*
X98662012Y-35089999D01*
X98470191Y-35031811D01*
X98470186Y-35031810D01*
X98466718Y-35030758D01*
X98463106Y-35030402D01*
X98463105Y-35030402D01*
X98263615Y-35010754D01*
X98260000Y-35010398D01*
X98256385Y-35010754D01*
X98056894Y-35030402D01*
X98056891Y-35030402D01*
X98053282Y-35030758D01*
X98049815Y-35031809D01*
X98049808Y-35031811D01*
X97857987Y-35089999D01*
X97857981Y-35090001D01*
X97854508Y-35091055D01*
X97851307Y-35092765D01*
X97851297Y-35092770D01*
X97674523Y-35187259D01*
X97674520Y-35187260D01*
X97671317Y-35188973D01*
X97668509Y-35191276D01*
X97668508Y-35191278D01*
X97513558Y-35318441D01*
X97513552Y-35318446D01*
X97510748Y-35320748D01*
X97508446Y-35323552D01*
X97508441Y-35323558D01*
X97381278Y-35478508D01*
X97378973Y-35481317D01*
X97377260Y-35484520D01*
X97377259Y-35484523D01*
X97282770Y-35661297D01*
X97282765Y-35661307D01*
X97281055Y-35664508D01*
X97280001Y-35667981D01*
X97279999Y-35667987D01*
X97221811Y-35859808D01*
X97221809Y-35859815D01*
X97220758Y-35863282D01*
X97200398Y-36070000D01*
X96779602Y-36070000D01*
X96759242Y-35863282D01*
X96698945Y-35664508D01*
X96601027Y-35481317D01*
X96469252Y-35320748D01*
X96308683Y-35188973D01*
X96272030Y-35169381D01*
X96128702Y-35092770D01*
X96128695Y-35092767D01*
X96125492Y-35091055D01*
X96122015Y-35090000D01*
X96122012Y-35089999D01*
X95930191Y-35031811D01*
X95930186Y-35031810D01*
X95926718Y-35030758D01*
X95923106Y-35030402D01*
X95923105Y-35030402D01*
X95723615Y-35010754D01*
X95720000Y-35010398D01*
X95716385Y-35010754D01*
X95516894Y-35030402D01*
X95516891Y-35030402D01*
X95513282Y-35030758D01*
X95509815Y-35031809D01*
X95509808Y-35031811D01*
X95317987Y-35089999D01*
X95317981Y-35090001D01*
X95314508Y-35091055D01*
X95311307Y-35092765D01*
X95311297Y-35092770D01*
X95134523Y-35187259D01*
X95134520Y-35187260D01*
X95131317Y-35188973D01*
X95128509Y-35191276D01*
X95128508Y-35191278D01*
X94973558Y-35318441D01*
X94973552Y-35318446D01*
X94970748Y-35320748D01*
X94968446Y-35323552D01*
X94968441Y-35323558D01*
X94841278Y-35478508D01*
X94838973Y-35481317D01*
X94837260Y-35484520D01*
X94837259Y-35484523D01*
X94742770Y-35661297D01*
X94742765Y-35661307D01*
X94741055Y-35664508D01*
X94740001Y-35667981D01*
X94739999Y-35667987D01*
X94681811Y-35859808D01*
X94681809Y-35859815D01*
X94680758Y-35863282D01*
X94660398Y-36070000D01*
X94239602Y-36070000D01*
X94219242Y-35863282D01*
X94158945Y-35664508D01*
X94061027Y-35481317D01*
X93929252Y-35320748D01*
X93768683Y-35188973D01*
X93732030Y-35169381D01*
X93588702Y-35092770D01*
X93588695Y-35092767D01*
X93585492Y-35091055D01*
X93582015Y-35090000D01*
X93582012Y-35089999D01*
X93390191Y-35031811D01*
X93390186Y-35031810D01*
X93386718Y-35030758D01*
X93383106Y-35030402D01*
X93383105Y-35030402D01*
X93183615Y-35010754D01*
X93180000Y-35010398D01*
X93176385Y-35010754D01*
X92976894Y-35030402D01*
X92976891Y-35030402D01*
X92973282Y-35030758D01*
X92969815Y-35031809D01*
X92969808Y-35031811D01*
X92777987Y-35089999D01*
X92777981Y-35090001D01*
X92774508Y-35091055D01*
X92771307Y-35092765D01*
X92771297Y-35092770D01*
X92594523Y-35187259D01*
X92594520Y-35187260D01*
X92591317Y-35188973D01*
X92588509Y-35191276D01*
X92588508Y-35191278D01*
X92433558Y-35318441D01*
X92433552Y-35318446D01*
X92430748Y-35320748D01*
X92428446Y-35323552D01*
X92428441Y-35323558D01*
X92301278Y-35478508D01*
X92298973Y-35481317D01*
X92297260Y-35484520D01*
X92297259Y-35484523D01*
X92202770Y-35661297D01*
X92202765Y-35661307D01*
X92201055Y-35664508D01*
X92200001Y-35667981D01*
X92199999Y-35667987D01*
X92141811Y-35859808D01*
X92141809Y-35859815D01*
X92140758Y-35863282D01*
X92120398Y-36070000D01*
X87750500Y-36070000D01*
X87750500Y-28535307D01*
X92233805Y-28535307D01*
X92243389Y-28632620D01*
X92244798Y-28639705D01*
X92297011Y-28811827D01*
X92299782Y-28818518D01*
X92384568Y-28977139D01*
X92388587Y-28983154D01*
X92502691Y-29122191D01*
X92507808Y-29127308D01*
X92646845Y-29241412D01*
X92652860Y-29245431D01*
X92811481Y-29330217D01*
X92818172Y-29332988D01*
X92990294Y-29385201D01*
X92997379Y-29386610D01*
X93094692Y-29396194D01*
X93102749Y-29394728D01*
X93105000Y-29386849D01*
X93255000Y-29386849D01*
X93257250Y-29394728D01*
X93265307Y-29396194D01*
X93362620Y-29386610D01*
X93369705Y-29385201D01*
X93541827Y-29332988D01*
X93548518Y-29330217D01*
X93707139Y-29245431D01*
X93713154Y-29241412D01*
X93852191Y-29127308D01*
X93857308Y-29122191D01*
X93971412Y-28983154D01*
X93975431Y-28977139D01*
X94060217Y-28818518D01*
X94062988Y-28811827D01*
X94115201Y-28639705D01*
X94116610Y-28632620D01*
X94126194Y-28535307D01*
X94773805Y-28535307D01*
X94783389Y-28632620D01*
X94784798Y-28639705D01*
X94837011Y-28811827D01*
X94839782Y-28818518D01*
X94924568Y-28977139D01*
X94928587Y-28983154D01*
X95042691Y-29122191D01*
X95047808Y-29127308D01*
X95186845Y-29241412D01*
X95192860Y-29245431D01*
X95351481Y-29330217D01*
X95358172Y-29332988D01*
X95530294Y-29385201D01*
X95537379Y-29386610D01*
X95634692Y-29396194D01*
X95642749Y-29394728D01*
X95645000Y-29386849D01*
X95795000Y-29386849D01*
X95797250Y-29394728D01*
X95805307Y-29396194D01*
X95902620Y-29386610D01*
X95909705Y-29385201D01*
X96081827Y-29332988D01*
X96088518Y-29330217D01*
X96247139Y-29245431D01*
X96253154Y-29241412D01*
X96392191Y-29127308D01*
X96397308Y-29122191D01*
X96511412Y-28983154D01*
X96515431Y-28977139D01*
X96600217Y-28818518D01*
X96602988Y-28811827D01*
X96655201Y-28639705D01*
X96656610Y-28632620D01*
X96666194Y-28535307D01*
X97313805Y-28535307D01*
X97323389Y-28632620D01*
X97324798Y-28639705D01*
X97377011Y-28811827D01*
X97379782Y-28818518D01*
X97464568Y-28977139D01*
X97468587Y-28983154D01*
X97582691Y-29122191D01*
X97587808Y-29127308D01*
X97726845Y-29241412D01*
X97732860Y-29245431D01*
X97891481Y-29330217D01*
X97898172Y-29332988D01*
X98070294Y-29385201D01*
X98077379Y-29386610D01*
X98174692Y-29396194D01*
X98182749Y-29394728D01*
X98185000Y-29386849D01*
X98335000Y-29386849D01*
X98337250Y-29394728D01*
X98345307Y-29396194D01*
X98442620Y-29386610D01*
X98449705Y-29385201D01*
X98621827Y-29332988D01*
X98628518Y-29330217D01*
X98757763Y-29261133D01*
X99850001Y-29261133D01*
X99850711Y-29268347D01*
X99857281Y-29301377D01*
X99862752Y-29314586D01*
X99887806Y-29352083D01*
X99897916Y-29362193D01*
X99935414Y-29387248D01*
X99948619Y-29392718D01*
X99981655Y-29399289D01*
X99988865Y-29400000D01*
X100715257Y-29400000D01*
X100722940Y-29397940D01*
X100725000Y-29390257D01*
X100725000Y-29390256D01*
X100875000Y-29390256D01*
X100877059Y-29397939D01*
X100884743Y-29399999D01*
X101611133Y-29399999D01*
X101618347Y-29399288D01*
X101651377Y-29392718D01*
X101664586Y-29387247D01*
X101702083Y-29362193D01*
X101712193Y-29352083D01*
X101737248Y-29314585D01*
X101742718Y-29301380D01*
X101749289Y-29268344D01*
X101750000Y-29261135D01*
X101750000Y-28534743D01*
X101747940Y-28527059D01*
X101740257Y-28525000D01*
X100884743Y-28525000D01*
X100877059Y-28527059D01*
X100875000Y-28534743D01*
X100875000Y-29390256D01*
X100725000Y-29390256D01*
X100725000Y-28534743D01*
X100722940Y-28527059D01*
X100715257Y-28525000D01*
X99859744Y-28525000D01*
X99852060Y-28527059D01*
X99850001Y-28534743D01*
X99850001Y-29261133D01*
X98757763Y-29261133D01*
X98787139Y-29245431D01*
X98793154Y-29241412D01*
X98932191Y-29127308D01*
X98937308Y-29122191D01*
X99051412Y-28983154D01*
X99055431Y-28977139D01*
X99140217Y-28818518D01*
X99142988Y-28811827D01*
X99195201Y-28639705D01*
X99196610Y-28632620D01*
X99206194Y-28535307D01*
X99204728Y-28527250D01*
X99196849Y-28525000D01*
X98344743Y-28525000D01*
X98337059Y-28527059D01*
X98335000Y-28534743D01*
X98335000Y-29386849D01*
X98185000Y-29386849D01*
X98185000Y-28534743D01*
X98182940Y-28527059D01*
X98175257Y-28525000D01*
X97323151Y-28525000D01*
X97315271Y-28527250D01*
X97313805Y-28535307D01*
X96666194Y-28535307D01*
X96664728Y-28527250D01*
X96656849Y-28525000D01*
X95804743Y-28525000D01*
X95797059Y-28527059D01*
X95795000Y-28534743D01*
X95795000Y-29386849D01*
X95645000Y-29386849D01*
X95645000Y-28534743D01*
X95642940Y-28527059D01*
X95635257Y-28525000D01*
X94783151Y-28525000D01*
X94775271Y-28527250D01*
X94773805Y-28535307D01*
X94126194Y-28535307D01*
X94124728Y-28527250D01*
X94116849Y-28525000D01*
X93264743Y-28525000D01*
X93257059Y-28527059D01*
X93255000Y-28534743D01*
X93255000Y-29386849D01*
X93105000Y-29386849D01*
X93105000Y-28534743D01*
X93102940Y-28527059D01*
X93095257Y-28525000D01*
X92243151Y-28525000D01*
X92235271Y-28527250D01*
X92233805Y-28535307D01*
X87750500Y-28535307D01*
X87750500Y-28364692D01*
X92233805Y-28364692D01*
X92235271Y-28372749D01*
X92243151Y-28375000D01*
X93095257Y-28375000D01*
X93102940Y-28372940D01*
X93105000Y-28365257D01*
X93255000Y-28365257D01*
X93257059Y-28372940D01*
X93264743Y-28375000D01*
X94116849Y-28375000D01*
X94124728Y-28372749D01*
X94126194Y-28364692D01*
X94773805Y-28364692D01*
X94775271Y-28372749D01*
X94783151Y-28375000D01*
X95635257Y-28375000D01*
X95642940Y-28372940D01*
X95645000Y-28365257D01*
X95795000Y-28365257D01*
X95797059Y-28372940D01*
X95804743Y-28375000D01*
X96656849Y-28375000D01*
X96664728Y-28372749D01*
X96666194Y-28364692D01*
X97313805Y-28364692D01*
X97315271Y-28372749D01*
X97323151Y-28375000D01*
X98175257Y-28375000D01*
X98182940Y-28372940D01*
X98185000Y-28365257D01*
X98335000Y-28365257D01*
X98337059Y-28372940D01*
X98344743Y-28375000D01*
X99196849Y-28375000D01*
X99204728Y-28372749D01*
X99206091Y-28365257D01*
X99850000Y-28365257D01*
X99852059Y-28372940D01*
X99859743Y-28375000D01*
X100715257Y-28375000D01*
X100722940Y-28372940D01*
X100725000Y-28365257D01*
X100875000Y-28365257D01*
X100877059Y-28372940D01*
X100884743Y-28375000D01*
X101740256Y-28375000D01*
X101747939Y-28372940D01*
X101749999Y-28365257D01*
X101749999Y-27638867D01*
X101749288Y-27631652D01*
X101742718Y-27598622D01*
X101737247Y-27585413D01*
X101712193Y-27547916D01*
X101702083Y-27537806D01*
X101664585Y-27512751D01*
X101651380Y-27507281D01*
X101618344Y-27500710D01*
X101611135Y-27500000D01*
X100884743Y-27500000D01*
X100877059Y-27502059D01*
X100875000Y-27509743D01*
X100875000Y-28365257D01*
X100725000Y-28365257D01*
X100725000Y-27509744D01*
X100722940Y-27502060D01*
X100715257Y-27500001D01*
X99988867Y-27500001D01*
X99981652Y-27500711D01*
X99948622Y-27507281D01*
X99935413Y-27512752D01*
X99897916Y-27537806D01*
X99887806Y-27547916D01*
X99862751Y-27585414D01*
X99857281Y-27598619D01*
X99850710Y-27631655D01*
X99850000Y-27638865D01*
X99850000Y-28365257D01*
X99206091Y-28365257D01*
X99206194Y-28364692D01*
X99196610Y-28267379D01*
X99195201Y-28260294D01*
X99142988Y-28088172D01*
X99140217Y-28081481D01*
X99055431Y-27922860D01*
X99051412Y-27916845D01*
X98937308Y-27777808D01*
X98932191Y-27772691D01*
X98793154Y-27658587D01*
X98787139Y-27654568D01*
X98628518Y-27569782D01*
X98621827Y-27567011D01*
X98449705Y-27514798D01*
X98442620Y-27513389D01*
X98345307Y-27503805D01*
X98337250Y-27505271D01*
X98335000Y-27513151D01*
X98335000Y-28365257D01*
X98185000Y-28365257D01*
X98185000Y-27513151D01*
X98182749Y-27505271D01*
X98174692Y-27503805D01*
X98077379Y-27513389D01*
X98070294Y-27514798D01*
X97898172Y-27567011D01*
X97891481Y-27569782D01*
X97732860Y-27654568D01*
X97726845Y-27658587D01*
X97587808Y-27772691D01*
X97582691Y-27777808D01*
X97468587Y-27916845D01*
X97464568Y-27922860D01*
X97379782Y-28081481D01*
X97377011Y-28088172D01*
X97324798Y-28260294D01*
X97323389Y-28267379D01*
X97313805Y-28364692D01*
X96666194Y-28364692D01*
X96656610Y-28267379D01*
X96655201Y-28260294D01*
X96602988Y-28088172D01*
X96600217Y-28081481D01*
X96515431Y-27922860D01*
X96511412Y-27916845D01*
X96397308Y-27777808D01*
X96392191Y-27772691D01*
X96253154Y-27658587D01*
X96247139Y-27654568D01*
X96088518Y-27569782D01*
X96081827Y-27567011D01*
X95909705Y-27514798D01*
X95902620Y-27513389D01*
X95805307Y-27503805D01*
X95797250Y-27505271D01*
X95795000Y-27513151D01*
X95795000Y-28365257D01*
X95645000Y-28365257D01*
X95645000Y-27513151D01*
X95642749Y-27505271D01*
X95634692Y-27503805D01*
X95537379Y-27513389D01*
X95530294Y-27514798D01*
X95358172Y-27567011D01*
X95351481Y-27569782D01*
X95192860Y-27654568D01*
X95186845Y-27658587D01*
X95047808Y-27772691D01*
X95042691Y-27777808D01*
X94928587Y-27916845D01*
X94924568Y-27922860D01*
X94839782Y-28081481D01*
X94837011Y-28088172D01*
X94784798Y-28260294D01*
X94783389Y-28267379D01*
X94773805Y-28364692D01*
X94126194Y-28364692D01*
X94116610Y-28267379D01*
X94115201Y-28260294D01*
X94062988Y-28088172D01*
X94060217Y-28081481D01*
X93975431Y-27922860D01*
X93971412Y-27916845D01*
X93857308Y-27777808D01*
X93852191Y-27772691D01*
X93713154Y-27658587D01*
X93707139Y-27654568D01*
X93548518Y-27569782D01*
X93541827Y-27567011D01*
X93369705Y-27514798D01*
X93362620Y-27513389D01*
X93265307Y-27503805D01*
X93257250Y-27505271D01*
X93255000Y-27513151D01*
X93255000Y-28365257D01*
X93105000Y-28365257D01*
X93105000Y-27513151D01*
X93102749Y-27505271D01*
X93094692Y-27503805D01*
X92997379Y-27513389D01*
X92990294Y-27514798D01*
X92818172Y-27567011D01*
X92811481Y-27569782D01*
X92652860Y-27654568D01*
X92646845Y-27658587D01*
X92507808Y-27772691D01*
X92502691Y-27777808D01*
X92388587Y-27916845D01*
X92384568Y-27922860D01*
X92299782Y-28081481D01*
X92297011Y-28088172D01*
X92244798Y-28260294D01*
X92243389Y-28267379D01*
X92233805Y-28364692D01*
X87750500Y-28364692D01*
X87750500Y-28003227D01*
X87750780Y-27996797D01*
X87754464Y-27954681D01*
X87754496Y-27954344D01*
X87767320Y-27824143D01*
X87769479Y-27812276D01*
X87788114Y-27742729D01*
X87788728Y-27740583D01*
X87817711Y-27645037D01*
X87821457Y-27635247D01*
X87823132Y-27631655D01*
X87854267Y-27564885D01*
X87856035Y-27561349D01*
X87900430Y-27478291D01*
X87905060Y-27470755D01*
X87950730Y-27405531D01*
X87954127Y-27401054D01*
X88012747Y-27329625D01*
X88017585Y-27324287D01*
X88074287Y-27267585D01*
X88079625Y-27262747D01*
X88151054Y-27204127D01*
X88155531Y-27200730D01*
X88220755Y-27155060D01*
X88228291Y-27150430D01*
X88311349Y-27106035D01*
X88314885Y-27104267D01*
X88385251Y-27071455D01*
X88395038Y-27067711D01*
X88490583Y-27038728D01*
X88492729Y-27038114D01*
X88562276Y-27019479D01*
X88574143Y-27017320D01*
X88704344Y-27004496D01*
X88704681Y-27004464D01*
X88746797Y-27000780D01*
X88753227Y-27000500D01*
X105246773Y-27000500D01*
X105253222Y-27000782D01*
G37*
G04 #@! TD.AperFunction*
M02*
