G04 #@! TF.GenerationSoftware,KiCad,Pcbnew,(6.0.7-1)-1*
G04 #@! TF.CreationDate,2023-02-13T21:52:59-08:00*
G04 #@! TF.ProjectId,qcard-multicart,71636172-642d-46d7-956c-746963617274,1*
G04 #@! TF.SameCoordinates,Original*
G04 #@! TF.FileFunction,Copper,L1,Top*
G04 #@! TF.FilePolarity,Positive*
%FSLAX46Y46*%
G04 Gerber Fmt 4.6, Leading zero omitted, Abs format (unit mm)*
G04 Created by KiCad (PCBNEW (6.0.7-1)-1) date 2023-02-13 21:52:59*
%MOMM*%
%LPD*%
G01*
G04 APERTURE LIST*
G04 Aperture macros list*
%AMRoundRect*
0 Rectangle with rounded corners*
0 $1 Rounding radius*
0 $2 $3 $4 $5 $6 $7 $8 $9 X,Y pos of 4 corners*
0 Add a 4 corners polygon primitive as box body*
4,1,4,$2,$3,$4,$5,$6,$7,$8,$9,$2,$3,0*
0 Add four circle primitives for the rounded corners*
1,1,$1+$1,$2,$3*
1,1,$1+$1,$4,$5*
1,1,$1+$1,$6,$7*
1,1,$1+$1,$8,$9*
0 Add four rect primitives between the rounded corners*
20,1,$1+$1,$2,$3,$4,$5,0*
20,1,$1+$1,$4,$5,$6,$7,0*
20,1,$1+$1,$6,$7,$8,$9,0*
20,1,$1+$1,$8,$9,$2,$3,0*%
G04 Aperture macros list end*
G04 #@! TA.AperFunction,SMDPad,CuDef*
%ADD10R,1.540000X0.280000*%
G04 #@! TD*
G04 #@! TA.AperFunction,ComponentPad*
%ADD11R,1.600000X1.600000*%
G04 #@! TD*
G04 #@! TA.AperFunction,ComponentPad*
%ADD12O,1.600000X1.600000*%
G04 #@! TD*
G04 #@! TA.AperFunction,ConnectorPad*
%ADD13RoundRect,0.375000X-0.375000X-4.625000X0.375000X-4.625000X0.375000X4.625000X-0.375000X4.625000X0*%
G04 #@! TD*
G04 #@! TA.AperFunction,SMDPad,CuDef*
%ADD14RoundRect,0.250000X0.337500X0.475000X-0.337500X0.475000X-0.337500X-0.475000X0.337500X-0.475000X0*%
G04 #@! TD*
G04 #@! TA.AperFunction,ViaPad*
%ADD15C,0.685800*%
G04 #@! TD*
G04 #@! TA.AperFunction,ViaPad*
%ADD16C,0.889000*%
G04 #@! TD*
G04 #@! TA.AperFunction,Conductor*
%ADD17C,0.152400*%
G04 #@! TD*
G04 #@! TA.AperFunction,Conductor*
%ADD18C,0.254000*%
G04 #@! TD*
G04 #@! TA.AperFunction,Conductor*
%ADD19C,0.508000*%
G04 #@! TD*
G04 #@! TA.AperFunction,Conductor*
%ADD20C,0.762000*%
G04 #@! TD*
G04 APERTURE END LIST*
D10*
X87310000Y-52250000D03*
X87310000Y-52750000D03*
X87310000Y-53250000D03*
X87310000Y-53750000D03*
X87310000Y-54250000D03*
X87310000Y-54750000D03*
X87310000Y-55250000D03*
X87310000Y-55750000D03*
X87310000Y-56250000D03*
X87310000Y-56750000D03*
X87310000Y-57250000D03*
X87310000Y-57750000D03*
X87310000Y-58250000D03*
X87310000Y-58750000D03*
X87310000Y-59250000D03*
X87310000Y-59750000D03*
X87310000Y-60250000D03*
X87310000Y-60750000D03*
X87310000Y-61250000D03*
X87310000Y-61750000D03*
X87310000Y-62250000D03*
X87310000Y-62750000D03*
X87310000Y-63250000D03*
X87310000Y-63750000D03*
X106690000Y-63750000D03*
X106690000Y-63250000D03*
X106690000Y-62750000D03*
X106690000Y-62250000D03*
X106690000Y-61750000D03*
X106690000Y-61250000D03*
X106690000Y-60750000D03*
X106690000Y-60250000D03*
X106690000Y-59750000D03*
X106690000Y-59250000D03*
X106690000Y-58750000D03*
X106690000Y-58250000D03*
X106690000Y-57750000D03*
X106690000Y-57250000D03*
X106690000Y-56750000D03*
X106690000Y-56250000D03*
X106690000Y-55750000D03*
X106690000Y-55250000D03*
X106690000Y-54750000D03*
X106690000Y-54250000D03*
X106690000Y-53750000D03*
X106690000Y-53250000D03*
X106690000Y-52750000D03*
X106690000Y-52250000D03*
D11*
X100800000Y-36500000D03*
D12*
X98260000Y-36500000D03*
X95720000Y-36500000D03*
X93180000Y-36500000D03*
X93180000Y-44120000D03*
X95720000Y-44120000D03*
X98260000Y-44120000D03*
X100800000Y-44120000D03*
D13*
X75410000Y-75500000D03*
X77950000Y-75500000D03*
X80490000Y-75500000D03*
X83030000Y-75500000D03*
X85570000Y-75500000D03*
X88110000Y-75500000D03*
X90650000Y-75500000D03*
X93190000Y-75500000D03*
X95730000Y-75500000D03*
X98270000Y-75500000D03*
X100810000Y-75500000D03*
X103350000Y-75500000D03*
X105890000Y-75500000D03*
X108430000Y-75500000D03*
X110970000Y-75500000D03*
X113510000Y-75500000D03*
X116050000Y-75500000D03*
X118590000Y-75500000D03*
D14*
X111075000Y-57500000D03*
X109000000Y-57500000D03*
D15*
X83900000Y-67900000D03*
X88800000Y-53800000D03*
X90000000Y-54200000D03*
X91425601Y-54174399D03*
X89500000Y-55922600D03*
D16*
X109000000Y-55750000D03*
D15*
X85400000Y-56400000D03*
X96100000Y-51300000D03*
X85272600Y-59400000D03*
X87100000Y-68400000D03*
X89500000Y-67600000D03*
X89500000Y-62100000D03*
X91800000Y-62900000D03*
X92527400Y-67900000D03*
X95700000Y-62900000D03*
X95700000Y-68700000D03*
X97300000Y-62900000D03*
X97300000Y-67800000D03*
X106700000Y-64627400D03*
X103700000Y-66400000D03*
D16*
X117300000Y-68900000D03*
D15*
X97000000Y-40500000D03*
X120000000Y-40500000D03*
X106500000Y-49000000D03*
D16*
X74400000Y-66900000D03*
X78100000Y-66900000D03*
D15*
X74000000Y-40500000D03*
X120000000Y-67000000D03*
X88000000Y-49000000D03*
X105000000Y-61000000D03*
X109800000Y-68300000D03*
X109800000Y-64600000D03*
X113400000Y-60400000D03*
X111100000Y-68100000D03*
X108400000Y-66200000D03*
X105675601Y-66424399D03*
X102500000Y-62900000D03*
X89100000Y-60422600D03*
X97100000Y-48100000D03*
X99600000Y-48100000D03*
X98600000Y-52300000D03*
D17*
X80490000Y-57999600D02*
X86239600Y-52250000D01*
X80490000Y-75500000D02*
X80490000Y-57999600D01*
X86239600Y-52250000D02*
X87310000Y-52250000D01*
X83030000Y-69600400D02*
X83000000Y-69570400D01*
X87280200Y-52779800D02*
X87310000Y-52750000D01*
X83000000Y-56064336D02*
X86284536Y-52779800D01*
X86284536Y-52779800D02*
X87280200Y-52779800D01*
X83000000Y-69570400D02*
X83000000Y-56064336D01*
X83030000Y-75500000D02*
X83030000Y-69600400D01*
X83900000Y-55739072D02*
X86389072Y-53250000D01*
X83900000Y-67900000D02*
X83900000Y-55739072D01*
X86389072Y-53250000D02*
X87310000Y-53250000D01*
X88800000Y-53800000D02*
X88779800Y-53779800D01*
X88779800Y-53779800D02*
X88100000Y-53779800D01*
X84600000Y-55889600D02*
X84600000Y-67000000D01*
X84600000Y-67000000D02*
X85500000Y-67900000D01*
X85500000Y-75430000D02*
X85570000Y-75500000D01*
X87310000Y-54250000D02*
X86239600Y-54250000D01*
X86239600Y-54250000D02*
X84600000Y-55889600D01*
X85500000Y-67900000D02*
X85500000Y-75430000D01*
X89450000Y-54750000D02*
X87310000Y-54750000D01*
X90000000Y-54200000D02*
X89450000Y-54750000D01*
X91425601Y-54174399D02*
X90350000Y-55250000D01*
X90350000Y-55250000D02*
X87310000Y-55250000D01*
X89327400Y-55750000D02*
X87310000Y-55750000D01*
X89500000Y-55922600D02*
X89327400Y-55750000D01*
X85400000Y-57950000D02*
X85400000Y-56400000D01*
X86200000Y-58750000D02*
X85400000Y-57950000D01*
X87310000Y-57250000D02*
X86250000Y-57250000D01*
X108750000Y-57750000D02*
X109000000Y-57500000D01*
X86250000Y-57250000D02*
X85400000Y-56400000D01*
D18*
X106690000Y-57750000D02*
X108750000Y-57750000D01*
D19*
X109000000Y-55750000D02*
X109000000Y-57500000D01*
D17*
X87310000Y-57750000D02*
X87310000Y-57250000D01*
X87310000Y-58750000D02*
X86200000Y-58750000D01*
X88721192Y-56595700D02*
X88375492Y-56250000D01*
X96100000Y-51300000D02*
X90804300Y-56595700D01*
X88375492Y-56250000D02*
X87310000Y-56250000D01*
X90804300Y-56595700D02*
X88721192Y-56595700D01*
X86239600Y-60250000D02*
X87310000Y-60250000D01*
X85389600Y-59400000D02*
X86239600Y-60250000D01*
X85272600Y-59400000D02*
X85389600Y-59400000D01*
X86050000Y-60750000D02*
X85300000Y-61500000D01*
X85300000Y-66600000D02*
X87100000Y-68400000D01*
X85300000Y-61500000D02*
X85300000Y-66600000D01*
X87310000Y-60750000D02*
X86050000Y-60750000D01*
X88110000Y-68310000D02*
X88110000Y-75500000D01*
X85800000Y-66000000D02*
X88110000Y-68310000D01*
X87310000Y-61250000D02*
X86350000Y-61250000D01*
X85800000Y-61800000D02*
X85800000Y-66000000D01*
X86350000Y-61250000D02*
X85800000Y-61800000D01*
X90650000Y-68750000D02*
X90650000Y-75500000D01*
X89500000Y-67600000D02*
X90650000Y-68750000D01*
X89500000Y-62100000D02*
X89150000Y-61750000D01*
X89150000Y-61750000D02*
X87310000Y-61750000D01*
X92527400Y-67900000D02*
X92527400Y-68727400D01*
X89248092Y-62900000D02*
X91800000Y-62900000D01*
X88598092Y-62250000D02*
X89248092Y-62900000D01*
X93190000Y-69390000D02*
X93190000Y-75500000D01*
X92527400Y-68727400D02*
X93190000Y-69390000D01*
X87310000Y-62250000D02*
X88598092Y-62250000D01*
X95700000Y-75470000D02*
X95730000Y-75500000D01*
X95000000Y-63600000D02*
X89373356Y-63600000D01*
X95700000Y-68700000D02*
X95700000Y-75470000D01*
X88523356Y-62750000D02*
X87310000Y-62750000D01*
X95700000Y-62900000D02*
X95000000Y-63600000D01*
X89373356Y-63600000D02*
X88523356Y-62750000D01*
X97300000Y-62900000D02*
X95900000Y-64300000D01*
X97300000Y-67800000D02*
X98270000Y-68770000D01*
X95900000Y-64300000D02*
X89498620Y-64300000D01*
X98270000Y-68770000D02*
X98270000Y-75500000D01*
X88448620Y-63250000D02*
X87310000Y-63250000D01*
X89498620Y-64300000D02*
X88448620Y-63250000D01*
X88533100Y-64973100D02*
X98673100Y-64973100D01*
X100810000Y-67110000D02*
X100810000Y-75500000D01*
X98673100Y-64973100D02*
X100810000Y-67110000D01*
X87310000Y-63750000D02*
X88533100Y-64973100D01*
X103350000Y-75500000D02*
X103350000Y-66750000D01*
X103350000Y-66750000D02*
X103700000Y-66400000D01*
X106700000Y-64627400D02*
X106690000Y-64617400D01*
X106690000Y-64617400D02*
X106690000Y-63750000D01*
D20*
X116050000Y-75500000D02*
X116050000Y-70150000D01*
D17*
X106690000Y-63250000D02*
X106690000Y-62250000D01*
D20*
X78000000Y-75450000D02*
X77950000Y-75500000D01*
X117300000Y-68900000D02*
X118590000Y-70190000D01*
X75400000Y-69600000D02*
X78000000Y-69600000D01*
X75410000Y-69610000D02*
X75400000Y-69600000D01*
X118590000Y-70190000D02*
X118590000Y-75500000D01*
X75410000Y-75500000D02*
X75410000Y-69610000D01*
D17*
X106690000Y-52750000D02*
X106690000Y-53250000D01*
D20*
X78000000Y-69600000D02*
X78000000Y-75450000D01*
X116050000Y-70150000D02*
X117300000Y-68900000D01*
D17*
X109800000Y-63789600D02*
X109800000Y-64600000D01*
X108400000Y-69300000D02*
X108400000Y-75470000D01*
X109800000Y-68300000D02*
X109400000Y-68300000D01*
X106690000Y-61750000D02*
X107760400Y-61750000D01*
X107760400Y-61750000D02*
X109800000Y-63789600D01*
X108400000Y-75470000D02*
X108430000Y-75500000D01*
X109400000Y-68300000D02*
X108400000Y-69300000D01*
X112400000Y-68100000D02*
X110970000Y-69530000D01*
X110970000Y-69530000D02*
X110970000Y-75500000D01*
X112400000Y-62500000D02*
X112400000Y-68100000D01*
X110650000Y-60750000D02*
X112400000Y-62500000D01*
X106690000Y-60750000D02*
X110650000Y-60750000D01*
X106690000Y-59750000D02*
X111350000Y-59750000D01*
X113510000Y-61910000D02*
X113510000Y-75500000D01*
X111350000Y-59750000D02*
X113510000Y-61910000D01*
X106690000Y-58750000D02*
X111750000Y-58750000D01*
X111750000Y-58750000D02*
X113400000Y-60400000D01*
X104006400Y-58863200D02*
X104006400Y-62456928D01*
X105400000Y-65300000D02*
X108000000Y-65300000D01*
X104012800Y-62463328D02*
X104012800Y-63912800D01*
X111100000Y-67700000D02*
X111100000Y-68100000D01*
X104006400Y-62456928D02*
X104012800Y-62463328D01*
X106690000Y-57250000D02*
X105619600Y-57250000D01*
X108000000Y-65300000D02*
X108700000Y-65300000D01*
X105619600Y-57250000D02*
X104006400Y-58863200D01*
X108700000Y-65300000D02*
X111100000Y-67700000D01*
X104012800Y-63912800D02*
X105400000Y-65300000D01*
X108400000Y-66200000D02*
X107400000Y-66200000D01*
X103606400Y-64156928D02*
X103606400Y-62631664D01*
X105650000Y-56250000D02*
X106690000Y-56250000D01*
X106951299Y-65751299D02*
X105200771Y-65751299D01*
X103606400Y-62631664D02*
X103600000Y-62625264D01*
X103600000Y-58300000D02*
X105650000Y-56250000D01*
X107400000Y-66200000D02*
X106951299Y-65751299D01*
X103600000Y-62625264D02*
X103600000Y-58300000D01*
X105200771Y-65751299D02*
X103606400Y-64156928D01*
X103200000Y-64325264D02*
X103200000Y-62800000D01*
X105675601Y-66424399D02*
X105299135Y-66424399D01*
X103193600Y-57706400D02*
X105650000Y-55250000D01*
X105299135Y-66424399D02*
X103200000Y-64325264D01*
X103193600Y-62793600D02*
X103193600Y-57706400D01*
X105650000Y-55250000D02*
X106690000Y-55250000D01*
X103200000Y-62800000D02*
X103193600Y-62793600D01*
X105722168Y-54250000D02*
X106690000Y-54250000D01*
X102475601Y-57496567D02*
X105722168Y-54250000D01*
X102475601Y-62875601D02*
X102475601Y-57496567D01*
X102500000Y-62900000D02*
X102475601Y-62875601D01*
X105890000Y-67590000D02*
X105890000Y-75500000D01*
X105619600Y-53750000D02*
X101800000Y-57569600D01*
X101800000Y-57569600D02*
X101800000Y-63500000D01*
X106690000Y-53750000D02*
X105619600Y-53750000D01*
X101800000Y-63500000D02*
X105890000Y-67590000D01*
X89100000Y-60422600D02*
X92277400Y-60422600D01*
X100450000Y-52250000D02*
X106690000Y-52250000D01*
X92277400Y-60422600D02*
X100450000Y-52250000D01*
X88582400Y-57100000D02*
X91400000Y-57100000D01*
X91400000Y-57100000D02*
X97100000Y-51400000D01*
X87310000Y-56750000D02*
X88232400Y-56750000D01*
X88232400Y-56750000D02*
X88582400Y-57100000D01*
X97100000Y-51400000D02*
X97100000Y-48100000D01*
X91450000Y-58250000D02*
X99400000Y-50300000D01*
X99400000Y-50300000D02*
X99400000Y-48400000D01*
X99600000Y-48200000D02*
X99600000Y-48100000D01*
X87310000Y-58250000D02*
X91450000Y-58250000D01*
X99400000Y-48400000D02*
X99600000Y-48200000D01*
X98600000Y-52300000D02*
X98600000Y-52400000D01*
X98600000Y-52400000D02*
X91250000Y-59750000D01*
X91250000Y-59750000D02*
X87310000Y-59750000D01*
G04 #@! TA.AperFunction,Conductor*
G36*
X92691611Y-35167813D02*
G01*
X92716921Y-35211650D01*
X92708131Y-35261500D01*
X92675319Y-35291567D01*
X92523251Y-35362477D01*
X92335700Y-35493802D01*
X92173802Y-35655700D01*
X92042477Y-35843251D01*
X92041112Y-35846179D01*
X91960377Y-36019317D01*
X91945716Y-36050757D01*
X91886457Y-36271913D01*
X91866502Y-36500000D01*
X91886457Y-36728087D01*
X91945716Y-36949243D01*
X91947082Y-36952173D01*
X91947083Y-36952175D01*
X91971858Y-37005305D01*
X92042477Y-37156749D01*
X92173802Y-37344300D01*
X92335700Y-37506198D01*
X92523251Y-37637523D01*
X92730757Y-37734284D01*
X92951913Y-37793543D01*
X93180000Y-37813498D01*
X93408087Y-37793543D01*
X93629243Y-37734284D01*
X93836749Y-37637523D01*
X94024300Y-37506198D01*
X94186198Y-37344300D01*
X94317523Y-37156749D01*
X94382933Y-37016476D01*
X94418726Y-36980683D01*
X94469152Y-36976271D01*
X94510617Y-37005305D01*
X94517067Y-37016476D01*
X94582477Y-37156749D01*
X94713802Y-37344300D01*
X94875700Y-37506198D01*
X95063251Y-37637523D01*
X95270757Y-37734284D01*
X95491913Y-37793543D01*
X95720000Y-37813498D01*
X95948087Y-37793543D01*
X96169243Y-37734284D01*
X96376749Y-37637523D01*
X96564300Y-37506198D01*
X96726198Y-37344300D01*
X96857523Y-37156749D01*
X96922933Y-37016476D01*
X96958726Y-36980683D01*
X97009152Y-36976271D01*
X97050617Y-37005305D01*
X97057067Y-37016476D01*
X97122477Y-37156749D01*
X97253802Y-37344300D01*
X97415700Y-37506198D01*
X97603251Y-37637523D01*
X97810757Y-37734284D01*
X98031913Y-37793543D01*
X98260000Y-37813498D01*
X98488087Y-37793543D01*
X98709243Y-37734284D01*
X98916749Y-37637523D01*
X99104300Y-37506198D01*
X99266198Y-37344300D01*
X99356883Y-37214789D01*
X99398348Y-37185755D01*
X99448774Y-37190167D01*
X99484567Y-37225960D01*
X99491500Y-37257234D01*
X99491500Y-37348134D01*
X99498255Y-37410316D01*
X99499884Y-37414660D01*
X99499884Y-37414662D01*
X99534200Y-37506198D01*
X99549385Y-37546705D01*
X99636739Y-37663261D01*
X99753295Y-37750615D01*
X99758231Y-37752466D01*
X99758234Y-37752467D01*
X99885338Y-37800116D01*
X99885340Y-37800116D01*
X99889684Y-37801745D01*
X99927420Y-37805844D01*
X99949867Y-37808283D01*
X99949870Y-37808283D01*
X99951866Y-37808500D01*
X101648134Y-37808500D01*
X101650130Y-37808283D01*
X101650133Y-37808283D01*
X101672580Y-37805844D01*
X101710316Y-37801745D01*
X101714660Y-37800116D01*
X101714662Y-37800116D01*
X101841766Y-37752467D01*
X101841769Y-37752466D01*
X101846705Y-37750615D01*
X101963261Y-37663261D01*
X102050615Y-37546705D01*
X102065801Y-37506198D01*
X102100116Y-37414662D01*
X102100116Y-37414660D01*
X102101745Y-37410316D01*
X102108500Y-37348134D01*
X102108500Y-35651866D01*
X102101745Y-35589684D01*
X102066658Y-35496089D01*
X102052467Y-35458234D01*
X102052466Y-35458231D01*
X102050615Y-35453295D01*
X101963261Y-35336739D01*
X101959042Y-35333577D01*
X101959039Y-35333574D01*
X101892512Y-35283715D01*
X101864831Y-35241335D01*
X101870869Y-35191078D01*
X101907799Y-35156459D01*
X101936891Y-35150500D01*
X124275500Y-35150500D01*
X124323066Y-35167813D01*
X124348376Y-35211650D01*
X124349500Y-35224500D01*
X124349500Y-70525500D01*
X124332187Y-70573066D01*
X124288350Y-70598376D01*
X124275500Y-70599500D01*
X121029557Y-70599500D01*
X121010406Y-70596979D01*
X121000000Y-70594191D01*
X120980186Y-70599500D01*
X120922096Y-70615065D01*
X120865065Y-70672095D01*
X120844191Y-70750000D01*
X120846712Y-70759408D01*
X120846979Y-70760404D01*
X120849500Y-70779557D01*
X120849500Y-70926000D01*
X120832187Y-70973566D01*
X120788350Y-70998876D01*
X120775500Y-71000000D01*
X119563999Y-71000000D01*
X119516433Y-70982687D01*
X119491123Y-70938850D01*
X119489999Y-70926000D01*
X119489999Y-70836444D01*
X119489731Y-70831995D01*
X119480210Y-70753313D01*
X119477890Y-70744175D01*
X119428544Y-70619539D01*
X119423640Y-70610836D01*
X119342770Y-70504296D01*
X119335704Y-70497230D01*
X119229164Y-70416360D01*
X119220461Y-70411456D01*
X119095826Y-70362111D01*
X119086687Y-70359790D01*
X119008005Y-70350268D01*
X119003557Y-70350000D01*
X118678048Y-70350000D01*
X118668052Y-70353638D01*
X118665000Y-70358925D01*
X118665000Y-71000000D01*
X118515000Y-71000000D01*
X118515000Y-70363049D01*
X118511362Y-70353053D01*
X118506075Y-70350001D01*
X118176444Y-70350001D01*
X118171995Y-70350269D01*
X118093313Y-70359790D01*
X118084175Y-70362110D01*
X117959539Y-70411456D01*
X117950836Y-70416360D01*
X117844296Y-70497230D01*
X117837230Y-70504296D01*
X117756360Y-70610836D01*
X117751456Y-70619539D01*
X117702111Y-70744174D01*
X117699790Y-70753313D01*
X117690268Y-70831995D01*
X117690000Y-70836443D01*
X117690000Y-70926000D01*
X117672687Y-70973566D01*
X117628850Y-70998876D01*
X117616000Y-71000000D01*
X117023999Y-71000000D01*
X116976433Y-70982687D01*
X116951123Y-70938850D01*
X116949999Y-70926000D01*
X116949999Y-70836444D01*
X116949731Y-70831995D01*
X116940210Y-70753313D01*
X116937890Y-70744175D01*
X116888544Y-70619539D01*
X116883640Y-70610836D01*
X116802770Y-70504296D01*
X116795704Y-70497230D01*
X116689164Y-70416360D01*
X116680461Y-70411456D01*
X116555826Y-70362111D01*
X116546687Y-70359790D01*
X116468005Y-70350268D01*
X116463557Y-70350000D01*
X116138048Y-70350000D01*
X116128052Y-70353638D01*
X116125000Y-70358925D01*
X116125000Y-71000000D01*
X115975000Y-71000000D01*
X115975000Y-70363049D01*
X115971362Y-70353053D01*
X115966075Y-70350001D01*
X115636444Y-70350001D01*
X115631995Y-70350269D01*
X115553313Y-70359790D01*
X115544175Y-70362110D01*
X115419539Y-70411456D01*
X115410836Y-70416360D01*
X115304296Y-70497230D01*
X115297230Y-70504296D01*
X115216360Y-70610836D01*
X115211456Y-70619539D01*
X115162111Y-70744174D01*
X115159790Y-70753313D01*
X115150268Y-70831995D01*
X115150000Y-70836443D01*
X115150000Y-70926000D01*
X115132687Y-70973566D01*
X115088850Y-70998876D01*
X115076000Y-71000000D01*
X114588499Y-71000000D01*
X114540933Y-70982687D01*
X114515623Y-70938850D01*
X114514499Y-70926000D01*
X114514499Y-70811434D01*
X114511691Y-70775742D01*
X114467318Y-70623008D01*
X114460120Y-70610836D01*
X114388727Y-70490118D01*
X114386356Y-70486109D01*
X114273891Y-70373644D01*
X114234366Y-70350269D01*
X114141000Y-70295052D01*
X114140998Y-70295051D01*
X114136992Y-70292682D01*
X113984258Y-70248309D01*
X113980493Y-70248013D01*
X113980489Y-70248012D01*
X113960584Y-70246446D01*
X113948567Y-70245500D01*
X113914700Y-70245500D01*
X113867134Y-70228187D01*
X113841824Y-70184350D01*
X113840700Y-70171500D01*
X113840700Y-61927669D01*
X113840982Y-61921220D01*
X113843959Y-61887186D01*
X113844524Y-61880733D01*
X113842848Y-61874476D01*
X113834006Y-61841475D01*
X113832609Y-61835175D01*
X113826675Y-61801525D01*
X113825551Y-61795149D01*
X113822312Y-61789539D01*
X113820841Y-61785497D01*
X113817831Y-61778231D01*
X113816016Y-61774339D01*
X113814340Y-61768083D01*
X113791019Y-61734778D01*
X113787559Y-61729346D01*
X113770475Y-61699755D01*
X113770473Y-61699753D01*
X113767239Y-61694151D01*
X113762283Y-61689992D01*
X113762281Y-61689990D01*
X113736107Y-61668028D01*
X113731347Y-61663667D01*
X113172956Y-61105276D01*
X113151564Y-61059400D01*
X113164665Y-61010505D01*
X113206129Y-60981471D01*
X113242717Y-60981472D01*
X113244047Y-60982023D01*
X113248849Y-60982655D01*
X113248852Y-60982656D01*
X113395192Y-61001922D01*
X113400000Y-61002555D01*
X113404808Y-61001922D01*
X113551145Y-60982656D01*
X113555953Y-60982023D01*
X113701278Y-60921828D01*
X113826071Y-60826071D01*
X113859694Y-60782252D01*
X113918876Y-60705125D01*
X113918878Y-60705122D01*
X113921828Y-60701277D01*
X113982023Y-60555953D01*
X113985618Y-60528653D01*
X114001922Y-60404808D01*
X114002555Y-60400000D01*
X113997045Y-60358150D01*
X113982656Y-60248852D01*
X113982655Y-60248849D01*
X113982023Y-60244047D01*
X113921828Y-60098723D01*
X113918878Y-60094878D01*
X113918876Y-60094875D01*
X113829026Y-59977780D01*
X113826071Y-59973929D01*
X113701278Y-59878172D01*
X113555953Y-59817977D01*
X113400000Y-59797445D01*
X113316996Y-59808373D01*
X113267578Y-59797417D01*
X113255012Y-59787332D01*
X111996333Y-58528653D01*
X111991972Y-58523893D01*
X111970013Y-58497723D01*
X111970012Y-58497722D01*
X111965849Y-58492761D01*
X111930654Y-58472440D01*
X111925211Y-58468973D01*
X111897220Y-58449374D01*
X111891916Y-58445660D01*
X111885660Y-58443984D01*
X111881756Y-58442163D01*
X111874517Y-58439164D01*
X111870460Y-58437687D01*
X111864851Y-58434449D01*
X111824826Y-58427391D01*
X111818523Y-58425994D01*
X111785522Y-58417152D01*
X111779267Y-58415476D01*
X111741121Y-58418813D01*
X111738780Y-58419018D01*
X111732331Y-58419300D01*
X111712538Y-58419300D01*
X111664972Y-58401987D01*
X111639662Y-58358150D01*
X111648452Y-58308300D01*
X111660212Y-58292974D01*
X111736022Y-58217164D01*
X111742787Y-58207853D01*
X111795019Y-58105342D01*
X111798577Y-58094393D01*
X111812045Y-58009354D01*
X111812500Y-58003572D01*
X111812500Y-57588048D01*
X111808862Y-57578052D01*
X111803575Y-57575000D01*
X110350549Y-57575000D01*
X110340553Y-57578638D01*
X110337501Y-57583925D01*
X110337501Y-58003571D01*
X110337956Y-58009354D01*
X110351424Y-58094394D01*
X110354981Y-58105340D01*
X110407213Y-58207853D01*
X110413978Y-58217164D01*
X110489788Y-58292974D01*
X110511180Y-58338850D01*
X110498079Y-58387745D01*
X110456615Y-58416779D01*
X110437462Y-58419300D01*
X110087227Y-58419300D01*
X110039661Y-58401987D01*
X110014351Y-58358150D01*
X110024232Y-58306473D01*
X110027357Y-58301404D01*
X110027362Y-58301392D01*
X110029615Y-58297738D01*
X110085297Y-58129861D01*
X110096000Y-58025400D01*
X110096000Y-57411952D01*
X110337500Y-57411952D01*
X110341138Y-57421948D01*
X110346425Y-57425000D01*
X110986952Y-57425000D01*
X110996948Y-57421362D01*
X111000000Y-57416075D01*
X111000000Y-57411952D01*
X111150000Y-57411952D01*
X111153638Y-57421948D01*
X111158925Y-57425000D01*
X111799451Y-57425000D01*
X111809447Y-57421362D01*
X111812499Y-57416075D01*
X111812499Y-56996429D01*
X111812044Y-56990646D01*
X111798576Y-56905606D01*
X111795019Y-56894660D01*
X111742787Y-56792147D01*
X111736022Y-56782836D01*
X111654664Y-56701478D01*
X111645353Y-56694713D01*
X111542842Y-56642481D01*
X111531893Y-56638923D01*
X111446854Y-56625455D01*
X111441072Y-56625000D01*
X111163048Y-56625000D01*
X111153052Y-56628638D01*
X111150000Y-56633925D01*
X111150000Y-57411952D01*
X111000000Y-57411952D01*
X111000000Y-56638049D01*
X110996362Y-56628053D01*
X110991075Y-56625001D01*
X110708929Y-56625001D01*
X110703146Y-56625456D01*
X110618106Y-56638924D01*
X110607160Y-56642481D01*
X110504647Y-56694713D01*
X110495336Y-56701478D01*
X110413978Y-56782836D01*
X110407213Y-56792147D01*
X110354981Y-56894658D01*
X110351423Y-56905607D01*
X110337955Y-56990646D01*
X110337500Y-56996428D01*
X110337500Y-57411952D01*
X110096000Y-57411952D01*
X110096000Y-56974600D01*
X110085026Y-56868834D01*
X110029050Y-56701054D01*
X109987509Y-56633925D01*
X109938242Y-56554310D01*
X109938240Y-56554308D01*
X109935978Y-56550652D01*
X109898901Y-56513639D01*
X109832625Y-56447479D01*
X109810803Y-56425695D01*
X109807142Y-56423438D01*
X109797670Y-56417599D01*
X109766263Y-56377901D01*
X109762500Y-56354605D01*
X109762500Y-56352697D01*
X109778991Y-56308353D01*
X109778057Y-56307694D01*
X109780146Y-56304733D01*
X109782507Y-56301998D01*
X109784289Y-56298862D01*
X109784292Y-56298857D01*
X109852014Y-56179642D01*
X109874821Y-56139495D01*
X109875963Y-56136063D01*
X109932671Y-55965594D01*
X109932672Y-55965591D01*
X109933814Y-55962157D01*
X109957238Y-55776738D01*
X109957611Y-55750000D01*
X109939373Y-55563999D01*
X109935419Y-55550901D01*
X109920738Y-55502277D01*
X109885355Y-55385083D01*
X109797615Y-55220066D01*
X109679493Y-55075235D01*
X109535489Y-54956105D01*
X109518704Y-54947029D01*
X109374272Y-54868935D01*
X109371089Y-54867214D01*
X109367638Y-54866146D01*
X109367634Y-54866144D01*
X109254652Y-54831171D01*
X109192554Y-54811948D01*
X109006685Y-54792412D01*
X108820562Y-54809351D01*
X108777085Y-54822147D01*
X108644744Y-54861097D01*
X108644740Y-54861099D01*
X108641273Y-54862119D01*
X108475647Y-54948705D01*
X108329995Y-55065813D01*
X108327669Y-55068585D01*
X108327667Y-55068587D01*
X108212189Y-55206207D01*
X108212186Y-55206211D01*
X108209862Y-55208981D01*
X108119826Y-55372757D01*
X108118734Y-55376200D01*
X108118733Y-55376202D01*
X108070207Y-55529176D01*
X108063315Y-55550901D01*
X108062912Y-55554497D01*
X108062911Y-55554500D01*
X108055096Y-55624172D01*
X108042482Y-55736630D01*
X108042785Y-55740239D01*
X108042785Y-55740241D01*
X108055932Y-55896803D01*
X108058121Y-55922867D01*
X108069548Y-55962716D01*
X108104048Y-56083031D01*
X108109636Y-56102520D01*
X108111288Y-56105734D01*
X108111289Y-56105737D01*
X108180609Y-56240620D01*
X108195064Y-56268746D01*
X108210309Y-56287980D01*
X108221493Y-56302091D01*
X108237500Y-56348056D01*
X108237500Y-56354754D01*
X108220187Y-56402320D01*
X108202441Y-56417679D01*
X108191813Y-56424256D01*
X108191810Y-56424258D01*
X108188152Y-56426522D01*
X108063195Y-56551697D01*
X108060937Y-56555360D01*
X108042707Y-56584934D01*
X107970385Y-56702262D01*
X107914703Y-56870139D01*
X107914292Y-56874153D01*
X107904387Y-56970826D01*
X107904000Y-56974600D01*
X107904000Y-57040500D01*
X107886687Y-57088066D01*
X107842850Y-57113376D01*
X107830000Y-57114500D01*
X107781110Y-57114500D01*
X107733544Y-57097187D01*
X107708532Y-57054935D01*
X107700477Y-57014436D01*
X107700477Y-56985564D01*
X107702279Y-56976508D01*
X107714500Y-56915067D01*
X107714499Y-56584934D01*
X107700477Y-56514435D01*
X107700477Y-56485564D01*
X107713790Y-56418637D01*
X107713790Y-56418636D01*
X107714500Y-56415067D01*
X107714499Y-56084934D01*
X107700477Y-56014435D01*
X107700477Y-55985564D01*
X107704450Y-55965594D01*
X107712160Y-55926830D01*
X107713790Y-55918637D01*
X107713790Y-55918636D01*
X107714500Y-55915067D01*
X107714499Y-55584934D01*
X107712326Y-55574006D01*
X107703409Y-55529176D01*
X107700477Y-55514435D01*
X107700477Y-55485564D01*
X107700478Y-55485563D01*
X107714500Y-55415067D01*
X107714499Y-55084934D01*
X107700477Y-55014435D01*
X107700477Y-54985564D01*
X107700478Y-54985563D01*
X107710645Y-54934449D01*
X107713790Y-54918637D01*
X107713790Y-54918636D01*
X107714500Y-54915067D01*
X107714499Y-54584934D01*
X107710933Y-54567002D01*
X107708561Y-54555077D01*
X107700477Y-54514435D01*
X107700477Y-54485564D01*
X107701679Y-54479524D01*
X107714500Y-54415067D01*
X107714499Y-54181060D01*
X116545167Y-54181060D01*
X116584929Y-54553121D01*
X116664641Y-54918711D01*
X116716241Y-55072928D01*
X116762824Y-55212150D01*
X116783369Y-55273554D01*
X116784201Y-55275363D01*
X116784203Y-55275368D01*
X116926620Y-55585003D01*
X116939727Y-55613499D01*
X116940747Y-55615202D01*
X116940751Y-55615211D01*
X116992801Y-55702180D01*
X117131883Y-55934569D01*
X117133086Y-55936160D01*
X117133091Y-55936167D01*
X117232531Y-56067650D01*
X117357591Y-56233009D01*
X117358961Y-56234463D01*
X117358962Y-56234464D01*
X117577747Y-56466632D01*
X117614210Y-56505326D01*
X117615738Y-56506631D01*
X117615739Y-56506632D01*
X117839096Y-56697397D01*
X117898738Y-56748336D01*
X117900386Y-56749460D01*
X117900391Y-56749464D01*
X117929470Y-56769300D01*
X118207847Y-56959196D01*
X118537921Y-57135439D01*
X118711509Y-57205221D01*
X118883244Y-57274258D01*
X118883249Y-57274260D01*
X118885098Y-57275003D01*
X118887019Y-57275543D01*
X118887025Y-57275545D01*
X119243391Y-57375715D01*
X119243397Y-57375716D01*
X119245317Y-57376256D01*
X119247285Y-57376585D01*
X119247288Y-57376586D01*
X119390945Y-57400626D01*
X119614365Y-57438014D01*
X119761700Y-57446509D01*
X119899222Y-57454439D01*
X119899238Y-57454439D01*
X119900288Y-57454500D01*
X120093690Y-57454500D01*
X120221020Y-57447604D01*
X120371629Y-57439448D01*
X120371639Y-57439447D01*
X120373632Y-57439339D01*
X120380991Y-57438134D01*
X120426387Y-57430700D01*
X120742893Y-57378870D01*
X121103463Y-57278875D01*
X121451126Y-57140523D01*
X121556116Y-57084934D01*
X121780046Y-56966369D01*
X121780045Y-56966369D01*
X121781812Y-56965434D01*
X121791026Y-56959196D01*
X121878208Y-56900169D01*
X122091655Y-56755654D01*
X122377030Y-56513639D01*
X122634598Y-56242219D01*
X122861346Y-55944569D01*
X122862374Y-55942864D01*
X122862380Y-55942856D01*
X123053594Y-55625879D01*
X123053599Y-55625869D01*
X123054623Y-55624172D01*
X123212165Y-55284775D01*
X123278576Y-55088573D01*
X123331491Y-54932243D01*
X123331493Y-54932236D01*
X123332132Y-54930348D01*
X123334290Y-54920614D01*
X123412684Y-54567002D01*
X123412685Y-54566995D01*
X123413119Y-54565038D01*
X123454180Y-54193119D01*
X123454833Y-53818940D01*
X123415071Y-53446879D01*
X123335359Y-53081289D01*
X123250628Y-52828052D01*
X123217266Y-52728343D01*
X123217264Y-52728338D01*
X123216631Y-52726446D01*
X123214688Y-52722220D01*
X123061106Y-52388312D01*
X123060273Y-52386501D01*
X123059253Y-52384798D01*
X123059249Y-52384789D01*
X122918043Y-52148852D01*
X122868117Y-52065431D01*
X122866914Y-52063840D01*
X122866909Y-52063833D01*
X122650865Y-51778172D01*
X122642409Y-51766991D01*
X122632358Y-51756325D01*
X122387167Y-51496135D01*
X122387165Y-51496133D01*
X122385790Y-51494674D01*
X122355174Y-51468525D01*
X122102783Y-51252963D01*
X122102782Y-51252963D01*
X122101262Y-51251664D01*
X122099614Y-51250540D01*
X122099609Y-51250536D01*
X121813850Y-51055605D01*
X121792153Y-51040804D01*
X121462079Y-50864561D01*
X121242560Y-50776315D01*
X121116756Y-50725742D01*
X121116751Y-50725740D01*
X121114902Y-50724997D01*
X121112981Y-50724457D01*
X121112975Y-50724455D01*
X120756609Y-50624285D01*
X120756603Y-50624284D01*
X120754683Y-50623744D01*
X120752715Y-50623415D01*
X120752712Y-50623414D01*
X120567883Y-50592484D01*
X120385635Y-50561986D01*
X120238300Y-50553491D01*
X120100778Y-50545561D01*
X120100762Y-50545561D01*
X120099712Y-50545500D01*
X119906310Y-50545500D01*
X119778980Y-50552396D01*
X119628371Y-50560552D01*
X119628361Y-50560553D01*
X119626368Y-50560661D01*
X119624384Y-50560986D01*
X119624383Y-50560986D01*
X119616255Y-50562317D01*
X119257107Y-50621130D01*
X118896537Y-50721125D01*
X118548874Y-50859477D01*
X118547106Y-50860413D01*
X118547104Y-50860414D01*
X118316091Y-50982729D01*
X118218188Y-51034566D01*
X118216529Y-51035689D01*
X118216526Y-51035691D01*
X118121792Y-51099831D01*
X117908345Y-51244346D01*
X117622970Y-51486361D01*
X117365402Y-51757781D01*
X117138654Y-52055431D01*
X117137626Y-52057136D01*
X117137620Y-52057144D01*
X116946406Y-52374121D01*
X116946401Y-52374131D01*
X116945377Y-52375828D01*
X116940423Y-52386501D01*
X116810650Y-52666075D01*
X116787835Y-52715225D01*
X116787191Y-52717128D01*
X116676072Y-53045415D01*
X116667868Y-53069652D01*
X116667436Y-53071602D01*
X116667434Y-53071608D01*
X116588684Y-53426830D01*
X116586881Y-53434962D01*
X116545820Y-53806881D01*
X116545167Y-54181060D01*
X107714499Y-54181060D01*
X107714499Y-54084934D01*
X107700477Y-54014435D01*
X107700477Y-53985564D01*
X107713790Y-53918637D01*
X107713790Y-53918636D01*
X107714500Y-53915067D01*
X107714499Y-53584934D01*
X107703305Y-53528653D01*
X107701156Y-53517848D01*
X107699734Y-53510699D01*
X107643484Y-53426516D01*
X107637424Y-53422467D01*
X107632272Y-53417315D01*
X107634672Y-53414915D01*
X107612954Y-53385288D01*
X107610000Y-53364589D01*
X107610000Y-53338048D01*
X107606362Y-53328052D01*
X107601075Y-53325000D01*
X105783049Y-53325000D01*
X105773053Y-53328638D01*
X105770001Y-53333925D01*
X105770001Y-53345300D01*
X105752688Y-53392866D01*
X105708851Y-53418176D01*
X105696001Y-53419300D01*
X105637269Y-53419300D01*
X105630820Y-53419018D01*
X105628479Y-53418813D01*
X105590333Y-53415476D01*
X105584078Y-53417152D01*
X105551077Y-53425994D01*
X105544774Y-53427391D01*
X105504749Y-53434449D01*
X105499140Y-53437687D01*
X105495083Y-53439164D01*
X105487844Y-53442163D01*
X105483940Y-53443984D01*
X105477684Y-53445660D01*
X105472380Y-53449374D01*
X105444389Y-53468973D01*
X105438946Y-53472440D01*
X105403751Y-53492761D01*
X105399588Y-53497722D01*
X105399587Y-53497723D01*
X105377628Y-53523893D01*
X105373267Y-53528653D01*
X101578653Y-57323267D01*
X101573893Y-57327628D01*
X101542761Y-57353751D01*
X101528072Y-57379193D01*
X101522440Y-57388947D01*
X101518973Y-57394389D01*
X101509557Y-57407837D01*
X101495660Y-57427684D01*
X101493984Y-57433940D01*
X101492163Y-57437844D01*
X101489164Y-57445083D01*
X101487687Y-57449140D01*
X101484449Y-57454749D01*
X101483325Y-57461125D01*
X101477391Y-57494776D01*
X101475994Y-57501077D01*
X101465476Y-57540333D01*
X101466041Y-57546786D01*
X101469018Y-57580820D01*
X101469300Y-57587269D01*
X101469300Y-63482331D01*
X101469018Y-63488780D01*
X101465476Y-63529267D01*
X101467152Y-63535522D01*
X101475994Y-63568523D01*
X101477391Y-63574824D01*
X101484449Y-63614851D01*
X101487687Y-63620460D01*
X101489164Y-63624517D01*
X101492163Y-63631756D01*
X101493984Y-63635660D01*
X101495660Y-63641916D01*
X101499374Y-63647220D01*
X101518973Y-63675211D01*
X101522440Y-63680653D01*
X101542761Y-63715849D01*
X101547722Y-63720012D01*
X101547723Y-63720013D01*
X101573893Y-63741972D01*
X101578653Y-63746333D01*
X103540866Y-65708546D01*
X103562258Y-65754422D01*
X103549157Y-65803317D01*
X103516858Y-65829239D01*
X103403204Y-65876315D01*
X103403198Y-65876318D01*
X103398723Y-65878172D01*
X103394878Y-65881122D01*
X103394875Y-65881124D01*
X103277780Y-65970974D01*
X103273929Y-65973929D01*
X103270974Y-65977780D01*
X103181124Y-66094875D01*
X103181122Y-66094878D01*
X103178172Y-66098723D01*
X103117977Y-66244047D01*
X103117345Y-66248849D01*
X103117344Y-66248852D01*
X103103244Y-66355953D01*
X103097445Y-66400000D01*
X103098078Y-66404808D01*
X103108025Y-66480362D01*
X103097069Y-66529781D01*
X103095630Y-66531744D01*
X103092761Y-66534151D01*
X103089524Y-66539758D01*
X103072440Y-66569347D01*
X103068973Y-66574789D01*
X103053933Y-66596269D01*
X103045660Y-66608084D01*
X103043984Y-66614340D01*
X103042163Y-66618244D01*
X103039164Y-66625483D01*
X103037687Y-66629540D01*
X103034449Y-66635149D01*
X103033325Y-66641525D01*
X103027391Y-66675176D01*
X103025994Y-66681477D01*
X103015476Y-66720733D01*
X103017329Y-66741916D01*
X103019018Y-66761220D01*
X103019300Y-66767669D01*
X103019300Y-70171501D01*
X103001987Y-70219067D01*
X102958150Y-70244377D01*
X102945300Y-70245501D01*
X102911434Y-70245501D01*
X102909986Y-70245615D01*
X102909984Y-70245615D01*
X102904691Y-70246031D01*
X102875742Y-70248309D01*
X102723008Y-70292682D01*
X102719002Y-70295051D01*
X102719000Y-70295052D01*
X102625634Y-70350269D01*
X102586109Y-70373644D01*
X102473644Y-70486109D01*
X102471273Y-70490118D01*
X102399881Y-70610836D01*
X102392682Y-70623008D01*
X102348309Y-70775742D01*
X102348013Y-70779507D01*
X102348012Y-70779511D01*
X102346446Y-70799416D01*
X102345500Y-70811433D01*
X102345500Y-70926000D01*
X102328187Y-70973566D01*
X102284350Y-70998876D01*
X102271500Y-71000000D01*
X101888499Y-71000000D01*
X101840933Y-70982687D01*
X101815623Y-70938850D01*
X101814499Y-70926000D01*
X101814499Y-70811434D01*
X101811691Y-70775742D01*
X101767318Y-70623008D01*
X101760120Y-70610836D01*
X101688727Y-70490118D01*
X101686356Y-70486109D01*
X101573891Y-70373644D01*
X101534366Y-70350269D01*
X101441000Y-70295052D01*
X101440998Y-70295051D01*
X101436992Y-70292682D01*
X101284258Y-70248309D01*
X101280493Y-70248013D01*
X101280489Y-70248012D01*
X101260584Y-70246446D01*
X101248567Y-70245500D01*
X101214700Y-70245500D01*
X101167134Y-70228187D01*
X101141824Y-70184350D01*
X101140700Y-70171500D01*
X101140700Y-67127669D01*
X101140982Y-67121220D01*
X101143959Y-67087186D01*
X101144524Y-67080733D01*
X101134006Y-67041477D01*
X101132609Y-67035176D01*
X101130361Y-67022426D01*
X101125551Y-66995149D01*
X101122313Y-66989540D01*
X101120836Y-66985483D01*
X101117837Y-66978244D01*
X101116016Y-66974340D01*
X101114340Y-66968084D01*
X101099036Y-66946227D01*
X101091027Y-66934789D01*
X101087560Y-66929347D01*
X101070476Y-66899758D01*
X101067239Y-66894151D01*
X101036107Y-66868028D01*
X101031347Y-66863667D01*
X98919433Y-64751753D01*
X98915072Y-64746993D01*
X98893113Y-64720823D01*
X98893112Y-64720822D01*
X98888949Y-64715861D01*
X98853754Y-64695540D01*
X98848311Y-64692073D01*
X98820320Y-64672474D01*
X98815016Y-64668760D01*
X98808760Y-64667084D01*
X98804856Y-64665263D01*
X98797617Y-64662264D01*
X98793560Y-64660787D01*
X98787951Y-64657549D01*
X98747926Y-64650491D01*
X98741623Y-64649094D01*
X98708622Y-64640252D01*
X98702367Y-64638576D01*
X98664221Y-64641913D01*
X98661880Y-64642118D01*
X98655431Y-64642400D01*
X96203932Y-64642400D01*
X96156366Y-64625087D01*
X96131056Y-64581250D01*
X96139846Y-64531400D01*
X96151606Y-64516074D01*
X97155012Y-63512668D01*
X97200888Y-63491276D01*
X97216994Y-63491627D01*
X97300000Y-63502555D01*
X97304808Y-63501922D01*
X97451145Y-63482656D01*
X97455953Y-63482023D01*
X97601278Y-63421828D01*
X97726071Y-63326071D01*
X97769849Y-63269018D01*
X97818876Y-63205125D01*
X97818878Y-63205122D01*
X97821828Y-63201277D01*
X97882023Y-63055953D01*
X97883411Y-63045415D01*
X97901922Y-62904808D01*
X97902555Y-62900000D01*
X97882023Y-62744047D01*
X97821828Y-62598723D01*
X97818878Y-62594878D01*
X97818876Y-62594875D01*
X97729026Y-62477780D01*
X97726071Y-62473929D01*
X97601278Y-62378172D01*
X97455953Y-62317977D01*
X97300000Y-62297445D01*
X97295192Y-62298078D01*
X97148852Y-62317344D01*
X97148849Y-62317345D01*
X97144047Y-62317977D01*
X96998723Y-62378172D01*
X96994878Y-62381122D01*
X96994875Y-62381124D01*
X96899139Y-62454585D01*
X96873929Y-62473929D01*
X96870974Y-62477780D01*
X96781124Y-62594875D01*
X96781122Y-62594878D01*
X96778172Y-62598723D01*
X96717977Y-62744047D01*
X96697445Y-62900000D01*
X96704632Y-62954585D01*
X96708373Y-62983003D01*
X96697417Y-63032422D01*
X96687332Y-63044988D01*
X95784694Y-63947626D01*
X95738818Y-63969018D01*
X95732368Y-63969300D01*
X95280512Y-63969300D01*
X95232946Y-63951987D01*
X95207636Y-63908150D01*
X95216426Y-63858300D01*
X95223821Y-63847739D01*
X95241983Y-63826094D01*
X95246333Y-63821347D01*
X95555012Y-63512668D01*
X95600888Y-63491276D01*
X95616994Y-63491627D01*
X95700000Y-63502555D01*
X95704808Y-63501922D01*
X95851145Y-63482656D01*
X95855953Y-63482023D01*
X96001278Y-63421828D01*
X96126071Y-63326071D01*
X96169849Y-63269018D01*
X96218876Y-63205125D01*
X96218878Y-63205122D01*
X96221828Y-63201277D01*
X96282023Y-63055953D01*
X96283411Y-63045415D01*
X96301922Y-62904808D01*
X96302555Y-62900000D01*
X96282023Y-62744047D01*
X96221828Y-62598723D01*
X96218878Y-62594878D01*
X96218876Y-62594875D01*
X96129026Y-62477780D01*
X96126071Y-62473929D01*
X96001278Y-62378172D01*
X95855953Y-62317977D01*
X95700000Y-62297445D01*
X95695192Y-62298078D01*
X95548852Y-62317344D01*
X95548849Y-62317345D01*
X95544047Y-62317977D01*
X95398723Y-62378172D01*
X95394878Y-62381122D01*
X95394875Y-62381124D01*
X95299139Y-62454585D01*
X95273929Y-62473929D01*
X95270974Y-62477780D01*
X95181124Y-62594875D01*
X95181122Y-62594878D01*
X95178172Y-62598723D01*
X95117977Y-62744047D01*
X95097445Y-62900000D01*
X95104632Y-62954585D01*
X95108373Y-62983003D01*
X95097417Y-63032422D01*
X95087332Y-63044988D01*
X94884694Y-63247626D01*
X94838818Y-63269018D01*
X94832368Y-63269300D01*
X92404401Y-63269300D01*
X92356835Y-63251987D01*
X92331525Y-63208150D01*
X92336034Y-63166982D01*
X92380167Y-63060434D01*
X92380168Y-63060431D01*
X92382023Y-63055953D01*
X92383411Y-63045415D01*
X92401922Y-62904808D01*
X92402555Y-62900000D01*
X92382023Y-62744047D01*
X92321828Y-62598723D01*
X92318878Y-62594878D01*
X92318876Y-62594875D01*
X92229026Y-62477780D01*
X92226071Y-62473929D01*
X92101278Y-62378172D01*
X91955953Y-62317977D01*
X91800000Y-62297445D01*
X91795192Y-62298078D01*
X91648852Y-62317344D01*
X91648849Y-62317345D01*
X91644047Y-62317977D01*
X91498723Y-62378172D01*
X91494878Y-62381122D01*
X91494875Y-62381124D01*
X91399139Y-62454585D01*
X91373929Y-62473929D01*
X91370974Y-62477780D01*
X91322964Y-62540348D01*
X91280273Y-62567546D01*
X91264256Y-62569300D01*
X90042956Y-62569300D01*
X89995390Y-62551987D01*
X89970080Y-62508150D01*
X89978870Y-62458300D01*
X89984248Y-62450252D01*
X89991058Y-62441378D01*
X90021828Y-62401277D01*
X90082023Y-62255953D01*
X90096697Y-62144499D01*
X90101922Y-62104808D01*
X90102555Y-62100000D01*
X90098761Y-62071182D01*
X90082656Y-61948852D01*
X90082655Y-61948849D01*
X90082023Y-61944047D01*
X90021828Y-61798723D01*
X90018878Y-61794878D01*
X90018876Y-61794875D01*
X89929026Y-61677780D01*
X89926071Y-61673929D01*
X89801278Y-61578172D01*
X89655953Y-61517977D01*
X89500000Y-61497445D01*
X89495192Y-61498078D01*
X89419638Y-61508025D01*
X89370219Y-61497069D01*
X89368256Y-61495630D01*
X89365849Y-61492761D01*
X89330654Y-61472440D01*
X89325211Y-61468973D01*
X89297220Y-61449374D01*
X89291916Y-61445660D01*
X89285660Y-61443984D01*
X89281756Y-61442163D01*
X89274517Y-61439164D01*
X89270460Y-61437687D01*
X89264851Y-61434449D01*
X89224826Y-61427391D01*
X89218523Y-61425994D01*
X89185522Y-61417152D01*
X89179267Y-61415476D01*
X89141121Y-61418813D01*
X89138780Y-61419018D01*
X89132331Y-61419300D01*
X88408500Y-61419300D01*
X88360934Y-61401987D01*
X88335624Y-61358150D01*
X88334500Y-61345300D01*
X88334499Y-61088575D01*
X88334499Y-61084934D01*
X88320477Y-61014435D01*
X88320477Y-60985564D01*
X88320478Y-60985563D01*
X88334500Y-60915067D01*
X88334499Y-60584934D01*
X88320477Y-60514435D01*
X88320477Y-60485564D01*
X88320478Y-60485563D01*
X88332160Y-60426830D01*
X88333790Y-60418637D01*
X88333790Y-60418636D01*
X88334500Y-60415067D01*
X88334499Y-60154699D01*
X88351812Y-60107134D01*
X88395649Y-60081824D01*
X88408499Y-60080700D01*
X88484250Y-60080700D01*
X88531816Y-60098013D01*
X88557126Y-60141850D01*
X88552617Y-60183018D01*
X88517977Y-60266647D01*
X88517345Y-60271449D01*
X88517344Y-60271452D01*
X88513469Y-60300888D01*
X88497445Y-60422600D01*
X88498078Y-60427408D01*
X88515002Y-60555953D01*
X88517977Y-60578553D01*
X88578172Y-60723877D01*
X88581122Y-60727722D01*
X88581124Y-60727725D01*
X88658855Y-60829026D01*
X88673929Y-60848671D01*
X88798722Y-60944428D01*
X88944047Y-61004623D01*
X89100000Y-61025155D01*
X89104808Y-61024522D01*
X89251145Y-61005256D01*
X89255953Y-61004623D01*
X89401278Y-60944428D01*
X89526071Y-60848671D01*
X89541145Y-60829026D01*
X89577036Y-60782252D01*
X89619727Y-60755054D01*
X89635744Y-60753300D01*
X92259731Y-60753300D01*
X92266181Y-60753582D01*
X92306667Y-60757124D01*
X92320939Y-60753300D01*
X92345923Y-60746606D01*
X92352224Y-60745209D01*
X92359753Y-60743881D01*
X92392251Y-60738151D01*
X92397860Y-60734913D01*
X92401917Y-60733436D01*
X92409156Y-60730437D01*
X92413060Y-60728616D01*
X92419316Y-60726940D01*
X92431131Y-60718667D01*
X92452611Y-60703627D01*
X92458053Y-60700160D01*
X92487642Y-60683076D01*
X92493249Y-60679839D01*
X92519372Y-60648707D01*
X92523733Y-60643947D01*
X100005729Y-53161952D01*
X105770000Y-53161952D01*
X105773638Y-53171948D01*
X105778925Y-53175000D01*
X106601952Y-53175000D01*
X106611948Y-53171362D01*
X106615000Y-53166075D01*
X106615000Y-53161952D01*
X106765000Y-53161952D01*
X106768638Y-53171948D01*
X106773925Y-53175000D01*
X107596951Y-53175000D01*
X107606947Y-53171362D01*
X107609999Y-53166075D01*
X107609999Y-53098867D01*
X107609288Y-53091653D01*
X107602719Y-53058622D01*
X107597248Y-53045413D01*
X107594374Y-53041112D01*
X107582343Y-52991944D01*
X107594374Y-52958888D01*
X107597249Y-52954585D01*
X107602719Y-52941380D01*
X107609290Y-52908345D01*
X107610000Y-52901135D01*
X107610000Y-52838048D01*
X107606362Y-52828052D01*
X107601075Y-52825000D01*
X106778048Y-52825000D01*
X106768052Y-52828638D01*
X106765000Y-52833925D01*
X106765000Y-53161952D01*
X106615000Y-53161952D01*
X106615000Y-52838048D01*
X106611362Y-52828052D01*
X106606075Y-52825000D01*
X105783049Y-52825000D01*
X105773053Y-52828638D01*
X105770001Y-52833925D01*
X105770001Y-52901133D01*
X105770712Y-52908347D01*
X105777281Y-52941378D01*
X105782752Y-52954587D01*
X105785626Y-52958888D01*
X105797657Y-53008056D01*
X105785626Y-53041112D01*
X105782751Y-53045415D01*
X105777281Y-53058620D01*
X105770710Y-53091655D01*
X105770000Y-53098865D01*
X105770000Y-53161952D01*
X100005729Y-53161952D01*
X100565307Y-52602374D01*
X100611183Y-52580982D01*
X100617633Y-52580700D01*
X105696000Y-52580700D01*
X105743566Y-52598013D01*
X105768876Y-52641850D01*
X105770000Y-52654700D01*
X105770000Y-52661952D01*
X105773638Y-52671948D01*
X105778925Y-52675000D01*
X107596951Y-52675000D01*
X107606947Y-52671362D01*
X107609999Y-52666075D01*
X107609999Y-52635412D01*
X107627312Y-52587846D01*
X107632647Y-52583062D01*
X107632271Y-52582686D01*
X107637424Y-52577533D01*
X107643484Y-52573484D01*
X107699734Y-52489301D01*
X107714500Y-52415067D01*
X107714499Y-52084934D01*
X107703304Y-52028647D01*
X107701156Y-52017848D01*
X107699734Y-52010699D01*
X107643484Y-51926516D01*
X107559301Y-51870266D01*
X107543229Y-51867069D01*
X107488637Y-51856210D01*
X107488636Y-51856210D01*
X107485067Y-51855500D01*
X106690110Y-51855500D01*
X105894934Y-51855501D01*
X105820699Y-51870266D01*
X105814640Y-51874315D01*
X105814639Y-51874315D01*
X105765979Y-51906829D01*
X105724867Y-51919300D01*
X100467669Y-51919300D01*
X100461220Y-51919018D01*
X100458879Y-51918813D01*
X100420733Y-51915476D01*
X100414478Y-51917152D01*
X100381477Y-51925994D01*
X100375174Y-51927391D01*
X100335149Y-51934449D01*
X100329540Y-51937687D01*
X100325483Y-51939164D01*
X100318244Y-51942163D01*
X100314339Y-51943984D01*
X100308084Y-51945660D01*
X100302783Y-51949372D01*
X100302779Y-51949374D01*
X100274790Y-51968973D01*
X100269348Y-51972440D01*
X100269347Y-51972441D01*
X100269345Y-51972442D01*
X100239755Y-51989525D01*
X100239753Y-51989527D01*
X100234151Y-51992761D01*
X100229992Y-51997717D01*
X100229990Y-51997719D01*
X100208033Y-52023887D01*
X100203672Y-52028647D01*
X96180523Y-56051797D01*
X92162094Y-60070226D01*
X92116218Y-60091618D01*
X92109768Y-60091900D01*
X91554432Y-60091900D01*
X91506866Y-60074587D01*
X91481556Y-60030750D01*
X91490346Y-59980900D01*
X91502106Y-59965574D01*
X98544085Y-52923596D01*
X98589961Y-52902204D01*
X98595496Y-52901962D01*
X98600000Y-52902555D01*
X98604808Y-52901922D01*
X98751145Y-52882656D01*
X98755953Y-52882023D01*
X98901278Y-52821828D01*
X99026071Y-52726071D01*
X99067601Y-52671948D01*
X99118876Y-52605125D01*
X99118878Y-52605122D01*
X99121828Y-52601277D01*
X99182023Y-52455953D01*
X99182657Y-52451143D01*
X99201922Y-52304808D01*
X99202555Y-52300000D01*
X99182023Y-52144047D01*
X99121828Y-51998723D01*
X99118878Y-51994878D01*
X99118876Y-51994875D01*
X99029026Y-51877780D01*
X99026071Y-51873929D01*
X98901278Y-51778172D01*
X98755953Y-51717977D01*
X98749436Y-51717119D01*
X98634105Y-51701935D01*
X98589205Y-51678561D01*
X98569834Y-51631796D01*
X98585056Y-51583519D01*
X98591438Y-51576242D01*
X99621347Y-50546333D01*
X99626107Y-50541972D01*
X99652277Y-50520013D01*
X99652278Y-50520012D01*
X99657239Y-50515849D01*
X99677560Y-50480653D01*
X99681027Y-50475211D01*
X99700626Y-50447220D01*
X99704340Y-50441916D01*
X99706016Y-50435660D01*
X99707837Y-50431756D01*
X99710836Y-50424517D01*
X99712313Y-50420460D01*
X99715551Y-50414851D01*
X99722609Y-50374824D01*
X99724006Y-50368523D01*
X99732848Y-50335522D01*
X99734524Y-50329267D01*
X99730982Y-50288780D01*
X99730700Y-50282331D01*
X99730700Y-48741928D01*
X99748013Y-48694362D01*
X99776382Y-48673561D01*
X99867681Y-48635744D01*
X99901278Y-48621828D01*
X100026071Y-48526071D01*
X100029026Y-48522220D01*
X100118876Y-48405125D01*
X100118878Y-48405122D01*
X100121828Y-48401277D01*
X100182023Y-48255953D01*
X100202555Y-48100000D01*
X100182023Y-47944047D01*
X100121828Y-47798723D01*
X100118878Y-47794878D01*
X100118876Y-47794875D01*
X100029026Y-47677780D01*
X100026071Y-47673929D01*
X99901278Y-47578172D01*
X99755953Y-47517977D01*
X99600000Y-47497445D01*
X99595192Y-47498078D01*
X99448852Y-47517344D01*
X99448849Y-47517345D01*
X99444047Y-47517977D01*
X99298723Y-47578172D01*
X99294878Y-47581122D01*
X99294875Y-47581124D01*
X99177780Y-47670974D01*
X99173929Y-47673929D01*
X99170974Y-47677780D01*
X99081124Y-47794875D01*
X99081122Y-47794878D01*
X99078172Y-47798723D01*
X99017977Y-47944047D01*
X98997445Y-48100000D01*
X99017977Y-48255953D01*
X99019832Y-48260431D01*
X99019833Y-48260434D01*
X99061106Y-48360077D01*
X99066457Y-48381946D01*
X99069018Y-48411220D01*
X99069300Y-48417669D01*
X99069300Y-50132368D01*
X99051987Y-50179934D01*
X99047626Y-50184694D01*
X91334694Y-57897626D01*
X91288818Y-57919018D01*
X91282368Y-57919300D01*
X88662500Y-57919300D01*
X88614934Y-57901987D01*
X88589624Y-57858150D01*
X88588500Y-57845300D01*
X88588500Y-57561866D01*
X88583158Y-57512692D01*
X88595232Y-57463534D01*
X88636080Y-57433638D01*
X88656725Y-57430700D01*
X91382331Y-57430700D01*
X91388781Y-57430982D01*
X91429267Y-57434524D01*
X91443539Y-57430700D01*
X91468523Y-57424006D01*
X91474824Y-57422609D01*
X91482353Y-57421281D01*
X91514851Y-57415551D01*
X91520460Y-57412313D01*
X91524517Y-57410836D01*
X91531756Y-57407837D01*
X91535660Y-57406016D01*
X91541916Y-57404340D01*
X91563900Y-57388947D01*
X91575211Y-57381027D01*
X91580653Y-57377560D01*
X91610242Y-57360476D01*
X91615849Y-57357239D01*
X91641972Y-57326107D01*
X91646333Y-57321347D01*
X97321347Y-51646333D01*
X97326107Y-51641972D01*
X97352281Y-51620010D01*
X97352283Y-51620008D01*
X97357239Y-51615849D01*
X97377560Y-51580652D01*
X97381019Y-51575222D01*
X97404340Y-51541917D01*
X97406016Y-51535661D01*
X97407831Y-51531769D01*
X97410841Y-51524503D01*
X97412312Y-51520461D01*
X97415551Y-51514851D01*
X97422609Y-51474825D01*
X97424006Y-51468525D01*
X97432848Y-51435524D01*
X97432848Y-51435521D01*
X97434524Y-51429267D01*
X97430982Y-51388780D01*
X97430700Y-51382331D01*
X97430700Y-48635744D01*
X97448013Y-48588178D01*
X97459652Y-48577036D01*
X97522220Y-48529026D01*
X97526071Y-48526071D01*
X97529026Y-48522220D01*
X97618876Y-48405125D01*
X97618878Y-48405122D01*
X97621828Y-48401277D01*
X97682023Y-48255953D01*
X97702555Y-48100000D01*
X97682023Y-47944047D01*
X97621828Y-47798723D01*
X97618878Y-47794878D01*
X97618876Y-47794875D01*
X97529026Y-47677780D01*
X97526071Y-47673929D01*
X97401278Y-47578172D01*
X97255953Y-47517977D01*
X97100000Y-47497445D01*
X97095192Y-47498078D01*
X96948852Y-47517344D01*
X96948849Y-47517345D01*
X96944047Y-47517977D01*
X96798723Y-47578172D01*
X96794878Y-47581122D01*
X96794875Y-47581124D01*
X96677780Y-47670974D01*
X96673929Y-47673929D01*
X96670974Y-47677780D01*
X96581124Y-47794875D01*
X96581122Y-47794878D01*
X96578172Y-47798723D01*
X96517977Y-47944047D01*
X96497445Y-48100000D01*
X96517977Y-48255953D01*
X96578172Y-48401277D01*
X96581122Y-48405122D01*
X96581124Y-48405125D01*
X96670974Y-48522220D01*
X96673929Y-48526071D01*
X96677780Y-48529026D01*
X96740348Y-48577036D01*
X96767546Y-48619727D01*
X96769300Y-48635744D01*
X96769300Y-50982729D01*
X96751987Y-51030295D01*
X96708150Y-51055605D01*
X96658300Y-51046815D01*
X96626933Y-51011047D01*
X96623684Y-51003204D01*
X96623683Y-51003202D01*
X96621828Y-50998723D01*
X96618878Y-50994878D01*
X96618876Y-50994875D01*
X96529026Y-50877780D01*
X96526071Y-50873929D01*
X96401278Y-50778172D01*
X96272901Y-50724997D01*
X96260434Y-50719833D01*
X96255953Y-50717977D01*
X96100000Y-50697445D01*
X96095192Y-50698078D01*
X95948852Y-50717344D01*
X95948849Y-50717345D01*
X95944047Y-50717977D01*
X95798723Y-50778172D01*
X95794878Y-50781122D01*
X95794875Y-50781124D01*
X95693729Y-50858736D01*
X95673929Y-50873929D01*
X95670974Y-50877780D01*
X95581124Y-50994875D01*
X95581122Y-50994878D01*
X95578172Y-50998723D01*
X95517977Y-51144047D01*
X95497445Y-51300000D01*
X95508285Y-51382331D01*
X95508373Y-51383002D01*
X95497417Y-51432421D01*
X95487332Y-51444987D01*
X90688994Y-56243326D01*
X90643118Y-56264718D01*
X90636668Y-56265000D01*
X90115543Y-56265000D01*
X90067977Y-56247687D01*
X90042667Y-56203850D01*
X90047176Y-56162681D01*
X90056780Y-56139495D01*
X90082023Y-56078553D01*
X90083459Y-56067650D01*
X90101922Y-55927408D01*
X90102555Y-55922600D01*
X90090930Y-55834301D01*
X90082656Y-55771452D01*
X90082655Y-55771449D01*
X90082023Y-55766647D01*
X90047383Y-55683018D01*
X90045175Y-55632448D01*
X90075990Y-55592289D01*
X90115750Y-55580700D01*
X90332331Y-55580700D01*
X90338781Y-55580982D01*
X90379267Y-55584524D01*
X90393539Y-55580700D01*
X90418523Y-55574006D01*
X90424824Y-55572609D01*
X90432353Y-55571281D01*
X90464851Y-55565551D01*
X90470460Y-55562313D01*
X90474517Y-55560836D01*
X90481756Y-55557837D01*
X90485660Y-55556016D01*
X90491916Y-55554340D01*
X90518183Y-55535948D01*
X90525211Y-55531027D01*
X90530653Y-55527560D01*
X90553382Y-55514437D01*
X90565849Y-55507239D01*
X90571924Y-55500000D01*
X90591972Y-55476107D01*
X90596333Y-55471347D01*
X91280614Y-54787067D01*
X91326491Y-54765675D01*
X91342595Y-54766026D01*
X91425601Y-54776954D01*
X91430409Y-54776321D01*
X91576746Y-54757055D01*
X91581554Y-54756422D01*
X91726879Y-54696227D01*
X91851672Y-54600470D01*
X91917687Y-54514437D01*
X91944477Y-54479524D01*
X91944479Y-54479521D01*
X91947429Y-54475676D01*
X92007624Y-54330352D01*
X92008747Y-54321828D01*
X92027523Y-54179207D01*
X92028156Y-54174399D01*
X92016857Y-54088575D01*
X92008257Y-54023251D01*
X92008256Y-54023248D01*
X92007624Y-54018446D01*
X91947429Y-53873122D01*
X91944479Y-53869277D01*
X91944477Y-53869274D01*
X91854627Y-53752179D01*
X91851672Y-53748328D01*
X91726879Y-53652571D01*
X91581554Y-53592376D01*
X91425601Y-53571844D01*
X91420793Y-53572477D01*
X91274453Y-53591743D01*
X91274450Y-53591744D01*
X91269648Y-53592376D01*
X91124324Y-53652571D01*
X91120479Y-53655521D01*
X91120476Y-53655523D01*
X91003381Y-53745373D01*
X90999530Y-53748328D01*
X90996575Y-53752179D01*
X90906725Y-53869274D01*
X90906723Y-53869277D01*
X90903773Y-53873122D01*
X90843578Y-54018446D01*
X90842946Y-54023248D01*
X90842945Y-54023251D01*
X90834345Y-54088575D01*
X90823046Y-54174399D01*
X90827050Y-54204808D01*
X90833974Y-54257401D01*
X90823018Y-54306820D01*
X90812933Y-54319386D01*
X90705276Y-54427043D01*
X90659400Y-54448435D01*
X90610505Y-54435334D01*
X90581471Y-54393870D01*
X90581472Y-54357283D01*
X90582023Y-54355953D01*
X90602555Y-54200000D01*
X90600061Y-54181060D01*
X90582656Y-54048852D01*
X90582655Y-54048849D01*
X90582023Y-54044047D01*
X90521828Y-53898723D01*
X90518878Y-53894878D01*
X90518876Y-53894875D01*
X90429026Y-53777780D01*
X90426071Y-53773929D01*
X90301278Y-53678172D01*
X90155953Y-53617977D01*
X90000000Y-53597445D01*
X89995192Y-53598078D01*
X89848852Y-53617344D01*
X89848849Y-53617345D01*
X89844047Y-53617977D01*
X89698723Y-53678172D01*
X89694878Y-53681122D01*
X89694875Y-53681124D01*
X89611144Y-53745373D01*
X89573929Y-53773929D01*
X89570974Y-53777780D01*
X89533479Y-53826645D01*
X89490788Y-53853843D01*
X89440602Y-53847236D01*
X89406404Y-53809916D01*
X89401404Y-53791256D01*
X89382656Y-53648852D01*
X89382655Y-53648849D01*
X89382023Y-53644047D01*
X89321828Y-53498723D01*
X89318878Y-53494878D01*
X89318876Y-53494875D01*
X89229026Y-53377780D01*
X89226071Y-53373929D01*
X89101278Y-53278172D01*
X88955953Y-53217977D01*
X88800000Y-53197445D01*
X88795192Y-53198078D01*
X88648852Y-53217344D01*
X88648849Y-53217345D01*
X88644047Y-53217977D01*
X88498723Y-53278172D01*
X88494875Y-53281124D01*
X88494876Y-53281124D01*
X88453548Y-53312836D01*
X88405272Y-53328058D01*
X88358506Y-53308687D01*
X88335133Y-53263787D01*
X88334500Y-53254128D01*
X88334499Y-53088575D01*
X88334499Y-53084934D01*
X88331460Y-53069652D01*
X88320477Y-53014437D01*
X88320477Y-52985564D01*
X88333790Y-52918637D01*
X88333790Y-52918636D01*
X88334500Y-52915067D01*
X88334499Y-52584934D01*
X88320477Y-52514435D01*
X88320477Y-52485564D01*
X88325477Y-52460431D01*
X88334500Y-52415067D01*
X88334499Y-52084934D01*
X88323304Y-52028647D01*
X88321156Y-52017848D01*
X88319734Y-52010699D01*
X88263484Y-51926516D01*
X88179301Y-51870266D01*
X88163229Y-51867069D01*
X88108637Y-51856210D01*
X88108636Y-51856210D01*
X88105067Y-51855500D01*
X87310110Y-51855500D01*
X86514934Y-51855501D01*
X86440699Y-51870266D01*
X86434640Y-51874315D01*
X86434639Y-51874315D01*
X86385979Y-51906829D01*
X86344867Y-51919300D01*
X86257269Y-51919300D01*
X86250820Y-51919018D01*
X86248479Y-51918813D01*
X86210333Y-51915476D01*
X86204079Y-51917152D01*
X86204076Y-51917152D01*
X86171075Y-51925994D01*
X86164775Y-51927391D01*
X86156881Y-51928783D01*
X86124749Y-51934449D01*
X86119139Y-51937688D01*
X86115097Y-51939159D01*
X86107831Y-51942169D01*
X86103939Y-51943984D01*
X86097683Y-51945660D01*
X86064378Y-51968981D01*
X86058946Y-51972441D01*
X86029355Y-51989525D01*
X86029353Y-51989527D01*
X86023751Y-51992761D01*
X86019592Y-51997717D01*
X86019590Y-51997719D01*
X85997628Y-52023893D01*
X85993267Y-52028653D01*
X80268653Y-57753267D01*
X80263893Y-57757628D01*
X80232761Y-57783751D01*
X80229524Y-57789358D01*
X80212440Y-57818947D01*
X80208973Y-57824389D01*
X80185660Y-57857684D01*
X80183984Y-57863940D01*
X80182163Y-57867844D01*
X80179164Y-57875083D01*
X80177687Y-57879140D01*
X80174449Y-57884749D01*
X80170346Y-57908020D01*
X80167391Y-57924776D01*
X80165994Y-57931077D01*
X80155476Y-57970333D01*
X80156041Y-57976786D01*
X80159018Y-58010820D01*
X80159300Y-58017269D01*
X80159300Y-70171501D01*
X80141987Y-70219067D01*
X80098150Y-70244377D01*
X80085300Y-70245501D01*
X80051434Y-70245501D01*
X80049986Y-70245615D01*
X80049984Y-70245615D01*
X80044691Y-70246031D01*
X80015742Y-70248309D01*
X79863008Y-70292682D01*
X79859002Y-70295051D01*
X79859000Y-70295052D01*
X79765634Y-70350269D01*
X79726109Y-70373644D01*
X79613644Y-70486109D01*
X79611273Y-70490118D01*
X79539881Y-70610836D01*
X79532682Y-70623008D01*
X79488309Y-70775742D01*
X79488013Y-70779507D01*
X79488012Y-70779511D01*
X79486446Y-70799416D01*
X79485500Y-70811433D01*
X79485500Y-70926000D01*
X79468187Y-70973566D01*
X79424350Y-70998876D01*
X79411500Y-71000000D01*
X78923999Y-71000000D01*
X78876433Y-70982687D01*
X78851123Y-70938850D01*
X78849999Y-70926000D01*
X78849999Y-70836444D01*
X78849731Y-70831995D01*
X78840210Y-70753313D01*
X78837890Y-70744175D01*
X78788544Y-70619539D01*
X78783640Y-70610836D01*
X78702770Y-70504296D01*
X78695704Y-70497230D01*
X78589164Y-70416360D01*
X78580461Y-70411456D01*
X78455826Y-70362111D01*
X78446687Y-70359790D01*
X78368005Y-70350268D01*
X78363557Y-70350000D01*
X78038048Y-70350000D01*
X78028052Y-70353638D01*
X78025000Y-70358925D01*
X78025000Y-71000000D01*
X77875000Y-71000000D01*
X77875000Y-70363049D01*
X77871362Y-70353053D01*
X77866075Y-70350001D01*
X77536444Y-70350001D01*
X77531995Y-70350269D01*
X77453313Y-70359790D01*
X77444175Y-70362110D01*
X77319539Y-70411456D01*
X77310836Y-70416360D01*
X77204296Y-70497230D01*
X77197230Y-70504296D01*
X77116360Y-70610836D01*
X77111456Y-70619539D01*
X77062111Y-70744174D01*
X77059790Y-70753313D01*
X77050268Y-70831995D01*
X77050000Y-70836443D01*
X77050000Y-70926000D01*
X77032687Y-70973566D01*
X76988850Y-70998876D01*
X76976000Y-71000000D01*
X76383999Y-71000000D01*
X76336433Y-70982687D01*
X76311123Y-70938850D01*
X76309999Y-70926000D01*
X76309999Y-70836444D01*
X76309731Y-70831995D01*
X76300210Y-70753313D01*
X76297890Y-70744175D01*
X76248544Y-70619539D01*
X76243640Y-70610836D01*
X76162770Y-70504296D01*
X76155704Y-70497230D01*
X76049164Y-70416360D01*
X76040461Y-70411456D01*
X75915826Y-70362111D01*
X75906687Y-70359790D01*
X75828005Y-70350268D01*
X75823557Y-70350000D01*
X75498048Y-70350000D01*
X75488052Y-70353638D01*
X75485000Y-70358925D01*
X75485000Y-71000000D01*
X75335000Y-71000000D01*
X75335000Y-70363049D01*
X75331362Y-70353053D01*
X75326075Y-70350001D01*
X74996444Y-70350001D01*
X74991995Y-70350269D01*
X74913313Y-70359790D01*
X74904175Y-70362110D01*
X74779539Y-70411456D01*
X74770836Y-70416360D01*
X74664296Y-70497230D01*
X74657230Y-70504296D01*
X74576360Y-70610836D01*
X74571456Y-70619539D01*
X74522111Y-70744174D01*
X74519790Y-70753313D01*
X74510268Y-70831995D01*
X74510000Y-70836443D01*
X74510000Y-70926000D01*
X74492687Y-70973566D01*
X74448850Y-70998876D01*
X74436000Y-71000000D01*
X73224500Y-71000000D01*
X73176934Y-70982687D01*
X73151624Y-70938850D01*
X73150500Y-70926000D01*
X73150500Y-70779557D01*
X73153021Y-70760404D01*
X73153288Y-70759408D01*
X73155809Y-70750000D01*
X73134935Y-70672096D01*
X73134934Y-70672095D01*
X73077905Y-70615065D01*
X73000000Y-70594191D01*
X72989594Y-70596979D01*
X72970443Y-70599500D01*
X69724500Y-70599500D01*
X69676934Y-70582187D01*
X69651624Y-70538350D01*
X69650500Y-70525500D01*
X69650500Y-54181060D01*
X70545167Y-54181060D01*
X70584929Y-54553121D01*
X70664641Y-54918711D01*
X70716241Y-55072928D01*
X70762824Y-55212150D01*
X70783369Y-55273554D01*
X70784201Y-55275363D01*
X70784203Y-55275368D01*
X70926620Y-55585003D01*
X70939727Y-55613499D01*
X70940747Y-55615202D01*
X70940751Y-55615211D01*
X70992801Y-55702180D01*
X71131883Y-55934569D01*
X71133086Y-55936160D01*
X71133091Y-55936167D01*
X71232531Y-56067650D01*
X71357591Y-56233009D01*
X71358961Y-56234463D01*
X71358962Y-56234464D01*
X71577747Y-56466632D01*
X71614210Y-56505326D01*
X71615738Y-56506631D01*
X71615739Y-56506632D01*
X71839096Y-56697397D01*
X71898738Y-56748336D01*
X71900386Y-56749460D01*
X71900391Y-56749464D01*
X71929470Y-56769300D01*
X72207847Y-56959196D01*
X72537921Y-57135439D01*
X72711509Y-57205221D01*
X72883244Y-57274258D01*
X72883249Y-57274260D01*
X72885098Y-57275003D01*
X72887019Y-57275543D01*
X72887025Y-57275545D01*
X73243391Y-57375715D01*
X73243397Y-57375716D01*
X73245317Y-57376256D01*
X73247285Y-57376585D01*
X73247288Y-57376586D01*
X73390945Y-57400626D01*
X73614365Y-57438014D01*
X73761700Y-57446509D01*
X73899222Y-57454439D01*
X73899238Y-57454439D01*
X73900288Y-57454500D01*
X74093690Y-57454500D01*
X74221020Y-57447604D01*
X74371629Y-57439448D01*
X74371639Y-57439447D01*
X74373632Y-57439339D01*
X74380991Y-57438134D01*
X74426387Y-57430700D01*
X74742893Y-57378870D01*
X75103463Y-57278875D01*
X75451126Y-57140523D01*
X75556116Y-57084934D01*
X75780046Y-56966369D01*
X75780045Y-56966369D01*
X75781812Y-56965434D01*
X75791026Y-56959196D01*
X75878208Y-56900169D01*
X76091655Y-56755654D01*
X76377030Y-56513639D01*
X76634598Y-56242219D01*
X76861346Y-55944569D01*
X76862374Y-55942864D01*
X76862380Y-55942856D01*
X77053594Y-55625879D01*
X77053599Y-55625869D01*
X77054623Y-55624172D01*
X77212165Y-55284775D01*
X77278576Y-55088573D01*
X77331491Y-54932243D01*
X77331493Y-54932236D01*
X77332132Y-54930348D01*
X77334290Y-54920614D01*
X77412684Y-54567002D01*
X77412685Y-54566995D01*
X77413119Y-54565038D01*
X77454180Y-54193119D01*
X77454833Y-53818940D01*
X77415071Y-53446879D01*
X77335359Y-53081289D01*
X77250628Y-52828052D01*
X77217266Y-52728343D01*
X77217264Y-52728338D01*
X77216631Y-52726446D01*
X77214688Y-52722220D01*
X77061106Y-52388312D01*
X77060273Y-52386501D01*
X77059253Y-52384798D01*
X77059249Y-52384789D01*
X76918043Y-52148852D01*
X76868117Y-52065431D01*
X76866914Y-52063840D01*
X76866909Y-52063833D01*
X76650865Y-51778172D01*
X76642409Y-51766991D01*
X76632358Y-51756325D01*
X76387167Y-51496135D01*
X76387165Y-51496133D01*
X76385790Y-51494674D01*
X76355174Y-51468525D01*
X76102783Y-51252963D01*
X76102782Y-51252963D01*
X76101262Y-51251664D01*
X76099614Y-51250540D01*
X76099609Y-51250536D01*
X75813850Y-51055605D01*
X75792153Y-51040804D01*
X75462079Y-50864561D01*
X75242560Y-50776315D01*
X75116756Y-50725742D01*
X75116751Y-50725740D01*
X75114902Y-50724997D01*
X75112981Y-50724457D01*
X75112975Y-50724455D01*
X74756609Y-50624285D01*
X74756603Y-50624284D01*
X74754683Y-50623744D01*
X74752715Y-50623415D01*
X74752712Y-50623414D01*
X74567883Y-50592484D01*
X74385635Y-50561986D01*
X74238300Y-50553491D01*
X74100778Y-50545561D01*
X74100762Y-50545561D01*
X74099712Y-50545500D01*
X73906310Y-50545500D01*
X73778980Y-50552396D01*
X73628371Y-50560552D01*
X73628361Y-50560553D01*
X73626368Y-50560661D01*
X73624384Y-50560986D01*
X73624383Y-50560986D01*
X73616255Y-50562317D01*
X73257107Y-50621130D01*
X72896537Y-50721125D01*
X72548874Y-50859477D01*
X72547106Y-50860413D01*
X72547104Y-50860414D01*
X72316091Y-50982729D01*
X72218188Y-51034566D01*
X72216529Y-51035689D01*
X72216526Y-51035691D01*
X72121792Y-51099831D01*
X71908345Y-51244346D01*
X71622970Y-51486361D01*
X71365402Y-51757781D01*
X71138654Y-52055431D01*
X71137626Y-52057136D01*
X71137620Y-52057144D01*
X70946406Y-52374121D01*
X70946401Y-52374131D01*
X70945377Y-52375828D01*
X70940423Y-52386501D01*
X70810650Y-52666075D01*
X70787835Y-52715225D01*
X70787191Y-52717128D01*
X70676072Y-53045415D01*
X70667868Y-53069652D01*
X70667436Y-53071602D01*
X70667434Y-53071608D01*
X70588684Y-53426830D01*
X70586881Y-53434962D01*
X70545820Y-53806881D01*
X70545167Y-54181060D01*
X69650500Y-54181060D01*
X69650500Y-44105206D01*
X92120501Y-44105206D01*
X92137806Y-44311278D01*
X92194807Y-44510066D01*
X92289334Y-44693995D01*
X92417786Y-44856061D01*
X92420539Y-44858404D01*
X92420542Y-44858407D01*
X92457151Y-44889563D01*
X92575271Y-44990091D01*
X92755789Y-45090980D01*
X92952466Y-45154884D01*
X93024755Y-45163504D01*
X93154209Y-45178941D01*
X93154212Y-45178941D01*
X93157809Y-45179370D01*
X93222375Y-45174402D01*
X93360387Y-45163782D01*
X93360388Y-45163782D01*
X93363998Y-45163504D01*
X93563178Y-45107892D01*
X93594445Y-45092098D01*
X93744529Y-45016286D01*
X93744532Y-45016284D01*
X93747763Y-45014652D01*
X93750612Y-45012426D01*
X93750617Y-45012423D01*
X93907869Y-44889563D01*
X93910722Y-44887334D01*
X94045848Y-44730789D01*
X94047631Y-44727650D01*
X94047634Y-44727646D01*
X94096922Y-44640884D01*
X94147995Y-44550979D01*
X94213270Y-44354753D01*
X94239189Y-44149586D01*
X94239602Y-44120000D01*
X94238506Y-44108817D01*
X94238152Y-44105206D01*
X94660501Y-44105206D01*
X94677806Y-44311278D01*
X94734807Y-44510066D01*
X94829334Y-44693995D01*
X94957786Y-44856061D01*
X94960539Y-44858404D01*
X94960542Y-44858407D01*
X94997151Y-44889563D01*
X95115271Y-44990091D01*
X95295789Y-45090980D01*
X95492466Y-45154884D01*
X95564755Y-45163504D01*
X95694209Y-45178941D01*
X95694212Y-45178941D01*
X95697809Y-45179370D01*
X95762375Y-45174402D01*
X95900387Y-45163782D01*
X95900388Y-45163782D01*
X95903998Y-45163504D01*
X96103178Y-45107892D01*
X96134445Y-45092098D01*
X96284529Y-45016286D01*
X96284532Y-45016284D01*
X96287763Y-45014652D01*
X96290612Y-45012426D01*
X96290617Y-45012423D01*
X96447869Y-44889563D01*
X96450722Y-44887334D01*
X96585848Y-44730789D01*
X96587631Y-44727650D01*
X96587634Y-44727646D01*
X96636922Y-44640884D01*
X96687995Y-44550979D01*
X96753270Y-44354753D01*
X96779189Y-44149586D01*
X96779602Y-44120000D01*
X96778506Y-44108817D01*
X96778152Y-44105206D01*
X97200501Y-44105206D01*
X97217806Y-44311278D01*
X97274807Y-44510066D01*
X97369334Y-44693995D01*
X97497786Y-44856061D01*
X97500539Y-44858404D01*
X97500542Y-44858407D01*
X97537151Y-44889563D01*
X97655271Y-44990091D01*
X97835789Y-45090980D01*
X98032466Y-45154884D01*
X98104755Y-45163504D01*
X98234209Y-45178941D01*
X98234212Y-45178941D01*
X98237809Y-45179370D01*
X98302375Y-45174402D01*
X98440387Y-45163782D01*
X98440388Y-45163782D01*
X98443998Y-45163504D01*
X98643178Y-45107892D01*
X98674445Y-45092098D01*
X98824529Y-45016286D01*
X98824532Y-45016284D01*
X98827763Y-45014652D01*
X98830612Y-45012426D01*
X98830617Y-45012423D01*
X98987869Y-44889563D01*
X98990722Y-44887334D01*
X99125848Y-44730789D01*
X99127631Y-44727650D01*
X99127634Y-44727646D01*
X99176922Y-44640884D01*
X99227995Y-44550979D01*
X99293270Y-44354753D01*
X99319189Y-44149586D01*
X99319602Y-44120000D01*
X99318506Y-44108817D01*
X99318152Y-44105206D01*
X99740501Y-44105206D01*
X99757806Y-44311278D01*
X99814807Y-44510066D01*
X99909334Y-44693995D01*
X100037786Y-44856061D01*
X100040539Y-44858404D01*
X100040542Y-44858407D01*
X100077151Y-44889563D01*
X100195271Y-44990091D01*
X100375789Y-45090980D01*
X100572466Y-45154884D01*
X100644755Y-45163504D01*
X100774209Y-45178941D01*
X100774212Y-45178941D01*
X100777809Y-45179370D01*
X100842375Y-45174402D01*
X100980387Y-45163782D01*
X100980388Y-45163782D01*
X100983998Y-45163504D01*
X101183178Y-45107892D01*
X101214445Y-45092098D01*
X101364529Y-45016286D01*
X101364532Y-45016284D01*
X101367763Y-45014652D01*
X101370612Y-45012426D01*
X101370617Y-45012423D01*
X101527869Y-44889563D01*
X101530722Y-44887334D01*
X101665848Y-44730789D01*
X101667631Y-44727650D01*
X101667634Y-44727646D01*
X101716922Y-44640884D01*
X101767995Y-44550979D01*
X101833270Y-44354753D01*
X101859189Y-44149586D01*
X101859602Y-44120000D01*
X101858506Y-44108817D01*
X101839775Y-43917792D01*
X101839422Y-43914189D01*
X101779651Y-43716217D01*
X101682565Y-43533625D01*
X101551863Y-43373368D01*
X101392522Y-43241550D01*
X101377381Y-43233363D01*
X101213797Y-43144914D01*
X101213796Y-43144914D01*
X101210612Y-43143192D01*
X101207158Y-43142123D01*
X101207156Y-43142122D01*
X101155536Y-43126143D01*
X101013063Y-43082040D01*
X100807397Y-43060424D01*
X100803793Y-43060752D01*
X100803792Y-43060752D01*
X100803243Y-43060802D01*
X100601450Y-43079166D01*
X100591685Y-43082040D01*
X100406537Y-43136532D01*
X100406533Y-43136534D01*
X100403066Y-43137554D01*
X100392282Y-43143192D01*
X100223008Y-43231686D01*
X100223005Y-43231688D01*
X100219801Y-43233363D01*
X100216983Y-43235629D01*
X100216981Y-43235630D01*
X100061454Y-43360676D01*
X100061451Y-43360679D01*
X100058635Y-43362943D01*
X99925708Y-43521360D01*
X99923966Y-43524528D01*
X99923965Y-43524530D01*
X99918965Y-43533625D01*
X99826082Y-43702578D01*
X99763553Y-43899696D01*
X99740501Y-44105206D01*
X99318152Y-44105206D01*
X99299775Y-43917792D01*
X99299422Y-43914189D01*
X99239651Y-43716217D01*
X99142565Y-43533625D01*
X99011863Y-43373368D01*
X98852522Y-43241550D01*
X98837381Y-43233363D01*
X98673797Y-43144914D01*
X98673796Y-43144914D01*
X98670612Y-43143192D01*
X98667158Y-43142123D01*
X98667156Y-43142122D01*
X98615536Y-43126143D01*
X98473063Y-43082040D01*
X98267397Y-43060424D01*
X98263793Y-43060752D01*
X98263792Y-43060752D01*
X98263243Y-43060802D01*
X98061450Y-43079166D01*
X98051685Y-43082040D01*
X97866537Y-43136532D01*
X97866533Y-43136534D01*
X97863066Y-43137554D01*
X97852282Y-43143192D01*
X97683008Y-43231686D01*
X97683005Y-43231688D01*
X97679801Y-43233363D01*
X97676983Y-43235629D01*
X97676981Y-43235630D01*
X97521454Y-43360676D01*
X97521451Y-43360679D01*
X97518635Y-43362943D01*
X97385708Y-43521360D01*
X97383966Y-43524528D01*
X97383965Y-43524530D01*
X97378965Y-43533625D01*
X97286082Y-43702578D01*
X97223553Y-43899696D01*
X97200501Y-44105206D01*
X96778152Y-44105206D01*
X96759775Y-43917792D01*
X96759422Y-43914189D01*
X96699651Y-43716217D01*
X96602565Y-43533625D01*
X96471863Y-43373368D01*
X96312522Y-43241550D01*
X96297381Y-43233363D01*
X96133797Y-43144914D01*
X96133796Y-43144914D01*
X96130612Y-43143192D01*
X96127158Y-43142123D01*
X96127156Y-43142122D01*
X96075536Y-43126143D01*
X95933063Y-43082040D01*
X95727397Y-43060424D01*
X95723793Y-43060752D01*
X95723792Y-43060752D01*
X95723243Y-43060802D01*
X95521450Y-43079166D01*
X95511685Y-43082040D01*
X95326537Y-43136532D01*
X95326533Y-43136534D01*
X95323066Y-43137554D01*
X95312282Y-43143192D01*
X95143008Y-43231686D01*
X95143005Y-43231688D01*
X95139801Y-43233363D01*
X95136983Y-43235629D01*
X95136981Y-43235630D01*
X94981454Y-43360676D01*
X94981451Y-43360679D01*
X94978635Y-43362943D01*
X94845708Y-43521360D01*
X94843966Y-43524528D01*
X94843965Y-43524530D01*
X94838965Y-43533625D01*
X94746082Y-43702578D01*
X94683553Y-43899696D01*
X94660501Y-44105206D01*
X94238152Y-44105206D01*
X94219775Y-43917792D01*
X94219422Y-43914189D01*
X94159651Y-43716217D01*
X94062565Y-43533625D01*
X93931863Y-43373368D01*
X93772522Y-43241550D01*
X93757381Y-43233363D01*
X93593797Y-43144914D01*
X93593796Y-43144914D01*
X93590612Y-43143192D01*
X93587158Y-43142123D01*
X93587156Y-43142122D01*
X93535536Y-43126143D01*
X93393063Y-43082040D01*
X93187397Y-43060424D01*
X93183793Y-43060752D01*
X93183792Y-43060752D01*
X93183243Y-43060802D01*
X92981450Y-43079166D01*
X92971685Y-43082040D01*
X92786537Y-43136532D01*
X92786533Y-43136534D01*
X92783066Y-43137554D01*
X92772282Y-43143192D01*
X92603008Y-43231686D01*
X92603005Y-43231688D01*
X92599801Y-43233363D01*
X92596983Y-43235629D01*
X92596981Y-43235630D01*
X92441454Y-43360676D01*
X92441451Y-43360679D01*
X92438635Y-43362943D01*
X92305708Y-43521360D01*
X92303966Y-43524528D01*
X92303965Y-43524530D01*
X92298965Y-43533625D01*
X92206082Y-43702578D01*
X92143553Y-43899696D01*
X92120501Y-44105206D01*
X69650500Y-44105206D01*
X69650500Y-35224500D01*
X69667813Y-35176934D01*
X69711650Y-35151624D01*
X69724500Y-35150500D01*
X92644045Y-35150500D01*
X92691611Y-35167813D01*
G37*
G04 #@! TD.AperFunction*
G04 #@! TA.AperFunction,Conductor*
G36*
X105409589Y-58014171D02*
G01*
X105436435Y-58048812D01*
X105465315Y-58125847D01*
X105469385Y-58136705D01*
X105556739Y-58253261D01*
X105560958Y-58256423D01*
X105635881Y-58312575D01*
X105663561Y-58354955D01*
X105665501Y-58371790D01*
X105665501Y-58415066D01*
X105666211Y-58418634D01*
X105666211Y-58418637D01*
X105667841Y-58426830D01*
X105676913Y-58472440D01*
X105679523Y-58485563D01*
X105679523Y-58514434D01*
X105676912Y-58527560D01*
X105667674Y-58574006D01*
X105665500Y-58584933D01*
X105665501Y-58915066D01*
X105666211Y-58918634D01*
X105666211Y-58918637D01*
X105679523Y-58985563D01*
X105679523Y-59014434D01*
X105665500Y-59084933D01*
X105665501Y-59415066D01*
X105666211Y-59418634D01*
X105666211Y-59418637D01*
X105667841Y-59426830D01*
X105676913Y-59472440D01*
X105679523Y-59485563D01*
X105679523Y-59514434D01*
X105665500Y-59584933D01*
X105665501Y-59915066D01*
X105678945Y-59982656D01*
X105679523Y-59985563D01*
X105679523Y-60014434D01*
X105665500Y-60084933D01*
X105665501Y-60415066D01*
X105666211Y-60418634D01*
X105666211Y-60418637D01*
X105669133Y-60433325D01*
X105676913Y-60472440D01*
X105679523Y-60485563D01*
X105679523Y-60514434D01*
X105665500Y-60584933D01*
X105665501Y-60915066D01*
X105678945Y-60982656D01*
X105679523Y-60985563D01*
X105679523Y-61014434D01*
X105665500Y-61084933D01*
X105665501Y-61415066D01*
X105666211Y-61418634D01*
X105666211Y-61418637D01*
X105667841Y-61426830D01*
X105676913Y-61472440D01*
X105679523Y-61485563D01*
X105679523Y-61514434D01*
X105665500Y-61584933D01*
X105665501Y-61915066D01*
X105680266Y-61989301D01*
X105736516Y-62073484D01*
X105742576Y-62077533D01*
X105747728Y-62082685D01*
X105745328Y-62085085D01*
X105767046Y-62114712D01*
X105770000Y-62135411D01*
X105770000Y-62161952D01*
X105773638Y-62171948D01*
X105778925Y-62175000D01*
X107596951Y-62175000D01*
X107623871Y-62165202D01*
X107636719Y-62154421D01*
X107687338Y-62154422D01*
X107714353Y-62171633D01*
X109447626Y-63904906D01*
X109469018Y-63950782D01*
X109469300Y-63957232D01*
X109469300Y-64064256D01*
X109451987Y-64111822D01*
X109440348Y-64122964D01*
X109380998Y-64168505D01*
X109373929Y-64173929D01*
X109370974Y-64177780D01*
X109281124Y-64294875D01*
X109281122Y-64294878D01*
X109278172Y-64298723D01*
X109217977Y-64444047D01*
X109217345Y-64448849D01*
X109217344Y-64448852D01*
X109198199Y-64594270D01*
X109197445Y-64600000D01*
X109198078Y-64604808D01*
X109217124Y-64749473D01*
X109217977Y-64755953D01*
X109278172Y-64901277D01*
X109281122Y-64905122D01*
X109281124Y-64905125D01*
X109369903Y-65020824D01*
X109373929Y-65026071D01*
X109498722Y-65121828D01*
X109644047Y-65182023D01*
X109800000Y-65202555D01*
X109804808Y-65201922D01*
X109951145Y-65182656D01*
X109955953Y-65182023D01*
X110101278Y-65121828D01*
X110226071Y-65026071D01*
X110230097Y-65020824D01*
X110318876Y-64905125D01*
X110318878Y-64905122D01*
X110321828Y-64901277D01*
X110382023Y-64755953D01*
X110382877Y-64749473D01*
X110401922Y-64604808D01*
X110402555Y-64600000D01*
X110401801Y-64594270D01*
X110382656Y-64448852D01*
X110382655Y-64448849D01*
X110382023Y-64444047D01*
X110321828Y-64298723D01*
X110318878Y-64294878D01*
X110318876Y-64294875D01*
X110229026Y-64177780D01*
X110226071Y-64173929D01*
X110159652Y-64122963D01*
X110132454Y-64080273D01*
X110130700Y-64064256D01*
X110130700Y-63807269D01*
X110130982Y-63800820D01*
X110133959Y-63766786D01*
X110134524Y-63760333D01*
X110129604Y-63741972D01*
X110124006Y-63721077D01*
X110122609Y-63714776D01*
X110116675Y-63681125D01*
X110115551Y-63674749D01*
X110112313Y-63669140D01*
X110110836Y-63665083D01*
X110107837Y-63657844D01*
X110106016Y-63653940D01*
X110104340Y-63647684D01*
X110090309Y-63627646D01*
X110081027Y-63614389D01*
X110077560Y-63608947D01*
X110065797Y-63588573D01*
X110057239Y-63573751D01*
X110026107Y-63547628D01*
X110021347Y-63543267D01*
X108006733Y-61528653D01*
X108002372Y-61523893D01*
X107980413Y-61497723D01*
X107980412Y-61497722D01*
X107976249Y-61492761D01*
X107941054Y-61472440D01*
X107935611Y-61468973D01*
X107907620Y-61449374D01*
X107902316Y-61445660D01*
X107896060Y-61443984D01*
X107892156Y-61442163D01*
X107884917Y-61439164D01*
X107880860Y-61437687D01*
X107875251Y-61434449D01*
X107835226Y-61427391D01*
X107828923Y-61425994D01*
X107795922Y-61417152D01*
X107789667Y-61415476D01*
X107783214Y-61416041D01*
X107782053Y-61415939D01*
X107736176Y-61394548D01*
X107714782Y-61348672D01*
X107714500Y-61342220D01*
X107714499Y-61154700D01*
X107731811Y-61107134D01*
X107775649Y-61081824D01*
X107788499Y-61080700D01*
X110482368Y-61080700D01*
X110529934Y-61098013D01*
X110534694Y-61102374D01*
X112047626Y-62615307D01*
X112069018Y-62661183D01*
X112069300Y-62667633D01*
X112069300Y-67932368D01*
X112051987Y-67979934D01*
X112047626Y-67984694D01*
X111821867Y-68210453D01*
X111775991Y-68231845D01*
X111727096Y-68218744D01*
X111698062Y-68177280D01*
X111696174Y-68148468D01*
X111701922Y-68104808D01*
X111702555Y-68100000D01*
X111697772Y-68063667D01*
X111682656Y-67948852D01*
X111682655Y-67948849D01*
X111682023Y-67944047D01*
X111621828Y-67798723D01*
X111618878Y-67794878D01*
X111618876Y-67794875D01*
X111529026Y-67677780D01*
X111526071Y-67673929D01*
X111431836Y-67601620D01*
X111410348Y-67569459D01*
X111408751Y-67570204D01*
X111406016Y-67564339D01*
X111404340Y-67558084D01*
X111400627Y-67552782D01*
X111400626Y-67552779D01*
X111381027Y-67524790D01*
X111377558Y-67519345D01*
X111360475Y-67489755D01*
X111360473Y-67489753D01*
X111357239Y-67484151D01*
X111352283Y-67479992D01*
X111352281Y-67479990D01*
X111326113Y-67458033D01*
X111321353Y-67453672D01*
X108946333Y-65078653D01*
X108941972Y-65073893D01*
X108920013Y-65047723D01*
X108920012Y-65047722D01*
X108915849Y-65042761D01*
X108880654Y-65022440D01*
X108875211Y-65018973D01*
X108847220Y-64999374D01*
X108841916Y-64995660D01*
X108835660Y-64993984D01*
X108831756Y-64992163D01*
X108824517Y-64989164D01*
X108820460Y-64987687D01*
X108814851Y-64984449D01*
X108774826Y-64977391D01*
X108768523Y-64975994D01*
X108735522Y-64967152D01*
X108729267Y-64965476D01*
X108691121Y-64968813D01*
X108688780Y-64969018D01*
X108682331Y-64969300D01*
X107315750Y-64969300D01*
X107268184Y-64951987D01*
X107242874Y-64908150D01*
X107247383Y-64866981D01*
X107280168Y-64787831D01*
X107282023Y-64783353D01*
X107285631Y-64755953D01*
X107301922Y-64632208D01*
X107302555Y-64627400D01*
X107300375Y-64610845D01*
X107282656Y-64476252D01*
X107282655Y-64476249D01*
X107282023Y-64471447D01*
X107221828Y-64326123D01*
X107218878Y-64322278D01*
X107218876Y-64322275D01*
X107173812Y-64263547D01*
X107158590Y-64215271D01*
X107177962Y-64168505D01*
X107222861Y-64145132D01*
X107232520Y-64144499D01*
X107485066Y-64144499D01*
X107559301Y-64129734D01*
X107602681Y-64100748D01*
X107637426Y-64077532D01*
X107643484Y-64073484D01*
X107699734Y-63989301D01*
X107710630Y-63934524D01*
X107713790Y-63918637D01*
X107713790Y-63918636D01*
X107714500Y-63915067D01*
X107714499Y-63584934D01*
X107699734Y-63510699D01*
X107649844Y-63436034D01*
X107647532Y-63432574D01*
X107643484Y-63426516D01*
X107637424Y-63422467D01*
X107632272Y-63417315D01*
X107634672Y-63414915D01*
X107612954Y-63385288D01*
X107610000Y-63364589D01*
X107610000Y-63338048D01*
X107606362Y-63328052D01*
X107601075Y-63325000D01*
X105783049Y-63325000D01*
X105773053Y-63328638D01*
X105770001Y-63333925D01*
X105770001Y-63364588D01*
X105752688Y-63412154D01*
X105747353Y-63416938D01*
X105747729Y-63417314D01*
X105742576Y-63422467D01*
X105736516Y-63426516D01*
X105732468Y-63432574D01*
X105730156Y-63436034D01*
X105680266Y-63510699D01*
X105678844Y-63517848D01*
X105666211Y-63581361D01*
X105665500Y-63584933D01*
X105665501Y-63915066D01*
X105680266Y-63989301D01*
X105736516Y-64073484D01*
X105742574Y-64077532D01*
X105746676Y-64080273D01*
X105820699Y-64129734D01*
X105827848Y-64131156D01*
X105891363Y-64143790D01*
X105891364Y-64143790D01*
X105894933Y-64144500D01*
X106167479Y-64144500D01*
X106215045Y-64161813D01*
X106240355Y-64205650D01*
X106231565Y-64255500D01*
X106226187Y-64263548D01*
X106181124Y-64322275D01*
X106181122Y-64322278D01*
X106178172Y-64326123D01*
X106117977Y-64471447D01*
X106117345Y-64476249D01*
X106117344Y-64476252D01*
X106099625Y-64610845D01*
X106097445Y-64627400D01*
X106098078Y-64632208D01*
X106114370Y-64755953D01*
X106117977Y-64783353D01*
X106119832Y-64787831D01*
X106152617Y-64866981D01*
X106154825Y-64917552D01*
X106124010Y-64957711D01*
X106084250Y-64969300D01*
X105567632Y-64969300D01*
X105520066Y-64951987D01*
X105515306Y-64947626D01*
X104365174Y-63797494D01*
X104343782Y-63751618D01*
X104343500Y-63745168D01*
X104343500Y-63161952D01*
X105770000Y-63161952D01*
X105773638Y-63171948D01*
X105778925Y-63175000D01*
X106601952Y-63175000D01*
X106611948Y-63171362D01*
X106615000Y-63166075D01*
X106615000Y-63161952D01*
X106765000Y-63161952D01*
X106768638Y-63171948D01*
X106773925Y-63175000D01*
X107596951Y-63175000D01*
X107606947Y-63171362D01*
X107609999Y-63166075D01*
X107609999Y-63098867D01*
X107609288Y-63091653D01*
X107602719Y-63058622D01*
X107597248Y-63045413D01*
X107594374Y-63041112D01*
X107582343Y-62991944D01*
X107594374Y-62958888D01*
X107597249Y-62954585D01*
X107602719Y-62941380D01*
X107609290Y-62908345D01*
X107610000Y-62901135D01*
X107610000Y-62838048D01*
X107606362Y-62828052D01*
X107601075Y-62825000D01*
X106778048Y-62825000D01*
X106768052Y-62828638D01*
X106765000Y-62833925D01*
X106765000Y-63161952D01*
X106615000Y-63161952D01*
X106615000Y-62838048D01*
X106611362Y-62828052D01*
X106606075Y-62825000D01*
X105783049Y-62825000D01*
X105773053Y-62828638D01*
X105770001Y-62833925D01*
X105770001Y-62901133D01*
X105770712Y-62908347D01*
X105777281Y-62941378D01*
X105782752Y-62954587D01*
X105785626Y-62958888D01*
X105797657Y-63008056D01*
X105785626Y-63041112D01*
X105782751Y-63045415D01*
X105777281Y-63058620D01*
X105770710Y-63091655D01*
X105770000Y-63098865D01*
X105770000Y-63161952D01*
X104343500Y-63161952D01*
X104343500Y-62661952D01*
X105770000Y-62661952D01*
X105773638Y-62671948D01*
X105778925Y-62675000D01*
X106601952Y-62675000D01*
X106611948Y-62671362D01*
X106615000Y-62666075D01*
X106615000Y-62661952D01*
X106765000Y-62661952D01*
X106768638Y-62671948D01*
X106773925Y-62675000D01*
X107596951Y-62675000D01*
X107606947Y-62671362D01*
X107609999Y-62666075D01*
X107609999Y-62598867D01*
X107609288Y-62591653D01*
X107602719Y-62558622D01*
X107597248Y-62545413D01*
X107594374Y-62541112D01*
X107582343Y-62491944D01*
X107594374Y-62458888D01*
X107597249Y-62454585D01*
X107602719Y-62441380D01*
X107609290Y-62408345D01*
X107610000Y-62401135D01*
X107610000Y-62338048D01*
X107606362Y-62328052D01*
X107601075Y-62325000D01*
X106778048Y-62325000D01*
X106768052Y-62328638D01*
X106765000Y-62333925D01*
X106765000Y-62661952D01*
X106615000Y-62661952D01*
X106615000Y-62338048D01*
X106611362Y-62328052D01*
X106606075Y-62325000D01*
X105783049Y-62325000D01*
X105773053Y-62328638D01*
X105770001Y-62333925D01*
X105770001Y-62401133D01*
X105770712Y-62408347D01*
X105777281Y-62441378D01*
X105782752Y-62454587D01*
X105785626Y-62458888D01*
X105797657Y-62508056D01*
X105785626Y-62541112D01*
X105782751Y-62545415D01*
X105777281Y-62558620D01*
X105770710Y-62591655D01*
X105770000Y-62598865D01*
X105770000Y-62661952D01*
X104343500Y-62661952D01*
X104343500Y-62480997D01*
X104343782Y-62474548D01*
X104345528Y-62454585D01*
X104347324Y-62434061D01*
X104339621Y-62405311D01*
X104337100Y-62386161D01*
X104337100Y-59030832D01*
X104354413Y-58983266D01*
X104358774Y-58978506D01*
X105314818Y-58022462D01*
X105360694Y-58001070D01*
X105409589Y-58014171D01*
G37*
G04 #@! TD.AperFunction*
M02*
