G04 #@! TF.GenerationSoftware,KiCad,Pcbnew,(7.0.0-0)*
G04 #@! TF.CreationDate,2023-03-14T17:22:47-07:00*
G04 #@! TF.ProjectId,qcard-multicart,71636172-642d-46d7-956c-746963617274,3*
G04 #@! TF.SameCoordinates,Original*
G04 #@! TF.FileFunction,Legend,Top*
G04 #@! TF.FilePolarity,Positive*
%FSLAX46Y46*%
G04 Gerber Fmt 4.6, Leading zero omitted, Abs format (unit mm)*
G04 Created by KiCad (PCBNEW (7.0.0-0)) date 2023-03-14 17:22:47*
%MOMM*%
%LPD*%
G01*
G04 APERTURE LIST*
G04 Aperture macros list*
%AMRoundRect*
0 Rectangle with rounded corners*
0 $1 Rounding radius*
0 $2 $3 $4 $5 $6 $7 $8 $9 X,Y pos of 4 corners*
0 Add a 4 corners polygon primitive as box body*
4,1,4,$2,$3,$4,$5,$6,$7,$8,$9,$2,$3,0*
0 Add four circle primitives for the rounded corners*
1,1,$1+$1,$2,$3*
1,1,$1+$1,$4,$5*
1,1,$1+$1,$6,$7*
1,1,$1+$1,$8,$9*
0 Add four rect primitives between the rounded corners*
20,1,$1+$1,$2,$3,$4,$5,0*
20,1,$1+$1,$4,$5,$6,$7,0*
20,1,$1+$1,$6,$7,$8,$9,0*
20,1,$1+$1,$8,$9,$2,$3,0*%
G04 Aperture macros list end*
%ADD10C,0.150000*%
%ADD11C,0.200000*%
%ADD12C,0.127000*%
%ADD13C,0.120000*%
%ADD14R,1.540000X0.280000*%
%ADD15C,6.400000*%
%ADD16R,1.600000X1.600000*%
%ADD17O,1.600000X1.600000*%
%ADD18RoundRect,0.375000X-0.375000X-4.625000X0.375000X-4.625000X0.375000X4.625000X-0.375000X4.625000X0*%
%ADD19RoundRect,0.250000X0.337500X0.475000X-0.337500X0.475000X-0.337500X-0.475000X0.337500X-0.475000X0*%
G04 APERTURE END LIST*
D10*
X86790476Y-50693904D02*
X86790476Y-51341523D01*
X86790476Y-51341523D02*
X86828571Y-51417714D01*
X86828571Y-51417714D02*
X86866666Y-51455809D01*
X86866666Y-51455809D02*
X86942857Y-51493904D01*
X86942857Y-51493904D02*
X87095238Y-51493904D01*
X87095238Y-51493904D02*
X87171428Y-51455809D01*
X87171428Y-51455809D02*
X87209523Y-51417714D01*
X87209523Y-51417714D02*
X87247619Y-51341523D01*
X87247619Y-51341523D02*
X87247619Y-50693904D01*
X88047618Y-51493904D02*
X87590475Y-51493904D01*
X87819047Y-51493904D02*
X87819047Y-50693904D01*
X87819047Y-50693904D02*
X87742856Y-50808190D01*
X87742856Y-50808190D02*
X87666666Y-50884380D01*
X87666666Y-50884380D02*
X87590475Y-50922476D01*
X103449761Y-41643332D02*
X103497380Y-41500475D01*
X103497380Y-41500475D02*
X103497380Y-41262380D01*
X103497380Y-41262380D02*
X103449761Y-41167142D01*
X103449761Y-41167142D02*
X103402142Y-41119523D01*
X103402142Y-41119523D02*
X103306904Y-41071904D01*
X103306904Y-41071904D02*
X103211666Y-41071904D01*
X103211666Y-41071904D02*
X103116428Y-41119523D01*
X103116428Y-41119523D02*
X103068809Y-41167142D01*
X103068809Y-41167142D02*
X103021190Y-41262380D01*
X103021190Y-41262380D02*
X102973571Y-41452856D01*
X102973571Y-41452856D02*
X102925952Y-41548094D01*
X102925952Y-41548094D02*
X102878333Y-41595713D01*
X102878333Y-41595713D02*
X102783095Y-41643332D01*
X102783095Y-41643332D02*
X102687857Y-41643332D01*
X102687857Y-41643332D02*
X102592619Y-41595713D01*
X102592619Y-41595713D02*
X102545000Y-41548094D01*
X102545000Y-41548094D02*
X102497380Y-41452856D01*
X102497380Y-41452856D02*
X102497380Y-41214761D01*
X102497380Y-41214761D02*
X102545000Y-41071904D01*
X102497380Y-40738570D02*
X103497380Y-40500475D01*
X103497380Y-40500475D02*
X102783095Y-40309999D01*
X102783095Y-40309999D02*
X103497380Y-40119523D01*
X103497380Y-40119523D02*
X102497380Y-39881428D01*
X103497380Y-38976666D02*
X103497380Y-39548094D01*
X103497380Y-39262380D02*
X102497380Y-39262380D01*
X102497380Y-39262380D02*
X102640238Y-39357618D01*
X102640238Y-39357618D02*
X102735476Y-39452856D01*
X102735476Y-39452856D02*
X102783095Y-39548094D01*
X109870833Y-59452142D02*
X109823214Y-59499761D01*
X109823214Y-59499761D02*
X109680357Y-59547380D01*
X109680357Y-59547380D02*
X109585119Y-59547380D01*
X109585119Y-59547380D02*
X109442262Y-59499761D01*
X109442262Y-59499761D02*
X109347024Y-59404523D01*
X109347024Y-59404523D02*
X109299405Y-59309285D01*
X109299405Y-59309285D02*
X109251786Y-59118809D01*
X109251786Y-59118809D02*
X109251786Y-58975952D01*
X109251786Y-58975952D02*
X109299405Y-58785476D01*
X109299405Y-58785476D02*
X109347024Y-58690238D01*
X109347024Y-58690238D02*
X109442262Y-58595000D01*
X109442262Y-58595000D02*
X109585119Y-58547380D01*
X109585119Y-58547380D02*
X109680357Y-58547380D01*
X109680357Y-58547380D02*
X109823214Y-58595000D01*
X109823214Y-58595000D02*
X109870833Y-58642619D01*
X110204167Y-58547380D02*
X110823214Y-58547380D01*
X110823214Y-58547380D02*
X110489881Y-58928333D01*
X110489881Y-58928333D02*
X110632738Y-58928333D01*
X110632738Y-58928333D02*
X110727976Y-58975952D01*
X110727976Y-58975952D02*
X110775595Y-59023571D01*
X110775595Y-59023571D02*
X110823214Y-59118809D01*
X110823214Y-59118809D02*
X110823214Y-59356904D01*
X110823214Y-59356904D02*
X110775595Y-59452142D01*
X110775595Y-59452142D02*
X110727976Y-59499761D01*
X110727976Y-59499761D02*
X110632738Y-59547380D01*
X110632738Y-59547380D02*
X110347024Y-59547380D01*
X110347024Y-59547380D02*
X110251786Y-59499761D01*
X110251786Y-59499761D02*
X110204167Y-59452142D01*
D11*
X105600000Y-64000000D02*
X88400000Y-64000000D01*
X88400000Y-52000000D02*
X105600000Y-52000000D01*
X88400000Y-64000000D02*
X88400000Y-52000000D01*
X105600000Y-52000000D02*
X105600000Y-64000000D01*
X89800000Y-53200000D02*
G75*
G03*
X89800000Y-53200000I-100000J0D01*
G01*
X89841419Y-53100000D02*
G75*
G03*
X89841419Y-53100000I-141419J0D01*
G01*
X90060553Y-53100000D02*
G75*
G03*
X90060553Y-53100000I-360553J0D01*
G01*
X89982841Y-53100000D02*
G75*
G03*
X89982841Y-53100000I-282841J0D01*
G01*
D12*
X86023500Y-52234000D02*
G75*
G03*
X86023500Y-52234000I-63500J0D01*
G01*
D11*
X89841419Y-53000000D02*
G75*
G03*
X89841419Y-53000000I-141419J0D01*
G01*
D13*
X102130000Y-42960000D02*
X102130000Y-41310000D01*
X102130000Y-37660000D02*
X91850000Y-37660000D01*
X91850000Y-42960000D02*
X102130000Y-42960000D01*
X91850000Y-37660000D02*
X91850000Y-42960000D01*
X102130000Y-39310000D02*
X102130000Y-37660000D01*
X102130000Y-39310000D02*
G75*
G03*
X102130000Y-41310000I0J-1000000D01*
G01*
X110298752Y-58235000D02*
X109776248Y-58235000D01*
X110298752Y-56765000D02*
X109776248Y-56765000D01*
%LPC*%
D14*
X87309999Y-52249999D03*
X87309999Y-52749999D03*
X87309999Y-53249999D03*
X87309999Y-53749999D03*
X87309999Y-54249999D03*
X87309999Y-54749999D03*
X87309999Y-55249999D03*
X87309999Y-55749999D03*
X87309999Y-56249999D03*
X87309999Y-56749999D03*
X87309999Y-57249999D03*
X87309999Y-57749999D03*
X87309999Y-58249999D03*
X87309999Y-58749999D03*
X87309999Y-59249999D03*
X87309999Y-59749999D03*
X87309999Y-60249999D03*
X87309999Y-60749999D03*
X87309999Y-61249999D03*
X87309999Y-61749999D03*
X87309999Y-62249999D03*
X87309999Y-62749999D03*
X87309999Y-63249999D03*
X87309999Y-63749999D03*
X106689999Y-63749999D03*
X106689999Y-63249999D03*
X106689999Y-62749999D03*
X106689999Y-62249999D03*
X106689999Y-61749999D03*
X106689999Y-61249999D03*
X106689999Y-60749999D03*
X106689999Y-60249999D03*
X106689999Y-59749999D03*
X106689999Y-59249999D03*
X106689999Y-58749999D03*
X106689999Y-58249999D03*
X106689999Y-57749999D03*
X106689999Y-57249999D03*
X106689999Y-56749999D03*
X106689999Y-56249999D03*
X106689999Y-55749999D03*
X106689999Y-55249999D03*
X106689999Y-54749999D03*
X106689999Y-54249999D03*
X106689999Y-53749999D03*
X106689999Y-53249999D03*
X106689999Y-52749999D03*
X106689999Y-52249999D03*
D15*
X74000000Y-54000000D03*
X120000000Y-54000000D03*
D16*
X100799999Y-36499999D03*
D17*
X98259999Y-36499999D03*
X95719999Y-36499999D03*
X93179999Y-36499999D03*
X93179999Y-44119999D03*
X95719999Y-44119999D03*
X98259999Y-44119999D03*
X100799999Y-44119999D03*
D18*
X75410000Y-75500000D03*
X77950000Y-75500000D03*
X80490000Y-75500000D03*
X83030000Y-75500000D03*
X85570000Y-75500000D03*
X88110000Y-75500000D03*
X90650000Y-75500000D03*
X93190000Y-75500000D03*
X95730000Y-75500000D03*
X98270000Y-75500000D03*
X100810000Y-75500000D03*
X103350000Y-75500000D03*
X105890000Y-75500000D03*
X108430000Y-75500000D03*
X110970000Y-75500000D03*
X113510000Y-75500000D03*
X116050000Y-75500000D03*
X118590000Y-75500000D03*
D19*
X111075000Y-57500000D03*
X109000000Y-57500000D03*
M02*
