G04 #@! TF.GenerationSoftware,KiCad,Pcbnew,(7.0.0-0)*
G04 #@! TF.CreationDate,2023-03-15T13:18:41-07:00*
G04 #@! TF.ProjectId,qcard-multicart,71636172-642d-46d7-956c-746963617274,3*
G04 #@! TF.SameCoordinates,Original*
G04 #@! TF.FileFunction,Paste,Top*
G04 #@! TF.FilePolarity,Positive*
%FSLAX46Y46*%
G04 Gerber Fmt 4.6, Leading zero omitted, Abs format (unit mm)*
G04 Created by KiCad (PCBNEW (7.0.0-0)) date 2023-03-15 13:18:41*
%MOMM*%
%LPD*%
G01*
G04 APERTURE LIST*
G04 Aperture macros list*
%AMRoundRect*
0 Rectangle with rounded corners*
0 $1 Rounding radius*
0 $2 $3 $4 $5 $6 $7 $8 $9 X,Y pos of 4 corners*
0 Add a 4 corners polygon primitive as box body*
4,1,4,$2,$3,$4,$5,$6,$7,$8,$9,$2,$3,0*
0 Add four circle primitives for the rounded corners*
1,1,$1+$1,$2,$3*
1,1,$1+$1,$4,$5*
1,1,$1+$1,$6,$7*
1,1,$1+$1,$8,$9*
0 Add four rect primitives between the rounded corners*
20,1,$1+$1,$2,$3,$4,$5,0*
20,1,$1+$1,$4,$5,$6,$7,0*
20,1,$1+$1,$6,$7,$8,$9,0*
20,1,$1+$1,$8,$9,$2,$3,0*%
G04 Aperture macros list end*
%ADD10R,1.540000X0.280000*%
%ADD11RoundRect,0.250000X0.337500X0.475000X-0.337500X0.475000X-0.337500X-0.475000X0.337500X-0.475000X0*%
G04 APERTURE END LIST*
D10*
X87309999Y-52249999D03*
X87309999Y-52749999D03*
X87309999Y-53249999D03*
X87309999Y-53749999D03*
X87309999Y-54249999D03*
X87309999Y-54749999D03*
X87309999Y-55249999D03*
X87309999Y-55749999D03*
X87309999Y-56249999D03*
X87309999Y-56749999D03*
X87309999Y-57249999D03*
X87309999Y-57749999D03*
X87309999Y-58249999D03*
X87309999Y-58749999D03*
X87309999Y-59249999D03*
X87309999Y-59749999D03*
X87309999Y-60249999D03*
X87309999Y-60749999D03*
X87309999Y-61249999D03*
X87309999Y-61749999D03*
X87309999Y-62249999D03*
X87309999Y-62749999D03*
X87309999Y-63249999D03*
X87309999Y-63749999D03*
X106689999Y-63749999D03*
X106689999Y-63249999D03*
X106689999Y-62749999D03*
X106689999Y-62249999D03*
X106689999Y-61749999D03*
X106689999Y-61249999D03*
X106689999Y-60749999D03*
X106689999Y-60249999D03*
X106689999Y-59749999D03*
X106689999Y-59249999D03*
X106689999Y-58749999D03*
X106689999Y-58249999D03*
X106689999Y-57749999D03*
X106689999Y-57249999D03*
X106689999Y-56749999D03*
X106689999Y-56249999D03*
X106689999Y-55749999D03*
X106689999Y-55249999D03*
X106689999Y-54749999D03*
X106689999Y-54249999D03*
X106689999Y-53749999D03*
X106689999Y-53249999D03*
X106689999Y-52749999D03*
X106689999Y-52249999D03*
D11*
X111075000Y-57500000D03*
X109000000Y-57500000D03*
M02*
