G04 #@! TF.GenerationSoftware,KiCad,Pcbnew,(6.0.7-1)-1*
G04 #@! TF.CreationDate,2023-02-13T21:52:59-08:00*
G04 #@! TF.ProjectId,qcard-multicart,71636172-642d-46d7-956c-746963617274,1*
G04 #@! TF.SameCoordinates,Original*
G04 #@! TF.FileFunction,Legend,Bot*
G04 #@! TF.FilePolarity,Positive*
%FSLAX46Y46*%
G04 Gerber Fmt 4.6, Leading zero omitted, Abs format (unit mm)*
G04 Created by KiCad (PCBNEW (6.0.7-1)-1) date 2023-02-13 21:52:59*
%MOMM*%
%LPD*%
G01*
G04 APERTURE LIST*
G04 Aperture macros list*
%AMRoundRect*
0 Rectangle with rounded corners*
0 $1 Rounding radius*
0 $2 $3 $4 $5 $6 $7 $8 $9 X,Y pos of 4 corners*
0 Add a 4 corners polygon primitive as box body*
4,1,4,$2,$3,$4,$5,$6,$7,$8,$9,$2,$3,0*
0 Add four circle primitives for the rounded corners*
1,1,$1+$1,$2,$3*
1,1,$1+$1,$4,$5*
1,1,$1+$1,$6,$7*
1,1,$1+$1,$8,$9*
0 Add four rect primitives between the rounded corners*
20,1,$1+$1,$2,$3,$4,$5,0*
20,1,$1+$1,$4,$5,$6,$7,0*
20,1,$1+$1,$6,$7,$8,$9,0*
20,1,$1+$1,$8,$9,$2,$3,0*%
G04 Aperture macros list end*
%ADD10C,0.127000*%
%ADD11C,0.150000*%
%ADD12C,0.120000*%
%ADD13C,6.400000*%
%ADD14R,1.600000X1.600000*%
%ADD15O,1.600000X1.600000*%
%ADD16RoundRect,0.375000X-0.375000X-4.625000X0.375000X-4.625000X0.375000X4.625000X-0.375000X4.625000X0*%
%ADD17RoundRect,0.250000X-0.450000X0.350000X-0.450000X-0.350000X0.450000X-0.350000X0.450000X0.350000X0*%
%ADD18RoundRect,0.250000X-0.337500X-0.475000X0.337500X-0.475000X0.337500X0.475000X-0.337500X0.475000X0*%
%ADD19RoundRect,0.150000X0.150000X-0.512500X0.150000X0.512500X-0.150000X0.512500X-0.150000X-0.512500X0*%
G04 APERTURE END LIST*
D10*
X102971428Y-57142619D02*
X103066666Y-57095000D01*
X103161904Y-56999761D01*
X103304761Y-56856904D01*
X103400000Y-56809285D01*
X103495238Y-56809285D01*
X103447619Y-57047380D02*
X103542857Y-56999761D01*
X103638095Y-56904523D01*
X103685714Y-56714047D01*
X103685714Y-56380714D01*
X103638095Y-56190238D01*
X103542857Y-56095000D01*
X103447619Y-56047380D01*
X103257142Y-56047380D01*
X103161904Y-56095000D01*
X103066666Y-56190238D01*
X103019047Y-56380714D01*
X103019047Y-56714047D01*
X103066666Y-56904523D01*
X103161904Y-56999761D01*
X103257142Y-57047380D01*
X103447619Y-57047380D01*
X102590476Y-56666428D02*
X101828571Y-56666428D01*
X100780952Y-56952142D02*
X100828571Y-56999761D01*
X100971428Y-57047380D01*
X101066666Y-57047380D01*
X101209523Y-56999761D01*
X101304761Y-56904523D01*
X101352380Y-56809285D01*
X101400000Y-56618809D01*
X101400000Y-56475952D01*
X101352380Y-56285476D01*
X101304761Y-56190238D01*
X101209523Y-56095000D01*
X101066666Y-56047380D01*
X100971428Y-56047380D01*
X100828571Y-56095000D01*
X100780952Y-56142619D01*
X100352380Y-57047380D02*
X100352380Y-56047380D01*
X99923809Y-57047380D02*
X99923809Y-56523571D01*
X99971428Y-56428333D01*
X100066666Y-56380714D01*
X100209523Y-56380714D01*
X100304761Y-56428333D01*
X100352380Y-56475952D01*
X99304761Y-57047380D02*
X99400000Y-56999761D01*
X99447619Y-56952142D01*
X99495238Y-56856904D01*
X99495238Y-56571190D01*
X99447619Y-56475952D01*
X99400000Y-56428333D01*
X99304761Y-56380714D01*
X99161904Y-56380714D01*
X99066666Y-56428333D01*
X99019047Y-56475952D01*
X98971428Y-56571190D01*
X98971428Y-56856904D01*
X99019047Y-56952142D01*
X99066666Y-56999761D01*
X99161904Y-57047380D01*
X99304761Y-57047380D01*
X98542857Y-57047380D02*
X98542857Y-56380714D01*
X98542857Y-56571190D02*
X98495238Y-56475952D01*
X98447619Y-56428333D01*
X98352380Y-56380714D01*
X98257142Y-56380714D01*
X97495238Y-57047380D02*
X97495238Y-56047380D01*
X97495238Y-56999761D02*
X97590476Y-57047380D01*
X97780952Y-57047380D01*
X97876190Y-56999761D01*
X97923809Y-56952142D01*
X97971428Y-56856904D01*
X97971428Y-56571190D01*
X97923809Y-56475952D01*
X97876190Y-56428333D01*
X97780952Y-56380714D01*
X97590476Y-56380714D01*
X97495238Y-56428333D01*
X96257142Y-57047380D02*
X96257142Y-56047380D01*
X95923809Y-56761666D01*
X95590476Y-56047380D01*
X95590476Y-57047380D01*
X94685714Y-56380714D02*
X94685714Y-57047380D01*
X95114285Y-56380714D02*
X95114285Y-56904523D01*
X95066666Y-56999761D01*
X94971428Y-57047380D01*
X94828571Y-57047380D01*
X94733333Y-56999761D01*
X94685714Y-56952142D01*
X94066666Y-57047380D02*
X94161904Y-56999761D01*
X94209523Y-56904523D01*
X94209523Y-56047380D01*
X93828571Y-56380714D02*
X93447619Y-56380714D01*
X93685714Y-56047380D02*
X93685714Y-56904523D01*
X93638095Y-56999761D01*
X93542857Y-57047380D01*
X93447619Y-57047380D01*
X93114285Y-57047380D02*
X93114285Y-56380714D01*
X93114285Y-56047380D02*
X93161904Y-56095000D01*
X93114285Y-56142619D01*
X93066666Y-56095000D01*
X93114285Y-56047380D01*
X93114285Y-56142619D01*
X92209523Y-56999761D02*
X92304761Y-57047380D01*
X92495238Y-57047380D01*
X92590476Y-56999761D01*
X92638095Y-56952142D01*
X92685714Y-56856904D01*
X92685714Y-56571190D01*
X92638095Y-56475952D01*
X92590476Y-56428333D01*
X92495238Y-56380714D01*
X92304761Y-56380714D01*
X92209523Y-56428333D01*
X91352380Y-57047380D02*
X91352380Y-56523571D01*
X91400000Y-56428333D01*
X91495238Y-56380714D01*
X91685714Y-56380714D01*
X91780952Y-56428333D01*
X91352380Y-56999761D02*
X91447619Y-57047380D01*
X91685714Y-57047380D01*
X91780952Y-56999761D01*
X91828571Y-56904523D01*
X91828571Y-56809285D01*
X91780952Y-56714047D01*
X91685714Y-56666428D01*
X91447619Y-56666428D01*
X91352380Y-56618809D01*
X90876190Y-57047380D02*
X90876190Y-56380714D01*
X90876190Y-56571190D02*
X90828571Y-56475952D01*
X90780952Y-56428333D01*
X90685714Y-56380714D01*
X90590476Y-56380714D01*
X90400000Y-56380714D02*
X90019047Y-56380714D01*
X90257142Y-56047380D02*
X90257142Y-56904523D01*
X90209523Y-56999761D01*
X90114285Y-57047380D01*
X90019047Y-57047380D01*
X106733333Y-58181190D02*
X106780952Y-58133571D01*
X106876190Y-58085952D01*
X106971428Y-58085952D01*
X107066666Y-58133571D01*
X107114285Y-58181190D01*
X107161904Y-58276428D01*
X107161904Y-58371666D01*
X107114285Y-58466904D01*
X107066666Y-58514523D01*
X106971428Y-58562142D01*
X106876190Y-58562142D01*
X106780952Y-58514523D01*
X106733333Y-58466904D01*
X106733333Y-58085952D02*
X106733333Y-58466904D01*
X106685714Y-58514523D01*
X106638095Y-58514523D01*
X106542857Y-58466904D01*
X106495238Y-58371666D01*
X106495238Y-58133571D01*
X106590476Y-57990714D01*
X106733333Y-57895476D01*
X106923809Y-57847857D01*
X107114285Y-57895476D01*
X107257142Y-57990714D01*
X107352380Y-58133571D01*
X107400000Y-58324047D01*
X107352380Y-58514523D01*
X107257142Y-58657380D01*
X107114285Y-58752619D01*
X106923809Y-58800238D01*
X106733333Y-58752619D01*
X106590476Y-58657380D01*
X106066666Y-57990714D02*
X106066666Y-58990714D01*
X106066666Y-58038333D02*
X105971428Y-57990714D01*
X105780952Y-57990714D01*
X105685714Y-58038333D01*
X105638095Y-58085952D01*
X105590476Y-58181190D01*
X105590476Y-58466904D01*
X105638095Y-58562142D01*
X105685714Y-58609761D01*
X105780952Y-58657380D01*
X105971428Y-58657380D01*
X106066666Y-58609761D01*
X104733333Y-58657380D02*
X104733333Y-58133571D01*
X104780952Y-58038333D01*
X104876190Y-57990714D01*
X105066666Y-57990714D01*
X105161904Y-58038333D01*
X104733333Y-58609761D02*
X104828571Y-58657380D01*
X105066666Y-58657380D01*
X105161904Y-58609761D01*
X105209523Y-58514523D01*
X105209523Y-58419285D01*
X105161904Y-58324047D01*
X105066666Y-58276428D01*
X104828571Y-58276428D01*
X104733333Y-58228809D01*
X104257142Y-58657380D02*
X104257142Y-57990714D01*
X104257142Y-58181190D02*
X104209523Y-58085952D01*
X104161904Y-58038333D01*
X104066666Y-57990714D01*
X103971428Y-57990714D01*
X103780952Y-57990714D02*
X103400000Y-57990714D01*
X103638095Y-57657380D02*
X103638095Y-58514523D01*
X103590476Y-58609761D01*
X103495238Y-58657380D01*
X103400000Y-58657380D01*
X102923809Y-58657380D02*
X103019047Y-58609761D01*
X103066666Y-58514523D01*
X103066666Y-57657380D01*
X102638095Y-57990714D02*
X102400000Y-58657380D01*
X102161904Y-57990714D02*
X102400000Y-58657380D01*
X102495238Y-58895476D01*
X102542857Y-58943095D01*
X102638095Y-58990714D01*
X101780952Y-58657380D02*
X101780952Y-57657380D01*
X101352380Y-58657380D02*
X101352380Y-58133571D01*
X101400000Y-58038333D01*
X101495238Y-57990714D01*
X101638095Y-57990714D01*
X101733333Y-58038333D01*
X101780952Y-58085952D01*
X100447619Y-57990714D02*
X100447619Y-58657380D01*
X100876190Y-57990714D02*
X100876190Y-58514523D01*
X100828571Y-58609761D01*
X100733333Y-58657380D01*
X100590476Y-58657380D01*
X100495238Y-58609761D01*
X100447619Y-58562142D01*
X99971428Y-58657380D02*
X99971428Y-57990714D01*
X99971428Y-58085952D02*
X99923809Y-58038333D01*
X99828571Y-57990714D01*
X99685714Y-57990714D01*
X99590476Y-58038333D01*
X99542857Y-58133571D01*
X99542857Y-58657380D01*
X99542857Y-58133571D02*
X99495238Y-58038333D01*
X99400000Y-57990714D01*
X99257142Y-57990714D01*
X99161904Y-58038333D01*
X99114285Y-58133571D01*
X99114285Y-58657380D01*
X98209523Y-58657380D02*
X98209523Y-58133571D01*
X98257142Y-58038333D01*
X98352380Y-57990714D01*
X98542857Y-57990714D01*
X98638095Y-58038333D01*
X98209523Y-58609761D02*
X98304761Y-58657380D01*
X98542857Y-58657380D01*
X98638095Y-58609761D01*
X98685714Y-58514523D01*
X98685714Y-58419285D01*
X98638095Y-58324047D01*
X98542857Y-58276428D01*
X98304761Y-58276428D01*
X98209523Y-58228809D01*
X97733333Y-57990714D02*
X97733333Y-58657380D01*
X97733333Y-58085952D02*
X97685714Y-58038333D01*
X97590476Y-57990714D01*
X97447619Y-57990714D01*
X97352380Y-58038333D01*
X97304761Y-58133571D01*
X97304761Y-58657380D01*
X96114285Y-57752619D02*
X96066666Y-57705000D01*
X95971428Y-57657380D01*
X95733333Y-57657380D01*
X95638095Y-57705000D01*
X95590476Y-57752619D01*
X95542857Y-57847857D01*
X95542857Y-57943095D01*
X95590476Y-58085952D01*
X96161904Y-58657380D01*
X95542857Y-58657380D01*
X94923809Y-57657380D02*
X94828571Y-57657380D01*
X94733333Y-57705000D01*
X94685714Y-57752619D01*
X94638095Y-57847857D01*
X94590476Y-58038333D01*
X94590476Y-58276428D01*
X94638095Y-58466904D01*
X94685714Y-58562142D01*
X94733333Y-58609761D01*
X94828571Y-58657380D01*
X94923809Y-58657380D01*
X95019047Y-58609761D01*
X95066666Y-58562142D01*
X95114285Y-58466904D01*
X95161904Y-58276428D01*
X95161904Y-58038333D01*
X95114285Y-57847857D01*
X95066666Y-57752619D01*
X95019047Y-57705000D01*
X94923809Y-57657380D01*
X94209523Y-57752619D02*
X94161904Y-57705000D01*
X94066666Y-57657380D01*
X93828571Y-57657380D01*
X93733333Y-57705000D01*
X93685714Y-57752619D01*
X93638095Y-57847857D01*
X93638095Y-57943095D01*
X93685714Y-58085952D01*
X94257142Y-58657380D01*
X93638095Y-58657380D01*
X93304761Y-57657380D02*
X92685714Y-57657380D01*
X93019047Y-58038333D01*
X92876190Y-58038333D01*
X92780952Y-58085952D01*
X92733333Y-58133571D01*
X92685714Y-58228809D01*
X92685714Y-58466904D01*
X92733333Y-58562142D01*
X92780952Y-58609761D01*
X92876190Y-58657380D01*
X93161904Y-58657380D01*
X93257142Y-58609761D01*
X93304761Y-58562142D01*
X92257142Y-58276428D02*
X91495238Y-58276428D01*
X90828571Y-57657380D02*
X90733333Y-57657380D01*
X90638095Y-57705000D01*
X90590476Y-57752619D01*
X90542857Y-57847857D01*
X90495238Y-58038333D01*
X90495238Y-58276428D01*
X90542857Y-58466904D01*
X90590476Y-58562142D01*
X90638095Y-58609761D01*
X90733333Y-58657380D01*
X90828571Y-58657380D01*
X90923809Y-58609761D01*
X90971428Y-58562142D01*
X91019047Y-58466904D01*
X91066666Y-58276428D01*
X91066666Y-58038333D01*
X91019047Y-57847857D01*
X90971428Y-57752619D01*
X90923809Y-57705000D01*
X90828571Y-57657380D01*
X90114285Y-57752619D02*
X90066666Y-57705000D01*
X89971428Y-57657380D01*
X89733333Y-57657380D01*
X89638095Y-57705000D01*
X89590476Y-57752619D01*
X89542857Y-57847857D01*
X89542857Y-57943095D01*
X89590476Y-58085952D01*
X90161904Y-58657380D01*
X89542857Y-58657380D01*
X89114285Y-58276428D02*
X88352380Y-58276428D01*
X87352380Y-58657380D02*
X87923809Y-58657380D01*
X87638095Y-58657380D02*
X87638095Y-57657380D01*
X87733333Y-57800238D01*
X87828571Y-57895476D01*
X87923809Y-57943095D01*
X87019047Y-57657380D02*
X86400000Y-57657380D01*
X86733333Y-58038333D01*
X86590476Y-58038333D01*
X86495238Y-58085952D01*
X86447619Y-58133571D01*
X86400000Y-58228809D01*
X86400000Y-58466904D01*
X86447619Y-58562142D01*
X86495238Y-58609761D01*
X86590476Y-58657380D01*
X86876190Y-58657380D01*
X86971428Y-58609761D01*
X87019047Y-58562142D01*
D11*
X98466666Y-46752380D02*
X98800000Y-46276190D01*
X99038095Y-46752380D02*
X99038095Y-45752380D01*
X98657142Y-45752380D01*
X98561904Y-45800000D01*
X98514285Y-45847619D01*
X98466666Y-45942857D01*
X98466666Y-46085714D01*
X98514285Y-46180952D01*
X98561904Y-46228571D01*
X98657142Y-46276190D01*
X99038095Y-46276190D01*
X98133333Y-45752380D02*
X97514285Y-45752380D01*
X97847619Y-46133333D01*
X97704761Y-46133333D01*
X97609523Y-46180952D01*
X97561904Y-46228571D01*
X97514285Y-46323809D01*
X97514285Y-46561904D01*
X97561904Y-46657142D01*
X97609523Y-46704761D01*
X97704761Y-46752380D01*
X97990476Y-46752380D01*
X98085714Y-46704761D01*
X98133333Y-46657142D01*
X95766666Y-46652380D02*
X96100000Y-46176190D01*
X96338095Y-46652380D02*
X96338095Y-45652380D01*
X95957142Y-45652380D01*
X95861904Y-45700000D01*
X95814285Y-45747619D01*
X95766666Y-45842857D01*
X95766666Y-45985714D01*
X95814285Y-46080952D01*
X95861904Y-46128571D01*
X95957142Y-46176190D01*
X96338095Y-46176190D01*
X95385714Y-45747619D02*
X95338095Y-45700000D01*
X95242857Y-45652380D01*
X95004761Y-45652380D01*
X94909523Y-45700000D01*
X94861904Y-45747619D01*
X94814285Y-45842857D01*
X94814285Y-45938095D01*
X94861904Y-46080952D01*
X95433333Y-46652380D01*
X94814285Y-46652380D01*
X79766666Y-66957142D02*
X79814285Y-67004761D01*
X79957142Y-67052380D01*
X80052380Y-67052380D01*
X80195238Y-67004761D01*
X80290476Y-66909523D01*
X80338095Y-66814285D01*
X80385714Y-66623809D01*
X80385714Y-66480952D01*
X80338095Y-66290476D01*
X80290476Y-66195238D01*
X80195238Y-66100000D01*
X80052380Y-66052380D01*
X79957142Y-66052380D01*
X79814285Y-66100000D01*
X79766666Y-66147619D01*
X78814285Y-67052380D02*
X79385714Y-67052380D01*
X79100000Y-67052380D02*
X79100000Y-66052380D01*
X79195238Y-66195238D01*
X79290476Y-66290476D01*
X79385714Y-66338095D01*
X93366666Y-46652380D02*
X93700000Y-46176190D01*
X93938095Y-46652380D02*
X93938095Y-45652380D01*
X93557142Y-45652380D01*
X93461904Y-45700000D01*
X93414285Y-45747619D01*
X93366666Y-45842857D01*
X93366666Y-45985714D01*
X93414285Y-46080952D01*
X93461904Y-46128571D01*
X93557142Y-46176190D01*
X93938095Y-46176190D01*
X92414285Y-46652380D02*
X92985714Y-46652380D01*
X92700000Y-46652380D02*
X92700000Y-45652380D01*
X92795238Y-45795238D01*
X92890476Y-45890476D01*
X92985714Y-45938095D01*
X79766666Y-60857142D02*
X79814285Y-60904761D01*
X79957142Y-60952380D01*
X80052380Y-60952380D01*
X80195238Y-60904761D01*
X80290476Y-60809523D01*
X80338095Y-60714285D01*
X80385714Y-60523809D01*
X80385714Y-60380952D01*
X80338095Y-60190476D01*
X80290476Y-60095238D01*
X80195238Y-60000000D01*
X80052380Y-59952380D01*
X79957142Y-59952380D01*
X79814285Y-60000000D01*
X79766666Y-60047619D01*
X79385714Y-60047619D02*
X79338095Y-60000000D01*
X79242857Y-59952380D01*
X79004761Y-59952380D01*
X78909523Y-60000000D01*
X78861904Y-60047619D01*
X78814285Y-60142857D01*
X78814285Y-60238095D01*
X78861904Y-60380952D01*
X79433333Y-60952380D01*
X78814285Y-60952380D01*
X76161904Y-66552380D02*
X76161904Y-67361904D01*
X76114285Y-67457142D01*
X76066666Y-67504761D01*
X75971428Y-67552380D01*
X75780952Y-67552380D01*
X75685714Y-67504761D01*
X75638095Y-67457142D01*
X75590476Y-67361904D01*
X75590476Y-66552380D01*
X75161904Y-66647619D02*
X75114285Y-66600000D01*
X75019047Y-66552380D01*
X74780952Y-66552380D01*
X74685714Y-66600000D01*
X74638095Y-66647619D01*
X74590476Y-66742857D01*
X74590476Y-66838095D01*
X74638095Y-66980952D01*
X75209523Y-67552380D01*
X74590476Y-67552380D01*
X100966666Y-46752380D02*
X101300000Y-46276190D01*
X101538095Y-46752380D02*
X101538095Y-45752380D01*
X101157142Y-45752380D01*
X101061904Y-45800000D01*
X101014285Y-45847619D01*
X100966666Y-45942857D01*
X100966666Y-46085714D01*
X101014285Y-46180952D01*
X101061904Y-46228571D01*
X101157142Y-46276190D01*
X101538095Y-46276190D01*
X100109523Y-46085714D02*
X100109523Y-46752380D01*
X100347619Y-45704761D02*
X100585714Y-46419047D01*
X99966666Y-46419047D01*
D12*
X97565000Y-48772936D02*
X97565000Y-49227064D01*
X99035000Y-48772936D02*
X99035000Y-49227064D01*
X94965000Y-48772936D02*
X94965000Y-49227064D01*
X96435000Y-48772936D02*
X96435000Y-49227064D01*
X79338748Y-64065000D02*
X79861252Y-64065000D01*
X79338748Y-65535000D02*
X79861252Y-65535000D01*
X93935000Y-48772936D02*
X93935000Y-49227064D01*
X92465000Y-48772936D02*
X92465000Y-49227064D01*
X79338748Y-63135000D02*
X79861252Y-63135000D01*
X79338748Y-61665000D02*
X79861252Y-61665000D01*
X76960000Y-63700000D02*
X76960000Y-62900000D01*
X73840000Y-63700000D02*
X73840000Y-64500000D01*
X73840000Y-63700000D02*
X73840000Y-62900000D01*
X76960000Y-63700000D02*
X76960000Y-65500000D01*
X100065000Y-48772936D02*
X100065000Y-49227064D01*
X101535000Y-48772936D02*
X101535000Y-49227064D01*
%LPC*%
D13*
X74000000Y-54000000D03*
X120000000Y-54000000D03*
D14*
X100800000Y-36500000D03*
D15*
X98260000Y-36500000D03*
X95720000Y-36500000D03*
X93180000Y-36500000D03*
X93180000Y-44120000D03*
X95720000Y-44120000D03*
X98260000Y-44120000D03*
X100800000Y-44120000D03*
D16*
X75380000Y-75500000D03*
X77920000Y-75500000D03*
X80460000Y-75500000D03*
X83000000Y-75500000D03*
X85540000Y-75500000D03*
X88080000Y-75500000D03*
X90620000Y-75500000D03*
X93160000Y-75500000D03*
X95700000Y-75500000D03*
X98240000Y-75500000D03*
X100780000Y-75500000D03*
X103320000Y-75500000D03*
X105860000Y-75500000D03*
X108400000Y-75500000D03*
X110940000Y-75500000D03*
X113480000Y-75500000D03*
X116020000Y-75500000D03*
X118560000Y-75500000D03*
D17*
X98300000Y-48000000D03*
X98300000Y-50000000D03*
X95700000Y-48000000D03*
X95700000Y-50000000D03*
D18*
X78562500Y-64800000D03*
X80637500Y-64800000D03*
D17*
X93200000Y-48000000D03*
X93200000Y-50000000D03*
D18*
X78562500Y-62400000D03*
X80637500Y-62400000D03*
D19*
X76350000Y-64837500D03*
X75400000Y-64837500D03*
X74450000Y-64837500D03*
X74450000Y-62562500D03*
X76350000Y-62562500D03*
D17*
X100800000Y-48000000D03*
X100800000Y-50000000D03*
M02*
