M48
; DRILL file {KiCad (7.0.0-0)} date Wednesday, March 15, 2023 at 12:54:39 PM
; FORMAT={-:-/ absolute / inch / decimal}
; #@! TF.CreationDate,2023-03-15T12:54:39-07:00
; #@! TF.GenerationSoftware,Kicad,Pcbnew,(7.0.0-0)
; #@! TF.FileFunction,Plated,1,2,PTH
FMAT,2
INCH
; #@! TA.AperFunction,Plated,PTH,ViaDrill
T1C0.0130
; #@! TA.AperFunction,Plated,PTH,ViaDrill
T2C0.0150
; #@! TA.AperFunction,Plated,PTH,ComponentDrill
T3C0.0315
%
G90
G05
T1
X2.9291Y-1.5945
X3.2323Y-1.7638
X3.3031Y-2.6732
X3.3572Y-2.3386
X3.3622Y-2.2205
X3.4291Y-2.6929
X3.4646Y-1.8898
X3.4961Y-2.1181
X3.5079Y-2.3788
X3.5236Y-2.2017
X3.5236Y-2.4449
X3.5236Y-2.6614
X3.5433Y-2.1339
X3.5994Y-2.1329
X3.6417Y-2.4775
X3.6428Y-2.6732
X3.7677Y-2.4764
X3.7677Y-2.5945
X3.8053Y-2.6772
X3.8307Y-2.4764
X3.8318Y-2.7087
X3.8847Y-2.5984
X3.9291Y-2.2165
X4.0345Y-2.4882
X4.0827Y-2.6142
X4.1339Y-2.3937
X4.1339Y-2.4409
X4.1339Y-2.4902
X4.1605Y-2.6151
X4.189Y-1.8898
X4.2008Y-2.5444
X4.2677Y-2.6063
X4.3228Y-2.5433
X4.3228Y-2.689
X4.3307Y-2.4409
X4.374Y-2.6811
X4.4606Y-1.7638
X4.4646Y-2.378
X4.7244Y-1.5945
T2
X2.9291Y-2.6339
X3.0748Y-2.6339
X4.2913Y-2.1949
X4.6181Y-2.6339
X4.7638Y-2.6339
T3
X3.6685Y-1.2795
X3.6685Y-1.5795
X3.7685Y-1.2795
X3.7685Y-1.5795
X3.8685Y-1.2795
X3.8685Y-1.5795
X3.9685Y-1.2795
X3.9685Y-1.5795
T0
M30
