%TF.GenerationSoftware,KiCad,Pcbnew,(6.0.7-1)-1*%
%TF.CreationDate,2023-01-15T15:04:07-08:00*%
%TF.ProjectId,QCard,51436172-642e-46b6-9963-61645f706362,rev?*%
%TF.SameCoordinates,Original*%
%TF.FileFunction,Legend,Top*%
%TF.FilePolarity,Positive*%
%FSLAX46Y46*%
G04 Gerber Fmt 4.6, Leading zero omitted, Abs format (unit mm)*
G04 Created by KiCad (PCBNEW (6.0.7-1)-1) date 2023-01-15 15:04:07*
%MOMM*%
%LPD*%
G01*
G04 APERTURE LIST*
%ADD10C,0.150000*%
%ADD11C,0.120000*%
%ADD12C,0.100000*%
G04 APERTURE END LIST*
D10*
X68309523Y-59742619D02*
X68214285Y-59695000D01*
X68119047Y-59599761D01*
X67976190Y-59456904D01*
X67880952Y-59409285D01*
X67785714Y-59409285D01*
X67833333Y-59647380D02*
X67738095Y-59599761D01*
X67642857Y-59504523D01*
X67595238Y-59314047D01*
X67595238Y-58980714D01*
X67642857Y-58790238D01*
X67738095Y-58695000D01*
X67833333Y-58647380D01*
X68023809Y-58647380D01*
X68119047Y-58695000D01*
X68214285Y-58790238D01*
X68261904Y-58980714D01*
X68261904Y-59314047D01*
X68214285Y-59504523D01*
X68119047Y-59599761D01*
X68023809Y-59647380D01*
X67833333Y-59647380D01*
X68690476Y-59266428D02*
X69452380Y-59266428D01*
X70500000Y-59552142D02*
X70452380Y-59599761D01*
X70309523Y-59647380D01*
X70214285Y-59647380D01*
X70071428Y-59599761D01*
X69976190Y-59504523D01*
X69928571Y-59409285D01*
X69880952Y-59218809D01*
X69880952Y-59075952D01*
X69928571Y-58885476D01*
X69976190Y-58790238D01*
X70071428Y-58695000D01*
X70214285Y-58647380D01*
X70309523Y-58647380D01*
X70452380Y-58695000D01*
X70500000Y-58742619D01*
X70928571Y-59647380D02*
X70928571Y-58647380D01*
X71357142Y-59647380D02*
X71357142Y-59123571D01*
X71309523Y-59028333D01*
X71214285Y-58980714D01*
X71071428Y-58980714D01*
X70976190Y-59028333D01*
X70928571Y-59075952D01*
X71976190Y-59647380D02*
X71880952Y-59599761D01*
X71833333Y-59552142D01*
X71785714Y-59456904D01*
X71785714Y-59171190D01*
X71833333Y-59075952D01*
X71880952Y-59028333D01*
X71976190Y-58980714D01*
X72119047Y-58980714D01*
X72214285Y-59028333D01*
X72261904Y-59075952D01*
X72309523Y-59171190D01*
X72309523Y-59456904D01*
X72261904Y-59552142D01*
X72214285Y-59599761D01*
X72119047Y-59647380D01*
X71976190Y-59647380D01*
X72738095Y-59647380D02*
X72738095Y-58980714D01*
X72738095Y-59171190D02*
X72785714Y-59075952D01*
X72833333Y-59028333D01*
X72928571Y-58980714D01*
X73023809Y-58980714D01*
X73785714Y-59647380D02*
X73785714Y-58647380D01*
X73785714Y-59599761D02*
X73690476Y-59647380D01*
X73500000Y-59647380D01*
X73404761Y-59599761D01*
X73357142Y-59552142D01*
X73309523Y-59456904D01*
X73309523Y-59171190D01*
X73357142Y-59075952D01*
X73404761Y-59028333D01*
X73500000Y-58980714D01*
X73690476Y-58980714D01*
X73785714Y-59028333D01*
X74976190Y-59599761D02*
X75071428Y-59647380D01*
X75261904Y-59647380D01*
X75357142Y-59599761D01*
X75404761Y-59504523D01*
X75404761Y-59456904D01*
X75357142Y-59361666D01*
X75261904Y-59314047D01*
X75119047Y-59314047D01*
X75023809Y-59266428D01*
X74976190Y-59171190D01*
X74976190Y-59123571D01*
X75023809Y-59028333D01*
X75119047Y-58980714D01*
X75261904Y-58980714D01*
X75357142Y-59028333D01*
X75976190Y-59647380D02*
X75880952Y-59599761D01*
X75833333Y-59552142D01*
X75785714Y-59456904D01*
X75785714Y-59171190D01*
X75833333Y-59075952D01*
X75880952Y-59028333D01*
X75976190Y-58980714D01*
X76119047Y-58980714D01*
X76214285Y-59028333D01*
X76261904Y-59075952D01*
X76309523Y-59171190D01*
X76309523Y-59456904D01*
X76261904Y-59552142D01*
X76214285Y-59599761D01*
X76119047Y-59647380D01*
X75976190Y-59647380D01*
X76738095Y-58980714D02*
X76738095Y-59647380D01*
X76738095Y-59075952D02*
X76785714Y-59028333D01*
X76880952Y-58980714D01*
X77023809Y-58980714D01*
X77119047Y-59028333D01*
X77166666Y-59123571D01*
X77166666Y-59647380D01*
X78071428Y-58980714D02*
X78071428Y-59790238D01*
X78023809Y-59885476D01*
X77976190Y-59933095D01*
X77880952Y-59980714D01*
X77738095Y-59980714D01*
X77642857Y-59933095D01*
X78071428Y-59599761D02*
X77976190Y-59647380D01*
X77785714Y-59647380D01*
X77690476Y-59599761D01*
X77642857Y-59552142D01*
X77595238Y-59456904D01*
X77595238Y-59171190D01*
X77642857Y-59075952D01*
X77690476Y-59028333D01*
X77785714Y-58980714D01*
X77976190Y-58980714D01*
X78071428Y-59028333D01*
X79738095Y-59599761D02*
X79642857Y-59647380D01*
X79452380Y-59647380D01*
X79357142Y-59599761D01*
X79309523Y-59552142D01*
X79261904Y-59456904D01*
X79261904Y-59171190D01*
X79309523Y-59075952D01*
X79357142Y-59028333D01*
X79452380Y-58980714D01*
X79642857Y-58980714D01*
X79738095Y-59028333D01*
X80595238Y-59647380D02*
X80595238Y-59123571D01*
X80547619Y-59028333D01*
X80452380Y-58980714D01*
X80261904Y-58980714D01*
X80166666Y-59028333D01*
X80595238Y-59599761D02*
X80500000Y-59647380D01*
X80261904Y-59647380D01*
X80166666Y-59599761D01*
X80119047Y-59504523D01*
X80119047Y-59409285D01*
X80166666Y-59314047D01*
X80261904Y-59266428D01*
X80500000Y-59266428D01*
X80595238Y-59218809D01*
X81071428Y-59647380D02*
X81071428Y-58980714D01*
X81071428Y-59171190D02*
X81119047Y-59075952D01*
X81166666Y-59028333D01*
X81261904Y-58980714D01*
X81357142Y-58980714D01*
X81547619Y-58980714D02*
X81928571Y-58980714D01*
X81690476Y-58647380D02*
X81690476Y-59504523D01*
X81738095Y-59599761D01*
X81833333Y-59647380D01*
X81928571Y-59647380D01*
X82261904Y-59647380D02*
X82261904Y-58980714D01*
X82261904Y-59171190D02*
X82309523Y-59075952D01*
X82357142Y-59028333D01*
X82452380Y-58980714D01*
X82547619Y-58980714D01*
X82880952Y-59647380D02*
X82880952Y-58980714D01*
X82880952Y-58647380D02*
X82833333Y-58695000D01*
X82880952Y-58742619D01*
X82928571Y-58695000D01*
X82880952Y-58647380D01*
X82880952Y-58742619D01*
X83785714Y-59647380D02*
X83785714Y-58647380D01*
X83785714Y-59599761D02*
X83690476Y-59647380D01*
X83500000Y-59647380D01*
X83404761Y-59599761D01*
X83357142Y-59552142D01*
X83309523Y-59456904D01*
X83309523Y-59171190D01*
X83357142Y-59075952D01*
X83404761Y-59028333D01*
X83500000Y-58980714D01*
X83690476Y-58980714D01*
X83785714Y-59028333D01*
X84690476Y-58980714D02*
X84690476Y-59790238D01*
X84642857Y-59885476D01*
X84595238Y-59933095D01*
X84500000Y-59980714D01*
X84357142Y-59980714D01*
X84261904Y-59933095D01*
X84690476Y-59599761D02*
X84595238Y-59647380D01*
X84404761Y-59647380D01*
X84309523Y-59599761D01*
X84261904Y-59552142D01*
X84214285Y-59456904D01*
X84214285Y-59171190D01*
X84261904Y-59075952D01*
X84309523Y-59028333D01*
X84404761Y-58980714D01*
X84595238Y-58980714D01*
X84690476Y-59028333D01*
X85547619Y-59599761D02*
X85452380Y-59647380D01*
X85261904Y-59647380D01*
X85166666Y-59599761D01*
X85119047Y-59504523D01*
X85119047Y-59123571D01*
X85166666Y-59028333D01*
X85261904Y-58980714D01*
X85452380Y-58980714D01*
X85547619Y-59028333D01*
X85595238Y-59123571D01*
X85595238Y-59218809D01*
X85119047Y-59314047D01*
X87214285Y-58980714D02*
X87214285Y-59647380D01*
X86976190Y-58599761D02*
X86738095Y-59314047D01*
X87357142Y-59314047D01*
X87738095Y-59647380D02*
X87738095Y-58647380D01*
X88071428Y-59361666D01*
X88404761Y-58647380D01*
X88404761Y-59647380D01*
X88880952Y-59647380D02*
X88880952Y-58647380D01*
X88880952Y-59028333D02*
X88976190Y-58980714D01*
X89166666Y-58980714D01*
X89261904Y-59028333D01*
X89309523Y-59075952D01*
X89357142Y-59171190D01*
X89357142Y-59456904D01*
X89309523Y-59552142D01*
X89261904Y-59599761D01*
X89166666Y-59647380D01*
X88976190Y-59647380D01*
X88880952Y-59599761D01*
X89785714Y-59647380D02*
X89785714Y-58980714D01*
X89785714Y-58647380D02*
X89738095Y-58695000D01*
X89785714Y-58742619D01*
X89833333Y-58695000D01*
X89785714Y-58647380D01*
X89785714Y-58742619D01*
X90119047Y-58980714D02*
X90500000Y-58980714D01*
X90261904Y-58647380D02*
X90261904Y-59504523D01*
X90309523Y-59599761D01*
X90404761Y-59647380D01*
X90500000Y-59647380D01*
X69166666Y-60781190D02*
X69119047Y-60733571D01*
X69023809Y-60685952D01*
X68928571Y-60685952D01*
X68833333Y-60733571D01*
X68785714Y-60781190D01*
X68738095Y-60876428D01*
X68738095Y-60971666D01*
X68785714Y-61066904D01*
X68833333Y-61114523D01*
X68928571Y-61162142D01*
X69023809Y-61162142D01*
X69119047Y-61114523D01*
X69166666Y-61066904D01*
X69166666Y-60685952D02*
X69166666Y-61066904D01*
X69214285Y-61114523D01*
X69261904Y-61114523D01*
X69357142Y-61066904D01*
X69404761Y-60971666D01*
X69404761Y-60733571D01*
X69309523Y-60590714D01*
X69166666Y-60495476D01*
X68976190Y-60447857D01*
X68785714Y-60495476D01*
X68642857Y-60590714D01*
X68547619Y-60733571D01*
X68500000Y-60924047D01*
X68547619Y-61114523D01*
X68642857Y-61257380D01*
X68785714Y-61352619D01*
X68976190Y-61400238D01*
X69166666Y-61352619D01*
X69309523Y-61257380D01*
X69833333Y-60590714D02*
X69833333Y-61590714D01*
X69833333Y-60638333D02*
X69928571Y-60590714D01*
X70119047Y-60590714D01*
X70214285Y-60638333D01*
X70261904Y-60685952D01*
X70309523Y-60781190D01*
X70309523Y-61066904D01*
X70261904Y-61162142D01*
X70214285Y-61209761D01*
X70119047Y-61257380D01*
X69928571Y-61257380D01*
X69833333Y-61209761D01*
X71166666Y-61257380D02*
X71166666Y-60733571D01*
X71119047Y-60638333D01*
X71023809Y-60590714D01*
X70833333Y-60590714D01*
X70738095Y-60638333D01*
X71166666Y-61209761D02*
X71071428Y-61257380D01*
X70833333Y-61257380D01*
X70738095Y-61209761D01*
X70690476Y-61114523D01*
X70690476Y-61019285D01*
X70738095Y-60924047D01*
X70833333Y-60876428D01*
X71071428Y-60876428D01*
X71166666Y-60828809D01*
X71642857Y-61257380D02*
X71642857Y-60590714D01*
X71642857Y-60781190D02*
X71690476Y-60685952D01*
X71738095Y-60638333D01*
X71833333Y-60590714D01*
X71928571Y-60590714D01*
X72119047Y-60590714D02*
X72500000Y-60590714D01*
X72261904Y-60257380D02*
X72261904Y-61114523D01*
X72309523Y-61209761D01*
X72404761Y-61257380D01*
X72500000Y-61257380D01*
X72976190Y-61257380D02*
X72880952Y-61209761D01*
X72833333Y-61114523D01*
X72833333Y-60257380D01*
X73261904Y-60590714D02*
X73500000Y-61257380D01*
X73738095Y-60590714D02*
X73500000Y-61257380D01*
X73404761Y-61495476D01*
X73357142Y-61543095D01*
X73261904Y-61590714D01*
X74119047Y-61257380D02*
X74119047Y-60257380D01*
X74547619Y-61257380D02*
X74547619Y-60733571D01*
X74500000Y-60638333D01*
X74404761Y-60590714D01*
X74261904Y-60590714D01*
X74166666Y-60638333D01*
X74119047Y-60685952D01*
X75452380Y-60590714D02*
X75452380Y-61257380D01*
X75023809Y-60590714D02*
X75023809Y-61114523D01*
X75071428Y-61209761D01*
X75166666Y-61257380D01*
X75309523Y-61257380D01*
X75404761Y-61209761D01*
X75452380Y-61162142D01*
X75928571Y-61257380D02*
X75928571Y-60590714D01*
X75928571Y-60685952D02*
X75976190Y-60638333D01*
X76071428Y-60590714D01*
X76214285Y-60590714D01*
X76309523Y-60638333D01*
X76357142Y-60733571D01*
X76357142Y-61257380D01*
X76357142Y-60733571D02*
X76404761Y-60638333D01*
X76500000Y-60590714D01*
X76642857Y-60590714D01*
X76738095Y-60638333D01*
X76785714Y-60733571D01*
X76785714Y-61257380D01*
X77690476Y-61257380D02*
X77690476Y-60733571D01*
X77642857Y-60638333D01*
X77547619Y-60590714D01*
X77357142Y-60590714D01*
X77261904Y-60638333D01*
X77690476Y-61209761D02*
X77595238Y-61257380D01*
X77357142Y-61257380D01*
X77261904Y-61209761D01*
X77214285Y-61114523D01*
X77214285Y-61019285D01*
X77261904Y-60924047D01*
X77357142Y-60876428D01*
X77595238Y-60876428D01*
X77690476Y-60828809D01*
X78166666Y-60590714D02*
X78166666Y-61257380D01*
X78166666Y-60685952D02*
X78214285Y-60638333D01*
X78309523Y-60590714D01*
X78452380Y-60590714D01*
X78547619Y-60638333D01*
X78595238Y-60733571D01*
X78595238Y-61257380D01*
X79785714Y-60352619D02*
X79833333Y-60305000D01*
X79928571Y-60257380D01*
X80166666Y-60257380D01*
X80261904Y-60305000D01*
X80309523Y-60352619D01*
X80357142Y-60447857D01*
X80357142Y-60543095D01*
X80309523Y-60685952D01*
X79738095Y-61257380D01*
X80357142Y-61257380D01*
X80976190Y-60257380D02*
X81071428Y-60257380D01*
X81166666Y-60305000D01*
X81214285Y-60352619D01*
X81261904Y-60447857D01*
X81309523Y-60638333D01*
X81309523Y-60876428D01*
X81261904Y-61066904D01*
X81214285Y-61162142D01*
X81166666Y-61209761D01*
X81071428Y-61257380D01*
X80976190Y-61257380D01*
X80880952Y-61209761D01*
X80833333Y-61162142D01*
X80785714Y-61066904D01*
X80738095Y-60876428D01*
X80738095Y-60638333D01*
X80785714Y-60447857D01*
X80833333Y-60352619D01*
X80880952Y-60305000D01*
X80976190Y-60257380D01*
X81690476Y-60352619D02*
X81738095Y-60305000D01*
X81833333Y-60257380D01*
X82071428Y-60257380D01*
X82166666Y-60305000D01*
X82214285Y-60352619D01*
X82261904Y-60447857D01*
X82261904Y-60543095D01*
X82214285Y-60685952D01*
X81642857Y-61257380D01*
X82261904Y-61257380D01*
X82642857Y-60352619D02*
X82690476Y-60305000D01*
X82785714Y-60257380D01*
X83023809Y-60257380D01*
X83119047Y-60305000D01*
X83166666Y-60352619D01*
X83214285Y-60447857D01*
X83214285Y-60543095D01*
X83166666Y-60685952D01*
X82595238Y-61257380D01*
X83214285Y-61257380D01*
X83642857Y-60876428D02*
X84404761Y-60876428D01*
X85071428Y-60257380D02*
X85166666Y-60257380D01*
X85261904Y-60305000D01*
X85309523Y-60352619D01*
X85357142Y-60447857D01*
X85404761Y-60638333D01*
X85404761Y-60876428D01*
X85357142Y-61066904D01*
X85309523Y-61162142D01*
X85261904Y-61209761D01*
X85166666Y-61257380D01*
X85071428Y-61257380D01*
X84976190Y-61209761D01*
X84928571Y-61162142D01*
X84880952Y-61066904D01*
X84833333Y-60876428D01*
X84833333Y-60638333D01*
X84880952Y-60447857D01*
X84928571Y-60352619D01*
X84976190Y-60305000D01*
X85071428Y-60257380D01*
X86357142Y-61257380D02*
X85785714Y-61257380D01*
X86071428Y-61257380D02*
X86071428Y-60257380D01*
X85976190Y-60400238D01*
X85880952Y-60495476D01*
X85785714Y-60543095D01*
X86785714Y-60876428D02*
X87547619Y-60876428D01*
X88547619Y-61257380D02*
X87976190Y-61257380D01*
X88261904Y-61257380D02*
X88261904Y-60257380D01*
X88166666Y-60400238D01*
X88071428Y-60495476D01*
X87976190Y-60543095D01*
X89452380Y-60257380D02*
X88976190Y-60257380D01*
X88928571Y-60733571D01*
X88976190Y-60685952D01*
X89071428Y-60638333D01*
X89309523Y-60638333D01*
X89404761Y-60685952D01*
X89452380Y-60733571D01*
X89500000Y-60828809D01*
X89500000Y-61066904D01*
X89452380Y-61162142D01*
X89404761Y-61209761D01*
X89309523Y-61257380D01*
X89071428Y-61257380D01*
X88976190Y-61209761D01*
X88928571Y-61162142D01*
%TO.C,REF\u002A\u002A*%
X53666666Y-48052380D02*
X53333333Y-47576190D01*
X53095238Y-48052380D02*
X53095238Y-47052380D01*
X53476190Y-47052380D01*
X53571428Y-47100000D01*
X53619047Y-47147619D01*
X53666666Y-47242857D01*
X53666666Y-47385714D01*
X53619047Y-47480952D01*
X53571428Y-47528571D01*
X53476190Y-47576190D01*
X53095238Y-47576190D01*
X54095238Y-47528571D02*
X54428571Y-47528571D01*
X54571428Y-48052380D02*
X54095238Y-48052380D01*
X54095238Y-47052380D01*
X54571428Y-47052380D01*
X55333333Y-47528571D02*
X55000000Y-47528571D01*
X55000000Y-48052380D02*
X55000000Y-47052380D01*
X55476190Y-47052380D01*
X56000000Y-47052380D02*
X56000000Y-47290476D01*
X55761904Y-47195238D02*
X56000000Y-47290476D01*
X56238095Y-47195238D01*
X55857142Y-47480952D02*
X56000000Y-47290476D01*
X56142857Y-47480952D01*
X56761904Y-47052380D02*
X56761904Y-47290476D01*
X56523809Y-47195238D02*
X56761904Y-47290476D01*
X57000000Y-47195238D01*
X56619047Y-47480952D02*
X56761904Y-47290476D01*
X56904761Y-47480952D01*
X98666666Y-48052380D02*
X98333333Y-47576190D01*
X98095238Y-48052380D02*
X98095238Y-47052380D01*
X98476190Y-47052380D01*
X98571428Y-47100000D01*
X98619047Y-47147619D01*
X98666666Y-47242857D01*
X98666666Y-47385714D01*
X98619047Y-47480952D01*
X98571428Y-47528571D01*
X98476190Y-47576190D01*
X98095238Y-47576190D01*
X99095238Y-47528571D02*
X99428571Y-47528571D01*
X99571428Y-48052380D02*
X99095238Y-48052380D01*
X99095238Y-47052380D01*
X99571428Y-47052380D01*
X100333333Y-47528571D02*
X100000000Y-47528571D01*
X100000000Y-48052380D02*
X100000000Y-47052380D01*
X100476190Y-47052380D01*
X101000000Y-47052380D02*
X101000000Y-47290476D01*
X100761904Y-47195238D02*
X101000000Y-47290476D01*
X101238095Y-47195238D01*
X100857142Y-47480952D02*
X101000000Y-47290476D01*
X101142857Y-47480952D01*
X101761904Y-47052380D02*
X101761904Y-47290476D01*
X101523809Y-47195238D02*
X101761904Y-47290476D01*
X102000000Y-47195238D01*
X101619047Y-47480952D02*
X101761904Y-47290476D01*
X101904761Y-47480952D01*
%TO.C,JP1*%
X100352380Y-78833333D02*
X101066666Y-78833333D01*
X101209523Y-78880952D01*
X101304761Y-78976190D01*
X101352380Y-79119047D01*
X101352380Y-79214285D01*
X101352380Y-78357142D02*
X100352380Y-78357142D01*
X100352380Y-77976190D01*
X100400000Y-77880952D01*
X100447619Y-77833333D01*
X100542857Y-77785714D01*
X100685714Y-77785714D01*
X100780952Y-77833333D01*
X100828571Y-77880952D01*
X100876190Y-77976190D01*
X100876190Y-78357142D01*
X101352380Y-76833333D02*
X101352380Y-77404761D01*
X101352380Y-77119047D02*
X100352380Y-77119047D01*
X100495238Y-77214285D01*
X100590476Y-77309523D01*
X100638095Y-77404761D01*
%TO.C,U1*%
X78288320Y-62952380D02*
X78288320Y-63761904D01*
X78335939Y-63857142D01*
X78383558Y-63904761D01*
X78478796Y-63952380D01*
X78669272Y-63952380D01*
X78764510Y-63904761D01*
X78812129Y-63857142D01*
X78859748Y-63761904D01*
X78859748Y-62952380D01*
X79859748Y-63952380D02*
X79288320Y-63952380D01*
X79574034Y-63952380D02*
X79574034Y-62952380D01*
X79478796Y-63095238D01*
X79383558Y-63190476D01*
X79288320Y-63238095D01*
X74621653Y-75154761D02*
X74764510Y-75202380D01*
X75002605Y-75202380D01*
X75097844Y-75154761D01*
X75145463Y-75107142D01*
X75193082Y-75011904D01*
X75193082Y-74916666D01*
X75145463Y-74821428D01*
X75097844Y-74773809D01*
X75002605Y-74726190D01*
X74812129Y-74678571D01*
X74716891Y-74630952D01*
X74669272Y-74583333D01*
X74621653Y-74488095D01*
X74621653Y-74392857D01*
X74669272Y-74297619D01*
X74716891Y-74250000D01*
X74812129Y-74202380D01*
X75050225Y-74202380D01*
X75193082Y-74250000D01*
X75574034Y-75154761D02*
X75716891Y-75202380D01*
X75954986Y-75202380D01*
X76050225Y-75154761D01*
X76097844Y-75107142D01*
X76145463Y-75011904D01*
X76145463Y-74916666D01*
X76097844Y-74821428D01*
X76050225Y-74773809D01*
X75954986Y-74726190D01*
X75764510Y-74678571D01*
X75669272Y-74630952D01*
X75621653Y-74583333D01*
X75574034Y-74488095D01*
X75574034Y-74392857D01*
X75621653Y-74297619D01*
X75669272Y-74250000D01*
X75764510Y-74202380D01*
X76002605Y-74202380D01*
X76145463Y-74250000D01*
X76431177Y-74202380D02*
X77002605Y-74202380D01*
X76716891Y-75202380D02*
X76716891Y-74202380D01*
X77240701Y-74202380D02*
X77859748Y-74202380D01*
X77526415Y-74583333D01*
X77669272Y-74583333D01*
X77764510Y-74630952D01*
X77812129Y-74678571D01*
X77859748Y-74773809D01*
X77859748Y-75011904D01*
X77812129Y-75107142D01*
X77764510Y-75154761D01*
X77669272Y-75202380D01*
X77383558Y-75202380D01*
X77288320Y-75154761D01*
X77240701Y-75107142D01*
X78335939Y-75202380D02*
X78526415Y-75202380D01*
X78621653Y-75154761D01*
X78669272Y-75107142D01*
X78764510Y-74964285D01*
X78812129Y-74773809D01*
X78812129Y-74392857D01*
X78764510Y-74297619D01*
X78716891Y-74250000D01*
X78621653Y-74202380D01*
X78431177Y-74202380D01*
X78335939Y-74250000D01*
X78288320Y-74297619D01*
X78240701Y-74392857D01*
X78240701Y-74630952D01*
X78288320Y-74726190D01*
X78335939Y-74773809D01*
X78431177Y-74821428D01*
X78621653Y-74821428D01*
X78716891Y-74773809D01*
X78764510Y-74726190D01*
X78812129Y-74630952D01*
X79193082Y-75154761D02*
X79335939Y-75202380D01*
X79574034Y-75202380D01*
X79669272Y-75154761D01*
X79716891Y-75107142D01*
X79764510Y-75011904D01*
X79764510Y-74916666D01*
X79716891Y-74821428D01*
X79669272Y-74773809D01*
X79574034Y-74726190D01*
X79383558Y-74678571D01*
X79288320Y-74630952D01*
X79240701Y-74583333D01*
X79193082Y-74488095D01*
X79193082Y-74392857D01*
X79240701Y-74297619D01*
X79288320Y-74250000D01*
X79383558Y-74202380D01*
X79621653Y-74202380D01*
X79764510Y-74250000D01*
X80526415Y-74678571D02*
X80193082Y-74678571D01*
X80193082Y-75202380D02*
X80193082Y-74202380D01*
X80669272Y-74202380D01*
X81240701Y-74202380D02*
X81335939Y-74202380D01*
X81431177Y-74250000D01*
X81478796Y-74297619D01*
X81526415Y-74392857D01*
X81574034Y-74583333D01*
X81574034Y-74821428D01*
X81526415Y-75011904D01*
X81478796Y-75107142D01*
X81431177Y-75154761D01*
X81335939Y-75202380D01*
X81240701Y-75202380D01*
X81145463Y-75154761D01*
X81097844Y-75107142D01*
X81050225Y-75011904D01*
X81002605Y-74821428D01*
X81002605Y-74583333D01*
X81050225Y-74392857D01*
X81097844Y-74297619D01*
X81145463Y-74250000D01*
X81240701Y-74202380D01*
X82431177Y-74535714D02*
X82431177Y-75202380D01*
X82193082Y-74154761D02*
X81954986Y-74869047D01*
X82574034Y-74869047D01*
X83145463Y-74202380D02*
X83240701Y-74202380D01*
X83335939Y-74250000D01*
X83383558Y-74297619D01*
X83431177Y-74392857D01*
X83478796Y-74583333D01*
X83478796Y-74821428D01*
X83431177Y-75011904D01*
X83383558Y-75107142D01*
X83335939Y-75154761D01*
X83240701Y-75202380D01*
X83145463Y-75202380D01*
X83050225Y-75154761D01*
X83002605Y-75107142D01*
X82954986Y-75011904D01*
X82907367Y-74821428D01*
X82907367Y-74583333D01*
X82954986Y-74392857D01*
X83002605Y-74297619D01*
X83050225Y-74250000D01*
X83145463Y-74202380D01*
X71947376Y-63232480D02*
X71947376Y-63470576D01*
X71709280Y-63375338D02*
X71947376Y-63470576D01*
X72185471Y-63375338D01*
X71804518Y-63661052D02*
X71947376Y-63470576D01*
X72090233Y-63661052D01*
%TO.C,C1*%
X56927142Y-68916666D02*
X56974761Y-68964285D01*
X57022380Y-69107142D01*
X57022380Y-69202380D01*
X56974761Y-69345238D01*
X56879523Y-69440476D01*
X56784285Y-69488095D01*
X56593809Y-69535714D01*
X56450952Y-69535714D01*
X56260476Y-69488095D01*
X56165238Y-69440476D01*
X56070000Y-69345238D01*
X56022380Y-69202380D01*
X56022380Y-69107142D01*
X56070000Y-68964285D01*
X56117619Y-68916666D01*
X57022380Y-67964285D02*
X57022380Y-68535714D01*
X57022380Y-68250000D02*
X56022380Y-68250000D01*
X56165238Y-68345238D01*
X56260476Y-68440476D01*
X56308095Y-68535714D01*
X59382380Y-70392857D02*
X59382380Y-70297619D01*
X59430000Y-70202380D01*
X59477619Y-70154761D01*
X59572857Y-70107142D01*
X59763333Y-70059523D01*
X60001428Y-70059523D01*
X60191904Y-70107142D01*
X60287142Y-70154761D01*
X60334761Y-70202380D01*
X60382380Y-70297619D01*
X60382380Y-70392857D01*
X60334761Y-70488095D01*
X60287142Y-70535714D01*
X60191904Y-70583333D01*
X60001428Y-70630952D01*
X59763333Y-70630952D01*
X59572857Y-70583333D01*
X59477619Y-70535714D01*
X59430000Y-70488095D01*
X59382380Y-70392857D01*
X60287142Y-69630952D02*
X60334761Y-69583333D01*
X60382380Y-69630952D01*
X60334761Y-69678571D01*
X60287142Y-69630952D01*
X60382380Y-69630952D01*
X60382380Y-68630952D02*
X60382380Y-69202380D01*
X60382380Y-68916666D02*
X59382380Y-68916666D01*
X59525238Y-69011904D01*
X59620476Y-69107142D01*
X59668095Y-69202380D01*
X59715714Y-67773809D02*
X60382380Y-67773809D01*
X59715714Y-68202380D02*
X60239523Y-68202380D01*
X60334761Y-68154761D01*
X60382380Y-68059523D01*
X60382380Y-67916666D01*
X60334761Y-67821428D01*
X60287142Y-67773809D01*
X59858571Y-66964285D02*
X59858571Y-67297619D01*
X60382380Y-67297619D02*
X59382380Y-67297619D01*
X59382380Y-66821428D01*
D11*
%TO.C,JP1*%
X99400000Y-79400000D02*
X98800000Y-79400000D01*
X100100000Y-77300000D02*
X100100000Y-78700000D01*
X98100000Y-78700000D02*
X98100000Y-77300000D01*
X98800000Y-76600000D02*
X99400000Y-76600000D01*
X100100000Y-77300000D02*
G75*
G03*
X99400000Y-76600000I-699999J1D01*
G01*
X98800000Y-76600000D02*
G75*
G03*
X98100000Y-77300000I-1J-699999D01*
G01*
X98100000Y-78700000D02*
G75*
G03*
X98800000Y-79400000I700000J0D01*
G01*
X99400000Y-79400000D02*
G75*
G03*
X100100000Y-78700000I0J700000D01*
G01*
%TO.C,U1*%
X72967434Y-73130800D02*
X85133016Y-73130800D01*
X85133016Y-64774200D02*
X72967434Y-64774200D01*
G36*
X87007524Y-71393001D02*
G01*
X86753524Y-71393001D01*
X86753524Y-71012001D01*
X87007524Y-71012001D01*
X87007524Y-71393001D01*
G37*
D12*
X87007524Y-71393001D02*
X86753524Y-71393001D01*
X86753524Y-71012001D01*
X87007524Y-71012001D01*
X87007524Y-71393001D01*
G36*
X71346926Y-69893001D02*
G01*
X71092926Y-69893001D01*
X71092926Y-69512001D01*
X71346926Y-69512001D01*
X71346926Y-69893001D01*
G37*
X71346926Y-69893001D02*
X71092926Y-69893001D01*
X71092926Y-69512001D01*
X71346926Y-69512001D01*
X71346926Y-69893001D01*
G36*
X87007524Y-66393000D02*
G01*
X86753524Y-66393000D01*
X86753524Y-66012000D01*
X87007524Y-66012000D01*
X87007524Y-66393000D01*
G37*
X87007524Y-66393000D02*
X86753524Y-66393000D01*
X86753524Y-66012000D01*
X87007524Y-66012000D01*
X87007524Y-66393000D01*
D11*
%TO.C,C1*%
X58985000Y-69011252D02*
X58985000Y-68488748D01*
X57515000Y-69011252D02*
X57515000Y-68488748D01*
%TD*%
M02*
