%TF.GenerationSoftware,KiCad,Pcbnew,(6.0.7-1)-1*%
%TF.CreationDate,2023-01-15T15:17:32-08:00*%
%TF.ProjectId,QCard,51436172-642e-46b6-9963-61645f706362,rev?*%
%TF.SameCoordinates,Original*%
%TF.FileFunction,Soldermask,Top*%
%TF.FilePolarity,Negative*%
%FSLAX46Y46*%
G04 Gerber Fmt 4.6, Leading zero omitted, Abs format (unit mm)*
G04 Created by KiCad (PCBNEW (6.0.7-1)-1) date 2023-01-15 15:17:32*
%MOMM*%
%LPD*%
G01*
G04 APERTURE LIST*
G04 Aperture macros list*
%AMRoundRect*
0 Rectangle with rounded corners*
0 $1 Rounding radius*
0 $2 $3 $4 $5 $6 $7 $8 $9 X,Y pos of 4 corners*
0 Add a 4 corners polygon primitive as box body*
4,1,4,$2,$3,$4,$5,$6,$7,$8,$9,$2,$3,0*
0 Add four circle primitives for the rounded corners*
1,1,$1+$1,$2,$3*
1,1,$1+$1,$4,$5*
1,1,$1+$1,$6,$7*
1,1,$1+$1,$8,$9*
0 Add four rect primitives between the rounded corners*
20,1,$1+$1,$2,$3,$4,$5,0*
20,1,$1+$1,$4,$5,$6,$7,0*
20,1,$1+$1,$6,$7,$8,$9,0*
20,1,$1+$1,$8,$9,$2,$3,0*%
%AMFreePoly0*
4,1,22,0.500000,-0.750000,0.000000,-0.750000,0.000000,-0.745033,-0.079941,-0.743568,-0.215256,-0.701293,-0.333266,-0.622738,-0.424486,-0.514219,-0.481581,-0.384460,-0.499164,-0.250000,-0.500000,-0.250000,-0.500000,0.250000,-0.499164,0.250000,-0.499963,0.256109,-0.478152,0.396186,-0.417904,0.524511,-0.324060,0.630769,-0.204165,0.706417,-0.067858,0.745374,0.000000,0.744959,0.000000,0.750000,
0.500000,0.750000,0.500000,-0.750000,0.500000,-0.750000,$1*%
%AMFreePoly1*
4,1,20,0.000000,0.744959,0.073905,0.744508,0.209726,0.703889,0.328688,0.626782,0.421226,0.519385,0.479903,0.390333,0.500000,0.250000,0.500000,-0.250000,0.499851,-0.262216,0.476331,-0.402017,0.414519,-0.529596,0.319384,-0.634700,0.198574,-0.708877,0.061801,-0.746166,0.000000,-0.745033,0.000000,-0.750000,-0.500000,-0.750000,-0.500000,0.750000,0.000000,0.750000,0.000000,0.744959,
0.000000,0.744959,$1*%
G04 Aperture macros list end*
%ADD10FreePoly0,270.000000*%
%ADD11FreePoly1,270.000000*%
%ADD12C,6.400000*%
%ADD13R,1.200899X0.279400*%
%ADD14RoundRect,0.375000X-0.375000X-4.625000X0.375000X-4.625000X0.375000X4.625000X-0.375000X4.625000X0*%
%ADD15RoundRect,0.250000X0.475000X-0.337500X0.475000X0.337500X-0.475000X0.337500X-0.475000X-0.337500X0*%
G04 APERTURE END LIST*
D10*
%TO.C,JP1*%
X99100000Y-77350000D03*
D11*
X99100000Y-78650000D03*
%TD*%
D12*
%TO.C,REF\u002A\u002A*%
X54500000Y-55000000D03*
%TD*%
D13*
%TO.C,U1*%
X72201377Y-65202500D03*
X72201377Y-65702499D03*
X72201377Y-66202500D03*
X72201377Y-66702499D03*
X72201377Y-67202501D03*
X72201377Y-67702500D03*
X72201377Y-68202499D03*
X72201377Y-68702500D03*
X72201377Y-69202500D03*
X72201377Y-69702501D03*
X72201377Y-70202500D03*
X72201377Y-70702499D03*
X72201377Y-71202501D03*
X72201377Y-71702500D03*
X72201377Y-72202501D03*
X72201377Y-72702500D03*
X85899073Y-72702500D03*
X85899073Y-72202501D03*
X85899073Y-71702500D03*
X85899073Y-71202501D03*
X85899073Y-70702499D03*
X85899073Y-70202500D03*
X85899073Y-69702501D03*
X85899073Y-69202500D03*
X85899073Y-68702500D03*
X85899073Y-68202499D03*
X85899073Y-67702500D03*
X85899073Y-67202501D03*
X85899073Y-66702499D03*
X85899073Y-66202500D03*
X85899073Y-65702499D03*
X85899073Y-65202500D03*
%TD*%
D12*
%TO.C,REF\u002A\u002A*%
X100500000Y-55000000D03*
%TD*%
D14*
%TO.C,J1*%
X55910000Y-89000000D03*
X58450000Y-89000000D03*
X60990000Y-89000000D03*
X63530000Y-89000000D03*
X66070000Y-89000000D03*
X68610000Y-89000000D03*
X71150000Y-89000000D03*
X73690000Y-89000000D03*
X76230000Y-89000000D03*
X78770000Y-89000000D03*
X81310000Y-89000000D03*
X83850000Y-89000000D03*
X86390000Y-89000000D03*
X88930000Y-89000000D03*
X91470000Y-89000000D03*
X94010000Y-89000000D03*
X96550000Y-89000000D03*
X99090000Y-89000000D03*
%TD*%
D15*
%TO.C,C1*%
X58250000Y-69787500D03*
X58250000Y-67712500D03*
%TD*%
M02*
