%TF.GenerationSoftware,KiCad,Pcbnew,(6.0.7-1)-1*%
%TF.CreationDate,2023-01-14T18:56:46-08:00*%
%TF.ProjectId,QCard,51436172-642e-46b6-9963-61645f706362,rev?*%
%TF.SameCoordinates,Original*%
%TF.FileFunction,Legend,Top*%
%TF.FilePolarity,Positive*%
%FSLAX46Y46*%
G04 Gerber Fmt 4.6, Leading zero omitted, Abs format (unit mm)*
G04 Created by KiCad (PCBNEW (6.0.7-1)-1) date 2023-01-14 18:56:46*
%MOMM*%
%LPD*%
G01*
G04 APERTURE LIST*
%ADD10C,0.150000*%
%ADD11C,0.100000*%
%ADD12C,0.120000*%
G04 APERTURE END LIST*
D10*
%TO.C,REF\u002A\u002A*%
X98916666Y-48052380D02*
X98583333Y-47576190D01*
X98345238Y-48052380D02*
X98345238Y-47052380D01*
X98726190Y-47052380D01*
X98821428Y-47100000D01*
X98869047Y-47147619D01*
X98916666Y-47242857D01*
X98916666Y-47385714D01*
X98869047Y-47480952D01*
X98821428Y-47528571D01*
X98726190Y-47576190D01*
X98345238Y-47576190D01*
X99345238Y-47528571D02*
X99678571Y-47528571D01*
X99821428Y-48052380D02*
X99345238Y-48052380D01*
X99345238Y-47052380D01*
X99821428Y-47052380D01*
X100583333Y-47528571D02*
X100250000Y-47528571D01*
X100250000Y-48052380D02*
X100250000Y-47052380D01*
X100726190Y-47052380D01*
X101250000Y-47052380D02*
X101250000Y-47290476D01*
X101011904Y-47195238D02*
X101250000Y-47290476D01*
X101488095Y-47195238D01*
X101107142Y-47480952D02*
X101250000Y-47290476D01*
X101392857Y-47480952D01*
X102011904Y-47052380D02*
X102011904Y-47290476D01*
X101773809Y-47195238D02*
X102011904Y-47290476D01*
X102250000Y-47195238D01*
X101869047Y-47480952D02*
X102011904Y-47290476D01*
X102154761Y-47480952D01*
X53416666Y-48052380D02*
X53083333Y-47576190D01*
X52845238Y-48052380D02*
X52845238Y-47052380D01*
X53226190Y-47052380D01*
X53321428Y-47100000D01*
X53369047Y-47147619D01*
X53416666Y-47242857D01*
X53416666Y-47385714D01*
X53369047Y-47480952D01*
X53321428Y-47528571D01*
X53226190Y-47576190D01*
X52845238Y-47576190D01*
X53845238Y-47528571D02*
X54178571Y-47528571D01*
X54321428Y-48052380D02*
X53845238Y-48052380D01*
X53845238Y-47052380D01*
X54321428Y-47052380D01*
X55083333Y-47528571D02*
X54750000Y-47528571D01*
X54750000Y-48052380D02*
X54750000Y-47052380D01*
X55226190Y-47052380D01*
X55750000Y-47052380D02*
X55750000Y-47290476D01*
X55511904Y-47195238D02*
X55750000Y-47290476D01*
X55988095Y-47195238D01*
X55607142Y-47480952D02*
X55750000Y-47290476D01*
X55892857Y-47480952D01*
X56511904Y-47052380D02*
X56511904Y-47290476D01*
X56273809Y-47195238D02*
X56511904Y-47290476D01*
X56750000Y-47195238D01*
X56369047Y-47480952D02*
X56511904Y-47290476D01*
X56654761Y-47480952D01*
%TO.C,U1*%
X78288320Y-62952380D02*
X78288320Y-63761904D01*
X78335939Y-63857142D01*
X78383558Y-63904761D01*
X78478796Y-63952380D01*
X78669272Y-63952380D01*
X78764510Y-63904761D01*
X78812129Y-63857142D01*
X78859748Y-63761904D01*
X78859748Y-62952380D01*
X79859748Y-63952380D02*
X79288320Y-63952380D01*
X79574034Y-63952380D02*
X79574034Y-62952380D01*
X79478796Y-63095238D01*
X79383558Y-63190476D01*
X79288320Y-63238095D01*
X74821428Y-69404761D02*
X74964285Y-69452380D01*
X75202380Y-69452380D01*
X75297619Y-69404761D01*
X75345238Y-69357142D01*
X75392857Y-69261904D01*
X75392857Y-69166666D01*
X75345238Y-69071428D01*
X75297619Y-69023809D01*
X75202380Y-68976190D01*
X75011904Y-68928571D01*
X74916666Y-68880952D01*
X74869047Y-68833333D01*
X74821428Y-68738095D01*
X74821428Y-68642857D01*
X74869047Y-68547619D01*
X74916666Y-68500000D01*
X75011904Y-68452380D01*
X75250000Y-68452380D01*
X75392857Y-68500000D01*
X75773809Y-69404761D02*
X75916666Y-69452380D01*
X76154761Y-69452380D01*
X76250000Y-69404761D01*
X76297619Y-69357142D01*
X76345238Y-69261904D01*
X76345238Y-69166666D01*
X76297619Y-69071428D01*
X76250000Y-69023809D01*
X76154761Y-68976190D01*
X75964285Y-68928571D01*
X75869047Y-68880952D01*
X75821428Y-68833333D01*
X75773809Y-68738095D01*
X75773809Y-68642857D01*
X75821428Y-68547619D01*
X75869047Y-68500000D01*
X75964285Y-68452380D01*
X76202380Y-68452380D01*
X76345238Y-68500000D01*
X76630952Y-68452380D02*
X77202380Y-68452380D01*
X76916666Y-69452380D02*
X76916666Y-68452380D01*
X77440476Y-68452380D02*
X78059523Y-68452380D01*
X77726190Y-68833333D01*
X77869047Y-68833333D01*
X77964285Y-68880952D01*
X78011904Y-68928571D01*
X78059523Y-69023809D01*
X78059523Y-69261904D01*
X78011904Y-69357142D01*
X77964285Y-69404761D01*
X77869047Y-69452380D01*
X77583333Y-69452380D01*
X77488095Y-69404761D01*
X77440476Y-69357142D01*
X78535714Y-69452380D02*
X78726190Y-69452380D01*
X78821428Y-69404761D01*
X78869047Y-69357142D01*
X78964285Y-69214285D01*
X79011904Y-69023809D01*
X79011904Y-68642857D01*
X78964285Y-68547619D01*
X78916666Y-68500000D01*
X78821428Y-68452380D01*
X78630952Y-68452380D01*
X78535714Y-68500000D01*
X78488095Y-68547619D01*
X78440476Y-68642857D01*
X78440476Y-68880952D01*
X78488095Y-68976190D01*
X78535714Y-69023809D01*
X78630952Y-69071428D01*
X78821428Y-69071428D01*
X78916666Y-69023809D01*
X78964285Y-68976190D01*
X79011904Y-68880952D01*
X79392857Y-69404761D02*
X79535714Y-69452380D01*
X79773809Y-69452380D01*
X79869047Y-69404761D01*
X79916666Y-69357142D01*
X79964285Y-69261904D01*
X79964285Y-69166666D01*
X79916666Y-69071428D01*
X79869047Y-69023809D01*
X79773809Y-68976190D01*
X79583333Y-68928571D01*
X79488095Y-68880952D01*
X79440476Y-68833333D01*
X79392857Y-68738095D01*
X79392857Y-68642857D01*
X79440476Y-68547619D01*
X79488095Y-68500000D01*
X79583333Y-68452380D01*
X79821428Y-68452380D01*
X79964285Y-68500000D01*
X80726190Y-68928571D02*
X80392857Y-68928571D01*
X80392857Y-69452380D02*
X80392857Y-68452380D01*
X80869047Y-68452380D01*
X81440476Y-68452380D02*
X81535714Y-68452380D01*
X81630952Y-68500000D01*
X81678571Y-68547619D01*
X81726190Y-68642857D01*
X81773809Y-68833333D01*
X81773809Y-69071428D01*
X81726190Y-69261904D01*
X81678571Y-69357142D01*
X81630952Y-69404761D01*
X81535714Y-69452380D01*
X81440476Y-69452380D01*
X81345238Y-69404761D01*
X81297619Y-69357142D01*
X81250000Y-69261904D01*
X81202380Y-69071428D01*
X81202380Y-68833333D01*
X81250000Y-68642857D01*
X81297619Y-68547619D01*
X81345238Y-68500000D01*
X81440476Y-68452380D01*
X82630952Y-68785714D02*
X82630952Y-69452380D01*
X82392857Y-68404761D02*
X82154761Y-69119047D01*
X82773809Y-69119047D01*
X83345238Y-68452380D02*
X83440476Y-68452380D01*
X83535714Y-68500000D01*
X83583333Y-68547619D01*
X83630952Y-68642857D01*
X83678571Y-68833333D01*
X83678571Y-69071428D01*
X83630952Y-69261904D01*
X83583333Y-69357142D01*
X83535714Y-69404761D01*
X83440476Y-69452380D01*
X83345238Y-69452380D01*
X83250000Y-69404761D01*
X83202380Y-69357142D01*
X83154761Y-69261904D01*
X83107142Y-69071428D01*
X83107142Y-68833333D01*
X83154761Y-68642857D01*
X83202380Y-68547619D01*
X83250000Y-68500000D01*
X83345238Y-68452380D01*
X71947376Y-63232480D02*
X71947376Y-63470576D01*
X71709280Y-63375338D02*
X71947376Y-63470576D01*
X72185471Y-63375338D01*
X71804518Y-63661052D02*
X71947376Y-63470576D01*
X72090233Y-63661052D01*
X71947376Y-63232480D02*
X71947376Y-63470576D01*
X71709280Y-63375338D02*
X71947376Y-63470576D01*
X72185471Y-63375338D01*
X71804518Y-63661052D02*
X71947376Y-63470576D01*
X72090233Y-63661052D01*
%TO.C,C1*%
X56927142Y-68916666D02*
X56974761Y-68964285D01*
X57022380Y-69107142D01*
X57022380Y-69202380D01*
X56974761Y-69345238D01*
X56879523Y-69440476D01*
X56784285Y-69488095D01*
X56593809Y-69535714D01*
X56450952Y-69535714D01*
X56260476Y-69488095D01*
X56165238Y-69440476D01*
X56070000Y-69345238D01*
X56022380Y-69202380D01*
X56022380Y-69107142D01*
X56070000Y-68964285D01*
X56117619Y-68916666D01*
X57022380Y-67964285D02*
X57022380Y-68535714D01*
X57022380Y-68250000D02*
X56022380Y-68250000D01*
X56165238Y-68345238D01*
X56260476Y-68440476D01*
X56308095Y-68535714D01*
X59382380Y-70392857D02*
X59382380Y-70297619D01*
X59430000Y-70202380D01*
X59477619Y-70154761D01*
X59572857Y-70107142D01*
X59763333Y-70059523D01*
X60001428Y-70059523D01*
X60191904Y-70107142D01*
X60287142Y-70154761D01*
X60334761Y-70202380D01*
X60382380Y-70297619D01*
X60382380Y-70392857D01*
X60334761Y-70488095D01*
X60287142Y-70535714D01*
X60191904Y-70583333D01*
X60001428Y-70630952D01*
X59763333Y-70630952D01*
X59572857Y-70583333D01*
X59477619Y-70535714D01*
X59430000Y-70488095D01*
X59382380Y-70392857D01*
X60287142Y-69630952D02*
X60334761Y-69583333D01*
X60382380Y-69630952D01*
X60334761Y-69678571D01*
X60287142Y-69630952D01*
X60382380Y-69630952D01*
X60382380Y-68630952D02*
X60382380Y-69202380D01*
X60382380Y-68916666D02*
X59382380Y-68916666D01*
X59525238Y-69011904D01*
X59620476Y-69107142D01*
X59668095Y-69202380D01*
X59715714Y-67773809D02*
X60382380Y-67773809D01*
X59715714Y-68202380D02*
X60239523Y-68202380D01*
X60334761Y-68154761D01*
X60382380Y-68059523D01*
X60382380Y-67916666D01*
X60334761Y-67821428D01*
X60287142Y-67773809D01*
X59858571Y-66964285D02*
X59858571Y-67297619D01*
X60382380Y-67297619D02*
X59382380Y-67297619D01*
X59382380Y-66821428D01*
%TO.C,U1*%
G36*
X87007524Y-66393000D02*
G01*
X86753524Y-66393000D01*
X86753524Y-66012000D01*
X87007524Y-66012000D01*
X87007524Y-66393000D01*
G37*
D11*
X87007524Y-66393000D02*
X86753524Y-66393000D01*
X86753524Y-66012000D01*
X87007524Y-66012000D01*
X87007524Y-66393000D01*
G36*
X87007524Y-71393001D02*
G01*
X86753524Y-71393001D01*
X86753524Y-71012001D01*
X87007524Y-71012001D01*
X87007524Y-71393001D01*
G37*
X87007524Y-71393001D02*
X86753524Y-71393001D01*
X86753524Y-71012001D01*
X87007524Y-71012001D01*
X87007524Y-71393001D01*
G36*
X71346926Y-69893001D02*
G01*
X71092926Y-69893001D01*
X71092926Y-69512001D01*
X71346926Y-69512001D01*
X71346926Y-69893001D01*
G37*
X71346926Y-69893001D02*
X71092926Y-69893001D01*
X71092926Y-69512001D01*
X71346926Y-69512001D01*
X71346926Y-69893001D01*
D12*
X85133016Y-64774200D02*
X72967434Y-64774200D01*
X72967434Y-73130800D02*
X85133016Y-73130800D01*
%TO.C,C1*%
X58985000Y-69011252D02*
X58985000Y-68488748D01*
X57515000Y-69011252D02*
X57515000Y-68488748D01*
%TD*%
M02*
