%TF.GenerationSoftware,KiCad,Pcbnew,(6.0.7-1)-1*%
%TF.CreationDate,2023-01-15T14:56:53-08:00*%
%TF.ProjectId,QCard,51436172-642e-46b6-9963-61645f706362,rev?*%
%TF.SameCoordinates,Original*%
%TF.FileFunction,Legend,Top*%
%TF.FilePolarity,Positive*%
%FSLAX46Y46*%
G04 Gerber Fmt 4.6, Leading zero omitted, Abs format (unit mm)*
G04 Created by KiCad (PCBNEW (6.0.7-1)-1) date 2023-01-15 14:56:53*
%MOMM*%
%LPD*%
G01*
G04 APERTURE LIST*
%ADD10C,0.150000*%
%ADD11C,0.120000*%
%ADD12C,0.100000*%
G04 APERTURE END LIST*
D10*
%TO.C,REF\u002A\u002A*%
X53666666Y-48052380D02*
X53333333Y-47576190D01*
X53095238Y-48052380D02*
X53095238Y-47052380D01*
X53476190Y-47052380D01*
X53571428Y-47100000D01*
X53619047Y-47147619D01*
X53666666Y-47242857D01*
X53666666Y-47385714D01*
X53619047Y-47480952D01*
X53571428Y-47528571D01*
X53476190Y-47576190D01*
X53095238Y-47576190D01*
X54095238Y-47528571D02*
X54428571Y-47528571D01*
X54571428Y-48052380D02*
X54095238Y-48052380D01*
X54095238Y-47052380D01*
X54571428Y-47052380D01*
X55333333Y-47528571D02*
X55000000Y-47528571D01*
X55000000Y-48052380D02*
X55000000Y-47052380D01*
X55476190Y-47052380D01*
X56000000Y-47052380D02*
X56000000Y-47290476D01*
X55761904Y-47195238D02*
X56000000Y-47290476D01*
X56238095Y-47195238D01*
X55857142Y-47480952D02*
X56000000Y-47290476D01*
X56142857Y-47480952D01*
X56761904Y-47052380D02*
X56761904Y-47290476D01*
X56523809Y-47195238D02*
X56761904Y-47290476D01*
X57000000Y-47195238D01*
X56619047Y-47480952D02*
X56761904Y-47290476D01*
X56904761Y-47480952D01*
X98666666Y-48052380D02*
X98333333Y-47576190D01*
X98095238Y-48052380D02*
X98095238Y-47052380D01*
X98476190Y-47052380D01*
X98571428Y-47100000D01*
X98619047Y-47147619D01*
X98666666Y-47242857D01*
X98666666Y-47385714D01*
X98619047Y-47480952D01*
X98571428Y-47528571D01*
X98476190Y-47576190D01*
X98095238Y-47576190D01*
X99095238Y-47528571D02*
X99428571Y-47528571D01*
X99571428Y-48052380D02*
X99095238Y-48052380D01*
X99095238Y-47052380D01*
X99571428Y-47052380D01*
X100333333Y-47528571D02*
X100000000Y-47528571D01*
X100000000Y-48052380D02*
X100000000Y-47052380D01*
X100476190Y-47052380D01*
X101000000Y-47052380D02*
X101000000Y-47290476D01*
X100761904Y-47195238D02*
X101000000Y-47290476D01*
X101238095Y-47195238D01*
X100857142Y-47480952D02*
X101000000Y-47290476D01*
X101142857Y-47480952D01*
X101761904Y-47052380D02*
X101761904Y-47290476D01*
X101523809Y-47195238D02*
X101761904Y-47290476D01*
X102000000Y-47195238D01*
X101619047Y-47480952D02*
X101761904Y-47290476D01*
X101904761Y-47480952D01*
%TO.C,JP1*%
X100352380Y-78833333D02*
X101066666Y-78833333D01*
X101209523Y-78880952D01*
X101304761Y-78976190D01*
X101352380Y-79119047D01*
X101352380Y-79214285D01*
X101352380Y-78357142D02*
X100352380Y-78357142D01*
X100352380Y-77976190D01*
X100400000Y-77880952D01*
X100447619Y-77833333D01*
X100542857Y-77785714D01*
X100685714Y-77785714D01*
X100780952Y-77833333D01*
X100828571Y-77880952D01*
X100876190Y-77976190D01*
X100876190Y-78357142D01*
X101352380Y-76833333D02*
X101352380Y-77404761D01*
X101352380Y-77119047D02*
X100352380Y-77119047D01*
X100495238Y-77214285D01*
X100590476Y-77309523D01*
X100638095Y-77404761D01*
%TO.C,U1*%
X78288320Y-62952380D02*
X78288320Y-63761904D01*
X78335939Y-63857142D01*
X78383558Y-63904761D01*
X78478796Y-63952380D01*
X78669272Y-63952380D01*
X78764510Y-63904761D01*
X78812129Y-63857142D01*
X78859748Y-63761904D01*
X78859748Y-62952380D01*
X79859748Y-63952380D02*
X79288320Y-63952380D01*
X79574034Y-63952380D02*
X79574034Y-62952380D01*
X79478796Y-63095238D01*
X79383558Y-63190476D01*
X79288320Y-63238095D01*
X74821428Y-69404761D02*
X74964285Y-69452380D01*
X75202380Y-69452380D01*
X75297619Y-69404761D01*
X75345238Y-69357142D01*
X75392857Y-69261904D01*
X75392857Y-69166666D01*
X75345238Y-69071428D01*
X75297619Y-69023809D01*
X75202380Y-68976190D01*
X75011904Y-68928571D01*
X74916666Y-68880952D01*
X74869047Y-68833333D01*
X74821428Y-68738095D01*
X74821428Y-68642857D01*
X74869047Y-68547619D01*
X74916666Y-68500000D01*
X75011904Y-68452380D01*
X75250000Y-68452380D01*
X75392857Y-68500000D01*
X75773809Y-69404761D02*
X75916666Y-69452380D01*
X76154761Y-69452380D01*
X76250000Y-69404761D01*
X76297619Y-69357142D01*
X76345238Y-69261904D01*
X76345238Y-69166666D01*
X76297619Y-69071428D01*
X76250000Y-69023809D01*
X76154761Y-68976190D01*
X75964285Y-68928571D01*
X75869047Y-68880952D01*
X75821428Y-68833333D01*
X75773809Y-68738095D01*
X75773809Y-68642857D01*
X75821428Y-68547619D01*
X75869047Y-68500000D01*
X75964285Y-68452380D01*
X76202380Y-68452380D01*
X76345238Y-68500000D01*
X76630952Y-68452380D02*
X77202380Y-68452380D01*
X76916666Y-69452380D02*
X76916666Y-68452380D01*
X77440476Y-68452380D02*
X78059523Y-68452380D01*
X77726190Y-68833333D01*
X77869047Y-68833333D01*
X77964285Y-68880952D01*
X78011904Y-68928571D01*
X78059523Y-69023809D01*
X78059523Y-69261904D01*
X78011904Y-69357142D01*
X77964285Y-69404761D01*
X77869047Y-69452380D01*
X77583333Y-69452380D01*
X77488095Y-69404761D01*
X77440476Y-69357142D01*
X78535714Y-69452380D02*
X78726190Y-69452380D01*
X78821428Y-69404761D01*
X78869047Y-69357142D01*
X78964285Y-69214285D01*
X79011904Y-69023809D01*
X79011904Y-68642857D01*
X78964285Y-68547619D01*
X78916666Y-68500000D01*
X78821428Y-68452380D01*
X78630952Y-68452380D01*
X78535714Y-68500000D01*
X78488095Y-68547619D01*
X78440476Y-68642857D01*
X78440476Y-68880952D01*
X78488095Y-68976190D01*
X78535714Y-69023809D01*
X78630952Y-69071428D01*
X78821428Y-69071428D01*
X78916666Y-69023809D01*
X78964285Y-68976190D01*
X79011904Y-68880952D01*
X79392857Y-69404761D02*
X79535714Y-69452380D01*
X79773809Y-69452380D01*
X79869047Y-69404761D01*
X79916666Y-69357142D01*
X79964285Y-69261904D01*
X79964285Y-69166666D01*
X79916666Y-69071428D01*
X79869047Y-69023809D01*
X79773809Y-68976190D01*
X79583333Y-68928571D01*
X79488095Y-68880952D01*
X79440476Y-68833333D01*
X79392857Y-68738095D01*
X79392857Y-68642857D01*
X79440476Y-68547619D01*
X79488095Y-68500000D01*
X79583333Y-68452380D01*
X79821428Y-68452380D01*
X79964285Y-68500000D01*
X80726190Y-68928571D02*
X80392857Y-68928571D01*
X80392857Y-69452380D02*
X80392857Y-68452380D01*
X80869047Y-68452380D01*
X81440476Y-68452380D02*
X81535714Y-68452380D01*
X81630952Y-68500000D01*
X81678571Y-68547619D01*
X81726190Y-68642857D01*
X81773809Y-68833333D01*
X81773809Y-69071428D01*
X81726190Y-69261904D01*
X81678571Y-69357142D01*
X81630952Y-69404761D01*
X81535714Y-69452380D01*
X81440476Y-69452380D01*
X81345238Y-69404761D01*
X81297619Y-69357142D01*
X81250000Y-69261904D01*
X81202380Y-69071428D01*
X81202380Y-68833333D01*
X81250000Y-68642857D01*
X81297619Y-68547619D01*
X81345238Y-68500000D01*
X81440476Y-68452380D01*
X82630952Y-68785714D02*
X82630952Y-69452380D01*
X82392857Y-68404761D02*
X82154761Y-69119047D01*
X82773809Y-69119047D01*
X83345238Y-68452380D02*
X83440476Y-68452380D01*
X83535714Y-68500000D01*
X83583333Y-68547619D01*
X83630952Y-68642857D01*
X83678571Y-68833333D01*
X83678571Y-69071428D01*
X83630952Y-69261904D01*
X83583333Y-69357142D01*
X83535714Y-69404761D01*
X83440476Y-69452380D01*
X83345238Y-69452380D01*
X83250000Y-69404761D01*
X83202380Y-69357142D01*
X83154761Y-69261904D01*
X83107142Y-69071428D01*
X83107142Y-68833333D01*
X83154761Y-68642857D01*
X83202380Y-68547619D01*
X83250000Y-68500000D01*
X83345238Y-68452380D01*
X71947376Y-63232480D02*
X71947376Y-63470576D01*
X71709280Y-63375338D02*
X71947376Y-63470576D01*
X72185471Y-63375338D01*
X71804518Y-63661052D02*
X71947376Y-63470576D01*
X72090233Y-63661052D01*
%TO.C,C1*%
X56927142Y-68916666D02*
X56974761Y-68964285D01*
X57022380Y-69107142D01*
X57022380Y-69202380D01*
X56974761Y-69345238D01*
X56879523Y-69440476D01*
X56784285Y-69488095D01*
X56593809Y-69535714D01*
X56450952Y-69535714D01*
X56260476Y-69488095D01*
X56165238Y-69440476D01*
X56070000Y-69345238D01*
X56022380Y-69202380D01*
X56022380Y-69107142D01*
X56070000Y-68964285D01*
X56117619Y-68916666D01*
X57022380Y-67964285D02*
X57022380Y-68535714D01*
X57022380Y-68250000D02*
X56022380Y-68250000D01*
X56165238Y-68345238D01*
X56260476Y-68440476D01*
X56308095Y-68535714D01*
X59382380Y-70392857D02*
X59382380Y-70297619D01*
X59430000Y-70202380D01*
X59477619Y-70154761D01*
X59572857Y-70107142D01*
X59763333Y-70059523D01*
X60001428Y-70059523D01*
X60191904Y-70107142D01*
X60287142Y-70154761D01*
X60334761Y-70202380D01*
X60382380Y-70297619D01*
X60382380Y-70392857D01*
X60334761Y-70488095D01*
X60287142Y-70535714D01*
X60191904Y-70583333D01*
X60001428Y-70630952D01*
X59763333Y-70630952D01*
X59572857Y-70583333D01*
X59477619Y-70535714D01*
X59430000Y-70488095D01*
X59382380Y-70392857D01*
X60287142Y-69630952D02*
X60334761Y-69583333D01*
X60382380Y-69630952D01*
X60334761Y-69678571D01*
X60287142Y-69630952D01*
X60382380Y-69630952D01*
X60382380Y-68630952D02*
X60382380Y-69202380D01*
X60382380Y-68916666D02*
X59382380Y-68916666D01*
X59525238Y-69011904D01*
X59620476Y-69107142D01*
X59668095Y-69202380D01*
X59715714Y-67773809D02*
X60382380Y-67773809D01*
X59715714Y-68202380D02*
X60239523Y-68202380D01*
X60334761Y-68154761D01*
X60382380Y-68059523D01*
X60382380Y-67916666D01*
X60334761Y-67821428D01*
X60287142Y-67773809D01*
X59858571Y-66964285D02*
X59858571Y-67297619D01*
X60382380Y-67297619D02*
X59382380Y-67297619D01*
X59382380Y-66821428D01*
D11*
%TO.C,JP1*%
X99400000Y-79400000D02*
X98800000Y-79400000D01*
X100100000Y-77300000D02*
X100100000Y-78700000D01*
X98100000Y-78700000D02*
X98100000Y-77300000D01*
X98800000Y-76600000D02*
X99400000Y-76600000D01*
X100100000Y-77300000D02*
G75*
G03*
X99400000Y-76600000I-699999J1D01*
G01*
X98800000Y-76600000D02*
G75*
G03*
X98100000Y-77300000I-1J-699999D01*
G01*
X98100000Y-78700000D02*
G75*
G03*
X98800000Y-79400000I700000J0D01*
G01*
X99400000Y-79400000D02*
G75*
G03*
X100100000Y-78700000I0J700000D01*
G01*
%TO.C,U1*%
X72967434Y-73130800D02*
X85133016Y-73130800D01*
X85133016Y-64774200D02*
X72967434Y-64774200D01*
G36*
X87007524Y-71393001D02*
G01*
X86753524Y-71393001D01*
X86753524Y-71012001D01*
X87007524Y-71012001D01*
X87007524Y-71393001D01*
G37*
D12*
X87007524Y-71393001D02*
X86753524Y-71393001D01*
X86753524Y-71012001D01*
X87007524Y-71012001D01*
X87007524Y-71393001D01*
G36*
X71346926Y-69893001D02*
G01*
X71092926Y-69893001D01*
X71092926Y-69512001D01*
X71346926Y-69512001D01*
X71346926Y-69893001D01*
G37*
X71346926Y-69893001D02*
X71092926Y-69893001D01*
X71092926Y-69512001D01*
X71346926Y-69512001D01*
X71346926Y-69893001D01*
G36*
X87007524Y-66393000D02*
G01*
X86753524Y-66393000D01*
X86753524Y-66012000D01*
X87007524Y-66012000D01*
X87007524Y-66393000D01*
G37*
X87007524Y-66393000D02*
X86753524Y-66393000D01*
X86753524Y-66012000D01*
X87007524Y-66012000D01*
X87007524Y-66393000D01*
D11*
%TO.C,C1*%
X58985000Y-69011252D02*
X58985000Y-68488748D01*
X57515000Y-69011252D02*
X57515000Y-68488748D01*
%TD*%
M02*
