%TF.GenerationSoftware,KiCad,Pcbnew,(6.0.7-1)-1*%
%TF.CreationDate,2023-01-15T14:56:53-08:00*%
%TF.ProjectId,QCard,51436172-642e-46b6-9963-61645f706362,rev?*%
%TF.SameCoordinates,Original*%
%TF.FileFunction,Copper,L1,Top*%
%TF.FilePolarity,Positive*%
%FSLAX46Y46*%
G04 Gerber Fmt 4.6, Leading zero omitted, Abs format (unit mm)*
G04 Created by KiCad (PCBNEW (6.0.7-1)-1) date 2023-01-15 14:56:53*
%MOMM*%
%LPD*%
G01*
G04 APERTURE LIST*
G04 Aperture macros list*
%AMRoundRect*
0 Rectangle with rounded corners*
0 $1 Rounding radius*
0 $2 $3 $4 $5 $6 $7 $8 $9 X,Y pos of 4 corners*
0 Add a 4 corners polygon primitive as box body*
4,1,4,$2,$3,$4,$5,$6,$7,$8,$9,$2,$3,0*
0 Add four circle primitives for the rounded corners*
1,1,$1+$1,$2,$3*
1,1,$1+$1,$4,$5*
1,1,$1+$1,$6,$7*
1,1,$1+$1,$8,$9*
0 Add four rect primitives between the rounded corners*
20,1,$1+$1,$2,$3,$4,$5,0*
20,1,$1+$1,$4,$5,$6,$7,0*
20,1,$1+$1,$6,$7,$8,$9,0*
20,1,$1+$1,$8,$9,$2,$3,0*%
%AMFreePoly0*
4,1,22,0.500000,-0.750000,0.000000,-0.750000,0.000000,-0.745033,-0.079941,-0.743568,-0.215256,-0.701293,-0.333266,-0.622738,-0.424486,-0.514219,-0.481581,-0.384460,-0.499164,-0.250000,-0.500000,-0.250000,-0.500000,0.250000,-0.499164,0.250000,-0.499963,0.256109,-0.478152,0.396186,-0.417904,0.524511,-0.324060,0.630769,-0.204165,0.706417,-0.067858,0.745374,0.000000,0.744959,0.000000,0.750000,
0.500000,0.750000,0.500000,-0.750000,0.500000,-0.750000,$1*%
%AMFreePoly1*
4,1,20,0.000000,0.744959,0.073905,0.744508,0.209726,0.703889,0.328688,0.626782,0.421226,0.519385,0.479903,0.390333,0.500000,0.250000,0.500000,-0.250000,0.499851,-0.262216,0.476331,-0.402017,0.414519,-0.529596,0.319384,-0.634700,0.198574,-0.708877,0.061801,-0.746166,0.000000,-0.745033,0.000000,-0.750000,-0.500000,-0.750000,-0.500000,0.750000,0.000000,0.750000,0.000000,0.744959,
0.000000,0.744959,$1*%
G04 Aperture macros list end*
%TA.AperFunction,SMDPad,CuDef*%
%ADD10FreePoly0,270.000000*%
%TD*%
%TA.AperFunction,SMDPad,CuDef*%
%ADD11FreePoly1,270.000000*%
%TD*%
%TA.AperFunction,SMDPad,CuDef*%
%ADD12R,1.200899X0.279400*%
%TD*%
%TA.AperFunction,ConnectorPad*%
%ADD13RoundRect,0.375000X-0.375000X-4.625000X0.375000X-4.625000X0.375000X4.625000X-0.375000X4.625000X0*%
%TD*%
%TA.AperFunction,SMDPad,CuDef*%
%ADD14RoundRect,0.250000X0.475000X-0.337500X0.475000X0.337500X-0.475000X0.337500X-0.475000X-0.337500X0*%
%TD*%
%TA.AperFunction,ViaPad*%
%ADD15C,0.900000*%
%TD*%
%TA.AperFunction,ViaPad*%
%ADD16C,0.800000*%
%TD*%
%TA.AperFunction,Conductor*%
%ADD17C,0.300000*%
%TD*%
%TA.AperFunction,Conductor*%
%ADD18C,0.250000*%
%TD*%
G04 APERTURE END LIST*
D10*
%TO.P,JP1,1,A*%
%TO.N,Net-(U1-Pad7)*%
X99100000Y-77350000D03*
D11*
%TO.P,JP1,2,B*%
%TO.N,/PGM*%
X99100000Y-78650000D03*
%TD*%
D12*
%TO.P,U1,1,A11*%
%TO.N,/A11*%
X72201377Y-65202500D03*
%TO.P,U1,2,A9*%
%TO.N,/A9*%
X72201377Y-65702499D03*
%TO.P,U1,3,A8*%
%TO.N,/A8*%
X72201377Y-66202500D03*
%TO.P,U1,4,A13*%
%TO.N,/A13*%
X72201377Y-66702499D03*
%TO.P,U1,5,A14*%
%TO.N,/A14*%
X72201377Y-67202501D03*
%TO.P,U1,6,A17*%
%TO.N,/A17*%
X72201377Y-67702500D03*
%TO.P,U1,7,\u002AWE*%
%TO.N,Net-(U1-Pad7)*%
X72201377Y-68202499D03*
%TO.P,U1,8,VDD*%
%TO.N,/VCC*%
X72201377Y-68702500D03*
%TO.P,U1,9,A18*%
%TO.N,/A18*%
X72201377Y-69202500D03*
%TO.P,U1,10,A16*%
%TO.N,/A16*%
X72201377Y-69702501D03*
%TO.P,U1,11,A15*%
%TO.N,/A15*%
X72201377Y-70202500D03*
%TO.P,U1,12,A12*%
%TO.N,/A12*%
X72201377Y-70702499D03*
%TO.P,U1,13,A7*%
%TO.N,/A7*%
X72201377Y-71202501D03*
%TO.P,U1,14,A6*%
%TO.N,/A6*%
X72201377Y-71702500D03*
%TO.P,U1,15,A5*%
%TO.N,/A5*%
X72201377Y-72202501D03*
%TO.P,U1,16,A4*%
%TO.N,/A4*%
X72201377Y-72702500D03*
%TO.P,U1,17,A3*%
%TO.N,/A3*%
X85899073Y-72702500D03*
%TO.P,U1,18,A2*%
%TO.N,/A2*%
X85899073Y-72202501D03*
%TO.P,U1,19,A1*%
%TO.N,/A1*%
X85899073Y-71702500D03*
%TO.P,U1,20,A0*%
%TO.N,/A0*%
X85899073Y-71202501D03*
%TO.P,U1,21,DQ0*%
%TO.N,/D0*%
X85899073Y-70702499D03*
%TO.P,U1,22,DQ1*%
%TO.N,/D1*%
X85899073Y-70202500D03*
%TO.P,U1,23,DQ2*%
%TO.N,/D2*%
X85899073Y-69702501D03*
%TO.P,U1,24,VSS*%
%TO.N,/GND*%
X85899073Y-69202500D03*
%TO.P,U1,25,DQ3*%
%TO.N,/D3*%
X85899073Y-68702500D03*
%TO.P,U1,26,DQ4*%
%TO.N,/D4*%
X85899073Y-68202499D03*
%TO.P,U1,27,DQ5*%
%TO.N,/D5*%
X85899073Y-67702500D03*
%TO.P,U1,28,DQ6*%
%TO.N,/D6*%
X85899073Y-67202501D03*
%TO.P,U1,29,DQ7*%
%TO.N,/D7*%
X85899073Y-66702499D03*
%TO.P,U1,30,\u002ACE*%
%TO.N,/CE*%
X85899073Y-66202500D03*
%TO.P,U1,31,A10*%
%TO.N,/A10*%
X85899073Y-65702499D03*
%TO.P,U1,32,\u002AOE*%
%TO.N,/OE*%
X85899073Y-65202500D03*
%TD*%
D13*
%TO.P,J1,1,Pin_1*%
%TO.N,/GND*%
X55910000Y-89000000D03*
%TO.P,J1,2,Pin_2*%
X58450000Y-89000000D03*
%TO.P,J1,3,Pin_3*%
%TO.N,/A16*%
X60990000Y-89000000D03*
%TO.P,J1,4,Pin_4*%
%TO.N,/A15*%
X63530000Y-89000000D03*
%TO.P,J1,5,Pin_5*%
%TO.N,/A12*%
X66070000Y-89000000D03*
%TO.P,J1,6,Pin_6*%
%TO.N,/A7*%
X68610000Y-89000000D03*
%TO.P,J1,7,Pin_7*%
%TO.N,/A6*%
X71150000Y-89000000D03*
%TO.P,J1,8,Pin_8*%
%TO.N,/A5*%
X73690000Y-89000000D03*
%TO.P,J1,9,Pin_9*%
%TO.N,/A4*%
X76230000Y-89000000D03*
%TO.P,J1,10,Pin_10*%
%TO.N,/A3*%
X78770000Y-89000000D03*
%TO.P,J1,11,Pin_11*%
%TO.N,/A2*%
X81310000Y-89000000D03*
%TO.P,J1,12,Pin_12*%
%TO.N,/A1*%
X83850000Y-89000000D03*
%TO.P,J1,13,Pin_13*%
%TO.N,/A0*%
X86390000Y-89000000D03*
%TO.P,J1,14,Pin_14*%
%TO.N,/D0*%
X88930000Y-89000000D03*
%TO.P,J1,15,Pin_15*%
%TO.N,/D1*%
X91470000Y-89000000D03*
%TO.P,J1,16,Pin_16*%
%TO.N,/D2*%
X94010000Y-89000000D03*
%TO.P,J1,17,Pin_17*%
%TO.N,/GND*%
X96550000Y-89000000D03*
%TO.P,J1,18,Pin_18*%
%TO.N,/PGM*%
X99090000Y-89000000D03*
%TD*%
D14*
%TO.P,C1,1*%
%TO.N,/VCC*%
X58250000Y-69787500D03*
%TO.P,C1,2*%
%TO.N,/GND*%
X58250000Y-67712500D03*
%TD*%
D15*
%TO.N,/VCC*%
X58250000Y-73500000D03*
X65000000Y-68750000D03*
%TO.N,/GND*%
X90000000Y-69750000D03*
D16*
X56300000Y-73500000D03*
%TO.N,/A18*%
X66000000Y-69452000D03*
%TO.N,/A17*%
X68750000Y-67000000D03*
%TO.N,/A14*%
X74000000Y-69000000D03*
%TO.N,/A13*%
X75000000Y-68250000D03*
%TO.N,/A8*%
X75000000Y-67250000D03*
%TO.N,/A9*%
X75000000Y-66250497D03*
%TO.N,/A11*%
X75000000Y-65250000D03*
%TO.N,/OE*%
X82000000Y-65250000D03*
%TO.N,/A10*%
X82012548Y-66262051D03*
%TO.N,/CE*%
X82006490Y-67268109D03*
%TO.N,/D7*%
X82457275Y-68160184D03*
%TO.N,/D6*%
X82901613Y-69055488D03*
%TO.N,/D5*%
X83750000Y-70000000D03*
%TO.N,/D4*%
X90250000Y-67978000D03*
%TO.N,/D3*%
X92250000Y-69250000D03*
%TD*%
D17*
%TO.N,/VCC*%
X65000000Y-68750000D02*
X65047500Y-68702500D01*
X65047500Y-68702500D02*
X72201377Y-68702500D01*
X58250000Y-73500000D02*
X58250000Y-69787500D01*
%TO.N,/GND*%
X85899073Y-69202500D02*
X89452500Y-69202500D01*
X89452500Y-69202500D02*
X90000000Y-69750000D01*
D18*
%TO.N,/A16*%
X60990000Y-89000000D02*
X60990000Y-78010000D01*
X69297499Y-69702501D02*
X72201377Y-69702501D01*
X60990000Y-78010000D02*
X69297499Y-69702501D01*
%TO.N,/A15*%
X69512201Y-70237799D02*
X71750000Y-70237799D01*
X63530000Y-89000000D02*
X63530000Y-76220000D01*
X63530000Y-76220000D02*
X69512201Y-70237799D01*
%TO.N,/A12*%
X66070000Y-74361802D02*
X69729303Y-70702499D01*
X66070000Y-89000000D02*
X66070000Y-74361802D01*
X69729303Y-70702499D02*
X72201377Y-70702499D01*
%TO.N,/A7*%
X68610000Y-72458198D02*
X69865697Y-71202501D01*
X68610000Y-89000000D02*
X68610000Y-72458198D01*
X69865697Y-71202501D02*
X72201377Y-71202501D01*
%TO.N,/A6*%
X71150000Y-89000000D02*
X71150000Y-76400000D01*
X69250000Y-74500000D02*
X69250000Y-72500000D01*
X71150000Y-76400000D02*
X69250000Y-74500000D01*
X70047500Y-71702500D02*
X72201377Y-71702500D01*
X69250000Y-72500000D02*
X70047500Y-71702500D01*
%TO.N,/A5*%
X73690000Y-78190000D02*
X69750000Y-74250000D01*
X69750000Y-74250000D02*
X69750000Y-72750000D01*
X73690000Y-89000000D02*
X73690000Y-78190000D01*
X70297499Y-72202501D02*
X72201377Y-72202501D01*
X69750000Y-72750000D02*
X70297499Y-72202501D01*
%TO.N,/A4*%
X70200000Y-72993198D02*
X70490698Y-72702500D01*
X76230000Y-79980000D02*
X70200000Y-73950000D01*
X76230000Y-89000000D02*
X76230000Y-79980000D01*
X70200000Y-73950000D02*
X70200000Y-72993198D01*
X70490698Y-72702500D02*
X72201377Y-72702500D01*
%TO.N,/A3*%
X78770000Y-80855000D02*
X82125000Y-77500000D01*
X85750000Y-77500000D02*
X87100000Y-76150000D01*
X86816104Y-72702500D02*
X85899073Y-72702500D01*
X82125000Y-77500000D02*
X85750000Y-77500000D01*
X78770000Y-89000000D02*
X78770000Y-80855000D01*
X87100000Y-76150000D02*
X87100000Y-72986396D01*
X87100000Y-72986396D02*
X86816104Y-72702500D01*
%TO.N,/A2*%
X81310000Y-80690000D02*
X83500000Y-78500000D01*
X83500000Y-78500000D02*
X85886396Y-78500000D01*
X81310000Y-89000000D02*
X81310000Y-80690000D01*
X86952501Y-72202501D02*
X85899073Y-72202501D01*
X87550000Y-72800000D02*
X86952501Y-72202501D01*
X85886396Y-78500000D02*
X87550000Y-76836396D01*
X87550000Y-76836396D02*
X87550000Y-72800000D01*
%TO.N,/A1*%
X88000000Y-77511396D02*
X88000000Y-72500000D01*
X83850000Y-89000000D02*
X83850000Y-81661396D01*
X88000000Y-72500000D02*
X87202500Y-71702500D01*
X87202500Y-71702500D02*
X85899073Y-71702500D01*
X83850000Y-81661396D02*
X88000000Y-77511396D01*
%TO.N,/A0*%
X88500000Y-78625000D02*
X88500000Y-72250000D01*
X86390000Y-80735000D02*
X88500000Y-78625000D01*
X87452501Y-71202501D02*
X85899073Y-71202501D01*
X86390000Y-89000000D02*
X86390000Y-80735000D01*
X88500000Y-72250000D02*
X87452501Y-71202501D01*
%TO.N,/D0*%
X89000000Y-88930000D02*
X89000000Y-72000000D01*
X88930000Y-89000000D02*
X89000000Y-88930000D01*
X87702499Y-70702499D02*
X85899073Y-70702499D01*
X89000000Y-72000000D02*
X87702499Y-70702499D01*
%TO.N,/D1*%
X91470000Y-73720000D02*
X87952500Y-70202500D01*
X87952500Y-70202500D02*
X85899073Y-70202500D01*
X91470000Y-89000000D02*
X91470000Y-73720000D01*
%TO.N,/D2*%
X88202501Y-69702501D02*
X85899073Y-69702501D01*
X94010000Y-89000000D02*
X94010000Y-75510000D01*
X94010000Y-75510000D02*
X88202501Y-69702501D01*
%TO.N,/PGM*%
X99090000Y-89000000D02*
X99090000Y-78660000D01*
X99090000Y-78660000D02*
X99100000Y-78650000D01*
%TO.N,/A18*%
X66249500Y-69202500D02*
X72201377Y-69202500D01*
X66000000Y-69452000D02*
X66249500Y-69202500D01*
%TO.N,/A17*%
X68750000Y-67000000D02*
X69452500Y-67702500D01*
X69452500Y-67702500D02*
X72201377Y-67702500D01*
%TO.N,/A14*%
X74000000Y-69000000D02*
X74000000Y-68110974D01*
X74000000Y-68110974D02*
X73091527Y-67202501D01*
X73091527Y-67202501D02*
X72201377Y-67202501D01*
%TO.N,/A13*%
X74952238Y-68250000D02*
X73404737Y-66702499D01*
X73404737Y-66702499D02*
X72201377Y-66702499D01*
X75000000Y-68250000D02*
X74952238Y-68250000D01*
%TO.N,/A8*%
X75000000Y-67250000D02*
X74588634Y-67250000D01*
X73541134Y-66202500D02*
X72201377Y-66202500D01*
X74588634Y-67250000D02*
X73541134Y-66202500D01*
%TO.N,/A9*%
X74975192Y-66250497D02*
X74427194Y-65702499D01*
X75000000Y-66250497D02*
X74975192Y-66250497D01*
X74427194Y-65702499D02*
X72201377Y-65702499D01*
%TO.N,/A11*%
X75000000Y-65250000D02*
X74952500Y-65202500D01*
X74952500Y-65202500D02*
X72201377Y-65202500D01*
%TO.N,/OE*%
X82047500Y-65202500D02*
X85899073Y-65202500D01*
X82000000Y-65250000D02*
X82047500Y-65202500D01*
%TO.N,/A10*%
X82012548Y-66262051D02*
X82572100Y-65702499D01*
X82572100Y-65702499D02*
X85899073Y-65702499D01*
%TO.N,/CE*%
X83297500Y-66202500D02*
X85899073Y-66202500D01*
X82231891Y-67268109D02*
X83297500Y-66202500D01*
X82006490Y-67268109D02*
X82231891Y-67268109D01*
%TO.N,/D7*%
X83914960Y-66702499D02*
X85899073Y-66702499D01*
X82457275Y-68160184D02*
X83914960Y-66702499D01*
%TO.N,/D6*%
X82901613Y-68879637D02*
X84578749Y-67202501D01*
X84578749Y-67202501D02*
X85899073Y-67202501D01*
X82901613Y-69055488D02*
X82901613Y-68879637D01*
%TO.N,/D5*%
X83750000Y-70000000D02*
X83750000Y-69000000D01*
X83750000Y-69000000D02*
X85047500Y-67702500D01*
X85047500Y-67702500D02*
X85899073Y-67702500D01*
%TO.N,/D4*%
X89176998Y-67978000D02*
X88952499Y-68202499D01*
X90250000Y-67978000D02*
X89176998Y-67978000D01*
X88952499Y-68202499D02*
X85899073Y-68202499D01*
%TO.N,/D3*%
X92250000Y-69250000D02*
X91702500Y-68702500D01*
X91702500Y-68702500D02*
X85899073Y-68702500D01*
%TO.N,Net-(U1-Pad7)*%
X68202499Y-68202499D02*
X67500000Y-67500000D01*
X68500000Y-64250000D02*
X91000000Y-64250000D01*
X99000000Y-72250000D02*
X99090000Y-72340000D01*
X91000000Y-64250000D02*
X99000000Y-72250000D01*
X67500000Y-65250000D02*
X68500000Y-64250000D01*
X99100000Y-77350000D02*
X99100000Y-72350000D01*
X72201377Y-68202499D02*
X68202499Y-68202499D01*
X99100000Y-72350000D02*
X99000000Y-72250000D01*
X67500000Y-67500000D02*
X67500000Y-65250000D01*
%TD*%
%TA.AperFunction,Conductor*%
%TO.N,/GND*%
G36*
X90753527Y-64903502D02*
G01*
X90774501Y-64920405D01*
X98429595Y-72575499D01*
X98463621Y-72637811D01*
X98466500Y-72664594D01*
X98466500Y-76328961D01*
X98446498Y-76397082D01*
X98391243Y-76444291D01*
X98376159Y-76450928D01*
X98372355Y-76453296D01*
X98256306Y-76525530D01*
X98256302Y-76525533D01*
X98252504Y-76527897D01*
X98142869Y-76620054D01*
X98045782Y-76728639D01*
X98043297Y-76732372D01*
X98043294Y-76732376D01*
X97978580Y-76829595D01*
X97966419Y-76847864D01*
X97903711Y-76979333D01*
X97861001Y-77116039D01*
X97860284Y-77120463D01*
X97860284Y-77120465D01*
X97857076Y-77140273D01*
X97837713Y-77259821D01*
X97837631Y-77264301D01*
X97835357Y-77388370D01*
X97835088Y-77403020D01*
X97835641Y-77407465D01*
X97835878Y-77411944D01*
X97835751Y-77411951D01*
X97836271Y-77420339D01*
X97836271Y-77850000D01*
X97841500Y-77923111D01*
X97843403Y-77929591D01*
X97852167Y-77959438D01*
X97855988Y-78012868D01*
X97836271Y-78150000D01*
X97836271Y-78637322D01*
X97836250Y-78639630D01*
X97835088Y-78703020D01*
X97853093Y-78847565D01*
X97890766Y-78985745D01*
X97948612Y-79119420D01*
X98023552Y-79241472D01*
X98026415Y-79244920D01*
X98026416Y-79244922D01*
X98112487Y-79348595D01*
X98116592Y-79353540D01*
X98222776Y-79449654D01*
X98343536Y-79531107D01*
X98347564Y-79533058D01*
X98347570Y-79533062D01*
X98385437Y-79551408D01*
X98438021Y-79599110D01*
X98456500Y-79664801D01*
X98456500Y-83437924D01*
X98436498Y-83506045D01*
X98387704Y-83550190D01*
X98320854Y-83584252D01*
X98237042Y-83626956D01*
X98237039Y-83626958D01*
X98231161Y-83629953D01*
X98226032Y-83634106D01*
X98226028Y-83634109D01*
X98094000Y-83741024D01*
X98086830Y-83746830D01*
X98082675Y-83751961D01*
X97974109Y-83886028D01*
X97974106Y-83886032D01*
X97969953Y-83891161D01*
X97966956Y-83897043D01*
X97931986Y-83965675D01*
X97883237Y-84017290D01*
X97814323Y-84034356D01*
X97747121Y-84011455D01*
X97707452Y-83965675D01*
X97672622Y-83897317D01*
X97665470Y-83886304D01*
X97556966Y-83752311D01*
X97547689Y-83743034D01*
X97413696Y-83634530D01*
X97402682Y-83627378D01*
X97249059Y-83549102D01*
X97236813Y-83544401D01*
X97069467Y-83499561D01*
X97058140Y-83497614D01*
X96989261Y-83492193D01*
X96984334Y-83492000D01*
X96822115Y-83492000D01*
X96806876Y-83496475D01*
X96805671Y-83497865D01*
X96804000Y-83505548D01*
X96804000Y-84250000D01*
X96296000Y-84250000D01*
X96296000Y-83510115D01*
X96291525Y-83494876D01*
X96290135Y-83493671D01*
X96282452Y-83492000D01*
X96115666Y-83492000D01*
X96110739Y-83492193D01*
X96041860Y-83497614D01*
X96030533Y-83499561D01*
X95863187Y-83544401D01*
X95850941Y-83549102D01*
X95697318Y-83627378D01*
X95686304Y-83634530D01*
X95552311Y-83743034D01*
X95543034Y-83752311D01*
X95434530Y-83886304D01*
X95427378Y-83897317D01*
X95392548Y-83965675D01*
X95343800Y-84017290D01*
X95274885Y-84034356D01*
X95207683Y-84011455D01*
X95168014Y-83965675D01*
X95133044Y-83897043D01*
X95130047Y-83891161D01*
X95125894Y-83886032D01*
X95125891Y-83886028D01*
X95017325Y-83751961D01*
X95013170Y-83746830D01*
X95006000Y-83741024D01*
X94873972Y-83634109D01*
X94873968Y-83634106D01*
X94868839Y-83629953D01*
X94862961Y-83626958D01*
X94862958Y-83626956D01*
X94779146Y-83584252D01*
X94712296Y-83550190D01*
X94660682Y-83501443D01*
X94643500Y-83437924D01*
X94643500Y-75588767D01*
X94644027Y-75577584D01*
X94645702Y-75570091D01*
X94643562Y-75502000D01*
X94643500Y-75498043D01*
X94643500Y-75470144D01*
X94642996Y-75466153D01*
X94642063Y-75454311D01*
X94640923Y-75418036D01*
X94640674Y-75410111D01*
X94638462Y-75402497D01*
X94638461Y-75402492D01*
X94635023Y-75390659D01*
X94631012Y-75371295D01*
X94629467Y-75359064D01*
X94628474Y-75351203D01*
X94625557Y-75343836D01*
X94625556Y-75343831D01*
X94612198Y-75310092D01*
X94608354Y-75298865D01*
X94598230Y-75264022D01*
X94596018Y-75256407D01*
X94585707Y-75238972D01*
X94577012Y-75221224D01*
X94569552Y-75202383D01*
X94543564Y-75166613D01*
X94537048Y-75156693D01*
X94518580Y-75125465D01*
X94518578Y-75125462D01*
X94514542Y-75118638D01*
X94500221Y-75104317D01*
X94487380Y-75089283D01*
X94480131Y-75079306D01*
X94475472Y-75072893D01*
X94441395Y-75044702D01*
X94432616Y-75036712D01*
X88947000Y-69551095D01*
X88912974Y-69488783D01*
X88918039Y-69417968D01*
X88960586Y-69361132D01*
X89027106Y-69336321D01*
X89036095Y-69336000D01*
X91233040Y-69336000D01*
X91301161Y-69356002D01*
X91347654Y-69409658D01*
X91355902Y-69434637D01*
X91356458Y-69439928D01*
X91415473Y-69621556D01*
X91510960Y-69786944D01*
X91515378Y-69791851D01*
X91515379Y-69791852D01*
X91619174Y-69907128D01*
X91638747Y-69928866D01*
X91687088Y-69963988D01*
X91761545Y-70018084D01*
X91793248Y-70041118D01*
X91799276Y-70043802D01*
X91799278Y-70043803D01*
X91837479Y-70060811D01*
X91967712Y-70118794D01*
X92042774Y-70134749D01*
X92148056Y-70157128D01*
X92148061Y-70157128D01*
X92154513Y-70158500D01*
X92345487Y-70158500D01*
X92351939Y-70157128D01*
X92351944Y-70157128D01*
X92457226Y-70134749D01*
X92532288Y-70118794D01*
X92662521Y-70060811D01*
X92700722Y-70043803D01*
X92700724Y-70043802D01*
X92706752Y-70041118D01*
X92738456Y-70018084D01*
X92812912Y-69963988D01*
X92861253Y-69928866D01*
X92880826Y-69907128D01*
X92984621Y-69791852D01*
X92984622Y-69791851D01*
X92989040Y-69786944D01*
X93084527Y-69621556D01*
X93143542Y-69439928D01*
X93146724Y-69409658D01*
X93162814Y-69256565D01*
X93163504Y-69250000D01*
X93147019Y-69093154D01*
X93144232Y-69066635D01*
X93144232Y-69066633D01*
X93143542Y-69060072D01*
X93084527Y-68878444D01*
X93071976Y-68856704D01*
X93014922Y-68757885D01*
X92989040Y-68713056D01*
X92974699Y-68697128D01*
X92865675Y-68576045D01*
X92865674Y-68576044D01*
X92861253Y-68571134D01*
X92706752Y-68458882D01*
X92700724Y-68456198D01*
X92700722Y-68456197D01*
X92538319Y-68383891D01*
X92538318Y-68383891D01*
X92532288Y-68381206D01*
X92415539Y-68356390D01*
X92351944Y-68342872D01*
X92351939Y-68342872D01*
X92345487Y-68341500D01*
X92290571Y-68341500D01*
X92222450Y-68321498D01*
X92196288Y-68298300D01*
X92194500Y-68295482D01*
X92144848Y-68248856D01*
X92142007Y-68246102D01*
X92122270Y-68226365D01*
X92119073Y-68223885D01*
X92110051Y-68216180D01*
X92104844Y-68211290D01*
X92077821Y-68185914D01*
X92070875Y-68182095D01*
X92070872Y-68182093D01*
X92060066Y-68176152D01*
X92043547Y-68165301D01*
X92036950Y-68160184D01*
X92027541Y-68152886D01*
X92020272Y-68149741D01*
X92020268Y-68149738D01*
X91986963Y-68135326D01*
X91976313Y-68130109D01*
X91937560Y-68108805D01*
X91917937Y-68103767D01*
X91899234Y-68097363D01*
X91887920Y-68092467D01*
X91887919Y-68092467D01*
X91880645Y-68089319D01*
X91872822Y-68088080D01*
X91872812Y-68088077D01*
X91836976Y-68082401D01*
X91825356Y-68079995D01*
X91790211Y-68070972D01*
X91790210Y-68070972D01*
X91782530Y-68069000D01*
X91762276Y-68069000D01*
X91742565Y-68067449D01*
X91730386Y-68065520D01*
X91722557Y-68064280D01*
X91698184Y-68066584D01*
X91678539Y-68068441D01*
X91666681Y-68069000D01*
X91286520Y-68069000D01*
X91218399Y-68048998D01*
X91171906Y-67995342D01*
X91161210Y-67956171D01*
X91144232Y-67794635D01*
X91144232Y-67794633D01*
X91143542Y-67788072D01*
X91084527Y-67606444D01*
X91080743Y-67599889D01*
X91043794Y-67535892D01*
X90989040Y-67441056D01*
X90979138Y-67430058D01*
X90865675Y-67304045D01*
X90865674Y-67304044D01*
X90861253Y-67299134D01*
X90760310Y-67225794D01*
X90712094Y-67190763D01*
X90712093Y-67190762D01*
X90706752Y-67186882D01*
X90700724Y-67184198D01*
X90700722Y-67184197D01*
X90538319Y-67111891D01*
X90538318Y-67111891D01*
X90532288Y-67109206D01*
X90438888Y-67089353D01*
X90351944Y-67070872D01*
X90351939Y-67070872D01*
X90345487Y-67069500D01*
X90154513Y-67069500D01*
X90148061Y-67070872D01*
X90148056Y-67070872D01*
X90061112Y-67089353D01*
X89967712Y-67109206D01*
X89961682Y-67111891D01*
X89961681Y-67111891D01*
X89799278Y-67184197D01*
X89799276Y-67184198D01*
X89793248Y-67186882D01*
X89787907Y-67190762D01*
X89787906Y-67190763D01*
X89739690Y-67225794D01*
X89638747Y-67299134D01*
X89634332Y-67304037D01*
X89629420Y-67308460D01*
X89628295Y-67307211D01*
X89574986Y-67340051D01*
X89541800Y-67344500D01*
X89255766Y-67344500D01*
X89244583Y-67343973D01*
X89237090Y-67342298D01*
X89229164Y-67342547D01*
X89229163Y-67342547D01*
X89169000Y-67344438D01*
X89165042Y-67344500D01*
X89137142Y-67344500D01*
X89133152Y-67345004D01*
X89121318Y-67345936D01*
X89077109Y-67347326D01*
X89069493Y-67349539D01*
X89069491Y-67349539D01*
X89057650Y-67352979D01*
X89038291Y-67356988D01*
X89036981Y-67357154D01*
X89018201Y-67359526D01*
X89010835Y-67362442D01*
X89010829Y-67362444D01*
X88977096Y-67375800D01*
X88965866Y-67379645D01*
X88931015Y-67389770D01*
X88923405Y-67391981D01*
X88916582Y-67396016D01*
X88905964Y-67402295D01*
X88888211Y-67410992D01*
X88880566Y-67414019D01*
X88869381Y-67418448D01*
X88862966Y-67423109D01*
X88833610Y-67444437D01*
X88823693Y-67450951D01*
X88785636Y-67473458D01*
X88771312Y-67487782D01*
X88756285Y-67500617D01*
X88739891Y-67512528D01*
X88734837Y-67518637D01*
X88730965Y-67523317D01*
X88672130Y-67563053D01*
X88633882Y-67568999D01*
X87129042Y-67568999D01*
X87060921Y-67548997D01*
X87014428Y-67495341D01*
X87003779Y-67429391D01*
X87004462Y-67423109D01*
X87008022Y-67390335D01*
X87008022Y-67014667D01*
X87002747Y-66966106D01*
X87002747Y-66938893D01*
X87007653Y-66893732D01*
X87007653Y-66893728D01*
X87008022Y-66890333D01*
X87008022Y-66514665D01*
X87002747Y-66466105D01*
X87002747Y-66438891D01*
X87003294Y-66433862D01*
X87008022Y-66390334D01*
X87008022Y-66014666D01*
X87002747Y-65966105D01*
X87002747Y-65938892D01*
X87007653Y-65893732D01*
X87007653Y-65893728D01*
X87008022Y-65890333D01*
X87008022Y-65514665D01*
X87002747Y-65466106D01*
X87002747Y-65438893D01*
X87007653Y-65393733D01*
X87007653Y-65393729D01*
X87008022Y-65390334D01*
X87008022Y-65014666D01*
X87008317Y-65014666D01*
X87024213Y-64947216D01*
X87075273Y-64897887D01*
X87133742Y-64883500D01*
X90685406Y-64883500D01*
X90753527Y-64903502D01*
G37*
%TD.AperFunction*%
%TA.AperFunction,Conductor*%
G36*
X104433621Y-50528502D02*
G01*
X104480114Y-50582158D01*
X104491500Y-50634500D01*
X104491500Y-83615500D01*
X104471498Y-83683621D01*
X104417842Y-83730114D01*
X104365500Y-83741500D01*
X101508623Y-83741500D01*
X101507853Y-83741498D01*
X101507037Y-83741493D01*
X101430279Y-83741024D01*
X101409965Y-83746830D01*
X101401847Y-83749150D01*
X101385085Y-83752728D01*
X101355813Y-83756920D01*
X101347645Y-83760634D01*
X101347644Y-83760634D01*
X101332438Y-83767548D01*
X101314914Y-83773996D01*
X101290229Y-83781051D01*
X101282635Y-83785843D01*
X101282632Y-83785844D01*
X101265220Y-83796830D01*
X101250137Y-83804969D01*
X101223218Y-83817208D01*
X101216416Y-83823069D01*
X101203765Y-83833970D01*
X101188761Y-83845073D01*
X101167042Y-83858776D01*
X101161103Y-83865501D01*
X101161099Y-83865504D01*
X101147468Y-83880938D01*
X101135276Y-83892982D01*
X101119673Y-83906427D01*
X101119671Y-83906430D01*
X101112873Y-83912287D01*
X101107993Y-83919816D01*
X101107992Y-83919817D01*
X101098906Y-83933835D01*
X101087615Y-83948709D01*
X101076569Y-83961217D01*
X101070622Y-83967951D01*
X101064312Y-83981391D01*
X101058058Y-83994711D01*
X101049737Y-84009691D01*
X101038529Y-84026983D01*
X101038527Y-84026988D01*
X101033648Y-84034515D01*
X101031078Y-84043108D01*
X101031076Y-84043113D01*
X101026289Y-84059120D01*
X101019628Y-84076564D01*
X101012533Y-84091676D01*
X101008719Y-84099800D01*
X101007338Y-84108667D01*
X101007338Y-84108668D01*
X101004170Y-84129015D01*
X101000386Y-84145736D01*
X100996088Y-84160106D01*
X100957405Y-84219638D01*
X100892676Y-84248806D01*
X100875372Y-84250000D01*
X100442857Y-84250000D01*
X100374736Y-84229998D01*
X100328243Y-84176342D01*
X100321150Y-84156612D01*
X100294362Y-84056638D01*
X100210047Y-83891161D01*
X100205894Y-83886032D01*
X100205891Y-83886028D01*
X100097325Y-83751961D01*
X100093170Y-83746830D01*
X100086000Y-83741024D01*
X99953972Y-83634109D01*
X99953968Y-83634106D01*
X99948839Y-83629953D01*
X99942961Y-83626958D01*
X99942958Y-83626956D01*
X99859146Y-83584252D01*
X99792296Y-83550190D01*
X99740682Y-83501443D01*
X99723500Y-83437924D01*
X99723500Y-79674941D01*
X99743502Y-79606820D01*
X99797349Y-79560240D01*
X99830707Y-79545073D01*
X99834789Y-79543217D01*
X99838560Y-79540805D01*
X99838568Y-79540801D01*
X99953721Y-79467157D01*
X99953722Y-79467156D01*
X99957497Y-79464742D01*
X100065998Y-79371252D01*
X100161750Y-79261489D01*
X100174725Y-79241472D01*
X100237214Y-79145062D01*
X100239650Y-79141304D01*
X100300748Y-79009076D01*
X100341784Y-78871858D01*
X100344770Y-78851881D01*
X100362650Y-78732235D01*
X100362650Y-78732232D01*
X100363312Y-78727804D01*
X100364187Y-78584583D01*
X100363852Y-78582139D01*
X100363729Y-78578344D01*
X100363729Y-78150000D01*
X100358500Y-78076889D01*
X100347833Y-78040560D01*
X100344012Y-77987131D01*
X100363729Y-77850000D01*
X100363729Y-77359992D01*
X100363731Y-77359222D01*
X100364160Y-77289069D01*
X100364160Y-77289063D01*
X100364187Y-77284583D01*
X100350620Y-77185538D01*
X100345030Y-77144724D01*
X100345029Y-77144720D01*
X100344420Y-77140273D01*
X100305063Y-77002564D01*
X100245586Y-76869602D01*
X100243200Y-76865820D01*
X100243196Y-76865813D01*
X100171551Y-76752264D01*
X100169160Y-76748474D01*
X100074754Y-76637548D01*
X99967403Y-76542740D01*
X99944807Y-76527897D01*
X99849410Y-76465233D01*
X99849407Y-76465231D01*
X99845666Y-76462774D01*
X99805950Y-76444127D01*
X99752789Y-76397070D01*
X99733500Y-76330072D01*
X99733500Y-72428763D01*
X99734027Y-72417579D01*
X99735701Y-72410091D01*
X99733562Y-72342032D01*
X99733500Y-72338075D01*
X99733500Y-72310144D01*
X99732994Y-72306138D01*
X99732061Y-72294292D01*
X99730922Y-72258037D01*
X99730673Y-72250110D01*
X99725022Y-72230658D01*
X99721014Y-72211306D01*
X99719467Y-72199063D01*
X99718474Y-72191203D01*
X99715556Y-72183832D01*
X99702200Y-72150097D01*
X99698355Y-72138870D01*
X99697721Y-72136687D01*
X99686018Y-72096407D01*
X99681984Y-72089585D01*
X99681981Y-72089579D01*
X99675706Y-72078968D01*
X99667010Y-72061218D01*
X99662472Y-72049756D01*
X99662469Y-72049751D01*
X99659552Y-72042383D01*
X99641899Y-72018085D01*
X99633573Y-72006625D01*
X99627057Y-71996707D01*
X99608575Y-71965457D01*
X99604542Y-71958637D01*
X99590218Y-71944313D01*
X99577376Y-71929278D01*
X99565472Y-71912893D01*
X99531406Y-71884711D01*
X99522627Y-71876722D01*
X91503652Y-63857747D01*
X91496112Y-63849461D01*
X91492000Y-63842982D01*
X91466034Y-63818598D01*
X91442349Y-63796357D01*
X91439507Y-63793602D01*
X91419770Y-63773865D01*
X91416573Y-63771385D01*
X91407551Y-63763680D01*
X91403397Y-63759779D01*
X91375321Y-63733414D01*
X91368375Y-63729595D01*
X91368372Y-63729593D01*
X91357566Y-63723652D01*
X91341047Y-63712801D01*
X91340583Y-63712441D01*
X91325041Y-63700386D01*
X91317772Y-63697241D01*
X91317768Y-63697238D01*
X91284463Y-63682826D01*
X91273813Y-63677609D01*
X91235060Y-63656305D01*
X91215437Y-63651267D01*
X91196734Y-63644863D01*
X91185420Y-63639967D01*
X91185419Y-63639967D01*
X91178145Y-63636819D01*
X91170322Y-63635580D01*
X91170312Y-63635577D01*
X91134476Y-63629901D01*
X91122856Y-63627495D01*
X91087711Y-63618472D01*
X91087710Y-63618472D01*
X91080030Y-63616500D01*
X91059776Y-63616500D01*
X91040065Y-63614949D01*
X91027886Y-63613020D01*
X91020057Y-63611780D01*
X90990786Y-63614547D01*
X90976039Y-63615941D01*
X90964181Y-63616500D01*
X68578768Y-63616500D01*
X68567585Y-63615973D01*
X68560092Y-63614298D01*
X68552166Y-63614547D01*
X68552165Y-63614547D01*
X68492002Y-63616438D01*
X68488044Y-63616500D01*
X68460144Y-63616500D01*
X68456154Y-63617004D01*
X68444320Y-63617936D01*
X68400111Y-63619326D01*
X68392495Y-63621539D01*
X68392493Y-63621539D01*
X68380652Y-63624979D01*
X68361293Y-63628988D01*
X68359983Y-63629154D01*
X68341203Y-63631526D01*
X68333837Y-63634442D01*
X68333831Y-63634444D01*
X68300098Y-63647800D01*
X68288868Y-63651645D01*
X68272828Y-63656305D01*
X68246407Y-63663981D01*
X68239584Y-63668016D01*
X68228966Y-63674295D01*
X68211213Y-63682992D01*
X68203568Y-63686019D01*
X68192383Y-63690448D01*
X68178705Y-63700386D01*
X68156612Y-63716437D01*
X68146695Y-63722951D01*
X68108638Y-63745458D01*
X68094317Y-63759779D01*
X68079284Y-63772619D01*
X68062893Y-63784528D01*
X68057843Y-63790632D01*
X68057838Y-63790637D01*
X68034707Y-63818598D01*
X68026717Y-63827379D01*
X67107742Y-64746353D01*
X67099463Y-64753887D01*
X67092982Y-64758000D01*
X67046357Y-64807651D01*
X67043602Y-64810493D01*
X67023865Y-64830230D01*
X67021385Y-64833427D01*
X67013682Y-64842447D01*
X66983414Y-64874679D01*
X66979595Y-64881625D01*
X66979593Y-64881628D01*
X66973652Y-64892434D01*
X66962801Y-64908953D01*
X66950386Y-64924959D01*
X66947241Y-64932228D01*
X66947238Y-64932232D01*
X66932826Y-64965537D01*
X66927609Y-64976187D01*
X66906305Y-65014940D01*
X66904334Y-65022615D01*
X66904334Y-65022616D01*
X66901267Y-65034562D01*
X66894863Y-65053266D01*
X66886819Y-65071855D01*
X66885580Y-65079678D01*
X66885577Y-65079688D01*
X66879901Y-65115524D01*
X66877495Y-65127144D01*
X66866500Y-65169970D01*
X66866500Y-65190224D01*
X66864949Y-65209934D01*
X66861780Y-65229943D01*
X66862526Y-65237835D01*
X66865941Y-65273961D01*
X66866500Y-65285819D01*
X66866500Y-67421233D01*
X66865973Y-67432416D01*
X66864298Y-67439909D01*
X66864547Y-67447835D01*
X66864547Y-67447836D01*
X66866438Y-67507986D01*
X66866500Y-67511945D01*
X66866500Y-67539856D01*
X66866997Y-67543790D01*
X66866997Y-67543791D01*
X66867005Y-67543856D01*
X66867938Y-67555693D01*
X66869327Y-67599889D01*
X66873796Y-67615271D01*
X66874978Y-67619339D01*
X66878987Y-67638700D01*
X66881526Y-67658797D01*
X66884445Y-67666168D01*
X66884445Y-67666170D01*
X66897804Y-67699912D01*
X66901649Y-67711142D01*
X66913982Y-67753593D01*
X66918015Y-67760412D01*
X66918017Y-67760417D01*
X66924293Y-67771028D01*
X66932988Y-67788776D01*
X66940448Y-67807617D01*
X66945110Y-67814033D01*
X66945110Y-67814034D01*
X66966436Y-67843387D01*
X66972956Y-67853314D01*
X66973283Y-67853867D01*
X66990739Y-67922684D01*
X66968218Y-67990014D01*
X66912871Y-68034480D01*
X66864826Y-68044000D01*
X65695730Y-68044000D01*
X65627609Y-68023998D01*
X65615415Y-68015085D01*
X65556685Y-67966500D01*
X65538580Y-67951522D01*
X65533161Y-67948592D01*
X65533158Y-67948590D01*
X65427315Y-67891362D01*
X65373231Y-67862119D01*
X65193666Y-67806534D01*
X65187541Y-67805890D01*
X65187540Y-67805890D01*
X65012852Y-67787529D01*
X65012851Y-67787529D01*
X65006724Y-67786885D01*
X64929673Y-67793897D01*
X64825665Y-67803363D01*
X64825662Y-67803364D01*
X64819526Y-67803922D01*
X64813620Y-67805660D01*
X64813616Y-67805661D01*
X64685435Y-67843387D01*
X64639202Y-67856994D01*
X64472621Y-67944080D01*
X64326128Y-68061864D01*
X64322170Y-68066582D01*
X64322167Y-68066584D01*
X64249140Y-68153615D01*
X64205302Y-68205859D01*
X64202338Y-68211251D01*
X64202335Y-68211255D01*
X64144089Y-68317205D01*
X64114746Y-68370580D01*
X64057909Y-68549752D01*
X64036956Y-68736552D01*
X64037472Y-68742696D01*
X64049399Y-68884729D01*
X64052685Y-68923865D01*
X64066349Y-68971517D01*
X64093624Y-69066635D01*
X64104497Y-69104555D01*
X64107312Y-69110032D01*
X64107313Y-69110035D01*
X64150179Y-69193443D01*
X64190418Y-69271740D01*
X64194241Y-69276564D01*
X64194244Y-69276568D01*
X64249811Y-69346675D01*
X64307177Y-69419052D01*
X64311871Y-69423047D01*
X64438981Y-69531226D01*
X64450324Y-69540880D01*
X64455702Y-69543886D01*
X64455704Y-69543887D01*
X64515563Y-69577341D01*
X64614409Y-69632584D01*
X64793180Y-69690670D01*
X64979830Y-69712927D01*
X64985965Y-69712455D01*
X64985967Y-69712455D01*
X65013435Y-69710341D01*
X65027016Y-69709296D01*
X65096470Y-69724013D01*
X65146943Y-69773943D01*
X65156516Y-69795988D01*
X65165473Y-69823556D01*
X65168776Y-69829278D01*
X65168777Y-69829279D01*
X65192383Y-69870166D01*
X65260960Y-69988944D01*
X65265378Y-69993851D01*
X65265379Y-69993852D01*
X65312886Y-70046614D01*
X65388747Y-70130866D01*
X65543248Y-70243118D01*
X65549276Y-70245802D01*
X65549278Y-70245803D01*
X65643390Y-70287704D01*
X65717712Y-70320794D01*
X65811112Y-70340647D01*
X65898056Y-70359128D01*
X65898061Y-70359128D01*
X65904513Y-70360500D01*
X66095487Y-70360500D01*
X66101939Y-70359128D01*
X66101944Y-70359128D01*
X66188888Y-70340647D01*
X66282288Y-70320794D01*
X66356610Y-70287704D01*
X66450722Y-70245803D01*
X66450724Y-70245802D01*
X66456752Y-70243118D01*
X66611253Y-70130866D01*
X66687114Y-70046614D01*
X66734621Y-69993852D01*
X66734622Y-69993851D01*
X66739040Y-69988944D01*
X66790969Y-69899000D01*
X66842351Y-69850007D01*
X66900088Y-69836000D01*
X67963906Y-69836000D01*
X68032027Y-69856002D01*
X68078520Y-69909658D01*
X68088624Y-69979932D01*
X68059130Y-70044512D01*
X68053001Y-70051095D01*
X64255464Y-73848631D01*
X60597747Y-77506348D01*
X60589461Y-77513888D01*
X60582982Y-77518000D01*
X60577557Y-77523777D01*
X60536357Y-77567651D01*
X60533602Y-77570493D01*
X60513865Y-77590230D01*
X60511385Y-77593427D01*
X60503682Y-77602447D01*
X60473414Y-77634679D01*
X60469595Y-77641625D01*
X60469593Y-77641628D01*
X60463652Y-77652434D01*
X60452801Y-77668953D01*
X60440386Y-77684959D01*
X60437241Y-77692228D01*
X60437238Y-77692232D01*
X60422826Y-77725537D01*
X60417609Y-77736187D01*
X60396305Y-77774940D01*
X60394334Y-77782615D01*
X60394334Y-77782616D01*
X60391267Y-77794562D01*
X60384863Y-77813266D01*
X60376819Y-77831855D01*
X60375580Y-77839678D01*
X60375577Y-77839688D01*
X60369901Y-77875524D01*
X60367495Y-77887144D01*
X60356500Y-77929970D01*
X60356500Y-77950224D01*
X60354949Y-77969934D01*
X60351780Y-77989943D01*
X60352526Y-77997835D01*
X60355941Y-78033961D01*
X60356500Y-78045819D01*
X60356500Y-83437924D01*
X60336498Y-83506045D01*
X60287704Y-83550190D01*
X60220854Y-83584252D01*
X60137042Y-83626956D01*
X60137039Y-83626958D01*
X60131161Y-83629953D01*
X60126032Y-83634106D01*
X60126028Y-83634109D01*
X59994000Y-83741024D01*
X59986830Y-83746830D01*
X59982675Y-83751961D01*
X59874109Y-83886028D01*
X59874106Y-83886032D01*
X59869953Y-83891161D01*
X59866956Y-83897043D01*
X59831986Y-83965675D01*
X59783237Y-84017290D01*
X59714323Y-84034356D01*
X59647121Y-84011455D01*
X59607452Y-83965675D01*
X59572622Y-83897317D01*
X59565470Y-83886304D01*
X59456966Y-83752311D01*
X59447689Y-83743034D01*
X59313696Y-83634530D01*
X59302682Y-83627378D01*
X59149059Y-83549102D01*
X59136813Y-83544401D01*
X58969467Y-83499561D01*
X58958140Y-83497614D01*
X58889261Y-83492193D01*
X58884334Y-83492000D01*
X58722115Y-83492000D01*
X58706876Y-83496475D01*
X58705671Y-83497865D01*
X58704000Y-83505548D01*
X58704000Y-84250000D01*
X58196000Y-84250000D01*
X58196000Y-83510115D01*
X58191525Y-83494876D01*
X58190135Y-83493671D01*
X58182452Y-83492000D01*
X58015666Y-83492000D01*
X58010739Y-83492193D01*
X57941860Y-83497614D01*
X57930533Y-83499561D01*
X57763187Y-83544401D01*
X57750941Y-83549102D01*
X57597318Y-83627378D01*
X57586304Y-83634530D01*
X57452311Y-83743034D01*
X57443034Y-83752311D01*
X57334530Y-83886304D01*
X57327378Y-83897318D01*
X57292267Y-83966226D01*
X57243519Y-84017841D01*
X57174604Y-84034907D01*
X57107402Y-84012006D01*
X57067733Y-83966226D01*
X57032622Y-83897318D01*
X57025470Y-83886304D01*
X56916966Y-83752311D01*
X56907689Y-83743034D01*
X56773696Y-83634530D01*
X56762682Y-83627378D01*
X56609059Y-83549102D01*
X56596813Y-83544401D01*
X56429467Y-83499561D01*
X56418140Y-83497614D01*
X56349261Y-83492193D01*
X56344334Y-83492000D01*
X56182115Y-83492000D01*
X56166876Y-83496475D01*
X56165671Y-83497865D01*
X56164000Y-83505548D01*
X56164000Y-84250000D01*
X55656000Y-84250000D01*
X55656000Y-83510115D01*
X55651525Y-83494876D01*
X55650135Y-83493671D01*
X55642452Y-83492000D01*
X55475666Y-83492000D01*
X55470739Y-83492193D01*
X55401860Y-83497614D01*
X55390533Y-83499561D01*
X55223187Y-83544401D01*
X55210941Y-83549102D01*
X55057318Y-83627378D01*
X55046304Y-83634530D01*
X54912311Y-83743034D01*
X54903034Y-83752311D01*
X54794530Y-83886304D01*
X54787378Y-83897318D01*
X54709102Y-84050941D01*
X54704401Y-84063187D01*
X54679368Y-84156612D01*
X54642416Y-84217234D01*
X54578555Y-84248256D01*
X54557661Y-84250000D01*
X54123936Y-84250000D01*
X54055815Y-84229998D01*
X54009322Y-84176342D01*
X54002786Y-84158622D01*
X54000849Y-84151844D01*
X53997272Y-84135085D01*
X53994352Y-84114698D01*
X53993080Y-84105813D01*
X53982451Y-84082436D01*
X53976004Y-84064913D01*
X53973639Y-84056638D01*
X53968949Y-84040229D01*
X53964156Y-84032632D01*
X53953170Y-84015220D01*
X53945030Y-84000135D01*
X53942564Y-83994711D01*
X53932792Y-83973218D01*
X53926293Y-83965675D01*
X53916030Y-83953765D01*
X53904927Y-83938761D01*
X53891224Y-83917042D01*
X53884499Y-83911103D01*
X53884496Y-83911099D01*
X53869062Y-83897468D01*
X53857018Y-83885276D01*
X53843573Y-83869673D01*
X53843570Y-83869671D01*
X53837713Y-83862873D01*
X53824009Y-83853990D01*
X53816165Y-83848906D01*
X53801291Y-83837615D01*
X53788783Y-83826569D01*
X53788782Y-83826568D01*
X53782049Y-83820622D01*
X53755287Y-83808057D01*
X53740309Y-83799737D01*
X53723017Y-83788529D01*
X53723012Y-83788527D01*
X53715485Y-83783648D01*
X53706892Y-83781078D01*
X53706887Y-83781076D01*
X53690880Y-83776289D01*
X53673436Y-83769628D01*
X53658324Y-83762533D01*
X53658322Y-83762532D01*
X53650200Y-83758719D01*
X53641333Y-83757338D01*
X53641332Y-83757338D01*
X53630478Y-83755648D01*
X53620983Y-83754170D01*
X53604268Y-83750387D01*
X53584534Y-83744485D01*
X53584528Y-83744484D01*
X53575934Y-83741914D01*
X53566963Y-83741859D01*
X53566962Y-83741859D01*
X53556903Y-83741798D01*
X53541494Y-83741704D01*
X53540711Y-83741671D01*
X53539614Y-83741500D01*
X53508623Y-83741500D01*
X53507853Y-83741498D01*
X53434215Y-83741048D01*
X53434214Y-83741048D01*
X53430279Y-83741024D01*
X53428935Y-83741408D01*
X53427590Y-83741500D01*
X50634500Y-83741500D01*
X50566379Y-83721498D01*
X50519886Y-83667842D01*
X50508500Y-83615500D01*
X50508500Y-70175400D01*
X57016500Y-70175400D01*
X57016837Y-70178646D01*
X57016837Y-70178650D01*
X57023805Y-70245803D01*
X57027474Y-70281166D01*
X57029655Y-70287702D01*
X57029655Y-70287704D01*
X57059540Y-70377279D01*
X57083450Y-70448946D01*
X57176522Y-70599348D01*
X57301697Y-70724305D01*
X57452262Y-70817115D01*
X57505168Y-70834663D01*
X57563527Y-70875094D01*
X57590764Y-70940658D01*
X57591500Y-70954256D01*
X57591500Y-72747684D01*
X57571498Y-72815805D01*
X57562023Y-72828674D01*
X57455302Y-72955859D01*
X57452338Y-72961251D01*
X57452335Y-72961255D01*
X57422529Y-73015473D01*
X57364746Y-73120580D01*
X57307909Y-73299752D01*
X57286956Y-73486552D01*
X57287472Y-73492696D01*
X57294794Y-73579887D01*
X57302685Y-73673865D01*
X57354497Y-73854555D01*
X57357312Y-73860032D01*
X57357313Y-73860035D01*
X57437603Y-74016263D01*
X57440418Y-74021740D01*
X57444241Y-74026564D01*
X57444244Y-74026568D01*
X57470625Y-74059852D01*
X57557177Y-74169052D01*
X57700324Y-74290880D01*
X57705702Y-74293886D01*
X57705704Y-74293887D01*
X57782366Y-74336732D01*
X57864409Y-74382584D01*
X58043180Y-74440670D01*
X58229830Y-74462927D01*
X58235965Y-74462455D01*
X58235967Y-74462455D01*
X58411105Y-74448979D01*
X58411109Y-74448978D01*
X58417247Y-74448506D01*
X58502378Y-74424737D01*
X58592350Y-74399616D01*
X58592353Y-74399615D01*
X58598294Y-74397956D01*
X58603798Y-74395176D01*
X58603800Y-74395175D01*
X58760574Y-74315983D01*
X58760576Y-74315982D01*
X58766075Y-74313204D01*
X58914199Y-74197477D01*
X58918225Y-74192813D01*
X59032994Y-74059852D01*
X59032995Y-74059850D01*
X59037023Y-74055184D01*
X59129870Y-73891744D01*
X59189203Y-73713382D01*
X59212762Y-73526892D01*
X59213138Y-73500000D01*
X59194795Y-73312926D01*
X59140465Y-73132977D01*
X59052218Y-72967008D01*
X58936857Y-72825560D01*
X58909303Y-72760128D01*
X58908500Y-72745925D01*
X58908500Y-70954197D01*
X58928502Y-70886076D01*
X58982158Y-70839583D01*
X58994623Y-70834674D01*
X59042002Y-70818867D01*
X59042004Y-70818866D01*
X59048946Y-70816550D01*
X59090044Y-70791118D01*
X59193120Y-70727332D01*
X59199348Y-70723478D01*
X59324305Y-70598303D01*
X59359102Y-70541852D01*
X59413275Y-70453968D01*
X59413276Y-70453966D01*
X59417115Y-70447738D01*
X59472797Y-70279861D01*
X59483500Y-70175400D01*
X59483500Y-69399600D01*
X59480590Y-69371556D01*
X59473238Y-69300692D01*
X59473237Y-69300688D01*
X59472526Y-69293834D01*
X59467266Y-69278066D01*
X59418868Y-69133002D01*
X59416550Y-69126054D01*
X59323478Y-68975652D01*
X59198303Y-68850695D01*
X59193765Y-68847898D01*
X59153176Y-68790647D01*
X59149946Y-68719724D01*
X59185572Y-68658313D01*
X59194068Y-68650938D01*
X59204207Y-68642902D01*
X59318739Y-68528171D01*
X59327751Y-68516760D01*
X59412816Y-68378757D01*
X59418963Y-68365576D01*
X59470138Y-68211290D01*
X59473005Y-68197914D01*
X59482672Y-68103562D01*
X59483000Y-68097146D01*
X59483000Y-67984615D01*
X59478525Y-67969376D01*
X59477135Y-67968171D01*
X59469452Y-67966500D01*
X57035116Y-67966500D01*
X57019877Y-67970975D01*
X57018672Y-67972365D01*
X57017001Y-67980048D01*
X57017001Y-68097095D01*
X57017338Y-68103614D01*
X57027257Y-68199206D01*
X57030149Y-68212600D01*
X57081588Y-68366784D01*
X57087761Y-68379962D01*
X57173063Y-68517807D01*
X57182099Y-68529208D01*
X57296828Y-68643738D01*
X57305762Y-68650794D01*
X57346823Y-68708712D01*
X57350053Y-68779635D01*
X57314426Y-68841046D01*
X57306593Y-68847846D01*
X57300652Y-68851522D01*
X57175695Y-68976697D01*
X57171855Y-68982927D01*
X57171854Y-68982928D01*
X57095570Y-69106684D01*
X57082885Y-69127262D01*
X57080581Y-69134209D01*
X57033363Y-69276568D01*
X57027203Y-69295139D01*
X57026503Y-69301975D01*
X57026502Y-69301978D01*
X57022220Y-69343770D01*
X57016500Y-69399600D01*
X57016500Y-70175400D01*
X50508500Y-70175400D01*
X50508500Y-67440385D01*
X57017000Y-67440385D01*
X57021475Y-67455624D01*
X57022865Y-67456829D01*
X57030548Y-67458500D01*
X57977885Y-67458500D01*
X57993124Y-67454025D01*
X57994329Y-67452635D01*
X57996000Y-67444952D01*
X57996000Y-67440385D01*
X58504000Y-67440385D01*
X58508475Y-67455624D01*
X58509865Y-67456829D01*
X58517548Y-67458500D01*
X59464884Y-67458500D01*
X59480123Y-67454025D01*
X59481328Y-67452635D01*
X59482999Y-67444952D01*
X59482999Y-67327905D01*
X59482662Y-67321386D01*
X59472743Y-67225794D01*
X59469851Y-67212400D01*
X59418412Y-67058216D01*
X59412239Y-67045038D01*
X59326937Y-66907193D01*
X59317901Y-66895792D01*
X59203171Y-66781261D01*
X59191760Y-66772249D01*
X59053757Y-66687184D01*
X59040576Y-66681037D01*
X58886290Y-66629862D01*
X58872914Y-66626995D01*
X58778562Y-66617328D01*
X58772145Y-66617000D01*
X58522115Y-66617000D01*
X58506876Y-66621475D01*
X58505671Y-66622865D01*
X58504000Y-66630548D01*
X58504000Y-67440385D01*
X57996000Y-67440385D01*
X57996000Y-66635116D01*
X57991525Y-66619877D01*
X57990135Y-66618672D01*
X57982452Y-66617001D01*
X57727905Y-66617001D01*
X57721386Y-66617338D01*
X57625794Y-66627257D01*
X57612400Y-66630149D01*
X57458216Y-66681588D01*
X57445038Y-66687761D01*
X57307193Y-66773063D01*
X57295792Y-66782099D01*
X57181261Y-66896829D01*
X57172249Y-66908240D01*
X57087184Y-67046243D01*
X57081037Y-67059424D01*
X57029862Y-67213710D01*
X57026995Y-67227086D01*
X57017328Y-67321438D01*
X57017000Y-67327855D01*
X57017000Y-67440385D01*
X50508500Y-67440385D01*
X50508500Y-55000000D01*
X51286411Y-55000000D01*
X51306754Y-55388176D01*
X51367562Y-55772099D01*
X51468167Y-56147562D01*
X51607468Y-56510453D01*
X51783938Y-56856794D01*
X51995643Y-57182793D01*
X52240266Y-57484876D01*
X52515124Y-57759734D01*
X52817207Y-58004357D01*
X53143206Y-58216062D01*
X53146140Y-58217557D01*
X53146147Y-58217561D01*
X53486607Y-58391034D01*
X53489547Y-58392532D01*
X53852438Y-58531833D01*
X54227901Y-58632438D01*
X54431793Y-58664732D01*
X54608576Y-58692732D01*
X54608584Y-58692733D01*
X54611824Y-58693246D01*
X54902894Y-58708500D01*
X55097106Y-58708500D01*
X55388176Y-58693246D01*
X55391416Y-58692733D01*
X55391424Y-58692732D01*
X55568207Y-58664732D01*
X55772099Y-58632438D01*
X56147562Y-58531833D01*
X56510453Y-58392532D01*
X56513393Y-58391034D01*
X56853853Y-58217561D01*
X56853860Y-58217557D01*
X56856794Y-58216062D01*
X57182793Y-58004357D01*
X57484876Y-57759734D01*
X57759734Y-57484876D01*
X58004357Y-57182793D01*
X58214265Y-56859563D01*
X58214266Y-56859561D01*
X58216062Y-56856795D01*
X58217562Y-56853853D01*
X58391034Y-56513393D01*
X58392532Y-56510453D01*
X58531833Y-56147562D01*
X58632438Y-55772099D01*
X58693246Y-55388176D01*
X58713589Y-55000000D01*
X96286411Y-55000000D01*
X96306754Y-55388176D01*
X96367562Y-55772099D01*
X96468167Y-56147562D01*
X96607468Y-56510453D01*
X96783938Y-56856794D01*
X96995643Y-57182793D01*
X97240266Y-57484876D01*
X97515124Y-57759734D01*
X97817207Y-58004357D01*
X98143206Y-58216062D01*
X98146140Y-58217557D01*
X98146147Y-58217561D01*
X98486607Y-58391034D01*
X98489547Y-58392532D01*
X98852438Y-58531833D01*
X99227901Y-58632438D01*
X99431793Y-58664732D01*
X99608576Y-58692732D01*
X99608584Y-58692733D01*
X99611824Y-58693246D01*
X99902894Y-58708500D01*
X100097106Y-58708500D01*
X100388176Y-58693246D01*
X100391416Y-58692733D01*
X100391424Y-58692732D01*
X100568207Y-58664732D01*
X100772099Y-58632438D01*
X101147562Y-58531833D01*
X101510453Y-58392532D01*
X101513393Y-58391034D01*
X101853853Y-58217561D01*
X101853860Y-58217557D01*
X101856794Y-58216062D01*
X102182793Y-58004357D01*
X102484876Y-57759734D01*
X102759734Y-57484876D01*
X103004357Y-57182793D01*
X103214265Y-56859563D01*
X103214266Y-56859561D01*
X103216062Y-56856795D01*
X103217562Y-56853853D01*
X103391034Y-56513393D01*
X103392532Y-56510453D01*
X103531833Y-56147562D01*
X103632438Y-55772099D01*
X103693246Y-55388176D01*
X103713589Y-55000000D01*
X103693246Y-54611824D01*
X103632438Y-54227901D01*
X103531833Y-53852438D01*
X103392532Y-53489547D01*
X103216062Y-53143206D01*
X103004357Y-52817207D01*
X102759734Y-52515124D01*
X102484876Y-52240266D01*
X102182793Y-51995643D01*
X101856794Y-51783938D01*
X101853860Y-51782443D01*
X101853853Y-51782439D01*
X101513393Y-51608966D01*
X101510453Y-51607468D01*
X101147562Y-51468167D01*
X100772099Y-51367562D01*
X100568207Y-51335268D01*
X100391424Y-51307268D01*
X100391416Y-51307267D01*
X100388176Y-51306754D01*
X100097106Y-51291500D01*
X99902894Y-51291500D01*
X99611824Y-51306754D01*
X99608584Y-51307267D01*
X99608576Y-51307268D01*
X99431793Y-51335268D01*
X99227901Y-51367562D01*
X98852438Y-51468167D01*
X98489547Y-51607468D01*
X98486607Y-51608966D01*
X98146147Y-51782439D01*
X98146140Y-51782443D01*
X98143206Y-51783938D01*
X97817207Y-51995643D01*
X97515124Y-52240266D01*
X97240266Y-52515124D01*
X96995643Y-52817207D01*
X96993848Y-52819970D01*
X96993848Y-52819971D01*
X96785736Y-53140436D01*
X96785734Y-53140439D01*
X96783938Y-53143205D01*
X96782443Y-53146139D01*
X96782439Y-53146146D01*
X96608966Y-53486607D01*
X96607468Y-53489547D01*
X96468167Y-53852438D01*
X96367562Y-54227901D01*
X96306754Y-54611824D01*
X96286411Y-55000000D01*
X58713589Y-55000000D01*
X58693246Y-54611824D01*
X58632438Y-54227901D01*
X58531833Y-53852438D01*
X58392532Y-53489547D01*
X58216062Y-53143206D01*
X58004357Y-52817207D01*
X57759734Y-52515124D01*
X57484876Y-52240266D01*
X57182793Y-51995643D01*
X56856794Y-51783938D01*
X56853860Y-51782443D01*
X56853853Y-51782439D01*
X56513393Y-51608966D01*
X56510453Y-51607468D01*
X56147562Y-51468167D01*
X55772099Y-51367562D01*
X55568207Y-51335268D01*
X55391424Y-51307268D01*
X55391416Y-51307267D01*
X55388176Y-51306754D01*
X55097106Y-51291500D01*
X54902894Y-51291500D01*
X54611824Y-51306754D01*
X54608584Y-51307267D01*
X54608576Y-51307268D01*
X54431793Y-51335268D01*
X54227901Y-51367562D01*
X53852438Y-51468167D01*
X53489547Y-51607468D01*
X53486607Y-51608966D01*
X53146147Y-51782439D01*
X53146140Y-51782443D01*
X53143206Y-51783938D01*
X52817207Y-51995643D01*
X52515124Y-52240266D01*
X52240266Y-52515124D01*
X51995643Y-52817207D01*
X51993848Y-52819970D01*
X51993848Y-52819971D01*
X51785736Y-53140436D01*
X51785734Y-53140439D01*
X51783938Y-53143205D01*
X51782443Y-53146139D01*
X51782439Y-53146146D01*
X51608966Y-53486607D01*
X51607468Y-53489547D01*
X51468167Y-53852438D01*
X51367562Y-54227901D01*
X51306754Y-54611824D01*
X51286411Y-55000000D01*
X50508500Y-55000000D01*
X50508500Y-50634500D01*
X50528502Y-50566379D01*
X50582158Y-50519886D01*
X50634500Y-50508500D01*
X104365500Y-50508500D01*
X104433621Y-50528502D01*
G37*
%TD.AperFunction*%
%TD*%
M02*
