%TF.GenerationSoftware,KiCad,Pcbnew,(6.0.7-1)-1*%
%TF.CreationDate,2023-01-02T14:41:07-08:00*%
%TF.ProjectId,QCard,51436172-642e-46b6-9963-61645f706362,rev?*%
%TF.SameCoordinates,Original*%
%TF.FileFunction,Copper,L1,Top*%
%TF.FilePolarity,Positive*%
%FSLAX46Y46*%
G04 Gerber Fmt 4.6, Leading zero omitted, Abs format (unit mm)*
G04 Created by KiCad (PCBNEW (6.0.7-1)-1) date 2023-01-02 14:41:07*
%MOMM*%
%LPD*%
G01*
G04 APERTURE LIST*
%TA.AperFunction,ComponentPad*%
%ADD10R,1.700000X1.700000*%
%TD*%
%TA.AperFunction,ComponentPad*%
%ADD11O,1.700000X1.700000*%
%TD*%
%TA.AperFunction,ComponentPad*%
%ADD12R,1.676400X1.676400*%
%TD*%
%TA.AperFunction,ComponentPad*%
%ADD13C,1.676400*%
%TD*%
%TA.AperFunction,Conductor*%
%ADD14C,0.250000*%
%TD*%
%TA.AperFunction,Conductor*%
%ADD15C,1.000000*%
%TD*%
G04 APERTURE END LIST*
D10*
%TO.P,J1,1,Pin_1*%
%TO.N,/VCC*%
X95750000Y-52925000D03*
D11*
%TO.P,J1,2,Pin_2*%
%TO.N,/GND*%
X90750000Y-52925000D03*
%TO.P,J1,3,Pin_3*%
%TO.N,/A18*%
X95750000Y-55465000D03*
%TO.P,J1,4,Pin_4*%
%TO.N,/GND*%
X90750000Y-55465000D03*
%TO.P,J1,5,Pin_5*%
%TO.N,/A17*%
X95750000Y-58005000D03*
%TO.P,J1,6,Pin_6*%
%TO.N,/A16*%
X90750000Y-58005000D03*
%TO.P,J1,7,Pin_7*%
%TO.N,/A14*%
X95750000Y-60545000D03*
%TO.P,J1,8,Pin_8*%
%TO.N,/A15*%
X90750000Y-60545000D03*
%TO.P,J1,9,Pin_9*%
%TO.N,/A13*%
X95750000Y-63085000D03*
%TO.P,J1,10,Pin_10*%
%TO.N,/A12*%
X90750000Y-63085000D03*
%TO.P,J1,11,Pin_11*%
%TO.N,/A8*%
X95750000Y-65625000D03*
%TO.P,J1,12,Pin_12*%
%TO.N,/A7*%
X90750000Y-65625000D03*
%TO.P,J1,13,Pin_13*%
%TO.N,/A9*%
X95750000Y-68165000D03*
%TO.P,J1,14,Pin_14*%
%TO.N,/A6*%
X90750000Y-68165000D03*
%TO.P,J1,15,Pin_15*%
%TO.N,/A11*%
X95750000Y-70705000D03*
%TO.P,J1,16,Pin_16*%
%TO.N,/A5*%
X90750000Y-70705000D03*
%TO.P,J1,17,Pin_17*%
%TO.N,/OE*%
X95750000Y-73245000D03*
%TO.P,J1,18,Pin_18*%
%TO.N,/A4*%
X90750000Y-73245000D03*
%TO.P,J1,19,Pin_19*%
%TO.N,/A10*%
X95750000Y-75785000D03*
%TO.P,J1,20,Pin_20*%
%TO.N,/A3*%
X90750000Y-75785000D03*
%TO.P,J1,21,Pin_21*%
%TO.N,/CE*%
X95750000Y-78325000D03*
%TO.P,J1,22,Pin_22*%
%TO.N,/A2*%
X90750000Y-78325000D03*
%TO.P,J1,23,Pin_23*%
%TO.N,/D7*%
X95750000Y-80865000D03*
%TO.P,J1,24,Pin_24*%
%TO.N,/A1*%
X90750000Y-80865000D03*
%TO.P,J1,25,Pin_25*%
%TO.N,/D6*%
X95750000Y-83405000D03*
%TO.P,J1,26,Pin_26*%
%TO.N,/A0*%
X90750000Y-83405000D03*
%TO.P,J1,27,Pin_27*%
%TO.N,/D5*%
X95750000Y-85945000D03*
%TO.P,J1,28,Pin_28*%
%TO.N,/D0*%
X90750000Y-85945000D03*
%TO.P,J1,29,Pin_29*%
%TO.N,/D4*%
X95750000Y-88485000D03*
%TO.P,J1,30,Pin_30*%
%TO.N,/D1*%
X90750000Y-88485000D03*
%TO.P,J1,31,Pin_31*%
%TO.N,/D3*%
X95750000Y-91025000D03*
%TO.P,J1,32,Pin_32*%
%TO.N,/D2*%
X90750000Y-91025000D03*
%TO.P,J1,33,Pin_33*%
%TO.N,/GND*%
X95750000Y-93565000D03*
%TO.P,J1,34,Pin_34*%
X90750000Y-93565000D03*
%TO.P,J1,35,Pin_35*%
X95750000Y-96105000D03*
%TO.P,J1,36,Pin_36*%
%TO.N,unconnected-(J1-Pad36)*%
X90750000Y-96105000D03*
%TD*%
D12*
%TO.P,U1,1,VPP*%
%TO.N,unconnected-(U1-Pad1)*%
X85880000Y-55450000D03*
D13*
%TO.P,U1,2,A16*%
%TO.N,/A16*%
X85880000Y-57990000D03*
%TO.P,U1,3,A15*%
%TO.N,/A15*%
X85880000Y-60530000D03*
%TO.P,U1,4,A12*%
%TO.N,/A12*%
X85880000Y-63070000D03*
%TO.P,U1,5,A7*%
%TO.N,/A7*%
X85880000Y-65610000D03*
%TO.P,U1,6,A6*%
%TO.N,/A6*%
X85880000Y-68150000D03*
%TO.P,U1,7,A5*%
%TO.N,/A5*%
X85880000Y-70690000D03*
%TO.P,U1,8,A4*%
%TO.N,/A4*%
X85880000Y-73230000D03*
%TO.P,U1,9,A3*%
%TO.N,/A3*%
X85880000Y-75770000D03*
%TO.P,U1,10,A2*%
%TO.N,/A2*%
X85880000Y-78310000D03*
%TO.P,U1,11,A1*%
%TO.N,/A1*%
X85880000Y-80850000D03*
%TO.P,U1,12,A0*%
%TO.N,/A0*%
X85880000Y-83390000D03*
%TO.P,U1,13,O0*%
%TO.N,/D0*%
X85880000Y-85930000D03*
%TO.P,U1,14,O1*%
%TO.N,/D1*%
X85880000Y-88470000D03*
%TO.P,U1,15,O2*%
%TO.N,/D2*%
X85880000Y-91010000D03*
%TO.P,U1,16,GND*%
%TO.N,/GND*%
X85880000Y-93550000D03*
%TO.P,U1,17,O3*%
%TO.N,/D3*%
X101120000Y-93550000D03*
%TO.P,U1,18,O4*%
%TO.N,/D4*%
X101120000Y-91010000D03*
%TO.P,U1,19,O5*%
%TO.N,/D5*%
X101120000Y-88470000D03*
%TO.P,U1,20,O6*%
%TO.N,/D6*%
X101120000Y-85930000D03*
%TO.P,U1,21,O7*%
%TO.N,/D7*%
X101120000Y-83390000D03*
%TO.P,U1,22,~CE*%
%TO.N,/CE*%
X101120000Y-80850000D03*
%TO.P,U1,23,A10*%
%TO.N,/A10*%
X101120000Y-78310000D03*
%TO.P,U1,24,~OE*%
%TO.N,/OE*%
X101120000Y-75770000D03*
%TO.P,U1,25,A11*%
%TO.N,/A11*%
X101120000Y-73230000D03*
%TO.P,U1,26,A9*%
%TO.N,/A9*%
X101120000Y-70690000D03*
%TO.P,U1,27,A8*%
%TO.N,/A8*%
X101120000Y-68150000D03*
%TO.P,U1,28,A13*%
%TO.N,/A13*%
X101120000Y-65610000D03*
%TO.P,U1,29,A14*%
%TO.N,/A14*%
X101120000Y-63070000D03*
%TO.P,U1,30,A17*%
%TO.N,/A17*%
X101120000Y-60530000D03*
%TO.P,U1,31,A18*%
%TO.N,/A18*%
X101120000Y-57990000D03*
%TO.P,U1,32,VCC*%
%TO.N,/VCC*%
X101120000Y-55450000D03*
%TD*%
D14*
%TO.N,/A16*%
X85895000Y-58005000D02*
X85880000Y-57990000D01*
X90750000Y-58005000D02*
X85895000Y-58005000D01*
%TO.N,/A15*%
X90750000Y-60545000D02*
X85895000Y-60545000D01*
X85895000Y-60545000D02*
X85880000Y-60530000D01*
%TO.N,/A12*%
X85895000Y-63085000D02*
X85880000Y-63070000D01*
X90750000Y-63085000D02*
X85895000Y-63085000D01*
%TO.N,/A7*%
X90750000Y-65625000D02*
X85895000Y-65625000D01*
X85895000Y-65625000D02*
X85880000Y-65610000D01*
%TO.N,/A6*%
X90750000Y-68165000D02*
X85895000Y-68165000D01*
X85895000Y-68165000D02*
X85880000Y-68150000D01*
%TO.N,/A5*%
X90735000Y-70690000D02*
X90750000Y-70705000D01*
X85880000Y-70690000D02*
X90735000Y-70690000D01*
%TO.N,/A4*%
X85895000Y-73245000D02*
X85880000Y-73230000D01*
X90750000Y-73245000D02*
X85895000Y-73245000D01*
%TO.N,/A3*%
X90750000Y-75785000D02*
X85895000Y-75785000D01*
X85895000Y-75785000D02*
X85880000Y-75770000D01*
%TO.N,/A2*%
X85895000Y-78325000D02*
X85880000Y-78310000D01*
X90750000Y-78325000D02*
X85895000Y-78325000D01*
%TO.N,/A1*%
X85895000Y-80865000D02*
X85880000Y-80850000D01*
X90750000Y-80865000D02*
X85895000Y-80865000D01*
%TO.N,/A0*%
X85895000Y-83405000D02*
X85880000Y-83390000D01*
X90750000Y-83405000D02*
X85895000Y-83405000D01*
%TO.N,/D0*%
X85895000Y-85945000D02*
X85880000Y-85930000D01*
X90750000Y-85945000D02*
X85895000Y-85945000D01*
%TO.N,/D1*%
X85895000Y-88485000D02*
X85880000Y-88470000D01*
X90750000Y-88485000D02*
X85895000Y-88485000D01*
%TO.N,/D2*%
X90750000Y-91025000D02*
X85895000Y-91025000D01*
X85895000Y-91025000D02*
X85880000Y-91010000D01*
%TO.N,/D3*%
X98595000Y-91025000D02*
X101120000Y-93550000D01*
X95750000Y-91025000D02*
X98595000Y-91025000D01*
%TO.N,/D4*%
X98595000Y-88485000D02*
X101120000Y-91010000D01*
X95750000Y-88485000D02*
X98595000Y-88485000D01*
%TO.N,/D5*%
X98595000Y-85945000D02*
X101120000Y-88470000D01*
X95750000Y-85945000D02*
X98595000Y-85945000D01*
%TO.N,/D6*%
X95750000Y-83405000D02*
X98595000Y-83405000D01*
X98595000Y-83405000D02*
X101120000Y-85930000D01*
%TO.N,/D7*%
X95750000Y-80865000D02*
X98595000Y-80865000D01*
X98595000Y-80865000D02*
X101120000Y-83390000D01*
%TO.N,/CE*%
X98595000Y-78325000D02*
X101120000Y-80850000D01*
X95750000Y-78325000D02*
X98595000Y-78325000D01*
%TO.N,/A10*%
X98595000Y-75785000D02*
X101120000Y-78310000D01*
X95750000Y-75785000D02*
X98595000Y-75785000D01*
%TO.N,/OE*%
X95750000Y-73245000D02*
X98595000Y-73245000D01*
X98595000Y-73245000D02*
X101120000Y-75770000D01*
%TO.N,/A11*%
X95750000Y-70705000D02*
X98595000Y-70705000D01*
X98595000Y-70705000D02*
X101120000Y-73230000D01*
%TO.N,/A9*%
X98595000Y-68165000D02*
X101120000Y-70690000D01*
X95750000Y-68165000D02*
X98595000Y-68165000D01*
%TO.N,/A8*%
X98595000Y-65625000D02*
X101120000Y-68150000D01*
X95750000Y-65625000D02*
X98595000Y-65625000D01*
%TO.N,/A13*%
X98595000Y-63085000D02*
X101120000Y-65610000D01*
X95750000Y-63085000D02*
X98595000Y-63085000D01*
%TO.N,/A14*%
X98595000Y-60545000D02*
X101120000Y-63070000D01*
X95750000Y-60545000D02*
X98595000Y-60545000D01*
%TO.N,/A17*%
X95750000Y-58005000D02*
X98595000Y-58005000D01*
X98595000Y-58005000D02*
X101120000Y-60530000D01*
%TO.N,/A18*%
X98595000Y-55465000D02*
X101120000Y-57990000D01*
X95750000Y-55465000D02*
X98595000Y-55465000D01*
D15*
%TO.N,/VCC*%
X95750000Y-52925000D02*
X98595000Y-52925000D01*
X98595000Y-52925000D02*
X101120000Y-55450000D01*
%TD*%
M02*
