%TF.GenerationSoftware,KiCad,Pcbnew,(6.0.7-1)-1*%
%TF.CreationDate,2023-01-02T14:41:07-08:00*%
%TF.ProjectId,QCard,51436172-642e-46b6-9963-61645f706362,rev?*%
%TF.SameCoordinates,Original*%
%TF.FileFunction,Legend,Top*%
%TF.FilePolarity,Positive*%
%FSLAX46Y46*%
G04 Gerber Fmt 4.6, Leading zero omitted, Abs format (unit mm)*
G04 Created by KiCad (PCBNEW (6.0.7-1)-1) date 2023-01-02 14:41:07*
%MOMM*%
%LPD*%
G01*
G04 APERTURE LIST*
%ADD10C,0.150000*%
%ADD11C,0.120000*%
%ADD12C,0.152400*%
G04 APERTURE END LIST*
D10*
G36*
X93500000Y-51000000D02*
G01*
X92500000Y-50400000D01*
X94500000Y-50400000D01*
X93500000Y-51000000D01*
G37*
X93500000Y-51000000D02*
X92500000Y-50400000D01*
X94500000Y-50400000D01*
X93500000Y-51000000D01*
X85952380Y-53488095D02*
X84952380Y-53488095D01*
X84952380Y-53107142D01*
X85000000Y-53011904D01*
X85047619Y-52964285D01*
X85142857Y-52916666D01*
X85285714Y-52916666D01*
X85380952Y-52964285D01*
X85428571Y-53011904D01*
X85476190Y-53107142D01*
X85476190Y-53488095D01*
X85952380Y-51964285D02*
X85952380Y-52535714D01*
X85952380Y-52250000D02*
X84952380Y-52250000D01*
X85095238Y-52345238D01*
X85190476Y-52440476D01*
X85238095Y-52535714D01*
X87339285Y-53214285D02*
X87375000Y-53142857D01*
X87446428Y-53071428D01*
X87553571Y-52964285D01*
X87589285Y-52892857D01*
X87589285Y-52821428D01*
X87410714Y-52857142D02*
X87446428Y-52785714D01*
X87517857Y-52714285D01*
X87660714Y-52678571D01*
X87910714Y-52678571D01*
X88053571Y-52714285D01*
X88125000Y-52785714D01*
X88160714Y-52857142D01*
X88160714Y-53000000D01*
X88125000Y-53071428D01*
X88053571Y-53142857D01*
X87910714Y-53178571D01*
X87660714Y-53178571D01*
X87517857Y-53142857D01*
X87446428Y-53071428D01*
X87410714Y-53000000D01*
X87410714Y-52857142D01*
X87482142Y-54500000D02*
X87446428Y-54464285D01*
X87410714Y-54357142D01*
X87410714Y-54285714D01*
X87446428Y-54178571D01*
X87517857Y-54107142D01*
X87589285Y-54071428D01*
X87732142Y-54035714D01*
X87839285Y-54035714D01*
X87982142Y-54071428D01*
X88053571Y-54107142D01*
X88125000Y-54178571D01*
X88160714Y-54285714D01*
X88160714Y-54357142D01*
X88125000Y-54464285D01*
X88089285Y-54500000D01*
X87625000Y-54785714D02*
X87625000Y-55142857D01*
X87410714Y-54714285D02*
X88160714Y-54964285D01*
X87410714Y-55214285D01*
X87410714Y-55892857D02*
X87767857Y-55642857D01*
X87410714Y-55464285D02*
X88160714Y-55464285D01*
X88160714Y-55750000D01*
X88125000Y-55821428D01*
X88089285Y-55857142D01*
X88017857Y-55892857D01*
X87910714Y-55892857D01*
X87839285Y-55857142D01*
X87803571Y-55821428D01*
X87767857Y-55750000D01*
X87767857Y-55464285D01*
X87410714Y-56214285D02*
X88160714Y-56214285D01*
X88160714Y-56392857D01*
X88125000Y-56500000D01*
X88053571Y-56571428D01*
X87982142Y-56607142D01*
X87839285Y-56642857D01*
X87732142Y-56642857D01*
X87589285Y-56607142D01*
X87517857Y-56571428D01*
X87446428Y-56500000D01*
X87410714Y-56392857D01*
X87410714Y-56214285D01*
X88160714Y-57428571D02*
X88160714Y-57857142D01*
X87410714Y-57642857D02*
X88160714Y-57642857D01*
X87410714Y-58107142D02*
X88160714Y-58107142D01*
X87803571Y-58107142D02*
X87803571Y-58535714D01*
X87410714Y-58535714D02*
X88160714Y-58535714D01*
X87410714Y-58892857D02*
X88160714Y-58892857D01*
X87446428Y-59214285D02*
X87410714Y-59321428D01*
X87410714Y-59500000D01*
X87446428Y-59571428D01*
X87482142Y-59607142D01*
X87553571Y-59642857D01*
X87625000Y-59642857D01*
X87696428Y-59607142D01*
X87732142Y-59571428D01*
X87767857Y-59500000D01*
X87803571Y-59357142D01*
X87839285Y-59285714D01*
X87875000Y-59250000D01*
X87946428Y-59214285D01*
X88017857Y-59214285D01*
X88089285Y-59250000D01*
X88125000Y-59285714D01*
X88160714Y-59357142D01*
X88160714Y-59535714D01*
X88125000Y-59642857D01*
X87446428Y-60500000D02*
X87410714Y-60607142D01*
X87410714Y-60785714D01*
X87446428Y-60857142D01*
X87482142Y-60892857D01*
X87553571Y-60928571D01*
X87625000Y-60928571D01*
X87696428Y-60892857D01*
X87732142Y-60857142D01*
X87767857Y-60785714D01*
X87803571Y-60642857D01*
X87839285Y-60571428D01*
X87875000Y-60535714D01*
X87946428Y-60500000D01*
X88017857Y-60500000D01*
X88089285Y-60535714D01*
X88125000Y-60571428D01*
X88160714Y-60642857D01*
X88160714Y-60821428D01*
X88125000Y-60928571D01*
X87410714Y-61250000D02*
X88160714Y-61250000D01*
X87410714Y-61607142D02*
X88160714Y-61607142D01*
X88160714Y-61785714D01*
X88125000Y-61892857D01*
X88053571Y-61964285D01*
X87982142Y-62000000D01*
X87839285Y-62035714D01*
X87732142Y-62035714D01*
X87589285Y-62000000D01*
X87517857Y-61964285D01*
X87446428Y-61892857D01*
X87410714Y-61785714D01*
X87410714Y-61607142D01*
X87803571Y-62357142D02*
X87803571Y-62607142D01*
X87410714Y-62714285D02*
X87410714Y-62357142D01*
X88160714Y-62357142D01*
X88160714Y-62714285D01*
X88160714Y-63607142D02*
X87553571Y-63607142D01*
X87482142Y-63642857D01*
X87446428Y-63678571D01*
X87410714Y-63750000D01*
X87410714Y-63892857D01*
X87446428Y-63964285D01*
X87482142Y-64000000D01*
X87553571Y-64035714D01*
X88160714Y-64035714D01*
X87410714Y-64392857D02*
X88160714Y-64392857D01*
X88160714Y-64678571D01*
X88125000Y-64750000D01*
X88089285Y-64785714D01*
X88017857Y-64821428D01*
X87910714Y-64821428D01*
X87839285Y-64785714D01*
X87803571Y-64750000D01*
X87767857Y-64678571D01*
X87767857Y-64392857D01*
%TO.C,U1*%
X92502488Y-97326387D02*
X92502488Y-98654312D01*
X92580601Y-98810539D01*
X92658714Y-98888652D01*
X92814941Y-98966765D01*
X93127394Y-98966765D01*
X93283620Y-98888652D01*
X93361733Y-98810539D01*
X93439847Y-98654312D01*
X93439847Y-97326387D01*
X95080225Y-98966765D02*
X94142866Y-98966765D01*
X94611545Y-98966765D02*
X94611545Y-97326387D01*
X94455319Y-97560727D01*
X94299092Y-97716953D01*
X94142866Y-97795067D01*
X99125000Y-94321428D02*
X99125000Y-93964285D01*
X99339285Y-94392857D02*
X98589285Y-94142857D01*
X99339285Y-93892857D01*
X98589285Y-93750000D02*
X98589285Y-93321428D01*
X99339285Y-93535714D02*
X98589285Y-93535714D01*
X98660714Y-93107142D02*
X98625000Y-93071428D01*
X98589285Y-93000000D01*
X98589285Y-92821428D01*
X98625000Y-92750000D01*
X98660714Y-92714285D01*
X98732142Y-92678571D01*
X98803571Y-92678571D01*
X98910714Y-92714285D01*
X99339285Y-93142857D01*
X99339285Y-92678571D01*
X98589285Y-92428571D02*
X98589285Y-91928571D01*
X99339285Y-92250000D01*
X99267857Y-91214285D02*
X99303571Y-91250000D01*
X99339285Y-91357142D01*
X99339285Y-91428571D01*
X99303571Y-91535714D01*
X99232142Y-91607142D01*
X99160714Y-91642857D01*
X99017857Y-91678571D01*
X98910714Y-91678571D01*
X98767857Y-91642857D01*
X98696428Y-91607142D01*
X98625000Y-91535714D01*
X98589285Y-91428571D01*
X98589285Y-91357142D01*
X98625000Y-91250000D01*
X98660714Y-91214285D01*
X98589285Y-90750000D02*
X98589285Y-90678571D01*
X98625000Y-90607142D01*
X98660714Y-90571428D01*
X98732142Y-90535714D01*
X98875000Y-90500000D01*
X99053571Y-90500000D01*
X99196428Y-90535714D01*
X99267857Y-90571428D01*
X99303571Y-90607142D01*
X99339285Y-90678571D01*
X99339285Y-90750000D01*
X99303571Y-90821428D01*
X99267857Y-90857142D01*
X99196428Y-90892857D01*
X99053571Y-90928571D01*
X98875000Y-90928571D01*
X98732142Y-90892857D01*
X98660714Y-90857142D01*
X98625000Y-90821428D01*
X98589285Y-90750000D01*
X98839285Y-89857142D02*
X99339285Y-89857142D01*
X98553571Y-90035714D02*
X99089285Y-90214285D01*
X99089285Y-89750000D01*
X98589285Y-89321428D02*
X98589285Y-89250000D01*
X98625000Y-89178571D01*
X98660714Y-89142857D01*
X98732142Y-89107142D01*
X98875000Y-89071428D01*
X99053571Y-89071428D01*
X99196428Y-89107142D01*
X99267857Y-89142857D01*
X99303571Y-89178571D01*
X99339285Y-89250000D01*
X99339285Y-89321428D01*
X99303571Y-89392857D01*
X99267857Y-89428571D01*
X99196428Y-89464285D01*
X99053571Y-89500000D01*
X98875000Y-89500000D01*
X98732142Y-89464285D01*
X98660714Y-89428571D01*
X98625000Y-89392857D01*
X98589285Y-89321428D01*
X99053571Y-88750000D02*
X99053571Y-88178571D01*
X98589285Y-87892857D02*
X98589285Y-87392857D01*
X99339285Y-87714285D01*
X98589285Y-86964285D02*
X98589285Y-86892857D01*
X98625000Y-86821428D01*
X98660714Y-86785714D01*
X98732142Y-86750000D01*
X98875000Y-86714285D01*
X99053571Y-86714285D01*
X99196428Y-86750000D01*
X99267857Y-86785714D01*
X99303571Y-86821428D01*
X99339285Y-86892857D01*
X99339285Y-86964285D01*
X99303571Y-87035714D01*
X99267857Y-87071428D01*
X99196428Y-87107142D01*
X99053571Y-87142857D01*
X98875000Y-87142857D01*
X98732142Y-87107142D01*
X98660714Y-87071428D01*
X98625000Y-87035714D01*
X98589285Y-86964285D01*
X99339285Y-86392857D02*
X98589285Y-86392857D01*
X98589285Y-86107142D01*
X98625000Y-86035714D01*
X98660714Y-86000000D01*
X98732142Y-85964285D01*
X98839285Y-85964285D01*
X98910714Y-86000000D01*
X98946428Y-86035714D01*
X98982142Y-86107142D01*
X98982142Y-86392857D01*
X98589285Y-85642857D02*
X99196428Y-85642857D01*
X99267857Y-85607142D01*
X99303571Y-85571428D01*
X99339285Y-85500000D01*
X99339285Y-85357142D01*
X99303571Y-85285714D01*
X99267857Y-85250000D01*
X99196428Y-85214285D01*
X98589285Y-85214285D01*
D11*
%TO.C,J1*%
X97080000Y-51595000D02*
X97080000Y-52925000D01*
X95750000Y-51595000D02*
X97080000Y-51595000D01*
D12*
%TO.C,U1*%
X86515000Y-53367200D02*
X86515000Y-54129200D01*
X100485000Y-95632800D02*
X100485000Y-94693000D01*
X100485000Y-54307000D02*
X100485000Y-53367200D01*
X86515000Y-94693000D02*
X86515000Y-95632800D01*
%TD*%
M02*
