M48
; DRILL file {KiCad (6.0.7-1)-1} date Wednesday, January 25, 2023 at 03:48:05 pm
; FORMAT={-:-/ absolute / inch / decimal}
; #@! TF.CreationDate,2023-01-25T15:48:05-08:00
; #@! TF.GenerationSoftware,Kicad,Pcbnew,(6.0.7-1)-1
; #@! TF.FileFunction,Plated,1,2,PTH
FMAT,2
INCH
; #@! TA.AperFunction,Plated,PTH,ViaDrill
T1C0.0157
; #@! TA.AperFunction,Plated,PTH,ComponentDrill
T2C0.0315
; #@! TA.AperFunction,Plated,PTH,ComponentDrill
T3C0.0394
%
G90
G05
T1
X3.5039Y-2.1417
T2
X3.4016Y-2.0551
X3.4016Y-2.1551
X3.4016Y-2.2551
X3.4016Y-2.3551
X3.4016Y-2.4551
X3.4016Y-2.5551
X3.4016Y-2.6551
X3.4016Y-2.7551
X3.4016Y-2.8551
X3.4016Y-2.9551
X3.4016Y-3.0551
X3.4016Y-3.1551
X3.4016Y-3.2551
X3.4016Y-3.3551
X3.4016Y-3.4551
X3.4016Y-3.5551
X4.0016Y-2.0551
X4.0016Y-2.1551
X4.0016Y-2.2551
X4.0016Y-2.3551
X4.0016Y-2.4551
X4.0016Y-2.5551
X4.0016Y-2.6551
X4.0016Y-2.7551
X4.0016Y-2.8551
X4.0016Y-2.9551
X4.0016Y-3.0551
X4.0016Y-3.1551
X4.0016Y-3.2551
X4.0016Y-3.3551
X4.0016Y-3.4551
X4.0016Y-3.5551
T3
X3.6024Y-2.126
X3.6024Y-2.226
X3.6024Y-2.326
X3.6024Y-2.426
X3.6024Y-2.526
X3.6024Y-2.626
X3.6024Y-2.726
X3.6024Y-2.826
X3.6024Y-2.926
X3.6024Y-3.026
X3.6024Y-3.126
X3.6024Y-3.226
X3.6024Y-3.326
X3.6024Y-3.426
X3.6024Y-3.526
X3.6024Y-3.626
X3.6024Y-3.726
X3.6024Y-3.826
X3.7992Y-2.126
X3.7992Y-2.226
X3.7992Y-2.326
X3.7992Y-2.426
X3.7992Y-2.526
X3.7992Y-2.626
X3.7992Y-2.726
X3.7992Y-2.826
X3.7992Y-2.926
X3.7992Y-3.026
X3.7992Y-3.126
X3.7992Y-3.226
X3.7992Y-3.326
X3.7992Y-3.426
X3.7992Y-3.526
X3.7992Y-3.626
X3.7992Y-3.726
X3.7992Y-3.826
T0
M30
