%TF.GenerationSoftware,KiCad,Pcbnew,(6.0.7-1)-1*%
%TF.CreationDate,2023-01-25T15:48:04-08:00*%
%TF.ProjectId,QCard,51436172-642e-46b6-9963-61645f706362,rev?*%
%TF.SameCoordinates,Original*%
%TF.FileFunction,Soldermask,Top*%
%TF.FilePolarity,Negative*%
%FSLAX46Y46*%
G04 Gerber Fmt 4.6, Leading zero omitted, Abs format (unit mm)*
G04 Created by KiCad (PCBNEW (6.0.7-1)-1) date 2023-01-25 15:48:04*
%MOMM*%
%LPD*%
G01*
G04 APERTURE LIST*
%ADD10R,1.700000X1.700000*%
%ADD11O,1.700000X1.700000*%
%ADD12R,1.600000X1.600000*%
%ADD13O,1.600000X1.600000*%
G04 APERTURE END LIST*
D10*
%TO.C,J1*%
X96500000Y-54000000D03*
D11*
X91500000Y-54000000D03*
X96500000Y-56540000D03*
X91500000Y-56540000D03*
X96500000Y-59080000D03*
X91500000Y-59080000D03*
X96500000Y-61620000D03*
X91500000Y-61620000D03*
X96500000Y-64160000D03*
X91500000Y-64160000D03*
X96500000Y-66700000D03*
X91500000Y-66700000D03*
X96500000Y-69240000D03*
X91500000Y-69240000D03*
X96500000Y-71780000D03*
X91500000Y-71780000D03*
X96500000Y-74320000D03*
X91500000Y-74320000D03*
X96500000Y-76860000D03*
X91500000Y-76860000D03*
X96500000Y-79400000D03*
X91500000Y-79400000D03*
X96500000Y-81940000D03*
X91500000Y-81940000D03*
X96500000Y-84480000D03*
X91500000Y-84480000D03*
X96500000Y-87020000D03*
X91500000Y-87020000D03*
X96500000Y-89560000D03*
X91500000Y-89560000D03*
X96500000Y-92100000D03*
X91500000Y-92100000D03*
X96500000Y-94640000D03*
X91500000Y-94640000D03*
X96500000Y-97180000D03*
X91500000Y-97180000D03*
%TD*%
D12*
%TO.C,J2*%
X86400000Y-52200000D03*
D13*
X86400000Y-54740000D03*
X86400000Y-57280000D03*
X86400000Y-59820000D03*
X86400000Y-62360000D03*
X86400000Y-64900000D03*
X86400000Y-67440000D03*
X86400000Y-69980000D03*
X86400000Y-72520000D03*
X86400000Y-75060000D03*
X86400000Y-77600000D03*
X86400000Y-80140000D03*
X86400000Y-82680000D03*
X86400000Y-85220000D03*
X86400000Y-87760000D03*
X86400000Y-90300000D03*
X101640000Y-90300000D03*
X101640000Y-87760000D03*
X101640000Y-85220000D03*
X101640000Y-82680000D03*
X101640000Y-80140000D03*
X101640000Y-77600000D03*
X101640000Y-75060000D03*
X101640000Y-72520000D03*
X101640000Y-69980000D03*
X101640000Y-67440000D03*
X101640000Y-64900000D03*
X101640000Y-62360000D03*
X101640000Y-59820000D03*
X101640000Y-57280000D03*
X101640000Y-54740000D03*
X101640000Y-52200000D03*
%TD*%
M02*
