%TF.GenerationSoftware,KiCad,Pcbnew,(6.0.7-1)-1*%
%TF.CreationDate,2023-01-02T14:41:07-08:00*%
%TF.ProjectId,QCard,51436172-642e-46b6-9963-61645f706362,rev?*%
%TF.SameCoordinates,Original*%
%TF.FileFunction,Copper,L2,Bot*%
%TF.FilePolarity,Positive*%
%FSLAX46Y46*%
G04 Gerber Fmt 4.6, Leading zero omitted, Abs format (unit mm)*
G04 Created by KiCad (PCBNEW (6.0.7-1)-1) date 2023-01-02 14:41:07*
%MOMM*%
%LPD*%
G01*
G04 APERTURE LIST*
%TA.AperFunction,ComponentPad*%
%ADD10R,1.700000X1.700000*%
%TD*%
%TA.AperFunction,ComponentPad*%
%ADD11O,1.700000X1.700000*%
%TD*%
%TA.AperFunction,ComponentPad*%
%ADD12R,1.676400X1.676400*%
%TD*%
%TA.AperFunction,ComponentPad*%
%ADD13C,1.676400*%
%TD*%
G04 APERTURE END LIST*
D10*
%TO.P,J1,1,Pin_1*%
%TO.N,/VCC*%
X95750000Y-52925000D03*
D11*
%TO.P,J1,2,Pin_2*%
%TO.N,/GND*%
X90750000Y-52925000D03*
%TO.P,J1,3,Pin_3*%
%TO.N,/A18*%
X95750000Y-55465000D03*
%TO.P,J1,4,Pin_4*%
%TO.N,/GND*%
X90750000Y-55465000D03*
%TO.P,J1,5,Pin_5*%
%TO.N,/A17*%
X95750000Y-58005000D03*
%TO.P,J1,6,Pin_6*%
%TO.N,/A16*%
X90750000Y-58005000D03*
%TO.P,J1,7,Pin_7*%
%TO.N,/A14*%
X95750000Y-60545000D03*
%TO.P,J1,8,Pin_8*%
%TO.N,/A15*%
X90750000Y-60545000D03*
%TO.P,J1,9,Pin_9*%
%TO.N,/A13*%
X95750000Y-63085000D03*
%TO.P,J1,10,Pin_10*%
%TO.N,/A12*%
X90750000Y-63085000D03*
%TO.P,J1,11,Pin_11*%
%TO.N,/A8*%
X95750000Y-65625000D03*
%TO.P,J1,12,Pin_12*%
%TO.N,/A7*%
X90750000Y-65625000D03*
%TO.P,J1,13,Pin_13*%
%TO.N,/A9*%
X95750000Y-68165000D03*
%TO.P,J1,14,Pin_14*%
%TO.N,/A6*%
X90750000Y-68165000D03*
%TO.P,J1,15,Pin_15*%
%TO.N,/A11*%
X95750000Y-70705000D03*
%TO.P,J1,16,Pin_16*%
%TO.N,/A5*%
X90750000Y-70705000D03*
%TO.P,J1,17,Pin_17*%
%TO.N,/OE*%
X95750000Y-73245000D03*
%TO.P,J1,18,Pin_18*%
%TO.N,/A4*%
X90750000Y-73245000D03*
%TO.P,J1,19,Pin_19*%
%TO.N,/A10*%
X95750000Y-75785000D03*
%TO.P,J1,20,Pin_20*%
%TO.N,/A3*%
X90750000Y-75785000D03*
%TO.P,J1,21,Pin_21*%
%TO.N,/CE*%
X95750000Y-78325000D03*
%TO.P,J1,22,Pin_22*%
%TO.N,/A2*%
X90750000Y-78325000D03*
%TO.P,J1,23,Pin_23*%
%TO.N,/D7*%
X95750000Y-80865000D03*
%TO.P,J1,24,Pin_24*%
%TO.N,/A1*%
X90750000Y-80865000D03*
%TO.P,J1,25,Pin_25*%
%TO.N,/D6*%
X95750000Y-83405000D03*
%TO.P,J1,26,Pin_26*%
%TO.N,/A0*%
X90750000Y-83405000D03*
%TO.P,J1,27,Pin_27*%
%TO.N,/D5*%
X95750000Y-85945000D03*
%TO.P,J1,28,Pin_28*%
%TO.N,/D0*%
X90750000Y-85945000D03*
%TO.P,J1,29,Pin_29*%
%TO.N,/D4*%
X95750000Y-88485000D03*
%TO.P,J1,30,Pin_30*%
%TO.N,/D1*%
X90750000Y-88485000D03*
%TO.P,J1,31,Pin_31*%
%TO.N,/D3*%
X95750000Y-91025000D03*
%TO.P,J1,32,Pin_32*%
%TO.N,/D2*%
X90750000Y-91025000D03*
%TO.P,J1,33,Pin_33*%
%TO.N,/GND*%
X95750000Y-93565000D03*
%TO.P,J1,34,Pin_34*%
X90750000Y-93565000D03*
%TO.P,J1,35,Pin_35*%
X95750000Y-96105000D03*
%TO.P,J1,36,Pin_36*%
%TO.N,unconnected-(J1-Pad36)*%
X90750000Y-96105000D03*
%TD*%
D12*
%TO.P,U1,1,VPP*%
%TO.N,unconnected-(U1-Pad1)*%
X85880000Y-55450000D03*
D13*
%TO.P,U1,2,A16*%
%TO.N,/A16*%
X85880000Y-57990000D03*
%TO.P,U1,3,A15*%
%TO.N,/A15*%
X85880000Y-60530000D03*
%TO.P,U1,4,A12*%
%TO.N,/A12*%
X85880000Y-63070000D03*
%TO.P,U1,5,A7*%
%TO.N,/A7*%
X85880000Y-65610000D03*
%TO.P,U1,6,A6*%
%TO.N,/A6*%
X85880000Y-68150000D03*
%TO.P,U1,7,A5*%
%TO.N,/A5*%
X85880000Y-70690000D03*
%TO.P,U1,8,A4*%
%TO.N,/A4*%
X85880000Y-73230000D03*
%TO.P,U1,9,A3*%
%TO.N,/A3*%
X85880000Y-75770000D03*
%TO.P,U1,10,A2*%
%TO.N,/A2*%
X85880000Y-78310000D03*
%TO.P,U1,11,A1*%
%TO.N,/A1*%
X85880000Y-80850000D03*
%TO.P,U1,12,A0*%
%TO.N,/A0*%
X85880000Y-83390000D03*
%TO.P,U1,13,O0*%
%TO.N,/D0*%
X85880000Y-85930000D03*
%TO.P,U1,14,O1*%
%TO.N,/D1*%
X85880000Y-88470000D03*
%TO.P,U1,15,O2*%
%TO.N,/D2*%
X85880000Y-91010000D03*
%TO.P,U1,16,GND*%
%TO.N,/GND*%
X85880000Y-93550000D03*
%TO.P,U1,17,O3*%
%TO.N,/D3*%
X101120000Y-93550000D03*
%TO.P,U1,18,O4*%
%TO.N,/D4*%
X101120000Y-91010000D03*
%TO.P,U1,19,O5*%
%TO.N,/D5*%
X101120000Y-88470000D03*
%TO.P,U1,20,O6*%
%TO.N,/D6*%
X101120000Y-85930000D03*
%TO.P,U1,21,O7*%
%TO.N,/D7*%
X101120000Y-83390000D03*
%TO.P,U1,22,~CE*%
%TO.N,/CE*%
X101120000Y-80850000D03*
%TO.P,U1,23,A10*%
%TO.N,/A10*%
X101120000Y-78310000D03*
%TO.P,U1,24,~OE*%
%TO.N,/OE*%
X101120000Y-75770000D03*
%TO.P,U1,25,A11*%
%TO.N,/A11*%
X101120000Y-73230000D03*
%TO.P,U1,26,A9*%
%TO.N,/A9*%
X101120000Y-70690000D03*
%TO.P,U1,27,A8*%
%TO.N,/A8*%
X101120000Y-68150000D03*
%TO.P,U1,28,A13*%
%TO.N,/A13*%
X101120000Y-65610000D03*
%TO.P,U1,29,A14*%
%TO.N,/A14*%
X101120000Y-63070000D03*
%TO.P,U1,30,A17*%
%TO.N,/A17*%
X101120000Y-60530000D03*
%TO.P,U1,31,A18*%
%TO.N,/A18*%
X101120000Y-57990000D03*
%TO.P,U1,32,VCC*%
%TO.N,/VCC*%
X101120000Y-55450000D03*
%TD*%
%TA.AperFunction,Conductor*%
%TO.N,/GND*%
G36*
X102433621Y-50528502D02*
G01*
X102480114Y-50582158D01*
X102491500Y-50634500D01*
X102491500Y-54661185D01*
X102471498Y-54729306D01*
X102417842Y-54775799D01*
X102347568Y-54785903D01*
X102282988Y-54756409D01*
X102262287Y-54733455D01*
X102171444Y-54603717D01*
X102155573Y-54581051D01*
X101988949Y-54414427D01*
X101795922Y-54279269D01*
X101790944Y-54276948D01*
X101790941Y-54276946D01*
X101587340Y-54182005D01*
X101587338Y-54182004D01*
X101582358Y-54179682D01*
X101577050Y-54178260D01*
X101577048Y-54178259D01*
X101360060Y-54120118D01*
X101360059Y-54120118D01*
X101354745Y-54118694D01*
X101120000Y-54098156D01*
X100885255Y-54118694D01*
X100879941Y-54120118D01*
X100879940Y-54120118D01*
X100662952Y-54178259D01*
X100662950Y-54178260D01*
X100657642Y-54179682D01*
X100652662Y-54182004D01*
X100652660Y-54182005D01*
X100449059Y-54276946D01*
X100449056Y-54276948D01*
X100444078Y-54279269D01*
X100251051Y-54414427D01*
X100084427Y-54581051D01*
X99949269Y-54774078D01*
X99946948Y-54779056D01*
X99946946Y-54779059D01*
X99927463Y-54820840D01*
X99849682Y-54987642D01*
X99848260Y-54992950D01*
X99848259Y-54992952D01*
X99791033Y-55206525D01*
X99788694Y-55215255D01*
X99768156Y-55450000D01*
X99788694Y-55684745D01*
X99790118Y-55690059D01*
X99790118Y-55690060D01*
X99840282Y-55877275D01*
X99849682Y-55912358D01*
X99852004Y-55917338D01*
X99852005Y-55917340D01*
X99944133Y-56114907D01*
X99949269Y-56125922D01*
X100084427Y-56318949D01*
X100251051Y-56485573D01*
X100284753Y-56509171D01*
X100438445Y-56616787D01*
X100482774Y-56672244D01*
X100490083Y-56742863D01*
X100458053Y-56806224D01*
X100438445Y-56823213D01*
X100383418Y-56861743D01*
X100251051Y-56954427D01*
X100084427Y-57121051D01*
X99949269Y-57314078D01*
X99946948Y-57319056D01*
X99946946Y-57319059D01*
X99929491Y-57356492D01*
X99849682Y-57527642D01*
X99848260Y-57532950D01*
X99848259Y-57532952D01*
X99846559Y-57539297D01*
X99788694Y-57755255D01*
X99768156Y-57990000D01*
X99788694Y-58224745D01*
X99790118Y-58230059D01*
X99790118Y-58230060D01*
X99808329Y-58298023D01*
X99849682Y-58452358D01*
X99852004Y-58457338D01*
X99852005Y-58457340D01*
X99944133Y-58654907D01*
X99949269Y-58665922D01*
X100084427Y-58858949D01*
X100251051Y-59025573D01*
X100255563Y-59028732D01*
X100438445Y-59156787D01*
X100482774Y-59212244D01*
X100490083Y-59282863D01*
X100458053Y-59346224D01*
X100438445Y-59363213D01*
X100375762Y-59407104D01*
X100251051Y-59494427D01*
X100084427Y-59661051D01*
X99949269Y-59854078D01*
X99946948Y-59859056D01*
X99946946Y-59859059D01*
X99929491Y-59896492D01*
X99849682Y-60067642D01*
X99848260Y-60072950D01*
X99848259Y-60072952D01*
X99846559Y-60079297D01*
X99788694Y-60295255D01*
X99768156Y-60530000D01*
X99788694Y-60764745D01*
X99790118Y-60770059D01*
X99790118Y-60770060D01*
X99808329Y-60838023D01*
X99849682Y-60992358D01*
X99852004Y-60997338D01*
X99852005Y-60997340D01*
X99944133Y-61194907D01*
X99949269Y-61205922D01*
X100084427Y-61398949D01*
X100251051Y-61565573D01*
X100255563Y-61568732D01*
X100438445Y-61696787D01*
X100482774Y-61752244D01*
X100490083Y-61822863D01*
X100458053Y-61886224D01*
X100438445Y-61903213D01*
X100375762Y-61947104D01*
X100251051Y-62034427D01*
X100084427Y-62201051D01*
X99949269Y-62394078D01*
X99946948Y-62399056D01*
X99946946Y-62399059D01*
X99929491Y-62436492D01*
X99849682Y-62607642D01*
X99848260Y-62612950D01*
X99848259Y-62612952D01*
X99846559Y-62619297D01*
X99788694Y-62835255D01*
X99768156Y-63070000D01*
X99788694Y-63304745D01*
X99790118Y-63310059D01*
X99790118Y-63310060D01*
X99808329Y-63378023D01*
X99849682Y-63532358D01*
X99852004Y-63537338D01*
X99852005Y-63537340D01*
X99944133Y-63734907D01*
X99949269Y-63745922D01*
X100084427Y-63938949D01*
X100251051Y-64105573D01*
X100255563Y-64108732D01*
X100438445Y-64236787D01*
X100482774Y-64292244D01*
X100490083Y-64362863D01*
X100458053Y-64426224D01*
X100438445Y-64443213D01*
X100375762Y-64487104D01*
X100251051Y-64574427D01*
X100084427Y-64741051D01*
X99949269Y-64934078D01*
X99946948Y-64939056D01*
X99946946Y-64939059D01*
X99929491Y-64976492D01*
X99849682Y-65147642D01*
X99848260Y-65152950D01*
X99848259Y-65152952D01*
X99846559Y-65159297D01*
X99788694Y-65375255D01*
X99768156Y-65610000D01*
X99788694Y-65844745D01*
X99790118Y-65850059D01*
X99790118Y-65850060D01*
X99808329Y-65918023D01*
X99849682Y-66072358D01*
X99852004Y-66077338D01*
X99852005Y-66077340D01*
X99944133Y-66274907D01*
X99949269Y-66285922D01*
X100084427Y-66478949D01*
X100251051Y-66645573D01*
X100255563Y-66648732D01*
X100438445Y-66776787D01*
X100482774Y-66832244D01*
X100490083Y-66902863D01*
X100458053Y-66966224D01*
X100438445Y-66983213D01*
X100375762Y-67027104D01*
X100251051Y-67114427D01*
X100084427Y-67281051D01*
X99949269Y-67474078D01*
X99946948Y-67479056D01*
X99946946Y-67479059D01*
X99929491Y-67516492D01*
X99849682Y-67687642D01*
X99848260Y-67692950D01*
X99848259Y-67692952D01*
X99846559Y-67699297D01*
X99788694Y-67915255D01*
X99768156Y-68150000D01*
X99788694Y-68384745D01*
X99790118Y-68390059D01*
X99790118Y-68390060D01*
X99808329Y-68458023D01*
X99849682Y-68612358D01*
X99852004Y-68617338D01*
X99852005Y-68617340D01*
X99944133Y-68814907D01*
X99949269Y-68825922D01*
X100084427Y-69018949D01*
X100251051Y-69185573D01*
X100255563Y-69188732D01*
X100438445Y-69316787D01*
X100482774Y-69372244D01*
X100490083Y-69442863D01*
X100458053Y-69506224D01*
X100438445Y-69523213D01*
X100375762Y-69567104D01*
X100251051Y-69654427D01*
X100084427Y-69821051D01*
X99949269Y-70014078D01*
X99946948Y-70019056D01*
X99946946Y-70019059D01*
X99929491Y-70056492D01*
X99849682Y-70227642D01*
X99848260Y-70232950D01*
X99848259Y-70232952D01*
X99846559Y-70239297D01*
X99788694Y-70455255D01*
X99768156Y-70690000D01*
X99788694Y-70924745D01*
X99790118Y-70930059D01*
X99790118Y-70930060D01*
X99808329Y-70998023D01*
X99849682Y-71152358D01*
X99852004Y-71157338D01*
X99852005Y-71157340D01*
X99944133Y-71354907D01*
X99949269Y-71365922D01*
X100084427Y-71558949D01*
X100251051Y-71725573D01*
X100255563Y-71728732D01*
X100438445Y-71856787D01*
X100482774Y-71912244D01*
X100490083Y-71982863D01*
X100458053Y-72046224D01*
X100438445Y-72063213D01*
X100375762Y-72107104D01*
X100251051Y-72194427D01*
X100084427Y-72361051D01*
X99949269Y-72554078D01*
X99946948Y-72559056D01*
X99946946Y-72559059D01*
X99929491Y-72596492D01*
X99849682Y-72767642D01*
X99848260Y-72772950D01*
X99848259Y-72772952D01*
X99846559Y-72779297D01*
X99788694Y-72995255D01*
X99768156Y-73230000D01*
X99788694Y-73464745D01*
X99790118Y-73470059D01*
X99790118Y-73470060D01*
X99808329Y-73538023D01*
X99849682Y-73692358D01*
X99852004Y-73697338D01*
X99852005Y-73697340D01*
X99944133Y-73894907D01*
X99949269Y-73905922D01*
X100084427Y-74098949D01*
X100251051Y-74265573D01*
X100255563Y-74268732D01*
X100438445Y-74396787D01*
X100482774Y-74452244D01*
X100490083Y-74522863D01*
X100458053Y-74586224D01*
X100438445Y-74603213D01*
X100375762Y-74647104D01*
X100251051Y-74734427D01*
X100084427Y-74901051D01*
X99949269Y-75094078D01*
X99946948Y-75099056D01*
X99946946Y-75099059D01*
X99929491Y-75136492D01*
X99849682Y-75307642D01*
X99848260Y-75312950D01*
X99848259Y-75312952D01*
X99846559Y-75319297D01*
X99788694Y-75535255D01*
X99768156Y-75770000D01*
X99788694Y-76004745D01*
X99790118Y-76010059D01*
X99790118Y-76010060D01*
X99808329Y-76078023D01*
X99849682Y-76232358D01*
X99852004Y-76237338D01*
X99852005Y-76237340D01*
X99944133Y-76434907D01*
X99949269Y-76445922D01*
X100084427Y-76638949D01*
X100251051Y-76805573D01*
X100255563Y-76808732D01*
X100438445Y-76936787D01*
X100482774Y-76992244D01*
X100490083Y-77062863D01*
X100458053Y-77126224D01*
X100438445Y-77143213D01*
X100375762Y-77187104D01*
X100251051Y-77274427D01*
X100084427Y-77441051D01*
X99949269Y-77634078D01*
X99946948Y-77639056D01*
X99946946Y-77639059D01*
X99929491Y-77676492D01*
X99849682Y-77847642D01*
X99848260Y-77852950D01*
X99848259Y-77852952D01*
X99846559Y-77859297D01*
X99788694Y-78075255D01*
X99768156Y-78310000D01*
X99788694Y-78544745D01*
X99790118Y-78550059D01*
X99790118Y-78550060D01*
X99808329Y-78618023D01*
X99849682Y-78772358D01*
X99852004Y-78777338D01*
X99852005Y-78777340D01*
X99944133Y-78974907D01*
X99949269Y-78985922D01*
X100084427Y-79178949D01*
X100251051Y-79345573D01*
X100255563Y-79348732D01*
X100438445Y-79476787D01*
X100482774Y-79532244D01*
X100490083Y-79602863D01*
X100458053Y-79666224D01*
X100438445Y-79683213D01*
X100375762Y-79727104D01*
X100251051Y-79814427D01*
X100084427Y-79981051D01*
X99949269Y-80174078D01*
X99946948Y-80179056D01*
X99946946Y-80179059D01*
X99929491Y-80216492D01*
X99849682Y-80387642D01*
X99848260Y-80392950D01*
X99848259Y-80392952D01*
X99846559Y-80399297D01*
X99788694Y-80615255D01*
X99768156Y-80850000D01*
X99788694Y-81084745D01*
X99790118Y-81090059D01*
X99790118Y-81090060D01*
X99808329Y-81158023D01*
X99849682Y-81312358D01*
X99852004Y-81317338D01*
X99852005Y-81317340D01*
X99944133Y-81514907D01*
X99949269Y-81525922D01*
X100084427Y-81718949D01*
X100251051Y-81885573D01*
X100255563Y-81888732D01*
X100438445Y-82016787D01*
X100482774Y-82072244D01*
X100490083Y-82142863D01*
X100458053Y-82206224D01*
X100438445Y-82223213D01*
X100375762Y-82267104D01*
X100251051Y-82354427D01*
X100084427Y-82521051D01*
X99949269Y-82714078D01*
X99946948Y-82719056D01*
X99946946Y-82719059D01*
X99929491Y-82756492D01*
X99849682Y-82927642D01*
X99848260Y-82932950D01*
X99848259Y-82932952D01*
X99846559Y-82939297D01*
X99788694Y-83155255D01*
X99768156Y-83390000D01*
X99788694Y-83624745D01*
X99790118Y-83630059D01*
X99790118Y-83630060D01*
X99808329Y-83698023D01*
X99849682Y-83852358D01*
X99852004Y-83857338D01*
X99852005Y-83857340D01*
X99944133Y-84054907D01*
X99949269Y-84065922D01*
X100084427Y-84258949D01*
X100251051Y-84425573D01*
X100255563Y-84428732D01*
X100438445Y-84556787D01*
X100482774Y-84612244D01*
X100490083Y-84682863D01*
X100458053Y-84746224D01*
X100438445Y-84763213D01*
X100375762Y-84807104D01*
X100251051Y-84894427D01*
X100084427Y-85061051D01*
X99949269Y-85254078D01*
X99946948Y-85259056D01*
X99946946Y-85259059D01*
X99929491Y-85296492D01*
X99849682Y-85467642D01*
X99848260Y-85472950D01*
X99848259Y-85472952D01*
X99846559Y-85479297D01*
X99788694Y-85695255D01*
X99768156Y-85930000D01*
X99788694Y-86164745D01*
X99790118Y-86170059D01*
X99790118Y-86170060D01*
X99808329Y-86238023D01*
X99849682Y-86392358D01*
X99852004Y-86397338D01*
X99852005Y-86397340D01*
X99944133Y-86594907D01*
X99949269Y-86605922D01*
X100084427Y-86798949D01*
X100251051Y-86965573D01*
X100255563Y-86968732D01*
X100438445Y-87096787D01*
X100482774Y-87152244D01*
X100490083Y-87222863D01*
X100458053Y-87286224D01*
X100438445Y-87303213D01*
X100375762Y-87347104D01*
X100251051Y-87434427D01*
X100084427Y-87601051D01*
X99949269Y-87794078D01*
X99946948Y-87799056D01*
X99946946Y-87799059D01*
X99929491Y-87836492D01*
X99849682Y-88007642D01*
X99848260Y-88012950D01*
X99848259Y-88012952D01*
X99846559Y-88019297D01*
X99788694Y-88235255D01*
X99768156Y-88470000D01*
X99788694Y-88704745D01*
X99790118Y-88710059D01*
X99790118Y-88710060D01*
X99808329Y-88778023D01*
X99849682Y-88932358D01*
X99852004Y-88937338D01*
X99852005Y-88937340D01*
X99944133Y-89134907D01*
X99949269Y-89145922D01*
X100084427Y-89338949D01*
X100251051Y-89505573D01*
X100255563Y-89508732D01*
X100438445Y-89636787D01*
X100482774Y-89692244D01*
X100490083Y-89762863D01*
X100458053Y-89826224D01*
X100438445Y-89843213D01*
X100375762Y-89887104D01*
X100251051Y-89974427D01*
X100084427Y-90141051D01*
X99949269Y-90334078D01*
X99946948Y-90339056D01*
X99946946Y-90339059D01*
X99929491Y-90376492D01*
X99849682Y-90547642D01*
X99848260Y-90552950D01*
X99848259Y-90552952D01*
X99846559Y-90559297D01*
X99788694Y-90775255D01*
X99768156Y-91010000D01*
X99788694Y-91244745D01*
X99790118Y-91250059D01*
X99790118Y-91250060D01*
X99808329Y-91318023D01*
X99849682Y-91472358D01*
X99852004Y-91477338D01*
X99852005Y-91477340D01*
X99944133Y-91674907D01*
X99949269Y-91685922D01*
X100084427Y-91878949D01*
X100251051Y-92045573D01*
X100255563Y-92048732D01*
X100438445Y-92176787D01*
X100482774Y-92232244D01*
X100490083Y-92302863D01*
X100458053Y-92366224D01*
X100438445Y-92383213D01*
X100392997Y-92415036D01*
X100251051Y-92514427D01*
X100084427Y-92681051D01*
X99949269Y-92874078D01*
X99946948Y-92879056D01*
X99946946Y-92879059D01*
X99925144Y-92925814D01*
X99849682Y-93087642D01*
X99848260Y-93092950D01*
X99848259Y-93092952D01*
X99793000Y-93299183D01*
X99788694Y-93315255D01*
X99768156Y-93550000D01*
X99788694Y-93784745D01*
X99790118Y-93790059D01*
X99790118Y-93790060D01*
X99840282Y-93977275D01*
X99849682Y-94012358D01*
X99852004Y-94017338D01*
X99852005Y-94017340D01*
X99944133Y-94214907D01*
X99949269Y-94225922D01*
X100084427Y-94418949D01*
X100251051Y-94585573D01*
X100444078Y-94720731D01*
X100449056Y-94723052D01*
X100449059Y-94723054D01*
X100651648Y-94817523D01*
X100657642Y-94820318D01*
X100662950Y-94821740D01*
X100662952Y-94821741D01*
X100879940Y-94879882D01*
X100885255Y-94881306D01*
X101120000Y-94901844D01*
X101354745Y-94881306D01*
X101360060Y-94879882D01*
X101577048Y-94821741D01*
X101577050Y-94821740D01*
X101582358Y-94820318D01*
X101588352Y-94817523D01*
X101790941Y-94723054D01*
X101790944Y-94723052D01*
X101795922Y-94720731D01*
X101988949Y-94585573D01*
X102155573Y-94418949D01*
X102212293Y-94337944D01*
X102262287Y-94266545D01*
X102317744Y-94222216D01*
X102388363Y-94214907D01*
X102451724Y-94246937D01*
X102487709Y-94308139D01*
X102491500Y-94338815D01*
X102491500Y-98865500D01*
X102471498Y-98933621D01*
X102417842Y-98980114D01*
X102365500Y-98991500D01*
X84634500Y-98991500D01*
X84566379Y-98971498D01*
X84519886Y-98917842D01*
X84508500Y-98865500D01*
X84508500Y-96071695D01*
X89387251Y-96071695D01*
X89387548Y-96076848D01*
X89387548Y-96076851D01*
X89393011Y-96171590D01*
X89400110Y-96294715D01*
X89401247Y-96299761D01*
X89401248Y-96299767D01*
X89415449Y-96362778D01*
X89449222Y-96512639D01*
X89533266Y-96719616D01*
X89649987Y-96910088D01*
X89796250Y-97078938D01*
X89968126Y-97221632D01*
X90161000Y-97334338D01*
X90369692Y-97414030D01*
X90374760Y-97415061D01*
X90374763Y-97415062D01*
X90469862Y-97434410D01*
X90588597Y-97458567D01*
X90593772Y-97458757D01*
X90593774Y-97458757D01*
X90806673Y-97466564D01*
X90806677Y-97466564D01*
X90811837Y-97466753D01*
X90816957Y-97466097D01*
X90816959Y-97466097D01*
X91028288Y-97439025D01*
X91028289Y-97439025D01*
X91033416Y-97438368D01*
X91038366Y-97436883D01*
X91242429Y-97375661D01*
X91242434Y-97375659D01*
X91247384Y-97374174D01*
X91447994Y-97275896D01*
X91629860Y-97146173D01*
X91788096Y-96988489D01*
X91847594Y-96905689D01*
X91915435Y-96811277D01*
X91918453Y-96807077D01*
X92017430Y-96606811D01*
X92082370Y-96393069D01*
X92085017Y-96372966D01*
X94418257Y-96372966D01*
X94448565Y-96507446D01*
X94451645Y-96517275D01*
X94531770Y-96714603D01*
X94536413Y-96723794D01*
X94647694Y-96905388D01*
X94653777Y-96913699D01*
X94793213Y-97074667D01*
X94800580Y-97081883D01*
X94964434Y-97217916D01*
X94972881Y-97223831D01*
X95156756Y-97331279D01*
X95166042Y-97335729D01*
X95365001Y-97411703D01*
X95374899Y-97414579D01*
X95478250Y-97435606D01*
X95492299Y-97434410D01*
X95496000Y-97424065D01*
X95496000Y-97423517D01*
X96004000Y-97423517D01*
X96008064Y-97437359D01*
X96021478Y-97439393D01*
X96028184Y-97438534D01*
X96038262Y-97436392D01*
X96242255Y-97375191D01*
X96251842Y-97371433D01*
X96443095Y-97277739D01*
X96451945Y-97272464D01*
X96625328Y-97148792D01*
X96633200Y-97142139D01*
X96784052Y-96991812D01*
X96790730Y-96983965D01*
X96915003Y-96811020D01*
X96920313Y-96802183D01*
X97014670Y-96611267D01*
X97018469Y-96601672D01*
X97080377Y-96397910D01*
X97082555Y-96387837D01*
X97083986Y-96376962D01*
X97081775Y-96362778D01*
X97068617Y-96359000D01*
X96022115Y-96359000D01*
X96006876Y-96363475D01*
X96005671Y-96364865D01*
X96004000Y-96372548D01*
X96004000Y-97423517D01*
X95496000Y-97423517D01*
X95496000Y-96377115D01*
X95491525Y-96361876D01*
X95490135Y-96360671D01*
X95482452Y-96359000D01*
X94433225Y-96359000D01*
X94419694Y-96362973D01*
X94418257Y-96372966D01*
X92085017Y-96372966D01*
X92111529Y-96171590D01*
X92113156Y-96105000D01*
X92094852Y-95882361D01*
X92084006Y-95839183D01*
X94414389Y-95839183D01*
X94415912Y-95847607D01*
X94428292Y-95851000D01*
X95477885Y-95851000D01*
X95493124Y-95846525D01*
X95494329Y-95845135D01*
X95496000Y-95837452D01*
X95496000Y-95832885D01*
X96004000Y-95832885D01*
X96008475Y-95848124D01*
X96009865Y-95849329D01*
X96017548Y-95851000D01*
X97068344Y-95851000D01*
X97081875Y-95847027D01*
X97083180Y-95837947D01*
X97041214Y-95670875D01*
X97037894Y-95661124D01*
X96952972Y-95465814D01*
X96948105Y-95456739D01*
X96832426Y-95277926D01*
X96826136Y-95269757D01*
X96682806Y-95112240D01*
X96675273Y-95105215D01*
X96508139Y-94973222D01*
X96499552Y-94967517D01*
X96462116Y-94946851D01*
X96412146Y-94896419D01*
X96397374Y-94826976D01*
X96422490Y-94760571D01*
X96449842Y-94733964D01*
X96625327Y-94608792D01*
X96633200Y-94602139D01*
X96784052Y-94451812D01*
X96790730Y-94443965D01*
X96915003Y-94271020D01*
X96920313Y-94262183D01*
X97014670Y-94071267D01*
X97018469Y-94061672D01*
X97080377Y-93857910D01*
X97082555Y-93847837D01*
X97083986Y-93836962D01*
X97081775Y-93822778D01*
X97068617Y-93819000D01*
X96022115Y-93819000D01*
X96006876Y-93823475D01*
X96005671Y-93824865D01*
X96004000Y-93832548D01*
X96004000Y-95832885D01*
X95496000Y-95832885D01*
X95496000Y-93837115D01*
X95491525Y-93821876D01*
X95490135Y-93820671D01*
X95482452Y-93819000D01*
X94433225Y-93819000D01*
X94419694Y-93822973D01*
X94418257Y-93832966D01*
X94448565Y-93967446D01*
X94451645Y-93977275D01*
X94531770Y-94174603D01*
X94536413Y-94183794D01*
X94647694Y-94365388D01*
X94653777Y-94373699D01*
X94793213Y-94534667D01*
X94800580Y-94541883D01*
X94964434Y-94677916D01*
X94972881Y-94683831D01*
X95042479Y-94724501D01*
X95091203Y-94776140D01*
X95104274Y-94845923D01*
X95077543Y-94911694D01*
X95037087Y-94945053D01*
X95028462Y-94949542D01*
X95019738Y-94955036D01*
X94849433Y-95082905D01*
X94841726Y-95089748D01*
X94694590Y-95243717D01*
X94688104Y-95251727D01*
X94568098Y-95427649D01*
X94563000Y-95436623D01*
X94473338Y-95629783D01*
X94469775Y-95639470D01*
X94414389Y-95839183D01*
X92084006Y-95839183D01*
X92040431Y-95665702D01*
X91951354Y-95460840D01*
X91830014Y-95273277D01*
X91679670Y-95108051D01*
X91675619Y-95104852D01*
X91675615Y-95104848D01*
X91508414Y-94972800D01*
X91508410Y-94972798D01*
X91504359Y-94969598D01*
X91462569Y-94946529D01*
X91412598Y-94896097D01*
X91397826Y-94826654D01*
X91422942Y-94760248D01*
X91450294Y-94733641D01*
X91625328Y-94608792D01*
X91633200Y-94602139D01*
X91784052Y-94451812D01*
X91790730Y-94443965D01*
X91915003Y-94271020D01*
X91920313Y-94262183D01*
X92014670Y-94071267D01*
X92018469Y-94061672D01*
X92080377Y-93857910D01*
X92082555Y-93847837D01*
X92083986Y-93836962D01*
X92081775Y-93822778D01*
X92068617Y-93819000D01*
X89433225Y-93819000D01*
X89419694Y-93822973D01*
X89418257Y-93832966D01*
X89448565Y-93967446D01*
X89451645Y-93977275D01*
X89531770Y-94174603D01*
X89536413Y-94183794D01*
X89647694Y-94365388D01*
X89653777Y-94373699D01*
X89793213Y-94534667D01*
X89800580Y-94541883D01*
X89964434Y-94677916D01*
X89972881Y-94683831D01*
X90041969Y-94724203D01*
X90090693Y-94775842D01*
X90103764Y-94845625D01*
X90077033Y-94911396D01*
X90036584Y-94944752D01*
X90023607Y-94951507D01*
X90019474Y-94954610D01*
X90019471Y-94954612D01*
X89995247Y-94972800D01*
X89844965Y-95085635D01*
X89690629Y-95247138D01*
X89687715Y-95251410D01*
X89687714Y-95251411D01*
X89675404Y-95269457D01*
X89564743Y-95431680D01*
X89470688Y-95634305D01*
X89410989Y-95849570D01*
X89387251Y-96071695D01*
X84508500Y-96071695D01*
X84508500Y-94663490D01*
X85131064Y-94663490D01*
X85140358Y-94675504D01*
X85199821Y-94717140D01*
X85209316Y-94722623D01*
X85412832Y-94817523D01*
X85423124Y-94821269D01*
X85640027Y-94879388D01*
X85650822Y-94881291D01*
X85874525Y-94900863D01*
X85885475Y-94900863D01*
X86109178Y-94881291D01*
X86119973Y-94879388D01*
X86336876Y-94821269D01*
X86347168Y-94817523D01*
X86550684Y-94722623D01*
X86560179Y-94717140D01*
X86620477Y-94674919D01*
X86628852Y-94664442D01*
X86621785Y-94650996D01*
X85892811Y-93922021D01*
X85878868Y-93914408D01*
X85877034Y-93914539D01*
X85870420Y-93918790D01*
X85137491Y-94651720D01*
X85131064Y-94663490D01*
X84508500Y-94663490D01*
X84508500Y-94337944D01*
X84528502Y-94269823D01*
X84582158Y-94223330D01*
X84652432Y-94213226D01*
X84717012Y-94242720D01*
X84737713Y-94265673D01*
X84755081Y-94290477D01*
X84765558Y-94298852D01*
X84779004Y-94291785D01*
X85507979Y-93562811D01*
X85514356Y-93551132D01*
X86244408Y-93551132D01*
X86244539Y-93552966D01*
X86248790Y-93559580D01*
X86981720Y-94292509D01*
X86993490Y-94298936D01*
X87005504Y-94289642D01*
X87047140Y-94230179D01*
X87052623Y-94220684D01*
X87147523Y-94017168D01*
X87151269Y-94006876D01*
X87209388Y-93789973D01*
X87211291Y-93779178D01*
X87230863Y-93555475D01*
X87230863Y-93544525D01*
X87211291Y-93320822D01*
X87209388Y-93310027D01*
X87151269Y-93093124D01*
X87147523Y-93082832D01*
X87052623Y-92879316D01*
X87047140Y-92869821D01*
X87004919Y-92809523D01*
X86994442Y-92801148D01*
X86980996Y-92808215D01*
X86252021Y-93537189D01*
X86244408Y-93551132D01*
X85514356Y-93551132D01*
X85515592Y-93548868D01*
X85515461Y-93547034D01*
X85511210Y-93540420D01*
X84778280Y-92807491D01*
X84766510Y-92801064D01*
X84754496Y-92810358D01*
X84737713Y-92834327D01*
X84682256Y-92878655D01*
X84611637Y-92885964D01*
X84548276Y-92853933D01*
X84512291Y-92792732D01*
X84508500Y-92762056D01*
X84508500Y-91798815D01*
X84528502Y-91730694D01*
X84582158Y-91684201D01*
X84652432Y-91674097D01*
X84717012Y-91703591D01*
X84737713Y-91726545D01*
X84788317Y-91798815D01*
X84844427Y-91878949D01*
X85011051Y-92045573D01*
X85151966Y-92144242D01*
X85198881Y-92177092D01*
X85243209Y-92232549D01*
X85250518Y-92303168D01*
X85218488Y-92366529D01*
X85198881Y-92383518D01*
X85139523Y-92425081D01*
X85131148Y-92435558D01*
X85138215Y-92449004D01*
X85867189Y-93177979D01*
X85881132Y-93185592D01*
X85882966Y-93185461D01*
X85889580Y-93181210D01*
X86622509Y-92448280D01*
X86628936Y-92436510D01*
X86619642Y-92424496D01*
X86561119Y-92383518D01*
X86516791Y-92328061D01*
X86509482Y-92257442D01*
X86541513Y-92194081D01*
X86561119Y-92177092D01*
X86608034Y-92144242D01*
X86748949Y-92045573D01*
X86915573Y-91878949D01*
X87050731Y-91685922D01*
X87055868Y-91674907D01*
X87147995Y-91477340D01*
X87147996Y-91477338D01*
X87150318Y-91472358D01*
X87191672Y-91318023D01*
X87209882Y-91250060D01*
X87209882Y-91250059D01*
X87211306Y-91244745D01*
X87231844Y-91010000D01*
X87230242Y-90991695D01*
X89387251Y-90991695D01*
X89387548Y-90996848D01*
X89387548Y-90996851D01*
X89393011Y-91091590D01*
X89400110Y-91214715D01*
X89401247Y-91219761D01*
X89401248Y-91219767D01*
X89408075Y-91250060D01*
X89449222Y-91432639D01*
X89533266Y-91639616D01*
X89649987Y-91830088D01*
X89796250Y-91998938D01*
X89968126Y-92141632D01*
X90028287Y-92176787D01*
X90041955Y-92184774D01*
X90090679Y-92236412D01*
X90103750Y-92306195D01*
X90077019Y-92371967D01*
X90036562Y-92405327D01*
X90028457Y-92409546D01*
X90019738Y-92415036D01*
X89849433Y-92542905D01*
X89841726Y-92549748D01*
X89694590Y-92703717D01*
X89688104Y-92711727D01*
X89568098Y-92887649D01*
X89563000Y-92896623D01*
X89473338Y-93089783D01*
X89469775Y-93099470D01*
X89414389Y-93299183D01*
X89415912Y-93307607D01*
X89428292Y-93311000D01*
X92068344Y-93311000D01*
X92081875Y-93307027D01*
X92083180Y-93297947D01*
X92041214Y-93130875D01*
X92037894Y-93121124D01*
X91952972Y-92925814D01*
X91948105Y-92916739D01*
X91832426Y-92737926D01*
X91826136Y-92729757D01*
X91682806Y-92572240D01*
X91675273Y-92565215D01*
X91508139Y-92433222D01*
X91499556Y-92427520D01*
X91462602Y-92407120D01*
X91412631Y-92356687D01*
X91397859Y-92287245D01*
X91422975Y-92220839D01*
X91450327Y-92194232D01*
X91474784Y-92176787D01*
X91629860Y-92066173D01*
X91788096Y-91908489D01*
X91847594Y-91825689D01*
X91915435Y-91731277D01*
X91918453Y-91727077D01*
X91930061Y-91703591D01*
X92015136Y-91531453D01*
X92015137Y-91531451D01*
X92017430Y-91526811D01*
X92082370Y-91313069D01*
X92111529Y-91091590D01*
X92113156Y-91025000D01*
X92110418Y-90991695D01*
X94387251Y-90991695D01*
X94387548Y-90996848D01*
X94387548Y-90996851D01*
X94393011Y-91091590D01*
X94400110Y-91214715D01*
X94401247Y-91219761D01*
X94401248Y-91219767D01*
X94408075Y-91250060D01*
X94449222Y-91432639D01*
X94533266Y-91639616D01*
X94649987Y-91830088D01*
X94796250Y-91998938D01*
X94968126Y-92141632D01*
X95028287Y-92176787D01*
X95041955Y-92184774D01*
X95090679Y-92236412D01*
X95103750Y-92306195D01*
X95077019Y-92371967D01*
X95036562Y-92405327D01*
X95028457Y-92409546D01*
X95019738Y-92415036D01*
X94849433Y-92542905D01*
X94841726Y-92549748D01*
X94694590Y-92703717D01*
X94688104Y-92711727D01*
X94568098Y-92887649D01*
X94563000Y-92896623D01*
X94473338Y-93089783D01*
X94469775Y-93099470D01*
X94414389Y-93299183D01*
X94415912Y-93307607D01*
X94428292Y-93311000D01*
X97068344Y-93311000D01*
X97081875Y-93307027D01*
X97083180Y-93297947D01*
X97041214Y-93130875D01*
X97037894Y-93121124D01*
X96952972Y-92925814D01*
X96948105Y-92916739D01*
X96832426Y-92737926D01*
X96826136Y-92729757D01*
X96682806Y-92572240D01*
X96675273Y-92565215D01*
X96508139Y-92433222D01*
X96499556Y-92427520D01*
X96462602Y-92407120D01*
X96412631Y-92356687D01*
X96397859Y-92287245D01*
X96422975Y-92220839D01*
X96450327Y-92194232D01*
X96474784Y-92176787D01*
X96629860Y-92066173D01*
X96788096Y-91908489D01*
X96847594Y-91825689D01*
X96915435Y-91731277D01*
X96918453Y-91727077D01*
X96930061Y-91703591D01*
X97015136Y-91531453D01*
X97015137Y-91531451D01*
X97017430Y-91526811D01*
X97082370Y-91313069D01*
X97111529Y-91091590D01*
X97113156Y-91025000D01*
X97094852Y-90802361D01*
X97040431Y-90585702D01*
X96951354Y-90380840D01*
X96830014Y-90193277D01*
X96679670Y-90028051D01*
X96675619Y-90024852D01*
X96675615Y-90024848D01*
X96508414Y-89892800D01*
X96508410Y-89892798D01*
X96504359Y-89889598D01*
X96463053Y-89866796D01*
X96413084Y-89816364D01*
X96398312Y-89746921D01*
X96423428Y-89680516D01*
X96450780Y-89653909D01*
X96494603Y-89622650D01*
X96629860Y-89526173D01*
X96788096Y-89368489D01*
X96847594Y-89285689D01*
X96915435Y-89191277D01*
X96918453Y-89187077D01*
X96930061Y-89163591D01*
X97015136Y-88991453D01*
X97015137Y-88991451D01*
X97017430Y-88986811D01*
X97082370Y-88773069D01*
X97111529Y-88551590D01*
X97113156Y-88485000D01*
X97094852Y-88262361D01*
X97040431Y-88045702D01*
X96951354Y-87840840D01*
X96830014Y-87653277D01*
X96679670Y-87488051D01*
X96675619Y-87484852D01*
X96675615Y-87484848D01*
X96508414Y-87352800D01*
X96508410Y-87352798D01*
X96504359Y-87349598D01*
X96463053Y-87326796D01*
X96413084Y-87276364D01*
X96398312Y-87206921D01*
X96423428Y-87140516D01*
X96450780Y-87113909D01*
X96494603Y-87082650D01*
X96629860Y-86986173D01*
X96788096Y-86828489D01*
X96847594Y-86745689D01*
X96915435Y-86651277D01*
X96918453Y-86647077D01*
X96930061Y-86623591D01*
X97015136Y-86451453D01*
X97015137Y-86451451D01*
X97017430Y-86446811D01*
X97082370Y-86233069D01*
X97111529Y-86011590D01*
X97113156Y-85945000D01*
X97094852Y-85722361D01*
X97040431Y-85505702D01*
X96951354Y-85300840D01*
X96830014Y-85113277D01*
X96679670Y-84948051D01*
X96675619Y-84944852D01*
X96675615Y-84944848D01*
X96508414Y-84812800D01*
X96508410Y-84812798D01*
X96504359Y-84809598D01*
X96463053Y-84786796D01*
X96413084Y-84736364D01*
X96398312Y-84666921D01*
X96423428Y-84600516D01*
X96450780Y-84573909D01*
X96494603Y-84542650D01*
X96629860Y-84446173D01*
X96788096Y-84288489D01*
X96847594Y-84205689D01*
X96915435Y-84111277D01*
X96918453Y-84107077D01*
X96930061Y-84083591D01*
X97015136Y-83911453D01*
X97015137Y-83911451D01*
X97017430Y-83906811D01*
X97082370Y-83693069D01*
X97111529Y-83471590D01*
X97113156Y-83405000D01*
X97094852Y-83182361D01*
X97040431Y-82965702D01*
X96951354Y-82760840D01*
X96830014Y-82573277D01*
X96679670Y-82408051D01*
X96675619Y-82404852D01*
X96675615Y-82404848D01*
X96508414Y-82272800D01*
X96508410Y-82272798D01*
X96504359Y-82269598D01*
X96463053Y-82246796D01*
X96413084Y-82196364D01*
X96398312Y-82126921D01*
X96423428Y-82060516D01*
X96450780Y-82033909D01*
X96494603Y-82002650D01*
X96629860Y-81906173D01*
X96788096Y-81748489D01*
X96847594Y-81665689D01*
X96915435Y-81571277D01*
X96918453Y-81567077D01*
X96930061Y-81543591D01*
X97015136Y-81371453D01*
X97015137Y-81371451D01*
X97017430Y-81366811D01*
X97082370Y-81153069D01*
X97111529Y-80931590D01*
X97113156Y-80865000D01*
X97094852Y-80642361D01*
X97040431Y-80425702D01*
X96951354Y-80220840D01*
X96830014Y-80033277D01*
X96679670Y-79868051D01*
X96675619Y-79864852D01*
X96675615Y-79864848D01*
X96508414Y-79732800D01*
X96508410Y-79732798D01*
X96504359Y-79729598D01*
X96463053Y-79706796D01*
X96413084Y-79656364D01*
X96398312Y-79586921D01*
X96423428Y-79520516D01*
X96450780Y-79493909D01*
X96494603Y-79462650D01*
X96629860Y-79366173D01*
X96788096Y-79208489D01*
X96847594Y-79125689D01*
X96915435Y-79031277D01*
X96918453Y-79027077D01*
X96930061Y-79003591D01*
X97015136Y-78831453D01*
X97015137Y-78831451D01*
X97017430Y-78826811D01*
X97082370Y-78613069D01*
X97111529Y-78391590D01*
X97113156Y-78325000D01*
X97094852Y-78102361D01*
X97040431Y-77885702D01*
X96951354Y-77680840D01*
X96830014Y-77493277D01*
X96679670Y-77328051D01*
X96675619Y-77324852D01*
X96675615Y-77324848D01*
X96508414Y-77192800D01*
X96508410Y-77192798D01*
X96504359Y-77189598D01*
X96463053Y-77166796D01*
X96413084Y-77116364D01*
X96398312Y-77046921D01*
X96423428Y-76980516D01*
X96450780Y-76953909D01*
X96494603Y-76922650D01*
X96629860Y-76826173D01*
X96788096Y-76668489D01*
X96847594Y-76585689D01*
X96915435Y-76491277D01*
X96918453Y-76487077D01*
X96930061Y-76463591D01*
X97015136Y-76291453D01*
X97015137Y-76291451D01*
X97017430Y-76286811D01*
X97082370Y-76073069D01*
X97111529Y-75851590D01*
X97113156Y-75785000D01*
X97094852Y-75562361D01*
X97040431Y-75345702D01*
X96951354Y-75140840D01*
X96830014Y-74953277D01*
X96679670Y-74788051D01*
X96675619Y-74784852D01*
X96675615Y-74784848D01*
X96508414Y-74652800D01*
X96508410Y-74652798D01*
X96504359Y-74649598D01*
X96463053Y-74626796D01*
X96413084Y-74576364D01*
X96398312Y-74506921D01*
X96423428Y-74440516D01*
X96450780Y-74413909D01*
X96494603Y-74382650D01*
X96629860Y-74286173D01*
X96788096Y-74128489D01*
X96847594Y-74045689D01*
X96915435Y-73951277D01*
X96918453Y-73947077D01*
X96930061Y-73923591D01*
X97015136Y-73751453D01*
X97015137Y-73751451D01*
X97017430Y-73746811D01*
X97082370Y-73533069D01*
X97111529Y-73311590D01*
X97113156Y-73245000D01*
X97094852Y-73022361D01*
X97040431Y-72805702D01*
X96951354Y-72600840D01*
X96830014Y-72413277D01*
X96679670Y-72248051D01*
X96675619Y-72244852D01*
X96675615Y-72244848D01*
X96508414Y-72112800D01*
X96508410Y-72112798D01*
X96504359Y-72109598D01*
X96463053Y-72086796D01*
X96413084Y-72036364D01*
X96398312Y-71966921D01*
X96423428Y-71900516D01*
X96450780Y-71873909D01*
X96494603Y-71842650D01*
X96629860Y-71746173D01*
X96788096Y-71588489D01*
X96847594Y-71505689D01*
X96915435Y-71411277D01*
X96918453Y-71407077D01*
X96930061Y-71383591D01*
X97015136Y-71211453D01*
X97015137Y-71211451D01*
X97017430Y-71206811D01*
X97082370Y-70993069D01*
X97111529Y-70771590D01*
X97113156Y-70705000D01*
X97094852Y-70482361D01*
X97040431Y-70265702D01*
X96951354Y-70060840D01*
X96830014Y-69873277D01*
X96679670Y-69708051D01*
X96675619Y-69704852D01*
X96675615Y-69704848D01*
X96508414Y-69572800D01*
X96508410Y-69572798D01*
X96504359Y-69569598D01*
X96463053Y-69546796D01*
X96413084Y-69496364D01*
X96398312Y-69426921D01*
X96423428Y-69360516D01*
X96450780Y-69333909D01*
X96494603Y-69302650D01*
X96629860Y-69206173D01*
X96788096Y-69048489D01*
X96847594Y-68965689D01*
X96915435Y-68871277D01*
X96918453Y-68867077D01*
X96930061Y-68843591D01*
X97015136Y-68671453D01*
X97015137Y-68671451D01*
X97017430Y-68666811D01*
X97082370Y-68453069D01*
X97111529Y-68231590D01*
X97113156Y-68165000D01*
X97094852Y-67942361D01*
X97040431Y-67725702D01*
X96951354Y-67520840D01*
X96830014Y-67333277D01*
X96679670Y-67168051D01*
X96675619Y-67164852D01*
X96675615Y-67164848D01*
X96508414Y-67032800D01*
X96508410Y-67032798D01*
X96504359Y-67029598D01*
X96463053Y-67006796D01*
X96413084Y-66956364D01*
X96398312Y-66886921D01*
X96423428Y-66820516D01*
X96450780Y-66793909D01*
X96494603Y-66762650D01*
X96629860Y-66666173D01*
X96788096Y-66508489D01*
X96847594Y-66425689D01*
X96915435Y-66331277D01*
X96918453Y-66327077D01*
X96930061Y-66303591D01*
X97015136Y-66131453D01*
X97015137Y-66131451D01*
X97017430Y-66126811D01*
X97082370Y-65913069D01*
X97111529Y-65691590D01*
X97113156Y-65625000D01*
X97094852Y-65402361D01*
X97040431Y-65185702D01*
X96951354Y-64980840D01*
X96830014Y-64793277D01*
X96679670Y-64628051D01*
X96675619Y-64624852D01*
X96675615Y-64624848D01*
X96508414Y-64492800D01*
X96508410Y-64492798D01*
X96504359Y-64489598D01*
X96463053Y-64466796D01*
X96413084Y-64416364D01*
X96398312Y-64346921D01*
X96423428Y-64280516D01*
X96450780Y-64253909D01*
X96494603Y-64222650D01*
X96629860Y-64126173D01*
X96788096Y-63968489D01*
X96847594Y-63885689D01*
X96915435Y-63791277D01*
X96918453Y-63787077D01*
X96930061Y-63763591D01*
X97015136Y-63591453D01*
X97015137Y-63591451D01*
X97017430Y-63586811D01*
X97082370Y-63373069D01*
X97111529Y-63151590D01*
X97113156Y-63085000D01*
X97094852Y-62862361D01*
X97040431Y-62645702D01*
X96951354Y-62440840D01*
X96830014Y-62253277D01*
X96679670Y-62088051D01*
X96675619Y-62084852D01*
X96675615Y-62084848D01*
X96508414Y-61952800D01*
X96508410Y-61952798D01*
X96504359Y-61949598D01*
X96463053Y-61926796D01*
X96413084Y-61876364D01*
X96398312Y-61806921D01*
X96423428Y-61740516D01*
X96450780Y-61713909D01*
X96494603Y-61682650D01*
X96629860Y-61586173D01*
X96788096Y-61428489D01*
X96847594Y-61345689D01*
X96915435Y-61251277D01*
X96918453Y-61247077D01*
X96930061Y-61223591D01*
X97015136Y-61051453D01*
X97015137Y-61051451D01*
X97017430Y-61046811D01*
X97082370Y-60833069D01*
X97111529Y-60611590D01*
X97113156Y-60545000D01*
X97094852Y-60322361D01*
X97040431Y-60105702D01*
X96951354Y-59900840D01*
X96830014Y-59713277D01*
X96679670Y-59548051D01*
X96675619Y-59544852D01*
X96675615Y-59544848D01*
X96508414Y-59412800D01*
X96508410Y-59412798D01*
X96504359Y-59409598D01*
X96463053Y-59386796D01*
X96413084Y-59336364D01*
X96398312Y-59266921D01*
X96423428Y-59200516D01*
X96450780Y-59173909D01*
X96494603Y-59142650D01*
X96629860Y-59046173D01*
X96788096Y-58888489D01*
X96847594Y-58805689D01*
X96915435Y-58711277D01*
X96918453Y-58707077D01*
X96930061Y-58683591D01*
X97015136Y-58511453D01*
X97015137Y-58511451D01*
X97017430Y-58506811D01*
X97082370Y-58293069D01*
X97111529Y-58071590D01*
X97113156Y-58005000D01*
X97094852Y-57782361D01*
X97040431Y-57565702D01*
X96951354Y-57360840D01*
X96830014Y-57173277D01*
X96679670Y-57008051D01*
X96675619Y-57004852D01*
X96675615Y-57004848D01*
X96508414Y-56872800D01*
X96508410Y-56872798D01*
X96504359Y-56869598D01*
X96463053Y-56846796D01*
X96413084Y-56796364D01*
X96398312Y-56726921D01*
X96423428Y-56660516D01*
X96450780Y-56633909D01*
X96494603Y-56602650D01*
X96629860Y-56506173D01*
X96788096Y-56348489D01*
X96847594Y-56265689D01*
X96915435Y-56171277D01*
X96918453Y-56167077D01*
X96936567Y-56130427D01*
X97015136Y-55971453D01*
X97015137Y-55971451D01*
X97017430Y-55966811D01*
X97082370Y-55753069D01*
X97111529Y-55531590D01*
X97113156Y-55465000D01*
X97094852Y-55242361D01*
X97040431Y-55025702D01*
X96951354Y-54820840D01*
X96830014Y-54633277D01*
X96810405Y-54611727D01*
X96682798Y-54471488D01*
X96651746Y-54407642D01*
X96660141Y-54337143D01*
X96705317Y-54282375D01*
X96731761Y-54268706D01*
X96838297Y-54228767D01*
X96846705Y-54225615D01*
X96963261Y-54138261D01*
X97050615Y-54021705D01*
X97101745Y-53885316D01*
X97108500Y-53823134D01*
X97108500Y-52026866D01*
X97101745Y-51964684D01*
X97050615Y-51828295D01*
X96963261Y-51711739D01*
X96846705Y-51624385D01*
X96710316Y-51573255D01*
X96648134Y-51566500D01*
X94851866Y-51566500D01*
X94789684Y-51573255D01*
X94653295Y-51624385D01*
X94536739Y-51711739D01*
X94449385Y-51828295D01*
X94398255Y-51964684D01*
X94391500Y-52026866D01*
X94391500Y-53823134D01*
X94398255Y-53885316D01*
X94449385Y-54021705D01*
X94536739Y-54138261D01*
X94653295Y-54225615D01*
X94661704Y-54228767D01*
X94661705Y-54228768D01*
X94770451Y-54269535D01*
X94827216Y-54312176D01*
X94851916Y-54378738D01*
X94836709Y-54448087D01*
X94817316Y-54474568D01*
X94711247Y-54585563D01*
X94690629Y-54607138D01*
X94687715Y-54611410D01*
X94687714Y-54611411D01*
X94675409Y-54629450D01*
X94564743Y-54791680D01*
X94470688Y-54994305D01*
X94410989Y-55209570D01*
X94387251Y-55431695D01*
X94387548Y-55436848D01*
X94387548Y-55436851D01*
X94393011Y-55531590D01*
X94400110Y-55654715D01*
X94401247Y-55659761D01*
X94401248Y-55659767D01*
X94408075Y-55690060D01*
X94449222Y-55872639D01*
X94533266Y-56079616D01*
X94649987Y-56270088D01*
X94796250Y-56438938D01*
X94968126Y-56581632D01*
X95028287Y-56616787D01*
X95041445Y-56624476D01*
X95090169Y-56676114D01*
X95103240Y-56745897D01*
X95076509Y-56811669D01*
X95036055Y-56845027D01*
X95023607Y-56851507D01*
X95019474Y-56854610D01*
X95019471Y-56854612D01*
X94849100Y-56982530D01*
X94844965Y-56985635D01*
X94841393Y-56989373D01*
X94711247Y-57125563D01*
X94690629Y-57147138D01*
X94564743Y-57331680D01*
X94470688Y-57534305D01*
X94410989Y-57749570D01*
X94387251Y-57971695D01*
X94387548Y-57976848D01*
X94387548Y-57976851D01*
X94393011Y-58071590D01*
X94400110Y-58194715D01*
X94401247Y-58199761D01*
X94401248Y-58199767D01*
X94408075Y-58230060D01*
X94449222Y-58412639D01*
X94533266Y-58619616D01*
X94649987Y-58810088D01*
X94796250Y-58978938D01*
X94968126Y-59121632D01*
X95028287Y-59156787D01*
X95041445Y-59164476D01*
X95090169Y-59216114D01*
X95103240Y-59285897D01*
X95076509Y-59351669D01*
X95036055Y-59385027D01*
X95023607Y-59391507D01*
X95019474Y-59394610D01*
X95019471Y-59394612D01*
X94849100Y-59522530D01*
X94844965Y-59525635D01*
X94841393Y-59529373D01*
X94711247Y-59665563D01*
X94690629Y-59687138D01*
X94564743Y-59871680D01*
X94470688Y-60074305D01*
X94410989Y-60289570D01*
X94387251Y-60511695D01*
X94387548Y-60516848D01*
X94387548Y-60516851D01*
X94393011Y-60611590D01*
X94400110Y-60734715D01*
X94401247Y-60739761D01*
X94401248Y-60739767D01*
X94408075Y-60770060D01*
X94449222Y-60952639D01*
X94533266Y-61159616D01*
X94649987Y-61350088D01*
X94796250Y-61518938D01*
X94968126Y-61661632D01*
X95028287Y-61696787D01*
X95041445Y-61704476D01*
X95090169Y-61756114D01*
X95103240Y-61825897D01*
X95076509Y-61891669D01*
X95036055Y-61925027D01*
X95023607Y-61931507D01*
X95019474Y-61934610D01*
X95019471Y-61934612D01*
X94849100Y-62062530D01*
X94844965Y-62065635D01*
X94841393Y-62069373D01*
X94711247Y-62205563D01*
X94690629Y-62227138D01*
X94564743Y-62411680D01*
X94470688Y-62614305D01*
X94410989Y-62829570D01*
X94387251Y-63051695D01*
X94387548Y-63056848D01*
X94387548Y-63056851D01*
X94393011Y-63151590D01*
X94400110Y-63274715D01*
X94401247Y-63279761D01*
X94401248Y-63279767D01*
X94408075Y-63310060D01*
X94449222Y-63492639D01*
X94533266Y-63699616D01*
X94649987Y-63890088D01*
X94796250Y-64058938D01*
X94968126Y-64201632D01*
X95028287Y-64236787D01*
X95041445Y-64244476D01*
X95090169Y-64296114D01*
X95103240Y-64365897D01*
X95076509Y-64431669D01*
X95036055Y-64465027D01*
X95023607Y-64471507D01*
X95019474Y-64474610D01*
X95019471Y-64474612D01*
X94849100Y-64602530D01*
X94844965Y-64605635D01*
X94841393Y-64609373D01*
X94711247Y-64745563D01*
X94690629Y-64767138D01*
X94564743Y-64951680D01*
X94470688Y-65154305D01*
X94410989Y-65369570D01*
X94387251Y-65591695D01*
X94387548Y-65596848D01*
X94387548Y-65596851D01*
X94393011Y-65691590D01*
X94400110Y-65814715D01*
X94401247Y-65819761D01*
X94401248Y-65819767D01*
X94408075Y-65850060D01*
X94449222Y-66032639D01*
X94533266Y-66239616D01*
X94649987Y-66430088D01*
X94796250Y-66598938D01*
X94968126Y-66741632D01*
X95028287Y-66776787D01*
X95041445Y-66784476D01*
X95090169Y-66836114D01*
X95103240Y-66905897D01*
X95076509Y-66971669D01*
X95036055Y-67005027D01*
X95023607Y-67011507D01*
X95019474Y-67014610D01*
X95019471Y-67014612D01*
X94849100Y-67142530D01*
X94844965Y-67145635D01*
X94841393Y-67149373D01*
X94711247Y-67285563D01*
X94690629Y-67307138D01*
X94564743Y-67491680D01*
X94470688Y-67694305D01*
X94410989Y-67909570D01*
X94387251Y-68131695D01*
X94387548Y-68136848D01*
X94387548Y-68136851D01*
X94393011Y-68231590D01*
X94400110Y-68354715D01*
X94401247Y-68359761D01*
X94401248Y-68359767D01*
X94408075Y-68390060D01*
X94449222Y-68572639D01*
X94533266Y-68779616D01*
X94649987Y-68970088D01*
X94796250Y-69138938D01*
X94968126Y-69281632D01*
X95028287Y-69316787D01*
X95041445Y-69324476D01*
X95090169Y-69376114D01*
X95103240Y-69445897D01*
X95076509Y-69511669D01*
X95036055Y-69545027D01*
X95023607Y-69551507D01*
X95019474Y-69554610D01*
X95019471Y-69554612D01*
X94849100Y-69682530D01*
X94844965Y-69685635D01*
X94841393Y-69689373D01*
X94711247Y-69825563D01*
X94690629Y-69847138D01*
X94564743Y-70031680D01*
X94470688Y-70234305D01*
X94410989Y-70449570D01*
X94387251Y-70671695D01*
X94387548Y-70676848D01*
X94387548Y-70676851D01*
X94393011Y-70771590D01*
X94400110Y-70894715D01*
X94401247Y-70899761D01*
X94401248Y-70899767D01*
X94408075Y-70930060D01*
X94449222Y-71112639D01*
X94533266Y-71319616D01*
X94649987Y-71510088D01*
X94796250Y-71678938D01*
X94968126Y-71821632D01*
X95028287Y-71856787D01*
X95041445Y-71864476D01*
X95090169Y-71916114D01*
X95103240Y-71985897D01*
X95076509Y-72051669D01*
X95036055Y-72085027D01*
X95023607Y-72091507D01*
X95019474Y-72094610D01*
X95019471Y-72094612D01*
X94849100Y-72222530D01*
X94844965Y-72225635D01*
X94841393Y-72229373D01*
X94711247Y-72365563D01*
X94690629Y-72387138D01*
X94564743Y-72571680D01*
X94470688Y-72774305D01*
X94410989Y-72989570D01*
X94387251Y-73211695D01*
X94387548Y-73216848D01*
X94387548Y-73216851D01*
X94393011Y-73311590D01*
X94400110Y-73434715D01*
X94401247Y-73439761D01*
X94401248Y-73439767D01*
X94408075Y-73470060D01*
X94449222Y-73652639D01*
X94533266Y-73859616D01*
X94649987Y-74050088D01*
X94796250Y-74218938D01*
X94968126Y-74361632D01*
X95028287Y-74396787D01*
X95041445Y-74404476D01*
X95090169Y-74456114D01*
X95103240Y-74525897D01*
X95076509Y-74591669D01*
X95036055Y-74625027D01*
X95023607Y-74631507D01*
X95019474Y-74634610D01*
X95019471Y-74634612D01*
X94849100Y-74762530D01*
X94844965Y-74765635D01*
X94841393Y-74769373D01*
X94711247Y-74905563D01*
X94690629Y-74927138D01*
X94564743Y-75111680D01*
X94470688Y-75314305D01*
X94410989Y-75529570D01*
X94387251Y-75751695D01*
X94387548Y-75756848D01*
X94387548Y-75756851D01*
X94393011Y-75851590D01*
X94400110Y-75974715D01*
X94401247Y-75979761D01*
X94401248Y-75979767D01*
X94408075Y-76010060D01*
X94449222Y-76192639D01*
X94533266Y-76399616D01*
X94649987Y-76590088D01*
X94796250Y-76758938D01*
X94968126Y-76901632D01*
X95028287Y-76936787D01*
X95041445Y-76944476D01*
X95090169Y-76996114D01*
X95103240Y-77065897D01*
X95076509Y-77131669D01*
X95036055Y-77165027D01*
X95023607Y-77171507D01*
X95019474Y-77174610D01*
X95019471Y-77174612D01*
X94849100Y-77302530D01*
X94844965Y-77305635D01*
X94841393Y-77309373D01*
X94711247Y-77445563D01*
X94690629Y-77467138D01*
X94564743Y-77651680D01*
X94470688Y-77854305D01*
X94410989Y-78069570D01*
X94387251Y-78291695D01*
X94387548Y-78296848D01*
X94387548Y-78296851D01*
X94393011Y-78391590D01*
X94400110Y-78514715D01*
X94401247Y-78519761D01*
X94401248Y-78519767D01*
X94408075Y-78550060D01*
X94449222Y-78732639D01*
X94533266Y-78939616D01*
X94649987Y-79130088D01*
X94796250Y-79298938D01*
X94968126Y-79441632D01*
X95028287Y-79476787D01*
X95041445Y-79484476D01*
X95090169Y-79536114D01*
X95103240Y-79605897D01*
X95076509Y-79671669D01*
X95036055Y-79705027D01*
X95023607Y-79711507D01*
X95019474Y-79714610D01*
X95019471Y-79714612D01*
X94849100Y-79842530D01*
X94844965Y-79845635D01*
X94841393Y-79849373D01*
X94711247Y-79985563D01*
X94690629Y-80007138D01*
X94564743Y-80191680D01*
X94470688Y-80394305D01*
X94410989Y-80609570D01*
X94387251Y-80831695D01*
X94387548Y-80836848D01*
X94387548Y-80836851D01*
X94393011Y-80931590D01*
X94400110Y-81054715D01*
X94401247Y-81059761D01*
X94401248Y-81059767D01*
X94408075Y-81090060D01*
X94449222Y-81272639D01*
X94533266Y-81479616D01*
X94649987Y-81670088D01*
X94796250Y-81838938D01*
X94968126Y-81981632D01*
X95028287Y-82016787D01*
X95041445Y-82024476D01*
X95090169Y-82076114D01*
X95103240Y-82145897D01*
X95076509Y-82211669D01*
X95036055Y-82245027D01*
X95023607Y-82251507D01*
X95019474Y-82254610D01*
X95019471Y-82254612D01*
X94849100Y-82382530D01*
X94844965Y-82385635D01*
X94841393Y-82389373D01*
X94711247Y-82525563D01*
X94690629Y-82547138D01*
X94564743Y-82731680D01*
X94470688Y-82934305D01*
X94410989Y-83149570D01*
X94387251Y-83371695D01*
X94387548Y-83376848D01*
X94387548Y-83376851D01*
X94393011Y-83471590D01*
X94400110Y-83594715D01*
X94401247Y-83599761D01*
X94401248Y-83599767D01*
X94408075Y-83630060D01*
X94449222Y-83812639D01*
X94533266Y-84019616D01*
X94649987Y-84210088D01*
X94796250Y-84378938D01*
X94968126Y-84521632D01*
X95028287Y-84556787D01*
X95041445Y-84564476D01*
X95090169Y-84616114D01*
X95103240Y-84685897D01*
X95076509Y-84751669D01*
X95036055Y-84785027D01*
X95023607Y-84791507D01*
X95019474Y-84794610D01*
X95019471Y-84794612D01*
X94849100Y-84922530D01*
X94844965Y-84925635D01*
X94841393Y-84929373D01*
X94711247Y-85065563D01*
X94690629Y-85087138D01*
X94564743Y-85271680D01*
X94470688Y-85474305D01*
X94410989Y-85689570D01*
X94387251Y-85911695D01*
X94387548Y-85916848D01*
X94387548Y-85916851D01*
X94393011Y-86011590D01*
X94400110Y-86134715D01*
X94401247Y-86139761D01*
X94401248Y-86139767D01*
X94408075Y-86170060D01*
X94449222Y-86352639D01*
X94533266Y-86559616D01*
X94649987Y-86750088D01*
X94796250Y-86918938D01*
X94968126Y-87061632D01*
X95028287Y-87096787D01*
X95041445Y-87104476D01*
X95090169Y-87156114D01*
X95103240Y-87225897D01*
X95076509Y-87291669D01*
X95036055Y-87325027D01*
X95023607Y-87331507D01*
X95019474Y-87334610D01*
X95019471Y-87334612D01*
X94849100Y-87462530D01*
X94844965Y-87465635D01*
X94841393Y-87469373D01*
X94711247Y-87605563D01*
X94690629Y-87627138D01*
X94564743Y-87811680D01*
X94470688Y-88014305D01*
X94410989Y-88229570D01*
X94387251Y-88451695D01*
X94387548Y-88456848D01*
X94387548Y-88456851D01*
X94393011Y-88551590D01*
X94400110Y-88674715D01*
X94401247Y-88679761D01*
X94401248Y-88679767D01*
X94408075Y-88710060D01*
X94449222Y-88892639D01*
X94533266Y-89099616D01*
X94649987Y-89290088D01*
X94796250Y-89458938D01*
X94968126Y-89601632D01*
X95028287Y-89636787D01*
X95041445Y-89644476D01*
X95090169Y-89696114D01*
X95103240Y-89765897D01*
X95076509Y-89831669D01*
X95036055Y-89865027D01*
X95023607Y-89871507D01*
X95019474Y-89874610D01*
X95019471Y-89874612D01*
X94849100Y-90002530D01*
X94844965Y-90005635D01*
X94841393Y-90009373D01*
X94711247Y-90145563D01*
X94690629Y-90167138D01*
X94564743Y-90351680D01*
X94470688Y-90554305D01*
X94410989Y-90769570D01*
X94387251Y-90991695D01*
X92110418Y-90991695D01*
X92094852Y-90802361D01*
X92040431Y-90585702D01*
X91951354Y-90380840D01*
X91830014Y-90193277D01*
X91679670Y-90028051D01*
X91675619Y-90024852D01*
X91675615Y-90024848D01*
X91508414Y-89892800D01*
X91508410Y-89892798D01*
X91504359Y-89889598D01*
X91463053Y-89866796D01*
X91413084Y-89816364D01*
X91398312Y-89746921D01*
X91423428Y-89680516D01*
X91450780Y-89653909D01*
X91494603Y-89622650D01*
X91629860Y-89526173D01*
X91788096Y-89368489D01*
X91847594Y-89285689D01*
X91915435Y-89191277D01*
X91918453Y-89187077D01*
X91930061Y-89163591D01*
X92015136Y-88991453D01*
X92015137Y-88991451D01*
X92017430Y-88986811D01*
X92082370Y-88773069D01*
X92111529Y-88551590D01*
X92113156Y-88485000D01*
X92094852Y-88262361D01*
X92040431Y-88045702D01*
X91951354Y-87840840D01*
X91830014Y-87653277D01*
X91679670Y-87488051D01*
X91675619Y-87484852D01*
X91675615Y-87484848D01*
X91508414Y-87352800D01*
X91508410Y-87352798D01*
X91504359Y-87349598D01*
X91463053Y-87326796D01*
X91413084Y-87276364D01*
X91398312Y-87206921D01*
X91423428Y-87140516D01*
X91450780Y-87113909D01*
X91494603Y-87082650D01*
X91629860Y-86986173D01*
X91788096Y-86828489D01*
X91847594Y-86745689D01*
X91915435Y-86651277D01*
X91918453Y-86647077D01*
X91930061Y-86623591D01*
X92015136Y-86451453D01*
X92015137Y-86451451D01*
X92017430Y-86446811D01*
X92082370Y-86233069D01*
X92111529Y-86011590D01*
X92113156Y-85945000D01*
X92094852Y-85722361D01*
X92040431Y-85505702D01*
X91951354Y-85300840D01*
X91830014Y-85113277D01*
X91679670Y-84948051D01*
X91675619Y-84944852D01*
X91675615Y-84944848D01*
X91508414Y-84812800D01*
X91508410Y-84812798D01*
X91504359Y-84809598D01*
X91463053Y-84786796D01*
X91413084Y-84736364D01*
X91398312Y-84666921D01*
X91423428Y-84600516D01*
X91450780Y-84573909D01*
X91494603Y-84542650D01*
X91629860Y-84446173D01*
X91788096Y-84288489D01*
X91847594Y-84205689D01*
X91915435Y-84111277D01*
X91918453Y-84107077D01*
X91930061Y-84083591D01*
X92015136Y-83911453D01*
X92015137Y-83911451D01*
X92017430Y-83906811D01*
X92082370Y-83693069D01*
X92111529Y-83471590D01*
X92113156Y-83405000D01*
X92094852Y-83182361D01*
X92040431Y-82965702D01*
X91951354Y-82760840D01*
X91830014Y-82573277D01*
X91679670Y-82408051D01*
X91675619Y-82404852D01*
X91675615Y-82404848D01*
X91508414Y-82272800D01*
X91508410Y-82272798D01*
X91504359Y-82269598D01*
X91463053Y-82246796D01*
X91413084Y-82196364D01*
X91398312Y-82126921D01*
X91423428Y-82060516D01*
X91450780Y-82033909D01*
X91494603Y-82002650D01*
X91629860Y-81906173D01*
X91788096Y-81748489D01*
X91847594Y-81665689D01*
X91915435Y-81571277D01*
X91918453Y-81567077D01*
X91930061Y-81543591D01*
X92015136Y-81371453D01*
X92015137Y-81371451D01*
X92017430Y-81366811D01*
X92082370Y-81153069D01*
X92111529Y-80931590D01*
X92113156Y-80865000D01*
X92094852Y-80642361D01*
X92040431Y-80425702D01*
X91951354Y-80220840D01*
X91830014Y-80033277D01*
X91679670Y-79868051D01*
X91675619Y-79864852D01*
X91675615Y-79864848D01*
X91508414Y-79732800D01*
X91508410Y-79732798D01*
X91504359Y-79729598D01*
X91463053Y-79706796D01*
X91413084Y-79656364D01*
X91398312Y-79586921D01*
X91423428Y-79520516D01*
X91450780Y-79493909D01*
X91494603Y-79462650D01*
X91629860Y-79366173D01*
X91788096Y-79208489D01*
X91847594Y-79125689D01*
X91915435Y-79031277D01*
X91918453Y-79027077D01*
X91930061Y-79003591D01*
X92015136Y-78831453D01*
X92015137Y-78831451D01*
X92017430Y-78826811D01*
X92082370Y-78613069D01*
X92111529Y-78391590D01*
X92113156Y-78325000D01*
X92094852Y-78102361D01*
X92040431Y-77885702D01*
X91951354Y-77680840D01*
X91830014Y-77493277D01*
X91679670Y-77328051D01*
X91675619Y-77324852D01*
X91675615Y-77324848D01*
X91508414Y-77192800D01*
X91508410Y-77192798D01*
X91504359Y-77189598D01*
X91463053Y-77166796D01*
X91413084Y-77116364D01*
X91398312Y-77046921D01*
X91423428Y-76980516D01*
X91450780Y-76953909D01*
X91494603Y-76922650D01*
X91629860Y-76826173D01*
X91788096Y-76668489D01*
X91847594Y-76585689D01*
X91915435Y-76491277D01*
X91918453Y-76487077D01*
X91930061Y-76463591D01*
X92015136Y-76291453D01*
X92015137Y-76291451D01*
X92017430Y-76286811D01*
X92082370Y-76073069D01*
X92111529Y-75851590D01*
X92113156Y-75785000D01*
X92094852Y-75562361D01*
X92040431Y-75345702D01*
X91951354Y-75140840D01*
X91830014Y-74953277D01*
X91679670Y-74788051D01*
X91675619Y-74784852D01*
X91675615Y-74784848D01*
X91508414Y-74652800D01*
X91508410Y-74652798D01*
X91504359Y-74649598D01*
X91463053Y-74626796D01*
X91413084Y-74576364D01*
X91398312Y-74506921D01*
X91423428Y-74440516D01*
X91450780Y-74413909D01*
X91494603Y-74382650D01*
X91629860Y-74286173D01*
X91788096Y-74128489D01*
X91847594Y-74045689D01*
X91915435Y-73951277D01*
X91918453Y-73947077D01*
X91930061Y-73923591D01*
X92015136Y-73751453D01*
X92015137Y-73751451D01*
X92017430Y-73746811D01*
X92082370Y-73533069D01*
X92111529Y-73311590D01*
X92113156Y-73245000D01*
X92094852Y-73022361D01*
X92040431Y-72805702D01*
X91951354Y-72600840D01*
X91830014Y-72413277D01*
X91679670Y-72248051D01*
X91675619Y-72244852D01*
X91675615Y-72244848D01*
X91508414Y-72112800D01*
X91508410Y-72112798D01*
X91504359Y-72109598D01*
X91463053Y-72086796D01*
X91413084Y-72036364D01*
X91398312Y-71966921D01*
X91423428Y-71900516D01*
X91450780Y-71873909D01*
X91494603Y-71842650D01*
X91629860Y-71746173D01*
X91788096Y-71588489D01*
X91847594Y-71505689D01*
X91915435Y-71411277D01*
X91918453Y-71407077D01*
X91930061Y-71383591D01*
X92015136Y-71211453D01*
X92015137Y-71211451D01*
X92017430Y-71206811D01*
X92082370Y-70993069D01*
X92111529Y-70771590D01*
X92113156Y-70705000D01*
X92094852Y-70482361D01*
X92040431Y-70265702D01*
X91951354Y-70060840D01*
X91830014Y-69873277D01*
X91679670Y-69708051D01*
X91675619Y-69704852D01*
X91675615Y-69704848D01*
X91508414Y-69572800D01*
X91508410Y-69572798D01*
X91504359Y-69569598D01*
X91463053Y-69546796D01*
X91413084Y-69496364D01*
X91398312Y-69426921D01*
X91423428Y-69360516D01*
X91450780Y-69333909D01*
X91494603Y-69302650D01*
X91629860Y-69206173D01*
X91788096Y-69048489D01*
X91847594Y-68965689D01*
X91915435Y-68871277D01*
X91918453Y-68867077D01*
X91930061Y-68843591D01*
X92015136Y-68671453D01*
X92015137Y-68671451D01*
X92017430Y-68666811D01*
X92082370Y-68453069D01*
X92111529Y-68231590D01*
X92113156Y-68165000D01*
X92094852Y-67942361D01*
X92040431Y-67725702D01*
X91951354Y-67520840D01*
X91830014Y-67333277D01*
X91679670Y-67168051D01*
X91675619Y-67164852D01*
X91675615Y-67164848D01*
X91508414Y-67032800D01*
X91508410Y-67032798D01*
X91504359Y-67029598D01*
X91463053Y-67006796D01*
X91413084Y-66956364D01*
X91398312Y-66886921D01*
X91423428Y-66820516D01*
X91450780Y-66793909D01*
X91494603Y-66762650D01*
X91629860Y-66666173D01*
X91788096Y-66508489D01*
X91847594Y-66425689D01*
X91915435Y-66331277D01*
X91918453Y-66327077D01*
X91930061Y-66303591D01*
X92015136Y-66131453D01*
X92015137Y-66131451D01*
X92017430Y-66126811D01*
X92082370Y-65913069D01*
X92111529Y-65691590D01*
X92113156Y-65625000D01*
X92094852Y-65402361D01*
X92040431Y-65185702D01*
X91951354Y-64980840D01*
X91830014Y-64793277D01*
X91679670Y-64628051D01*
X91675619Y-64624852D01*
X91675615Y-64624848D01*
X91508414Y-64492800D01*
X91508410Y-64492798D01*
X91504359Y-64489598D01*
X91463053Y-64466796D01*
X91413084Y-64416364D01*
X91398312Y-64346921D01*
X91423428Y-64280516D01*
X91450780Y-64253909D01*
X91494603Y-64222650D01*
X91629860Y-64126173D01*
X91788096Y-63968489D01*
X91847594Y-63885689D01*
X91915435Y-63791277D01*
X91918453Y-63787077D01*
X91930061Y-63763591D01*
X92015136Y-63591453D01*
X92015137Y-63591451D01*
X92017430Y-63586811D01*
X92082370Y-63373069D01*
X92111529Y-63151590D01*
X92113156Y-63085000D01*
X92094852Y-62862361D01*
X92040431Y-62645702D01*
X91951354Y-62440840D01*
X91830014Y-62253277D01*
X91679670Y-62088051D01*
X91675619Y-62084852D01*
X91675615Y-62084848D01*
X91508414Y-61952800D01*
X91508410Y-61952798D01*
X91504359Y-61949598D01*
X91463053Y-61926796D01*
X91413084Y-61876364D01*
X91398312Y-61806921D01*
X91423428Y-61740516D01*
X91450780Y-61713909D01*
X91494603Y-61682650D01*
X91629860Y-61586173D01*
X91788096Y-61428489D01*
X91847594Y-61345689D01*
X91915435Y-61251277D01*
X91918453Y-61247077D01*
X91930061Y-61223591D01*
X92015136Y-61051453D01*
X92015137Y-61051451D01*
X92017430Y-61046811D01*
X92082370Y-60833069D01*
X92111529Y-60611590D01*
X92113156Y-60545000D01*
X92094852Y-60322361D01*
X92040431Y-60105702D01*
X91951354Y-59900840D01*
X91830014Y-59713277D01*
X91679670Y-59548051D01*
X91675619Y-59544852D01*
X91675615Y-59544848D01*
X91508414Y-59412800D01*
X91508410Y-59412798D01*
X91504359Y-59409598D01*
X91463053Y-59386796D01*
X91413084Y-59336364D01*
X91398312Y-59266921D01*
X91423428Y-59200516D01*
X91450780Y-59173909D01*
X91494603Y-59142650D01*
X91629860Y-59046173D01*
X91788096Y-58888489D01*
X91847594Y-58805689D01*
X91915435Y-58711277D01*
X91918453Y-58707077D01*
X91930061Y-58683591D01*
X92015136Y-58511453D01*
X92015137Y-58511451D01*
X92017430Y-58506811D01*
X92082370Y-58293069D01*
X92111529Y-58071590D01*
X92113156Y-58005000D01*
X92094852Y-57782361D01*
X92040431Y-57565702D01*
X91951354Y-57360840D01*
X91830014Y-57173277D01*
X91679670Y-57008051D01*
X91675619Y-57004852D01*
X91675615Y-57004848D01*
X91508414Y-56872800D01*
X91508410Y-56872798D01*
X91504359Y-56869598D01*
X91462569Y-56846529D01*
X91412598Y-56796097D01*
X91397826Y-56726654D01*
X91422942Y-56660248D01*
X91450294Y-56633641D01*
X91625328Y-56508792D01*
X91633200Y-56502139D01*
X91784052Y-56351812D01*
X91790730Y-56343965D01*
X91915003Y-56171020D01*
X91920313Y-56162183D01*
X92014670Y-55971267D01*
X92018469Y-55961672D01*
X92080377Y-55757910D01*
X92082555Y-55747837D01*
X92083986Y-55736962D01*
X92081775Y-55722778D01*
X92068617Y-55719000D01*
X89433225Y-55719000D01*
X89419694Y-55722973D01*
X89418257Y-55732966D01*
X89448565Y-55867446D01*
X89451645Y-55877275D01*
X89531770Y-56074603D01*
X89536413Y-56083794D01*
X89647694Y-56265388D01*
X89653777Y-56273699D01*
X89793213Y-56434667D01*
X89800580Y-56441883D01*
X89964434Y-56577916D01*
X89972881Y-56583831D01*
X90041969Y-56624203D01*
X90090693Y-56675842D01*
X90103764Y-56745625D01*
X90077033Y-56811396D01*
X90036584Y-56844752D01*
X90023607Y-56851507D01*
X90019474Y-56854610D01*
X90019471Y-56854612D01*
X89849100Y-56982530D01*
X89844965Y-56985635D01*
X89841393Y-56989373D01*
X89711247Y-57125563D01*
X89690629Y-57147138D01*
X89564743Y-57331680D01*
X89470688Y-57534305D01*
X89410989Y-57749570D01*
X89387251Y-57971695D01*
X89387548Y-57976848D01*
X89387548Y-57976851D01*
X89393011Y-58071590D01*
X89400110Y-58194715D01*
X89401247Y-58199761D01*
X89401248Y-58199767D01*
X89408075Y-58230060D01*
X89449222Y-58412639D01*
X89533266Y-58619616D01*
X89649987Y-58810088D01*
X89796250Y-58978938D01*
X89968126Y-59121632D01*
X90028287Y-59156787D01*
X90041445Y-59164476D01*
X90090169Y-59216114D01*
X90103240Y-59285897D01*
X90076509Y-59351669D01*
X90036055Y-59385027D01*
X90023607Y-59391507D01*
X90019474Y-59394610D01*
X90019471Y-59394612D01*
X89849100Y-59522530D01*
X89844965Y-59525635D01*
X89841393Y-59529373D01*
X89711247Y-59665563D01*
X89690629Y-59687138D01*
X89564743Y-59871680D01*
X89470688Y-60074305D01*
X89410989Y-60289570D01*
X89387251Y-60511695D01*
X89387548Y-60516848D01*
X89387548Y-60516851D01*
X89393011Y-60611590D01*
X89400110Y-60734715D01*
X89401247Y-60739761D01*
X89401248Y-60739767D01*
X89408075Y-60770060D01*
X89449222Y-60952639D01*
X89533266Y-61159616D01*
X89649987Y-61350088D01*
X89796250Y-61518938D01*
X89968126Y-61661632D01*
X90028287Y-61696787D01*
X90041445Y-61704476D01*
X90090169Y-61756114D01*
X90103240Y-61825897D01*
X90076509Y-61891669D01*
X90036055Y-61925027D01*
X90023607Y-61931507D01*
X90019474Y-61934610D01*
X90019471Y-61934612D01*
X89849100Y-62062530D01*
X89844965Y-62065635D01*
X89841393Y-62069373D01*
X89711247Y-62205563D01*
X89690629Y-62227138D01*
X89564743Y-62411680D01*
X89470688Y-62614305D01*
X89410989Y-62829570D01*
X89387251Y-63051695D01*
X89387548Y-63056848D01*
X89387548Y-63056851D01*
X89393011Y-63151590D01*
X89400110Y-63274715D01*
X89401247Y-63279761D01*
X89401248Y-63279767D01*
X89408075Y-63310060D01*
X89449222Y-63492639D01*
X89533266Y-63699616D01*
X89649987Y-63890088D01*
X89796250Y-64058938D01*
X89968126Y-64201632D01*
X90028287Y-64236787D01*
X90041445Y-64244476D01*
X90090169Y-64296114D01*
X90103240Y-64365897D01*
X90076509Y-64431669D01*
X90036055Y-64465027D01*
X90023607Y-64471507D01*
X90019474Y-64474610D01*
X90019471Y-64474612D01*
X89849100Y-64602530D01*
X89844965Y-64605635D01*
X89841393Y-64609373D01*
X89711247Y-64745563D01*
X89690629Y-64767138D01*
X89564743Y-64951680D01*
X89470688Y-65154305D01*
X89410989Y-65369570D01*
X89387251Y-65591695D01*
X89387548Y-65596848D01*
X89387548Y-65596851D01*
X89393011Y-65691590D01*
X89400110Y-65814715D01*
X89401247Y-65819761D01*
X89401248Y-65819767D01*
X89408075Y-65850060D01*
X89449222Y-66032639D01*
X89533266Y-66239616D01*
X89649987Y-66430088D01*
X89796250Y-66598938D01*
X89968126Y-66741632D01*
X90028287Y-66776787D01*
X90041445Y-66784476D01*
X90090169Y-66836114D01*
X90103240Y-66905897D01*
X90076509Y-66971669D01*
X90036055Y-67005027D01*
X90023607Y-67011507D01*
X90019474Y-67014610D01*
X90019471Y-67014612D01*
X89849100Y-67142530D01*
X89844965Y-67145635D01*
X89841393Y-67149373D01*
X89711247Y-67285563D01*
X89690629Y-67307138D01*
X89564743Y-67491680D01*
X89470688Y-67694305D01*
X89410989Y-67909570D01*
X89387251Y-68131695D01*
X89387548Y-68136848D01*
X89387548Y-68136851D01*
X89393011Y-68231590D01*
X89400110Y-68354715D01*
X89401247Y-68359761D01*
X89401248Y-68359767D01*
X89408075Y-68390060D01*
X89449222Y-68572639D01*
X89533266Y-68779616D01*
X89649987Y-68970088D01*
X89796250Y-69138938D01*
X89968126Y-69281632D01*
X90028287Y-69316787D01*
X90041445Y-69324476D01*
X90090169Y-69376114D01*
X90103240Y-69445897D01*
X90076509Y-69511669D01*
X90036055Y-69545027D01*
X90023607Y-69551507D01*
X90019474Y-69554610D01*
X90019471Y-69554612D01*
X89849100Y-69682530D01*
X89844965Y-69685635D01*
X89841393Y-69689373D01*
X89711247Y-69825563D01*
X89690629Y-69847138D01*
X89564743Y-70031680D01*
X89470688Y-70234305D01*
X89410989Y-70449570D01*
X89387251Y-70671695D01*
X89387548Y-70676848D01*
X89387548Y-70676851D01*
X89393011Y-70771590D01*
X89400110Y-70894715D01*
X89401247Y-70899761D01*
X89401248Y-70899767D01*
X89408075Y-70930060D01*
X89449222Y-71112639D01*
X89533266Y-71319616D01*
X89649987Y-71510088D01*
X89796250Y-71678938D01*
X89968126Y-71821632D01*
X90028287Y-71856787D01*
X90041445Y-71864476D01*
X90090169Y-71916114D01*
X90103240Y-71985897D01*
X90076509Y-72051669D01*
X90036055Y-72085027D01*
X90023607Y-72091507D01*
X90019474Y-72094610D01*
X90019471Y-72094612D01*
X89849100Y-72222530D01*
X89844965Y-72225635D01*
X89841393Y-72229373D01*
X89711247Y-72365563D01*
X89690629Y-72387138D01*
X89564743Y-72571680D01*
X89470688Y-72774305D01*
X89410989Y-72989570D01*
X89387251Y-73211695D01*
X89387548Y-73216848D01*
X89387548Y-73216851D01*
X89393011Y-73311590D01*
X89400110Y-73434715D01*
X89401247Y-73439761D01*
X89401248Y-73439767D01*
X89408075Y-73470060D01*
X89449222Y-73652639D01*
X89533266Y-73859616D01*
X89649987Y-74050088D01*
X89796250Y-74218938D01*
X89968126Y-74361632D01*
X90028287Y-74396787D01*
X90041445Y-74404476D01*
X90090169Y-74456114D01*
X90103240Y-74525897D01*
X90076509Y-74591669D01*
X90036055Y-74625027D01*
X90023607Y-74631507D01*
X90019474Y-74634610D01*
X90019471Y-74634612D01*
X89849100Y-74762530D01*
X89844965Y-74765635D01*
X89841393Y-74769373D01*
X89711247Y-74905563D01*
X89690629Y-74927138D01*
X89564743Y-75111680D01*
X89470688Y-75314305D01*
X89410989Y-75529570D01*
X89387251Y-75751695D01*
X89387548Y-75756848D01*
X89387548Y-75756851D01*
X89393011Y-75851590D01*
X89400110Y-75974715D01*
X89401247Y-75979761D01*
X89401248Y-75979767D01*
X89408075Y-76010060D01*
X89449222Y-76192639D01*
X89533266Y-76399616D01*
X89649987Y-76590088D01*
X89796250Y-76758938D01*
X89968126Y-76901632D01*
X90028287Y-76936787D01*
X90041445Y-76944476D01*
X90090169Y-76996114D01*
X90103240Y-77065897D01*
X90076509Y-77131669D01*
X90036055Y-77165027D01*
X90023607Y-77171507D01*
X90019474Y-77174610D01*
X90019471Y-77174612D01*
X89849100Y-77302530D01*
X89844965Y-77305635D01*
X89841393Y-77309373D01*
X89711247Y-77445563D01*
X89690629Y-77467138D01*
X89564743Y-77651680D01*
X89470688Y-77854305D01*
X89410989Y-78069570D01*
X89387251Y-78291695D01*
X89387548Y-78296848D01*
X89387548Y-78296851D01*
X89393011Y-78391590D01*
X89400110Y-78514715D01*
X89401247Y-78519761D01*
X89401248Y-78519767D01*
X89408075Y-78550060D01*
X89449222Y-78732639D01*
X89533266Y-78939616D01*
X89649987Y-79130088D01*
X89796250Y-79298938D01*
X89968126Y-79441632D01*
X90028287Y-79476787D01*
X90041445Y-79484476D01*
X90090169Y-79536114D01*
X90103240Y-79605897D01*
X90076509Y-79671669D01*
X90036055Y-79705027D01*
X90023607Y-79711507D01*
X90019474Y-79714610D01*
X90019471Y-79714612D01*
X89849100Y-79842530D01*
X89844965Y-79845635D01*
X89841393Y-79849373D01*
X89711247Y-79985563D01*
X89690629Y-80007138D01*
X89564743Y-80191680D01*
X89470688Y-80394305D01*
X89410989Y-80609570D01*
X89387251Y-80831695D01*
X89387548Y-80836848D01*
X89387548Y-80836851D01*
X89393011Y-80931590D01*
X89400110Y-81054715D01*
X89401247Y-81059761D01*
X89401248Y-81059767D01*
X89408075Y-81090060D01*
X89449222Y-81272639D01*
X89533266Y-81479616D01*
X89649987Y-81670088D01*
X89796250Y-81838938D01*
X89968126Y-81981632D01*
X90028287Y-82016787D01*
X90041445Y-82024476D01*
X90090169Y-82076114D01*
X90103240Y-82145897D01*
X90076509Y-82211669D01*
X90036055Y-82245027D01*
X90023607Y-82251507D01*
X90019474Y-82254610D01*
X90019471Y-82254612D01*
X89849100Y-82382530D01*
X89844965Y-82385635D01*
X89841393Y-82389373D01*
X89711247Y-82525563D01*
X89690629Y-82547138D01*
X89564743Y-82731680D01*
X89470688Y-82934305D01*
X89410989Y-83149570D01*
X89387251Y-83371695D01*
X89387548Y-83376848D01*
X89387548Y-83376851D01*
X89393011Y-83471590D01*
X89400110Y-83594715D01*
X89401247Y-83599761D01*
X89401248Y-83599767D01*
X89408075Y-83630060D01*
X89449222Y-83812639D01*
X89533266Y-84019616D01*
X89649987Y-84210088D01*
X89796250Y-84378938D01*
X89968126Y-84521632D01*
X90028287Y-84556787D01*
X90041445Y-84564476D01*
X90090169Y-84616114D01*
X90103240Y-84685897D01*
X90076509Y-84751669D01*
X90036055Y-84785027D01*
X90023607Y-84791507D01*
X90019474Y-84794610D01*
X90019471Y-84794612D01*
X89849100Y-84922530D01*
X89844965Y-84925635D01*
X89841393Y-84929373D01*
X89711247Y-85065563D01*
X89690629Y-85087138D01*
X89564743Y-85271680D01*
X89470688Y-85474305D01*
X89410989Y-85689570D01*
X89387251Y-85911695D01*
X89387548Y-85916848D01*
X89387548Y-85916851D01*
X89393011Y-86011590D01*
X89400110Y-86134715D01*
X89401247Y-86139761D01*
X89401248Y-86139767D01*
X89408075Y-86170060D01*
X89449222Y-86352639D01*
X89533266Y-86559616D01*
X89649987Y-86750088D01*
X89796250Y-86918938D01*
X89968126Y-87061632D01*
X90028287Y-87096787D01*
X90041445Y-87104476D01*
X90090169Y-87156114D01*
X90103240Y-87225897D01*
X90076509Y-87291669D01*
X90036055Y-87325027D01*
X90023607Y-87331507D01*
X90019474Y-87334610D01*
X90019471Y-87334612D01*
X89849100Y-87462530D01*
X89844965Y-87465635D01*
X89841393Y-87469373D01*
X89711247Y-87605563D01*
X89690629Y-87627138D01*
X89564743Y-87811680D01*
X89470688Y-88014305D01*
X89410989Y-88229570D01*
X89387251Y-88451695D01*
X89387548Y-88456848D01*
X89387548Y-88456851D01*
X89393011Y-88551590D01*
X89400110Y-88674715D01*
X89401247Y-88679761D01*
X89401248Y-88679767D01*
X89408075Y-88710060D01*
X89449222Y-88892639D01*
X89533266Y-89099616D01*
X89649987Y-89290088D01*
X89796250Y-89458938D01*
X89968126Y-89601632D01*
X90028287Y-89636787D01*
X90041445Y-89644476D01*
X90090169Y-89696114D01*
X90103240Y-89765897D01*
X90076509Y-89831669D01*
X90036055Y-89865027D01*
X90023607Y-89871507D01*
X90019474Y-89874610D01*
X90019471Y-89874612D01*
X89849100Y-90002530D01*
X89844965Y-90005635D01*
X89841393Y-90009373D01*
X89711247Y-90145563D01*
X89690629Y-90167138D01*
X89564743Y-90351680D01*
X89470688Y-90554305D01*
X89410989Y-90769570D01*
X89387251Y-90991695D01*
X87230242Y-90991695D01*
X87211306Y-90775255D01*
X87153441Y-90559297D01*
X87151741Y-90552952D01*
X87151740Y-90552950D01*
X87150318Y-90547642D01*
X87070509Y-90376492D01*
X87053054Y-90339059D01*
X87053052Y-90339056D01*
X87050731Y-90334078D01*
X86915573Y-90141051D01*
X86748949Y-89974427D01*
X86624238Y-89887104D01*
X86561555Y-89843213D01*
X86517226Y-89787756D01*
X86509917Y-89717137D01*
X86541947Y-89653776D01*
X86561555Y-89636787D01*
X86744437Y-89508732D01*
X86748949Y-89505573D01*
X86915573Y-89338949D01*
X87050731Y-89145922D01*
X87055868Y-89134907D01*
X87147995Y-88937340D01*
X87147996Y-88937338D01*
X87150318Y-88932358D01*
X87191672Y-88778023D01*
X87209882Y-88710060D01*
X87209882Y-88710059D01*
X87211306Y-88704745D01*
X87231844Y-88470000D01*
X87211306Y-88235255D01*
X87153441Y-88019297D01*
X87151741Y-88012952D01*
X87151740Y-88012950D01*
X87150318Y-88007642D01*
X87070509Y-87836492D01*
X87053054Y-87799059D01*
X87053052Y-87799056D01*
X87050731Y-87794078D01*
X86915573Y-87601051D01*
X86748949Y-87434427D01*
X86624238Y-87347104D01*
X86561555Y-87303213D01*
X86517226Y-87247756D01*
X86509917Y-87177137D01*
X86541947Y-87113776D01*
X86561555Y-87096787D01*
X86744437Y-86968732D01*
X86748949Y-86965573D01*
X86915573Y-86798949D01*
X87050731Y-86605922D01*
X87055868Y-86594907D01*
X87147995Y-86397340D01*
X87147996Y-86397338D01*
X87150318Y-86392358D01*
X87191672Y-86238023D01*
X87209882Y-86170060D01*
X87209882Y-86170059D01*
X87211306Y-86164745D01*
X87231844Y-85930000D01*
X87211306Y-85695255D01*
X87153441Y-85479297D01*
X87151741Y-85472952D01*
X87151740Y-85472950D01*
X87150318Y-85467642D01*
X87070509Y-85296492D01*
X87053054Y-85259059D01*
X87053052Y-85259056D01*
X87050731Y-85254078D01*
X86915573Y-85061051D01*
X86748949Y-84894427D01*
X86624238Y-84807104D01*
X86561555Y-84763213D01*
X86517226Y-84707756D01*
X86509917Y-84637137D01*
X86541947Y-84573776D01*
X86561555Y-84556787D01*
X86744437Y-84428732D01*
X86748949Y-84425573D01*
X86915573Y-84258949D01*
X87050731Y-84065922D01*
X87055868Y-84054907D01*
X87147995Y-83857340D01*
X87147996Y-83857338D01*
X87150318Y-83852358D01*
X87191672Y-83698023D01*
X87209882Y-83630060D01*
X87209882Y-83630059D01*
X87211306Y-83624745D01*
X87231844Y-83390000D01*
X87211306Y-83155255D01*
X87153441Y-82939297D01*
X87151741Y-82932952D01*
X87151740Y-82932950D01*
X87150318Y-82927642D01*
X87070509Y-82756492D01*
X87053054Y-82719059D01*
X87053052Y-82719056D01*
X87050731Y-82714078D01*
X86915573Y-82521051D01*
X86748949Y-82354427D01*
X86624238Y-82267104D01*
X86561555Y-82223213D01*
X86517226Y-82167756D01*
X86509917Y-82097137D01*
X86541947Y-82033776D01*
X86561555Y-82016787D01*
X86744437Y-81888732D01*
X86748949Y-81885573D01*
X86915573Y-81718949D01*
X87050731Y-81525922D01*
X87055868Y-81514907D01*
X87147995Y-81317340D01*
X87147996Y-81317338D01*
X87150318Y-81312358D01*
X87191672Y-81158023D01*
X87209882Y-81090060D01*
X87209882Y-81090059D01*
X87211306Y-81084745D01*
X87231844Y-80850000D01*
X87211306Y-80615255D01*
X87153441Y-80399297D01*
X87151741Y-80392952D01*
X87151740Y-80392950D01*
X87150318Y-80387642D01*
X87070509Y-80216492D01*
X87053054Y-80179059D01*
X87053052Y-80179056D01*
X87050731Y-80174078D01*
X86915573Y-79981051D01*
X86748949Y-79814427D01*
X86624238Y-79727104D01*
X86561555Y-79683213D01*
X86517226Y-79627756D01*
X86509917Y-79557137D01*
X86541947Y-79493776D01*
X86561555Y-79476787D01*
X86744437Y-79348732D01*
X86748949Y-79345573D01*
X86915573Y-79178949D01*
X87050731Y-78985922D01*
X87055868Y-78974907D01*
X87147995Y-78777340D01*
X87147996Y-78777338D01*
X87150318Y-78772358D01*
X87191672Y-78618023D01*
X87209882Y-78550060D01*
X87209882Y-78550059D01*
X87211306Y-78544745D01*
X87231844Y-78310000D01*
X87211306Y-78075255D01*
X87153441Y-77859297D01*
X87151741Y-77852952D01*
X87151740Y-77852950D01*
X87150318Y-77847642D01*
X87070509Y-77676492D01*
X87053054Y-77639059D01*
X87053052Y-77639056D01*
X87050731Y-77634078D01*
X86915573Y-77441051D01*
X86748949Y-77274427D01*
X86624238Y-77187104D01*
X86561555Y-77143213D01*
X86517226Y-77087756D01*
X86509917Y-77017137D01*
X86541947Y-76953776D01*
X86561555Y-76936787D01*
X86744437Y-76808732D01*
X86748949Y-76805573D01*
X86915573Y-76638949D01*
X87050731Y-76445922D01*
X87055868Y-76434907D01*
X87147995Y-76237340D01*
X87147996Y-76237338D01*
X87150318Y-76232358D01*
X87191672Y-76078023D01*
X87209882Y-76010060D01*
X87209882Y-76010059D01*
X87211306Y-76004745D01*
X87231844Y-75770000D01*
X87211306Y-75535255D01*
X87153441Y-75319297D01*
X87151741Y-75312952D01*
X87151740Y-75312950D01*
X87150318Y-75307642D01*
X87070509Y-75136492D01*
X87053054Y-75099059D01*
X87053052Y-75099056D01*
X87050731Y-75094078D01*
X86915573Y-74901051D01*
X86748949Y-74734427D01*
X86624238Y-74647104D01*
X86561555Y-74603213D01*
X86517226Y-74547756D01*
X86509917Y-74477137D01*
X86541947Y-74413776D01*
X86561555Y-74396787D01*
X86744437Y-74268732D01*
X86748949Y-74265573D01*
X86915573Y-74098949D01*
X87050731Y-73905922D01*
X87055868Y-73894907D01*
X87147995Y-73697340D01*
X87147996Y-73697338D01*
X87150318Y-73692358D01*
X87191672Y-73538023D01*
X87209882Y-73470060D01*
X87209882Y-73470059D01*
X87211306Y-73464745D01*
X87231844Y-73230000D01*
X87211306Y-72995255D01*
X87153441Y-72779297D01*
X87151741Y-72772952D01*
X87151740Y-72772950D01*
X87150318Y-72767642D01*
X87070509Y-72596492D01*
X87053054Y-72559059D01*
X87053052Y-72559056D01*
X87050731Y-72554078D01*
X86915573Y-72361051D01*
X86748949Y-72194427D01*
X86624238Y-72107104D01*
X86561555Y-72063213D01*
X86517226Y-72007756D01*
X86509917Y-71937137D01*
X86541947Y-71873776D01*
X86561555Y-71856787D01*
X86744437Y-71728732D01*
X86748949Y-71725573D01*
X86915573Y-71558949D01*
X87050731Y-71365922D01*
X87055868Y-71354907D01*
X87147995Y-71157340D01*
X87147996Y-71157338D01*
X87150318Y-71152358D01*
X87191672Y-70998023D01*
X87209882Y-70930060D01*
X87209882Y-70930059D01*
X87211306Y-70924745D01*
X87231844Y-70690000D01*
X87211306Y-70455255D01*
X87153441Y-70239297D01*
X87151741Y-70232952D01*
X87151740Y-70232950D01*
X87150318Y-70227642D01*
X87070509Y-70056492D01*
X87053054Y-70019059D01*
X87053052Y-70019056D01*
X87050731Y-70014078D01*
X86915573Y-69821051D01*
X86748949Y-69654427D01*
X86624238Y-69567104D01*
X86561555Y-69523213D01*
X86517226Y-69467756D01*
X86509917Y-69397137D01*
X86541947Y-69333776D01*
X86561555Y-69316787D01*
X86744437Y-69188732D01*
X86748949Y-69185573D01*
X86915573Y-69018949D01*
X87050731Y-68825922D01*
X87055868Y-68814907D01*
X87147995Y-68617340D01*
X87147996Y-68617338D01*
X87150318Y-68612358D01*
X87191672Y-68458023D01*
X87209882Y-68390060D01*
X87209882Y-68390059D01*
X87211306Y-68384745D01*
X87231844Y-68150000D01*
X87211306Y-67915255D01*
X87153441Y-67699297D01*
X87151741Y-67692952D01*
X87151740Y-67692950D01*
X87150318Y-67687642D01*
X87070509Y-67516492D01*
X87053054Y-67479059D01*
X87053052Y-67479056D01*
X87050731Y-67474078D01*
X86915573Y-67281051D01*
X86748949Y-67114427D01*
X86624238Y-67027104D01*
X86561555Y-66983213D01*
X86517226Y-66927756D01*
X86509917Y-66857137D01*
X86541947Y-66793776D01*
X86561555Y-66776787D01*
X86744437Y-66648732D01*
X86748949Y-66645573D01*
X86915573Y-66478949D01*
X87050731Y-66285922D01*
X87055868Y-66274907D01*
X87147995Y-66077340D01*
X87147996Y-66077338D01*
X87150318Y-66072358D01*
X87191672Y-65918023D01*
X87209882Y-65850060D01*
X87209882Y-65850059D01*
X87211306Y-65844745D01*
X87231844Y-65610000D01*
X87211306Y-65375255D01*
X87153441Y-65159297D01*
X87151741Y-65152952D01*
X87151740Y-65152950D01*
X87150318Y-65147642D01*
X87070509Y-64976492D01*
X87053054Y-64939059D01*
X87053052Y-64939056D01*
X87050731Y-64934078D01*
X86915573Y-64741051D01*
X86748949Y-64574427D01*
X86624238Y-64487104D01*
X86561555Y-64443213D01*
X86517226Y-64387756D01*
X86509917Y-64317137D01*
X86541947Y-64253776D01*
X86561555Y-64236787D01*
X86744437Y-64108732D01*
X86748949Y-64105573D01*
X86915573Y-63938949D01*
X87050731Y-63745922D01*
X87055868Y-63734907D01*
X87147995Y-63537340D01*
X87147996Y-63537338D01*
X87150318Y-63532358D01*
X87191672Y-63378023D01*
X87209882Y-63310060D01*
X87209882Y-63310059D01*
X87211306Y-63304745D01*
X87231844Y-63070000D01*
X87211306Y-62835255D01*
X87153441Y-62619297D01*
X87151741Y-62612952D01*
X87151740Y-62612950D01*
X87150318Y-62607642D01*
X87070509Y-62436492D01*
X87053054Y-62399059D01*
X87053052Y-62399056D01*
X87050731Y-62394078D01*
X86915573Y-62201051D01*
X86748949Y-62034427D01*
X86624238Y-61947104D01*
X86561555Y-61903213D01*
X86517226Y-61847756D01*
X86509917Y-61777137D01*
X86541947Y-61713776D01*
X86561555Y-61696787D01*
X86744437Y-61568732D01*
X86748949Y-61565573D01*
X86915573Y-61398949D01*
X87050731Y-61205922D01*
X87055868Y-61194907D01*
X87147995Y-60997340D01*
X87147996Y-60997338D01*
X87150318Y-60992358D01*
X87191672Y-60838023D01*
X87209882Y-60770060D01*
X87209882Y-60770059D01*
X87211306Y-60764745D01*
X87231844Y-60530000D01*
X87211306Y-60295255D01*
X87153441Y-60079297D01*
X87151741Y-60072952D01*
X87151740Y-60072950D01*
X87150318Y-60067642D01*
X87070509Y-59896492D01*
X87053054Y-59859059D01*
X87053052Y-59859056D01*
X87050731Y-59854078D01*
X86915573Y-59661051D01*
X86748949Y-59494427D01*
X86624238Y-59407104D01*
X86561555Y-59363213D01*
X86517226Y-59307756D01*
X86509917Y-59237137D01*
X86541947Y-59173776D01*
X86561555Y-59156787D01*
X86744437Y-59028732D01*
X86748949Y-59025573D01*
X86915573Y-58858949D01*
X87050731Y-58665922D01*
X87055868Y-58654907D01*
X87147995Y-58457340D01*
X87147996Y-58457338D01*
X87150318Y-58452358D01*
X87191672Y-58298023D01*
X87209882Y-58230060D01*
X87209882Y-58230059D01*
X87211306Y-58224745D01*
X87231844Y-57990000D01*
X87211306Y-57755255D01*
X87153441Y-57539297D01*
X87151741Y-57532952D01*
X87151740Y-57532950D01*
X87150318Y-57527642D01*
X87070509Y-57356492D01*
X87053054Y-57319059D01*
X87053052Y-57319056D01*
X87050731Y-57314078D01*
X86915573Y-57121051D01*
X86789392Y-56994870D01*
X86755366Y-56932558D01*
X86760431Y-56861743D01*
X86802978Y-56804907D01*
X86834257Y-56787793D01*
X86956497Y-56741967D01*
X86964905Y-56738815D01*
X87081461Y-56651461D01*
X87168815Y-56534905D01*
X87219945Y-56398516D01*
X87226700Y-56336334D01*
X87226700Y-55199183D01*
X89414389Y-55199183D01*
X89415912Y-55207607D01*
X89428292Y-55211000D01*
X90477885Y-55211000D01*
X90493124Y-55206525D01*
X90494329Y-55205135D01*
X90496000Y-55197452D01*
X90496000Y-55192885D01*
X91004000Y-55192885D01*
X91008475Y-55208124D01*
X91009865Y-55209329D01*
X91017548Y-55211000D01*
X92068344Y-55211000D01*
X92081875Y-55207027D01*
X92083180Y-55197947D01*
X92041214Y-55030875D01*
X92037894Y-55021124D01*
X91952972Y-54825814D01*
X91948105Y-54816739D01*
X91832426Y-54637926D01*
X91826136Y-54629757D01*
X91682806Y-54472240D01*
X91675273Y-54465215D01*
X91508139Y-54333222D01*
X91499552Y-54327517D01*
X91462116Y-54306851D01*
X91412146Y-54256419D01*
X91397374Y-54186976D01*
X91422490Y-54120571D01*
X91449842Y-54093964D01*
X91625327Y-53968792D01*
X91633200Y-53962139D01*
X91784052Y-53811812D01*
X91790730Y-53803965D01*
X91915003Y-53631020D01*
X91920313Y-53622183D01*
X92014670Y-53431267D01*
X92018469Y-53421672D01*
X92080377Y-53217910D01*
X92082555Y-53207837D01*
X92083986Y-53196962D01*
X92081775Y-53182778D01*
X92068617Y-53179000D01*
X91022115Y-53179000D01*
X91006876Y-53183475D01*
X91005671Y-53184865D01*
X91004000Y-53192548D01*
X91004000Y-55192885D01*
X90496000Y-55192885D01*
X90496000Y-53197115D01*
X90491525Y-53181876D01*
X90490135Y-53180671D01*
X90482452Y-53179000D01*
X89433225Y-53179000D01*
X89419694Y-53182973D01*
X89418257Y-53192966D01*
X89448565Y-53327446D01*
X89451645Y-53337275D01*
X89531770Y-53534603D01*
X89536413Y-53543794D01*
X89647694Y-53725388D01*
X89653777Y-53733699D01*
X89793213Y-53894667D01*
X89800580Y-53901883D01*
X89964434Y-54037916D01*
X89972881Y-54043831D01*
X90042479Y-54084501D01*
X90091203Y-54136140D01*
X90104274Y-54205923D01*
X90077543Y-54271694D01*
X90037087Y-54305053D01*
X90028462Y-54309542D01*
X90019738Y-54315036D01*
X89849433Y-54442905D01*
X89841726Y-54449748D01*
X89694590Y-54603717D01*
X89688104Y-54611727D01*
X89568098Y-54787649D01*
X89563000Y-54796623D01*
X89473338Y-54989783D01*
X89469775Y-54999470D01*
X89414389Y-55199183D01*
X87226700Y-55199183D01*
X87226700Y-54563666D01*
X87219945Y-54501484D01*
X87168815Y-54365095D01*
X87081461Y-54248539D01*
X86964905Y-54161185D01*
X86828516Y-54110055D01*
X86766334Y-54103300D01*
X84993666Y-54103300D01*
X84931484Y-54110055D01*
X84795095Y-54161185D01*
X84710064Y-54224912D01*
X84643559Y-54249760D01*
X84574177Y-54234707D01*
X84523946Y-54184533D01*
X84508500Y-54124086D01*
X84508500Y-52659183D01*
X89414389Y-52659183D01*
X89415912Y-52667607D01*
X89428292Y-52671000D01*
X90477885Y-52671000D01*
X90493124Y-52666525D01*
X90494329Y-52665135D01*
X90496000Y-52657452D01*
X90496000Y-52652885D01*
X91004000Y-52652885D01*
X91008475Y-52668124D01*
X91009865Y-52669329D01*
X91017548Y-52671000D01*
X92068344Y-52671000D01*
X92081875Y-52667027D01*
X92083180Y-52657947D01*
X92041214Y-52490875D01*
X92037894Y-52481124D01*
X91952972Y-52285814D01*
X91948105Y-52276739D01*
X91832426Y-52097926D01*
X91826136Y-52089757D01*
X91682806Y-51932240D01*
X91675273Y-51925215D01*
X91508139Y-51793222D01*
X91499552Y-51787517D01*
X91313117Y-51684599D01*
X91303705Y-51680369D01*
X91102959Y-51609280D01*
X91092988Y-51606646D01*
X91021837Y-51593972D01*
X91008540Y-51595432D01*
X91004000Y-51609989D01*
X91004000Y-52652885D01*
X90496000Y-52652885D01*
X90496000Y-51608102D01*
X90492082Y-51594758D01*
X90477806Y-51592771D01*
X90439324Y-51598660D01*
X90429288Y-51601051D01*
X90226868Y-51667212D01*
X90217359Y-51671209D01*
X90028463Y-51769542D01*
X90019738Y-51775036D01*
X89849433Y-51902905D01*
X89841726Y-51909748D01*
X89694590Y-52063717D01*
X89688104Y-52071727D01*
X89568098Y-52247649D01*
X89563000Y-52256623D01*
X89473338Y-52449783D01*
X89469775Y-52459470D01*
X89414389Y-52659183D01*
X84508500Y-52659183D01*
X84508500Y-50634500D01*
X84528502Y-50566379D01*
X84582158Y-50519886D01*
X84634500Y-50508500D01*
X102365500Y-50508500D01*
X102433621Y-50528502D01*
G37*
%TD.AperFunction*%
%TD*%
M02*
