M48
; DRILL file {KiCad (6.0.7-1)-1} date Monday, January 02, 2023 at 02:41:20 pm
; FORMAT={-:-/ absolute / inch / decimal}
; #@! TF.CreationDate,2023-01-02T14:41:20-08:00
; #@! TF.GenerationSoftware,Kicad,Pcbnew,(6.0.7-1)-1
; #@! TF.FileFunction,Plated,1,2,PTH
FMAT,2
INCH
; #@! TA.AperFunction,Plated,PTH,ComponentDrill
T1C0.0394
; #@! TA.AperFunction,Plated,PTH,ComponentDrill
T2C0.0440
%
G90
G05
T1
X3.5728Y-2.0837
X3.5728Y-2.1837
X3.5728Y-2.2837
X3.5728Y-2.3837
X3.5728Y-2.4837
X3.5728Y-2.5837
X3.5728Y-2.6837
X3.5728Y-2.7837
X3.5728Y-2.8837
X3.5728Y-2.9837
X3.5728Y-3.0837
X3.5728Y-3.1837
X3.5728Y-3.2837
X3.5728Y-3.3837
X3.5728Y-3.4837
X3.5728Y-3.5837
X3.5728Y-3.6837
X3.5728Y-3.7837
X3.7697Y-2.0837
X3.7697Y-2.1837
X3.7697Y-2.2837
X3.7697Y-2.3837
X3.7697Y-2.4837
X3.7697Y-2.5837
X3.7697Y-2.6837
X3.7697Y-2.7837
X3.7697Y-2.8837
X3.7697Y-2.9837
X3.7697Y-3.0837
X3.7697Y-3.1837
X3.7697Y-3.2837
X3.7697Y-3.3837
X3.7697Y-3.4837
X3.7697Y-3.5837
X3.7697Y-3.6837
X3.7697Y-3.7837
T2
X3.3811Y-2.1831
X3.3811Y-2.2831
X3.3811Y-2.3831
X3.3811Y-2.4831
X3.3811Y-2.5831
X3.3811Y-2.6831
X3.3811Y-2.7831
X3.3811Y-2.8831
X3.3811Y-2.9831
X3.3811Y-3.0831
X3.3811Y-3.1831
X3.3811Y-3.2831
X3.3811Y-3.3831
X3.3811Y-3.4831
X3.3811Y-3.5831
X3.3811Y-3.6831
X3.9811Y-2.1831
X3.9811Y-2.2831
X3.9811Y-2.3831
X3.9811Y-2.4831
X3.9811Y-2.5831
X3.9811Y-2.6831
X3.9811Y-2.7831
X3.9811Y-2.8831
X3.9811Y-2.9831
X3.9811Y-3.0831
X3.9811Y-3.1831
X3.9811Y-3.2831
X3.9811Y-3.3831
X3.9811Y-3.4831
X3.9811Y-3.5831
X3.9811Y-3.6831
T0
M30
